<svg xmlns="http://www.w3.org/2000/svg" xmlns:xlink="http://www.w3.org/1999/xlink" width="446" height="618" viewBox="0 0 446 618"><defs><path id="hero-illustration-a" d="M.757 21.097s-3.275 20.311 22.276 20.311c19-.654 21.616-14.38 19.987-14.593-3.608-.475-2.482-19.947-2.482-19.947L3.835.286S4.032 21.097.757 21.097"/></defs><g fill="none" fill-rule="evenodd"><g transform="translate(0 -.988)"><path fill="#3A4665" d="M123.28 150.45c0-56.284 45.023-102.074 100.365-102.074 55.342 0 100.366 45.79 100.366 102.074v94.337H123.28V150.45zm246.925 94.269v-94.337c0-82.377-66.178-149.394-147.52-149.394-81.344 0-147.521 67.017-147.521 149.394v94.337H41.07C18.388 244.719 0 263.127 0 285.836V620h446V285.836c0-22.709-18.388-41.117-41.071-41.117h-34.724z"/><path fill="#1b2230" d="M295.536 619.269l-3.63-118.18s-.202-13.156-10.126-18.919c-10.8-6.271-23.589-9.121-26.018-9.624-1.993-.676-5.973-3.356-6.223-13.977-.185-7.839 2.477-10.919 3.977-12.033.317-.18.628-.367.94-.556.03-.013.051-.02.051-.02h-.018c11.771-7.143 19.673-20.325 19.673-35.413 0-22.69-17.858-41.083-39.889-41.083-22.03 0-39.888 18.392-39.888 41.083 0 14.88 7.68 27.912 19.182 35.122l-.056-.003s3.993 1.6 3.476 14.813c-.378 9.67-5.142 10.296-5.142 10.296l.154.007c-1.935.68-5.047 1.697-10.09 3.223-20.97 6.34-22.914 22.21-22.914 22.21s-14.457 31.273-18.246 62.843c-4.093 34.115-1.262 39.778-1.262 39.778l18.307 20.221 117.742.212zm-40.864-146.592l.6.027-.004.012-.596-.039z"/></g><g transform="translate(30.925 434.465)"><path fill="#A2AAA8" d="M120.826 5.68l31.753 8.058s17.689 3.276 19.655 15.723c1.594 10.096 7.472 87.263 7.472 87.263s5.612 36.08-16.837 38.083h-8.419l1.86 28.798-122.254.211 1.556-47.448s-13.411 7.748-21.274 5.782c0 0-17.366-1.097-13.757-25.552 3.607-24.453 17.47-96.486 17.47-96.486S19.58 4.374 40.593 1.735L82.476.193l38.35 5.487z"/><polygon fill="#E7E1E0" points="79.046 .192 86.638 60.894 79.378 183.816 112.075 183.816 110.283 62.44 121.538 7.723 87.062 .192"/></g><g transform="translate(82.968 304.732)"><path fill="#1B212F" d="M51.851 103.633c28.473 0 51.555-23.081 51.555-51.555C103.406 23.607 80.324.526 51.85.526 23.38.526.297 23.606.297 52.078c0 28.474 23.082 51.555 51.554 51.555"/><path fill="#70464F" d="M30.235 108.898s.197 20.813-3.078 20.813c0 0-3.276 20.31 22.275 20.31 19-.655 21.616-14.38 19.987-14.594-3.608-.474-2.481-19.946-2.481-19.946l-36.703-6.583z"/></g><g transform="translate(109.367 413.345)"><mask id="hero-illustration-b" fill="#fff"><use xlink:href="#hero-illustration-a"/></mask><path fill="#1B212F" d="M26.309 22.218c.655.19 15.054-3.43 15.724 12.639l3.276 4.586V5.374L26.964 21.098s-1.31.928-.655 1.12" mask="url(#hero-illustration-b)"/></g><g transform="translate(73.163 362.81)"><path fill="#70464F" d="M34.341 31.667l-.081 9.063s.909 22.815 25.232 30.712c0 0 12.534 5.095 26.35-20.91 0 0 4.013-6.578 3.135-21.495 0 0 4.33-27.506-25.077-28.89-27.68-1.303-30.87 17.108-29.56 31.52"/><path fill="#FF6432" d="M72.958 154.356l3.801-11.4s2.133-3.84-2.872-3.818c-6.08.026-20.687-.465-20.687-.465s-2.748-1.035-4.794 5.804c-2.047 6.84-5.846 24.318-5.846 24.318s-3.633 9.119 2.264 9.119h17.495s3.04-.76 4.56-4.558c1.52-3.802 6.08-19 6.08-19"/><path fill="#70464F" d="M106.199 170.74L87.41 150.253s-3.492-3.53-5.897-3.93c-2.405-.402-5.38-1.71-5.38-1.71l-2.005 6.884s4.07 2.54 6.075 3.342l-4.07 1.067-13.757-4.07s-3.412-1.392-4.183.8c-.604 1.717.653 3.475 2.618 4.344 1.967.868 12.84 7.032 12.84 7.032l-14.53 1.116-9.446-.403v3.209l9.446 2.806-11.677-5.418.057 7.367 25.024 6.87s5.368 2.004 15.312 3.207l11.947 16.035s9.622-13.229 6.415-28.06"/><path fill="#70464F" d="M4.776 182.766l11.225-10.022s4.01 1.604 9.622 2.405c5.611.803 15.232 1.202 15.232 1.202l13.797-3.167s2.62-.763 2.62-1.966l-2.787-1.68 10.649-1.594-14.256-3.618 9.173-.802s3.118-.168 3.118-2.133c0-1.203.413-2.159-3.276-2.62-5.241-.657-15.514-2.4-15.514-2.4s4.895.338 5.295-2.068c.402-2.405-1.068-3.608-4.543-4.81-3.474-1.202-11.445-3.826-11.445-3.826s-6.861-3.39-12.073-.583c-5.211 2.805-17.237 10.823-17.237 10.823s-9.22 7.55.4 26.859"/><path fill="#1b2230" d="M61.089 48.431c-.61.14-1.085.297-1.57.334-.501-.124-.568-.166-.632-.343-.058-.159.135-.534.317-.634.759-.417 1.333-.09 1.885.643m3.593.023c.418-.712.946-1.094 1.734-.69.198.1.257.474.38.723-.23.094-.468.278-.689.261-.457-.035-.906-.18-1.425-.294M93.3 30.19c0-7.5-6.294-13.582-14.057-13.582-5.029 0-9.439 2.554-11.923 6.39 0 0-.467 1.265-2.643 1.265-2.396 0-4.063-.046-4.063-.046s-1.954.235-2.98-1.42l.004.015c-2.505-3.732-6.852-6.204-11.798-6.204-7.764 0-14.056 6.081-14.056 13.583 0 7.501 6.292 13.582 14.056 13.582 7.763 0 14.055-6.08 14.055-13.582 0-.401-.02-.797-.056-1.188.124-.581-.156-1.92 1.79-2.072h2.265s1.218-.056 1.348 2.093a12.98 12.98 0 0 0-.055 1.167c0 7.501 6.292 13.582 14.056 13.582 7.763 0 14.056-6.08 14.056-13.582"/><path fill="#8F6770" d="M71.586 56.794c.611.34.67 1.055.129 1.47-1.874 1.432-3.25 3.122-5.706 3.557-3.645.645-7.217.646-9.974-2.01-.576-.556-1.186-1.049-1.872-1.583-.53-.412-.461-1.121.14-1.46 1.677-.945 3.232-1.875 4.961-2.668.61-.279 1.673-.085 2.44.118.834.22 1.5.235 2.34-.022.747-.229 1.83-.382 2.446-.099 1.705.785 3.318 1.708 5.096 2.697m-6.192.09h-5.118c1.036.783 4.32.79 5.118 0"/></g></g></svg>
