<?xml version="1.0" standalone="no"?>
<!DOCTYPE svg PUBLIC "-//W3C//DTD SVG 1.1//EN" "http://www.w3.org/Graphics/SVG/1.1/DTD/svg11.dtd" >
<svg xmlns="http://www.w3.org/2000/svg" xmlns:xlink="http://www.w3.org/1999/xlink" version="1.1">
<metadata>
Created by FontForge 20170731 at Fri Dec 18 13:48:08 2020
 By Aleksey,,,
Copyright (c) 2018 Schick Toikka. All rights reserved. Scto Grotesk B is a trademark of Schick Toikka. Unauthorised copying or modification of any of its data is illegal.
</metadata>
<defs>
<font id="SctoGroteskB-BoldItalic" horiz-adv-x="1689" >
  <font-face 
    font-family="Scto Grotesk B"
    font-weight="700"
    font-style="italic"
    font-stretch="normal"
    units-per-em="2048"
    panose-1="2 11 8 3 0 0 0 9 0 4"
    ascent="1638"
    descent="-410"
    x-height="1016"
    cap-height="1421"
    bbox="-459 -518 2097 1954"
    underline-thickness="79"
    underline-position="-437"
    unicode-range="U+0020-FB02"
  />
<missing-glyph horiz-adv-x="1247" 
d="M1298 1421l-313 -1779h-1030l311 1779h1032zM610 442l-510 -714h768zM672 528l256 -704l250 1413zM381 1335l256 -706l504 706h-760zM322 1237l-246 -1395l497 699z" />
    <glyph glyph-name="fi" unicode="fi" horiz-adv-x="1177" 
d="M1188 1174h-285l41 229h285zM967 0h-254l178 1016h254zM690 799h-215l-139 -799h-254l139 799h-115l37 217h117l14 86q32 176 122.5 258t242.5 82q93 0 164 -15l-37 -210q-36 8 -86 8q-66 0 -103.5 -34.5t-52.5 -115.5l-10 -59h215z" />
    <glyph glyph-name="fl" unicode="fl" horiz-adv-x="1173" 
d="M956 0h-251l249 1421h252zM690 799h-215l-139 -799h-254l139 799h-115l37 217h117l14 86q32 176 122.5 258t242.5 82q93 0 164 -15l-37 -210q-36 8 -86 8q-66 0 -103.5 -34.5t-52.5 -115.5l-10 -59h215z" />
    <glyph glyph-name=".notdef" horiz-adv-x="1247" 
d="M1298 1421l-313 -1779h-1030l311 1779h1032zM610 442l-510 -714h768zM672 528l256 -704l250 1413zM381 1335l256 -706l504 706h-760zM322 1237l-246 -1395l497 699z" />
    <glyph glyph-name=".null" horiz-adv-x="0" 
 />
    <glyph glyph-name="nonmarkingreturn" horiz-adv-x="682" 
 />
    <glyph glyph-name="space" unicode=" " horiz-adv-x="366" 
 />
    <glyph glyph-name="exclam" unicode="!" horiz-adv-x="544" 
d="M365 535h-181l70 620l47 266h262l-47 -266zM39 0l51 289h285l-51 -289h-285z" />
    <glyph glyph-name="quotedbl" unicode="&#x22;" horiz-adv-x="819" 
d="M508 1421l-137 -561h-174l63 561h248zM874 1421l-137 -561h-174l64 561h247z" />
    <glyph glyph-name="numbersign" unicode="#" horiz-adv-x="1232" 
d="M1049 369h-215l-101 -328h-194l100 328h-205l-98 -328h-193l99 328h-176l32 180h201l96 321h-172l33 181h195l100 327h194l-100 -327h203l100 327h195l-103 -327h197l-33 -181h-217l-98 -321h190zM588 870l-96 -321h202l99 321h-205z" />
    <glyph glyph-name="dollar" unicode="$" horiz-adv-x="1146" 
d="M530 -217h-172l39 221q-92 23 -158 72.5t-100.5 115t-49.5 131.5t-15 138h254q0 -178 106 -244l76 424l-35 16q-134 63 -199 148.5t-65 212.5q0 176 117.5 294t320.5 122l37 204h172l-41 -225q101 -30 171.5 -101t100 -152.5t29.5 -168.5h-252q0 137 -86 205l-69 -389
l45 -21q146 -66 211 -150t65 -230q0 -81 -30.5 -155t-88 -133t-147.5 -95t-201 -37zM793 381q0 61 -30 103.5t-95 78.5l-68 -379q97 7 145 61.5t48 135.5zM451 1047q0 -101 102 -164l61 350q-81 -10 -122 -61.5t-41 -124.5z" />
    <glyph glyph-name="percent" unicode="%" horiz-adv-x="1521" 
d="M1212 1421h177l-1010 -1421h-176zM457 717q-124 0 -199.5 76t-75.5 221q0 108 43 205.5t123 160t176 62.5q125 0 201 -76.5t76 -220.5q0 -109 -43.5 -206.5t-123.5 -159.5t-177 -62zM524 1286q-72 0 -120 -85.5t-48 -186.5q0 -70 26.5 -106t74.5 -36q73 0 121.5 85
t48.5 188q0 69 -27.5 105t-75.5 36zM1135 547q-72 0 -120 -85.5t-48 -185.5q0 -143 100 -143q73 0 121.5 85t48.5 188q0 69 -27 105t-75 36zM1135 702q125 0 200.5 -75t75.5 -221q0 -108 -43.5 -206t-123.5 -160.5t-177 -62.5q-124 0 -199 76t-75 223q0 107 43 204.5
t123 159.5t176 62z" />
    <glyph glyph-name="ampersand" unicode="&#x26;" horiz-adv-x="1294" 
d="M41 338q0 133 81.5 240.5t254.5 195.5q-88 145 -88 295q0 70 26.5 136.5t76.5 120.5t130.5 87t179.5 33q173 0 272 -90.5t99 -225.5t-88 -238.5t-264 -191.5l176 -251q77 143 98 280h232q-48 -289 -199 -479l172 -250h-293l-65 92q-159 -117 -363 -117
q-207 0 -322.5 97.5t-115.5 265.5zM498 201q114 0 217 71l-219 320q-104 -60 -149.5 -118t-45.5 -124q0 -69 54.5 -109t142.5 -40zM543 1073q0 -100 61 -199q121 63 170 121.5t49 130.5q0 56 -32 88.5t-89 32.5q-72 0 -115.5 -50t-43.5 -124z" />
    <glyph glyph-name="quotesingle" unicode="'" horiz-adv-x="452" 
d="M506 1421l-135 -561h-176l63 561h248z" />
    <glyph glyph-name="parenleft" unicode="(" horiz-adv-x="651" 
d="M346 414q0 -337 131 -627h-209q-147 284 -147 627q0 591 416 1048h235q-426 -497 -426 -1048z" />
    <glyph glyph-name="parenright" unicode=")" horiz-adv-x="651" 
d="M334 836q0 341 -129 626h209q147 -284 147 -626q0 -592 -416 -1049h-235q424 495 424 1049z" />
    <glyph glyph-name="asterisk" unicode="*" horiz-adv-x="860" 
d="M645 768l-123 174l-121 -174l-149 104l131 170l-203 64l56 174l200 -72l-2 213h182l-6 -213l201 72l55 -174l-202 -64l131 -170z" />
    <glyph glyph-name="plus" unicode="+" horiz-adv-x="1228" 
d="M152 561l34 199h367l72 399h204l-71 -399h370l-34 -199h-371l-70 -401h-204l69 401h-366z" />
    <glyph glyph-name="comma" unicode="," horiz-adv-x="555" 
d="M383 289l-59 -334q-51 -290 -359 -293l25 135q157 3 184 154l8 49h-133l51 289h283z" />
    <glyph glyph-name="hyphen" unicode="-" horiz-adv-x="727" 
d="M96 442l39 222h506l-41 -222h-504z" />
    <glyph glyph-name="period" unicode="." horiz-adv-x="550" 
d="M43 0l51 289h285l-51 -289h-285z" />
    <glyph glyph-name="slash" unicode="/" horiz-adv-x="872" 
d="M987 1462l-827 -1675h-236l828 1675h235z" />
    <glyph glyph-name="zero" unicode="0" horiz-adv-x="1140" 
d="M518 195q72 0 135 70.5t104 180.5t64 240t23 254q0 153 -40 220t-120 67q-72 0 -135 -70.5t-104 -180.5t-64 -240.5t-23 -254.5q0 -153 40 -219.5t120 -66.5zM510 -25q-192 0 -303 132t-111 368q0 88 10 179.5t32.5 187.5t55.5 183t81.5 164.5t108 134t139 89.5t169.5 33
q193 0 303.5 -132t110.5 -368q0 -88 -10 -179.5t-32.5 -187.5t-55.5 -183t-81.5 -164.5t-108 -134t-139 -89.5t-169.5 -33z" />
    <glyph glyph-name="one" unicode="1" horiz-adv-x="784" 
d="M508 0h-260l194 1112l-305 -201l53 291l338 219h230z" />
    <glyph glyph-name="two" unicode="2" horiz-adv-x="1036" 
d="M856 0h-842l41 229l555 539q90 88 135.5 158t45.5 149q0 72 -39 112t-107 40q-89 0 -146.5 -64t-70.5 -186h-254q21 220 152.5 344.5t326.5 124.5q179 0 285 -97t106 -262q0 -231 -256 -469l-401 -387h510z" />
    <glyph glyph-name="three" unicode="3" horiz-adv-x="1081" 
d="M485 -25q-145 0 -246 57.5t-146 154.5t-40 223h254q-5 -107 44 -167.5t143 -60.5q93 0 154 69.5t61 178.5q0 92 -50.5 142.5t-140.5 50.5h-61l39 211h61q102 0 170 66t68 169q0 80 -42 124t-110 44q-80 0 -136 -58.5t-69 -166.5h-254q22 197 149.5 315.5t317.5 118.5
q179 0 284 -98t105 -265q0 -114 -63 -211t-170 -139q68 -32 117 -113.5t49 -187.5q0 -194 -135.5 -325.5t-352.5 -131.5z" />
    <glyph glyph-name="four" unicode="4" horiz-adv-x="1136" 
d="M819 0h-252l51 297h-598l41 223l705 901h303l-160 -909h142l-39 -215h-142zM655 512l105 588l-459 -588h354z" />
    <glyph glyph-name="five" unicode="5" horiz-adv-x="1069" 
d="M500 -25q-214 0 -329.5 119t-104.5 316h253q-6 -110 41 -169t134 -59q70 0 126 52t85.5 132t29.5 169q0 93 -41 147.5t-110 54.5q-63 0 -116.5 -45.5t-86.5 -116.5h-240l213 846h713l-41 -227h-489l-95 -348q90 90 226 90q68 0 127 -25t104.5 -72.5t71.5 -124t26 -173.5
q0 -109 -36.5 -212t-100.5 -181t-158 -125.5t-202 -47.5z" />
    <glyph glyph-name="six" unicode="6" horiz-adv-x="1093" 
d="M510 -25q-196 0 -305 128.5t-109 383.5q0 134 22.5 267.5t70.5 258.5t116 221t166 154t213 58q184 0 293 -104t106 -283h-254q2 80 -37 130t-104 50q-95 0 -177.5 -113.5t-131.5 -339.5q104 150 289 150q67 0 125.5 -23.5t105 -69.5t73.5 -121.5t27 -172.5
q0 -149 -60 -278t-173.5 -210.5t-255.5 -85.5zM504 182q70 0 125.5 57t82.5 137t27 161q0 87 -39.5 143.5t-113.5 56.5q-69 0 -124.5 -56t-83.5 -136.5t-28 -161.5q0 -87 40 -144t114 -57z" />
    <glyph glyph-name="seven" unicode="7" horiz-adv-x="950" 
d="M375 0h-275l615 1180h-535l43 241h811l-41 -229z" />
    <glyph glyph-name="eight" unicode="8" horiz-adv-x="1105" 
d="M496 -25q-202 0 -319.5 108.5t-117.5 276.5q0 129 76.5 240.5t210.5 157.5q-62 44 -94.5 116t-32.5 152q0 176 126 298t327 122q173 0 282 -97.5t109 -267.5q0 -112 -61 -207t-171 -141q75 -39 119.5 -121t44.5 -188q0 -90 -34.5 -171t-97 -143t-158 -98.5t-209.5 -36.5z
M502 180q95 0 163 78t68 193q0 83 -46.5 134.5t-131.5 51.5q-97 0 -165 -76.5t-68 -191.5q0 -85 46.5 -137t133.5 -52zM618 827q85 0 142 72.5t57 167.5q0 78 -41.5 125t-111.5 47q-86 -1 -142.5 -73.5t-56.5 -168.5q0 -78 40.5 -124t112.5 -46z" />
    <glyph glyph-name="nine" unicode="9" horiz-adv-x="1093" 
d="M643 1446q197 0 306.5 -128.5t109.5 -383.5q0 -134 -22.5 -267.5t-71 -258.5t-116 -221t-166.5 -154t-214 -58q-184 0 -292 104t-107 283h254q0 -81 38.5 -130.5t104.5 -49.5q95 0 177.5 113.5t129.5 339.5q-104 -150 -289 -150q-66 0 -124.5 23.5t-105 69.5t-74 122
t-27.5 172q0 150 60 279t173.5 210t255.5 85zM651 1239q-71 0 -127 -57t-83 -136.5t-27 -160.5q0 -87 39.5 -144t113.5 -57q69 0 125 56t84.5 136.5t28.5 161.5q0 87 -40 144t-114 57z" />
    <glyph glyph-name="colon" unicode=":" horiz-adv-x="571" 
d="M51 0l51 289h285l-51 -289h-285zM180 727l51 289h285l-51 -289h-285z" />
    <glyph glyph-name="semicolon" unicode=";" horiz-adv-x="575" 
d="M180 727l51 289h285l-51 -289h-285zM389 289l-61 -334q-51 -290 -359 -293l25 135q157 3 184 154l8 49h-133l51 289h285z" />
    <glyph glyph-name="less" unicode="&#x3c;" horiz-adv-x="1228" 
d="M229 559l37 205l850 393l-41 -231l-610 -277l514 -276l-37 -209z" />
    <glyph glyph-name="equal" unicode="=" horiz-adv-x="1228" 
d="M236 784l36 199h848l-35 -199h-849zM156 338l37 199h847l-34 -199h-850z" />
    <glyph glyph-name="greater" unicode="&#x3e;" horiz-adv-x="1228" 
d="M1049 764l-37 -205l-850 -395l41 231l610 277l-514 278l37 207z" />
    <glyph glyph-name="question" unicode="?" horiz-adv-x="909" 
d="M549 571l-8 -36h-205l2 43q5 61 29 112t58 85t74 63.5t79 56t71 53.5t52 63.5t20 80.5q0 63 -39.5 100t-110.5 37q-90 0 -141 -60t-63 -168h-254q26 212 150 328.5t317 116.5q183 0 292 -92.5t109 -241.5q0 -77 -30 -141.5t-75 -106t-99.5 -81.5t-102 -69t-83 -66.5
t-42.5 -76.5zM201 0l51 289h285l-52 -289h-284z" />
    <glyph glyph-name="at" unicode="@" horiz-adv-x="1812" 
d="M1255 41q-82 0 -135.5 38.5t-62.5 96.5q-111 -133 -279 -133q-136 0 -221.5 104.5t-85.5 270.5q0 102 28.5 199t81 175.5t136.5 126.5t186 48q174 0 256 -150l23 133h227l-113 -641q-4 -24 -4 -37q0 -24 15.5 -36.5t40.5 -12.5q61 0 118.5 65.5t94 174.5t36.5 227
q0 114 -37.5 211t-107.5 169t-178 112.5t-242 40.5q-169 0 -315.5 -66.5t-248 -179.5t-159 -266t-57.5 -324q0 -123 41 -230.5t114 -185.5t179.5 -123t232.5 -45q151 0 305 54l-24 -152q-83 -23 -145 -32t-146 -9q-161 0 -297.5 58t-228 157t-142.5 231t-51 279
q0 198 69.5 376.5t191.5 310.5t300.5 210t384.5 78q162 0 297.5 -54t225 -146t139 -214.5t49.5 -259.5q0 -92 -21 -184.5t-63.5 -176t-100.5 -148t-137.5 -102.5t-169.5 -38zM862 219q76 0 134.5 56.5t86 139t27.5 171.5q0 97 -37.5 151t-111.5 54q-76 0 -134 -57t-85 -139
t-27 -171q0 -97 37.5 -151t109.5 -54z" />
    <glyph glyph-name="A" unicode="A" horiz-adv-x="1312" 
d="M920 0l-41 313h-502l-150 -313h-276l696 1421h338l199 -1421h-264zM780 1165l-301 -626h377z" />
    <glyph glyph-name="B" unicode="B" horiz-adv-x="1245" 
d="M51 0l250 1421h508q189 0 290 -87t101 -249q0 -116 -64.5 -211.5t-179.5 -138.5q82 -28 134.5 -98.5t52.5 -175.5q0 -210 -142 -335.5t-383 -125.5h-567zM694 825q110 1 174 66t64 164q0 147 -170 147h-236l-67 -377h235zM629 219q115 1 180 68t65 174q0 160 -182 160
h-268l-72 -402h277z" />
    <glyph glyph-name="C" unicode="C" horiz-adv-x="1323" 
d="M637 -25q-253 0 -399 160.5t-146 431.5q0 124 28 247.5t87 237.5t141.5 201.5t201.5 140t257 52.5q234 0 376.5 -146t135.5 -385h-272q3 139 -63.5 218t-184.5 79q-99 0 -183 -58t-137 -151.5t-82.5 -207.5t-29.5 -230q0 -168 70 -262t198 -94q122 0 211 78t129 219h272
q-55 -251 -220 -391t-390 -140z" />
    <glyph glyph-name="D" unicode="D" horiz-adv-x="1329" 
d="M301 1421h461q132 0 236.5 -43t170.5 -119.5t100 -178.5t34 -222q0 -132 -30 -256t-92.5 -233.5t-151.5 -191.5t-216.5 -129.5t-277.5 -47.5h-484zM356 233h211q91 0 168.5 37t131 99t91 142t55 165.5t17.5 171.5q0 166 -81.5 253t-223.5 87h-201z" />
    <glyph glyph-name="E" unicode="E" horiz-adv-x="1163" 
d="M51 0l250 1421h905l-41 -237h-643l-59 -344h579l-41 -228h-579l-66 -374h656l-41 -238h-920z" />
    <glyph glyph-name="F" unicode="F" horiz-adv-x="1071" 
d="M51 0l250 1421h862l-41 -239h-600l-65 -373h538l-39 -238h-540l-101 -571h-264z" />
    <glyph glyph-name="G" unicode="G" horiz-adv-x="1382" 
d="M803 1446q127 0 228.5 -41.5t164 -112.5t95.5 -161t32 -191h-276q0 126 -66 199t-180 73q-100 0 -183.5 -58t-136.5 -152t-82.5 -208.5t-29.5 -232.5q0 -173 70.5 -263.5t199.5 -90.5q118 0 215 86.5t145 253.5h-280l39 223h540l-133 -770h-241l32 184q-62 -99 -164 -154
t-225 -55q-99 0 -185.5 39.5t-151 113t-101.5 185t-37 248.5q0 127 28.5 252t88 239.5t142 202t200 139.5t252.5 52z" />
    <glyph glyph-name="H" unicode="H" horiz-adv-x="1368" 
d="M51 0l250 1421h264l-100 -571h557l100 571h264l-249 -1421h-265l105 606h-557l-105 -606h-264z" />
    <glyph glyph-name="I" unicode="I" horiz-adv-x="548" 
d="M51 0l250 1421h264l-250 -1421h-264z" />
    <glyph glyph-name="J" unicode="J" horiz-adv-x="1122" 
d="M63 590h263q-25 -132 -25 -184q0 -89 44.5 -140t129.5 -51q99 0 162 72t92 227l160 907h264l-160 -907q-48 -270 -177.5 -404.5t-348.5 -134.5q-213 0 -321.5 116.5t-108.5 305.5q0 79 26 193z" />
    <glyph glyph-name="K" unicode="K" horiz-adv-x="1269" 
d="M51 0l250 1421h264l-112 -639l630 639h320l-584 -592l332 -829h-281l-254 637l-229 -227l-72 -410h-264z" />
    <glyph glyph-name="L" unicode="L" horiz-adv-x="1060" 
d="M51 0l250 1421h264l-209 -1181h596l-43 -240h-858z" />
    <glyph glyph-name="M" unicode="M" horiz-adv-x="1669" 
d="M1438 0h-246l182 1059l-502 -1059h-256l-133 1067l-184 -1067h-248l250 1421h367l133 -1083l516 1083h371z" />
    <glyph glyph-name="N" unicode="N" horiz-adv-x="1386" 
d="M1155 0h-315l-348 1055l-185 -1055h-256l250 1421h315l347 -1059l184 1059h258z" />
    <glyph glyph-name="O" unicode="O" horiz-adv-x="1374" 
d="M635 -25q-251 0 -397 162.5t-146 431.5q0 103 20.5 206.5t59 202t100 183t138.5 148.5t179.5 100.5t217.5 36.5q250 0 395.5 -162.5t145.5 -431.5q0 -124 -28 -247.5t-87 -237.5t-142 -201t-201 -139t-255 -52zM639 209q99 0 183.5 58t138 151t83 206t29.5 228
q0 173 -69.5 266.5t-200.5 93.5q-80 0 -150.5 -37.5t-121.5 -101.5t-88 -146.5t-55.5 -174t-18.5 -183.5q0 -173 69.5 -266.5t200.5 -93.5z" />
    <glyph glyph-name="P" unicode="P" horiz-adv-x="1171" 
d="M1210 1020q0 -240 -158 -384t-417 -144h-234l-86 -492h-264l250 1421h455q218 0 336 -106t118 -295zM647 715q132 1 211.5 85.5t79.5 217.5q0 88 -53.5 133t-153.5 45h-205l-86 -481h207z" />
    <glyph glyph-name="Q" unicode="Q" horiz-adv-x="1372" 
d="M633 -25q-251 0 -397 162.5t-146 431.5q0 103 20.5 206.5t59 202t100 183t138.5 148.5t179.5 100.5t217.5 36.5q250 0 395.5 -162.5t145.5 -431.5q0 -228 -92.5 -438.5t-262.5 -327.5l174 -340h-280l-129 244q-73 -15 -123 -15zM637 209q99 0 183.5 58t138 151t83 206
t29.5 228q0 173 -69.5 266.5t-200.5 93.5q-80 0 -150.5 -37.5t-121.5 -101.5t-88 -146.5t-55.5 -174t-18.5 -183.5q0 -173 69.5 -266.5t200.5 -93.5z" />
    <glyph glyph-name="R" unicode="R" horiz-adv-x="1263" 
d="M51 0l250 1421h524q196 0 306 -103t110 -282q0 -165 -85 -284.5t-234 -163.5l192 -588h-274l-178 545h-248l-99 -545h-264zM711 766q115 0 185.5 69.5t70.5 178.5q0 188 -205 188h-236l-75 -436h260z" />
    <glyph glyph-name="S" unicode="S" horiz-adv-x="1200" 
d="M1096 412q0 -185 -144.5 -311t-369.5 -126q-259 0 -393.5 133.5t-131.5 344.5h275q0 -119 65 -186.5t187 -67.5q104 0 177 55t73 143q0 63 -40 103.5t-118 70.5l-160 60q-307 113 -307 397q0 81 33 155.5t93 133.5t153 94t204 35q238 0 372.5 -127.5t129.5 -325.5h-272
q0 104 -61.5 167t-168.5 63q-97 0 -159 -51.5t-62 -127.5q0 -117 164 -178l139 -51q162 -59 242 -151.5t80 -251.5z" />
    <glyph glyph-name="T" unicode="T" horiz-adv-x="1130" 
d="M1243 1421l-43 -241h-387l-207 -1180h-264l207 1180h-389l43 241h1040z" />
    <glyph glyph-name="U" unicode="U" horiz-adv-x="1282" 
d="M592 -25q-226 0 -350.5 118t-124.5 325q0 70 14 145l150 858h264l-150 -858q-14 -79 -14 -139q0 -95 56 -152t157 -57q121 0 198.5 76t102.5 213l162 917h264l-162 -917q-48 -271 -196 -400t-371 -129z" />
    <glyph glyph-name="V" unicode="V" horiz-adv-x="1245" 
d="M707 0h-357l-155 1421h266l112 -1132l519 1132h280z" />
    <glyph glyph-name="W" unicode="W" horiz-adv-x="1810" 
d="M1358 0h-307l-41 1085l-428 -1085h-308l-67 1421h252l37 -1054l413 1054h308l40 -1065l412 1065h256z" />
    <glyph glyph-name="X" unicode="X" horiz-adv-x="1241" 
d="M252 0h-311l561 717l-305 704h290l199 -479l363 479h307l-551 -716l311 -705h-293l-202 483z" />
    <glyph glyph-name="Y" unicode="Y" horiz-adv-x="1212" 
d="M381 0l94 526l-303 895h287l192 -602l408 602h301l-625 -901l-90 -520h-264z" />
    <glyph glyph-name="Z" unicode="Z" horiz-adv-x="1153" 
d="M279 1421h923l-39 -221l-788 -958h651l-41 -242h-993l37 221l790 959h-583z" />
    <glyph glyph-name="bracketleft" unicode="[" horiz-adv-x="673" 
d="M727 1272h-217l-227 -1295h217l-35 -190h-436l295 1675h438z" />
    <glyph glyph-name="backslash" unicode="\" horiz-adv-x="872" 
d="M514 -213l-330 1675h215l328 -1675h-213z" />
    <glyph glyph-name="bracketright" unicode="]" horiz-adv-x="673" 
d="M244 1462h436l-295 -1675h-436l33 190h217l227 1297h-217z" />
    <glyph glyph-name="asciicircum" unicode="^" horiz-adv-x="1060" 
d="M201 909l393 512h199l213 -512h-207l-131 322l-244 -322h-223z" />
    <glyph glyph-name="underscore" unicode="_" horiz-adv-x="927" 
d="M-61 -240l30 166h781l-29 -166h-782z" />
    <glyph glyph-name="grave" unicode="`" horiz-adv-x="495" 
d="M150 1421h256l96 -297h-183z" />
    <glyph glyph-name="a" unicode="a" horiz-adv-x="1021" 
d="M827 0h-231l25 152q-58 -87 -141 -129.5t-171 -42.5q-127 0 -203.5 69.5t-76.5 188.5q0 144 98 234.5t258 119.5l307 57l6 33q7 40 7 57q0 58 -37 86.5t-103 28.5q-148 0 -174 -145h-252q12 157 130.5 242t301.5 85q168 0 271.5 -79.5t103.5 -215.5q0 -81 -12 -143z
M399 168q83 0 154.5 65.5t97.5 188.5l11 49l-213 -43q-73 -15 -120.5 -56.5t-47.5 -105.5q0 -45 30.5 -71.5t87.5 -26.5z" />
    <glyph glyph-name="b" unicode="b" horiz-adv-x="1095" 
d="M508 180q66 0 119.5 44t84 112.5t46.5 144t16 146.5q0 99 -40 154t-113 55q-66 0 -119 -44t-84 -112.5t-47.5 -144t-16.5 -146.5q0 -99 40.5 -154t113.5 -55zM545 -20q-88 0 -153 44t-97 119l-25 -143h-241l250 1421h253l-92 -526q42 66 109.5 103.5t150.5 37.5
q144 0 238 -114.5t94 -294.5q0 -94 -19 -186t-59.5 -175.5t-97 -147t-137 -101t-174.5 -37.5z" />
    <glyph glyph-name="c" unicode="c" horiz-adv-x="1034" 
d="M455 -20q-169 0 -282.5 113t-113.5 294q0 129 36.5 245t104 206.5t171.5 144t231 53.5q111 0 200 -49.5t138 -140t41 -203.5h-256q11 88 -27 140.5t-114 52.5q-66 0 -118.5 -44t-83.5 -112.5t-47 -144t-16 -146.5q0 -99 40 -154t114 -55q69 0 125 50.5t80 142.5h256
q-35 -182 -165 -287.5t-314 -105.5z" />
    <glyph glyph-name="d" unicode="d" horiz-adv-x="1097" 
d="M475 180q66 0 119 44t83.5 112.5t47 144t16.5 146.5q0 99 -40.5 154t-114.5 55q-65 0 -118 -44t-83.5 -112.5t-46.5 -144t-16 -146.5q0 -99 39.5 -154t113.5 -55zM395 -20q-65 0 -124.5 26.5t-106.5 76.5t-75 128.5t-28 175.5q0 118 32 231.5t91 207.5t154.5 152
t212.5 58q81 0 145 -40t92 -107l95 532h254l-250 -1421h-240l23 135q-109 -155 -275 -155z" />
    <glyph glyph-name="e" unicode="e" horiz-adv-x="1048" 
d="M735 668q0 84 -42.5 130t-112.5 46q-77 0 -142 -63.5t-96 -170.5h389q4 23 4 58zM457 -20q-172 0 -285 112.5t-113 300.5q0 101 23 196t69.5 176t110.5 141.5t151.5 95t188.5 34.5q171 0 277 -110t106 -281q0 -102 -27 -213h-647q-2 -23 -2 -51q0 -93 42 -148t118 -55
q66 0 121 38.5t80 109.5h256q-50 -168 -174 -257t-295 -89z" />
    <glyph glyph-name="f" unicode="f" horiz-adv-x="690" 
d="M690 799h-215l-139 -799h-254l139 799h-115l37 217h117l14 86q32 176 122.5 258t242.5 82q93 0 164 -15l-37 -210q-36 8 -86 8q-66 0 -103.5 -34.5t-52.5 -115.5l-10 -59h215z" />
    <glyph glyph-name="g" unicode="g" horiz-adv-x="1099" 
d="M485 229q52 0 95.5 28t72.5 72t49.5 99t29.5 108t9 101q0 92 -39.5 147.5t-113.5 55.5q-63 0 -114 -41.5t-80 -105.5t-44.5 -132t-15.5 -129q0 -92 38.5 -147.5t112.5 -55.5zM408 -387q-204 0 -309.5 97t-102.5 247h256q1 -77 45 -118.5t119 -41.5q90 0 145 56t80 190
l23 127q-120 -139 -265 -139q-143 0 -237 111.5t-94 285.5q0 89 19 176t58.5 165t94 137.5t131 94.5t164.5 35q90 0 161 -45.5t101 -116.5l26 142h240l-166 -938q-41 -234 -166 -349.5t-323 -115.5z" />
    <glyph glyph-name="h" unicode="h" horiz-adv-x="1052" 
d="M850 0h-254l104 604q13 72 13 94q0 127 -117 127q-80 0 -136.5 -69t-74.5 -174l-102 -582h-254l250 1421h253l-96 -542q99 157 275 157q123 0 191.5 -73.5t68.5 -200.5q0 -77 -17 -164z" />
    <glyph glyph-name="i" unicode="i" horiz-adv-x="493" 
d="M504 1174h-285l41 229h285zM283 0h-254l178 1016h254z" />
    <glyph glyph-name="j" unicode="j" horiz-adv-x="493" 
d="M504 1174h-285l41 229h285zM-100 -375q-78 0 -127 10l37 213q27 -4 71 -4q58 0 96.5 41t51.5 121l178 1010h254l-191 -1075q-30 -165 -123 -240.5t-247 -75.5z" />
    <glyph glyph-name="k" unicode="k" horiz-adv-x="1026" 
d="M283 0h-254l250 1421h253l-135 -772l394 367h303l-410 -381l234 -635h-265l-170 459l-143 -131z" />
    <glyph glyph-name="l" unicode="l" horiz-adv-x="493" 
d="M281 0h-252l250 1421h251z" />
    <glyph glyph-name="m" unicode="m" horiz-adv-x="1581" 
d="M1378 0h-254l109 616q8 62 8 86q0 125 -106 125q-68 0 -124 -64t-75 -167l-105 -596h-253l106 610q10 55 10 95q0 122 -106 122q-72 0 -128 -68.5t-75 -176.5l-102 -582h-254l178 1016h242l-25 -146q104 166 274 166q89 0 152.5 -43.5t83.5 -128.5q125 172 303 172
q119 0 191.5 -67t72.5 -207q0 -61 -18 -162z" />
    <glyph glyph-name="n" unicode="n" horiz-adv-x="1052" 
d="M852 0h-256l106 604q11 61 11 94q0 127 -115 127q-81 0 -137 -68.5t-76 -174.5l-102 -582h-254l178 1016h242l-25 -146q112 166 287 166q125 0 193.5 -73.5t68.5 -200.5q0 -77 -17 -164z" />
    <glyph glyph-name="o" unicode="o" horiz-adv-x="1058" 
d="M455 -20q-169 0 -282.5 113t-113.5 294q0 129 36.5 245t104 206.5t171.5 144t231 53.5q169 0 282 -113t113 -294q0 -129 -36.5 -245t-103.5 -206.5t-171 -144t-231 -53.5zM473 180q66 0 119 44t83.5 112.5t47 144t16.5 146.5q0 99 -40.5 154t-114.5 55q-66 0 -118.5 -44
t-83.5 -112.5t-47 -144t-16 -146.5q0 -99 40 -154t114 -55z" />
    <glyph glyph-name="p" unicode="p" horiz-adv-x="1097" 
d="M510 180q65 0 118 44t83.5 112.5t46.5 144t16 146.5q0 99 -39.5 154t-113.5 55q-66 0 -119 -44t-84 -112.5t-47.5 -144t-16.5 -146.5q0 -99 40.5 -154t115.5 -55zM541 -20q-74 0 -140.5 41t-93.5 106l-86 -485h-254l242 1374h240l-23 -135q109 155 274 155
q65 0 124.5 -26.5t106.5 -76.5t75 -128.5t28 -175.5q0 -93 -19 -184.5t-59.5 -175.5t-97.5 -148.5t-139 -102.5t-178 -38z" />
    <glyph glyph-name="q" unicode="q" horiz-adv-x="1097" 
d="M475 180q66 0 119 44t83.5 112.5t47 144t16.5 146.5q0 99 -40.5 154t-114.5 55q-65 0 -118 -44t-83.5 -112.5t-46.5 -144t-16 -146.5q0 -99 39.5 -154t113.5 -55zM395 -20q-144 0 -239 114.5t-95 294.5q0 119 32 232.5t91 207t154.5 150.5t212.5 57q86 0 151 -44.5
t99 -117.5l22 142h242l-242 -1374h-254l86 479q-42 -66 -109.5 -103.5t-150.5 -37.5z" />
    <glyph glyph-name="r" unicode="r" horiz-adv-x="718" 
d="M285 0h-254l178 1016h242l-39 -215q55 124 134.5 178.5t190.5 54.5h27l-45 -264q-31 4 -84 4q-99 0 -170 -73.5t-94 -202.5z" />
    <glyph glyph-name="s" unicode="s" horiz-adv-x="970" 
d="M426 -20q-186 0 -300 91t-110 255h250q3 -76 49.5 -120t116.5 -44q75 0 122.5 31.5t47.5 85.5q0 72 -110 108l-127 43q-106 36 -168 111.5t-62 175.5q0 149 112 234t277 85q176 0 288 -87.5t108 -239.5h-248q-3 74 -45.5 109.5t-112.5 35.5q-64 0 -103.5 -27t-39.5 -77
q0 -40 27.5 -65.5t84.5 -45.5l127 -43q108 -36 168 -109t60 -178q0 -138 -113 -233.5t-299 -95.5z" />
    <glyph glyph-name="t" unicode="t" horiz-adv-x="714" 
d="M395 -12q-121 0 -192.5 59.5t-71.5 169.5q0 45 19 166l71 416h-121l39 217h123l43 256h254l-45 -256h219l-39 -217h-219l-74 -418q-10 -67 -10 -82q0 -86 101 -86q46 0 98 12l-41 -217q-79 -20 -154 -20z" />
    <glyph glyph-name="u" unicode="u" horiz-adv-x="1042" 
d="M829 0h-241l26 145q-49 -76 -122 -120.5t-160 -44.5q-122 0 -188 73t-66 201q0 82 16 164l105 598h254l-105 -604q-12 -66 -12 -95q0 -127 108 -127q80 0 135.5 69.5t73.5 174.5l101 582h254z" />
    <glyph glyph-name="v" unicode="v" horiz-adv-x="985" 
d="M557 0h-309l-133 1016h256l71 -762l340 762h265z" />
    <glyph glyph-name="w" unicode="w" horiz-adv-x="1462" 
d="M1081 0h-284l-31 707l-281 -707h-282l-80 1016h252l33 -719l280 719h252l27 -719l288 719h263z" />
    <glyph glyph-name="x" unicode="x" horiz-adv-x="997" 
d="M874 0h-266l-139 332l-246 -332h-282l405 518l-225 498h276l125 -311l230 311h295l-404 -512z" />
    <glyph glyph-name="y" unicode="y" horiz-adv-x="983" 
d="M100 -375q-74 0 -147 13l39 215q65 -9 90 -9q117 0 170 103l10 20l-149 1049h256l69 -764l342 764h264l-544 -1098q-82 -165 -177 -229t-223 -64z" />
    <glyph glyph-name="z" unicode="z" horiz-adv-x="915" 
d="M748 0h-766l34 197l537 602h-408l41 217h729l-32 -180l-553 -621h454z" />
    <glyph glyph-name="braceleft" unicode="{" horiz-adv-x="763" 
d="M555 -213h-135q-122 0 -186 61.5t-64 163.5q0 35 30.5 195t30.5 196q0 60 -37 90.5t-112 36.5l35 189q98 8 145 54t70 169l37 215q29 160 106 232.5t217 72.5h160l-35 -188h-74q-78 0 -114 -38.5t-56 -152.5l-30 -180q-23 -129 -76 -193t-156 -87q140 -47 140 -189
q0 -37 -28 -187.5t-28 -180.5q0 -50 29 -70.5t92 -20.5h72z" />
    <glyph glyph-name="bar" unicode="|" horiz-adv-x="577" 
d="M53 -213l295 1675h213l-295 -1675h-213z" />
    <glyph glyph-name="braceright" unicode="}" horiz-adv-x="763" 
d="M684 530q-99 -8 -146.5 -54.5t-68.5 -168.5l-39 -215q-28 -159 -104.5 -232t-216.5 -73h-160l35 188h73q77 0 113 38.5t57 152.5l31 180q23 128 75.5 193t153.5 88q-137 46 -137 188q0 37 28 188t28 181q0 50 -29 70t-92 20h-74l35 188h135q122 0 186 -61.5t64 -163.5
q0 -35 -31 -195t-31 -196q0 -60 37.5 -90.5t112.5 -36.5z" />
    <glyph glyph-name="asciitilde" unicode="~" horiz-adv-x="1232" 
d="M870 496q-57 0 -148.5 30t-173 60t-114.5 30q-31 0 -49 -18.5t-25 -62.5l-8 -46h-186l18 105q38 223 224 223q56 0 147.5 -30.5t173.5 -60.5t115 -30t51 19t25 63l8 45h184l-18 -104q-38 -223 -224 -223z" />
    <glyph glyph-name="uni00A0" unicode="&#xa0;" horiz-adv-x="366" 
 />
    <glyph glyph-name="exclamdown" unicode="&#xa1;" horiz-adv-x="544" 
d="M174 483h182l-69 -622l-47 -267h-263l48 267zM500 1016l-51 -289h-285l51 289h285z" />
    <glyph glyph-name="cent" unicode="&#xa2;" horiz-adv-x="1064" 
d="M530 0h-174l35 195q-126 36 -203 140t-77 253q0 159 52.5 296t159.5 232t252 115l35 190h172l-34 -194q134 -32 214 -136t70 -247h-260q16 132 -59 180l-113 -635q92 48 125 184h260q-32 -169 -145.5 -272.5t-276.5 -118.5zM369 588q0 -129 59 -182l111 612
q-82 -53 -126 -178.5t-44 -251.5z" />
    <glyph glyph-name="sterling" unicode="&#xa3;" horiz-adv-x="1107" 
d="M123 528l29 185h127q-3 17 -11 65t-11.5 72.5t-7 62t-3.5 68.5q0 204 113.5 333.5t314.5 129.5q207 0 312.5 -123.5t105.5 -343.5h-254q0 128 -40 190t-124 62q-85 0 -131.5 -65.5t-46.5 -182.5q0 -32 3 -71t6 -61.5t10 -72.5t9 -63h279l-31 -185h-235v-6
q0 -175 -142 -289h559l-41 -233h-888l41 233q101 32 163.5 110.5t67.5 176.5v8h-174z" />
    <glyph glyph-name="currency" unicode="&#xa4;" horiz-adv-x="1091" 
d="M580 266q-112 0 -197 43l-133 -131l-150 148l125 125q-49 85 -49 204q0 120 49 205l-127 127l150 152l135 -138q90 46 197 46q109 0 194 -46l137 138l150 -150l-129 -129q51 -88 51 -205q0 -112 -49 -202l125 -127l-150 -150l-135 133q-82 -43 -194 -43zM580 438
q83 0 131.5 60t48.5 157q0 98 -48 158.5t-132 60.5t-132.5 -60.5t-48.5 -158.5q0 -97 48.5 -157t132.5 -60z" />
    <glyph glyph-name="yen" unicode="&#xa5;" horiz-adv-x="1136" 
d="M156 510l30 184h205l-211 727h262l166 -633l391 633h281l-469 -727h205l-33 -184h-283l-22 -121h285l-33 -184h-285l-35 -205h-262l37 205h-283l31 184h283l22 121h-282z" />
    <glyph glyph-name="brokenbar" unicode="&#xa6;" horiz-adv-x="577" 
d="M53 -213l127 735h213l-127 -735h-213zM217 725l131 737h213l-131 -737h-213z" />
    <glyph glyph-name="section" unicode="&#xa7;" horiz-adv-x="1077" 
d="M264 1110q0 143 108 239.5t281 96.5q196 0 298 -99t102 -253h-252q0 78 -38.5 124t-111.5 46q-69 0 -106 -36t-37 -93q0 -48 23 -80t71 -68l203 -147q85 -64 127.5 -131.5t42.5 -161.5q0 -197 -215 -305q67 -89 67 -201q0 -143 -108 -239.5t-281 -96.5q-195 0 -297 100
t-102 252h250q0 -78 38 -124t111 -46q69 0 106.5 36t37.5 93q0 48 -23.5 81t-69.5 67l-202 147q-85 63 -127.5 130.5t-42.5 162.5q0 199 213 303q-66 87 -66 203zM745 496q0 44 -21 77t-67 70l-206 154q-105 -53 -105 -142q0 -43 20.5 -77t67.5 -70l205 -154q52 25 79 63
t27 79z" />
    <glyph glyph-name="dieresis" unicode="&#xa8;" horiz-adv-x="778" 
d="M211 1174l41 227h227l-41 -227h-227zM567 1174l41 227h228l-41 -227h-228z" />
    <glyph glyph-name="copyright" unicode="&#xa9;" horiz-adv-x="1646" 
d="M682 711q0 -121 45 -194t129 -73q61 0 100 39.5t50 108.5h206q-13 -149 -112.5 -233.5t-243.5 -84.5q-175 0 -279 119t-104 318q0 201 104 318.5t279 117.5q144 0 243 -84.5t111 -233.5h-204q-11 69 -50 108.5t-100 39.5q-84 0 -129 -72t-45 -194zM119 711
q0 150 57.5 286t155.5 234t234 155.5t286 57.5t286.5 -57.5t234.5 -155.5t156 -234t58 -286t-58 -285.5t-156 -233t-234.5 -155t-286.5 -57.5t-286 57.5t-234 155t-155.5 233t-57.5 285.5zM231 711q0 -171 82.5 -315.5t225.5 -228t313 -83.5q169 0 312 83.5t226 228
t83 315.5t-83 315t-226 227.5t-312 83.5q-170 0 -313 -83.5t-225.5 -227.5t-82.5 -315z" />
    <glyph glyph-name="ordfeminine" unicode="&#xaa;" horiz-adv-x="757" 
d="M92 461l27 153h561l-27 -153h-561zM698 748h-170l17 94q-80 -109 -205 -109q-87 0 -138.5 46t-51.5 132q0 92 64 149.5t175 80.5l203 39l4 24q2 12 2 37q0 37 -20.5 56.5t-57.5 19.5q-96 0 -114 -103h-183q15 106 93 167t202 61q123 0 190.5 -50t67.5 -153q0 -52 -8 -98z
M403 862q56 0 101 42t59 124l8 37l-131 -27q-108 -21 -108 -110q0 -30 18.5 -48t52.5 -18z" />
    <glyph glyph-name="guillemotleft" unicode="&#xab;" horiz-adv-x="1019" 
d="M588 889l-279 -424l125 -395h-192l-158 409l297 410h207zM979 889l-279 -424l125 -395h-192l-158 409l299 410h205z" />
    <glyph glyph-name="logicalnot" unicode="&#xac;" horiz-adv-x="1228" 
d="M184 561l35 199h877l-109 -617h-196l73 418h-680z" />
    <glyph glyph-name="uni00AD" unicode="&#xad;" horiz-adv-x="727" 
d="M96 442l39 222h506l-41 -222h-504z" />
    <glyph glyph-name="registered" unicode="&#xae;" horiz-adv-x="1101" 
d="M451 741v486h215q80 0 125 -40t45 -120q0 -45 -22.5 -83.5t-55.5 -53.5l92 -189h-127l-78 164h-78v-164h-116zM719 1065q0 32 -19 50t-55 18h-78v-138h78q36 0 55 18.5t19 51.5zM160 973q0 127 62.5 235t170 171t234.5 63q193 0 331 -138t138 -331q0 -127 -63 -234.5
t-171 -170t-235 -62.5q-193 0 -330 137t-137 330zM250 973q0 -161 110 -274t267 -113q158 0 269.5 113t111.5 274q0 160 -111.5 273.5t-269.5 113.5q-156 0 -266.5 -113.5t-110.5 -273.5z" />
    <glyph glyph-name="macron" unicode="&#xaf;" horiz-adv-x="677" 
d="M698 1198h-481l33 180h479z" />
    <glyph glyph-name="degree" unicode="&#xb0;" horiz-adv-x="806" 
d="M199 1135q0 128 90.5 217.5t220.5 89.5q129 0 220 -90t91 -217q0 -126 -91 -215t-220 -89q-130 0 -220.5 89t-90.5 215zM367 1135q0 -62 41.5 -106t101.5 -44q59 0 101 44.5t42 105.5q0 63 -42 108t-101 45q-60 0 -101.5 -45t-41.5 -108z" />
    <glyph glyph-name="plusminus" unicode="&#xb1;" horiz-adv-x="1228" 
d="M63 0l33 199h920l-33 -199h-920zM188 717l35 196h357l61 347h203l-62 -347h361l-35 -196h-360l-62 -346h-203l60 346h-355z" />
    <glyph glyph-name="twosuperior" unicode="&#xb2;" horiz-adv-x="636" 
d="M602 655h-504l27 152l309 276q94 81 94 140q0 31 -19.5 48t-49.5 17q-39 0 -66.5 -30t-34.5 -87h-174q17 129 94.5 197t194.5 68q101 0 163 -55t62 -154q0 -127 -137 -240l-207 -176h275z" />
    <glyph glyph-name="threesuperior" unicode="&#xb3;" horiz-adv-x="659" 
d="M387 643q-131 0 -198.5 65.5t-67.5 170.5h180q0 -50 22.5 -75.5t63.5 -25.5q39 0 66.5 31t27.5 76q0 46 -26.5 68t-67.5 22h-37l27 141h39q46 0 79 28.5t33 74.5q0 36 -20 56.5t-53 20.5q-36 0 -64 -25.5t-35 -72.5h-168q15 110 89.5 174t177.5 64q106 0 172.5 -56
t66.5 -151q0 -60 -38 -109t-103 -67q50 -19 78 -63t28 -105q0 -102 -75 -172t-197 -70z" />
    <glyph glyph-name="acute" unicode="&#xb4;" horiz-adv-x="495" 
d="M383 1421h262l-248 -297h-190z" />
    <glyph glyph-name="mu" unicode="&#xb5;" horiz-adv-x="1048" 
d="M758 1016h254l-178 -1016h-242l26 145q-103 -159 -270 -165q-47 0 -72 22l-63 -360h-250l242 1374h252l-105 -604q-10 -55 -10 -95q0 -131 107 -131q79 0 133.5 70t74.5 178z" />
    <glyph glyph-name="paragraph" unicode="&#xb6;" horiz-adv-x="1228" 
d="M662 1421h227l-250 -1421h-201l99 561h-7q-163 0 -264.5 92t-101.5 267q0 103 31.5 192.5t91.5 159t156.5 109.5t218.5 40zM766 0l250 1421h203l-250 -1421h-203z" />
    <glyph glyph-name="periodcentered" unicode="&#xb7;" horiz-adv-x="550" 
d="M115 418l49 289h285l-52 -289h-282z" />
    <glyph glyph-name="cedilla" unicode="&#xb8;" horiz-adv-x="557" 
d="M121 -408q-83 0 -158 33l23 123q2 -1 23 -10.5t32 -13.5t33.5 -8.5t44.5 -4.5q47 0 69.5 18t22.5 46q0 25 -17.5 39t-46.5 14t-73 -23l-39 68l139 152h98l-90 -109h13q68 -2 113.5 -36.5t45.5 -102.5q0 -86 -64 -135.5t-169 -49.5z" />
    <glyph glyph-name="onesuperior" unicode="&#xb9;" horiz-adv-x="530" 
d="M440 655h-180l100 562l-176 -117l37 194l193 127h161z" />
    <glyph glyph-name="ordmasculine" unicode="&#xba;" horiz-adv-x="790" 
d="M104 461l27 153h559l-26 -153h-560zM451 731q-124 0 -200.5 77.5t-76.5 199.5q0 114 41 211.5t126.5 160t199.5 62.5q124 0 200 -77.5t76 -199.5q0 -114 -40.5 -211t-126 -160t-199.5 -63zM461 870q55 0 95 50.5t56.5 115t16.5 129.5q0 64 -26 101t-73 37
q-55 0 -95 -50.5t-56.5 -115t-16.5 -129.5q0 -63 26 -100.5t73 -37.5z" />
    <glyph glyph-name="guillemotright" unicode="&#xbb;" horiz-adv-x="1019" 
d="M623 70h-205l276 424l-123 395h191l160 -410zM229 70h-204l278 424l-125 395h193l157 -410z" />
    <glyph glyph-name="onequarter" unicode="&#xbc;" horiz-adv-x="1421" 
d="M1174 0h-173l27 147h-321l26 154l371 467h205l-82 -475h71l-26 -146h-72zM1053 293l47 260l-209 -260h162zM82 0l1139 1421h176l-1137 -1421h-178zM418 655h-180l100 562l-176 -117l37 194l192 127h162z" />
    <glyph glyph-name="onehalf" unicode="&#xbd;" horiz-adv-x="1466" 
d="M1298 0h-503l26 154l309 274q48 44 70.5 76t22.5 65q0 30 -19 47t-49 17q-39 0 -66 -29.5t-34 -85.5h-176q17 127 94.5 194.5t193.5 67.5q102 0 165 -55t63 -154q0 -119 -138 -239l-206 -176h274zM82 0l1139 1421h176l-1137 -1421h-178zM418 655h-180l100 562l-176 -117
l37 194l192 127h162z" />
    <glyph glyph-name="threequarters" unicode="&#xbe;" horiz-adv-x="1558" 
d="M1311 0h-172l26 147h-321l26 154l371 467h205l-82 -475h72l-27 -146h-72zM1190 293l47 260l-209 -260h162zM393 643q-131 0 -198.5 65.5t-67.5 170.5h180q0 -50 22.5 -75.5t63.5 -25.5q39 0 66.5 31t27.5 76q0 46 -26.5 68t-67.5 22h-37l27 141h39q46 0 79.5 28.5
t33.5 74.5q0 36 -20.5 56.5t-53.5 20.5q-36 0 -64 -25.5t-35 -72.5h-167q15 110 89.5 174t176.5 64q106 0 172.5 -56t66.5 -151q0 -60 -38 -109t-103 -67q50 -19 78.5 -63t28.5 -105q0 -101 -75 -171.5t-198 -70.5zM217 0l1139 1421h176l-1137 -1421h-178z" />
    <glyph glyph-name="questiondown" unicode="&#xbf;" horiz-adv-x="909" 
d="M358 444l9 39h204l-2 -45q-5 -61 -29.5 -112t-58.5 -85t-74 -63.5t-79 -56t-71 -53.5t-51.5 -63.5t-19.5 -80.5q0 -63 39.5 -100t110.5 -37q89 0 140 59.5t65 167.5h252q-25 -212 -148 -327t-317 -115q-183 0 -292.5 92t-109.5 240q0 77 30 141.5t75 106t99.5 81
t102 68.5t83 66.5t42.5 76.5zM707 1016l-52 -289h-284l51 289h285z" />
    <glyph glyph-name="Agrave" unicode="&#xc0;" horiz-adv-x="1312" 
d="M920 0l-41 313h-502l-150 -313h-276l696 1421h338l199 -1421h-264zM780 1165l-301 -626h377zM588 1815h256l96 -297h-182z" />
    <glyph glyph-name="Aacute" unicode="&#xc1;" horiz-adv-x="1312" 
d="M920 0l-41 313h-502l-150 -313h-276l696 1421h338l199 -1421h-264zM780 1165l-301 -626h377zM891 1815h262l-248 -297h-190z" />
    <glyph glyph-name="Acircumflex" unicode="&#xc2;" horiz-adv-x="1312" 
d="M920 0l-41 313h-502l-150 -313h-276l696 1421h338l199 -1421h-264zM780 1165l-301 -626h377zM762 1815h235l133 -297h-172l-98 145l-149 -145h-183z" />
    <glyph glyph-name="Atilde" unicode="&#xc3;" horiz-adv-x="1312" 
d="M920 0l-41 313h-502l-150 -313h-276l696 1421h338l199 -1421h-264zM780 1165l-301 -626h377zM975 1532q-38 0 -83 24.5t-81.5 49t-54.5 24.5q-22 0 -34.5 -21t-21.5 -73h-155q24 141 69 208.5t123 67.5q36 0 81 -24.5t82.5 -49t55.5 -24.5q21 0 33 21t21 73h155
q-24 -141 -68.5 -208.5t-121.5 -67.5z" />
    <glyph glyph-name="Adieresis" unicode="&#xc4;" horiz-adv-x="1312" 
d="M920 0l-41 313h-502l-150 -313h-276l696 1421h338l199 -1421h-264zM780 1165l-301 -626h377zM545 1556l41 228h227l-41 -228h-227zM901 1556l41 228h227l-41 -228h-227z" />
    <glyph glyph-name="Aring" unicode="&#xc5;" horiz-adv-x="1312" 
d="M596 1530q0 98 69 166.5t169 68.5t170.5 -68.5t70.5 -166.5q0 -51 -23 -95t-61 -73l189 -1362h-262l-41 313h-502l-150 -313h-276l690 1409q-43 49 -43 121zM778 1165l-301 -626h377zM729 1530q0 -46 30.5 -77.5t74.5 -31.5q46 0 77 31.5t31 77.5q0 49 -31 82t-77 33
q-44 0 -74.5 -33t-30.5 -82z" />
    <glyph glyph-name="AE" unicode="&#xc6;" horiz-adv-x="1892" 
d="M778 0l56 313h-459l-223 -313h-291l1005 1421h1067l-41 -237h-643l-59 -344h579l-40 -228h-580l-66 -374h656l-43 -238h-918zM528 539h344l113 645z" />
    <glyph glyph-name="Ccedilla" unicode="&#xc7;" horiz-adv-x="1323" 
d="M463 -408q-83 0 -158 33l23 123q2 -1 23 -10.5t32 -13.5t33.5 -8.5t44.5 -4.5q47 0 69.5 18t22.5 46q0 25 -17.5 39t-46.5 14t-73 -23l-39 68l110 121q-187 43 -291 194t-104 379q0 124 28 247.5t87 237.5t142 201.5t202 140t258 52.5q234 0 375.5 -145.5t134.5 -385.5
h-270q3 139 -63.5 218t-184.5 79q-99 0 -183 -58t-137 -151.5t-82.5 -207.5t-29.5 -230q0 -168 70 -262t198 -94q120 0 210 78t130 219h272q-55 -251 -220.5 -391t-389.5 -140q-16 0 -61 5l-54 -64q75 0 123.5 -35t48.5 -104q0 -86 -64 -135.5t-169 -49.5z" />
    <glyph glyph-name="Egrave" unicode="&#xc8;" horiz-adv-x="1163" 
d="M51 0l250 1421h905l-41 -237h-643l-59 -344h579l-41 -228h-579l-66 -374h656l-41 -238h-920zM528 1815h256l97 -297h-183z" />
    <glyph glyph-name="Eacute" unicode="&#xc9;" horiz-adv-x="1163" 
d="M834 1815h262l-248 -297h-191zM51 0l250 1421h905l-41 -237h-643l-59 -344h579l-41 -228h-579l-66 -374h656l-41 -238h-920z" />
    <glyph glyph-name="Ecircumflex" unicode="&#xca;" horiz-adv-x="1163" 
d="M705 1815h235l133 -297h-172l-98 145l-150 -145h-182zM51 0l250 1421h905l-41 -237h-643l-59 -344h579l-41 -228h-579l-66 -374h656l-41 -238h-920z" />
    <glyph glyph-name="Edieresis" unicode="&#xcb;" horiz-adv-x="1163" 
d="M485 1559l41 227h228l-41 -227h-228zM842 1559l41 227h227l-41 -227h-227zM51 0l250 1421h905l-41 -237h-643l-59 -344h579l-41 -228h-579l-66 -374h656l-41 -238h-920z" />
    <glyph glyph-name="Igrave" unicode="&#xcc;" horiz-adv-x="548" 
d="M51 0l250 1421h264l-250 -1421h-264zM209 1815h256l96 -297h-182z" />
    <glyph glyph-name="Iacute" unicode="&#xcd;" horiz-adv-x="548" 
d="M51 0l250 1421h264l-250 -1421h-264zM514 1815h262l-248 -297h-190z" />
    <glyph glyph-name="Icircumflex" unicode="&#xce;" horiz-adv-x="548" 
d="M51 0l250 1421h264l-250 -1421h-264zM387 1815h236l133 -297h-172l-99 145l-149 -145h-182z" />
    <glyph glyph-name="Idieresis" unicode="&#xcf;" horiz-adv-x="548" 
d="M51 0l250 1421h264l-250 -1421h-264zM168 1559l41 227h227l-41 -227h-227zM524 1559l41 227h228l-41 -227h-228z" />
    <glyph glyph-name="Eth" unicode="&#xd0;" horiz-adv-x="1366" 
d="M70 602l36 219h125l107 600h461q132 0 236.5 -43t170 -119.5t99.5 -178.5t34 -222q0 -132 -30 -256t-93 -233.5t-152 -191.5t-216 -129.5t-277 -47.5h-483l107 602h-125zM393 233h211q91 0 168.5 37t130.5 99t90 142t54.5 165.5t17.5 171.5q0 167 -81 253.5t-224 86.5
h-199l-65 -367h202l-36 -219h-205z" />
    <glyph glyph-name="Ntilde" unicode="&#xd1;" horiz-adv-x="1386" 
d="M1155 0h-315l-348 1055l-185 -1055h-256l250 1421h315l347 -1059l184 1059h258zM1026 1534q-38 0 -83 24.5t-81.5 49t-54.5 24.5q-22 0 -34 -20.5t-21 -73.5h-156q24 142 69 209.5t123 67.5q36 0 81.5 -24.5t83 -49.5t55.5 -25q21 0 32.5 21t20.5 73h156
q-24 -141 -69 -208.5t-122 -67.5z" />
    <glyph glyph-name="Ograve" unicode="&#xd2;" horiz-adv-x="1374" 
d="M635 -25q-251 0 -397 162.5t-146 431.5q0 103 20.5 206.5t59 202t100 183t138.5 148.5t179.5 100.5t217.5 36.5q250 0 395.5 -162.5t145.5 -431.5q0 -124 -28 -247.5t-87 -237.5t-142 -201t-201 -139t-255 -52zM639 209q99 0 183.5 58t138 151t83 206t29.5 228
q0 173 -69.5 266.5t-200.5 93.5q-80 0 -150.5 -37.5t-121.5 -101.5t-88 -146.5t-55.5 -174t-18.5 -183.5q0 -173 69.5 -266.5t200.5 -93.5zM623 1815h256l96 -297h-182z" />
    <glyph glyph-name="Oacute" unicode="&#xd3;" horiz-adv-x="1374" 
d="M928 1815h262l-248 -297h-190zM635 -25q-251 0 -397 162.5t-146 431.5q0 103 20.5 206.5t59 202t100 183t138.5 148.5t179.5 100.5t217.5 36.5q250 0 395.5 -162.5t145.5 -431.5q0 -124 -28 -247.5t-87 -237.5t-142 -201t-201 -139t-255 -52zM639 209q99 0 183.5 58
t138 151t83 206t29.5 228q0 173 -69.5 266.5t-200.5 93.5q-80 0 -150.5 -37.5t-121.5 -101.5t-88 -146.5t-55.5 -174t-18.5 -183.5q0 -173 69.5 -266.5t200.5 -93.5z" />
    <glyph glyph-name="Ocircumflex" unicode="&#xd4;" horiz-adv-x="1374" 
d="M797 1815h235l133 -297h-172l-98 145l-150 -145h-182zM635 -25q-251 0 -397 162.5t-146 431.5q0 103 20.5 206.5t59 202t100 183t138.5 148.5t179.5 100.5t217.5 36.5q250 0 395.5 -162.5t145.5 -431.5q0 -124 -28 -247.5t-87 -237.5t-142 -201t-201 -139t-255 -52z
M639 209q99 0 183.5 58t138 151t83 206t29.5 228q0 173 -69.5 266.5t-200.5 93.5q-80 0 -150.5 -37.5t-121.5 -101.5t-88 -146.5t-55.5 -174t-18.5 -183.5q0 -173 69.5 -266.5t200.5 -93.5z" />
    <glyph glyph-name="Otilde" unicode="&#xd5;" horiz-adv-x="1374" 
d="M635 -25q-251 0 -397 162.5t-146 431.5q0 103 20.5 206.5t59 202t100 183t138.5 148.5t179.5 100.5t217.5 36.5q250 0 395.5 -162.5t145.5 -431.5q0 -124 -28 -247.5t-87 -237.5t-142 -201t-201 -139t-255 -52zM639 209q99 0 183.5 58t138 151t83 206t29.5 228
q0 173 -69.5 266.5t-200.5 93.5q-80 0 -150.5 -37.5t-121.5 -101.5t-88 -146.5t-55.5 -174t-18.5 -183.5q0 -173 69.5 -266.5t200.5 -93.5zM1012 1534q-38 0 -83 24.5t-81.5 49t-54.5 24.5q-22 0 -34.5 -21t-21.5 -73h-155q24 142 69 209.5t123 67.5q36 0 81 -24.5
t82.5 -49.5t55.5 -25q21 0 33 21t21 73h155q-24 -141 -68.5 -208.5t-121.5 -67.5z" />
    <glyph glyph-name="Odieresis" unicode="&#xd6;" horiz-adv-x="1374" 
d="M578 1559l40 227h228l-41 -227h-227zM934 1559l41 227h227l-41 -227h-227zM635 -25q-251 0 -397 162.5t-146 431.5q0 103 20.5 206.5t59 202t100 183t138.5 148.5t179.5 100.5t217.5 36.5q250 0 395.5 -162.5t145.5 -431.5q0 -124 -28 -247.5t-87 -237.5t-142 -201
t-201 -139t-255 -52zM639 209q99 0 183.5 58t138 151t83 206t29.5 228q0 173 -69.5 266.5t-200.5 93.5q-80 0 -150.5 -37.5t-121.5 -101.5t-88 -146.5t-55.5 -174t-18.5 -183.5q0 -173 69.5 -266.5t200.5 -93.5z" />
    <glyph glyph-name="multiply" unicode="&#xd7;" horiz-adv-x="1228" 
d="M1026 317l-156 -122l-243 321l-351 -321l-126 147l358 328l-250 334l160 122l239 -321l351 321l127 -147l-359 -328z" />
    <glyph glyph-name="Oslash" unicode="&#xd8;" horiz-adv-x="1396" 
d="M227 -53h-247l217 264q-91 145 -91 354q0 124 28 247.5t87.5 238t142.5 202.5t202 140.5t257 52.5q182 0 314 -96l100 123h250l-217 -263q92 -150 92 -354q0 -124 -28 -247.5t-87.5 -238t-142.5 -202.5t-202 -140.5t-257 -52.5q-181 0 -315 97zM649 199q103 0 189.5 59.5
t141.5 155t85.5 211t30.5 231.5q0 72 -13 125l-600 -725q66 -57 166 -57zM373 565q0 -86 14 -121l596 721q-67 58 -166 58q-102 0 -188 -59.5t-140.5 -155t-85 -211t-30.5 -232.5z" />
    <glyph glyph-name="Ugrave" unicode="&#xd9;" horiz-adv-x="1282" 
d="M592 -25q-226 0 -350.5 118t-124.5 325q0 70 14 145l150 858h264l-150 -858q-14 -79 -14 -139q0 -95 56 -152t157 -57q121 0 198.5 76t102.5 213l162 917h264l-162 -917q-48 -271 -196 -400t-371 -129zM573 1815h256l97 -297h-183z" />
    <glyph glyph-name="Uacute" unicode="&#xda;" horiz-adv-x="1282" 
d="M879 1815h262l-248 -297h-191zM592 -25q-226 0 -350.5 118t-124.5 325q0 70 14 145l150 858h264l-150 -858q-14 -79 -14 -139q0 -95 56 -152t157 -57q121 0 198.5 76t102.5 213l162 917h264l-162 -917q-48 -271 -196 -400t-371 -129z" />
    <glyph glyph-name="Ucircumflex" unicode="&#xdb;" horiz-adv-x="1282" 
d="M748 1815h235l133 -297h-172l-98 145l-150 -145h-182zM592 -25q-226 0 -350.5 118t-124.5 325q0 70 14 145l150 858h264l-150 -858q-14 -79 -14 -139q0 -95 56 -152t157 -57q121 0 198.5 76t102.5 213l162 917h264l-162 -917q-48 -271 -196 -400t-371 -129z" />
    <glyph glyph-name="Udieresis" unicode="&#xdc;" horiz-adv-x="1282" 
d="M530 1559l41 227h228l-41 -227h-228zM887 1559l41 227h227l-41 -227h-227zM592 -25q-226 0 -350.5 118t-124.5 325q0 70 14 145l150 858h264l-150 -858q-14 -79 -14 -139q0 -95 56 -152t157 -57q121 0 198.5 76t102.5 213l162 917h264l-162 -917q-48 -271 -196 -400
t-371 -129z" />
    <glyph glyph-name="Yacute" unicode="&#xdd;" horiz-adv-x="1212" 
d="M383 0l94 526l-303 895h287l192 -602l408 602h301l-625 -901l-90 -520h-264zM850 1815h262l-248 -297h-190z" />
    <glyph glyph-name="Thorn" unicode="&#xde;" horiz-adv-x="1173" 
d="M1169 766q0 -231 -159 -372.5t-418 -141.5h-234l-43 -252h-264l250 1421h264l-41 -239h181q222 0 343 -106.5t121 -309.5zM608 475q132 0 210.5 79t78.5 210q0 94 -55 143t-152 49h-207l-84 -481h209z" />
    <glyph glyph-name="germandbls" unicode="&#xdf;" horiz-adv-x="1165" 
d="M467 4l35 213q69 -29 166 -29q79 0 124.5 38.5t45.5 97.5q0 31 -12.5 56.5t-28 41t-47.5 41.5l-64 53q-52 42 -76 81t-24 95q0 44 28 89.5t67.5 85.5l79 80t67.5 86.5t28 92.5q0 60 -38.5 93.5t-102.5 33.5q-82 0 -130.5 -47t-68.5 -155l-184 -1051h-248l141 799h-116
l38 217h115l8 51q31 175 149.5 276t295.5 101q171 0 278 -80.5t107 -222.5q0 -58 -27 -112.5t-66 -94t-78 -72.5t-66 -62t-27 -50q0 -20 11 -33t42 -39l61 -51q69 -57 107.5 -125.5t38.5 -167.5q0 -151 -114 -254t-312 -103q-102 0 -203 27z" />
    <glyph glyph-name="agrave" unicode="&#xe0;" horiz-adv-x="1021" 
d="M827 0h-231l25 152q-58 -87 -141 -129.5t-171 -42.5q-127 0 -203.5 69.5t-76.5 188.5q0 144 98 234.5t258 119.5l307 57l6 33q7 40 7 57q0 58 -37 86.5t-103 28.5q-148 0 -174 -145h-252q12 157 130.5 242t301.5 85q168 0 271.5 -79.5t103.5 -215.5q0 -81 -12 -143z
M399 168q83 0 154.5 65.5t97.5 188.5l11 49l-213 -43q-73 -15 -120.5 -56.5t-47.5 -105.5q0 -45 30.5 -71.5t87.5 -26.5zM371 1421h256l96 -297h-182z" />
    <glyph glyph-name="aacute" unicode="&#xe1;" horiz-adv-x="1021" 
d="M827 0h-231l25 152q-58 -87 -141 -129.5t-171 -42.5q-127 0 -203.5 69.5t-76.5 188.5q0 144 98 234.5t258 119.5l307 57l6 33q7 40 7 57q0 58 -37 86.5t-103 28.5q-148 0 -174 -145h-252q12 157 130.5 242t301.5 85q168 0 271.5 -79.5t103.5 -215.5q0 -81 -12 -143z
M399 168q83 0 154.5 65.5t97.5 188.5l11 49l-213 -43q-73 -15 -120.5 -56.5t-47.5 -105.5q0 -45 30.5 -71.5t87.5 -26.5zM674 1421h262l-248 -297h-190z" />
    <glyph glyph-name="acircumflex" unicode="&#xe2;" horiz-adv-x="1021" 
d="M827 0h-231l25 152q-58 -87 -141 -129.5t-171 -42.5q-127 0 -203.5 69.5t-76.5 188.5q0 144 98 234.5t258 119.5l307 57l6 33q7 40 7 57q0 58 -37 86.5t-103 28.5q-148 0 -174 -145h-252q12 157 130.5 242t301.5 85q168 0 271.5 -79.5t103.5 -215.5q0 -81 -12 -143z
M399 168q83 0 154.5 65.5t97.5 188.5l11 49l-213 -43q-73 -15 -120.5 -56.5t-47.5 -105.5q0 -45 30.5 -71.5t87.5 -26.5zM545 1421h235l133 -297h-172l-98 146l-149 -146h-183z" />
    <glyph glyph-name="atilde" unicode="&#xe3;" horiz-adv-x="1021" 
d="M827 0h-231l25 152q-58 -87 -141 -129.5t-171 -42.5q-127 0 -203.5 69.5t-76.5 188.5q0 144 98 234.5t258 119.5l307 57l6 33q7 40 7 57q0 58 -37 86.5t-103 28.5q-148 0 -174 -145h-252q12 157 130.5 242t301.5 85q168 0 271.5 -79.5t103.5 -215.5q0 -81 -12 -143z
M399 168q83 0 154.5 65.5t97.5 188.5l11 49l-213 -43q-73 -15 -120.5 -56.5t-47.5 -105.5q0 -45 30.5 -71.5t87.5 -26.5zM762 1149q-38 0 -83 24.5t-81.5 49t-54.5 24.5q-22 0 -34.5 -21t-21.5 -73h-155q24 142 69 209.5t123 67.5q36 0 81 -25t82.5 -49.5t55.5 -24.5
q21 0 33 21t21 73h155q-24 -141 -68.5 -208.5t-121.5 -67.5z" />
    <glyph glyph-name="adieresis" unicode="&#xe4;" horiz-adv-x="1021" 
d="M827 0h-231l25 152q-58 -87 -141 -129.5t-171 -42.5q-127 0 -203.5 69.5t-76.5 188.5q0 144 98 234.5t258 119.5l307 57l6 33q7 40 7 57q0 58 -37 86.5t-103 28.5q-148 0 -174 -145h-252q12 157 130.5 242t301.5 85q168 0 271.5 -79.5t103.5 -215.5q0 -81 -12 -143z
M399 168q83 0 154.5 65.5t97.5 188.5l11 49l-213 -43q-73 -15 -120.5 -56.5t-47.5 -105.5q0 -45 30.5 -71.5t87.5 -26.5zM328 1174l41 227h227l-41 -227h-227zM684 1174l41 227h227l-41 -227h-227z" />
    <glyph glyph-name="aring" unicode="&#xe5;" horiz-adv-x="1021" 
d="M827 0h-231l25 152q-58 -87 -141 -129.5t-171 -42.5q-127 0 -203.5 69.5t-76.5 188.5q0 144 98 234.5t258 119.5l307 57l6 33q7 40 7 57q0 58 -37 86.5t-103 28.5q-148 0 -174 -145h-252q12 157 130.5 242t301.5 85q168 0 271.5 -79.5t103.5 -215.5q0 -81 -12 -143z
M399 168q83 0 154.5 65.5t97.5 188.5l11 49l-213 -43q-73 -15 -120.5 -56.5t-47.5 -105.5q0 -45 30.5 -71.5t87.5 -26.5zM408 1319q0 98 69.5 166.5t169.5 68.5t170 -68.5t70 -166.5q0 -97 -70 -164.5t-170 -67.5t-169.5 67.5t-69.5 164.5zM541 1319q0 -46 30.5 -77.5
t75.5 -31.5q46 0 77.5 31.5t31.5 77.5q0 49 -31.5 82t-77.5 33t-76 -32.5t-30 -82.5z" />
    <glyph glyph-name="ae" unicode="&#xe6;" horiz-adv-x="1626" 
d="M365 -20q-159 0 -247.5 76.5t-88.5 211.5q0 148 107 245t310 97h238l12 66q6 44 6 61q0 59 -36 88t-101 29q-148 0 -176 -145h-252q15 158 132.5 242.5t301.5 84.5q215 0 291 -137q131 137 316 137q170 0 276.5 -108t106.5 -277q0 -102 -27 -219h-645q-4 -23 -4 -55
q0 -93 42 -146t117 -53q66 0 121 38t80 110h256q-48 -168 -173 -257t-296 -89q-105 0 -186.5 46.5t-126.5 133.5q-124 -180 -354 -180zM412 168q81 0 147 56.5t86 170.5l6 37h-190q-86 0 -133 -41t-47 -110q0 -54 33 -83.5t98 -29.5zM918 610h389q4 23 4 58q0 84 -43 130
t-113 46q-77 0 -141.5 -63.5t-95.5 -170.5z" />
    <glyph glyph-name="ccedilla" unicode="&#xe7;" horiz-adv-x="1034" 
d="M317 -408q-82 0 -157 33l22 123q1 0 17 -8t24 -11t24.5 -8t33 -7.5t34.5 -2.5q47 0 70 18t23 46q0 25 -17.5 39t-46.5 14q-30 0 -74 -23l-39 68l111 121q-127 35 -205 139.5t-78 253.5q0 129 36.5 245t104 206.5t171.5 144t231 53.5q111 0 200 -49.5t138 -140t41 -203.5
h-256q10 89 -28 141t-113 52q-65 0 -118 -44t-84 -113t-47 -144.5t-16 -145.5q0 -99 40 -154t114 -55q69 0 125 50.5t80 142.5h256q-35 -182 -165 -287.5t-314 -105.5h-23l-53 -64h14q66 -2 112 -37t46 -102q0 -86 -64.5 -135.5t-169.5 -49.5z" />
    <glyph glyph-name="egrave" unicode="&#xe8;" horiz-adv-x="1048" 
d="M735 668q0 84 -42.5 130t-112.5 46q-77 0 -142 -63.5t-96 -170.5h389q4 23 4 58zM457 -20q-172 0 -285 112.5t-113 300.5q0 101 23 196t69.5 176t110.5 141.5t151.5 95t188.5 34.5q171 0 277 -110t106 -281q0 -102 -27 -213h-647q-2 -23 -2 -51q0 -93 42 -148t118 -55
q66 0 121 38.5t80 109.5h256q-50 -168 -174 -257t-295 -89zM391 1421h256l96 -297h-182z" />
    <glyph glyph-name="eacute" unicode="&#xe9;" horiz-adv-x="1048" 
d="M696 1421h262l-247 -297h-191zM735 668q0 84 -42.5 130t-112.5 46q-77 0 -142 -63.5t-96 -170.5h389q4 23 4 58zM457 -20q-172 0 -285 112.5t-113 300.5q0 101 23 196t69.5 176t110.5 141.5t151.5 95t188.5 34.5q171 0 277 -110t106 -281q0 -102 -27 -213h-647
q-2 -23 -2 -51q0 -93 42 -148t118 -55q66 0 121 38.5t80 109.5h256q-50 -168 -174 -257t-295 -89z" />
    <glyph glyph-name="ecircumflex" unicode="&#xea;" horiz-adv-x="1048" 
d="M565 1421h236l133 -297h-172l-98 146l-150 -146h-182zM735 668q0 84 -42.5 130t-112.5 46q-77 0 -142 -63.5t-96 -170.5h389q4 23 4 58zM457 -20q-172 0 -285 112.5t-113 300.5q0 101 23 196t69.5 176t110.5 141.5t151.5 95t188.5 34.5q171 0 277 -110t106 -281
q0 -102 -27 -213h-647q-2 -23 -2 -51q0 -93 42 -148t118 -55q66 0 121 38.5t80 109.5h256q-50 -168 -174 -257t-295 -89z" />
    <glyph glyph-name="edieresis" unicode="&#xeb;" horiz-adv-x="1048" 
d="M348 1174l41 227h227l-41 -227h-227zM705 1174l40 227h228l-41 -227h-227zM735 668q0 84 -42.5 130t-112.5 46q-77 0 -142 -63.5t-96 -170.5h389q4 23 4 58zM457 -20q-172 0 -285 112.5t-113 300.5q0 101 23 196t69.5 176t110.5 141.5t151.5 95t188.5 34.5
q171 0 277 -110t106 -281q0 -102 -27 -213h-647q-2 -23 -2 -51q0 -93 42 -148t118 -55q66 0 121 38.5t80 109.5h256q-50 -168 -174 -257t-295 -89z" />
    <glyph glyph-name="igrave" unicode="&#xec;" horiz-adv-x="493" 
d="M279 0h-250l178 1016h252zM115 1421h256l96 -297h-182z" />
    <glyph glyph-name="iacute" unicode="&#xed;" horiz-adv-x="493" 
d="M418 1421h262l-248 -297h-190zM279 0h-250l178 1016h252z" />
    <glyph glyph-name="icircumflex" unicode="&#xee;" horiz-adv-x="493" 
d="M289 1421h235l133 -297h-172l-98 146l-149 -146h-183zM279 0h-250l178 1016h252z" />
    <glyph glyph-name="idieresis" unicode="&#xef;" horiz-adv-x="493" 
d="M72 1174l41 227h227l-41 -227h-227zM428 1174l41 227h227l-41 -227h-227zM279 0h-250l178 1016h252z" />
    <glyph glyph-name="eth" unicode="&#xf0;" horiz-adv-x="1079" 
d="M481 1421h262q34 -40 78 -104l183 61l40 -143l-149 -49q119 -233 119 -479q0 -147 -35 -277t-101 -231t-171 -160t-236 -59q-185 0 -299.5 112.5t-114.5 296.5q0 161 59 298t171.5 222.5t255.5 85.5q152 0 233 -104q-25 111 -84 229l-211 -67l-41 141l174 57
q-54 81 -133 170zM479 178q80 0 141.5 66t91 160.5t29.5 195.5q0 95 -44 148t-122 53q-79 0 -139.5 -64.5t-89.5 -156t-29 -189.5q0 -101 42.5 -157t119.5 -56z" />
    <glyph glyph-name="ntilde" unicode="&#xf1;" horiz-adv-x="1052" 
d="M852 0h-256l106 604q11 61 11 94q0 127 -115 127q-81 0 -137 -68.5t-76 -174.5l-102 -582h-254l178 1016h242l-25 -146q112 166 287 166q125 0 193.5 -73.5t68.5 -200.5q0 -77 -17 -164zM784 1149q-38 0 -83 24.5t-81.5 49t-54.5 24.5q-22 0 -34 -20.5t-21 -73.5h-156
q24 141 69.5 209t123.5 68q36 0 81 -25t82.5 -49.5t55.5 -24.5q21 0 32.5 21t20.5 73h156q-24 -141 -69 -208.5t-122 -67.5z" />
    <glyph glyph-name="ograve" unicode="&#xf2;" horiz-adv-x="1058" 
d="M455 -20q-169 0 -282.5 113t-113.5 294q0 129 36.5 245t104 206.5t171.5 144t231 53.5q169 0 282 -113t113 -294q0 -129 -36.5 -245t-103.5 -206.5t-171 -144t-231 -53.5zM473 180q66 0 119 44t83.5 112.5t47 144t16.5 146.5q0 99 -40.5 154t-114.5 55q-66 0 -118.5 -44
t-83.5 -112.5t-47 -144t-16 -146.5q0 -99 40 -154t114 -55zM395 1421h256l97 -297h-183z" />
    <glyph glyph-name="oacute" unicode="&#xf3;" horiz-adv-x="1058" 
d="M700 1421h263l-248 -297h-191zM455 -20q-169 0 -282.5 113t-113.5 294q0 129 36.5 245t104 206.5t171.5 144t231 53.5q169 0 282 -113t113 -294q0 -129 -36.5 -245t-103.5 -206.5t-171 -144t-231 -53.5zM473 180q66 0 119 44t83.5 112.5t47 144t16.5 146.5
q0 99 -40.5 154t-114.5 55q-66 0 -118.5 -44t-83.5 -112.5t-47 -144t-16 -146.5q0 -99 40 -154t114 -55z" />
    <glyph glyph-name="ocircumflex" unicode="&#xf4;" horiz-adv-x="1058" 
d="M569 1421h236l133 -297h-172l-98 146l-150 -146h-182zM455 -20q-169 0 -282.5 113t-113.5 294q0 129 36.5 245t104 206.5t171.5 144t231 53.5q169 0 282 -113t113 -294q0 -129 -36.5 -245t-103.5 -206.5t-171 -144t-231 -53.5zM473 180q66 0 119 44t83.5 112.5t47 144
t16.5 146.5q0 99 -40.5 154t-114.5 55q-66 0 -118.5 -44t-83.5 -112.5t-47 -144t-16 -146.5q0 -99 40 -154t114 -55z" />
    <glyph glyph-name="otilde" unicode="&#xf5;" horiz-adv-x="1058" 
d="M455 -20q-169 0 -282.5 113t-113.5 294q0 129 36.5 245t104 206.5t171.5 144t231 53.5q169 0 282 -113t113 -294q0 -129 -36.5 -245t-103.5 -206.5t-171 -144t-231 -53.5zM473 180q66 0 119 44t83.5 112.5t47 144t16.5 146.5q0 99 -40.5 154t-114.5 55q-66 0 -118.5 -44
t-83.5 -112.5t-47 -144t-16 -146.5q0 -99 40 -154t114 -55zM784 1149q-38 0 -83 24.5t-81.5 49t-54.5 24.5q-22 0 -34 -20.5t-21 -73.5h-156q24 141 69.5 209t123.5 68q36 0 81 -25t82.5 -49.5t55.5 -24.5q21 0 32.5 21t20.5 73h156q-24 -141 -69 -208.5t-122 -67.5z" />
    <glyph glyph-name="odieresis" unicode="&#xf6;" horiz-adv-x="1058" 
d="M350 1174l41 227h227l-40 -227h-228zM707 1174l41 227h227l-41 -227h-227zM455 -20q-169 0 -282.5 113t-113.5 294q0 129 36.5 245t104 206.5t171.5 144t231 53.5q169 0 282 -113t113 -294q0 -129 -36.5 -245t-103.5 -206.5t-171 -144t-231 -53.5zM473 180q66 0 119 44
t83.5 112.5t47 144t16.5 146.5q0 99 -40.5 154t-114.5 55q-66 0 -118.5 -44t-83.5 -112.5t-47 -144t-16 -146.5q0 -99 40 -154t114 -55z" />
    <glyph glyph-name="divide" unicode="&#xf7;" horiz-adv-x="1228" 
d="M553 967l49 284h283l-51 -284h-281zM393 70l51 284h283l-51 -284h-283zM174 561l35 199h893l-33 -199h-895z" />
    <glyph glyph-name="oslash" unicode="&#xf8;" horiz-adv-x="1073" 
d="M182 -53h-196l153 192q-76 102 -76 248q0 129 36.5 245t104 206.5t171.5 144t231 53.5q115 0 205 -55l72 88h198l-155 -192q75 -109 75 -248q0 -129 -36.5 -245t-103.5 -206.5t-171 -144t-231 -53.5q-115 0 -203 57zM479 154q71 0 128 41.5t92 109.5t53.5 148t19.5 163
q0 32 -6 56l-391 -477q35 -41 104 -41zM293 389q0 -19 4 -47l393 481q-39 39 -100 39q-71 0 -129.5 -43.5t-94 -113t-54.5 -151.5t-19 -165z" />
    <glyph glyph-name="ugrave" unicode="&#xf9;" horiz-adv-x="1042" 
d="M829 0h-241l26 145q-49 -76 -122 -120.5t-160 -44.5q-122 0 -188 73t-66 201q0 82 16 164l105 598h254l-105 -604q-12 -66 -12 -95q0 -127 108 -127q80 0 135.5 69.5t73.5 174.5l101 582h254zM383 1421h256l96 -297h-182z" />
    <glyph glyph-name="uacute" unicode="&#xfa;" horiz-adv-x="1042" 
d="M686 1421h262l-248 -297h-190zM829 0h-241l26 145q-49 -76 -122 -120.5t-160 -44.5q-122 0 -188 73t-66 201q0 82 16 164l105 598h254l-105 -604q-12 -66 -12 -95q0 -127 108 -127q80 0 135.5 69.5t73.5 174.5l101 582h254z" />
    <glyph glyph-name="ucircumflex" unicode="&#xfb;" horiz-adv-x="1042" 
d="M557 1421h236l133 -297h-172l-99 146l-149 -146h-182zM829 0h-241l26 145q-49 -76 -122 -120.5t-160 -44.5q-122 0 -188 73t-66 201q0 82 16 164l105 598h254l-105 -604q-12 -66 -12 -95q0 -127 108 -127q80 0 135.5 69.5t73.5 174.5l101 582h254z" />
    <glyph glyph-name="udieresis" unicode="&#xfc;" horiz-adv-x="1042" 
d="M338 1174l41 227h227l-41 -227h-227zM694 1174l41 227h228l-41 -227h-228zM829 0h-241l26 145q-49 -76 -122 -120.5t-160 -44.5q-122 0 -188 73t-66 201q0 82 16 164l105 598h254l-105 -604q-12 -66 -12 -95q0 -127 108 -127q80 0 135.5 69.5t73.5 174.5l101 582h254z
" />
    <glyph glyph-name="yacute" unicode="&#xfd;" horiz-adv-x="983" 
d="M100 -375q-74 0 -147 13l39 215q65 -9 90 -9q117 0 170 103l10 20l-149 1049h256l69 -764l342 764h264l-544 -1098q-82 -165 -177 -229t-223 -64zM655 1421h263l-248 -297h-191z" />
    <glyph glyph-name="thorn" unicode="&#xfe;" horiz-adv-x="1097" 
d="M1034 627q0 -93 -19 -184.5t-59.5 -176t-97.5 -148.5t-139 -102.5t-178 -38.5q-74 0 -140.5 41.5t-93.5 106.5l-86 -485h-254l314 1781h254l-93 -526q42 66 109 103.5t151 37.5q144 0 238 -114.5t94 -294.5zM510 178q66 0 119 44t83.5 113t47 144.5t16.5 147.5
q0 99 -40.5 154t-114.5 55q-66 0 -118.5 -44t-83.5 -112.5t-47 -144t-16 -146.5q0 -100 40 -155.5t114 -55.5z" />
    <glyph glyph-name="ydieresis" unicode="&#xff;" horiz-adv-x="983" 
d="M100 -375q-74 0 -147 13l39 215q65 -9 90 -9q117 0 170 103l10 20l-149 1049h256l69 -764l342 764h264l-544 -1098q-82 -165 -177 -229t-223 -64zM307 1174l41 227h227l-40 -227h-228zM664 1174l41 227h227l-41 -227h-227z" />
    <glyph glyph-name="Amacron" unicode="&#x100;" horiz-adv-x="1312" 
d="M920 0l-41 313h-502l-150 -313h-276l696 1421h338l199 -1421h-264zM780 1165l-301 -626h377zM1081 1583h-481l33 180h479z" />
    <glyph glyph-name="amacron" unicode="&#x101;" horiz-adv-x="1021" 
d="M827 0h-231l25 152q-58 -87 -141 -129.5t-171 -42.5q-127 0 -203.5 69.5t-76.5 188.5q0 144 98 234.5t258 119.5l307 57l6 33q7 40 7 57q0 58 -37 86.5t-103 28.5q-148 0 -174 -145h-252q12 157 130.5 242t301.5 85q168 0 271.5 -79.5t103.5 -215.5q0 -81 -12 -143z
M399 168q83 0 154.5 65.5t97.5 188.5l11 49l-213 -43q-73 -15 -120.5 -56.5t-47.5 -105.5q0 -45 30.5 -71.5t87.5 -26.5zM866 1198h-481l33 180h479z" />
    <glyph glyph-name="Abreve" unicode="&#x102;" horiz-adv-x="1312" 
d="M920 0l-41 313h-502l-150 -313h-276l696 1421h338l199 -1421h-264zM780 1165l-301 -626h377zM862 1503q-138 0 -207 87.5t-47 215.5h164q-10 -59 14.5 -97t81.5 -38q100 0 123 135h162q-52 -303 -291 -303z" />
    <glyph glyph-name="abreve" unicode="&#x103;" horiz-adv-x="1021" 
d="M827 0h-231l25 152q-58 -87 -141 -129.5t-171 -42.5q-127 0 -203.5 69.5t-76.5 188.5q0 144 98 234.5t258 119.5l307 57l6 33q7 40 7 57q0 58 -37 86.5t-103 28.5q-148 0 -174 -145h-252q12 157 130.5 242t301.5 85q168 0 271.5 -79.5t103.5 -215.5q0 -81 -12 -143z
M399 168q83 0 154.5 65.5t97.5 188.5l11 49l-213 -43q-73 -15 -120.5 -56.5t-47.5 -105.5q0 -45 30.5 -71.5t87.5 -26.5zM647 1118q-138 0 -207 87.5t-47 215.5h164q-10 -59 14.5 -97t81.5 -38q101 0 123 135h162q-52 -303 -291 -303z" />
    <glyph glyph-name="Aogonek" unicode="&#x104;" horiz-adv-x="1312" 
d="M1182 0h-133q-119 -116 -119 -176q0 -55 59 -55q49 0 94 18l-24 -145q-56 -25 -131 -25q-78 0 -127 36t-49 105q0 43 27 89.5t57 76.5t82 76l-41 313h-502l-150 -313h-276l696 1421h338zM778 1165l-301 -626h377z" />
    <glyph glyph-name="aogonek" unicode="&#x105;" horiz-adv-x="1021" 
d="M596 2l25 150q-58 -87 -141 -129.5t-171 -42.5q-127 0 -203.5 69.5t-76.5 188.5q0 144 98 234.5t258 119.5l307 57l6 33q7 40 7 57q0 58 -37 86.5t-103 28.5q-148 0 -174 -145h-252q12 157 130.5 242t301.5 85q168 0 271.5 -79.5t103.5 -215.5q0 -81 -12 -143l-107 -598
h-100q-119 -116 -119 -176q0 -55 60 -55q45 0 94 18l-25 -145q-56 -25 -131 -25q-78 0 -127 36t-49 107q0 104 166 242zM399 168q83 0 154.5 65.5t97.5 188.5l11 49l-213 -43q-73 -15 -120.5 -56.5t-47.5 -105.5q0 -45 30.5 -71.5t87.5 -26.5z" />
    <glyph glyph-name="Cacute" unicode="&#x106;" horiz-adv-x="1323" 
d="M920 1815h262l-248 -297h-191zM637 -25q-253 0 -399 160.5t-146 431.5q0 124 28 247.5t87 237.5t141.5 201.5t201.5 140t257 52.5q234 0 376.5 -146t135.5 -385h-272q3 139 -63.5 218t-184.5 79q-99 0 -183 -58t-137 -151.5t-82.5 -207.5t-29.5 -230q0 -168 70 -262
t198 -94q122 0 211 78t129 219h272q-55 -251 -220 -391t-390 -140z" />
    <glyph glyph-name="cacute" unicode="&#x107;" horiz-adv-x="1034" 
d="M700 1421h263l-248 -297h-191zM455 -20q-169 0 -282.5 113t-113.5 294q0 129 36.5 245t104 206.5t171.5 144t231 53.5q111 0 200 -49.5t138 -140t41 -203.5h-256q11 88 -27 140.5t-114 52.5q-66 0 -118.5 -44t-83.5 -112.5t-47 -144t-16 -146.5q0 -99 40 -154t114 -55
q69 0 125 50.5t80 142.5h256q-35 -182 -165 -287.5t-314 -105.5z" />
    <glyph glyph-name="Ccircumflex" unicode="&#x108;" horiz-adv-x="1323" 
d="M788 1815h236l133 -297h-172l-98 145l-150 -145h-182zM637 -25q-253 0 -399 160.5t-146 431.5q0 124 28 247.5t87 237.5t141.5 201.5t201.5 140t257 52.5q234 0 376.5 -146t135.5 -385h-272q3 139 -63.5 218t-184.5 79q-99 0 -183 -58t-137 -151.5t-82.5 -207.5
t-29.5 -230q0 -168 70 -262t198 -94q122 0 211 78t129 219h272q-55 -251 -220 -391t-390 -140z" />
    <glyph glyph-name="ccircumflex" unicode="&#x109;" horiz-adv-x="1034" 
d="M569 1421h236l133 -297h-172l-98 146l-150 -146h-182zM455 -20q-169 0 -282.5 113t-113.5 294q0 129 36.5 245t104 206.5t171.5 144t231 53.5q111 0 200 -49.5t138 -140t41 -203.5h-256q11 88 -27 140.5t-114 52.5q-66 0 -118.5 -44t-83.5 -112.5t-47 -144t-16 -146.5
q0 -99 40 -154t114 -55q69 0 125 50.5t80 142.5h256q-35 -182 -165 -287.5t-314 -105.5z" />
    <glyph glyph-name="Cdotaccent" unicode="&#x10a;" horiz-adv-x="1323" 
d="M637 -25q-253 0 -399 160.5t-146 431.5q0 124 28 247.5t87 237.5t141.5 201.5t201.5 140t257 52.5q234 0 376.5 -146t135.5 -385h-272q3 139 -63.5 218t-184.5 79q-99 0 -183 -58t-137 -151.5t-82.5 -207.5t-29.5 -230q0 -168 70 -262t198 -94q122 0 211 78t129 219h272
q-55 -251 -220 -391t-390 -140zM719 1559l41 227h287l-41 -227h-287z" />
    <glyph glyph-name="cdotaccent" unicode="&#x10b;" horiz-adv-x="1034" 
d="M455 -20q-169 0 -282.5 113t-113.5 294q0 129 36.5 245t104 206.5t171.5 144t231 53.5q111 0 200 -49.5t138 -140t41 -203.5h-256q11 88 -27 140.5t-114 52.5q-66 0 -118.5 -44t-83.5 -112.5t-47 -144t-16 -146.5q0 -99 40 -154t114 -55q69 0 125 50.5t80 142.5h256
q-35 -182 -165 -287.5t-314 -105.5zM502 1174l41 227h286l-41 -227h-286z" />
    <glyph glyph-name="Ccaron" unicode="&#x10c;" horiz-adv-x="1323" 
d="M971 1518h-236l-129 297h170l96 -146l152 146h184zM637 -25q-253 0 -399 160.5t-146 431.5q0 124 28 247.5t87 237.5t141.5 201.5t201.5 140t257 52.5q234 0 376.5 -146t135.5 -385h-272q3 139 -63.5 218t-184.5 79q-99 0 -183 -58t-137 -151.5t-82.5 -207.5t-29.5 -230
q0 -168 70 -262t198 -94q122 0 211 78t129 219h272q-55 -251 -220 -391t-390 -140z" />
    <glyph glyph-name="ccaron" unicode="&#x10d;" horiz-adv-x="1034" 
d="M752 1124h-236l-129 297h170l96 -145l152 145h184zM455 -20q-169 0 -282.5 113t-113.5 294q0 129 36.5 245t104 206.5t171.5 144t231 53.5q111 0 200 -49.5t138 -140t41 -203.5h-256q11 88 -27 140.5t-114 52.5q-66 0 -118.5 -44t-83.5 -112.5t-47 -144t-16 -146.5
q0 -99 40 -154t114 -55q69 0 125 50.5t80 142.5h256q-35 -182 -165 -287.5t-314 -105.5z" />
    <glyph glyph-name="Dcaron" unicode="&#x10e;" horiz-adv-x="1329" 
d="M911 1518h-235l-129 297h170l96 -146l152 146h184zM301 1421h461q132 0 236.5 -43t170.5 -119.5t100 -178.5t34 -222q0 -132 -30 -256t-92.5 -233.5t-151.5 -191.5t-216.5 -129.5t-277.5 -47.5h-484zM356 233h211q91 0 168.5 37t131 99t91 142t55 165.5t17.5 171.5
q0 166 -81.5 253t-223.5 87h-201z" />
    <glyph glyph-name="dcaron" unicode="&#x10f;" horiz-adv-x="1298" 
d="M1284 1421h242l-213 -374h-168zM475 180q66 0 119 44t83.5 112.5t47 144t16.5 146.5q0 99 -40.5 154t-114.5 55q-65 0 -118 -44t-83.5 -112.5t-46.5 -144t-16 -146.5q0 -99 39.5 -154t113.5 -55zM395 -20q-65 0 -124.5 26.5t-106.5 76.5t-75 128.5t-28 175.5
q0 118 32 231.5t91 207.5t154.5 152t212.5 58q81 0 145 -40t92 -107l95 532h254l-250 -1421h-240l23 135q-109 -155 -275 -155z" />
    <glyph glyph-name="Dcroat" unicode="&#x110;" horiz-adv-x="1366" 
d="M70 602l36 219h125l107 600h461q132 0 236.5 -43t170 -119.5t99.5 -178.5t34 -222q0 -132 -30 -256t-93 -233.5t-152 -191.5t-216 -129.5t-277 -47.5h-483l107 602h-125zM393 233h211q91 0 168.5 37t130.5 99t90 142t54.5 165.5t17.5 171.5q0 167 -81 253.5t-224 86.5
h-199l-65 -367h202l-36 -219h-205z" />
    <glyph glyph-name="dcroat" unicode="&#x111;" horiz-adv-x="1105" 
d="M659 1106l31 166h166l27 149h254l-27 -149h109l-31 -166h-107l-194 -1106h-240l23 135q-109 -155 -275 -155q-65 0 -124.5 26.5t-106.5 76.5t-75 128.5t-28 175.5q0 118 32 231.5t91 207.5t154.5 152t212.5 58q81 0 145 -40t92 -107l37 217h-166zM586 836q-65 0 -118 -44
t-83.5 -112.5t-46.5 -144t-16 -146.5q0 -99 39.5 -154t113.5 -55q66 0 119 44t83.5 112.5t47 144t16.5 146.5q0 99 -40.5 154t-114.5 55z" />
    <glyph glyph-name="Emacron" unicode="&#x112;" horiz-adv-x="1163" 
d="M51 0l250 1421h905l-41 -237h-643l-59 -344h579l-41 -228h-579l-66 -374h656l-41 -238h-920zM1024 1583h-481l32 180h480z" />
    <glyph glyph-name="emacron" unicode="&#x113;" horiz-adv-x="1048" 
d="M735 668q0 84 -42.5 130t-112.5 46q-77 0 -142 -63.5t-96 -170.5h389q4 23 4 58zM457 -20q-172 0 -285 112.5t-113 300.5q0 101 23 196t69.5 176t110.5 141.5t151.5 95t188.5 34.5q171 0 277 -110t106 -281q0 -102 -27 -213h-647q-2 -23 -2 -51q0 -93 42 -148t118 -55
q66 0 121 38.5t80 109.5h256q-50 -168 -174 -257t-295 -89zM887 1198h-481l32 180h480z" />
    <glyph glyph-name="Ebreve" unicode="&#x114;" horiz-adv-x="1163" 
d="M51 0l250 1421h905l-41 -237h-643l-59 -344h579l-41 -228h-579l-66 -374h656l-41 -238h-920zM805 1503q-138 0 -207 87.5t-47 215.5h164q-10 -59 14.5 -97t81.5 -38q101 0 123 135h162q-52 -303 -291 -303z" />
    <glyph glyph-name="ebreve" unicode="&#x115;" horiz-adv-x="1048" 
d="M735 668q0 84 -42.5 130t-112.5 46q-77 0 -142 -63.5t-96 -170.5h389q4 23 4 58zM457 -20q-172 0 -285 112.5t-113 300.5q0 101 23 196t69.5 176t110.5 141.5t151.5 95t188.5 34.5q171 0 277 -110t106 -281q0 -102 -27 -213h-647q-2 -23 -2 -51q0 -93 42 -148t118 -55
q66 0 121 38.5t80 109.5h256q-50 -168 -174 -257t-295 -89zM668 1118q-138 0 -207 87.5t-47 215.5h164q-10 -59 14.5 -97t81.5 -38q100 0 123 135h161q-52 -303 -290 -303z" />
    <glyph glyph-name="Edotaccent" unicode="&#x116;" horiz-adv-x="1163" 
d="M51 0l250 1421h905l-41 -237h-643l-59 -344h579l-41 -228h-579l-66 -374h656l-41 -238h-920zM635 1559l41 227h287l-41 -227h-287z" />
    <glyph glyph-name="edotaccent" unicode="&#x117;" horiz-adv-x="1048" 
d="M735 668q0 84 -42.5 130t-112.5 46q-77 0 -142 -63.5t-96 -170.5h389q4 23 4 58zM457 -20q-172 0 -285 112.5t-113 300.5q0 101 23 196t69.5 176t110.5 141.5t151.5 95t188.5 34.5q171 0 277 -110t106 -281q0 -102 -27 -213h-647q-2 -23 -2 -51q0 -93 42 -148t118 -55
q66 0 121 38.5t80 109.5h256q-50 -168 -174 -257t-295 -89zM496 1174l41 227h286l-41 -227h-286z" />
    <glyph glyph-name="Eogonek" unicode="&#x118;" horiz-adv-x="1163" 
d="M1012 238l-41 -238q-123 -117 -123 -176q0 -55 61 -55q46 0 95 18l-27 -145q-56 -25 -131 -25q-77 0 -125.5 36t-48.5 105q0 62 43.5 118t122.5 124h-787l250 1421h905l-41 -237h-643l-59 -344h579l-41 -228h-579l-66 -374h656z" />
    <glyph glyph-name="eogonek" unicode="&#x119;" horiz-adv-x="1048" 
d="M457 -20q-172 0 -285 112.5t-113 300.5q0 101 23.5 196t69.5 176t110.5 141.5t152 95t187.5 34.5q171 0 277 -110t106 -281q0 -112 -27 -213h-647q-2 -18 -2 -55q0 -93 42.5 -146t117.5 -53q67 0 121 38.5t80 109.5h256q-15 -54 -39 -100t-59 -86t-57.5 -60.5
t-61.5 -54.5q-156 -130 -156 -201q0 -55 61 -55q48 0 93 18l-25 -145q-56 -25 -131 -25q-78 0 -126 35.5t-48 107.5q0 102 145 222q-20 -2 -65 -2zM735 668q0 83 -43 129.5t-110 46.5q-77 0 -143.5 -63t-96.5 -171h389q4 20 4 58z" />
    <glyph glyph-name="Ecaron" unicode="&#x11a;" horiz-adv-x="1163" 
d="M887 1518h-236l-129 297h170l96 -146l152 146h184zM51 0l250 1421h905l-41 -237h-643l-59 -344h579l-41 -228h-579l-66 -374h656l-41 -238h-920z" />
    <glyph glyph-name="ecaron" unicode="&#x11b;" horiz-adv-x="1048" 
d="M748 1124h-236l-129 297h170l96 -145l152 145h184zM735 668q0 84 -42.5 130t-112.5 46q-77 0 -142 -63.5t-96 -170.5h389q4 23 4 58zM457 -20q-172 0 -285 112.5t-113 300.5q0 101 23 196t69.5 176t110.5 141.5t151.5 95t188.5 34.5q171 0 277 -110t106 -281
q0 -102 -27 -213h-647q-2 -23 -2 -51q0 -93 42 -148t118 -55q66 0 121 38.5t80 109.5h256q-50 -168 -174 -257t-295 -89z" />
    <glyph glyph-name="Gcircumflex" unicode="&#x11c;" horiz-adv-x="1382" 
d="M791 1815h235l133 -297h-172l-98 145l-150 -145h-182zM803 1446q127 0 228.5 -41.5t164 -112.5t95.5 -161t32 -191h-276q0 126 -66 199t-180 73q-100 0 -183.5 -58t-136.5 -152t-82.5 -208.5t-29.5 -232.5q0 -173 70.5 -263.5t199.5 -90.5q118 0 215 86.5t145 253.5h-280
l39 223h540l-133 -770h-241l32 184q-62 -99 -164 -154t-225 -55q-99 0 -185.5 39.5t-151 113t-101.5 185t-37 248.5q0 127 28.5 252t88 239.5t142 202t200 139.5t252.5 52z" />
    <glyph glyph-name="gcircumflex" unicode="&#x11d;" horiz-adv-x="1099" 
d="M586 1421h235l133 -297h-172l-98 146l-149 -146h-183zM485 229q52 0 95.5 28t72.5 72t49.5 99t29.5 108t9 101q0 92 -39.5 147.5t-113.5 55.5q-63 0 -114 -41.5t-80 -105.5t-44.5 -132t-15.5 -129q0 -92 38.5 -147.5t112.5 -55.5zM408 -387q-204 0 -309.5 97t-102.5 247
h256q1 -77 45 -118.5t119 -41.5q90 0 145 56t80 190l23 127q-120 -139 -265 -139q-143 0 -237 111.5t-94 285.5q0 89 19 176t58.5 165t94 137.5t131 94.5t164.5 35q90 0 161 -45.5t101 -116.5l26 142h240l-166 -938q-41 -234 -166 -349.5t-323 -115.5z" />
    <glyph glyph-name="Gbreve" unicode="&#x11e;" horiz-adv-x="1382" 
d="M803 1446q127 0 228.5 -41.5t164 -112.5t95.5 -161t32 -191h-276q0 126 -66 199t-180 73q-100 0 -183.5 -58t-136.5 -152t-82.5 -208.5t-29.5 -232.5q0 -173 70.5 -263.5t199.5 -90.5q118 0 215 86.5t145 253.5h-280l39 223h540l-133 -770h-241l32 184q-62 -99 -164 -154
t-225 -55q-99 0 -185.5 39.5t-151 113t-101.5 185t-37 248.5q0 127 28.5 252t88 239.5t142 202t200 139.5t252.5 52zM891 1503q-138 0 -207 87.5t-47 215.5h164q-10 -59 14.5 -97t81.5 -38q101 0 123 135h162q-52 -303 -291 -303z" />
    <glyph glyph-name="gbreve" unicode="&#x11f;" horiz-adv-x="1099" 
d="M485 229q52 0 95.5 28t72.5 72t49.5 99t29.5 108t9 101q0 92 -39.5 147.5t-113.5 55.5q-63 0 -114 -41.5t-80 -105.5t-44.5 -132t-15.5 -129q0 -92 38.5 -147.5t112.5 -55.5zM408 -387q-204 0 -309.5 97t-102.5 247h256q1 -77 45 -118.5t119 -41.5q90 0 145 56t80 190
l23 127q-120 -139 -265 -139q-143 0 -237 111.5t-94 285.5q0 89 19 176t58.5 165t94 137.5t131 94.5t164.5 35q90 0 161 -45.5t101 -116.5l26 142h240l-166 -938q-41 -234 -166 -349.5t-323 -115.5zM686 1118q-138 0 -207 87.5t-47 215.5h164q-10 -59 14.5 -97t81.5 -38
q100 0 123 135h162q-52 -303 -291 -303z" />
    <glyph glyph-name="Gdotaccent" unicode="&#x120;" horiz-adv-x="1382" 
d="M803 1446q127 0 228.5 -41.5t164 -112.5t95.5 -161t32 -191h-276q0 126 -66 199t-180 73q-100 0 -183.5 -58t-136.5 -152t-82.5 -208.5t-29.5 -232.5q0 -173 70.5 -263.5t199.5 -90.5q118 0 215 86.5t145 253.5h-280l39 223h540l-133 -770h-241l32 184q-62 -99 -164 -154
t-225 -55q-99 0 -185.5 39.5t-151 113t-101.5 185t-37 248.5q0 127 28.5 252t88 239.5t142 202t200 139.5t252.5 52zM721 1559l41 227h287l-41 -227h-287z" />
    <glyph glyph-name="gdotaccent" unicode="&#x121;" horiz-adv-x="1099" 
d="M485 229q52 0 95.5 28t72.5 72t49.5 99t29.5 108t9 101q0 92 -39.5 147.5t-113.5 55.5q-63 0 -114 -41.5t-80 -105.5t-44.5 -132t-15.5 -129q0 -92 38.5 -147.5t112.5 -55.5zM408 -387q-204 0 -309.5 97t-102.5 247h256q1 -77 45 -118.5t119 -41.5q90 0 145 56t80 190
l23 127q-120 -139 -265 -139q-143 0 -237 111.5t-94 285.5q0 89 19 176t58.5 165t94 137.5t131 94.5t164.5 35q90 0 161 -45.5t101 -116.5l26 142h240l-166 -938q-41 -234 -166 -349.5t-323 -115.5zM516 1174l41 227h287l-41 -227h-287z" />
    <glyph glyph-name="Gcommaaccent" unicode="&#x122;" horiz-adv-x="1382" 
d="M690 -94l-37 -203q-20 -115 -94 -168t-215 -53l21 108q67 0 102 24t45 79l2 12h-121l37 201h260zM803 1446q127 0 228.5 -41.5t164 -112.5t95.5 -161t32 -191h-276q0 126 -66 199t-180 73q-100 0 -183.5 -58t-136.5 -152t-82.5 -208.5t-29.5 -232.5q0 -173 70.5 -263.5
t199.5 -90.5q118 0 215 86.5t145 253.5h-280l39 223h540l-133 -770h-241l32 184q-62 -99 -164 -154t-225 -55q-99 0 -185.5 39.5t-151 113t-101.5 185t-37 248.5q0 127 28.5 252t88 239.5t142 202t200 139.5t252.5 52z" />
    <glyph glyph-name="gcommaaccent" unicode="&#x123;" horiz-adv-x="1099" 
d="M485 229q52 0 95.5 28t72.5 72t49.5 99t29.5 108t9 101q0 92 -39.5 147.5t-113.5 55.5q-63 0 -114 -41.5t-80 -105.5t-44.5 -132t-15.5 -129q0 -92 38.5 -147.5t112.5 -55.5zM408 -387q-204 0 -309.5 97t-102.5 247h256q1 -77 45 -118.5t119 -41.5q90 0 145 56t80 190
l23 127q-120 -139 -265 -139q-143 0 -237 111.5t-94 285.5q0 89 19 176t58.5 165t94 137.5t131 94.5t164.5 35q90 0 161 -45.5t101 -116.5l26 142h240l-166 -938q-41 -234 -166 -349.5t-323 -115.5zM520 1130l37 203q22 116 95.5 169.5t213.5 53.5l-20 -110q-66 0 -101 -24
t-47 -79l-2 -12h121l-37 -201h-260z" />
    <glyph glyph-name="Hcircumflex" unicode="&#x124;" horiz-adv-x="1368" 
d="M793 1815h235l133 -297h-172l-98 145l-150 -145h-182zM51 0l250 1421h264l-100 -571h557l100 571h264l-249 -1421h-265l105 606h-557l-105 -606h-264z" />
    <glyph glyph-name="hcircumflex" unicode="&#x125;" horiz-adv-x="1052" 
d="M350 1774h236l133 -297h-172l-98 145l-150 -145h-182zM850 0h-254l104 604q13 72 13 94q0 127 -117 127q-80 0 -136.5 -69t-74.5 -174l-102 -582h-254l250 1421h253l-96 -542q99 157 275 157q123 0 191.5 -73.5t68.5 -200.5q0 -77 -17 -164z" />
    <glyph glyph-name="Hbar" unicode="&#x126;" horiz-adv-x="1439" 
d="M125 913l37 220h121l53 288h264l-53 -288h557l53 288h264l-51 -288h123l-39 -220h-121l-162 -913h-264l78 440h-559l-76 -440h-264l160 913h-121zM469 684h557l41 229h-557z" />
    <glyph glyph-name="hbar" unicode="&#x127;" horiz-adv-x="1062" 
d="M127 1106l31 166h106l27 149h254l-27 -149h166l-29 -166h-168l-38 -227q99 157 274 157q124 0 192 -73t68 -201q0 -92 -14 -164l-107 -598h-254l107 604q10 55 10 94q0 127 -117 127q-80 0 -136.5 -69t-74.5 -174l-102 -582h-254l195 1106h-109z" />
    <glyph glyph-name="Itilde" unicode="&#x128;" horiz-adv-x="548" 
d="M51 0l250 1421h264l-250 -1421h-264zM602 1534q-38 0 -83 24.5t-81.5 49t-54.5 24.5q-22 0 -34 -20.5t-21 -73.5h-156q24 141 69.5 209t123.5 68q36 0 81 -24.5t82.5 -49.5t55.5 -25q21 0 32.5 21t20.5 73h156q-24 -141 -69 -208.5t-122 -67.5z" />
    <glyph glyph-name="itilde" unicode="&#x129;" horiz-adv-x="493" 
d="M279 0h-250l178 1016h252zM504 1149q-38 0 -83 24.5t-81.5 49t-54.5 24.5q-22 0 -34.5 -21t-21.5 -73h-155q24 142 69 209.5t123 67.5q36 0 81 -25t82.5 -49.5t55.5 -24.5q21 0 33 21t21 73h155q-24 -141 -68.5 -208.5t-121.5 -67.5z" />
    <glyph glyph-name="Imacron" unicode="&#x12a;" horiz-adv-x="548" 
d="M51 0l250 1421h264l-250 -1421h-264zM705 1583h-482l33 180h479z" />
    <glyph glyph-name="imacron" unicode="&#x12b;" horiz-adv-x="493" 
d="M279 0h-250l178 1016h252zM610 1198h-481l33 180h479z" />
    <glyph glyph-name="Ibreve" unicode="&#x12c;" horiz-adv-x="548" 
d="M51 0l250 1421h264l-250 -1421h-264zM483 1503q-138 0 -207 87.5t-47 215.5h164q-10 -59 14.5 -97t81.5 -38q101 0 123 135h162q-52 -303 -291 -303z" />
    <glyph glyph-name="ibreve" unicode="&#x12d;" horiz-adv-x="493" 
d="M279 0h-250l178 1016h252zM391 1118q-138 0 -207 87.5t-47 215.5h164q-10 -59 14.5 -97t81.5 -38q101 0 123 135h162q-52 -303 -291 -303z" />
    <glyph glyph-name="Iogonek" unicode="&#x12e;" horiz-adv-x="548" 
d="M565 1421l-250 -1421q-84 -46 -126 -93.5t-42 -82.5q0 -55 60 -55q45 0 94 18l-27 -145q-52 -25 -131 -25q-77 0 -125.5 36t-48.5 105q0 117 178 242h-96l250 1421h264z" />
    <glyph glyph-name="iogonek" unicode="&#x12f;" horiz-adv-x="493" 
d="M461 1016l-178 -1016q-77 -50 -120.5 -96.5t-43.5 -79.5q0 -55 61 -55q47 0 92 18l-24 -145q-56 -25 -131 -25q-77 0 -125.5 36t-48.5 105q0 68 56 130.5t134 111.5h-104l178 1016h254zM504 1174h-285l41 229h285z" />
    <glyph glyph-name="Idotaccent" unicode="&#x130;" horiz-adv-x="548" 
d="M51 0l250 1421h264l-250 -1421h-264zM313 1559l41 227h287l-41 -227h-287z" />
    <glyph glyph-name="dotlessi" unicode="&#x131;" horiz-adv-x="493" 
d="M279 0h-250l178 1016h252z" />
    <glyph glyph-name="IJ" unicode="&#x132;" horiz-adv-x="1650" 
d="M51 0l250 1421h264l-250 -1421h-264zM592 590h262q-25 -132 -25 -184q0 -89 45 -140t130 -51q99 0 161.5 72t91.5 227l160 907h264l-159 -907q-47 -270 -177.5 -404.5t-349.5 -134.5q-213 0 -321.5 116.5t-108.5 305.5q0 75 27 193z" />
    <glyph glyph-name="ij" unicode="&#x133;" horiz-adv-x="989" 
d="M504 1174h-285l41 229h285zM283 0h-254l178 1016h254zM995 1174h-284l41 229h284zM391 -375q-78 0 -127 10l37 213q27 -4 72 -4q120 0 147 162l178 1010h254l-190 -1075q-30 -165 -123.5 -240.5t-247.5 -75.5z" />
    <glyph glyph-name="Jcircumflex" unicode="&#x134;" horiz-adv-x="1122" 
d="M973 1815h235l133 -297h-172l-98 145l-149 -145h-183zM63 590h263q-25 -132 -25 -184q0 -89 44.5 -140t129.5 -51q99 0 162 72t92 227l160 907h264l-160 -907q-48 -270 -177.5 -404.5t-348.5 -134.5q-213 0 -321.5 116.5t-108.5 305.5q0 79 26 193z" />
    <glyph glyph-name="jcircumflex" unicode="&#x135;" horiz-adv-x="493" 
d="M-100 -375q-78 0 -127 10l37 213q27 -4 71 -4q58 0 96.5 41t51.5 121l178 1010h254l-191 -1075q-30 -165 -123 -240.5t-247 -75.5zM289 1421h235l133 -297h-172l-98 146l-149 -146h-183z" />
    <glyph glyph-name="Kcommaaccent" unicode="&#x136;" horiz-adv-x="1269" 
d="M702 -94l-36 -203q-20 -115 -94.5 -168t-215.5 -53l21 108q67 0 102 24t45 79l2 12h-120l36 201h260zM51 0l250 1421h264l-112 -639l630 639h320l-584 -592l332 -829h-281l-254 637l-229 -227l-72 -410h-264z" />
    <glyph glyph-name="kcommaaccent" unicode="&#x137;" horiz-adv-x="1026" 
d="M563 -94l-37 -203q-20 -115 -94 -168t-215 -53l21 108q67 0 102 24t45 79l2 12h-121l37 201h260zM283 0h-254l250 1421h253l-135 -772l394 367h303l-410 -381l234 -635h-265l-170 459l-143 -131z" />
    <glyph glyph-name="kgreenlandic" unicode="&#x138;" horiz-adv-x="1026" 
d="M283 0h-254l178 1016h254l-64 -367l394 367h303l-410 -381l234 -635h-265l-170 459l-143 -131z" />
    <glyph glyph-name="Lacute" unicode="&#x139;" horiz-adv-x="1060" 
d="M516 1815h262l-248 -297h-190zM51 0l250 1421h264l-209 -1181h596l-43 -240h-858z" />
    <glyph glyph-name="lacute" unicode="&#x13a;" horiz-adv-x="493" 
d="M485 1774h263l-248 -297h-191zM281 0h-252l250 1421h251z" />
    <glyph glyph-name="Lcommaaccent" unicode="&#x13b;" horiz-adv-x="1060" 
d="M588 -94l-37 -203q-20 -115 -94 -168t-215 -53l20 108q67 0 102.5 24t45.5 79l2 12h-121l37 201h260zM51 0l250 1421h264l-209 -1181h596l-43 -240h-858z" />
    <glyph glyph-name="lcommaaccent" unicode="&#x13c;" horiz-adv-x="493" 
d="M266 -94l-37 -203q-20 -115 -94 -168t-215 -53l21 108q67 0 102 24t45 79l2 12h-121l37 201h260zM281 0h-252l250 1421h251z" />
    <glyph glyph-name="Lcaron" unicode="&#x13d;" horiz-adv-x="1060" 
d="M819 1421h242l-213 -374h-168zM51 0l250 1421h264l-209 -1181h596l-43 -240h-858z" />
    <glyph glyph-name="lcaron" unicode="&#x13e;" horiz-adv-x="690" 
d="M680 1421h242l-213 -374h-168zM281 0h-252l250 1421h251z" />
    <glyph glyph-name="Ldot" unicode="&#x13f;" horiz-adv-x="1071" 
d="M51 0l250 1421h264l-209 -1181h596l-43 -240h-858zM666 612l51 289h284l-51 -289h-284z" />
    <glyph glyph-name="ldot" unicode="&#x140;" horiz-adv-x="796" 
d="M281 0h-252l250 1421h251zM492 457l51 288h284l-51 -288h-284z" />
    <glyph glyph-name="Lslash" unicode="&#x141;" horiz-adv-x="1099" 
d="M35 420l45 256l137 65l121 680h262l-96 -544l237 118l-43 -256l-237 -116l-68 -383h594l-41 -240h-858l86 487z" />
    <glyph glyph-name="lslash" unicode="&#x142;" horiz-adv-x="555" 
d="M309 1421h252l-104 -594l116 64l-36 -213l-117 -62l-109 -616h-252l84 479l-116 -63l36 213l117 61z" />
    <glyph glyph-name="Nacute" unicode="&#x143;" horiz-adv-x="1386" 
d="M934 1815h262l-248 -297h-190zM1155 0h-315l-348 1055l-185 -1055h-256l250 1421h315l347 -1059l184 1059h258z" />
    <glyph glyph-name="nacute" unicode="&#x144;" horiz-adv-x="1052" 
d="M674 1421h262l-248 -297h-190zM852 0h-256l106 604q11 61 11 94q0 127 -115 127q-81 0 -137 -68.5t-76 -174.5l-102 -582h-254l178 1016h242l-25 -146q112 166 287 166q125 0 193.5 -73.5t68.5 -200.5q0 -77 -17 -164z" />
    <glyph glyph-name="Ncommaaccent" unicode="&#x145;" horiz-adv-x="1386" 
d="M713 -94l-37 -203q-20 -115 -94 -168t-215 -53l20 108q67 0 102.5 24t45.5 79l2 12h-121l37 201h260zM1155 0h-315l-348 1055l-185 -1055h-256l250 1421h315l347 -1059l184 1059h258z" />
    <glyph glyph-name="ncommaaccent" unicode="&#x146;" horiz-adv-x="1052" 
d="M555 -94l-37 -203q-20 -115 -94 -168t-215 -53l20 108q67 0 102.5 24t45.5 79l2 12h-121l37 201h260zM852 0h-256l106 604q11 61 11 94q0 127 -115 127q-81 0 -137 -68.5t-76 -174.5l-102 -582h-254l178 1016h242l-25 -146q112 166 287 166q125 0 193.5 -73.5
t68.5 -200.5q0 -77 -17 -164z" />
    <glyph glyph-name="Ncaron" unicode="&#x147;" horiz-adv-x="1386" 
d="M985 1518h-235l-129 297h170l96 -146l151 146h185zM1155 0h-315l-348 1055l-185 -1055h-256l250 1421h315l347 -1059l184 1059h258z" />
    <glyph glyph-name="ncaron" unicode="&#x148;" horiz-adv-x="1058" 
d="M758 1124h-236l-129 297h170l96 -145l152 145h184zM852 0h-256l106 604q11 61 11 94q0 127 -115 127q-81 0 -137 -68.5t-76 -174.5l-102 -582h-254l178 1016h242l-25 -146q112 166 287 166q125 0 193.5 -73.5t68.5 -200.5q0 -77 -17 -164z" />
    <glyph glyph-name="napostrophe" unicode="&#x149;" horiz-adv-x="1363" 
d="M467 1421l-53 -315q-47 -279 -346 -279l22 134q77 0 118 34.5t54 110.5l6 39h-121l48 276h272zM1163 0h-256l107 604q10 55 10 94q0 127 -115 127q-81 0 -137 -68.5t-76 -174.5l-102 -582h-254l178 1016h242l-25 -146q112 166 287 166q125 0 193.5 -73.5t68.5 -200.5
q0 -82 -16 -164z" />
    <glyph glyph-name="Eng" unicode="&#x14a;" horiz-adv-x="1386" 
d="M647 -365l37 213q25 -4 70 -4q118 0 143 127l4 29h-61l-348 1055l-185 -1055h-256l250 1421h315l347 -1059l184 1059h258l-262 -1476q-29 -162 -123.5 -241t-245.5 -79q-81 0 -127 10z" />
    <glyph glyph-name="eng" unicode="&#x14b;" horiz-adv-x="1052" 
d="M598 6l104 598q11 61 11 94q0 127 -115 127q-81 0 -137 -68.5t-76 -174.5l-102 -582h-254l178 1016h242l-25 -146q112 166 287 166q125 0 193.5 -73.5t68.5 -200.5q0 -77 -17 -164l-116 -657q-30 -165 -123.5 -240.5t-249.5 -75.5q-78 0 -127 10l41 213q50 -4 68 -4
q122 0 149 162z" />
    <glyph glyph-name="Omacron" unicode="&#x14c;" horiz-adv-x="1374" 
d="M1116 1583h-481l33 180h479zM635 -25q-251 0 -397 162.5t-146 431.5q0 103 20.5 206.5t59 202t100 183t138.5 148.5t179.5 100.5t217.5 36.5q250 0 395.5 -162.5t145.5 -431.5q0 -124 -28 -247.5t-87 -237.5t-142 -201t-201 -139t-255 -52zM639 209q99 0 183.5 58
t138 151t83 206t29.5 228q0 173 -69.5 266.5t-200.5 93.5q-80 0 -150.5 -37.5t-121.5 -101.5t-88 -146.5t-55.5 -174t-18.5 -183.5q0 -173 69.5 -266.5t200.5 -93.5z" />
    <glyph glyph-name="omacron" unicode="&#x14d;" horiz-adv-x="1058" 
d="M889 1198h-481l32 180h480zM455 -20q-169 0 -282.5 113t-113.5 294q0 129 36.5 245t104 206.5t171.5 144t231 53.5q169 0 282 -113t113 -294q0 -129 -36.5 -245t-103.5 -206.5t-171 -144t-231 -53.5zM473 180q66 0 119 44t83.5 112.5t47 144t16.5 146.5q0 99 -40.5 154
t-114.5 55q-66 0 -118.5 -44t-83.5 -112.5t-47 -144t-16 -146.5q0 -99 40 -154t114 -55z" />
    <glyph glyph-name="Obreve" unicode="&#x14e;" horiz-adv-x="1374" 
d="M635 -25q-251 0 -397 162.5t-146 431.5q0 103 20.5 206.5t59 202t100 183t138.5 148.5t179.5 100.5t217.5 36.5q250 0 395.5 -162.5t145.5 -431.5q0 -124 -28 -247.5t-87 -237.5t-142 -201t-201 -139t-255 -52zM639 209q99 0 183.5 58t138 151t83 206t29.5 228
q0 173 -69.5 266.5t-200.5 93.5q-80 0 -150.5 -37.5t-121.5 -101.5t-88 -146.5t-55.5 -174t-18.5 -183.5q0 -173 69.5 -266.5t200.5 -93.5zM897 1503q-138 0 -207 87.5t-47 215.5h164q-10 -59 14.5 -97t81.5 -38q101 0 123 135h162q-52 -303 -291 -303z" />
    <glyph glyph-name="obreve" unicode="&#x14f;" horiz-adv-x="1058" 
d="M455 -20q-169 0 -282.5 113t-113.5 294q0 129 36.5 245t104 206.5t171.5 144t231 53.5q169 0 282 -113t113 -294q0 -129 -36.5 -245t-103.5 -206.5t-171 -144t-231 -53.5zM473 180q66 0 119 44t83.5 112.5t47 144t16.5 146.5q0 99 -40.5 154t-114.5 55q-66 0 -118.5 -44
t-83.5 -112.5t-47 -144t-16 -146.5q0 -99 40 -154t114 -55zM672 1118q-138 0 -207 87.5t-47 215.5h164q-10 -59 14.5 -97t81.5 -38q100 0 123 135h162q-52 -303 -291 -303z" />
    <glyph glyph-name="Ohungarumlaut" unicode="&#x150;" horiz-adv-x="1374" 
d="M795 1815h235l-239 -314h-168zM1090 1815h235l-240 -314h-167zM635 -25q-251 0 -397 162.5t-146 431.5q0 103 20.5 206.5t59 202t100 183t138.5 148.5t179.5 100.5t217.5 36.5q250 0 395.5 -162.5t145.5 -431.5q0 -124 -28 -247.5t-87 -237.5t-142 -201t-201 -139
t-255 -52zM639 209q99 0 183.5 58t138 151t83 206t29.5 228q0 173 -69.5 266.5t-200.5 93.5q-80 0 -150.5 -37.5t-121.5 -101.5t-88 -146.5t-55.5 -174t-18.5 -183.5q0 -173 69.5 -266.5t200.5 -93.5z" />
    <glyph glyph-name="ohungarumlaut" unicode="&#x151;" horiz-adv-x="1058" 
d="M567 1421h236l-240 -313h-168zM862 1421h236l-240 -313h-168zM455 -20q-169 0 -282.5 113t-113.5 294q0 129 36.5 245t104 206.5t171.5 144t231 53.5q169 0 282 -113t113 -294q0 -129 -36.5 -245t-103.5 -206.5t-171 -144t-231 -53.5zM473 180q66 0 119 44t83.5 112.5
t47 144t16.5 146.5q0 99 -40.5 154t-114.5 55q-66 0 -118.5 -44t-83.5 -112.5t-47 -144t-16 -146.5q0 -99 40 -154t114 -55z" />
    <glyph glyph-name="OE" unicode="&#x152;" horiz-adv-x="2043" 
d="M809 1446q227 0 346 -170l27 145h905l-43 -237h-641l-60 -344h580l-41 -228h-579l-66 -374h655l-41 -238h-917l22 125q-137 -150 -366 -150q-216 0 -357 161.5t-141 428.5q0 125 28 249t87.5 238t142.5 201.5t202 140t257 52.5zM635 209q101 0 185.5 58t138 151.5
t83 207.5t29.5 230q0 171 -69 263.5t-199 92.5q-81 0 -152 -37.5t-122 -101.5t-88.5 -147.5t-55.5 -175.5t-18 -185q0 -169 69.5 -262.5t198.5 -93.5z" />
    <glyph glyph-name="oe" unicode="&#x153;" horiz-adv-x="1687" 
d="M455 -20q-169 0 -282.5 113t-113.5 294q0 129 36.5 245t104 206.5t171.5 144t231 53.5q94 0 173.5 -41.5t125.5 -120.5q67 77 155 119.5t185 42.5q171 0 277 -108t106 -287q0 -99 -27 -209h-647q-2 -23 -2 -55q0 -91 42.5 -145t117.5 -54q65 0 119.5 38.5t81.5 109.5h256
q-49 -167 -173.5 -256.5t-295.5 -89.5q-96 0 -174.5 40.5t-126.5 120.5q-130 -161 -340 -161zM584 836q-66 0 -118.5 -44t-83.5 -112.5t-47 -144t-16 -146.5q0 -99 40 -154t114 -55q66 0 119 44t83.5 112.5t47 144t16.5 146.5q0 99 -40.5 154t-114.5 55zM981 610h389
q4 18 4 58q0 84 -42.5 130t-112.5 46q-79 0 -143 -64t-95 -170z" />
    <glyph glyph-name="Racute" unicode="&#x154;" horiz-adv-x="1263" 
d="M854 1815h262l-248 -297h-190zM51 0l250 1421h524q196 0 306 -103t110 -282q0 -165 -85 -284.5t-234 -163.5l192 -588h-274l-178 545h-248l-99 -545h-264zM711 766q115 0 185.5 69.5t70.5 178.5q0 188 -205 188h-236l-75 -436h260z" />
    <glyph glyph-name="racute" unicode="&#x155;" horiz-adv-x="718" 
d="M537 1421h262l-248 -297h-191zM285 0h-254l178 1016h242l-39 -215q55 124 134.5 178.5t190.5 54.5h27l-45 -264q-31 4 -84 4q-99 0 -170 -73.5t-94 -202.5z" />
    <glyph glyph-name="Rcommaaccent" unicode="&#x156;" horiz-adv-x="1263" 
d="M659 -94l-36 -203q-20 -115 -94.5 -168t-215.5 -53l21 108q67 0 102 24t45 79l2 12h-121l37 201h260zM51 0l250 1421h524q196 0 306 -103t110 -282q0 -165 -85 -284.5t-234 -163.5l192 -588h-274l-178 545h-248l-99 -545h-264zM711 766q115 0 185.5 69.5t70.5 178.5
q0 188 -205 188h-236l-75 -436h260z" />
    <glyph glyph-name="rcommaaccent" unicode="&#x157;" horiz-adv-x="718" 
d="M262 -94l-37 -203q-20 -115 -94 -168t-215 -53l21 108q67 0 102 24t45 79l2 12h-121l37 201h260zM285 0h-254l178 1016h242l-39 -215q55 124 134.5 178.5t190.5 54.5h27l-45 -264q-31 4 -84 4q-99 0 -170 -73.5t-94 -202.5z" />
    <glyph glyph-name="Rcaron" unicode="&#x158;" horiz-adv-x="1263" 
d="M907 1518h-235l-129 297h170l96 -146l152 146h184zM51 0l250 1421h524q196 0 306 -103t110 -282q0 -165 -85 -284.5t-234 -163.5l192 -588h-274l-178 545h-248l-99 -545h-264zM711 766q115 0 185.5 69.5t70.5 178.5q0 188 -205 188h-236l-75 -436h260z" />
    <glyph glyph-name="rcaron" unicode="&#x159;" horiz-adv-x="718" 
d="M614 1124h-235l-129 297h170l96 -145l152 145h184zM285 0h-254l178 1016h242l-39 -215q55 124 134.5 178.5t190.5 54.5h27l-45 -264q-31 4 -84 4q-99 0 -170 -73.5t-94 -202.5z" />
    <glyph glyph-name="Sacute" unicode="&#x15a;" horiz-adv-x="1200" 
d="M823 1815h262l-247 -297h-191zM1096 412q0 -185 -144.5 -311t-369.5 -126q-259 0 -393.5 133.5t-131.5 344.5h275q0 -119 65 -186.5t187 -67.5q104 0 177 55t73 143q0 63 -40 103.5t-118 70.5l-160 60q-307 113 -307 397q0 81 33 155.5t93 133.5t153 94t204 35
q238 0 372.5 -127.5t129.5 -325.5h-272q0 104 -61.5 167t-168.5 63q-97 0 -159 -51.5t-62 -127.5q0 -117 164 -178l139 -51q162 -59 242 -151.5t80 -251.5z" />
    <glyph glyph-name="sacute" unicode="&#x15b;" horiz-adv-x="970" 
d="M649 1421h262l-247 -297h-191zM426 -20q-186 0 -300 91t-110 255h250q3 -76 49.5 -120t116.5 -44q75 0 122.5 31.5t47.5 85.5q0 72 -110 108l-127 43q-106 36 -168 111.5t-62 175.5q0 149 112 234t277 85q176 0 288 -87.5t108 -239.5h-248q-3 74 -45.5 109.5t-112.5 35.5
q-64 0 -103.5 -27t-39.5 -77q0 -40 27.5 -65.5t84.5 -45.5l127 -43q108 -36 168 -109t60 -178q0 -138 -113 -233.5t-299 -95.5z" />
    <glyph glyph-name="Scircumflex" unicode="&#x15c;" horiz-adv-x="1200" 
d="M692 1815h236l133 -297h-172l-98 145l-150 -145h-182zM1096 412q0 -185 -144.5 -311t-369.5 -126q-259 0 -393.5 133.5t-131.5 344.5h275q0 -119 65 -186.5t187 -67.5q104 0 177 55t73 143q0 63 -40 103.5t-118 70.5l-160 60q-307 113 -307 397q0 81 33 155.5t93 133.5
t153 94t204 35q238 0 372.5 -127.5t129.5 -325.5h-272q0 104 -61.5 167t-168.5 63q-97 0 -159 -51.5t-62 -127.5q0 -117 164 -178l139 -51q162 -59 242 -151.5t80 -251.5z" />
    <glyph glyph-name="scircumflex" unicode="&#x15d;" horiz-adv-x="970" 
d="M520 1421h236l133 -297h-172l-99 146l-149 -146h-182zM426 -20q-186 0 -300 91t-110 255h250q3 -76 49.5 -120t116.5 -44q75 0 122.5 31.5t47.5 85.5q0 72 -110 108l-127 43q-106 36 -168 111.5t-62 175.5q0 149 112 234t277 85q176 0 288 -87.5t108 -239.5h-248
q-3 74 -45.5 109.5t-112.5 35.5q-64 0 -103.5 -27t-39.5 -77q0 -40 27.5 -65.5t84.5 -45.5l127 -43q108 -36 168 -109t60 -178q0 -138 -113 -233.5t-299 -95.5z" />
    <glyph glyph-name="Scedilla" unicode="&#x15e;" horiz-adv-x="1200" 
d="M434 -408q-83 0 -158 33l23 123q1 0 17 -8t24 -11t24.5 -8t33 -7.5t34.5 -2.5q47 0 69.5 18t22.5 46q0 26 -17 39.5t-46 13.5q-30 0 -74 -23l-39 68l103 113q-196 33 -296.5 159t-97.5 308h275q0 -119 65 -186.5t187 -67.5q104 0 177 55t73 143q0 63 -40 103.5t-118 70.5
l-160 60q-307 113 -307 397q0 81 33 155.5t93 133.5t153 94t204 35q238 0 372.5 -127.5t129.5 -325.5h-272q0 104 -61.5 167t-168.5 63q-97 0 -159 -51.5t-62 -127.5q0 -117 164 -178l139 -51q162 -59 242 -151.5t80 -251.5q0 -185 -144.5 -311t-369.5 -126q-27 0 -39 2
l-47 -61h12q67 0 113.5 -35.5t46.5 -103.5q0 -86 -64.5 -135.5t-169.5 -49.5z" />
    <glyph glyph-name="scedilla" unicode="&#x15f;" horiz-adv-x="970" 
d="M315 -408q-82 0 -157 33l22 123q1 0 17 -8t24 -11t24.5 -8t33 -7.5t34.5 -2.5q47 0 70 18t23 46q0 25 -17.5 39t-46.5 14q-30 0 -74 -23l-39 68l103 115q-148 21 -234 108.5t-82 229.5h250q3 -76 49.5 -120t116.5 -44q75 0 122.5 31.5t47.5 85.5q0 72 -110 108l-127 43
q-106 36 -168 111.5t-62 175.5q0 149 112 234t277 85q176 0 288 -87.5t108 -239.5h-248q-3 74 -45.5 109.5t-112.5 35.5q-64 0 -103.5 -27t-39.5 -77q0 -40 27.5 -65.5t84.5 -45.5l127 -43q108 -36 168 -109t60 -178q0 -138 -112.5 -233t-297.5 -96l-51 -64h14
q66 -2 112 -37t46 -102q0 -86 -64.5 -135.5t-169.5 -49.5z" />
    <glyph glyph-name="Scaron" unicode="&#x160;" horiz-adv-x="1200" 
d="M874 1518h-235l-129 297h170l96 -146l152 146h184zM1096 412q0 -185 -144.5 -311t-369.5 -126q-259 0 -393.5 133.5t-131.5 344.5h275q0 -119 65 -186.5t187 -67.5q104 0 177 55t73 143q0 63 -40 103.5t-118 70.5l-160 60q-307 113 -307 397q0 81 33 155.5t93 133.5
t153 94t204 35q238 0 372.5 -127.5t129.5 -325.5h-272q0 104 -61.5 167t-168.5 63q-97 0 -159 -51.5t-62 -127.5q0 -117 164 -178l139 -51q162 -59 242 -151.5t80 -251.5z" />
    <glyph glyph-name="scaron" unicode="&#x161;" horiz-adv-x="970" 
d="M702 1124h-235l-129 297h170l96 -145l152 145h184zM426 -20q-186 0 -300 91t-110 255h250q3 -76 49.5 -120t116.5 -44q75 0 122.5 31.5t47.5 85.5q0 72 -110 108l-127 43q-106 36 -168 111.5t-62 175.5q0 149 112 234t277 85q176 0 288 -87.5t108 -239.5h-248
q-3 74 -45.5 109.5t-112.5 35.5q-64 0 -103.5 -27t-39.5 -77q0 -40 27.5 -65.5t84.5 -45.5l127 -43q108 -36 168 -109t60 -178q0 -138 -113 -233.5t-299 -95.5z" />
    <glyph glyph-name="Tcommaaccent" unicode="&#x162;" horiz-adv-x="1130" 
d="M399 -408q-82 0 -157 33l22 123q1 0 17 -8t24 -11t24.5 -8t33 -7.5t34.5 -2.5q47 0 69.5 18t22.5 46q0 26 -17 39.5t-46 13.5q-30 0 -74 -23l-39 68l117 127h-88l207 1180h-389l43 241h1040l-43 -241h-387l-207 -1180h-76l-69 -84h14q67 -2 112.5 -37.5t45.5 -101.5
q0 -86 -64.5 -135.5t-169.5 -49.5z" />
    <glyph glyph-name="tcommaaccent" unicode="&#x163;" horiz-adv-x="714" 
d="M217 -408q-81 0 -156 33l23 123q1 0 17 -8t24 -11t24.5 -8t33 -7.5t34.5 -2.5q45 0 68.5 18t23.5 46q0 26 -17 39.5t-46 13.5q-30 0 -74 -23l-39 68l127 137q-133 55 -133 207q0 51 18 166l72 416h-121l39 217h123l43 256h254l-45 -256h219l-39 -217h-219l-74 -418
q-10 -67 -10 -82q0 -86 98 -86q49 0 101 12l-41 -217q-79 -20 -154 -20q-21 0 -49 4l-61 -76h12q67 -2 113.5 -37t46.5 -102q0 -86 -65 -135.5t-171 -49.5z" />
    <glyph glyph-name="Tcaron" unicode="&#x164;" horiz-adv-x="1130" 
d="M856 1518h-235l-129 297h170l96 -146l151 146h185zM1243 1421l-43 -241h-387l-207 -1180h-264l207 1180h-389l43 241h1040z" />
    <glyph glyph-name="tcaron" unicode="&#x165;" horiz-adv-x="714" 
d="M739 1524h242l-213 -375h-168zM395 -12q-121 0 -192.5 59.5t-71.5 169.5q0 45 19 166l71 416h-121l39 217h123l43 256h254l-45 -256h219l-39 -217h-219l-74 -418q-10 -67 -10 -82q0 -86 101 -86q46 0 98 12l-41 -217q-79 -20 -154 -20z" />
    <glyph glyph-name="Tbar" unicode="&#x166;" horiz-adv-x="1130" 
d="M1245 1421l-43 -241h-389l-68 -383h197l-39 -224h-194l-103 -573h-264l100 573h-194l39 224h192l70 383h-389l43 241h1042z" />
    <glyph glyph-name="tbar" unicode="&#x167;" horiz-adv-x="731" 
d="M403 -12q-121 0 -192.5 59.5t-71.5 169.5q0 60 15 148l18 102h-119l31 176h119l24 156h-118l38 217h123l45 256h252l-45 -256h219l-39 -217h-221l-24 -156h180l-33 -176h-178l-18 -98q-9 -65 -9 -70q0 -86 101 -86q48 0 98 12l-41 -217q-81 -20 -154 -20z" />
    <glyph glyph-name="Utilde" unicode="&#x168;" horiz-adv-x="1282" 
d="M592 -25q-226 0 -350.5 118t-124.5 325q0 70 14 145l150 858h264l-150 -858q-14 -79 -14 -139q0 -95 56 -152t157 -57q121 0 198.5 76t102.5 213l162 917h264l-162 -917q-48 -271 -196 -400t-371 -129zM963 1534q-38 0 -83.5 24.5t-82 49t-54.5 24.5q-22 0 -34 -20.5
t-21 -73.5h-156q24 141 69.5 209t123.5 68q36 0 81 -24.5t82.5 -49.5t55.5 -25q21 0 32.5 21t20.5 73h156q-24 -141 -68.5 -208.5t-121.5 -67.5z" />
    <glyph glyph-name="utilde" unicode="&#x169;" horiz-adv-x="1042" 
d="M829 0h-241l26 145q-49 -76 -122 -120.5t-160 -44.5q-122 0 -188 73t-66 201q0 82 16 164l105 598h254l-105 -604q-12 -66 -12 -95q0 -127 108 -127q80 0 135.5 69.5t73.5 174.5l101 582h254zM770 1149q-38 0 -83 24.5t-81.5 49t-54.5 24.5q-22 0 -34 -20.5t-21 -73.5
h-156q24 142 69 209.5t123 67.5q36 0 81.5 -25t83 -49.5t55.5 -24.5q21 0 32.5 21t20.5 73h156q-24 -141 -69 -208.5t-122 -67.5z" />
    <glyph glyph-name="Umacron" unicode="&#x16a;" horiz-adv-x="1282" 
d="M592 -25q-226 0 -350.5 118t-124.5 325q0 70 14 145l150 858h264l-150 -858q-14 -79 -14 -139q0 -95 56 -152t157 -57q121 0 198.5 76t102.5 213l162 917h264l-162 -917q-48 -271 -196 -400t-371 -129zM1069 1583h-481l33 180h479z" />
    <glyph glyph-name="umacron" unicode="&#x16b;" horiz-adv-x="1042" 
d="M829 0h-241l26 145q-49 -76 -122 -120.5t-160 -44.5q-122 0 -188 73t-66 201q0 82 16 164l105 598h254l-105 -604q-12 -66 -12 -95q0 -127 108 -127q80 0 135.5 69.5t73.5 174.5l101 582h254zM877 1198h-482l33 180h479z" />
    <glyph glyph-name="Ubreve" unicode="&#x16c;" horiz-adv-x="1282" 
d="M592 -25q-226 0 -350.5 118t-124.5 325q0 70 14 145l150 858h264l-150 -858q-14 -79 -14 -139q0 -95 56 -152t157 -57q121 0 198.5 76t102.5 213l162 917h264l-162 -917q-48 -271 -196 -400t-371 -129zM850 1503q-138 0 -207 87.5t-47 215.5h164q-10 -59 14.5 -97
t81.5 -38q100 0 123 135h162q-52 -303 -291 -303z" />
    <glyph glyph-name="ubreve" unicode="&#x16d;" horiz-adv-x="1042" 
d="M829 0h-241l26 145q-49 -76 -122 -120.5t-160 -44.5q-122 0 -188 73t-66 201q0 82 16 164l105 598h254l-105 -604q-12 -66 -12 -95q0 -127 108 -127q80 0 135.5 69.5t73.5 174.5l101 582h254zM657 1118q-138 0 -207 87.5t-47 215.5h164q-10 -59 15 -97t82 -38
q100 0 122 135h162q-52 -303 -291 -303z" />
    <glyph glyph-name="Uring" unicode="&#x16e;" horiz-adv-x="1282" 
d="M610 1704q0 98 70 166.5t170 68.5t170 -68.5t70 -166.5q0 -97 -70 -164t-170 -67t-170 67t-70 164zM743 1704q0 -46 30.5 -77.5t76.5 -31.5t77 31.5t31 77.5q0 49 -31 82t-77 33t-76.5 -33t-30.5 -82zM592 -25q-226 0 -350.5 118t-124.5 325q0 70 14 145l150 858h264
l-150 -858q-14 -79 -14 -139q0 -95 56 -152t157 -57q121 0 198.5 76t102.5 213l162 917h264l-162 -917q-48 -271 -196 -400t-371 -129z" />
    <glyph glyph-name="uring" unicode="&#x16f;" horiz-adv-x="1042" 
d="M420 1319q0 98 69.5 166.5t169.5 68.5t170 -68.5t70 -166.5q0 -97 -70 -164.5t-170 -67.5t-169.5 67.5t-69.5 164.5zM553 1319q0 -46 30.5 -77.5t75.5 -31.5q46 0 77.5 31.5t31.5 77.5q0 49 -31.5 82t-77.5 33t-76 -32.5t-30 -82.5zM829 0h-241l26 145
q-49 -76 -122 -120.5t-160 -44.5q-122 0 -188 73t-66 201q0 82 16 164l105 598h254l-105 -604q-12 -66 -12 -95q0 -127 108 -127q80 0 135.5 69.5t73.5 174.5l101 582h254z" />
    <glyph glyph-name="Uhungarumlaut" unicode="&#x170;" horiz-adv-x="1282" 
d="M592 -25q-226 0 -350.5 118t-124.5 325q0 70 14 145l150 858h264l-150 -858q-14 -79 -14 -139q0 -95 56 -152t157 -57q121 0 198.5 76t102.5 213l162 917h264l-162 -917q-48 -271 -196 -400t-371 -129zM748 1815h235l-240 -314h-168zM1042 1815h236l-240 -314h-168z" />
    <glyph glyph-name="uhungarumlaut" unicode="&#x171;" horiz-adv-x="1042" 
d="M829 0h-241l26 145q-49 -76 -122 -120.5t-160 -44.5q-122 0 -188 73t-66 201q0 82 16 164l105 598h254l-105 -604q-12 -66 -12 -95q0 -127 108 -127q80 0 135.5 69.5t73.5 174.5l101 582h254zM555 1421h236l-240 -313h-168zM850 1421h235l-239 -313h-168z" />
    <glyph glyph-name="Uogonek" unicode="&#x172;" horiz-adv-x="1282" 
d="M1159 504q-23 -133 -72 -233t-119.5 -162.5t-155.5 -94.5t-187 -37q-99 -102 -99 -153q0 -55 62 -55q45 0 94 18l-27 -145q-56 -25 -131 -25q-78 0 -126 35.5t-48 107.5q0 98 144 224q-181 23 -279 136.5t-98 297.5q0 70 14 145l150 858h264l-150 -858q-14 -79 -14 -139
q0 -95 56 -152t157 -57q121 0 198.5 76t102.5 213l162 917h264z" />
    <glyph glyph-name="uogonek" unicode="&#x173;" horiz-adv-x="1042" 
d="M588 0l26 145q-49 -76 -122 -120.5t-160 -44.5q-122 0 -188 73t-66 201q0 82 16 164l105 598h254l-105 -604q-12 -66 -12 -95q0 -127 108 -127q80 0 135.5 69.5t73.5 174.5l101 582h254l-179 -1016h-108q-119 -116 -119 -176q0 -55 60 -55q49 0 94 18l-25 -145
q-56 -25 -131 -25q-77 0 -125.5 36t-48.5 105q0 62 42.5 118t119.5 124z" />
    <glyph glyph-name="Wcircumflex" unicode="&#x174;" horiz-adv-x="1810" 
d="M1030 1815h236l133 -297h-172l-99 145l-149 -145h-182zM1358 0h-307l-41 1085l-428 -1085h-308l-67 1421h252l37 -1054l413 1054h308l40 -1065l412 1065h256z" />
    <glyph glyph-name="wcircumflex" unicode="&#x175;" horiz-adv-x="1462" 
d="M768 1421h236l133 -297h-172l-99 146l-149 -146h-182zM1081 0h-284l-31 707l-281 -707h-282l-80 1016h252l33 -719l280 719h252l27 -719l288 719h263z" />
    <glyph glyph-name="Ycircumflex" unicode="&#x176;" horiz-adv-x="1212" 
d="M383 0l94 526l-303 895h287l192 -602l408 602h301l-625 -901l-90 -520h-264zM721 1815h235l134 -297h-172l-99 145l-149 -145h-183z" />
    <glyph glyph-name="ycircumflex" unicode="&#x177;" horiz-adv-x="983" 
d="M100 -375q-74 0 -147 13l39 215q65 -9 90 -9q117 0 170 103l10 20l-149 1049h256l69 -764l342 764h264l-544 -1098q-82 -165 -177 -229t-223 -64zM526 1421h236l133 -297h-172l-98 146l-150 -146h-182z" />
    <glyph glyph-name="Ydieresis" unicode="&#x178;" horiz-adv-x="1212" 
d="M383 0l94 526l-303 895h287l192 -602l408 602h301l-625 -901l-90 -520h-264zM500 1559l41 227h227l-41 -227h-227zM856 1559l41 227h227l-41 -227h-227z" />
    <glyph glyph-name="Zacute" unicode="&#x179;" horiz-adv-x="1153" 
d="M819 1815h262l-247 -297h-191zM279 1421h923l-39 -221l-788 -958h651l-41 -242h-993l37 221l790 959h-583z" />
    <glyph glyph-name="zacute" unicode="&#x17a;" horiz-adv-x="915" 
d="M635 1421h262l-248 -297h-190zM748 0h-766l34 197l537 602h-408l41 217h729l-32 -180l-553 -621h454z" />
    <glyph glyph-name="Zdotaccent" unicode="&#x17b;" horiz-adv-x="1153" 
d="M279 1421h923l-39 -221l-788 -958h651l-41 -242h-993l37 221l790 959h-583zM621 1559l41 227h286l-41 -227h-286z" />
    <glyph glyph-name="zdotaccent" unicode="&#x17c;" horiz-adv-x="915" 
d="M748 0h-766l34 197l537 602h-408l41 217h729l-32 -180l-553 -621h454zM434 1174l41 227h287l-41 -227h-287z" />
    <glyph glyph-name="Zcaron" unicode="&#x17d;" horiz-adv-x="1153" 
d="M870 1518h-235l-129 297h170l96 -146l152 146h184zM279 1421h923l-39 -221l-788 -958h651l-41 -242h-993l37 221l790 959h-583z" />
    <glyph glyph-name="zcaron" unicode="&#x17e;" horiz-adv-x="915" 
d="M686 1124h-235l-129 297h170l96 -145l151 145h185zM748 0h-766l34 197l537 602h-408l41 217h729l-32 -180l-553 -621h454z" />
    <glyph glyph-name="florin" unicode="&#x192;" horiz-adv-x="770" 
d="M600 1075l-51 -280h199l-39 -217h-199l-113 -637q-57 -316 -379 -316q-67 0 -116 8l37 217q25 -4 69 -4q124 0 150 160l100 572h-145l39 217h143l55 307q30 175 121.5 257.5t243.5 82.5q91 0 162 -15l-37 -210q-32 8 -84 8q-68 0 -105.5 -34.5t-50.5 -115.5z" />
    <glyph glyph-name="uni01B5" unicode="&#x1b5;" horiz-adv-x="1153" 
d="M279 1421h923l-39 -221l-323 -381h145l-43 -215h-276l-308 -362h668l-41 -242h-993l37 221l325 383h-143l45 215h274l308 361h-602z" />
    <glyph glyph-name="uni01B6" unicode="&#x1b6;" horiz-adv-x="915" 
d="M186 1016h729l-28 -168l-242 -270h94l-24 -142h-201l-207 -233h475l-34 -203h-766l32 184l224 252h-95l25 142h201l206 233h-425z" />
    <glyph glyph-name="Aringacute" unicode="&#x1fa;" horiz-adv-x="1312" 
d="M1075 1532q0 -106 -84 -170l191 -1362h-264l-44 313h-499l-150 -313h-276l690 1409q-43 53 -43 123q0 85 72 178l186 244h244l-221 -193q85 -14 141.5 -78.5t56.5 -150.5zM778 1165l-301 -626h377zM729 1532q0 -47 30.5 -79t76.5 -32t77 32t31 79q0 48 -31.5 81.5
t-76.5 33.5t-76 -33.5t-31 -81.5z" />
    <glyph glyph-name="aringacute" unicode="&#x1fb;" horiz-adv-x="1021" 
d="M827 0h-231l25 152q-58 -87 -141 -129.5t-171 -42.5q-127 0 -203.5 69.5t-76.5 188.5q0 144 98 234.5t258 119.5l307 57l6 33q7 40 7 57q0 58 -37 86.5t-103 28.5q-148 0 -174 -145h-252q12 157 130.5 242t301.5 85q168 0 271.5 -79.5t103.5 -215.5q0 -81 -12 -143z
M399 168q83 0 154.5 65.5t97.5 188.5l11 49l-213 -43q-73 -15 -120.5 -56.5t-47.5 -105.5q0 -45 30.5 -71.5t87.5 -26.5zM647 1087q-100 0 -169.5 67.5t-69.5 164.5q0 85 73 180l187 242h241l-225 -193q89 -12 147 -77t58 -152q0 -96 -71 -164t-171 -68zM543 1319
q0 -46 30 -77.5t74 -31.5q46 0 77.5 31.5t31.5 77.5q0 49 -31.5 82t-77.5 33q-44 0 -74 -33t-30 -82z" />
    <glyph glyph-name="AEacute" unicode="&#x1fc;" horiz-adv-x="1892" 
d="M1391 1815h262l-248 -297h-191zM778 0l56 313h-459l-223 -313h-291l1005 1421h1067l-41 -237h-643l-59 -344h579l-40 -228h-580l-66 -374h656l-43 -238h-918zM528 539h344l113 645z" />
    <glyph glyph-name="aeacute" unicode="&#x1fd;" horiz-adv-x="1626" 
d="M985 1421h262l-248 -297h-190zM365 -20q-159 0 -247.5 76.5t-88.5 211.5q0 148 107 245t310 97h238l12 66q6 44 6 61q0 59 -36 88t-101 29q-148 0 -176 -145h-252q15 158 132.5 242.5t301.5 84.5q215 0 291 -137q131 137 316 137q170 0 276.5 -108t106.5 -277
q0 -102 -27 -219h-645q-4 -23 -4 -55q0 -93 42 -146t117 -53q66 0 121 38t80 110h256q-48 -168 -173 -257t-296 -89q-105 0 -186.5 46.5t-126.5 133.5q-124 -180 -354 -180zM412 168q81 0 147 56.5t86 170.5l6 37h-190q-86 0 -133 -41t-47 -110q0 -54 33 -83.5t98 -29.5z
M918 610h389q4 23 4 58q0 84 -43 130t-113 46q-77 0 -141.5 -63.5t-95.5 -170.5z" />
    <glyph glyph-name="Oslashacute" unicode="&#x1fe;" horiz-adv-x="1396" 
d="M227 -53h-247l217 264q-91 145 -91 354q0 124 28 247.5t87.5 238t142.5 202.5t202 140.5t257 52.5q182 0 314 -96l100 123h250l-217 -263q92 -150 92 -354q0 -124 -28 -247.5t-87.5 -238t-142.5 -202.5t-202 -140.5t-257 -52.5q-181 0 -315 97zM649 199q103 0 189.5 59.5
t141.5 155t85.5 211t30.5 231.5q0 72 -13 125l-600 -725q66 -57 166 -57zM373 565q0 -86 14 -121l596 721q-67 58 -166 58q-102 0 -188 -59.5t-140.5 -155t-85 -211t-30.5 -232.5zM940 1815h262l-248 -297h-190z" />
    <glyph glyph-name="oslashacute" unicode="&#x1ff;" horiz-adv-x="1073" 
d="M182 -53h-196l153 192q-76 102 -76 248q0 129 36.5 245t104 206.5t171.5 144t231 53.5q115 0 205 -55l72 88h198l-155 -192q75 -109 75 -248q0 -129 -36.5 -245t-103.5 -206.5t-171 -144t-231 -53.5q-115 0 -203 57zM479 154q71 0 128 41.5t92 109.5t53.5 148t19.5 163
q0 32 -6 56l-391 -477q35 -41 104 -41zM293 389q0 -19 4 -47l393 481q-39 39 -100 39q-71 0 -129.5 -43.5t-94 -113t-54.5 -151.5t-19 -165zM702 1421h263l-248 -297h-191z" />
    <glyph glyph-name="Scommaaccent" unicode="&#x218;" horiz-adv-x="1200" 
d="M621 -94l-37 -203q-20 -115 -94.5 -168t-215.5 -53l21 108q67 0 102 24t45 79l2 12h-120l36 201h261zM1096 412q0 -185 -144.5 -311t-369.5 -126q-259 0 -393.5 133.5t-131.5 344.5h275q0 -119 65 -186.5t187 -67.5q104 0 177 55t73 143q0 63 -40 103.5t-118 70.5
l-160 60q-307 113 -307 397q0 81 33 155.5t93 133.5t153 94t204 35q238 0 372.5 -127.5t129.5 -325.5h-272q0 104 -61.5 167t-168.5 63q-97 0 -159 -51.5t-62 -127.5q0 -117 164 -178l139 -51q162 -59 242 -151.5t80 -251.5z" />
    <glyph glyph-name="scommaaccent" unicode="&#x219;" horiz-adv-x="970" 
d="M508 -94l-37 -203q-20 -115 -94 -168t-215 -53l20 108q67 0 102.5 24t45.5 79l2 12h-121l37 201h260zM426 -20q-186 0 -300 91t-110 255h250q3 -76 49.5 -120t116.5 -44q75 0 122.5 31.5t47.5 85.5q0 72 -110 108l-127 43q-106 36 -168 111.5t-62 175.5q0 149 112 234
t277 85q176 0 288 -87.5t108 -239.5h-248q-3 74 -45.5 109.5t-112.5 35.5q-64 0 -103.5 -27t-39.5 -77q0 -40 27.5 -65.5t84.5 -45.5l127 -43q108 -36 168 -109t60 -178q0 -138 -113 -233.5t-299 -95.5z" />
    <glyph glyph-name="uni021A" unicode="&#x21a;" horiz-adv-x="1130" 
d="M582 -94l-37 -203q-20 -115 -94 -168t-215 -53l20 108q67 0 102 24t45 79l3 12h-121l37 201h260zM1243 1421l-43 -241h-387l-207 -1180h-264l207 1180h-389l43 241h1040z" />
    <glyph glyph-name="uni021B" unicode="&#x21b;" horiz-adv-x="714" 
d="M416 -94l-37 -203q-20 -115 -94 -168t-215 -53l20 108q67 0 102.5 24t45.5 79l2 12h-121l37 201h260zM397 -12q-121 0 -192.5 59.5t-71.5 169.5q0 45 19 166l71 416h-121l39 217h123l43 256h254l-45 -256h219l-39 -217h-219l-74 -418q-10 -67 -10 -82q0 -86 101 -86
q46 0 98 12l-41 -217q-79 -20 -154 -20z" />
    <glyph glyph-name="dotlessj" unicode="&#x237;" horiz-adv-x="493" 
d="M-100 -375q-78 0 -127 10l37 213q27 -4 71 -4q58 0 96.5 41t51.5 121l178 1010h254l-191 -1075q-30 -165 -123 -240.5t-247 -75.5z" />
    <glyph glyph-name="circumflex" unicode="&#x2c6;" horiz-adv-x="698" 
d="M389 1421h236l133 -297h-172l-99 146l-149 -146h-182z" />
    <glyph glyph-name="caron" unicode="&#x2c7;" horiz-adv-x="698" 
d="M571 1124h-235l-129 297h170l96 -145l152 145h184z" />
    <glyph glyph-name="breve" unicode="&#x2d8;" horiz-adv-x="649" 
d="M465 1118q-138 0 -207 87.5t-47 215.5h164q-10 -59 14.5 -97t81.5 -38q101 0 123 135h162q-52 -303 -291 -303z" />
    <glyph glyph-name="dotaccent" unicode="&#x2d9;" horiz-adv-x="462" 
d="M203 1174l41 227h286l-41 -227h-286z" />
    <glyph glyph-name="ring" unicode="&#x2da;" horiz-adv-x="559" 
d="M180 1319q0 98 70 166.5t170 68.5t169.5 -68.5t69.5 -166.5q0 -97 -69.5 -164.5t-169.5 -67.5t-170 67.5t-70 164.5zM313 1319q0 -46 30.5 -77.5t76.5 -31.5t77 31.5t31 77.5q0 49 -31 82t-77 33t-76.5 -33t-30.5 -82z" />
    <glyph glyph-name="ogonek" unicode="&#x2db;" horiz-adv-x="438" 
d="M131 29h125q-145 -134 -145 -205q0 -55 59 -55q49 0 94 18l-24 -145q-56 -25 -131 -25q-78 0 -127.5 36.5t-49.5 108.5q0 124 199 267z" />
    <glyph glyph-name="tilde" unicode="&#x2dc;" horiz-adv-x="694" 
d="M600 1149q-38 0 -83 24.5t-81.5 49t-54.5 24.5q-22 0 -34 -20.5t-21 -73.5h-156q24 142 69 209.5t123 67.5q36 0 81.5 -25t83 -49.5t55.5 -24.5q21 0 32.5 21t20.5 73h156q-24 -141 -69 -208.5t-122 -67.5z" />
    <glyph glyph-name="hungarumlaut" unicode="&#x2dd;" horiz-adv-x="743" 
d="M340 1421h235l-239 -313h-168zM635 1421h235l-239 -313h-168z" />
    <glyph glyph-name="pi" unicode="&#x3c0;" horiz-adv-x="1114" 
d="M1100 811h-117l-143 -811h-252l143 811h-246l-143 -811h-250l141 811h-118l35 207h987z" />
    <glyph glyph-name="Wgrave" unicode="&#x1e80;" horiz-adv-x="1810" 
d="M1358 0h-307l-41 1085l-428 -1085h-308l-67 1421h252l37 -1054l413 1054h308l40 -1065l412 1065h256zM858 1815h256l96 -297h-182z" />
    <glyph glyph-name="wgrave" unicode="&#x1e81;" horiz-adv-x="1462" 
d="M1081 0h-284l-31 707l-281 -707h-282l-80 1016h252l33 -719l280 719h252l27 -719l288 719h263zM594 1421h256l96 -297h-182z" />
    <glyph glyph-name="Wacute" unicode="&#x1e82;" horiz-adv-x="1810" 
d="M1161 1815h262l-247 -297h-191zM1358 0h-307l-41 1085l-428 -1085h-308l-67 1421h252l37 -1054l413 1054h308l40 -1065l412 1065h256z" />
    <glyph glyph-name="wacute" unicode="&#x1e83;" horiz-adv-x="1462" 
d="M899 1421h262l-248 -297h-190zM1081 0h-284l-31 707l-281 -707h-282l-80 1016h252l33 -719l280 719h252l27 -719l288 719h263z" />
    <glyph glyph-name="Wdieresis" unicode="&#x1e84;" horiz-adv-x="1810" 
d="M811 1559l41 227h227l-41 -227h-227zM1167 1559l41 227h228l-41 -227h-228zM1358 0h-307l-41 1085l-428 -1085h-308l-67 1421h252l37 -1054l413 1054h308l40 -1065l412 1065h256z" />
    <glyph glyph-name="wdieresis" unicode="&#x1e85;" horiz-adv-x="1462" 
d="M549 1174l41 227h227l-41 -227h-227zM905 1174l41 227h228l-41 -227h-228zM1081 0h-284l-31 707l-281 -707h-282l-80 1016h252l33 -719l280 719h252l27 -719l288 719h263z" />
    <glyph glyph-name="uni1E8A" unicode="&#x1e8a;" horiz-adv-x="1241" 
d="M252 0h-311l561 717l-305 704h290l199 -479l363 479h307l-551 -716l311 -705h-293l-202 483zM647 1546l41 228h287l-41 -228h-287z" />
    <glyph glyph-name="uni1E8B" unicode="&#x1e8b;" horiz-adv-x="997" 
d="M874 0h-266l-139 332l-246 -332h-282l405 518l-225 498h276l125 -311l230 311h295l-404 -512zM451 1174l41 227h286l-41 -227h-286z" />
    <glyph glyph-name="Ygrave" unicode="&#x1ef2;" horiz-adv-x="1212" 
d="M383 0l94 526l-303 895h287l192 -602l408 602h301l-625 -901l-90 -520h-264zM547 1815h256l96 -297h-182z" />
    <glyph glyph-name="ygrave" unicode="&#x1ef3;" horiz-adv-x="983" 
d="M100 -375q-74 0 -147 13l39 215q65 -9 90 -9q117 0 170 103l10 20l-149 1049h256l69 -764l342 764h264l-544 -1098q-82 -165 -177 -229t-223 -64zM352 1421h256l97 -297h-183z" />
    <glyph glyph-name="endash" unicode="&#x2013;" horiz-adv-x="927" 
d="M63 469l31 166h780l-28 -166h-783z" />
    <glyph glyph-name="emdash" unicode="&#x2014;" horiz-adv-x="1847" 
d="M63 469l31 166h1700l-29 -166h-1702z" />
    <glyph glyph-name="quoteleft" unicode="&#x2018;" horiz-adv-x="493" 
d="M160 840l55 315q24 140 108.5 209.5t237.5 69.5l-24 -131q-75 0 -115.5 -35.5t-54.5 -112.5l-7 -39h121l-47 -276h-274z" />
    <glyph glyph-name="quoteright" unicode="&#x2019;" horiz-adv-x="493" 
d="M547 1421l-53 -315q-47 -279 -347 -279l23 134q77 0 118 34.5t54 110.5l6 39h-121l47 276h273z" />
    <glyph glyph-name="quotesinglbase" unicode="&#x201a;" horiz-adv-x="493" 
d="M344 276l-55 -315q-24 -139 -108 -208.5t-236 -69.5l22 131q75 0 115.5 35t54.5 112l8 39h-122l49 276h272z" />
    <glyph glyph-name="quotedblleft" unicode="&#x201c;" horiz-adv-x="901" 
d="M160 840l55 315q24 140 108.5 209.5t237.5 69.5l-24 -131q-75 0 -115.5 -35.5t-54.5 -112.5l-7 -39h121l-47 -276h-274zM567 840l56 315q24 140 108.5 209.5t237.5 69.5l-25 -131q-75 0 -115.5 -35.5t-54.5 -112.5l-6 -39h121l-47 -276h-275z" />
    <glyph glyph-name="quotedblright" unicode="&#x201d;" horiz-adv-x="901" 
d="M547 1421l-53 -315q-47 -279 -347 -279l23 134q77 0 118 34.5t54 110.5l6 39h-121l47 276h273zM956 1421l-55 -315q-24 -140 -108.5 -209.5t-237.5 -69.5l25 134q75 0 116 34.5t54 110.5l6 39h-121l47 276h274z" />
    <glyph glyph-name="quotedblbase" unicode="&#x201e;" horiz-adv-x="901" 
d="M346 276l-55 -315q-24 -140 -108 -209t-238 -69l22 131q76 0 117 35t55 112l6 39h-120l47 276h274zM754 276l-54 -315q-25 -140 -109.5 -209t-236.5 -69l23 131q75 0 115.5 35t54.5 112l8 39h-123l49 276h273z" />
    <glyph glyph-name="dagger" unicode="&#x2020;" horiz-adv-x="761" 
d="M786 1153l-28 -162h-215l-82 -473h-166l82 473h-211l29 162h211l49 268h166l-50 -268h215z" />
    <glyph glyph-name="daggerdbl" unicode="&#x2021;" horiz-adv-x="780" 
d="M739 819l-28 -162h-215l-47 -270h-166l47 270h-213l28 162h213l31 172h-213l29 162h213l47 268h166l-47 -268h215l-29 -162h-215l-31 -172h215z" />
    <glyph glyph-name="bullet" unicode="&#x2022;" horiz-adv-x="761" 
d="M139 594q0 106 75 181t181 75t181 -75t75 -181t-75 -181t-181 -75t-181 75t-75 181z" />
    <glyph glyph-name="ellipsis" unicode="&#x2026;" horiz-adv-x="1464" 
d="M43 0l51 289h285l-51 -289h-285zM500 0l51 289h283l-52 -289h-282zM954 0l52 289h284l-51 -289h-285z" />
    <glyph glyph-name="perthousand" unicode="&#x2030;" horiz-adv-x="2172" 
d="M1212 1421h177l-1010 -1421h-176zM524 1442q125 0 201 -76.5t76 -220.5q0 -109 -43.5 -206.5t-123.5 -159.5t-177 -62q-124 0 -199.5 76t-75.5 221q0 108 43 205.5t123 160t176 62.5zM524 1286q-72 0 -120 -85.5t-48 -186.5q0 -70 26.5 -106t74.5 -36q73 0 121.5 85
t48.5 188q0 69 -27.5 105t-75.5 36zM1135 547q-72 0 -120 -85.5t-48 -185.5q0 -143 100 -143q73 0 121.5 85t48.5 188q0 69 -27 105t-75 36zM1135 702q125 0 200.5 -75t75.5 -221q0 -108 -43.5 -206t-123.5 -160.5t-177 -62.5q-124 0 -199 76t-75 223q0 107 43 204.5
t123 159.5t176 62zM1821 547q-72 0 -120 -85.5t-48 -185.5q0 -143 100 -143q73 0 121.5 85t48.5 188q0 69 -27 105t-75 36zM1821 702q125 0 200.5 -75t75.5 -221q0 -108 -43.5 -206t-123.5 -160.5t-177 -62.5q-124 0 -199 76t-75 223q0 107 43 204.5t123 159.5t176 62z" />
    <glyph glyph-name="guilsinglleft" unicode="&#x2039;" horiz-adv-x="628" 
d="M588 889l-279 -424l125 -395h-192l-158 409l297 410h207z" />
    <glyph glyph-name="guilsinglright" unicode="&#x203a;" horiz-adv-x="626" 
d="M229 70h-204l278 424l-125 395h193l157 -410z" />
    <glyph glyph-name="fraction" unicode="&#x2044;" horiz-adv-x="329" 
d="M-459 0l1139 1421h176l-1137 -1421h-178z" />
    <glyph glyph-name="uni2070" unicode="&#x2070;" horiz-adv-x="679" 
d="M389 788q43 0 79.5 56t56.5 142t20 177q0 125 -74 125q-43 0 -79 -56t-55.5 -141.5t-19.5 -177.5q0 -125 72 -125zM391 643q-121 0 -187.5 77t-66.5 206q0 67 11 135.5t37 136.5t63 120.5t94.5 85t126.5 32.5q120 0 187 -78t67 -207q0 -86 -19 -171t-56.5 -162.5
t-104 -126t-152.5 -48.5z" />
    <glyph glyph-name="uni2074" unicode="&#x2074;" horiz-adv-x="675" 
d="M567 655h-174l29 148h-324l27 151l371 469h206l-84 -475h72l-24 -145h-72zM446 948l46 260l-209 -260h163z" />
    <glyph glyph-name="uni2075" unicode="&#x2075;" horiz-adv-x="651" 
d="M375 643q-130 0 -192 63.5t-62 172.5h180q-1 -51 19 -76t57 -25q43 0 73.5 45t30.5 113q0 43 -20.5 66.5t-50.5 23.5q-29 0 -54 -20t-37 -54h-161l114 471h426l-26 -155h-273l-41 -148q45 39 117 39q76 0 131.5 -56t55.5 -167q0 -135 -81 -214t-206 -79z" />
    <glyph glyph-name="uni2076" unicode="&#x2076;" horiz-adv-x="661" 
d="M397 643q-254 0 -254 283q0 132 40.5 247.5t119 189t178.5 73.5q119 0 177.5 -56.5t58.5 -160.5h-174q0 37 -16.5 58t-47.5 21q-41 0 -78 -49.5t-59 -146.5q51 57 143 57q77 0 134 -54.5t57 -162.5q0 -128 -82.5 -215t-196.5 -84zM387 776q48 0 79.5 51.5t31.5 114.5
q0 36 -18.5 61t-53.5 25q-46 0 -78.5 -50.5t-32.5 -111.5q0 -37 18.5 -63.5t53.5 -26.5z" />
    <glyph glyph-name="uni2077" unicode="&#x2077;" horiz-adv-x="565" 
d="M330 655h-187l320 600h-289l29 168h477l-29 -159z" />
    <glyph glyph-name="uni2078" unicode="&#x2078;" horiz-adv-x="681" 
d="M391 643q-120 0 -190 60t-70 155q0 68 41.5 126t112.5 81q-35 22 -53.5 61.5t-18.5 81.5q0 92 71.5 160t186.5 68q104 0 172 -56.5t68 -148.5q0 -59 -36.5 -108.5t-96.5 -71.5q46 -21 73 -64.5t27 -101.5q0 -99 -77.5 -170.5t-209.5 -71.5zM391 778q45 0 75 37t30 88
q0 37 -21.5 60.5t-56.5 23.5q-46 0 -77.5 -38t-31.5 -87q0 -37 22.5 -60.5t59.5 -23.5zM451 1108q40 1 67 34.5t27 76.5q0 35 -21.5 56t-52.5 21q-40 0 -67 -34t-27 -78q0 -34 20 -55t54 -21z" />
    <glyph glyph-name="uni2079" unicode="&#x2079;" horiz-adv-x="661" 
d="M360 639q-119 0 -177 56.5t-58 160.5h176q-2 -37 14.5 -58.5t46.5 -21.5q41 0 79 50.5t59 146.5q-52 -58 -144 -58q-78 0 -134 54.5t-56 163.5q0 128 82 215t196 84q256 0 256 -283q0 -132 -41 -248t-120 -189t-179 -73zM416 1047q47 0 78.5 49.5t31.5 109.5q0 38 -18 65
t-53 27q-48 0 -79.5 -51t-31.5 -114q0 -36 18.5 -61t53.5 -25z" />
    <glyph glyph-name="parenleft.sups" unicode="&#x207d;" horiz-adv-x="462" 
d="M348 918q0 -177 68 -326h-160q-84 149 -84 326q0 322 223 569h180q-227 -265 -227 -569z" />
    <glyph glyph-name="parenright.sups" unicode="&#x207e;" horiz-adv-x="462" 
d="M297 1161q0 177 -68 326h160q84 -152 84 -326q0 -325 -223 -569h-180q227 265 227 569z" />
    <glyph glyph-name="uni2080" unicode="&#x2080;" horiz-adv-x="677" 
d="M238 -92q43 0 79 56t55 141.5t19 177.5q0 125 -72 125q-43 0 -79.5 -56t-56 -141t-19.5 -176q0 -127 74 -127zM238 -238q-119 0 -185.5 77t-66.5 206q0 68 11 136.5t36.5 136.5t63 120t94.5 84.5t126 32.5q120 0 187 -77.5t67 -205.5q0 -86 -18.5 -172t-56.5 -163.5
t-105 -126t-153 -48.5z" />
    <glyph glyph-name="uni2081" unicode="&#x2081;" horiz-adv-x="526" 
d="M287 -225h-181l99 563l-174 -117l35 193l194 127h162z" />
    <glyph glyph-name="uni2082" unicode="&#x2082;" horiz-adv-x="632" 
d="M449 -225h-504l26 153l310 275q47 44 69.5 76t22.5 65q0 30 -19 47t-49 17q-39 0 -66 -29.5t-34 -85.5h-176q17 127 94.5 194.5t193.5 67.5q102 0 165 -55t63 -154q0 -121 -137 -240l-207 -176h274z" />
    <glyph glyph-name="uni2083" unicode="&#x2083;" horiz-adv-x="655" 
d="M231 -238q-131 0 -197.5 66t-66.5 172h180q-1 -49 21.5 -74.5t62.5 -25.5t67.5 29.5t27.5 74.5q0 47 -26.5 68.5t-66.5 21.5h-36l24 142h39q46 0 80.5 28.5t34.5 73.5q0 37 -20.5 58.5t-53.5 21.5q-37 0 -64.5 -26.5t-33.5 -72.5h-168q15 108 89 172t175 64
q108 0 175 -55t67 -150q0 -61 -38.5 -110.5t-103.5 -67.5q48 -18 77.5 -62.5t29.5 -103.5q0 -103 -75.5 -173.5t-199.5 -70.5z" />
    <glyph glyph-name="uni2084" unicode="&#x2084;" horiz-adv-x="673" 
d="M412 -225h-172l26 147h-321l26 154l371 467h205l-82 -475h72l-27 -146h-72zM291 68l47 260l-209 -260h162z" />
    <glyph glyph-name="uni2085" unicode="&#x2085;" horiz-adv-x="647" 
d="M221 -238q-131 0 -193.5 64.5t-60.5 173.5h178q0 -100 76 -100q45 0 76 44t31 111q0 43 -21 66.5t-51 23.5q-29 0 -53.5 -19.5t-38.5 -53.5h-160l115 471h426l-29 -154h-270l-43 -149q45 39 119 39q75 0 130.5 -56t55.5 -166q0 -135 -81 -215t-206 -80z" />
    <glyph glyph-name="uni2086" unicode="&#x2086;" horiz-adv-x="657" 
d="M244 -238q-256 0 -256 285q0 131 41 246.5t120 188.5t179 73q235 0 235 -217h-176q0 38 -16 59t-45 21q-41 0 -79 -50t-59 -145q53 56 144 56q77 0 133.5 -54t56.5 -162q0 -129 -82 -216t-196 -85zM233 -102q49 0 80 50.5t31 112.5q0 37 -18.5 63t-53.5 26
q-47 0 -78.5 -50.5t-31.5 -111.5q0 -38 18 -64t53 -26z" />
    <glyph glyph-name="uni2087" unicode="&#x2087;" horiz-adv-x="565" 
d="M176 -225h-186l317 602h-287l29 166h475l-28 -160z" />
    <glyph glyph-name="uni2088" unicode="&#x2088;" horiz-adv-x="677" 
d="M236 -238q-119 0 -189 61t-70 154q0 69 41.5 127.5t112.5 81.5q-35 21 -54.5 61t-19.5 83q0 92 72 158.5t188 66.5q104 0 171 -56t67 -149q0 -59 -35.5 -107.5t-95.5 -70.5q100 -48 100 -168q0 -98 -77.5 -170t-210.5 -72zM238 -102q43 0 73.5 38t30.5 89q0 36 -22 58.5
t-58 22.5q-45 0 -75.5 -37t-30.5 -87q0 -36 23 -60t59 -24zM295 229q40 0 67 33.5t27 77.5q0 34 -21 56t-53 22q-39 0 -65.5 -34.5t-26.5 -78.5q0 -34 20 -55t52 -21z" />
    <glyph glyph-name="uni2089" unicode="&#x2089;" horiz-adv-x="657" 
d="M207 -240q-235 0 -238 217h176q0 -79 64 -79q40 0 77 49t58 145q-49 -57 -141 -57q-78 0 -134.5 54t-56.5 163q0 129 82.5 216t196.5 85q121 0 187.5 -70t66.5 -215q0 -132 -40.5 -247t-119 -188t-178.5 -73zM260 166q47 0 80 51t33 111q0 38 -18.5 64t-53.5 26
q-49 0 -80 -51t-31 -113q0 -36 18.5 -62t51.5 -26z" />
    <glyph glyph-name="Euro" unicode="&#x20ac;" horiz-adv-x="1232" 
d="M76 473l28 166h109q4 47 20 141h-106l29 166h123q50 146 125 256t182 177t231 67q212 0 316 -122t104 -349h-256q0 252 -166 252q-86 0 -155 -77t-115 -204h284l-28 -166h-305q-18 -82 -25 -141h307l-28 -166h-285q8 -278 186 -278q85 0 147.5 62.5t92.5 188.5h256
q-47 -230 -179.5 -350.5t-326.5 -120.5q-201 0 -313 130t-121 368h-131z" />
    <glyph glyph-name="trademark" unicode="&#x2122;" horiz-adv-x="1529" 
d="M168 1270v151h545v-151h-195v-527h-158v527h-192zM1081 741l-149 480v-480h-152v680h224l159 -520l158 520h223v-680h-151v480l-146 -480h-166z" />
    <glyph glyph-name="Omega" unicode="&#x2126;" horiz-adv-x="1454" 
d="M838 1212q-95 0 -178 -55.5t-137.5 -142.5t-85.5 -192.5t-31 -207.5q0 -283 163 -391l-39 -223h-512l41 229h242q-81 88 -120.5 195.5t-39.5 249.5q0 100 28 205.5t86.5 207t139 181.5t196 129t247.5 49q121 0 221 -38.5t174 -112t115 -188t41 -259.5q0 -190 -80 -355.5
t-226 -263.5h211l-41 -229h-514l39 223q148 59 244 227.5t96 374.5q0 186 -73 286.5t-207 100.5z" />
    <glyph glyph-name="uni2153" unicode="&#x2153;" horiz-adv-x="1497" 
d="M82 0l1139 1421h176l-1137 -1421h-178zM1090 -12q-131 0 -198 66t-67 171h181q-1 -49 21.5 -74.5t62.5 -25.5t67 29.5t27 74.5q0 47 -26 68.5t-66 21.5h-37l24 142h39q46 0 80.5 28.5t34.5 73.5q0 37 -20.5 58.5t-53.5 21.5q-37 0 -64.5 -26t-33.5 -72h-168
q15 108 89 171.5t175 63.5q108 0 175 -55t67 -150q0 -61 -38.5 -110.5t-103.5 -67.5q48 -18 77.5 -62.5t29.5 -103.5q0 -103 -75 -173t-199 -70zM418 655h-180l100 562l-176 -117l37 194l192 127h162z" />
    <glyph glyph-name="uni2154" unicode="&#x2154;" horiz-adv-x="1624" 
d="M600 655h-504l27 152l309 276q94 81 94 140q0 31 -19.5 48t-49.5 17q-39 0 -66.5 -30t-34.5 -87h-174q17 129 94.5 197t194.5 68q101 0 163 -55t62 -154q0 -127 -137 -240l-207 -176h275zM209 0l1139 1421h176l-1137 -1421h-178zM1217 -12q-131 0 -198 66t-67 171h181
q-1 -49 21.5 -74.5t62.5 -25.5t67 29.5t27 74.5q0 47 -26 68.5t-66 21.5h-37l24 142h39q46 0 80.5 28.5t34.5 73.5q0 37 -20.5 58.5t-53.5 21.5q-37 0 -64.5 -26t-33.5 -72h-168q15 108 89 171.5t175 63.5q108 0 175 -55t67 -150q0 -61 -38.5 -110.5t-103.5 -67.5
q48 -18 77.5 -62.5t29.5 -103.5q0 -103 -75 -173t-199 -70z" />
    <glyph glyph-name="uni2155" unicode="&#x2155;" horiz-adv-x="1527" 
d="M82 0l1139 1421h176l-1137 -1421h-178zM1114 -12q-131 0 -193.5 64t-60.5 173h178q0 -100 76 -100q45 0 76 44.5t31 111.5q0 43 -21 66.5t-51 23.5q-29 0 -53.5 -20t-38.5 -54h-160l115 471h426l-29 -154h-270l-43 -149q45 39 118 39q75 0 131 -55.5t56 -165.5
q0 -135 -81 -215t-206 -80zM418 655h-180l100 562l-176 -117l37 194l192 127h162z" />
    <glyph glyph-name="uni2156" unicode="&#x2156;" horiz-adv-x="1673" 
d="M621 655h-504l26 152l310 276q94 81 94 140q0 31 -19.5 48t-50.5 17q-39 0 -66 -30t-34 -87h-174q17 129 94.5 197t194.5 68q101 0 163 -55t62 -154q0 -127 -137 -240l-207 -176h274zM1260 -12q-131 0 -193.5 64t-60.5 173h178q0 -100 76 -100q45 0 75.5 44.5t30.5 111.5
q0 43 -21 66.5t-51 23.5q-29 0 -53.5 -20t-38.5 -54h-160l115 471h426l-29 -154h-270l-43 -149q45 39 119 39q75 0 130.5 -55.5t55.5 -165.5q0 -135 -81 -215t-205 -80zM229 0l1139 1421h176l-1136 -1421h-179z" />
    <glyph glyph-name="uni2157" unicode="&#x2157;" horiz-adv-x="1662" 
d="M393 643q-131 0 -198.5 65.5t-67.5 170.5h180q0 -50 22.5 -75.5t63.5 -25.5q39 0 66.5 31t27.5 76q0 46 -26.5 68t-67.5 22h-37l27 141h39q46 0 79.5 28.5t33.5 74.5q0 36 -20.5 56.5t-53.5 20.5q-36 0 -64 -25.5t-35 -72.5h-167q15 110 89.5 174t176.5 64
q106 0 172.5 -56t66.5 -151q0 -60 -38 -109t-103 -67q50 -19 78.5 -63t28.5 -105q0 -101 -75 -171.5t-198 -70.5zM1249 -12q-131 0 -193.5 64t-60.5 173h179q0 -100 75 -100q45 0 76 44.5t31 111.5q0 43 -21 66.5t-51 23.5q-29 0 -53.5 -20t-38.5 -54h-160l115 471h426
l-29 -154h-270l-43 -149q45 39 119 39q75 0 130.5 -55.5t55.5 -165.5q0 -135 -81 -215t-206 -80zM217 0l1139 1421h176l-1137 -1421h-178z" />
    <glyph glyph-name="uni2158" unicode="&#x2158;" horiz-adv-x="1699" 
d="M559 655h-174l29 148h-324l27 151l370 469h207l-84 -475h72l-25 -145h-71zM438 948l45 260l-209 -260h164zM1286 -12q-131 0 -193.5 64t-60.5 173h178q0 -100 76 -100q45 0 76 44.5t31 111.5q0 43 -21 66.5t-51 23.5q-29 0 -53.5 -20t-38.5 -54h-160l115 471h426
l-29 -154h-270l-43 -149q45 39 118 39q75 0 131 -55.5t56 -165.5q0 -135 -81 -215t-206 -80zM254 0l1139 1421h176l-1137 -1421h-178z" />
    <glyph glyph-name="uni2159" unicode="&#x2159;" horiz-adv-x="1515" 
d="M1114 -12q-256 0 -256 284q0 131 41 246.5t120 188.5t179 73q236 0 236 -217h-177q0 38 -16 59t-45 21q-41 0 -78.5 -49.5t-58.5 -144.5q52 55 143 55q77 0 134 -53.5t57 -161.5q0 -129 -82.5 -216t-196.5 -85zM1104 123q48 0 79 50.5t31 113.5q0 37 -18 62.5t-53 25.5
q-47 0 -79 -50.5t-32 -111.5q0 -38 18.5 -64t53.5 -26zM82 0l1139 1421h176l-1137 -1421h-178zM418 655h-180l100 562l-176 -117l37 194l192 127h162z" />
    <glyph glyph-name="uni215A" unicode="&#x215a;" horiz-adv-x="1646" 
d="M381 643q-130 0 -192 63.5t-62 172.5h180q-1 -51 19 -76t57 -25q43 0 73.5 45t30.5 113q0 43 -20.5 66.5t-50.5 23.5q-29 0 -53.5 -20t-36.5 -54h-162l115 471h426l-27 -155h-272l-41 -148q45 39 116 39q76 0 131.5 -56t55.5 -167q0 -135 -81 -214t-206 -79zM1245 -12
q-256 0 -256 284q0 131 41 246.5t120 188.5t179 73q236 0 236 -217h-176q0 38 -16.5 59t-45.5 21q-41 0 -78.5 -49.5t-58.5 -144.5q52 55 143 55q77 0 134 -53.5t57 -161.5q0 -129 -82.5 -216t-196.5 -85zM1235 123q49 0 80 50.5t31 113.5q0 37 -18.5 62.5t-53.5 25.5
q-47 0 -79 -50.5t-32 -111.5q0 -38 18.5 -64t53.5 -26zM213 0l1139 1421h176l-1137 -1421h-178z" />
    <glyph glyph-name="uni215B" unicode="&#x215b;" horiz-adv-x="1523" 
d="M1098 -12q-119 0 -188.5 61t-69.5 154q0 69 41 128t112 81q-35 21 -54 60t-19 83q0 92 72 158.5t188 66.5q104 0 170.5 -56t66.5 -149q0 -59 -35.5 -107.5t-95.5 -70.5q100 -48 100 -168q0 -98 -77.5 -169.5t-210.5 -71.5zM1100 123q43 0 73.5 38t30.5 89q0 36 -22 59
t-58 23q-45 0 -75.5 -37t-30.5 -88q0 -36 23 -60t59 -24zM1157 455q40 0 67 33t27 77q0 34 -20.5 56t-52.5 22q-39 0 -66 -34.5t-27 -78.5q0 -34 20 -54.5t52 -20.5zM82 0l1139 1421h176l-1137 -1421h-178zM418 655h-180l100 562l-176 -117l37 194l192 127h162z" />
    <glyph glyph-name="uni215C" unicode="&#x215c;" horiz-adv-x="1658" 
d="M1233 -12q-119 0 -188.5 61t-69.5 154q0 69 41 128t112 81q-35 21 -54 60t-19 83q0 92 72 158.5t188 66.5q104 0 170.5 -56t66.5 -149q0 -59 -35.5 -107.5t-95.5 -70.5q47 -22 74 -65.5t27 -102.5q0 -98 -78 -169.5t-211 -71.5zM1235 123q43 0 73.5 38t30.5 89
q0 36 -21.5 59t-57.5 23q-45 0 -76 -37.5t-31 -87.5q0 -36 23 -60t59 -24zM1292 455q40 0 67 33t27 77q0 34 -20.5 56t-52.5 22q-39 0 -65.5 -34.5t-26.5 -78.5q0 -34 19.5 -54.5t51.5 -20.5zM393 643q-131 0 -198.5 65.5t-67.5 170.5h180q0 -50 22.5 -75.5t63.5 -25.5
q39 0 66.5 31t27.5 76q0 46 -26.5 68t-67.5 22h-37l27 141h39q46 0 79.5 28.5t33.5 74.5q0 36 -20.5 56.5t-53.5 20.5q-36 0 -64 -25.5t-35 -72.5h-167q15 110 89.5 174t176.5 64q106 0 172.5 -56t66.5 -151q0 -60 -38 -109t-103 -67q50 -19 78.5 -63t28.5 -105
q0 -101 -75 -171.5t-198 -70.5zM217 0l1139 1421h176l-1137 -1421h-178z" />
    <glyph glyph-name="uni215D" unicode="&#x215d;" horiz-adv-x="1654" 
d="M1229 -12q-119 0 -188.5 61t-69.5 154q0 69 41 128t112 81q-35 21 -54 60t-19 83q0 92 72 158.5t188 66.5q104 0 170.5 -56t66.5 -149q0 -59 -35.5 -107.5t-95.5 -70.5q47 -22 74 -65.5t27 -102.5q0 -98 -78 -169.5t-211 -71.5zM1231 123q43 0 73.5 38t30.5 89
q0 36 -22 59t-58 23q-45 0 -75.5 -37t-30.5 -88q0 -36 23 -60t59 -24zM1288 455q40 0 67 33t27 77q0 34 -20.5 56t-52.5 22q-39 0 -65.5 -34.5t-26.5 -78.5q0 -34 19.5 -54.5t51.5 -20.5zM381 643q-130 0 -192 63.5t-62 172.5h180q-1 -51 19 -76t57 -25q43 0 73.5 45
t30.5 113q0 43 -20.5 66.5t-50.5 23.5q-29 0 -53.5 -20t-36.5 -54h-162l115 471h426l-27 -155h-272l-41 -148q45 39 116 39q76 0 131.5 -56t55.5 -167q0 -135 -81 -214t-206 -79zM213 0l1139 1421h176l-1137 -1421h-178z" />
    <glyph glyph-name="uni215E" unicode="&#x215e;" horiz-adv-x="1556" 
d="M403 655h-186l320 600h-289l28 168h478l-29 -159zM117 0l1138 1421h177l-1137 -1421h-178zM1130 -12q-119 0 -188.5 61t-69.5 154q0 69 41.5 127.5t112.5 81.5q-35 21 -54.5 60.5t-19.5 82.5q0 92 72 158.5t188 66.5q104 0 171 -56t67 -149q0 -59 -35.5 -107.5
t-95.5 -70.5q100 -48 100 -168q0 -98 -78 -169.5t-211 -71.5zM1133 123q43 0 73.5 38t30.5 89q0 36 -22 59t-58 23q-45 0 -75.5 -37t-30.5 -88q0 -36 23 -60t59 -24zM1190 455q40 0 67 33t27 77q0 34 -21 56t-53 22q-39 0 -65.5 -34.5t-26.5 -78.5q0 -34 20 -54.5t52 -20.5z
" />
    <glyph glyph-name="uni2190" unicode="&#x2190;" 
d="M686 1319h223l-520 -524h1219v-162h-1225l526 -531h-223l-606 609z" />
    <glyph glyph-name="uni2191" unicode="&#x2191;" 
d="M1452 868v-223l-524 520v-1218h-162v1224l-530 -526v223l608 607z" />
    <glyph glyph-name="uni2192" unicode="&#x2192;" 
d="M778 1319h223l607 -608l-607 -609h-223l527 531h-1225v162h1218z" />
    <glyph glyph-name="uni2193" unicode="&#x2193;" 
d="M1452 776v-223l-608 -606l-608 606v223l530 -526v1225h162v-1219z" />
    <glyph glyph-name="partialdiff" unicode="&#x2202;" horiz-adv-x="1058" 
d="M485 1421h275q102 -125 174 -311.5t72 -400.5q0 -166 -42 -304.5t-114.5 -230.5t-170.5 -143t-210 -51q-183 0 -296.5 113t-113.5 296q0 123 36.5 238.5t102 206t166 145.5t220.5 55q98 0 153 -55q-46 139 -106 244.5t-146 197.5zM473 170q80 0 142.5 69t93 171.5
t30.5 214.5q0 103 -39.5 162t-113.5 59q-81 0 -144 -70.5t-94 -173t-31 -211.5q0 -104 41 -162.5t115 -58.5z" />
    <glyph glyph-name="Delta" unicode="&#x2206;" horiz-adv-x="1298" 
d="M1139 205l-37 -205h-1088l37 205l594 1216h326zM764 1143l-424 -901h532z" />
    <glyph glyph-name="product" unicode="&#x220f;" horiz-adv-x="1370" 
d="M1137 0h-265l207 1182h-555l-207 -1182h-266l250 1421h1085z" />
    <glyph glyph-name="summation" unicode="&#x2211;" horiz-adv-x="1103" 
d="M57 233l498 510l-332 445l43 233h908l-44 -233h-598l250 -346l-43 -234l-362 -375h600l-41 -233h-920z" />
    <glyph glyph-name="minus" unicode="&#x2212;" horiz-adv-x="1228" 
d="M186 561l33 199h873l-35 -199h-871z" />
    <glyph glyph-name="radical" unicode="&#x221a;" horiz-adv-x="1222" 
d="M90 561l41 230h342l55 -541l547 1171h258l-700 -1421h-293l-76 561h-174z" />
    <glyph glyph-name="infinity" unicode="&#x221e;" horiz-adv-x="1228" 
d="M938 995q125 0 196.5 -82t71.5 -221q0 -72 -21.5 -139.5t-60 -121t-98.5 -86t-131 -32.5q-94 0 -156.5 45t-113.5 142q-136 -187 -289 -187q-125 0 -196.5 81t-71.5 222q0 97 35.5 182t108.5 141t169 56q91 0 152.5 -46t113.5 -142q134 188 291 188zM893 477
q63 0 101 65.5t38 149.5q0 62 -27 100.5t-77 38.5q-55 0 -102.5 -43.5t-106.5 -138.5q42 -90 81.5 -131t92.5 -41zM385 831q-66 0 -105.5 -65t-39.5 -150q0 -62 28.5 -100.5t77.5 -38.5q50 0 98.5 43.5t106.5 134.5q-43 91 -80.5 133.5t-85.5 42.5z" />
    <glyph glyph-name="integral" unicode="&#x222b;" horiz-adv-x="739" 
d="M571 1075l-202 -1134q-57 -316 -377 -316q-70 0 -119 8l37 217q25 -4 70 -4q123 0 149 160l193 1096q32 176 122 258t242 82q92 0 162 -15l-35 -210q-36 8 -86 8q-66 0 -103.5 -34.5t-52.5 -115.5z" />
    <glyph glyph-name="approxequal" unicode="&#x2248;" horiz-adv-x="1228" 
d="M911 735q-57 0 -148.5 30.5t-173 60.5t-114.5 30q-31 0 -49 -19t-25 -63l-8 -45h-186l18 105q38 223 224 223q56 0 147.5 -30.5t173.5 -60.5t115 -30t51 19t25 63l8 45h184l-18 -105q-38 -223 -224 -223zM838 291q-57 0 -148.5 30.5t-173.5 60.5t-115 30q-31 0 -48.5 -19
t-24.5 -63l-9 -45h-186l19 104q38 223 223 223q56 0 147.5 -30t173.5 -60t115 -30t51 18.5t25 62.5l8 45h184l-18 -104q-38 -223 -223 -223z" />
    <glyph glyph-name="notequal" unicode="&#x2260;" horiz-adv-x="1228" 
d="M236 784l36 199h430l95 186h194l-94 -186h223l-35 -199h-286l-127 -247h368l-34 -199h-435l-92 -186h-194l94 186h-223l37 199h284l125 247h-366z" />
    <glyph glyph-name="lessequal" unicode="&#x2264;" horiz-adv-x="1228" 
d="M258 711l41 221l834 303l-39 -215l-598 -211l524 -215l-35 -199zM121 0l35 199h809l-35 -199h-809z" />
    <glyph glyph-name="greaterequal" unicode="&#x2265;" horiz-adv-x="1228" 
d="M1075 922l-41 -222l-833 -305l39 215l598 211l-525 215l35 199zM119 0l35 199h809l-35 -199h-809z" />
    <glyph glyph-name="uni2295" unicode="&#x2295;" 
d="M1577 711q0 -152 -57 -288t-154.5 -234t-233.5 -155t-288 -57t-288 57t-233.5 155t-154.5 234t-57 288t57 288t154.5 233.5t233.5 154.5t288 57t288 -57t233.5 -154.5t154.5 -233.5t57 -288zM926 143q191 26 325 160t160 328h-485v-488zM276 631q26 -195 160 -328.5
t328 -159.5v488h-488zM926 1278v-487h485q-26 192 -159.5 326.5t-325.5 160.5zM764 1278q-193 -26 -327.5 -160.5t-160.5 -326.5h488v487z" />
    <glyph glyph-name="uni2296" unicode="&#x2296;" 
d="M844 -23q-152 0 -288 57t-233.5 155t-154.5 234t-57 288t57 288t154.5 233.5t233.5 154.5t288 57t288 -57t233.5 -154.5t154.5 -233.5t57 -288t-57 -288t-154.5 -234t-233.5 -155t-288 -57zM844 139q220 0 379 138.5t188 353.5h-1135q28 -215 187 -353.5t381 -138.5z
M844 1284q-222 0 -381 -139t-187 -354h1135q-28 215 -186.5 354t-380.5 139z" />
    <glyph glyph-name="uni2297" unicode="&#x2297;" 
d="M1577 711q0 -152 -57 -288t-154.5 -234t-233.5 -155t-288 -57t-288 57t-233.5 155t-154.5 234t-57 288t57 288t154.5 233.5t233.5 154.5t288 57t288 -57t233.5 -154.5t154.5 -233.5t57 -288zM272 711q0 -197 111 -349l346 349l-346 346q-111 -152 -111 -346zM844 139
q194 0 346 111l-346 346l-346 -346q149 -111 346 -111zM844 1284q-198 0 -346 -113l346 -346l344 346q-152 113 -344 113zM1417 711q0 192 -112 346l-347 -346l345 -349q114 152 114 349z" />
    <glyph glyph-name="uni2299" unicode="&#x2299;" 
d="M586 711q0 109 74.5 183.5t183.5 74.5t183.5 -74.5t74.5 -183.5t-74.5 -183.5t-183.5 -74.5t-183.5 74.5t-74.5 183.5zM272 711q0 -160 75 -291t206 -206t291 -75t291.5 75t206.5 206t75 291q0 120 -44.5 226t-120.5 182t-182 120.5t-226 44.5q-160 0 -291 -75
t-206 -206.5t-75 -291.5zM1577 711q0 -152 -57 -288t-154.5 -234t-233.5 -155t-288 -57t-288 57t-233.5 155t-154.5 234t-57 288t57 288t154.5 233.5t233.5 154.5t288 57t288 -57t233.5 -154.5t154.5 -233.5t57 -288z" />
    <glyph glyph-name="uni22A0" unicode="&#x22a0;" 
d="M1554 0h-1421v1421h1421v-1421zM1280 162l-436 434l-436 -434h872zM1395 274v873l-437 -436zM1278 1262h-868l434 -437zM295 1147v-873l434 437z" />
    <glyph glyph-name="uni2460" unicode="&#x2460;" horiz-adv-x="1945" 
d="M973 1425q-148 0 -280.5 -55.5t-228 -150.5t-151 -227.5t-55.5 -280.5q0 -197 94.5 -361.5t259 -259t361.5 -94.5t361.5 94.5t259 259t94.5 361.5q0 148 -55.5 280.5t-151 227.5t-228 150.5t-280.5 55.5zM973 1571q178 0 337.5 -67t274 -181.5t181.5 -274t67 -337.5
t-67 -337.5t-181.5 -274.5t-274 -182t-337.5 -67t-337.5 67t-274 182t-181.5 274.5t-67 337.5t67 337.5t181.5 274t274 181.5t337.5 67zM1100 195h-219v788l-195 -143v229l217 160h197v-1034z" />
    <glyph glyph-name="uni2461" unicode="&#x2461;" horiz-adv-x="1945" 
d="M973 1425q-148 0 -280.5 -55.5t-228 -150.5t-151 -227.5t-55.5 -280.5q0 -197 94.5 -361.5t259 -259t361.5 -94.5t361.5 94.5t259 259t94.5 361.5q0 148 -55.5 280.5t-151 227.5t-228 150.5t-280.5 55.5zM973 1571q178 0 337.5 -67t274 -181.5t181.5 -274t67 -337.5
t-67 -337.5t-181.5 -274.5t-274 -182t-337.5 -67t-337.5 67t-274 182t-181.5 274.5t-67 337.5t67 337.5t181.5 274t274 181.5t337.5 67zM1307 195h-660v190l352 379q88 96 88 182q0 54 -30.5 87.5t-79.5 33.5q-56 0 -88 -42.5t-31 -125.5h-219q0 160 89.5 254t250.5 94
q146 0 237 -82.5t91 -218.5q0 -49 -13.5 -95.5t-40.5 -88t-50 -69t-58 -64.5l-223 -240h385v-194z" />
    <glyph glyph-name="uni2462" unicode="&#x2462;" horiz-adv-x="1945" 
d="M973 1425q-148 0 -280.5 -55.5t-228 -150.5t-151 -227.5t-55.5 -280.5q0 -197 94.5 -361.5t259 -259t361.5 -94.5t361.5 94.5t259 259t94.5 361.5q0 148 -55.5 280.5t-151 227.5t-228 150.5t-280.5 55.5zM973 1571q178 0 337.5 -67t274 -181.5t181.5 -274t67 -337.5
t-67 -337.5t-181.5 -274.5t-274 -182t-337.5 -67t-337.5 67t-274 182t-181.5 274.5t-67 337.5t67 337.5t181.5 274t274 181.5t337.5 67zM973 176q-164 0 -260 85t-97 233h226q3 -69 38.5 -108.5t92.5 -39.5q56 0 91.5 42t35.5 112q0 133 -166 133h-33v174h25q76 0 117.5 36
t41.5 103q0 58 -31 93.5t-81 35.5q-52 0 -84 -37.5t-33 -107.5h-213q0 144 88.5 230.5t243.5 86.5q148 0 234.5 -81.5t86.5 -202.5q0 -79 -39 -139.5t-100 -86.5q73 -28 120.5 -96.5t47.5 -159.5q0 -129 -94 -217t-258 -88z" />
    <glyph glyph-name="uni2463" unicode="&#x2463;" horiz-adv-x="1945" 
d="M973 1425q-148 0 -280.5 -55.5t-228 -150.5t-151 -227.5t-55.5 -280.5q0 -197 94.5 -361.5t259 -259t361.5 -94.5t361.5 94.5t259 259t94.5 361.5q0 148 -55.5 280.5t-151 227.5t-228 150.5t-280.5 55.5zM973 1571q178 0 337.5 -67t274 -181.5t181.5 -274t67 -337.5
t-67 -337.5t-181.5 -274.5t-274 -182t-337.5 -67t-337.5 67t-274 182t-181.5 274.5t-67 337.5t67 337.5t181.5 274t274 181.5t337.5 67zM1186 195h-213v206h-449v189l406 639h256v-645h104v-183h-104v-206zM973 584v393l-250 -393h250z" />
    <glyph glyph-name="uni2464" unicode="&#x2464;" horiz-adv-x="1945" 
d="M973 1425q-148 0 -280.5 -55.5t-228 -150.5t-151 -227.5t-55.5 -280.5q0 -197 94.5 -361.5t259 -259t361.5 -94.5t361.5 94.5t259 259t94.5 361.5q0 148 -55.5 280.5t-151 227.5t-228 150.5t-280.5 55.5zM973 1571q178 0 337.5 -67t274 -181.5t181.5 -274t67 -337.5
t-67 -337.5t-181.5 -274.5t-274 -182t-337.5 -67t-337.5 67t-274 182t-181.5 274.5t-67 337.5t67 337.5t181.5 274t274 181.5t337.5 67zM975 176q-166 0 -260 85.5t-94 232.5h225q0 -68 35 -108t86 -40q61 0 95 48t34 134q0 85 -33.5 133t-91.5 48q-44 0 -75 -28.5
t-42 -76.5h-201l45 625h553v-195h-362l-21 -231q58 71 170 71q118 0 199.5 -93t81.5 -249q0 -154 -94.5 -255t-249.5 -101z" />
    <glyph glyph-name="uni2465" unicode="&#x2465;" horiz-adv-x="1945" 
d="M969 176q-174 0 -270.5 137.5t-96.5 391.5q0 264 97.5 403t269.5 139q144 0 234 -80t95 -206h-221q-3 56 -31 85t-73 29q-65 0 -106.5 -78t-41.5 -241q29 59 84.5 88.5t118.5 29.5q118 0 198.5 -91.5t80.5 -250.5q0 -86 -28 -155t-76 -112t-108 -66t-126 -23zM963 348
q57 0 88.5 51.5t31.5 126.5q0 77 -31.5 130t-88.5 53t-89 -54.5t-32 -128.5q0 -72 32.5 -125t88.5 -53zM973 1425q-148 0 -280.5 -55.5t-228 -150.5t-151 -227.5t-55.5 -280.5q0 -197 94.5 -361.5t259 -259t361.5 -94.5t361.5 94.5t259 259t94.5 361.5q0 148 -55.5 280.5
t-151 227.5t-228 150.5t-280.5 55.5zM973 1571q178 0 337.5 -67t274 -181.5t181.5 -274t67 -337.5t-67 -337.5t-181.5 -274.5t-274 -182t-337.5 -67t-337.5 67t-274 182t-181.5 274.5t-67 337.5t67 337.5t181.5 274t274 181.5t337.5 67z" />
    <glyph glyph-name="uni2466" unicode="&#x2466;" horiz-adv-x="1945" 
d="M672 1024v205h608v-195l-297 -839h-229l297 829h-379zM973 1425q-148 0 -280.5 -55.5t-228 -150.5t-151 -227.5t-55.5 -280.5q0 -197 94.5 -361.5t259 -259t361.5 -94.5t361.5 94.5t259 259t94.5 361.5q0 148 -55.5 280.5t-151 227.5t-228 150.5t-280.5 55.5zM973 1571
q178 0 337.5 -67t274 -181.5t181.5 -274t67 -337.5t-67 -337.5t-181.5 -274.5t-274 -182t-337.5 -67t-337.5 67t-274 182t-181.5 274.5t-67 337.5t67 337.5t181.5 274t274 181.5t337.5 67z" />
    <glyph glyph-name="uni2467" unicode="&#x2467;" horiz-adv-x="1945" 
d="M977 176q-167 0 -261.5 87.5t-94.5 215.5q0 90 47 159.5t120 98.5q-61 28 -99 89t-38 137q0 122 88.5 203t237.5 81t237.5 -81t88.5 -203q0 -77 -37.5 -137.5t-100.5 -88.5q74 -29 121 -98.5t47 -159.5q0 -128 -94.5 -215.5t-261.5 -87.5zM977 348q61 0 97 41.5t36 108.5
t-36 109t-97 42t-97 -42t-36 -109t36 -108.5t97 -41.5zM977 805q53 0 87 37.5t34 97.5q0 61 -34 98t-87 37t-86 -37t-33 -98q0 -60 33 -97.5t86 -37.5zM973 1425q-148 0 -280.5 -55.5t-228 -150.5t-151 -227.5t-55.5 -280.5q0 -197 94.5 -361.5t259 -259t361.5 -94.5
t361.5 94.5t259 259t94.5 361.5q0 148 -55.5 280.5t-151 227.5t-228 150.5t-280.5 55.5zM973 1571q178 0 337.5 -67t274 -181.5t181.5 -274t67 -337.5t-67 -337.5t-181.5 -274.5t-274 -182t-337.5 -67t-337.5 67t-274 182t-181.5 274.5t-67 337.5t67 337.5t181.5 274
t274 181.5t337.5 67z" />
    <glyph glyph-name="uni2468" unicode="&#x2468;" horiz-adv-x="1945" 
d="M975 1247q174 0 270 -137t96 -389q0 -265 -97 -405t-269 -140q-144 0 -234.5 81.5t-95.5 207.5h221q3 -57 31 -86t72 -29q67 0 108 77.5t41 242.5q-31 -60 -86 -90.5t-117 -30.5q-118 0 -199 91.5t-81 250.5q0 86 28.5 155t76.5 112t108.5 66t126.5 23zM981 1077
q-59 0 -90 -51.5t-31 -128.5t32 -129.5t89 -52.5t89 54t32 128q0 73 -32.5 126.5t-88.5 53.5zM973 1425q-148 0 -280.5 -55.5t-228 -150.5t-151 -227.5t-55.5 -280.5q0 -197 94.5 -361.5t259 -259t361.5 -94.5t361.5 94.5t259 259t94.5 361.5q0 148 -55.5 280.5t-151 227.5
t-228 150.5t-280.5 55.5zM973 1571q178 0 337.5 -67t274 -181.5t181.5 -274t67 -337.5t-67 -337.5t-181.5 -274.5t-274 -182t-337.5 -67t-337.5 67t-274 182t-181.5 274.5t-67 337.5t67 337.5t181.5 274t274 181.5t337.5 67z" />
    <glyph glyph-name="uni2469" unicode="&#x2469;" horiz-adv-x="1945" 
d="M1161 178q-159 0 -240 127t-81 406q0 280 81 407t240 127q160 0 242 -127t82 -407q0 -279 -82 -406t-242 -127zM1161 369q61 0 86 76t25 266t-25 266t-86 76q-62 0 -86 -75t-24 -267t24 -267t86 -75zM555 195v1032h205v-1032h-205zM973 1425q-148 0 -280.5 -55.5
t-228 -150.5t-151 -227.5t-55.5 -280.5q0 -197 94.5 -361.5t259 -259t361.5 -94.5t361.5 94.5t259 259t94.5 361.5q0 148 -55.5 280.5t-151 227.5t-228 150.5t-280.5 55.5zM973 1571q178 0 337.5 -67t274 -181.5t181.5 -274t67 -337.5t-67 -337.5t-181.5 -274.5t-274 -182
t-337.5 -67t-337.5 67t-274 182t-181.5 274.5t-67 337.5t67 337.5t181.5 274t274 181.5t337.5 67z" />
    <glyph glyph-name="uni25A0" unicode="&#x25a0;" 
d="M1554 1421v-1421h-1421v1421h1421z" />
    <glyph glyph-name="uni25A1" unicode="&#x25a1;" 
d="M1554 1421v-1421h-1421v1421h1421zM295 1262v-1100h1100v1100h-1100z" />
    <glyph glyph-name="uni25B2" unicode="&#x25b2;" 
d="M844 1444l727 -1444h-1452z" />
    <glyph glyph-name="uni25B3" unicode="&#x25b3;" 
d="M844 1444l727 -1444h-1452zM381 162h928l-465 915z" />
    <glyph glyph-name="uni25B6" unicode="&#x25b6;" 
d="M123 1438l1444 -727l-1444 -725v1452z" />
    <glyph glyph-name="uni25B7" unicode="&#x25b7;" 
d="M123 1438l1444 -725l-1444 -727v1452zM283 1176v-928l917 465z" />
    <glyph glyph-name="uni25BC" unicode="&#x25bc;" 
d="M1571 1421l-727 -1444l-725 1444h1452z" />
    <glyph glyph-name="uni25BD" unicode="&#x25bd;" 
d="M1571 1421l-727 -1444l-725 1444h1452zM1309 1262h-928l463 -918z" />
    <glyph glyph-name="uni25C0" unicode="&#x25c0;" 
d="M123 711l1444 727v-1452z" />
    <glyph glyph-name="uni25C1" unicode="&#x25c1;" 
d="M123 713l1444 725v-1452zM1407 248v928l-918 -463z" />
    <glyph glyph-name="lozenge" unicode="&#x25ca;" horiz-adv-x="1290" 
d="M74 711l581 710h291l340 -710l-584 -711h-290zM369 686l213 -457l405 508l-211 453z" />
    <glyph glyph-name="uni25CB" unicode="&#x25cb;" 
d="M272 711q0 -160 75 -291t206 -206t291 -75t291.5 75t206.5 206t75 291q0 120 -44.5 226t-120.5 182t-182 120.5t-226 44.5q-160 0 -291 -75t-206 -206.5t-75 -291.5zM1577 711q0 -152 -57 -288t-154.5 -234t-233.5 -155t-288 -57t-288 57t-233.5 155t-154.5 234t-57 288
t57 288t154.5 233.5t233.5 154.5t288 57t288 -57t233.5 -154.5t154.5 -233.5t57 -288z" />
    <glyph glyph-name="uni25CF" unicode="&#x25cf;" 
d="M111 711q0 152 57 288t154.5 233.5t233.5 154.5t288 57t288 -57t233.5 -154.5t154.5 -233.5t57 -288t-57 -288t-154.5 -234t-233.5 -155t-288 -57t-288 57t-233.5 155t-154.5 234t-57 288z" />
    <glyph glyph-name="uni25D0" unicode="&#x25d0;" 
d="M844 1284v-1145q160 0 291.5 75t206.5 206t75 291q0 120 -44.5 226t-120.5 182t-182 120.5t-226 44.5zM844 -23q-152 0 -288 57t-233.5 155t-154.5 234t-57 288t57 288t154.5 233.5t233.5 154.5t288 57t288 -57t233.5 -154.5t154.5 -233.5t57 -288t-57 -288t-154.5 -234
t-233.5 -155t-288 -57z" />
    <glyph glyph-name="uni25D1" unicode="&#x25d1;" 
d="M844 139v1145q-160 0 -291 -75t-206 -206.5t-75 -291.5t75 -291t206 -206t291 -75zM844 -23q-152 0 -288 57t-233.5 155t-154.5 234t-57 288t57 288t154.5 233.5t233.5 154.5t288 57t288 -57t233.5 -154.5t154.5 -233.5t57 -288t-57 -288t-154.5 -234t-233.5 -155
t-288 -57z" />
    <glyph glyph-name="uni25D2" unicode="&#x25d2;" 
d="M272 711h1145q0 120 -44.5 226t-120.5 182t-182 120.5t-226 44.5q-160 0 -291 -75t-206 -206.5t-75 -291.5zM1577 711q0 -152 -57 -288t-154.5 -234t-233.5 -155t-288 -57t-288 57t-233.5 155t-154.5 234t-57 288t57 288t154.5 233.5t233.5 154.5t288 57t288 -57
t233.5 -154.5t154.5 -233.5t57 -288z" />
    <glyph glyph-name="uni25D3" unicode="&#x25d3;" 
d="M1417 711h-1145q0 -160 75 -291t206 -206t291 -75t291.5 75t206.5 206t75 291zM1577 711q0 -152 -57 -288t-154.5 -234t-233.5 -155t-288 -57t-288 57t-233.5 155t-154.5 234t-57 288t57 288t154.5 233.5t233.5 154.5t288 57t288 -57t233.5 -154.5t154.5 -233.5t57 -288z
" />
    <glyph glyph-name="uni25D4" unicode="&#x25d4;" 
d="M1577 711q0 -152 -57 -288t-154.5 -234t-233.5 -155t-288 -57t-288 57t-233.5 155t-154.5 234t-57 288t57 288t154.5 233.5t233.5 154.5t288 57t288 -57t233.5 -154.5t154.5 -233.5t57 -288zM1417 711h-573v573q-160 0 -291 -75t-206 -206.5t-75 -291.5t75 -291t206 -206
t291 -75t291.5 75t206.5 206t75 291z" />
    <glyph glyph-name="uni25D5" unicode="&#x25d5;" 
d="M844 711v573q-160 0 -291 -75t-206 -206.5t-75 -291.5h572zM844 -23q-152 0 -288 57t-233.5 155t-154.5 234t-57 288t57 288t154.5 233.5t233.5 154.5t288 57t288 -57t233.5 -154.5t154.5 -233.5t57 -288t-57 -288t-154.5 -234t-233.5 -155t-288 -57z" />
    <glyph glyph-name="uni25E7" unicode="&#x25e7;" 
d="M133 1421h1421v-1421h-1421v1421zM1395 162v1100h-551v-1100h551z" />
    <glyph glyph-name="uni25E8" unicode="&#x25e8;" 
d="M133 1421h1421v-1421h-1421v1421zM295 1262v-1100h549v1100h-549z" />
    <glyph glyph-name="uni25E9" unicode="&#x25e9;" 
d="M133 0v1421h1421v-1421h-1421zM1395 162v1100l-1100 -1100h1100z" />
    <glyph glyph-name="uni25EA" unicode="&#x25ea;" 
d="M1554 1421v-1421h-1421v1421h1421zM295 1262v-1100l1100 1100h-1100z" />
    <glyph glyph-name="uni2690" unicode="&#x2690;" 
d="M295 602v-602h-162v1421h1421v-819h-1259zM295 1262v-500h1100v500h-1100z" />
    <glyph glyph-name="uni2691" unicode="&#x2691;" 
d="M295 602v-602h-162v1421h1421v-819h-1259z" />
    <glyph glyph-name="uni278A" unicode="&#x278a;" horiz-adv-x="1945" 
d="M881 195h219v1034h-197l-217 -160v-229l195 143v-788zM973 1571q178 0 337.5 -67t274 -181.5t181.5 -274t67 -337.5t-67 -337.5t-181.5 -274.5t-274 -182t-337.5 -67t-337.5 67t-274 182t-181.5 274.5t-67 337.5t67 337.5t181.5 274t274 181.5t337.5 67z" />
    <glyph glyph-name="uni278B" unicode="&#x278b;" horiz-adv-x="1945" 
d="M647 195h660v194h-385l223 240q35 37 58 64.5t50 69t40.5 88t13.5 95.5q0 136 -91 218.5t-237 82.5q-161 0 -250.5 -94t-89.5 -254h219q-1 83 31 125.5t88 42.5q49 0 79.5 -33.5t30.5 -87.5q0 -86 -88 -182l-352 -379v-190zM973 1571q178 0 337.5 -67t274 -181.5
t181.5 -274t67 -337.5t-67 -337.5t-181.5 -274.5t-274 -182t-337.5 -67t-337.5 67t-274 182t-181.5 274.5t-67 337.5t67 337.5t181.5 274t274 181.5t337.5 67z" />
    <glyph glyph-name="uni278C" unicode="&#x278c;" horiz-adv-x="1945" 
d="M973 176q164 0 258 88t94 217q0 91 -47.5 159.5t-120.5 96.5q61 26 100 86.5t39 139.5q0 121 -86.5 202.5t-234.5 81.5q-155 0 -243.5 -86.5t-88.5 -230.5h213q1 70 33 107.5t84 37.5q50 0 81 -35.5t31 -93.5q0 -67 -41.5 -103t-117.5 -36h-25v-174h33q166 0 166 -133
q0 -70 -35.5 -112t-91.5 -42q-57 0 -92.5 39.5t-38.5 108.5h-226q1 -148 97 -233t260 -85zM973 1571q178 0 337.5 -67t274 -181.5t181.5 -274t67 -337.5t-67 -337.5t-181.5 -274.5t-274 -182t-337.5 -67t-337.5 67t-274 182t-181.5 274.5t-67 337.5t67 337.5t181.5 274
t274 181.5t337.5 67z" />
    <glyph glyph-name="uni278D" unicode="&#x278d;" horiz-adv-x="1945" 
d="M973 195h213v206h104v183h-104v645h-256l-406 -639v-189h449v-206zM973 977v-393h-250zM973 1571q178 0 337.5 -67t274 -181.5t181.5 -274t67 -337.5t-67 -337.5t-181.5 -274.5t-274 -182t-337.5 -67t-337.5 67t-274 182t-181.5 274.5t-67 337.5t67 337.5t181.5 274
t274 181.5t337.5 67z" />
    <glyph glyph-name="uni278E" unicode="&#x278e;" horiz-adv-x="1945" 
d="M975 176q155 0 249.5 101t94.5 255q0 156 -81.5 249t-199.5 93q-112 0 -170 -71l21 231h362v195h-553l-45 -625h201q11 48 42 76.5t75 28.5q58 0 91.5 -48t33.5 -133q0 -86 -34 -134t-95 -48q-51 0 -86 40t-35 108h-225q0 -147 94 -232.5t260 -85.5zM973 1571
q178 0 337.5 -67t274 -181.5t181.5 -274t67 -337.5t-67 -337.5t-181.5 -274.5t-274 -182t-337.5 -67t-337.5 67t-274 182t-181.5 274.5t-67 337.5t67 337.5t181.5 274t274 181.5t337.5 67z" />
    <glyph glyph-name="uni278F" unicode="&#x278f;" horiz-adv-x="1945" 
d="M969 176q66 0 126 23t108 66t76 112t28 155q0 159 -80.5 250.5t-198.5 91.5q-63 0 -118.5 -29.5t-84.5 -88.5q0 163 41.5 241t106.5 78q45 0 73 -29t31 -85h221q-5 126 -95 206t-234 80q-172 0 -269.5 -139t-97.5 -403q0 -254 96.5 -391.5t270.5 -137.5zM963 348
q-56 0 -88.5 53t-32.5 125q0 74 32 128.5t89 54.5t88.5 -53t31.5 -130q0 -75 -31.5 -126.5t-88.5 -51.5zM973 1571q178 0 337.5 -67t274 -181.5t181.5 -274t67 -337.5t-67 -337.5t-181.5 -274.5t-274 -182t-337.5 -67t-337.5 67t-274 182t-181.5 274.5t-67 337.5t67 337.5
t181.5 274t274 181.5t337.5 67z" />
    <glyph glyph-name="uni2790" unicode="&#x2790;" horiz-adv-x="1945" 
d="M672 1229v-205h379l-297 -829h229l297 839v195h-608zM973 1571q178 0 337.5 -67t274 -181.5t181.5 -274t67 -337.5t-67 -337.5t-181.5 -274.5t-274 -182t-337.5 -67t-337.5 67t-274 182t-181.5 274.5t-67 337.5t67 337.5t181.5 274t274 181.5t337.5 67z" />
    <glyph glyph-name="uni2791" unicode="&#x2791;" horiz-adv-x="1945" 
d="M977 176q167 0 261.5 87.5t94.5 215.5q0 90 -47 159.5t-121 98.5q63 28 100.5 88.5t37.5 137.5q0 122 -88.5 203t-237.5 81t-237.5 -81t-88.5 -203q0 -76 38 -137t99 -89q-73 -29 -120 -98.5t-47 -159.5q0 -128 94.5 -215.5t261.5 -87.5zM977 348q-61 0 -97 41.5
t-36 108.5t36 109t97 42t97 -42t36 -109t-36 -108.5t-97 -41.5zM977 805q-53 0 -86 37.5t-33 97.5q0 61 33 98t86 37t87 -37t34 -98q0 -60 -34 -97.5t-87 -37.5zM973 1571q178 0 337.5 -67t274 -181.5t181.5 -274t67 -337.5t-67 -337.5t-181.5 -274.5t-274 -182t-337.5 -67
t-337.5 67t-274 182t-181.5 274.5t-67 337.5t67 337.5t181.5 274t274 181.5t337.5 67z" />
    <glyph glyph-name="uni2792" unicode="&#x2792;" horiz-adv-x="1945" 
d="M975 1247q-66 0 -126.5 -23t-108.5 -66t-76.5 -112t-28.5 -155q0 -159 81 -250.5t199 -91.5q62 0 117 30.5t86 90.5q0 -165 -41 -242.5t-108 -77.5q-44 0 -72 29t-31 86h-221q5 -126 95.5 -207.5t234.5 -81.5q172 0 269 140t97 405q0 252 -96 389t-270 137zM981 1077
q56 0 88.5 -53.5t32.5 -126.5q0 -74 -32 -128t-89 -54t-89 52.5t-32 129.5t31 128.5t90 51.5zM973 1571q178 0 337.5 -67t274 -181.5t181.5 -274t67 -337.5t-67 -337.5t-181.5 -274.5t-274 -182t-337.5 -67t-337.5 67t-274 182t-181.5 274.5t-67 337.5t67 337.5t181.5 274
t274 181.5t337.5 67z" />
    <glyph glyph-name="uni2793" unicode="&#x2793;" horiz-adv-x="1945" 
d="M1161 178q160 0 242 127t82 406q0 280 -82 407t-242 127q-159 0 -240 -127t-81 -407q0 -279 81 -406t240 -127zM1161 369q-62 0 -86 75t-24 267t24 267t86 75q61 0 86 -76t25 -266t-25 -266t-86 -76zM555 1227v-1032h205v1032h-205zM973 1571q178 0 337.5 -67t274 -181.5
t181.5 -274t67 -337.5t-67 -337.5t-181.5 -274.5t-274 -182t-337.5 -67t-337.5 67t-274 182t-181.5 274.5t-67 337.5t67 337.5t181.5 274t274 181.5t337.5 67z" />
    <glyph glyph-name="uni29B6" unicode="&#x29b6;" 
d="M1577 711q0 -152 -57 -288t-154.5 -234t-233.5 -155t-288 -57t-288 57t-233.5 155t-154.5 234t-57 288t57 288t154.5 233.5t233.5 154.5t288 57t288 -57t233.5 -154.5t154.5 -233.5t57 -288zM1417 711q0 145 -63.5 268t-175.5 201.5t-252 97.5v-1135q213 28 352 187
t139 381zM272 711q0 -222 138.5 -381t353.5 -187v1135q-215 -28 -353.5 -186.5t-138.5 -380.5z" />
    <glyph glyph-name="uni2B12" unicode="&#x2b12;" 
d="M1554 1421v-1421h-1421v1421h1421zM295 162h1100v549h-1100v-549z" />
    <glyph glyph-name="uni2B13" unicode="&#x2b13;" 
d="M1554 1421v-1421h-1421v1421h1421zM1395 1262h-1100v-551h1100v551z" />
    <glyph glyph-name="uni2B14" unicode="&#x2b14;" 
d="M1554 1421v-1421h-1421v1421h1421zM295 1262v-1100h1100z" />
    <glyph glyph-name="uni2B15" unicode="&#x2b15;" 
d="M133 0v1421h1421v-1421h-1421zM1395 162v1100h-1100z" />
    <glyph glyph-name="uni2B16" unicode="&#x2b16;" 
d="M844 -29l-740 740l740 739l739 -739zM1356 711l-512 514v-1026z" />
    <glyph glyph-name="uni2B17" unicode="&#x2b17;" 
d="M1583 711l-739 -740l-740 740l740 739zM844 1225l-512 -514l512 -512v1026z" />
    <glyph glyph-name="uni2B18" unicode="&#x2b18;" 
d="M1583 711l-739 -740l-740 740l740 739zM844 1223l-512 -512h1026z" />
    <glyph glyph-name="uni2B19" unicode="&#x2b19;" 
d="M844 1450l739 -739l-739 -740l-740 740zM332 711l512 -512l514 512h-1026z" />
    <glyph glyph-name="uni2B2C" unicode="&#x2b2c;" 
d="M844 258q-203 0 -371.5 60t-265 164.5t-96.5 230.5q0 95 57 179.5t154.5 144.5t233.5 95t288 35t288 -35t233.5 -95t154.5 -144.5t57 -179.5q0 -126 -96.5 -230.5t-265 -164.5t-371.5 -60z" />
    <glyph glyph-name="uni2B2D" unicode="&#x2b2d;" 
d="M274 713q0 -82 73.5 -152t205.5 -111.5t291 -41.5t290.5 41.5t205 111.5t73.5 152q0 126 -164 216.5t-405 90.5t-405.5 -90.5t-164.5 -216.5zM1577 713q0 -126 -96.5 -230.5t-265 -164.5t-371.5 -60t-371.5 60t-265 164.5t-96.5 230.5q0 95 57 179.5t154.5 144.5
t233.5 95t288 35t288 -35t233.5 -95t154.5 -144.5t57 -179.5z" />
    <glyph glyph-name="uni2B2E" unicode="&#x2b2e;" 
d="M1298 713q0 -152 -35 -288t-95 -233.5t-144.5 -154.5t-179.5 -57q-126 0 -230.5 96.5t-164.5 265t-60 371.5t60 371.5t164.5 265t230.5 96.5q95 0 179.5 -57t144.5 -154.5t95 -233.5t35 -288z" />
    <glyph glyph-name="uni2B2F" unicode="&#x2b2f;" 
d="M844 143q125 0 212 163.5t87 406.5t-87 406t-212 163t-211 -163t-86 -406t86 -406.5t211 -163.5zM844 1446q95 0 179.5 -57t144.5 -154.5t95 -233.5t35 -288t-35 -288t-95 -233.5t-144.5 -154.5t-179.5 -57q-126 0 -230.5 96.5t-164.5 265t-60 371.5t60 371.5t164.5 265
t230.5 96.5z" />
    <glyph glyph-name="commaaccent" unicode="&#xf6c3;" horiz-adv-x="462" 
d="M262 -94l-37 -203q-20 -115 -94 -168t-215 -53l21 108q67 0 102 24t45 79l2 12h-121l37 201h260z" />
    <glyph glyph-name="Jacute" horiz-adv-x="1122" 
d="M1083 1815h263l-248 -297h-191zM63 590h263q-25 -132 -25 -184q0 -89 44.5 -140t129.5 -51q99 0 162 72t92 227l160 907h264l-160 -907q-48 -270 -177.5 -404.5t-348.5 -134.5q-213 0 -321.5 116.5t-108.5 305.5q0 79 26 193z" />
    <glyph glyph-name="i.trk" horiz-adv-x="493" 
d="M504 1174h-285l41 229h285zM283 0h-254l178 1016h254z" />
    <glyph glyph-name="jacute" horiz-adv-x="493" 
d="M-100 -375q-78 0 -127 10l37 213q27 -4 71 -4q58 0 96.5 41t51.5 121l178 1010h254l-191 -1075q-30 -165 -123 -240.5t-247 -75.5zM418 1421h262l-248 -297h-190z" />
    <glyph glyph-name="ringacute" horiz-adv-x="559" 
d="M422 1087q-100 0 -170 67.5t-70 164.5q0 84 74 180l186 242h242l-225 -193q89 -12 147 -77t58 -152q0 -96 -71 -164t-171 -68zM317 1319q0 -46 30.5 -77.5t74.5 -31.5q46 0 77 31.5t31 77.5q0 49 -31 82t-77 33q-44 0 -74.5 -33t-30.5 -82z" />
    <glyph glyph-name="commatop" horiz-adv-x="462" 
d="M201 1130l37 203q22 116 95.5 169.5t213.5 53.5l-21 -110q-66 0 -100.5 -24t-46.5 -79l-2 -12h121l-37 -201h-260z" />
    <glyph glyph-name="caron.slovak" horiz-adv-x="425" 
d="M324 1421h241l-213 -374h-168z" />
    <glyph glyph-name="parenleft.subs" horiz-adv-x="458" 
d="M197 37q0 -179 67 -326h-162q-82 154 -82 326q0 324 224 569h180q-227 -265 -227 -569z" />
    <glyph glyph-name="parenright.subs" horiz-adv-x="458" 
d="M143 281q0 178 -67 325h160q83 -147 83 -325q0 -321 -225 -570h-178q227 265 227 570z" />
    <glyph glyph-name="zero.dnom" horiz-adv-x="679" 
d="M276 133q43 0 79 56t55.5 141.5t19.5 177.5q0 125 -72 125q-43 0 -79.5 -56t-56 -141t-19.5 -176q0 -127 73 -127zM276 -12q-119 0 -185 76.5t-66 205.5q0 68 11 136.5t36.5 136.5t63 120t94.5 84.5t126 32.5q120 0 187 -77.5t67 -204.5q0 -68 -11 -136.5t-37 -136.5
t-63.5 -120t-95 -84.5t-127.5 -32.5z" />
    <glyph glyph-name="one.dnom" horiz-adv-x="530" 
d="M328 0h-181l99 563l-174 -117l34 193l195 127h162z" />
    <glyph glyph-name="two.dnom" horiz-adv-x="636" 
d="M489 0h-503l26 154l310 274q47 44 69.5 76t22.5 65q0 30 -19 47t-49 17q-39 0 -66 -29.5t-34 -85.5h-176q17 127 94.5 194.5t193.5 67.5q102 0 165 -55t63 -154q0 -120 -137 -239l-207 -176h274z" />
    <glyph glyph-name="three.dnom" horiz-adv-x="659" 
d="M272 -12q-131 0 -197.5 65.5t-66.5 171.5h180q-1 -49 21.5 -74.5t62.5 -25.5t67.5 29.5t27.5 74.5q0 47 -26.5 68.5t-66.5 21.5h-36l24 142h39q46 0 80.5 28.5t34.5 73.5q0 37 -20.5 58.5t-53.5 21.5q-37 0 -64.5 -26t-33.5 -72h-168q15 108 89 171.5t175 63.5
q108 0 175 -55t67 -150q0 -61 -38.5 -110.5t-103.5 -67.5q48 -18 77.5 -62.5t29.5 -103.5q0 -103 -75.5 -173t-199.5 -70z" />
    <glyph glyph-name="four.dnom" horiz-adv-x="675" 
d="M453 0h-172l26 147h-321l26 154l371 467h205l-82 -475h72l-27 -146h-72zM332 293l47 260l-209 -260h162z" />
    <glyph glyph-name="five.dnom" horiz-adv-x="651" 
d="M262 -12q-131 0 -193.5 64t-60.5 173h178q0 -100 76 -100q45 0 76 44.5t31 111.5q0 43 -21 66.5t-51 23.5q-29 0 -53.5 -20t-38.5 -54h-160l115 471h426l-29 -154h-270l-43 -149q45 39 118 39q75 0 131 -55.5t56 -165.5q0 -135 -81 -215t-206 -80z" />
    <glyph glyph-name="six.dnom" horiz-adv-x="661" 
d="M285 -12q-256 0 -256 284q0 131 41 246.5t120 188.5t179 73q235 0 235 -217h-176q0 38 -16 59t-45 21q-41 0 -79 -49.5t-59 -144.5q52 55 144 55q77 0 133.5 -53.5t56.5 -161.5q0 -129 -82 -216t-196 -85zM274 123q49 0 80 50.5t31 113.5q0 37 -18.5 62.5t-53.5 25.5
q-47 0 -78.5 -50.5t-31.5 -111.5q0 -38 18 -64t53 -26z" />
    <glyph glyph-name="seven.dnom" horiz-adv-x="565" 
d="M217 0h-186l317 602h-287l29 166h475l-28 -160z" />
    <glyph glyph-name="eight.dnom" horiz-adv-x="681" 
d="M276 -12q-119 0 -188.5 61t-69.5 154q0 69 41.5 127.5t112.5 81.5q-35 21 -54.5 60.5t-19.5 82.5q0 92 72 158.5t188 66.5q104 0 171 -56t67 -149q0 -59 -35.5 -107.5t-95.5 -70.5q100 -48 100 -168q0 -98 -78 -169.5t-211 -71.5zM279 123q43 0 73.5 38t30.5 89
q0 36 -22 59t-58 23q-45 0 -75.5 -37t-30.5 -88q0 -36 23 -60t59 -24zM336 455q40 0 67 33t27 77q0 34 -21 56t-53 22q-39 0 -65.5 -34.5t-26.5 -78.5q0 -34 20 -54.5t52 -20.5z" />
    <glyph glyph-name="nine.dnom" horiz-adv-x="661" 
d="M248 -14q-235 0 -238 217h176q0 -38 16.5 -59t47.5 -21q40 0 77 49t58 145q-49 -57 -141 -57q-78 0 -134.5 54t-56.5 163q0 129 82.5 216t196.5 85q121 0 187.5 -69.5t66.5 -214.5q0 -132 -40.5 -247t-119 -188t-178.5 -73zM301 391q47 0 80 51t33 111q0 38 -18.5 64
t-53.5 26q-49 0 -80 -51t-31 -113q0 -36 18.5 -62t51.5 -26z" />
    <glyph glyph-name="parenleft.dnum" horiz-adv-x="462" 
d="M236 262q0 -178 67 -325h-162q-82 154 -82 325q0 324 224 569h180q-227 -265 -227 -569z" />
    <glyph glyph-name="parenright.dnum" horiz-adv-x="462" 
d="M182 506q0 178 -67 325h159q84 -149 84 -325q0 -320 -225 -569h-178q227 265 227 569z" />
    <glyph glyph-name="backslash.case" horiz-adv-x="872" 
d="M528 -131l-329 1675h215l327 -1675h-213z" />
    <glyph glyph-name="bar.case" horiz-adv-x="577" 
d="M68 -131l294 1675h213l-294 -1675h-213z" />
    <glyph glyph-name="braceleft.case" horiz-adv-x="757" 
d="M569 -131h-135q-122 0 -186 61.5t-64 163.5q0 35 31 195t31 196q0 60 -37.5 90.5t-112.5 36.5l35 189q98 8 145 54t70 169l37 215q29 159 106.5 232t217.5 73h159l-35 -188h-73q-78 0 -114 -38.5t-56 -152.5l-31 -180q-23 -129 -75.5 -193t-155.5 -87q139 -47 139 -189
q0 -37 -27.5 -188t-27.5 -181q0 -50 28.5 -70t91.5 -20h72z" />
    <glyph glyph-name="braceright.case" horiz-adv-x="757" 
d="M692 612q-99 -8 -146.5 -54.5t-68.5 -168.5l-39 -215q-28 -159 -104.5 -232t-216.5 -73h-160l35 188h74q77 0 113 38.5t57 152.5l30 180q23 128 76 193t154 88q-138 46 -138 188q0 37 28 188t28 181q0 50 -29 70t-92 20h-74l35 188h135q122 0 186 -61.5t64 -163.5
q0 -35 -30.5 -195t-30.5 -196q0 -60 37 -90.5t112 -36.5z" />
    <glyph glyph-name="bracketleft.case" horiz-adv-x="673" 
d="M741 1354h-217l-227 -1295h217l-35 -190h-436l295 1675h438z" />
    <glyph glyph-name="bracketright.case" horiz-adv-x="673" 
d="M258 1544h436l-295 -1675h-436l33 190h217l227 1297h-217z" />
    <glyph glyph-name="emdash.case" horiz-adv-x="1847" 
d="M88 612l31 166h1700l-29 -166h-1702z" />
    <glyph glyph-name="endash.case" horiz-adv-x="927" 
d="M88 612l31 166h780l-29 -166h-782z" />
    <glyph glyph-name="guillemotleft.case" horiz-adv-x="1019" 
d="M621 1081l-279 -424l125 -395h-193l-157 410l297 409h207zM1012 1081l-279 -424l125 -395h-192l-158 410l299 409h205z" />
    <glyph glyph-name="guillemotright.case" horiz-adv-x="1019" 
d="M655 262h-204l276 424l-123 395h191l159 -409zM262 262h-205l279 424l-125 395h192l158 -409z" />
    <glyph glyph-name="guilsinglleft.case" horiz-adv-x="628" 
d="M621 1081l-279 -424l125 -395h-193l-157 410l297 409h207z" />
    <glyph glyph-name="guilsinglright.case" horiz-adv-x="626" 
d="M262 262h-205l279 424l-125 395h192l158 -409z" />
    <glyph glyph-name="hyphen.case" horiz-adv-x="727" 
d="M121 588l39 221h506l-41 -221h-504z" />
    <glyph glyph-name="parenleft.case" horiz-adv-x="651" 
d="M360 496q0 -335 132 -627h-209q-148 286 -148 627q0 591 416 1048h235q-426 -497 -426 -1048z" />
    <glyph glyph-name="parenright.case" horiz-adv-x="651" 
d="M348 918q0 341 -129 626h209q147 -284 147 -626q0 -593 -415 -1049h-236q424 495 424 1049z" />
    <glyph glyph-name="slash.case" horiz-adv-x="872" 
d="M1001 1544l-827 -1675h-235l827 1675h235z" />
    <glyph glyph-name="questiondown.case" horiz-adv-x="909" 
d="M426 850l8 39h205l-2 -45q-5 -61 -29.5 -112t-58.5 -85t-74 -63.5t-79 -56t-71 -53.5t-51.5 -63.5t-19.5 -80.5q0 -63 39 -100t110 -37q89 0 140 59.5t65 167.5h252q-25 -212 -148 -327.5t-317 -115.5q-183 0 -292 92t-109 240q0 77 30 141.5t75 106t99.5 81.5t102 69
t83 66.5t42.5 76.5zM774 1421l-51 -288h-285l51 288h285z" />
    <glyph glyph-name="exclamdown.case" horiz-adv-x="544" 
d="M233 889h183l-70 -623l-47 -266h-262l47 266zM559 1421l-51 -288h-285l51 288h285z" />
    <glyph glyph-name="zero.tf" horiz-adv-x="1228" 
d="M375 481l502 676q-49 88 -148 88q-76 0 -143 -67.5t-111 -174t-71 -233t-31 -250.5q0 -27 2 -39zM555 -25q-192 0 -303 132t-111 368q0 88 10 179.5t32.5 187.5t55.5 183t81.5 164.5t108 134t139 89.5t169.5 33q193 0 304.5 -132t111.5 -368q0 -103 -14.5 -210.5
t-43.5 -218t-78.5 -207t-113.5 -172t-153.5 -119.5t-194.5 -44zM563 176q76 0 142.5 66.5t111 172t71.5 229.5t32 245q0 9 -1 26.5t-1 26.5l-502 -678q48 -88 147 -88z" />
    <glyph glyph-name="one.tf" horiz-adv-x="1228" 
d="M104 0l41 233h332l158 887l-332 -209l53 295l342 215h248l-209 -1188h244l-41 -233h-836z" />
    <glyph glyph-name="two.tf" horiz-adv-x="1228" 
d="M946 0h-842l41 229l555 539q90 88 135.5 158t45.5 149q0 72 -39 112t-107 40q-89 0 -146.5 -64t-70.5 -186h-254q21 220 152.5 344.5t326.5 124.5q179 0 285.5 -97t106.5 -262q0 -231 -256 -469l-402 -387h510z" />
    <glyph glyph-name="three.tf" horiz-adv-x="1228" 
d="M567 -25q-145 0 -246 57.5t-146 154.5t-40 223h254q-5 -107 43.5 -167.5t142.5 -60.5q93 0 154.5 69.5t61.5 178.5q0 92 -50.5 142.5t-140.5 50.5h-61l39 211h61q102 0 170 66t68 169q0 80 -42 124t-110 44q-80 0 -136 -58.5t-69 -166.5h-254q22 197 149.5 315.5
t317.5 118.5q179 0 284 -98t105 -265q0 -114 -63 -211t-170 -139q68 -32 117 -113.5t49 -187.5q0 -194 -135.5 -325.5t-352.5 -131.5z" />
    <glyph glyph-name="four.tf" horiz-adv-x="1228" 
d="M879 0h-252l51 297h-598l41 223l704 901h303l-159 -909h141l-39 -215h-141zM715 512l104 588l-459 -588h355z" />
    <glyph glyph-name="five.tf" horiz-adv-x="1228" 
d="M569 -25q-214 0 -329.5 119t-104.5 316h254q-6 -110 40.5 -169t133.5 -59q70 0 126.5 52t86 132t29.5 169q0 93 -41.5 147.5t-110.5 54.5q-63 0 -116 -45t-86 -117h-240l213 846h713l-41 -227h-490l-94 -348q90 90 225 90q142 0 236 -102.5t94 -292.5q0 -147 -62 -276
t-177.5 -209.5t-258.5 -80.5z" />
    <glyph glyph-name="six.tf" horiz-adv-x="1228" 
d="M580 -25q-196 0 -305 128.5t-109 383.5q0 134 22.5 267.5t70.5 258.5t116 221t166 154t213 58q184 0 293 -104t106 -283h-254q2 80 -37 130t-104 50q-95 0 -177.5 -113.5t-131.5 -339.5q104 150 288 150q67 0 125.5 -23.5t105.5 -69.5t74 -122t27 -172q0 -149 -60 -278
t-173.5 -210.5t-255.5 -85.5zM573 182q70 0 125.5 57t83 137t27.5 161q0 87 -39.5 143.5t-114.5 56.5q-69 0 -124.5 -56t-83 -136t-27.5 -162q0 -87 39.5 -144t113.5 -57z" />
    <glyph glyph-name="seven.tf" horiz-adv-x="1228" 
d="M305 1178l43 243h840l-41 -231l-635 -1190h-272l630 1178h-565z" />
    <glyph glyph-name="eight.tf" horiz-adv-x="1228" 
d="M557 -25q-202 0 -319 108.5t-117 276.5q0 129 76.5 240.5t210.5 157.5q-62 44 -94.5 116t-32.5 152q0 176 125.5 298t326.5 122q173 0 282 -97.5t109 -267.5q0 -112 -60.5 -207t-170.5 -141q75 -39 119.5 -121t44.5 -188q0 -90 -34.5 -171t-97.5 -143t-158.5 -98.5
t-209.5 -36.5zM563 180q95 0 163.5 78t68.5 193q0 82 -47 134t-132 52q-97 0 -165 -76.5t-68 -191.5q0 -85 46.5 -137t133.5 -52zM680 827q85 0 142 72.5t57 167.5q0 78 -42 125t-112 47q-86 -1 -142.5 -73.5t-56.5 -168.5q0 -78 41 -124t113 -46z" />
    <glyph glyph-name="nine.tf" horiz-adv-x="1228" 
d="M715 1446q197 0 306 -128.5t109 -383.5q0 -134 -22.5 -267.5t-70.5 -258.5t-116 -221t-166.5 -154t-213.5 -58q-184 0 -292.5 104t-107.5 283h254q0 -81 38.5 -130.5t105.5 -49.5q95 0 177.5 113.5t129.5 339.5q-104 -150 -289 -150q-66 0 -124.5 23.5t-105.5 69.5
t-74.5 122t-27.5 172q0 150 60.5 279t174 210t255.5 85zM723 1239q-71 0 -127 -57t-83.5 -136.5t-27.5 -160.5q0 -87 40 -144t114 -57q69 0 125 56t84.5 136.5t28.5 161.5q0 87 -40 144t-114 57z" />
    <glyph glyph-name="cent.tf" horiz-adv-x="1228" 
d="M639 0h-174l35 195q-126 36 -203.5 140t-77.5 253q0 94 19.5 183t58.5 167t94 139t130 101.5t163 52.5l35 190h172l-35 -194q134 -32 214.5 -136t70.5 -247h-260q8 62 -8 109.5t-52 70.5l-112 -635q92 48 125 184h260q-32 -169 -145.5 -272.5t-276.5 -118.5zM477 588
q0 -128 60 -182l110 612q-82 -53 -126 -178.5t-44 -251.5z" />
    <glyph glyph-name="dollar.tf" horiz-adv-x="1228" 
d="M582 -217h-172l39 221q-92 23 -158 72.5t-100.5 115t-50 131.5t-15.5 138h254q0 -178 106 -244l76 424l-35 16q-134 63 -199 148.5t-65 212.5q0 176 117.5 294t320.5 122l37 204h172l-41 -225q101 -30 171.5 -101t100 -152.5t29.5 -168.5h-251q0 136 -87 205l-69 -389
l45 -21q146 -66 211 -150t65 -230q0 -81 -30.5 -155t-88 -133t-147.5 -95t-201 -37zM844 381q0 61 -30 103.5t-95 78.5l-68 -379q97 7 145 61.5t48 135.5zM502 1047q0 -101 102 -164l62 350q-81 -10 -122.5 -61.5t-41.5 -124.5z" />
    <glyph glyph-name="yen.tf" horiz-adv-x="1228" 
d="M209 510l31 184h204l-211 727h263l166 -633l391 633h280l-469 -727h205l-33 -184h-282l-23 -121h285l-33 -184h-285l-34 -205h-263l37 205h-282l30 184h283l23 121h-283z" />
    <glyph glyph-name="sterling.tf" horiz-adv-x="1228" 
d="M188 528l29 185h127q-3 17 -11 65t-11.5 72.5t-7 62t-3.5 68.5q0 204 113.5 333.5t314.5 129.5q207 0 312.5 -123.5t105.5 -343.5h-254q0 128 -40 190t-124 62q-85 0 -131.5 -65.5t-46.5 -182.5q0 -32 3 -70t6.5 -63.5t10 -70.5t9.5 -64h278l-30 -185h-236v-6
q0 -176 -141 -289h559l-41 -233h-889l41 233q101 32 163.5 110.5t67.5 176.5v8h-174z" />
    <glyph glyph-name="Euro.tf" horiz-adv-x="1228" 
d="M51 473l29 166h108q3 35 21 141h-107l29 166h123q76 224 215.5 362t323.5 138q212 0 315.5 -122t103.5 -349h-256q0 252 -165 252q-86 0 -155.5 -77t-115.5 -204h285l-29 -166h-305q-18 -82 -25 -141h308l-29 -166h-285q8 -278 187 -278q85 0 147 62t92 189h256
q-47 -230 -179.5 -350.5t-326.5 -120.5q-201 0 -313 130t-121 368h-131z" />
    <glyph glyph-name="a.ord" horiz-adv-x="694" 
d="M657 655h-165l16 103q-39 -59 -94.5 -88t-114.5 -29q-86 0 -137 46.5t-51 127.5q0 95 65.5 153.5t173.5 80.5l205 36l4 31q2 12 2 35q0 38 -21.5 58t-60.5 20q-97 0 -117 -105h-178q9 107 88.5 166.5t206.5 59.5q121 0 188.5 -48.5t67.5 -150.5q0 -56 -8 -102zM365 768
q56 0 102.5 43.5t60.5 126.5l7 37l-136 -29q-45 -8 -76.5 -37t-31.5 -73q0 -31 19.5 -49.5t54.5 -18.5z" />
    <glyph glyph-name="b.ord" horiz-adv-x="743" 
d="M444 776q43 0 77 30t53.5 76.5t29.5 96t10 96.5q0 67 -24.5 104.5t-71.5 37.5q-43 0 -77 -30t-53.5 -76.5t-29.5 -96t-10 -96.5q0 -67 24.5 -104.5t71.5 -37.5zM471 641q-58 0 -99.5 29.5t-64.5 79.5l-16 -95h-174l168 953h182l-61 -351q60 93 172 93q97 0 161 -77
t64 -198q0 -64 -13 -125.5t-41 -117.5t-66.5 -98.5t-93 -67.5t-118.5 -25z" />
    <glyph glyph-name="c.ord" horiz-adv-x="702" 
d="M408 641q-117 0 -195 77t-78 197q0 117 42.5 215t128.5 159t200 61q121 0 194 -74.5t66 -192.5h-184q6 62 -17.5 98t-70.5 36q-43 0 -77 -30t-53.5 -76.5t-29.5 -96t-10 -96.5q0 -67 24.5 -104.5t71.5 -37.5q44 0 79 34.5t52 98.5h184q-23 -125 -111.5 -196.5
t-215.5 -71.5z" />
    <glyph glyph-name="d.ord" horiz-adv-x="743" 
d="M420 776q43 0 77.5 30t54 76.5t30 96t10.5 96.5q0 67 -25.5 104.5t-72.5 37.5q-43 0 -77 -30t-53.5 -76.5t-29.5 -96t-10 -96.5q0 -66 25.5 -104t70.5 -38zM362 641q-93 0 -159 72.5t-66 201.5q0 79 21.5 155.5t61.5 139.5t104.5 101.5t142.5 38.5q54 0 96.5 -26
t61.5 -69l61 353h184l-168 -953h-174l17 90q-71 -104 -183 -104z" />
    <glyph glyph-name="e.ord" horiz-adv-x="712" 
d="M592 1104q0 57 -26 89t-70 32q-49 0 -89 -41.5t-63 -110.5h246q2 8 2 31zM412 641q-120 0 -196.5 77.5t-76.5 205.5q0 115 43.5 211t129.5 155.5t198 59.5q119 0 189.5 -68.5t70.5 -189.5q0 -54 -18 -142h-433q-2 -14 -2 -41q0 -62 28 -98.5t75 -36.5q42 0 75 27.5
t50 77.5h188q-31 -117 -116 -177.5t-205 -60.5z" />
    <glyph glyph-name="f.ord" horiz-adv-x="471" 
d="M569 1192h-139l-94 -537h-184l94 537h-78l25 145h79l9 52q23 120 84 176.5t165 56.5q74 0 115 -10l-27 -144q-30 5 -55 5q-44 0 -68.5 -23.5t-33.5 -77.5l-6 -35h141z" />
    <glyph glyph-name="g.ord" horiz-adv-x="743" 
d="M430 811q54 0 94 48t56 107t16 115q0 62 -25 100t-73 38q-40 0 -72.5 -28t-51 -71t-28.5 -88t-10 -84q0 -62 24 -99.5t70 -37.5zM379 395q-148 0 -217.5 64.5t-67.5 167.5h193q-3 -52 22.5 -80.5t73.5 -28.5q58 0 93 37t52 127l13 86q-79 -92 -174 -92q-97 0 -160.5 76
t-63.5 192q0 102 35 192.5t109 152t172 61.5q59 0 107 -30t69 -77l16 94h172l-110 -626q-58 -316 -334 -316z" />
    <glyph glyph-name="h.ord" horiz-adv-x="714" 
d="M676 655h-182l71 406q6 30 6 57q0 86 -73 86q-51 0 -86.5 -44.5t-44.5 -110.5l-70 -394h-182l168 953h182l-64 -363q65 105 183 105q84 0 129 -48.5t45 -134.5q0 -43 -10 -110z" />
    <glyph glyph-name="i.ord" horiz-adv-x="337" 
d="M444 1440h-204l28 157h203zM295 655h-180l118 682h183z" />
    <glyph glyph-name="j.ord" horiz-adv-x="337" 
d="M446 1440h-204l28 157h203zM35 403q-56 0 -88 7l26 147q16 -4 47 -4q37 0 62.5 29t34.5 84l119 671h182l-129 -721q-20 -112 -83.5 -162.5t-170.5 -50.5z" />
    <glyph glyph-name="k.ord" horiz-adv-x="698" 
d="M299 655h-184l168 953h182l-90 -506l254 235h217l-271 -252l150 -430h-190l-109 299l-90 -84z" />
    <glyph glyph-name="l.ord" horiz-adv-x="337" 
d="M297 655h-182l168 953h180z" />
    <glyph glyph-name="m.ord" horiz-adv-x="1069" 
d="M1030 655h-182l72 412q6 27 6 55q0 82 -68 82q-44 0 -79.5 -41.5t-45.5 -107.5l-69 -400h-183l72 408q1 7 2.5 19.5t2.5 22.5t1 17q0 82 -67 82q-45 0 -80 -43.5t-47 -111.5l-68 -394h-182l118 682h175l-19 -98q72 111 186 111q59 0 102 -28.5t54 -84.5q81 113 203 113
q81 0 129.5 -44.5t48.5 -140.5q0 -50 -12 -112z" />
    <glyph glyph-name="n.ord" horiz-adv-x="714" 
d="M676 655h-182l69 406q8 40 8 57q0 86 -73 86q-52 0 -87 -44t-46 -111l-68 -394h-182l118 682h175l-19 -98q33 51 83 81t110 30q85 0 130.5 -48.5t45.5 -134.5q0 -51 -13 -110z" />
    <glyph glyph-name="o.ord" horiz-adv-x="718" 
d="M408 641q-117 0 -194 77t-77 197q0 87 25 165.5t71 138.5t117 95.5t158 35.5q117 0 192.5 -76t75.5 -199q0 -117 -41.5 -214t-126.5 -158.5t-200 -61.5zM420 776q43 0 77.5 30t54 76.5t30 96t10.5 96.5q0 67 -25.5 104.5t-72.5 37.5q-43 0 -77 -30t-53.5 -76.5t-29.5 -96
t-10 -96.5q0 -66 25.5 -104t70.5 -38z" />
    <glyph glyph-name="p.ord" horiz-adv-x="743" 
d="M444 776q56 0 96.5 52t57 117.5t16.5 129.5q0 67 -24.5 104.5t-71.5 37.5q-43 0 -77.5 -30t-54 -76.5t-30 -96t-10.5 -96.5q0 -67 25.5 -104.5t72.5 -37.5zM469 641q-50 0 -93.5 27t-62.5 69l-55 -321h-184l162 921h174l-17 -90q74 103 185 103q92 0 157.5 -72.5
t65.5 -202.5q0 -80 -21 -155.5t-61 -138.5t-105 -101.5t-145 -38.5z" />
    <glyph glyph-name="q.ord" horiz-adv-x="743" 
d="M420 776q43 0 77.5 30t54 76.5t30 96t10.5 96.5q0 67 -25.5 104.5t-72.5 37.5q-43 0 -77 -30t-53.5 -76.5t-29.5 -96t-10 -96.5q0 -66 25.5 -104t70.5 -38zM362 641q-98 0 -161.5 78t-63.5 199q0 109 36 205.5t113 161.5t181 65q57 0 100.5 -29t65.5 -78l14 94h174
l-162 -921h-182l58 319q-28 -43 -74 -68.5t-99 -25.5z" />
    <glyph glyph-name="r.ord" horiz-adv-x="489" 
d="M301 655h-184l121 682h174l-27 -147q37 85 90 122.5t127 37.5h19l-35 -189q-18 2 -56 2q-67 0 -113 -47.5t-61 -134.5z" />
    <glyph glyph-name="s.ord" horiz-adv-x="665" 
d="M397 641q-134 0 -208.5 61.5t-71.5 174.5h184q-3 -117 100 -117q45 0 76 23.5t31 60.5q0 25 -17.5 43.5t-48.5 27.5l-94 29q-74 20 -116 69t-42 115q0 103 80 162.5t193 59.5q128 0 200.5 -57.5t71.5 -162.5h-176q0 52 -26.5 76.5t-71.5 24.5q-37 0 -64.5 -19.5
t-27.5 -54.5q0 -56 67 -74l94 -30q156 -47 156 -183q0 -99 -79 -164t-210 -65z" />
    <glyph glyph-name="t.ord" horiz-adv-x="487" 
d="M362 647q-83 0 -131.5 41.5t-48.5 116.5q0 44 15 117l45 268h-80l24 147h82l31 170h182l-30 -170h145l-29 -147h-141l-49 -272q-8 -32 -8 -54q0 -61 67 -61q35 0 62 8l-27 -149q-59 -15 -109 -15z" />
    <glyph glyph-name="u.ord" horiz-adv-x="706" 
d="M666 655h-174l16 99q-32 -51 -81.5 -82t-107.5 -31q-83 0 -127.5 49t-44.5 135q0 50 13 113l69 399h183l-70 -405q-8 -36 -8 -60q0 -84 69 -84q49 0 83.5 44.5t45.5 111.5l70 393h182z" />
    <glyph glyph-name="v.ord" horiz-adv-x="669" 
d="M483 655h-221l-88 682h184l43 -499l222 499h188z" />
    <glyph glyph-name="w.ord" horiz-adv-x="995" 
d="M840 655h-201l-23 465l-184 -465h-199l-55 682h178l23 -477l184 477h174l17 -477l192 477h187z" />
    <glyph glyph-name="x.ord" horiz-adv-x="679" 
d="M700 655h-192l-90 215l-160 -215h-203l275 349l-154 333h199l82 -200l147 200h211l-272 -344z" />
    <glyph glyph-name="y.ord" horiz-adv-x="665" 
d="M170 403q-56 0 -102 9l26 147q40 -4 58 -4q81 0 114 68l6 14l-100 700h184l41 -499l224 499h188l-363 -733q-58 -115 -123 -158t-153 -43z" />
    <glyph glyph-name="z.ord" horiz-adv-x="622" 
d="M608 655h-524l25 131l354 406h-266l26 145h496l-21 -118l-366 -420h301z" />
    </font>
</defs>
</svg>
