<?xml version="1.0" standalone="no"?>
<!DOCTYPE svg PUBLIC "-//W3C//DTD SVG 1.1//EN" "http://www.w3.org/Graphics/SVG/1.1/DTD/svg11.dtd" >
<svg xmlns="http://www.w3.org/2000/svg" xmlns:xlink="http://www.w3.org/1999/xlink" version="1.1">
<metadata>
Created by FontForge 20170731 at Fri Dec 18 13:48:02 2020
 By Aleksey,,,
Copyright (c) 2018 Schick Toikka. All rights reserved. Scto Grotesk B is a trademark of Schick Toikka. Unauthorised copying or modification of any of its data is illegal.
</metadata>
<defs>
<font id="SctoGroteskB-Black" horiz-adv-x="1689" >
  <font-face 
    font-family="Scto Grotesk B"
    font-weight="900"
    font-stretch="normal"
    units-per-em="2048"
    panose-1="2 11 10 3 0 0 0 2 0 4"
    ascent="1638"
    descent="-410"
    x-height="1024"
    cap-height="1421"
    bbox="-356 -569 2189 1978"
    underline-thickness="79"
    underline-position="-437"
    unicode-range="U+0020-FB02"
  />
<missing-glyph horiz-adv-x="1290" 
d="M1178 1421v-1779h-1065v1779h1065zM692 535l400 -719v1439zM643 444l-397 -716h794zM592 535l-393 712v-1423zM250 1335l393 -710l393 710h-786z" />
    <glyph glyph-name="fi" unicode="fi" horiz-adv-x="1308" 
d="M717 756h-201v-756h-344v756h-127v268h127v49q0 188 101 280.5t282 92.5q70 0 166 -14v-261q-44 7 -82 7q-62 0 -92.5 -30.5t-30.5 -103.5v-20h201v-268zM1206 0h-344v1024h344v-1024zM1223 1155h-377v266h377v-266z" />
    <glyph glyph-name="fl" unicode="fl" horiz-adv-x="1296" 
d="M717 756h-201v-756h-344v756h-127v268h127v49q0 188 101 280.5t282 92.5q70 0 166 -14v-261q-44 7 -82 7q-62 0 -92.5 -30.5t-30.5 -103.5v-20h201v-268zM1194 0h-344v1421h344v-1421z" />
    <glyph glyph-name=".notdef" horiz-adv-x="1290" 
d="M1178 1421v-1779h-1065v1779h1065zM692 535l400 -719v1439zM643 444l-397 -716h794zM592 535l-393 712v-1423zM250 1335l393 -710l393 710h-786z" />
    <glyph glyph-name=".null" horiz-adv-x="0" 
 />
    <glyph glyph-name="nonmarkingreturn" horiz-adv-x="682" 
 />
    <glyph glyph-name="space" unicode=" " horiz-adv-x="348" 
 />
    <glyph glyph-name="exclam" unicode="!" horiz-adv-x="616" 
d="M436 578h-258l-47 573v270h354v-270zM131 0v354h354v-354h-354z" />
    <glyph glyph-name="quotedbl" unicode="&#x22;" horiz-adv-x="909" 
d="M410 1421l-41 -620h-230l-41 620h312zM811 1421l-41 -620h-229l-41 620h311z" />
    <glyph glyph-name="numbersign" unicode="#" horiz-adv-x="1269" 
d="M158 842v235h180l41 301h256l-41 -301h162l41 301h256l-41 -301h172v-235h-205l-33 -267h166v-235h-199l-39 -299h-256l39 299h-161l-39 -299h-256l39 299h-154v235h184l35 267h-147zM561 842l-35 -267h162l35 267h-162z" />
    <glyph glyph-name="dollar" unicode="$" horiz-adv-x="1204" 
d="M459 -217v213q-181 36 -276 161.5t-95 336.5h346q-3 -126 49.5 -189t137.5 -63q75 0 117 38.5t42 104.5q0 52 -36.5 93t-100.5 63l-176 61q-77 27 -135.5 60t-108.5 81t-77 115.5t-27 151.5q0 161 96 269t244 144v215h295v-217q160 -39 256 -151t96 -297h-346
q4 107 -40 160t-120 53q-68 0 -106.5 -39.5t-38.5 -89.5q0 -51 36 -93.5t103 -66.5l176 -61q77 -27 135 -59.5t108 -80t76.5 -114t26.5 -150.5q0 -167 -98 -284t-264 -152v-213h-295z" />
    <glyph glyph-name="percent" unicode="%" horiz-adv-x="1570" 
d="M473 0h-199l824 1421h198zM305 1077q0 -83 27.5 -129.5t77.5 -46.5q52 0 79 46.5t27 129.5t-27 129.5t-79 46.5q-50 0 -77.5 -46.5t-27.5 -129.5zM727 1077q0 -88 -27 -159t-72 -114t-101 -66t-117 -23t-116.5 23t-100.5 66t-72 114t-27 159t27 159t72 114.5t100.5 66.5
t116.5 23t117 -23t101 -66.5t72 -114.5t27 -159zM1057 340q0 -83 27 -129.5t77 -46.5q52 0 79.5 46.5t27.5 129.5t-27.5 129.5t-79.5 46.5q-50 0 -77 -46.5t-27 -129.5zM1479 340q0 -88 -27 -159t-72.5 -114.5t-101.5 -66.5t-117 -23t-116.5 23t-100 66.5t-71.5 114.5
t-27 159t27 159t71.5 114t100 66t116.5 23t117 -23t101.5 -66t72.5 -114t27 -159z" />
    <glyph glyph-name="ampersand" unicode="&#x26;" horiz-adv-x="1406" 
d="M993 0l-71 78q-173 -103 -373 -103q-224 0 -356 107t-132 283q0 239 250 399q-116 154 -116 309q0 76 25 142t74 118t130.5 82.5t185.5 30.5q105 0 188.5 -29t134.5 -77.5t78 -109.5t27 -128q0 -244 -282 -404l190 -211q60 123 60 246h282q0 -260 -151 -461l243 -272
h-387zM588 240q81 0 155 36l-251 281q-103 -76 -103 -174q0 -65 51.5 -104t147.5 -39zM510 1085q0 -85 72 -186q71 37 109 91t38 110q0 54 -30 84t-81 30t-79.5 -36.5t-28.5 -92.5z" />
    <glyph glyph-name="quotesingle" unicode="'" horiz-adv-x="507" 
d="M410 1421l-41 -620h-230l-41 620h312z" />
    <glyph glyph-name="parenleft" unicode="(" horiz-adv-x="731" 
d="M438 625q8 -460 232 -844h-295q-242 385 -242 844q0 458 242 843h295q-224 -384 -232 -843z" />
    <glyph glyph-name="parenright" unicode=")" horiz-adv-x="731" 
d="M293 625q-8 459 -232 843h295q242 -385 242 -843q0 -459 -242 -844h-295q224 384 232 844z" />
    <glyph glyph-name="asterisk" unicode="*" horiz-adv-x="911" 
d="M567 1239l172 61l70 -217l-174 -55l113 -145l-187 -133l-106 149l-105 -149l-186 133l112 145l-174 55l70 217l172 -61v182h229z" />
    <glyph glyph-name="plus" unicode="+" horiz-adv-x="1228" 
d="M100 535v253h381v390h267v-390h380v-253h-380v-392h-267v392h-381z" />
    <glyph glyph-name="comma" unicode="," horiz-adv-x="606" 
d="M487 354v-385q0 -156 -95.5 -243.5t-266.5 -87.5v167q103 4 139.5 53.5t36.5 137.5v4h-168v354h354z" />
    <glyph glyph-name="hyphen" unicode="-" horiz-adv-x="745" 
d="M113 410v290h520v-290h-520z" />
    <glyph glyph-name="period" unicode="." horiz-adv-x="600" 
d="M123 0v354h354v-354h-354z" />
    <glyph glyph-name="slash" unicode="/" horiz-adv-x="925" 
d="M874 1466l-530 -1685h-293l529 1685h294z" />
    <glyph glyph-name="zero" unicode="0" horiz-adv-x="1208" 
d="M604 262q35 0 62 18t52 64t38.5 139t13.5 228t-13.5 228t-38.5 138.5t-52 63.5t-62 18t-62 -18t-52 -63.5t-38.5 -138.5t-13.5 -228t13.5 -228t38.5 -139t52 -64t62 -18zM604 -25q-114 0 -208 42.5t-166 129t-112 230t-40 334.5t40 335t112 230t166 128t208 42t208 -42
t166 -128t112 -230t40 -335t-40 -334.5t-112 -230t-166 -129t-208 -42.5z" />
    <glyph glyph-name="one" unicode="1" horiz-adv-x="827" 
d="M662 0h-355v1042l-250 -186v361l285 204h320v-1421z" />
    <glyph glyph-name="two" unicode="2" horiz-adv-x="1120" 
d="M1036 1020q0 -72 -18.5 -136t-55.5 -119.5t-68 -92t-79 -84.5l-280 -281h507v-307h-950v299l488 504q114 114 114 219q0 63 -36 101t-93 38q-137 0 -137 -207h-346q0 230 125.5 361t359.5 131q208 0 338.5 -114.5t130.5 -311.5z" />
    <glyph glyph-name="three" unicode="3" horiz-adv-x="1157" 
d="M573 -25q-236 0 -370.5 118.5t-136.5 324.5h356q3 -82 45 -125t106 -43t106 47t42 129q0 156 -184 156h-70v276h55q81 0 133 40.5t52 123.5q0 67 -39 107t-99 40q-57 0 -95.5 -44.5t-41.5 -129.5h-336q5 207 130 329t347 122q106 0 194.5 -31t146.5 -84.5t90 -124.5
t32 -151q0 -111 -52 -192t-134 -118q101 -40 165 -132.5t64 -219.5q0 -82 -32.5 -156t-94 -133t-159.5 -94t-220 -35z" />
    <glyph glyph-name="four" unicode="4" horiz-adv-x="1228" 
d="M1012 0h-340v268h-615v299l549 854h406v-868h135v-285h-135v-268zM672 553v475l-307 -475h307z" />
    <glyph glyph-name="five" unicode="5" horiz-adv-x="1134" 
d="M590 -25q-246 0 -378 120.5t-134 322.5h356q0 -78 41.5 -123t99.5 -45q146 0 146 213q0 101 -39.5 157t-103.5 56q-53 0 -90 -34t-50 -95h-317l61 874h799v-305h-496l-24 -272q86 90 231 90q160 0 273.5 -126t113.5 -341q0 -140 -60 -251.5t-172 -176t-257 -64.5z" />
    <glyph glyph-name="six" unicode="6" horiz-adv-x="1165" 
d="M600 -25q-250 0 -386 192.5t-136 532.5q0 363 136.5 554.5t387.5 191.5q134 0 240 -51t167 -144t64 -211h-348q-4 66 -39.5 97.5t-83.5 31.5q-73 0 -117.5 -88t-44.5 -264q46 55 112.5 86t139.5 31q79 0 148.5 -28.5t125.5 -84t88.5 -146.5t32.5 -206q0 -118 -41 -214
t-110.5 -156t-155.5 -92t-180 -32zM592 250q66 0 101.5 62t35.5 149t-35.5 149t-101.5 62t-101.5 -62t-35.5 -149t35.5 -149t101.5 -62z" />
    <glyph glyph-name="seven" unicode="7" horiz-adv-x="972" 
d="M61 1098v323h850v-309l-379 -1112h-366l381 1098h-486z" />
    <glyph glyph-name="eight" unicode="8" horiz-adv-x="1167" 
d="M584 242q70 0 113.5 50t43.5 134t-43.5 134t-113.5 50t-114 -50t-44 -134t44 -134t114 -50zM584 854q64 0 104.5 43.5t40.5 118.5t-40.5 118.5t-104.5 43.5t-105 -43.5t-41 -118.5t41 -118.5t105 -43.5zM584 -25q-122 0 -220 35t-159.5 94t-94 133t-32.5 156
q0 127 63 219.5t164 132.5q-82 37 -134 118t-52 192q0 166 126.5 278.5t338.5 112.5t338.5 -112.5t126.5 -278.5q0 -111 -52 -192t-135 -118q101 -40 164.5 -132.5t63.5 -219.5q0 -82 -32.5 -156t-94 -133t-159.5 -94t-220 -35z" />
    <glyph glyph-name="nine" unicode="9" horiz-adv-x="1165" 
d="M565 1446q250 0 386 -192.5t136 -532.5q0 -363 -136.5 -554.5t-387.5 -191.5q-134 0 -240 51t-167 144t-64 211h348q4 -66 39.5 -97.5t83.5 -31.5q73 0 117.5 88t44.5 264q-46 -55 -112.5 -86t-139.5 -31q-79 0 -148.5 28.5t-125.5 84t-88.5 146.5t-32.5 206
q0 118 41 214t110.5 156t155.5 92t180 32zM573 1171q-66 0 -101.5 -61.5t-35.5 -148.5t35.5 -149t101.5 -62t102 62t36 149t-36 148.5t-102 61.5z" />
    <glyph glyph-name="colon" unicode=":" horiz-adv-x="620" 
d="M133 0v354h354v-354h-354zM133 670v354h354v-354h-354z" />
    <glyph glyph-name="semicolon" unicode=";" horiz-adv-x="626" 
d="M133 670v354h354v-354h-354zM487 354v-385q0 -156 -95.5 -243.5t-266.5 -87.5v167q103 4 139.5 53.5t36.5 137.5v4h-168v354h354z" />
    <glyph glyph-name="less" unicode="&#x3c;" horiz-adv-x="1228" 
d="M184 530v261l858 374v-266l-571 -237l571 -238v-268z" />
    <glyph glyph-name="equal" unicode="=" horiz-adv-x="1228" 
d="M158 309v254h911v-254h-911zM158 758v254h911v-254h-911z" />
    <glyph glyph-name="greater" unicode="&#x3e;" horiz-adv-x="1228" 
d="M1042 791v-261l-858 -374v268l572 238l-572 237v266z" />
    <glyph glyph-name="question" unicode="?" horiz-adv-x="976" 
d="M961 1071q0 -83 -34.5 -151t-84 -110.5t-99 -76.5t-85 -64.5t-37.5 -58.5l-3 -32h-272l-4 36q-7 59 9.5 107t46 78t65.5 59.5t68 52.5t53.5 56.5t21.5 72.5q0 57 -28.5 89t-83.5 32q-64 0 -100 -47t-36 -131h-342q0 130 52.5 233.5t162 166.5t261.5 63q214 0 341.5 -109
t127.5 -266zM301 0v354h354v-354h-354z" />
    <glyph glyph-name="at" unicode="@" horiz-adv-x="1867" 
d="M1313 49q-70 0 -136.5 32.5t-89.5 82.5q-104 -113 -251 -113q-172 0 -276.5 122t-104.5 331q0 210 104.5 332t276.5 122q165 0 266 -131v111h299v-616q0 -27 13.5 -42.5t37.5 -15.5q36 0 73.5 51.5t63 140t25.5 183.5q0 110 -41 211t-118.5 182.5t-202.5 130.5t-279 49
q-203 0 -366 -94.5t-253 -257t-90 -360.5q0 -199 86.5 -355.5t240 -243.5t345.5 -87q175 0 332 59v-166q-159 -43 -334 -43q-191 0 -351.5 67.5t-266.5 182.5t-165 265.5t-59 318.5q0 188 69.5 350.5t188.5 275t281 176.5t342 64q151 0 282 -40.5t225 -110t162 -161.5
t101 -195.5t33 -211.5q0 -272 -130.5 -434t-332.5 -162zM936 264q74 0 115 67.5t41 172.5q0 107 -41 174t-115 67t-114 -67t-40 -174q0 -106 40 -173t114 -67z" />
    <glyph glyph-name="A" unicode="A" horiz-adv-x="1417" 
d="M1012 0l-64 236h-487l-64 -236h-362l438 1421h471l438 -1421h-370zM707 1110l-160 -582h317z" />
    <glyph glyph-name="B" unicode="B" horiz-adv-x="1308" 
d="M131 0v1421h614q213 0 329 -98t116 -262q0 -229 -205 -324q114 -37 180 -118.5t66 -204.5q0 -200 -132 -307t-360 -107h-608zM821 989q0 154 -164 154h-168v-307h168q81 0 122.5 39.5t41.5 113.5zM862 434q0 77 -42.5 117.5t-123.5 40.5h-207v-313h207q81 0 123.5 40
t42.5 115z" />
    <glyph glyph-name="C" unicode="C" horiz-adv-x="1400" 
d="M440 711q0 -192 76 -308t207 -116q108 0 170 64t78 175h377q-8 -135 -60 -241t-137 -173t-193.5 -102t-234.5 -35q-196 0 -346.5 91.5t-233 258.5t-82.5 386q0 331 182.5 533t479.5 202q178 0 316 -66t219 -191.5t88 -293.5h-375q-16 111 -78 175.5t-170 64.5
q-131 0 -207 -116t-76 -308z" />
    <glyph glyph-name="D" unicode="D" horiz-adv-x="1409" 
d="M131 1421h528q144 0 260 -35.5t195.5 -98.5t132.5 -153t77 -195t24 -228t-24 -228t-77 -195t-132.5 -153.5t-195.5 -99t-260 -35.5h-528v1421zM489 311h166q146 0 231 97.5t85 302.5q0 204 -85 301.5t-231 97.5h-166v-799z" />
    <glyph glyph-name="E" unicode="E" horiz-adv-x="1224" 
d="M131 0v1421h975v-309h-617v-244h555v-293h-555v-266h633v-309h-991z" />
    <glyph glyph-name="F" unicode="F" horiz-adv-x="1132" 
d="M131 0v1421h934v-313h-576v-293h533v-311h-533v-504h-358z" />
    <glyph glyph-name="G" unicode="G" horiz-adv-x="1468" 
d="M649 -25q-167 0 -300 89.5t-210.5 258t-77.5 388.5q0 331 182.5 533t479.5 202q261 0 432 -136t191 -374h-383q-10 93 -76.5 147t-159.5 54q-134 0 -210.5 -115t-76.5 -311q0 -200 79.5 -315t217.5 -115q102 0 176.5 64.5t98.5 178.5h-250v273h584v-797h-314v174
q-132 -199 -383 -199z" />
    <glyph glyph-name="H" unicode="H" horiz-adv-x="1462" 
d="M131 0v1421h358v-547h484v547h358v-1421h-358v555h-484v-555h-358z" />
    <glyph glyph-name="I" unicode="I" horiz-adv-x="620" 
d="M131 0v1421h358v-1421h-358z" />
    <glyph glyph-name="J" unicode="J" horiz-adv-x="1226" 
d="M45 526v113h358v-98q0 -246 170 -246q172 0 172 246v880h359v-884q0 -275 -132.5 -418.5t-398.5 -143.5q-263 0 -395.5 145t-132.5 406z" />
    <glyph glyph-name="K" unicode="K" horiz-adv-x="1388" 
d="M131 0v1421h358v-579l453 579h416l-465 -585l475 -836h-407l-312 559l-160 -190v-369h-358z" />
    <glyph glyph-name="L" unicode="L" horiz-adv-x="1126" 
d="M131 0v1421h358v-1102h582v-319h-940z" />
    <glyph glyph-name="M" unicode="M" horiz-adv-x="1789" 
d="M897 463l274 958h488v-1421h-334v993l-283 -993h-294l-283 993v-993h-334v1421h490z" />
    <glyph glyph-name="N" unicode="N" horiz-adv-x="1488" 
d="M1358 1421v-1421h-426l-453 926v-926h-348v1421h422l457 -929v929h348z" />
    <glyph glyph-name="O" unicode="O" horiz-adv-x="1443" 
d="M440 711q0 -194 76 -310t207 -116t207 116t76 310t-76 310t-207 116t-207 -116t-76 -310zM1382 711q0 -331 -181.5 -533.5t-477.5 -202.5q-196 0 -346.5 91.5t-233 258.5t-82.5 386q0 331 182.5 533t479.5 202q296 0 477.5 -202t181.5 -533z" />
    <glyph glyph-name="P" unicode="P" horiz-adv-x="1241" 
d="M1204 928q0 -131 -42 -227t-118.5 -152.5t-174.5 -83.5t-220 -27h-160v-438h-358v1421h518q122 0 220.5 -27.5t174.5 -84.5t118 -153.5t42 -227.5zM831 928q0 104 -56 158.5t-150 54.5h-136v-422h136q95 0 150.5 52.5t55.5 156.5z" />
    <glyph glyph-name="Q" unicode="Q" horiz-adv-x="1443" 
d="M1382 711q0 -191 -63 -343.5t-178 -248.5l241 -369h-378l-164 236q-68 -11 -117 -11q-196 0 -346.5 91.5t-233 258.5t-82.5 386q0 331 182.5 533t479.5 202q296 0 477.5 -202t181.5 -533zM440 711q0 -194 76 -310t207 -116t207 116t76 310t-76 310t-207 116t-207 -116
t-76 -310z" />
    <glyph glyph-name="R" unicode="R" horiz-adv-x="1329" 
d="M131 0v1421h604q248 0 375 -112t127 -328q0 -133 -60 -241t-155 -154l262 -586h-383l-225 506h-187v-506h-358zM862 950q0 91 -50 140t-132 49h-191v-373h191q83 0 132.5 46.5t49.5 137.5z" />
    <glyph glyph-name="S" unicode="S" horiz-adv-x="1280" 
d="M102 999q0 91 35 171t101.5 142t171.5 98t235 36q250 0 395.5 -127.5t157.5 -343.5h-344q-4 94 -58.5 142t-152.5 48q-83 0 -133.5 -35.5t-50.5 -91.5q0 -57 42 -88.5t122 -52.5l206 -53q175 -45 278 -144t103 -262q0 -203 -152 -333t-403 -130q-276 0 -424.5 134.5
t-160.5 369.5h348q22 -223 235 -223q91 0 146 37.5t55 105.5q0 57 -42 89t-122 53l-207 53q-175 45 -278 143.5t-103 261.5z" />
    <glyph glyph-name="T" unicode="T" horiz-adv-x="1189" 
d="M1153 1421v-317h-379v-1104h-358v1104h-379v317h1116z" />
    <glyph glyph-name="U" unicode="U" horiz-adv-x="1370" 
d="M686 -25q-273 0 -422 141.5t-149 424.5v880h358v-880q0 -123 57 -188.5t156 -65.5q98 0 154.5 65.5t56.5 188.5v880h358v-880q0 -282 -149 -424t-420 -142z" />
    <glyph glyph-name="V" unicode="V" horiz-adv-x="1359" 
d="M674 377l289 1044h372l-413 -1421h-504l-393 1421h376z" />
    <glyph glyph-name="W" unicode="W" horiz-adv-x="1896" 
d="M948 987l-209 -987h-387l-313 1421h346l186 -942l187 942h385l186 -942l187 942h342l-314 -1421h-387z" />
    <glyph glyph-name="X" unicode="X" horiz-adv-x="1351" 
d="M430 0h-405l442 709l-432 712h426l217 -397l233 397h400l-424 -710l440 -711h-426l-229 408z" />
    <glyph glyph-name="Y" unicode="Y" horiz-adv-x="1316" 
d="M477 0v512l-473 909h406l254 -508l251 508h398l-479 -919v-502h-357z" />
    <glyph glyph-name="Z" unicode="Z" horiz-adv-x="1263" 
d="M123 1421h1010v-295l-598 -811h639v-315h-1084v295l600 811h-567v315z" />
    <glyph glyph-name="bracketleft" unicode="[" horiz-adv-x="724" 
d="M623 1223h-195v-1196h195v-246h-480v1687h480v-245z" />
    <glyph glyph-name="backslash" unicode="\" horiz-adv-x="925" 
d="M580 -219l-529 1685h295l528 -1685h-294z" />
    <glyph glyph-name="bracketright" unicode="]" horiz-adv-x="724" 
d="M297 1223h-195v245h480v-1687h-480v246h195v1196z" />
    <glyph glyph-name="asciicircum" unicode="^" horiz-adv-x="1079" 
d="M72 909l331 512h273l332 -512h-289l-180 279l-179 -279h-288z" />
    <glyph glyph-name="underscore" unicode="_" horiz-adv-x="899" 
d="M68 -272v200h763v-200h-763z" />
    <glyph glyph-name="grave" unicode="`" horiz-adv-x="512" 
d="M6 1421h326l112 -305h-243z" />
    <glyph glyph-name="a" unicode="a" horiz-adv-x="1095" 
d="M1006 0h-318v154q-42 -86 -128 -131.5t-183 -45.5q-154 0 -237 78t-83 217q0 132 85 213.5t233 110.5l291 55v45q0 71 -30.5 103t-90.5 32q-59 0 -92 -35t-33 -104h-330q3 164 121 259.5t334 95.5q229 0 345 -100t116 -296v-651zM494 205q73 0 122.5 54.5t49.5 158.5v37
l-154 -29q-63 -11 -94 -43t-31 -76q0 -47 29.5 -74.5t77.5 -27.5z" />
    <glyph glyph-name="b" unicode="b" horiz-adv-x="1175" 
d="M702 -23q-165 0 -272 154v-131h-328v1421h344v-508q105 134 256 134q186 0 298 -144t112 -391t-112 -391t-298 -144zM596 221q76 0 118 79.5t42 211.5t-42 211.5t-118 79.5q-75 0 -116.5 -79.5t-41.5 -211.5t41.5 -211.5t116.5 -79.5z" />
    <glyph glyph-name="c" unicode="c" horiz-adv-x="1118" 
d="M573 -23q-237 0 -376.5 144t-139.5 391t139.5 391t376.5 144q209 0 344.5 -111.5t147.5 -308.5h-354q-4 89 -42.5 132.5t-97.5 43.5q-70 0 -113.5 -75t-43.5 -216t43.5 -216t113.5 -75q59 0 97.5 43.5t42.5 132.5h354q-12 -197 -147.5 -308.5t-344.5 -111.5z" />
    <glyph glyph-name="d" unicode="d" horiz-adv-x="1175" 
d="M473 -23q-186 0 -298 144t-112 391t112 391t298 144q151 0 256 -134v508h344v-1421h-328v131q-107 -154 -272 -154zM578 221q76 0 117.5 79.5t41.5 211.5t-41.5 211.5t-117.5 79.5q-75 0 -116.5 -79.5t-41.5 -211.5t41.5 -211.5t116.5 -79.5z" />
    <glyph glyph-name="e" unicode="e" horiz-adv-x="1140" 
d="M569 -23q-145 0 -259 59t-183.5 182t-69.5 294q0 242 139 388.5t373 146.5t371 -140.5t137 -380.5v-98h-667q4 -100 49.5 -156.5t113.5 -56.5q52 0 88.5 34t45.5 99h362q-29 -173 -165 -272t-335 -99zM571 821q-63 0 -106 -55.5t-51 -144.5h309q-1 91 -43 145.5
t-109 54.5z" />
    <glyph glyph-name="f" unicode="f" horiz-adv-x="761" 
d="M717 756h-201v-756h-344v756h-127v268h127v49q0 188 101 280.5t282 92.5q70 0 166 -14v-261q-44 7 -82 7q-62 0 -92.5 -30.5t-30.5 -103.5v-20h201v-268z" />
    <glyph glyph-name="g" unicode="g" horiz-adv-x="1177" 
d="M483 35q-187 0 -303.5 140.5t-116.5 365.5q0 226 118 366t300 140q160 0 267 -154v131h327v-961q0 -220 -132 -333t-368 -113q-129 0 -225 28t-152.5 77.5t-86 109.5t-35.5 133h373q3 -59 36.5 -95t94.5 -36q78 0 115.5 47t37.5 156v131q-46 -63 -111.5 -98t-138.5 -35z
M582 276q75 0 115 75.5t40 189.5q0 115 -40 190.5t-115 75.5q-73 0 -113.5 -75.5t-40.5 -190.5q0 -113 40.5 -189t113.5 -76z" />
    <glyph glyph-name="h" unicode="h" horiz-adv-x="1124" 
d="M1026 0h-344v606q0 168 -115 168q-59 0 -90 -50t-31 -128v-596h-344v1421h344v-536q37 71 107 116.5t156 45.5q158 0 237.5 -101.5t79.5 -279.5v-666z" />
    <glyph glyph-name="i" unicode="i" horiz-adv-x="548" 
d="M446 0h-344v1024h344v-1024zM463 1155h-377v266h377v-266z" />
    <glyph glyph-name="j" unicode="j" horiz-adv-x="548" 
d="M51 -381q-70 0 -131 10v269q29 -2 70 -2q54 0 83 39t29 112v977h344v-1044q0 -175 -106.5 -268t-288.5 -93zM463 1155h-377v266h377v-266z" />
    <glyph glyph-name="k" unicode="k" horiz-adv-x="1138" 
d="M446 0h-344v1421h344v-727l291 330h393l-358 -401l352 -623h-374l-224 406l-80 -89v-317z" />
    <glyph glyph-name="l" unicode="l" horiz-adv-x="548" 
d="M446 0h-344v1421h344v-1421z" />
    <glyph glyph-name="m" unicode="m" horiz-adv-x="1679" 
d="M1581 0h-344v606q0 168 -109 168q-56 0 -85 -50t-29 -128v-596h-344v606q0 168 -109 168q-56 0 -85.5 -50t-29.5 -128v-596h-344v1024h328v-150q41 73 112.5 123t159.5 50q85 0 154.5 -42.5t106.5 -127.5q109 170 290 170q328 0 328 -392v-655z" />
    <glyph glyph-name="n" unicode="n" horiz-adv-x="1124" 
d="M1026 0h-344v606q0 168 -115 168q-59 0 -90 -50t-31 -128v-596h-344v1024h328v-150q44 75 115.5 124t161.5 49q161 0 240 -101.5t79 -279.5v-666z" />
    <glyph glyph-name="o" unicode="o" horiz-adv-x="1144" 
d="M571 -23q-229 0 -371.5 144.5t-142.5 390.5t142.5 390.5t371.5 144.5q230 0 373 -144.5t143 -390.5t-143 -390.5t-373 -144.5zM571 221q76 0 118 79.5t42 211.5t-42 211.5t-118 79.5q-75 0 -116 -79.5t-41 -211.5t41 -211.5t116 -79.5z" />
    <glyph glyph-name="p" unicode="p" horiz-adv-x="1175" 
d="M702 -23q-151 0 -256 134v-469h-344v1382h328v-131q107 154 272 154q186 0 298 -144t112 -391t-112 -391t-298 -144zM596 221q76 0 118 79.5t42 211.5t-42 211.5t-118 79.5q-75 0 -116.5 -79.5t-41.5 -211.5t41.5 -211.5t116.5 -79.5z" />
    <glyph glyph-name="q" unicode="q" horiz-adv-x="1175" 
d="M473 -23q-186 0 -298 144t-112 391t112 391t298 144q165 0 272 -154v131h328v-1382h-344v469q-105 -134 -256 -134zM578 221q76 0 117.5 79.5t41.5 211.5t-41.5 211.5t-117.5 79.5q-75 0 -116.5 -79.5t-41.5 -211.5t41.5 -211.5t116.5 -79.5z" />
    <glyph glyph-name="r" unicode="r" horiz-adv-x="784" 
d="M446 0h-344v1024h328v-240q29 142 102 201t207 59h4v-348q-29 4 -96 4q-98 0 -149.5 -63t-51.5 -184v-453z" />
    <glyph glyph-name="s" unicode="s" horiz-adv-x="1067" 
d="M553 -23q-228 0 -350.5 95t-134.5 268h344q0 -77 37 -115.5t104 -38.5q54 0 87.5 26.5t33.5 70.5q0 32 -24 54.5t-70 31.5l-197 39q-136 28 -218.5 105.5t-82.5 197.5q0 153 124.5 244.5t321.5 91.5q202 0 326 -89.5t133 -255.5h-328q0 69 -35.5 102.5t-95.5 33.5
q-53 0 -84.5 -23.5t-31.5 -62.5q0 -64 102 -84l197 -39q131 -27 212 -106t81 -195q0 -160 -126.5 -255.5t-324.5 -95.5z" />
    <glyph glyph-name="t" unicode="t" horiz-adv-x="790" 
d="M494 -10q-168 0 -249 87t-81 263v416h-127v268h127v248h344v-248h209v-268h-209v-344q0 -73 28 -106.5t87 -33.5q51 0 94 9v-271q-97 -20 -223 -20z" />
    <glyph glyph-name="u" unicode="u" horiz-adv-x="1112" 
d="M1010 0h-328v150q-45 -76 -113 -124.5t-157 -48.5q-158 0 -236 101.5t-78 279.5v666h344v-602q0 -90 26 -131t81 -41q58 0 87.5 50.5t29.5 139.5v584h344v-1024z" />
    <glyph glyph-name="v" unicode="v" horiz-adv-x="1089" 
d="M756 0h-422l-318 1024h361l172 -682l172 682h352z" />
    <glyph glyph-name="w" unicode="w" horiz-adv-x="1617" 
d="M1319 0h-367l-143 621l-143 -621h-367l-279 1024h351l147 -639l137 639h312l137 -639l147 639h346z" />
    <glyph glyph-name="x" unicode="x" horiz-adv-x="1128" 
d="M1108 0h-377l-166 276l-166 -276h-379l330 514l-327 510h378l160 -266l166 266h377l-328 -506z" />
    <glyph glyph-name="y" unicode="y" horiz-adv-x="1077" 
d="M264 -381q-82 0 -149 12v269q47 -6 90 -6q100 0 139 77l4 9l-336 1044h361l174 -682l170 682h352l-346 -1081q-29 -92 -81.5 -158t-117 -100.5t-128.5 -50t-132 -15.5z" />
    <glyph glyph-name="z" unicode="z" horiz-adv-x="997" 
d="M932 0h-866v248l430 512h-408v264h817v-248l-436 -512h463v-264z" />
    <glyph glyph-name="braceleft" unicode="{" horiz-adv-x="821" 
d="M719 -219h-221q-246 0 -246 325v170q0 124 -38 172.5t-132 57.5v237q94 9 132 57.5t38 172.5v170q0 325 246 325h221v-245h-41q-57 0 -85 -13.5t-42 -57t-14 -132.5v-129q0 -108 -45 -177t-132 -89q87 -20 132 -89.5t45 -177.5v-129q0 -89 14 -132t42 -56.5t85 -13.5h41
v-246z" />
    <glyph glyph-name="bar" unicode="|" horiz-adv-x="610" 
d="M164 -219v1685h282v-1685h-282z" />
    <glyph glyph-name="braceright" unicode="}" horiz-adv-x="821" 
d="M102 -219v246h41q57 0 85 13.5t42.5 56.5t14.5 132v129q0 109 44.5 178t131.5 89q-87 20 -131.5 88.5t-44.5 177.5v129q0 89 -14.5 132.5t-42.5 57t-85 13.5h-41v245h222q245 0 245 -325v-170q0 -124 38 -172.5t132 -57.5v-237q-94 -9 -132 -57.5t-38 -172.5v-170
q0 -325 -245 -325h-222z" />
    <glyph glyph-name="asciitilde" unicode="~" horiz-adv-x="1228" 
d="M889 471q-60 0 -162 28.5t-191 56.5t-116 28q-31 0 -43 -17.5t-12 -58.5v-43h-244v129q0 128 61 188t156 60q59 0 162 -28t192 -55.5t115 -27.5q32 0 44.5 17t12.5 57v43h244v-129q0 -128 -62 -188t-157 -60z" />
    <glyph glyph-name="uni00A0" unicode="&#xa0;" horiz-adv-x="348" 
 />
    <glyph glyph-name="exclamdown" unicode="&#xa1;" horiz-adv-x="616" 
d="M178 446h258l49 -573v-270h-354v270zM131 670v354h354v-354h-354z" />
    <glyph glyph-name="cent" unicode="&#xa2;" horiz-adv-x="1171" 
d="M735 0h-295v195q-168 45 -263 180t-95 336t95 336t263 178v196h295v-190q154 -33 249.5 -138.5t105.5 -267.5h-355q-4 77 -43.5 126.5t-95.5 49.5q-70 0 -114 -76.5t-44 -213.5t44 -214t114 -77q56 0 95.5 49.5t43.5 126.5h355q-10 -162 -105.5 -268.5t-249.5 -139.5
v-188z" />
    <glyph glyph-name="sterling" unicode="&#xa3;" horiz-adv-x="1185" 
d="M127 524v209h104q-67 157 -67 285q0 186 122.5 306t340.5 120q231 0 351 -129.5t120 -360.5h-348q0 103 -33.5 156t-98.5 53q-55 0 -87.5 -41t-32.5 -110q0 -42 12.5 -88t33 -102t29.5 -89h207v-209h-172q2 -12 2 -30q0 -112 -53 -185h547v-309h-981v309q68 0 123 48
t55 141v26h-174z" />
    <glyph glyph-name="currency" unicode="&#xa4;" horiz-adv-x="1142" 
d="M571 264q-100 0 -176 27l-143 -144l-189 185l127 127q-45 80 -45 196q0 111 43 193l-127 127l189 188l143 -145q85 29 178 29q97 0 177 -27l145 145l188 -188l-129 -129q45 -85 45 -193q0 -109 -45 -194l127 -127l-186 -189l-148 146q-77 -27 -174 -27zM571 469
q69 0 106.5 51t37.5 135t-37.5 135.5t-106.5 51.5t-106 -51.5t-37 -135.5t37 -135t106 -51z" />
    <glyph glyph-name="yen" unicode="&#xa5;" horiz-adv-x="1204" 
d="M158 508v205h176l-305 708h370l209 -559l211 559h357l-306 -708h174v-205h-266v-109h266v-204h-266v-195h-354v195h-266v204h266v109h-266z" />
    <glyph glyph-name="brokenbar" unicode="&#xa6;" horiz-adv-x="610" 
d="M164 -219v741h282v-741h-282zM164 725v741h282v-741h-282z" />
    <glyph glyph-name="section" unicode="&#xa7;" horiz-adv-x="1185" 
d="M1073 528q0 -72 -37.5 -143t-105.5 -123q90 -90 90 -215q0 -102 -58 -180.5t-154 -119t-212 -40.5q-217 0 -342.5 99t-124.5 286h342q0 -33 4.5 -57t17 -48t38.5 -37t65 -13q45 0 73.5 25t28.5 58q0 61 -75 105l-261 154q-62 36 -104 69t-76.5 74.5t-51.5 91.5t-17 111
q0 72 37 142.5t106 121.5q-90 87 -90 217q0 102 58 180.5t154 119t212 40.5q217 0 342.5 -99t124.5 -286h-342q0 33 -4.5 57.5t-17 48.5t-38.5 37t-65 13q-45 0 -74 -25.5t-29 -58.5q0 -61 76 -105l260 -154q83 -49 134 -93.5t83.5 -108.5t32.5 -144zM664 616l-220 136
q-34 -34 -34 -80q0 -40 24 -67.5t88 -67.5l217 -138q37 37 37 82q0 40 -24 67.5t-88 67.5z" />
    <glyph glyph-name="dieresis" unicode="&#xa8;" horiz-adv-x="880" 
d="M102 1155v266h285v-266h-285zM496 1155v266h282v-266h-282z" />
    <glyph glyph-name="copyright" unicode="&#xa9;" horiz-adv-x="1693" 
d="M709 711q0 -103 35.5 -165.5t101.5 -62.5q102 0 123 119h264q-8 -107 -64 -182.5t-139 -110.5t-184 -35q-187 0 -294.5 119t-107.5 318t107.5 317.5t294.5 118.5q101 0 183.5 -35t138 -110.5t63.5 -182.5h-262q-21 119 -123 119q-66 0 -101.5 -62t-35.5 -165zM113 711
q0 200 98 368.5t266.5 266.5t368.5 98t369 -98t267.5 -266.5t98.5 -368.5t-98.5 -368t-267.5 -265.5t-369 -97.5t-368.5 97.5t-266.5 265.5t-98 368zM227 711q0 -171 82.5 -315t225 -227t311.5 -83q127 0 241.5 49t197.5 132.5t132 199.5t49 244q0 171 -82.5 315
t-225.5 227.5t-312 83.5t-311.5 -83.5t-225 -227.5t-82.5 -315z" />
    <glyph glyph-name="ordfeminine" unicode="&#xaa;" horiz-adv-x="821" 
d="M113 446v187h606v-187h-606zM723 739h-213v103q-28 -57 -85.5 -87t-123.5 -30q-102 0 -157.5 52t-55.5 145q0 89 56 143.5t157 73.5l193 37v26q0 94 -80 94t-80 -94h-225q3 111 81.5 174.5t223.5 63.5q153 0 231 -68.5t78 -202.5v-430zM379 877q49 0 82 36t33 107v24
l-103 -20q-82 -14 -82 -80q0 -30 19.5 -48.5t50.5 -18.5z" />
    <glyph glyph-name="guillemotleft" unicode="&#xab;" horiz-adv-x="1099" 
d="M371 479l200 -409h-256l-229 409l229 410h256zM801 479l200 -409h-256l-229 409l229 410h256z" />
    <glyph glyph-name="logicalnot" unicode="&#xac;" horiz-adv-x="1228" 
d="M160 535v253h909v-645h-250v392h-659z" />
    <glyph glyph-name="uni00AD" unicode="&#xad;" horiz-adv-x="745" 
d="M113 410v290h520v-290h-520z" />
    <glyph glyph-name="registered" unicode="&#xae;" horiz-adv-x="1140" 
d="M387 739v486h236q78 0 120.5 -40t42.5 -120q0 -45 -21 -83.5t-54 -53.5l94 -189h-148l-77 160h-56v-160h-137zM647 1063q0 51 -61 51h-62v-110h62q61 0 61 59zM102 971q0 127 62.5 235t170 171t234.5 63q193 0 331 -138t138 -331q0 -127 -63 -234.5t-171 -170t-235 -62.5
q-193 0 -330 137t-137 330zM193 971q0 -160 109.5 -272.5t266.5 -112.5t268 112.5t111 272.5t-111 273.5t-268 113.5q-156 0 -266 -113.5t-110 -273.5z" />
    <glyph glyph-name="macron" unicode="&#xaf;" horiz-adv-x="714" 
d="M612 1176h-510v229h510v-229z" />
    <glyph glyph-name="degree" unicode="&#xb0;" horiz-adv-x="858" 
d="M102 1120q0 132 95.5 226t230.5 94t231.5 -94t96.5 -226q0 -131 -96 -223t-232 -92q-135 0 -230.5 91.5t-95.5 223.5zM309 1120q0 -51 35 -88t84 -37t85 37t36 88q0 53 -36 91t-85 38t-84 -38t-35 -91z" />
    <glyph glyph-name="plusminus" unicode="&#xb1;" horiz-adv-x="1228" 
d="M119 696v254h362v310h264v-310h363v-254h-363v-307h-264v307h-362zM119 0v254h989v-254h-989z" />
    <glyph glyph-name="twosuperior" unicode="&#xb2;" horiz-adv-x="700" 
d="M63 655v179l308 268q43 46 43 96q0 28 -16.5 47t-45.5 19q-67 0 -67 -103h-228q-2 124 75.5 199.5t225.5 75.5q126 0 206.5 -66t80.5 -172q0 -77 -32.5 -131t-88.5 -100l-143 -121h254v-191h-572z" />
    <glyph glyph-name="threesuperior" unicode="&#xb3;" horiz-adv-x="720" 
d="M360 641q-159 0 -237 63t-80 179h231q1 -36 21.5 -57t50.5 -21q31 0 53.5 21t22.5 57q0 84 -98 84h-41v149h20q49 0 81 22.5t32 67.5q0 32 -19 51t-47 19t-44.5 -21t-16.5 -57h-226q0 108 75 173t220 65q137 0 209 -64.5t72 -148.5q0 -54 -33.5 -102.5t-89.5 -61.5
q60 -16 104 -65t44 -117q0 -103 -85.5 -169.5t-218.5 -66.5z" />
    <glyph glyph-name="acute" unicode="&#xb4;" horiz-adv-x="512" 
d="M180 1421h328l-195 -305h-245z" />
    <glyph glyph-name="mu" unicode="&#xb5;" horiz-adv-x="1112" 
d="M668 1024h342v-1024h-326v150q-90 -151 -235 -170h-5v-338h-342v1382h342v-621q0 -80 26.5 -116.5t80.5 -36.5q58 0 87.5 53.5t29.5 147.5v573z" />
    <glyph glyph-name="paragraph" unicode="&#xb6;" horiz-adv-x="1327" 
d="M92 991q0 213 121.5 321.5t325.5 108.5h256v-1421h-250v561h-6q-204 0 -325.5 108.5t-121.5 321.5zM924 0v1421h250v-1421h-250z" />
    <glyph glyph-name="periodcentered" unicode="&#xb7;" horiz-adv-x="600" 
d="M123 383v354h354v-354h-354z" />
    <glyph glyph-name="cedilla" unicode="&#xb8;" horiz-adv-x="575" 
d="M518 -229q-1 -98 -69.5 -149.5t-178.5 -51.5q-67 0 -147 27v155q78 -35 143 -35q35 0 55.5 14.5t20.5 37.5q0 22 -16.5 32.5t-40.5 10.5q-34 0 -78 -21l-60 72l123 162h119l-76 -107q6 2 19 2q181 0 186 -149z" />
    <glyph glyph-name="onesuperior" unicode="&#xb9;" horiz-adv-x="579" 
d="M471 655h-235v529l-168 -121v227l176 131h227v-766z" />
    <glyph glyph-name="ordmasculine" unicode="&#xba;" horiz-adv-x="843" 
d="M119 446v187h606v-187h-606zM422 725q-154 0 -249 96t-95 260q0 165 95 262t249 97t250 -97t96 -262q0 -164 -96 -260t-250 -96zM422 887q51 0 78.5 52.5t27.5 141.5q0 90 -27.5 143.5t-78.5 53.5t-79 -53.5t-28 -143.5q0 -88 28 -141t79 -53z" />
    <glyph glyph-name="guillemotright" unicode="&#xbb;" horiz-adv-x="1099" 
d="M528 70l201 409l-201 410h256l230 -410l-230 -409h-256zM98 70l201 409l-201 410h256l230 -410l-230 -409h-256z" />
    <glyph glyph-name="onequarter" unicode="&#xbc;" horiz-adv-x="1482" 
d="M1333 0h-213v135h-338v182l308 449h243v-457h84v-174h-84v-135zM1120 309v215l-145 -215h145zM164 0l926 1421h204l-923 -1421h-207zM449 655h-236v529l-168 -121v227l176 131h228v-766z" />
    <glyph glyph-name="onehalf" unicode="&#xbd;" horiz-adv-x="1527" 
d="M893 0v178l307 268q43 46 43 97q0 28 -16 46.5t-45 18.5q-68 0 -68 -102h-227q-2 123 75 198.5t226 75.5q126 0 206.5 -65.5t80.5 -171.5q0 -131 -121 -232l-144 -121h254v-190h-571zM164 0l926 1421h204l-923 -1421h-207zM449 655h-236v529l-168 -121v227l176 131h228
v-766z" />
    <glyph glyph-name="threequarters" unicode="&#xbe;" horiz-adv-x="1619" 
d="M1470 0h-213v135h-337v182l307 449h243v-457h84v-174h-84v-135zM1257 309v215l-145 -215h145zM367 641q-159 0 -237.5 63t-80.5 179h232q1 -36 21 -57t50 -21q31 0 53.5 21t22.5 57q0 84 -98 84h-41v149h20q49 0 81 22.5t32 67.5q0 32 -19 51t-47 19t-44.5 -21t-16.5 -57
h-225q0 108 75 173t220 65q137 0 208.5 -64t71.5 -149q0 -54 -33.5 -102.5t-89.5 -61.5q60 -16 104 -65t44 -117q0 -103 -85 -169.5t-218 -66.5zM299 0l926 1421h205l-924 -1421h-207z" />
    <glyph glyph-name="questiondown" unicode="&#xbf;" horiz-adv-x="976" 
d="M16 -47q0 83 34.5 151t84 110.5t99 76.5t85 64.5t37.5 58.5l2 32h273l4 -36q7 -59 -9.5 -107t-46 -78t-65.5 -59.5t-68 -52.5t-53.5 -56.5t-21.5 -72.5q0 -57 28.5 -89t83.5 -32q64 0 99.5 47t35.5 131h343q0 -130 -52.5 -233.5t-162 -166.5t-261.5 -63
q-214 0 -341.5 109t-127.5 266zM676 1024v-354h-354v354h354z" />
    <glyph glyph-name="Agrave" unicode="&#xc0;" horiz-adv-x="1409" 
d="M1008 0l-64 236h-487l-64 -236h-362l438 1421h471l438 -1421h-370zM702 1110l-159 -582h317zM414 1817h325l113 -306h-244z" />
    <glyph glyph-name="Aacute" unicode="&#xc1;" horiz-adv-x="1409" 
d="M1008 0l-64 236h-487l-64 -236h-362l438 1421h471l438 -1421h-370zM702 1110l-159 -582h317zM662 1817h327l-194 -306h-246z" />
    <glyph glyph-name="Acircumflex" unicode="&#xc2;" horiz-adv-x="1409" 
d="M1008 0l-64 236h-487l-64 -236h-362l438 1421h471l438 -1421h-370zM702 1110l-159 -582h317zM543 1817h313l186 -306h-221l-121 117l-120 -117h-222z" />
    <glyph glyph-name="Atilde" unicode="&#xc3;" horiz-adv-x="1409" 
d="M1008 0l-64 236h-487l-64 -236h-362l438 1421h471l438 -1421h-370zM702 1110l-159 -582h317zM844 1530q-44 0 -127 37t-96 37q-31 0 -31 -74h-201q0 67 8 119t26.5 95.5t53 67t84.5 23.5q43 0 125 -37t96 -37q33 0 33 74h199q0 -54 -4.5 -97t-16 -83t-30.5 -66.5
t-49 -42.5t-70 -16z" />
    <glyph glyph-name="Adieresis" unicode="&#xc4;" horiz-adv-x="1409" 
d="M1008 0l-64 236h-487l-64 -236h-362l438 1421h471l438 -1421h-370zM702 1110l-159 -582h317zM362 1550v267h285v-267h-285zM756 1550v267h282v-267h-282z" />
    <glyph glyph-name="Aring" unicode="&#xc5;" horiz-adv-x="1409" 
d="M440 1530q0 106 77.5 181t187.5 75t188 -75t78 -181q0 -61 -29 -117l436 -1413h-370l-64 236h-487l-64 -236h-362l436 1415q-27 59 -27 115zM702 1110l-159 -582h317zM600 1530q0 -46 30.5 -77.5t74.5 -31.5q46 0 77 31.5t31 77.5q0 47 -31 79.5t-77 32.5
q-44 0 -74.5 -32.5t-30.5 -79.5z" />
    <glyph glyph-name="AE" unicode="&#xc6;" horiz-adv-x="2009" 
d="M684 1421h1206v-309h-616v-244h555v-293h-555v-266h633v-309h-992v238h-456l-119 -238h-385zM606 526h309v604z" />
    <glyph glyph-name="Ccedilla" unicode="&#xc7;" horiz-adv-x="1400" 
d="M662 -430q-68 0 -148 27v155q78 -35 143 -35q35 0 55.5 14.5t20.5 37.5q0 22 -16.5 32.5t-40.5 10.5q-34 0 -78 -21l-59 72l90 119q-259 32 -413.5 228.5t-154.5 500.5q0 331 182.5 533t479.5 202q178 0 316 -66t219 -191.5t88 -293.5h-375q-16 111 -78 175.5t-170 64.5
q-131 0 -207 -116t-76 -308t76 -308t207 -116q108 0 170 64t78 175h377q-11 -175 -95 -300t-214 -186t-294 -65l-40 -57q6 2 18 2q81 0 133.5 -38t52.5 -113q0 -96 -68.5 -147.5t-178.5 -51.5z" />
    <glyph glyph-name="Egrave" unicode="&#xc8;" horiz-adv-x="1224" 
d="M131 0v1421h975v-309h-617v-244h555v-293h-555v-266h633v-309h-991zM334 1817h325l113 -306h-244z" />
    <glyph glyph-name="Eacute" unicode="&#xc9;" horiz-adv-x="1224" 
d="M131 0v1421h975v-309h-617v-244h555v-293h-555v-266h633v-309h-991zM582 1817h327l-194 -306h-246z" />
    <glyph glyph-name="Ecircumflex" unicode="&#xca;" horiz-adv-x="1224" 
d="M131 0v1421h975v-309h-617v-244h555v-293h-555v-266h633v-309h-991zM463 1817h313l187 -306h-222l-120 117l-121 -117h-221z" />
    <glyph glyph-name="Edieresis" unicode="&#xcb;" horiz-adv-x="1224" 
d="M131 0v1421h975v-309h-617v-244h555v-293h-555v-266h633v-309h-991zM283 1550v267h284v-267h-284zM676 1550v267h282v-267h-282z" />
    <glyph glyph-name="Igrave" unicode="&#xcc;" horiz-adv-x="620" 
d="M131 0v1421h358v-1421h-358zM25 1817h325l113 -306h-244z" />
    <glyph glyph-name="Iacute" unicode="&#xcd;" horiz-adv-x="620" 
d="M131 0v1421h358v-1421h-358zM272 1817h328l-194 -306h-246z" />
    <glyph glyph-name="Icircumflex" unicode="&#xce;" horiz-adv-x="620" 
d="M131 0v1421h358v-1421h-358zM154 1817h313l186 -306h-221l-121 117l-121 -117h-221z" />
    <glyph glyph-name="Idieresis" unicode="&#xcf;" horiz-adv-x="620" 
d="M131 0v1421h358v-1421h-358zM-27 1550v267h285v-267h-285zM367 1550v267h282v-267h-282z" />
    <glyph glyph-name="Eth" unicode="&#xd0;" horiz-adv-x="1449" 
d="M172 1421h528q144 0 260 -35.5t195.5 -98.5t132.5 -153t77 -195t24 -228t-24 -228t-77 -195t-132.5 -153.5t-195.5 -99t-260 -35.5h-528v569h-123v283h123v569zM530 311h166q146 0 231 97.5t85 302.5q0 204 -85 301.5t-231 97.5h-166v-258h166v-283h-166v-258z" />
    <glyph glyph-name="Ntilde" unicode="&#xd1;" horiz-adv-x="1488" 
d="M1358 1421v-1421h-426l-453 926v-926h-348v1421h422l457 -929v929h348zM893 1530q-44 0 -127 37t-96 37q-31 0 -31 -74h-201q0 67 8 119t26.5 95.5t53 67t84.5 23.5q43 0 125 -37t96 -37q33 0 33 74h199q0 -54 -4.5 -97t-16 -83t-30.5 -66.5t-49 -42.5t-70 -16z" />
    <glyph glyph-name="Ograve" unicode="&#xd2;" horiz-adv-x="1443" 
d="M440 711q0 -194 76 -310t207 -116t207 116t76 310t-76 310t-207 116t-207 -116t-76 -310zM1382 711q0 -331 -181.5 -533.5t-477.5 -202.5q-196 0 -346.5 91.5t-233 258.5t-82.5 386q0 331 182.5 533t479.5 202q296 0 477.5 -202t181.5 -533zM436 1817h326l112 -306h-243z
" />
    <glyph glyph-name="Oacute" unicode="&#xd3;" horiz-adv-x="1443" 
d="M440 711q0 -194 76 -310t207 -116t207 116t76 310t-76 310t-207 116t-207 -116t-76 -310zM1382 711q0 -331 -181.5 -533.5t-477.5 -202.5q-196 0 -346.5 91.5t-233 258.5t-82.5 386q0 331 182.5 533t479.5 202q296 0 477.5 -202t181.5 -533zM684 1817h328l-195 -306h-246
z" />
    <glyph glyph-name="Ocircumflex" unicode="&#xd4;" horiz-adv-x="1443" 
d="M440 711q0 -194 76 -310t207 -116t207 116t76 310t-76 310t-207 116t-207 -116t-76 -310zM1382 711q0 -331 -181.5 -533.5t-477.5 -202.5q-196 0 -346.5 91.5t-233 258.5t-82.5 386q0 331 182.5 533t479.5 202q296 0 477.5 -202t181.5 -533zM565 1817h314l186 -306h-221
l-121 117l-121 -117h-221z" />
    <glyph glyph-name="Otilde" unicode="&#xd5;" horiz-adv-x="1443" 
d="M440 711q0 -194 76 -310t207 -116t207 116t76 310t-76 310t-207 116t-207 -116t-76 -310zM1382 711q0 -331 -181.5 -533.5t-477.5 -202.5q-196 0 -346.5 91.5t-233 258.5t-82.5 386q0 331 182.5 533t479.5 202q296 0 477.5 -202t181.5 -533zM866 1530q-44 0 -127 37
t-96 37q-31 0 -31 -74h-200q0 67 8 119t26.5 95.5t53 67t84.5 23.5q43 0 125 -37t96 -37q33 0 33 74h198q0 -54 -4.5 -97t-16 -83t-30.5 -66.5t-49 -42.5t-70 -16z" />
    <glyph glyph-name="Odieresis" unicode="&#xd6;" horiz-adv-x="1443" 
d="M440 711q0 -194 76 -310t207 -116t207 116t76 310t-76 310t-207 116t-207 -116t-76 -310zM1382 711q0 -331 -181.5 -533.5t-477.5 -202.5q-196 0 -346.5 91.5t-233 258.5t-82.5 386q0 331 182.5 533t479.5 202q296 0 477.5 -202t181.5 -533zM385 1550v267h285v-267h-285z
M778 1550v267h283v-267h-283z" />
    <glyph glyph-name="multiply" unicode="&#xd7;" horiz-adv-x="1228" 
d="M307 176l-178 180l303 303l-303 306l180 180l303 -305l306 305l180 -180l-305 -306l305 -303l-178 -180l-308 305z" />
    <glyph glyph-name="Oslash" unicode="&#xd8;" horiz-adv-x="1464" 
d="M735 -25q-157 0 -299 66l-69 -102h-299l172 256q-166 199 -166 516q0 331 182 533t479 202q160 0 299 -68l68 103h301l-174 -256q166 -203 166 -514q0 -331 -182 -533.5t-478 -202.5zM1034 711q0 103 -24 186l-400 -596q61 -33 125 -33q136 0 217.5 124.5t81.5 318.5z
M436 711q0 -99 23 -189l401 596q-56 35 -125 35q-136 0 -217.5 -124t-81.5 -318z" />
    <glyph glyph-name="Ugrave" unicode="&#xd9;" horiz-adv-x="1370" 
d="M686 -25q-273 0 -422 141.5t-149 424.5v880h358v-880q0 -123 57 -188.5t156 -65.5q98 0 154.5 65.5t56.5 188.5v880h358v-880q0 -282 -149 -424t-420 -142zM399 1817h326l113 -306h-244z" />
    <glyph glyph-name="Uacute" unicode="&#xda;" horiz-adv-x="1370" 
d="M686 -25q-273 0 -422 141.5t-149 424.5v880h358v-880q0 -123 57 -188.5t156 -65.5q98 0 154.5 65.5t56.5 188.5v880h358v-880q0 -282 -149 -424t-420 -142zM647 1817h328l-195 -306h-245z" />
    <glyph glyph-name="Ucircumflex" unicode="&#xdb;" horiz-adv-x="1370" 
d="M686 -25q-273 0 -422 141.5t-149 424.5v880h358v-880q0 -123 57 -188.5t156 -65.5q98 0 154.5 65.5t56.5 188.5v880h358v-880q0 -282 -149 -424t-420 -142zM528 1817h314l186 -306h-221l-121 117l-121 -117h-221z" />
    <glyph glyph-name="Udieresis" unicode="&#xdc;" horiz-adv-x="1370" 
d="M686 -25q-273 0 -422 141.5t-149 424.5v880h358v-880q0 -123 57 -188.5t156 -65.5q98 0 154.5 65.5t56.5 188.5v880h358v-880q0 -282 -149 -424t-420 -142zM348 1550v267h285v-267h-285zM741 1550v267h283v-267h-283z" />
    <glyph glyph-name="Yacute" unicode="&#xdd;" horiz-adv-x="1316" 
d="M477 0v512l-473 909h406l254 -508l251 508h398l-479 -919v-502h-357zM623 1817h327l-194 -306h-246z" />
    <glyph glyph-name="Thorn" unicode="&#xde;" horiz-adv-x="1241" 
d="M489 1421v-211h168q122 0 219 -27.5t172 -84.5t115.5 -153.5t40.5 -227.5t-40.5 -227t-115.5 -152.5t-172 -83.5t-219 -27h-168v-227h-358v1421h358zM633 930h-144v-422h144q93 0 145.5 52t52.5 157t-52.5 159t-145.5 54z" />
    <glyph glyph-name="germandbls" unicode="&#xdf;" horiz-adv-x="1290" 
d="M612 -6v264q69 -20 160 -20q60 0 93.5 30.5t33.5 77.5q0 59 -82 109l-69 43q-75 43 -110.5 89.5t-35.5 117.5q0 44 30 99.5t65.5 99.5t65.5 97t30 93q0 56 -38 86t-98 30q-71 0 -109 -48.5t-38 -129.5v-1032h-338v762h-127v262h127v33q0 187 129 288t338 101
q130 0 236.5 -35t173.5 -107.5t67 -170.5q0 -45 -18.5 -87t-45 -73t-53 -58.5t-45 -54t-18.5 -49.5q0 -29 16 -49.5t58 -48.5l47 -31q100 -65 148 -147.5t48 -190.5q0 -93 -34.5 -165t-94.5 -116t-137 -66t-166 -22q-93 0 -209 19z" />
    <glyph glyph-name="agrave" unicode="&#xe0;" horiz-adv-x="1095" 
d="M1006 0h-318v154q-42 -86 -128 -131.5t-183 -45.5q-154 0 -237 78t-83 217q0 132 85 213.5t233 110.5l291 55v45q0 71 -30.5 103t-90.5 32q-59 0 -92 -35t-33 -104h-330q3 164 121 259.5t334 95.5q229 0 345 -100t116 -296v-651zM494 205q73 0 122.5 54.5t49.5 158.5v37
l-154 -29q-63 -11 -94 -43t-31 -76q0 -47 29.5 -74.5t77.5 -27.5zM260 1421h326l112 -305h-243z" />
    <glyph glyph-name="aacute" unicode="&#xe1;" horiz-adv-x="1095" 
d="M1006 0h-318v154q-42 -86 -128 -131.5t-183 -45.5q-154 0 -237 78t-83 217q0 132 85 213.5t233 110.5l291 55v45q0 71 -30.5 103t-90.5 32q-59 0 -92 -35t-33 -104h-330q3 164 121 259.5t334 95.5q229 0 345 -100t116 -296v-651zM494 205q73 0 122.5 54.5t49.5 158.5v37
l-154 -29q-63 -11 -94 -43t-31 -76q0 -47 29.5 -74.5t77.5 -27.5zM508 1421h328l-195 -305h-246z" />
    <glyph glyph-name="acircumflex" unicode="&#xe2;" horiz-adv-x="1095" 
d="M1006 0h-318v154q-42 -86 -128 -131.5t-183 -45.5q-154 0 -237 78t-83 217q0 132 85 213.5t233 110.5l291 55v45q0 71 -30.5 103t-90.5 32q-59 0 -92 -35t-33 -104h-330q3 164 121 259.5t334 95.5q229 0 345 -100t116 -296v-651zM494 205q73 0 122.5 54.5t49.5 158.5v37
l-154 -29q-63 -11 -94 -43t-31 -76q0 -47 29.5 -74.5t77.5 -27.5zM389 1421h313l187 -305h-221l-121 117l-121 -117h-221z" />
    <glyph glyph-name="atilde" unicode="&#xe3;" horiz-adv-x="1095" 
d="M1006 0h-318v154q-42 -86 -128 -131.5t-183 -45.5q-154 0 -237 78t-83 217q0 132 85 213.5t233 110.5l291 55v45q0 71 -30.5 103t-90.5 32q-59 0 -92 -35t-33 -104h-330q3 164 121 259.5t334 95.5q229 0 345 -100t116 -296v-651zM494 205q73 0 122.5 54.5t49.5 158.5v37
l-154 -29q-63 -11 -94 -43t-31 -76q0 -47 29.5 -74.5t77.5 -27.5zM690 1135q-44 0 -127 36.5t-96 36.5q-31 0 -31 -73h-200q0 67 8 119t26.5 95.5t53 67t84.5 23.5q43 0 125 -37t96 -37q33 0 33 74h198q0 -54 -4.5 -97t-16 -83t-30.5 -66.5t-49 -42.5t-70 -16z" />
    <glyph glyph-name="adieresis" unicode="&#xe4;" horiz-adv-x="1095" 
d="M1006 0h-318v154q-42 -86 -128 -131.5t-183 -45.5q-154 0 -237 78t-83 217q0 132 85 213.5t233 110.5l291 55v45q0 71 -30.5 103t-90.5 32q-59 0 -92 -35t-33 -104h-330q3 164 121 259.5t334 95.5q229 0 345 -100t116 -296v-651zM494 205q73 0 122.5 54.5t49.5 158.5v37
l-154 -29q-63 -11 -94 -43t-31 -76q0 -47 29.5 -74.5t77.5 -27.5zM209 1155v266h285v-266h-285zM602 1155v266h283v-266h-283z" />
    <glyph glyph-name="aring" unicode="&#xe5;" horiz-adv-x="1095" 
d="M1006 0h-318v154q-42 -86 -128 -131.5t-183 -45.5q-154 0 -237 78t-83 217q0 132 85 213.5t233 110.5l291 55v45q0 71 -30.5 103t-90.5 32q-59 0 -92 -35t-33 -104h-330q3 164 121 259.5t334 95.5q229 0 345 -100t116 -296v-651zM494 205q73 0 122.5 54.5t49.5 158.5v37
l-154 -29q-63 -11 -94 -43t-31 -76q0 -47 29.5 -74.5t77.5 -27.5zM283 1319q0 106 77 181t187 75t188 -75t78 -181t-78 -180t-188 -74t-187 74t-77 180zM442 1319q0 -46 30.5 -77.5t74.5 -31.5q46 0 77 31.5t31 77.5q0 47 -31 80t-77 33q-44 0 -74.5 -33t-30.5 -80z" />
    <glyph glyph-name="ae" unicode="&#xe6;" horiz-adv-x="1710" 
d="M479 623h183v65q0 143 -121 143q-60 0 -91.5 -35.5t-31.5 -103.5h-334q0 164 118 259.5t337 95.5t319 -138q56 66 142.5 102t183.5 36q213 0 338 -145t125 -386v-88h-668q3 -92 47 -152.5t117 -60.5q49 0 86 33t47 100h362q-30 -171 -164 -271t-315 -100
q-108 0 -204.5 46.5t-147.5 123.5q-63 -78 -168 -124t-213 -46q-187 0 -278 84.5t-91 227.5q0 153 105 243.5t317 90.5zM662 418v6h-142q-63 0 -99 -32t-36 -81q0 -48 30.5 -77t86.5 -29q74 0 117 55.5t43 157.5zM983 621h309q-1 92 -42.5 146t-104.5 54q-67 0 -110.5 -55
t-51.5 -145z" />
    <glyph glyph-name="ccedilla" unicode="&#xe7;" horiz-adv-x="1118" 
d="M801 -229q-1 -98 -69.5 -149.5t-178.5 -51.5q-67 0 -147 27v155q78 -35 143 -35q35 0 55.5 14.5t20.5 37.5q0 22 -17 32.5t-41 10.5q-34 0 -78 -21l-59 72l88 117q-214 17 -337.5 158.5t-123.5 373.5q0 247 139.5 391t376.5 144q209 0 344.5 -111.5t147.5 -308.5h-354
q-4 89 -42.5 132.5t-97.5 43.5q-70 0 -113.5 -75t-43.5 -216t43.5 -216t113.5 -75q59 0 97.5 43.5t42.5 132.5h354q-12 -181 -127.5 -290.5t-298.5 -124.5l-43 -64q6 2 18 2q182 0 187 -149z" />
    <glyph glyph-name="egrave" unicode="&#xe8;" horiz-adv-x="1140" 
d="M569 -23q-145 0 -259 59t-183.5 182t-69.5 294q0 242 139 388.5t373 146.5t371 -140.5t137 -380.5v-98h-667q4 -100 49.5 -156.5t113.5 -56.5q52 0 88.5 34t45.5 99h362q-29 -173 -165 -272t-335 -99zM571 821q-63 0 -106 -55.5t-51 -144.5h309q-1 91 -43 145.5
t-109 54.5zM283 1421h325l113 -305h-244z" />
    <glyph glyph-name="eacute" unicode="&#xe9;" horiz-adv-x="1140" 
d="M569 -23q-145 0 -259 59t-183.5 182t-69.5 294q0 242 139 388.5t373 146.5t371 -140.5t137 -380.5v-98h-667q4 -100 49.5 -156.5t113.5 -56.5q52 0 88.5 34t45.5 99h362q-29 -173 -165 -272t-335 -99zM571 821q-63 0 -106 -55.5t-51 -144.5h309q-1 91 -43 145.5
t-109 54.5zM530 1421h328l-194 -305h-246z" />
    <glyph glyph-name="ecircumflex" unicode="&#xea;" horiz-adv-x="1140" 
d="M569 -23q-145 0 -259 59t-183.5 182t-69.5 294q0 242 139 388.5t373 146.5t371 -140.5t137 -380.5v-98h-667q4 -100 49.5 -156.5t113.5 -56.5q52 0 88.5 34t45.5 99h362q-29 -173 -165 -272t-335 -99zM571 821q-63 0 -106 -55.5t-51 -144.5h309q-1 91 -43 145.5
t-109 54.5zM412 1421h313l186 -305h-221l-121 117l-120 -117h-222z" />
    <glyph glyph-name="edieresis" unicode="&#xeb;" horiz-adv-x="1140" 
d="M569 -23q-145 0 -259 59t-183.5 182t-69.5 294q0 242 139 388.5t373 146.5t371 -140.5t137 -380.5v-98h-667q4 -100 49.5 -156.5t113.5 -56.5q52 0 88.5 34t45.5 99h362q-29 -173 -165 -272t-335 -99zM571 821q-63 0 -106 -55.5t-51 -144.5h309q-1 91 -43 145.5
t-109 54.5zM231 1155v266h285v-266h-285zM625 1155v266h282v-266h-282z" />
    <glyph glyph-name="igrave" unicode="&#xec;" horiz-adv-x="548" 
d="M104 1024h345v-1024h-345v1024zM-10 1421h325l113 -305h-244z" />
    <glyph glyph-name="iacute" unicode="&#xed;" horiz-adv-x="548" 
d="M104 1024h345v-1024h-345v1024zM238 1421h327l-194 -305h-246z" />
    <glyph glyph-name="icircumflex" unicode="&#xee;" horiz-adv-x="548" 
d="M104 1024h345v-1024h-345v1024zM119 1421h313l186 -305h-221l-121 117l-120 -117h-222z" />
    <glyph glyph-name="idieresis" unicode="&#xef;" horiz-adv-x="548" 
d="M104 1024h345v-1024h-345v1024zM-61 1155v266h284v-266h-284zM332 1155v266h282v-266h-282z" />
    <glyph glyph-name="eth" unicode="&#xf0;" horiz-adv-x="1177" 
d="M354 1421h357q42 -42 86 -94l178 62l47 -175l-111 -38q209 -312 209 -594q0 -287 -141 -446t-391 -159q-151 0 -270 58.5t-190 177t-71 279.5q0 113 37 207t99.5 155t144 94t172.5 33q65 0 139.5 -28t110.5 -70q-32 78 -125 204l-217 -75l-49 174l145 51
q-97 127 -160 184zM418 492q0 -118 44.5 -190.5t125.5 -72.5q82 0 127 72.5t45 190.5t-45 190t-127 72q-81 0 -125.5 -72t-44.5 -190z" />
    <glyph glyph-name="ntilde" unicode="&#xf1;" horiz-adv-x="1124" 
d="M1026 0h-344v606q0 168 -115 168q-59 0 -90 -50t-31 -128v-596h-344v1024h328v-150q44 75 115.5 124t161.5 49q161 0 240 -101.5t79 -279.5v-666zM709 1135q-44 0 -127.5 36.5t-96.5 36.5q-30 0 -30 -73h-201q0 67 8 119t26.5 95.5t53 67t84.5 23.5q43 0 125 -37t96 -37
q33 0 33 74h199q0 -54 -4.5 -97t-16 -83t-30.5 -66.5t-49 -42.5t-70 -16z" />
    <glyph glyph-name="ograve" unicode="&#xf2;" horiz-adv-x="1144" 
d="M571 -23q-229 0 -371.5 144.5t-142.5 390.5t142.5 390.5t371.5 144.5q230 0 373 -144.5t143 -390.5t-143 -390.5t-373 -144.5zM571 221q76 0 118 79.5t42 211.5t-42 211.5t-118 79.5q-75 0 -116 -79.5t-41 -211.5t41 -211.5t116 -79.5zM285 1421h325l113 -305h-244z" />
    <glyph glyph-name="oacute" unicode="&#xf3;" horiz-adv-x="1144" 
d="M571 -23q-229 0 -371.5 144.5t-142.5 390.5t142.5 390.5t371.5 144.5q230 0 373 -144.5t143 -390.5t-143 -390.5t-373 -144.5zM571 221q76 0 118 79.5t42 211.5t-42 211.5t-118 79.5q-75 0 -116 -79.5t-41 -211.5t41 -211.5t116 -79.5zM532 1421h328l-194 -305h-246z" />
    <glyph glyph-name="ocircumflex" unicode="&#xf4;" horiz-adv-x="1144" 
d="M571 -23q-229 0 -371.5 144.5t-142.5 390.5t142.5 390.5t371.5 144.5q230 0 373 -144.5t143 -390.5t-143 -390.5t-373 -144.5zM571 221q76 0 118 79.5t42 211.5t-42 211.5t-118 79.5q-75 0 -116 -79.5t-41 -211.5t41 -211.5t116 -79.5zM414 1421h313l186 -305h-221
l-121 117l-120 -117h-222z" />
    <glyph glyph-name="otilde" unicode="&#xf5;" horiz-adv-x="1144" 
d="M571 -23q-229 0 -371.5 144.5t-142.5 390.5t142.5 390.5t371.5 144.5q230 0 373 -144.5t143 -390.5t-143 -390.5t-373 -144.5zM571 221q76 0 118 79.5t42 211.5t-42 211.5t-118 79.5q-75 0 -116 -79.5t-41 -211.5t41 -211.5t116 -79.5zM715 1135q-44 0 -127 36.5
t-96 36.5q-31 0 -31 -73h-201q0 67 8 119t26.5 95.5t53 67t84.5 23.5q43 0 125 -37t96 -37q33 0 33 74h199q0 -54 -4.5 -97t-16 -83t-30.5 -66.5t-49 -42.5t-70 -16z" />
    <glyph glyph-name="odieresis" unicode="&#xf6;" horiz-adv-x="1144" 
d="M571 -23q-229 0 -371.5 144.5t-142.5 390.5t142.5 390.5t371.5 144.5q230 0 373 -144.5t143 -390.5t-143 -390.5t-373 -144.5zM571 221q76 0 118 79.5t42 211.5t-42 211.5t-118 79.5q-75 0 -116 -79.5t-41 -211.5t41 -211.5t116 -79.5zM233 1155v266h285v-266h-285z
M627 1155v266h282v-266h-282z" />
    <glyph glyph-name="divide" unicode="&#xf7;" horiz-adv-x="1228" 
d="M117 535v253h993v-253h-993zM438 23v342h350v-342h-350zM438 956v342h350v-342h-350z" />
    <glyph glyph-name="oslash" unicode="&#xf8;" horiz-adv-x="1153" 
d="M575 -23q-102 0 -190 31l-43 -69h-236l107 174q-152 146 -152 399q0 246 142.5 390.5t371.5 144.5q103 0 191 -31l43 69h238l-109 -174q154 -148 154 -399q0 -246 -143.5 -390.5t-373.5 -144.5zM780 512q0 54 -14 119l-256 -418q30 -12 65 -12q93 0 149 88t56 223z
M373 512q0 -64 12 -119l254 416q-31 14 -64 14q-92 0 -147 -88t-55 -223z" />
    <glyph glyph-name="ugrave" unicode="&#xf9;" horiz-adv-x="1112" 
d="M1010 0h-328v150q-45 -76 -113 -124.5t-157 -48.5q-158 0 -236 101.5t-78 279.5v666h344v-602q0 -90 26 -131t81 -41q58 0 87.5 50.5t29.5 139.5v584h344v-1024zM266 1421h326l113 -305h-244z" />
    <glyph glyph-name="uacute" unicode="&#xfa;" horiz-adv-x="1112" 
d="M1010 0h-328v150q-45 -76 -113 -124.5t-157 -48.5q-158 0 -236 101.5t-78 279.5v666h344v-602q0 -90 26 -131t81 -41q58 0 87.5 50.5t29.5 139.5v584h344v-1024zM514 1421h328l-195 -305h-246z" />
    <glyph glyph-name="ucircumflex" unicode="&#xfb;" horiz-adv-x="1112" 
d="M1010 0h-328v150q-45 -76 -113 -124.5t-157 -48.5q-158 0 -236 101.5t-78 279.5v666h344v-602q0 -90 26 -131t81 -41q58 0 87.5 50.5t29.5 139.5v584h344v-1024zM395 1421h314l186 -305h-221l-121 117l-121 -117h-221z" />
    <glyph glyph-name="udieresis" unicode="&#xfc;" horiz-adv-x="1112" 
d="M1010 0h-328v150q-45 -76 -113 -124.5t-157 -48.5q-158 0 -236 101.5t-78 279.5v666h344v-602q0 -90 26 -131t81 -41q58 0 87.5 50.5t29.5 139.5v584h344v-1024zM215 1155v266h285v-266h-285zM608 1155v266h283v-266h-283z" />
    <glyph glyph-name="yacute" unicode="&#xfd;" horiz-adv-x="1077" 
d="M264 -381q-82 0 -149 12v269q47 -6 90 -6q100 0 139 77l4 9l-336 1044h361l174 -682l170 682h352l-346 -1081q-29 -92 -81.5 -158t-117 -100.5t-128.5 -50t-132 -15.5zM498 1421h327l-194 -305h-246z" />
    <glyph glyph-name="thorn" unicode="&#xfe;" horiz-adv-x="1175" 
d="M1112 512q0 -247 -112 -391t-298 -144q-152 0 -256 134v-469h-344v1779h344v-508q105 134 256 134q186 0 298 -144t112 -391zM596 221q76 0 118 79.5t42 211.5t-42 211.5t-118 79.5q-75 0 -116.5 -79.5t-41.5 -211.5t41.5 -211.5t116.5 -79.5z" />
    <glyph glyph-name="ydieresis" unicode="&#xff;" horiz-adv-x="1077" 
d="M264 -381q-82 0 -149 12v269q47 -6 90 -6q100 0 139 77l4 9l-336 1044h361l174 -682l170 682h352l-346 -1081q-29 -92 -81.5 -158t-117 -100.5t-128.5 -50t-132 -15.5zM199 1155v266h284v-266h-284zM592 1155v266h282v-266h-282z" />
    <glyph glyph-name="Amacron" unicode="&#x100;" horiz-adv-x="1417" 
d="M1012 0l-64 236h-487l-64 -236h-362l438 1421h471l438 -1421h-370zM707 1110l-160 -582h317zM961 1571h-510v229h510v-229z" />
    <glyph glyph-name="amacron" unicode="&#x101;" horiz-adv-x="1095" 
d="M1006 0h-318v154q-42 -86 -128 -131.5t-183 -45.5q-154 0 -237 78t-83 217q0 132 85 213.5t233 110.5l291 55v45q0 71 -30.5 103t-90.5 32q-59 0 -92 -35t-33 -104h-330q3 164 121 259.5t334 95.5q229 0 345 -100t116 -296v-651zM494 205q73 0 122.5 54.5t49.5 158.5v37
l-154 -29q-63 -11 -94 -43t-31 -76q0 -47 29.5 -74.5t77.5 -27.5zM803 1176h-510v229h510v-229z" />
    <glyph glyph-name="Abreve" unicode="&#x102;" horiz-adv-x="1417" 
d="M1012 0l-64 236h-487l-64 -236h-362l438 1421h471l438 -1421h-370zM707 1110l-160 -582h317zM705 1491q-135 0 -223.5 90t-88.5 236h209q0 -43 27.5 -78t77.5 -35t76 34.5t26 78.5h211q0 -146 -88.5 -236t-226.5 -90z" />
    <glyph glyph-name="abreve" unicode="&#x103;" horiz-adv-x="1095" 
d="M1006 0h-318v154q-42 -86 -128 -131.5t-183 -45.5q-154 0 -237 78t-83 217q0 132 85 213.5t233 110.5l291 55v45q0 71 -30.5 103t-90.5 32q-59 0 -92 -35t-33 -104h-330q3 164 121 259.5t334 95.5q229 0 345 -100t116 -296v-651zM494 205q73 0 122.5 54.5t49.5 158.5v37
l-154 -29q-63 -11 -94 -43t-31 -76q0 -47 29.5 -74.5t77.5 -27.5zM547 1096q-135 0 -223 89.5t-88 235.5h208q0 -43 27.5 -77.5t77.5 -34.5t76 34t26 78h211q0 -146 -88.5 -235.5t-226.5 -89.5z" />
    <glyph glyph-name="Aogonek" unicode="&#x104;" horiz-adv-x="1417" 
d="M1012 0l-64 236h-487l-64 -236h-362l438 1421h471l438 -1421h-215q-53 -79 -53 -131q0 -29 20 -46.5t48 -17.5q42 0 90 19v-182q-19 -9 -71.5 -18t-92.5 -9q-92 0 -148.5 45t-56.5 121q0 99 109 219zM707 1110l-160 -582h317z" />
    <glyph glyph-name="aogonek" unicode="&#x105;" horiz-adv-x="1095" 
d="M784 -385q-92 0 -148 45t-56 121q0 103 108 219v154q-42 -86 -128 -131.5t-183 -45.5q-154 0 -237 78t-83 217q0 132 85 213.5t233 110.5l291 55v45q0 71 -30.5 103t-90.5 32q-59 0 -92 -35t-33 -104h-330q3 164 121 259.5t334 95.5q229 0 345 -100t116 -296v-651h-162
q-53 -79 -53 -131q0 -29 19.5 -46.5t47.5 -17.5q43 0 90 19v-182q-19 -9 -71.5 -18t-92.5 -9zM494 205q73 0 122.5 54.5t49.5 158.5v37l-154 -29q-63 -11 -94 -43t-31 -76q0 -47 29.5 -74.5t77.5 -27.5z" />
    <glyph glyph-name="Cacute" unicode="&#x106;" horiz-adv-x="1400" 
d="M440 711q0 -192 76 -308t207 -116q108 0 170 64t78 175h377q-8 -135 -60 -241t-137 -173t-193.5 -102t-234.5 -35q-196 0 -346.5 91.5t-233 258.5t-82.5 386q0 331 182.5 533t479.5 202q178 0 316 -66t219 -191.5t88 -293.5h-375q-16 111 -78 175.5t-170 64.5
q-131 0 -207 -116t-76 -308zM684 1817h328l-195 -306h-246z" />
    <glyph glyph-name="cacute" unicode="&#x107;" horiz-adv-x="1118" 
d="M573 -23q-237 0 -376.5 144t-139.5 391t139.5 391t376.5 144q209 0 344.5 -111.5t147.5 -308.5h-354q-4 89 -42.5 132.5t-97.5 43.5q-70 0 -113.5 -75t-43.5 -216t43.5 -216t113.5 -75q59 0 97.5 43.5t42.5 132.5h354q-12 -197 -147.5 -308.5t-344.5 -111.5zM535 1421
h327l-194 -305h-246z" />
    <glyph glyph-name="Ccircumflex" unicode="&#x108;" horiz-adv-x="1400" 
d="M440 711q0 -192 76 -308t207 -116q108 0 170 64t78 175h377q-8 -135 -60 -241t-137 -173t-193.5 -102t-234.5 -35q-196 0 -346.5 91.5t-233 258.5t-82.5 386q0 331 182.5 533t479.5 202q178 0 316 -66t219 -191.5t88 -293.5h-375q-16 111 -78 175.5t-170 64.5
q-131 0 -207 -116t-76 -308zM565 1817h314l186 -306h-221l-121 117l-121 -117h-221z" />
    <glyph glyph-name="ccircumflex" unicode="&#x109;" horiz-adv-x="1118" 
d="M573 -23q-237 0 -376.5 144t-139.5 391t139.5 391t376.5 144q209 0 344.5 -111.5t147.5 -308.5h-354q-4 89 -42.5 132.5t-97.5 43.5q-70 0 -113.5 -75t-43.5 -216t43.5 -216t113.5 -75q59 0 97.5 43.5t42.5 132.5h354q-12 -197 -147.5 -308.5t-344.5 -111.5zM416 1421
h313l186 -305h-221l-121 117l-120 -117h-222z" />
    <glyph glyph-name="Cdotaccent" unicode="&#x10a;" horiz-adv-x="1400" 
d="M440 711q0 -192 76 -308t207 -116q108 0 170 64t78 175h377q-8 -135 -60 -241t-137 -173t-193.5 -102t-234.5 -35q-196 0 -346.5 91.5t-233 258.5t-82.5 386q0 331 182.5 533t479.5 202q178 0 316 -66t219 -191.5t88 -293.5h-375q-16 111 -78 175.5t-170 64.5
q-131 0 -207 -116t-76 -308zM530 1550v267h385v-267h-385z" />
    <glyph glyph-name="cdotaccent" unicode="&#x10b;" horiz-adv-x="1118" 
d="M573 -23q-237 0 -376.5 144t-139.5 391t139.5 391t376.5 144q209 0 344.5 -111.5t147.5 -308.5h-354q-4 89 -42.5 132.5t-97.5 43.5q-70 0 -113.5 -75t-43.5 -216t43.5 -216t113.5 -75q59 0 97.5 43.5t42.5 132.5h354q-12 -197 -147.5 -308.5t-344.5 -111.5zM381 1155
v266h385v-266h-385z" />
    <glyph glyph-name="Ccaron" unicode="&#x10c;" horiz-adv-x="1400" 
d="M440 711q0 -192 76 -308t207 -116q108 0 170 64t78 175h377q-8 -135 -60 -241t-137 -173t-193.5 -102t-234.5 -35q-196 0 -346.5 91.5t-233 258.5t-82.5 386q0 331 182.5 533t479.5 202q178 0 316 -66t219 -191.5t88 -293.5h-375q-16 111 -78 175.5t-170 64.5
q-131 0 -207 -116t-76 -308zM879 1511h-314l-184 306h221l121 -117l121 117h221z" />
    <glyph glyph-name="ccaron" unicode="&#x10d;" horiz-adv-x="1118" 
d="M573 -23q-237 0 -376.5 144t-139.5 391t139.5 391t376.5 144q209 0 344.5 -111.5t147.5 -308.5h-354q-4 89 -42.5 132.5t-97.5 43.5q-70 0 -113.5 -75t-43.5 -216t43.5 -216t113.5 -75q59 0 97.5 43.5t42.5 132.5h354q-12 -197 -147.5 -308.5t-344.5 -111.5zM729 1116
h-313l-185 305h222l120 -116l121 116h221z" />
    <glyph glyph-name="Dcaron" unicode="&#x10e;" horiz-adv-x="1409" 
d="M131 1421h528q144 0 260 -35.5t195.5 -98.5t132.5 -153t77 -195t24 -228t-24 -228t-77 -195t-132.5 -153.5t-195.5 -99t-260 -35.5h-528v1421zM489 311h166q146 0 231 97.5t85 302.5q0 204 -85 301.5t-231 97.5h-166v-799zM821 1511h-313l-184 306h221l121 -117l120 117
h222z" />
    <glyph glyph-name="dcaron" unicode="&#x10f;" horiz-adv-x="1404" 
d="M473 -23q-186 0 -298 144t-112 391t112 391t298 144q151 0 256 -134v508h344v-1421h-328v131q-107 -154 -272 -154zM578 221q76 0 117.5 79.5t41.5 211.5t-41.5 211.5t-117.5 79.5q-75 0 -116.5 -79.5t-41.5 -211.5t41.5 -211.5t116.5 -79.5zM1198 1421h301l-156 -389
h-223z" />
    <glyph glyph-name="Dcroat" unicode="&#x110;" horiz-adv-x="1449" 
d="M172 1421h528q144 0 260 -35.5t195.5 -98.5t132.5 -153t77 -195t24 -228t-24 -228t-77 -195t-132.5 -153.5t-195.5 -99t-260 -35.5h-528v569h-123v283h123v569zM530 311h166q146 0 231 97.5t85 302.5q0 204 -85 301.5t-231 97.5h-166v-258h166v-283h-166v-258z" />
    <glyph glyph-name="dcroat" unicode="&#x111;" horiz-adv-x="1175" 
d="M63 512q0 247 112 391t298 144q151 0 256 -134v172h-168v215h168v121h344v-121h103v-215h-103v-1085h-328v131q-107 -154 -272 -154q-186 0 -298 144t-112 391zM578 803q-75 0 -116.5 -79.5t-41.5 -211.5t41.5 -211.5t116.5 -79.5q76 0 117.5 79.5t41.5 211.5
t-41.5 211.5t-117.5 79.5z" />
    <glyph glyph-name="Emacron" unicode="&#x112;" horiz-adv-x="1224" 
d="M131 0v1421h975v-309h-617v-244h555v-293h-555v-266h633v-309h-991zM877 1571h-510v229h510v-229z" />
    <glyph glyph-name="emacron" unicode="&#x113;" horiz-adv-x="1140" 
d="M569 -23q-145 0 -259 59t-183.5 182t-69.5 294q0 242 139 388.5t373 146.5t371 -140.5t137 -380.5v-98h-667q4 -100 49.5 -156.5t113.5 -56.5q52 0 88.5 34t45.5 99h362q-29 -173 -165 -272t-335 -99zM571 821q-63 0 -106 -55.5t-51 -144.5h309q-1 91 -43 145.5
t-109 54.5zM825 1176h-510v229h510v-229z" />
    <glyph glyph-name="Ebreve" unicode="&#x114;" horiz-adv-x="1224" 
d="M131 0v1421h975v-309h-617v-244h555v-293h-555v-266h633v-309h-991zM621 1491q-135 0 -223.5 90t-88.5 236h209q0 -43 27.5 -78t77.5 -35t76 34.5t26 78.5h211q0 -146 -88.5 -236t-226.5 -90z" />
    <glyph glyph-name="ebreve" unicode="&#x115;" horiz-adv-x="1140" 
d="M569 -23q-145 0 -259 59t-183.5 182t-69.5 294q0 242 139 388.5t373 146.5t371 -140.5t137 -380.5v-98h-667q4 -100 49.5 -156.5t113.5 -56.5q52 0 88.5 34t45.5 99h362q-29 -173 -165 -272t-335 -99zM571 821q-63 0 -106 -55.5t-51 -144.5h309q-1 91 -43 145.5
t-109 54.5zM569 1096q-135 0 -223 89.5t-88 235.5h209q0 -43 27 -77.5t77 -34.5t76.5 34.5t26.5 77.5h211q0 -146 -89 -235.5t-227 -89.5z" />
    <glyph glyph-name="Edotaccent" unicode="&#x116;" horiz-adv-x="1224" 
d="M131 0v1421h975v-309h-617v-244h555v-293h-555v-266h633v-309h-991zM428 1550v267h385v-267h-385z" />
    <glyph glyph-name="edotaccent" unicode="&#x117;" horiz-adv-x="1140" 
d="M569 -23q-145 0 -259 59t-183.5 182t-69.5 294q0 242 139 388.5t373 146.5t371 -140.5t137 -380.5v-98h-667q4 -100 49.5 -156.5t113.5 -56.5q52 0 88.5 34t45.5 99h362q-29 -173 -165 -272t-335 -99zM571 821q-63 0 -106 -55.5t-51 -144.5h309q-1 91 -43 145.5
t-109 54.5zM377 1155v266h385v-266h-385z" />
    <glyph glyph-name="Eogonek" unicode="&#x118;" horiz-adv-x="1224" 
d="M131 0v1421h975v-309h-617v-244h555v-293h-555v-266h633v-309q-55 -82 -55 -131q0 -29 20 -46.5t48 -17.5q43 0 90 19v-182q-19 -9 -71.5 -18t-92.5 -9q-92 0 -148.5 45t-56.5 121q0 96 107 219h-832z" />
    <glyph glyph-name="eogonek" unicode="&#x119;" horiz-adv-x="1140" 
d="M752 -385q-92 0 -148.5 45t-56.5 121q0 89 90 201q-57 -5 -68 -5q-145 0 -259 59t-183.5 182t-69.5 294q0 242 139 388.5t373 146.5t371 -140.5t137 -380.5v-98h-667q4 -100 49.5 -156.5t113.5 -56.5q52 0 88.5 34t45.5 99h362q-18 -104 -72.5 -176t-152.5 -141
q-38 -27 -62 -70t-24 -80t19 -56.5t48 -19.5q43 0 90 19v-182q-19 -9 -71 -18t-92 -9zM571 821q-63 0 -106 -55.5t-51 -144.5h309q-1 91 -43 145.5t-109 54.5z" />
    <glyph glyph-name="Ecaron" unicode="&#x11a;" horiz-adv-x="1224" 
d="M131 0v1421h975v-309h-617v-244h555v-293h-555v-266h633v-309h-991zM776 1511h-313l-184 306h221l121 -117l120 117h222z" />
    <glyph glyph-name="ecaron" unicode="&#x11b;" horiz-adv-x="1140" 
d="M569 -23q-145 0 -259 59t-183.5 182t-69.5 294q0 242 139 388.5t373 146.5t371 -140.5t137 -380.5v-98h-667q4 -100 49.5 -156.5t113.5 -56.5q52 0 88.5 34t45.5 99h362q-29 -173 -165 -272t-335 -99zM571 821q-63 0 -106 -55.5t-51 -144.5h309q-1 91 -43 145.5
t-109 54.5zM725 1116h-313l-185 305h222l120 -116l121 116h221z" />
    <glyph glyph-name="Gcircumflex" unicode="&#x11c;" horiz-adv-x="1468" 
d="M649 -25q-167 0 -300 89.5t-210.5 258t-77.5 388.5q0 331 182.5 533t479.5 202q261 0 432 -136t191 -374h-383q-10 93 -76.5 147t-159.5 54q-134 0 -210.5 -115t-76.5 -311q0 -200 79.5 -315t217.5 -115q102 0 176.5 64.5t98.5 178.5h-250v273h584v-797h-314v174
q-132 -199 -383 -199zM565 1817h314l186 -306h-221l-121 117l-121 -117h-221z" />
    <glyph glyph-name="gcircumflex" unicode="&#x11d;" horiz-adv-x="1177" 
d="M483 35q-187 0 -303.5 140.5t-116.5 365.5q0 226 118 366t300 140q160 0 267 -154v131h327v-961q0 -220 -132 -333t-368 -113q-129 0 -225 28t-152.5 77.5t-86 109.5t-35.5 133h373q3 -59 36.5 -95t94.5 -36q78 0 115.5 47t37.5 156v131q-46 -63 -111.5 -98t-138.5 -35z
M582 276q75 0 115 75.5t40 189.5q0 115 -40 190.5t-115 75.5q-73 0 -113.5 -75.5t-40.5 -190.5q0 -113 40.5 -189t113.5 -76zM418 1421h313l187 -305h-222l-121 117l-120 -117h-222z" />
    <glyph glyph-name="Gbreve" unicode="&#x11e;" horiz-adv-x="1468" 
d="M649 -25q-167 0 -300 89.5t-210.5 258t-77.5 388.5q0 331 182.5 533t479.5 202q261 0 432 -136t191 -374h-383q-10 93 -76.5 147t-159.5 54q-134 0 -210.5 -115t-76.5 -311q0 -200 79.5 -315t217.5 -115q102 0 176.5 64.5t98.5 178.5h-250v273h584v-797h-314v174
q-132 -199 -383 -199zM723 1491q-135 0 -223 90t-88 236h209q0 -43 27 -78t77 -35t76 34.5t26 78.5h211q0 -146 -88.5 -236t-226.5 -90z" />
    <glyph glyph-name="gbreve" unicode="&#x11f;" horiz-adv-x="1177" 
d="M483 35q-187 0 -303.5 140.5t-116.5 365.5q0 226 118 366t300 140q160 0 267 -154v131h327v-961q0 -220 -132 -333t-368 -113q-129 0 -225 28t-152.5 77.5t-86 109.5t-35.5 133h373q3 -59 36.5 -95t94.5 -36q78 0 115.5 47t37.5 156v131q-46 -63 -111.5 -98t-138.5 -35z
M582 276q75 0 115 75.5t40 189.5q0 115 -40 190.5t-115 75.5q-73 0 -113.5 -75.5t-40.5 -190.5q0 -113 40.5 -189t113.5 -76zM575 1096q-135 0 -223 89.5t-88 235.5h209q0 -43 27.5 -77.5t77.5 -34.5t76 34t26 78h211q0 -146 -89 -235.5t-227 -89.5z" />
    <glyph glyph-name="Gdotaccent" unicode="&#x120;" horiz-adv-x="1468" 
d="M649 -25q-167 0 -300 89.5t-210.5 258t-77.5 388.5q0 331 182.5 533t479.5 202q261 0 432 -136t191 -374h-383q-10 93 -76.5 147t-159.5 54q-134 0 -210.5 -115t-76.5 -311q0 -200 79.5 -315t217.5 -115q102 0 176.5 64.5t98.5 178.5h-250v273h584v-797h-314v174
q-132 -199 -383 -199zM530 1550v267h385v-267h-385z" />
    <glyph glyph-name="gdotaccent" unicode="&#x121;" horiz-adv-x="1177" 
d="M483 35q-187 0 -303.5 140.5t-116.5 365.5q0 226 118 366t300 140q160 0 267 -154v131h327v-961q0 -220 -132 -333t-368 -113q-129 0 -225 28t-152.5 77.5t-86 109.5t-35.5 133h373q3 -59 36.5 -95t94.5 -36q78 0 115.5 47t37.5 156v131q-46 -63 -111.5 -98t-138.5 -35z
M582 276q75 0 115 75.5t40 189.5q0 115 -40 190.5t-115 75.5q-73 0 -113.5 -75.5t-40.5 -190.5q0 -113 40.5 -189t113.5 -76zM383 1155v266h385v-266h-385z" />
    <glyph glyph-name="Gcommaaccent" unicode="&#x122;" horiz-adv-x="1468" 
d="M649 -25q-167 0 -300 89.5t-210.5 258t-77.5 388.5q0 331 182.5 533t479.5 202q261 0 432 -136t191 -374h-383q-10 93 -76.5 147t-159.5 54q-134 0 -210.5 -115t-76.5 -311q0 -200 79.5 -315t217.5 -115q102 0 176.5 64.5t98.5 178.5h-250v273h584v-797h-314v174
q-132 -199 -383 -199zM827 -92v-189q0 -154 -81.5 -221t-256.5 -67v135q89 0 122.5 32.5t33.5 86.5v4h-160v219h342z" />
    <glyph glyph-name="gcommaaccent" unicode="&#x123;" horiz-adv-x="1177" 
d="M483 35q-187 0 -303.5 140.5t-116.5 365.5q0 226 118 366t300 140q160 0 267 -154v131h327v-961q0 -220 -132 -333t-368 -113q-129 0 -225 28t-152.5 77.5t-86 109.5t-35.5 133h373q3 -59 36.5 -95t94.5 -36q78 0 115.5 47t37.5 156v131q-46 -63 -111.5 -98t-138.5 -35z
M582 276q75 0 115 75.5t40 189.5q0 115 -40 190.5t-115 75.5q-73 0 -113.5 -75.5t-40.5 -190.5q0 -113 40.5 -189t113.5 -76zM745 1130h-342v189q0 154 81.5 221.5t256.5 67.5v-135q-88 0 -121.5 -32.5t-33.5 -86.5v-4h159v-220z" />
    <glyph glyph-name="Hcircumflex" unicode="&#x124;" horiz-adv-x="1462" 
d="M131 0v1421h358v-547h484v547h358v-1421h-358v555h-484v-555h-358zM573 1817h314l186 -306h-221l-121 117l-121 -117h-221z" />
    <glyph glyph-name="hcircumflex" unicode="&#x125;" horiz-adv-x="1124" 
d="M1026 0h-344v606q0 168 -115 168q-59 0 -90 -50t-31 -128v-596h-344v1421h344v-536q37 71 107 116.5t156 45.5q158 0 237.5 -101.5t79.5 -279.5v-666zM113 1776h313l186 -306h-221l-121 117l-120 -117h-222z" />
    <glyph glyph-name="Hbar" unicode="&#x126;" horiz-adv-x="1544" 
d="M172 0v877h-123v282h123v262h358v-262h484v262h358v-262h123v-282h-123v-877h-358v358h-484v-358h-358zM530 678h484v199h-484v-199z" />
    <glyph glyph-name="hbar" unicode="&#x127;" horiz-adv-x="1130" 
d="M621 1085h-168v-200q37 71 106.5 116.5t155.5 45.5q158 0 237.5 -101.5t79.5 -279.5v-666h-344v606q0 168 -115 168q-59 0 -89.5 -50t-30.5 -128v-596h-344v1085h-103v215h103v121h344v-121h168v-215z" />
    <glyph glyph-name="Itilde" unicode="&#x128;" horiz-adv-x="620" 
d="M131 0v1421h358v-1421h-358zM455 1530q-44 0 -127.5 37t-96.5 37q-30 0 -30 -74h-201q0 67 8 119t26.5 95.5t53 67t84.5 23.5q43 0 125 -37t96 -37q33 0 33 74h199q0 -54 -4.5 -97t-16 -83t-30.5 -66.5t-49 -42.5t-70 -16z" />
    <glyph glyph-name="itilde" unicode="&#x129;" horiz-adv-x="548" 
d="M104 1024h345v-1024h-345v1024zM420 1135q-44 0 -127 36.5t-96 36.5q-31 0 -31 -73h-201q0 67 8 119t26.5 95.5t53 67t84.5 23.5q43 0 125 -37t96 -37q33 0 33 74h199q0 -54 -4.5 -97t-16 -83t-30.5 -66.5t-49 -42.5t-70 -16z" />
    <glyph glyph-name="Imacron" unicode="&#x12a;" horiz-adv-x="620" 
d="M131 0v1421h358v-1421h-358zM567 1571h-510v229h510v-229z" />
    <glyph glyph-name="imacron" unicode="&#x12b;" horiz-adv-x="548" 
d="M104 1024h345v-1024h-345v1024zM532 1176h-509v229h509v-229z" />
    <glyph glyph-name="Ibreve" unicode="&#x12c;" horiz-adv-x="620" 
d="M131 0v1421h358v-1421h-358zM311 1491q-135 0 -223 90t-88 236h209q0 -43 27 -78t77 -35t76.5 34.5t26.5 78.5h211q0 -146 -89 -236t-227 -90z" />
    <glyph glyph-name="ibreve" unicode="&#x12d;" horiz-adv-x="548" 
d="M104 1024h345v-1024h-345v1024zM276 1096q-135 0 -223 89.5t-88 235.5h209q0 -43 27.5 -77.5t77.5 -34.5t76 34t26 78h211q0 -146 -89 -235.5t-227 -89.5z" />
    <glyph glyph-name="Iogonek" unicode="&#x12e;" horiz-adv-x="620" 
d="M131 0v1421h358v-1421q-75 -5 -114 -47t-39 -84q0 -29 19.5 -46.5t47.5 -17.5q44 0 91 19v-182q-19 -9 -71.5 -18t-92.5 -9q-92 0 -148.5 45t-56.5 121q0 57 36 117t93 102h-123z" />
    <glyph glyph-name="iogonek" unicode="&#x12f;" horiz-adv-x="548" 
d="M238 0h-136v1024h344v-1024q-65 -13 -104 -51.5t-39 -79.5q0 -29 20 -46.5t48 -17.5q43 0 90 19v-182q-19 -9 -71.5 -18t-92.5 -9q-92 0 -148.5 45t-56.5 121q0 62 40.5 119.5t105.5 99.5zM86 1155v266h377v-266h-377z" />
    <glyph glyph-name="Idotaccent" unicode="&#x130;" horiz-adv-x="620" 
d="M131 0v1421h358v-1421h-358zM119 1550v267h385v-267h-385z" />
    <glyph glyph-name="dotlessi" unicode="&#x131;" horiz-adv-x="548" 
d="M104 1024h345v-1024h-345v1024z" />
    <glyph glyph-name="IJ" unicode="&#x132;" horiz-adv-x="1824" 
d="M131 0v1421h358v-1421h-358zM643 526v113h358v-98q0 -246 170 -246q172 0 172 246v880h359v-884q0 -275 -132.5 -418.5t-398.5 -143.5q-263 0 -395.5 145t-132.5 406z" />
    <glyph glyph-name="ij" unicode="&#x133;" horiz-adv-x="1097" 
d="M446 0h-344v1024h344v-1024zM463 1155h-377v266h377v-266zM600 -381q-70 0 -131 10v269q29 -2 70 -2q54 0 83 39t29 112v977h344v-1044q0 -175 -106.5 -268t-288.5 -93zM1012 1155h-377v266h377v-266z" />
    <glyph glyph-name="Jcircumflex" unicode="&#x134;" horiz-adv-x="1226" 
d="M45 526v113h358v-98q0 -246 170 -246q172 0 172 246v880h359v-884q0 -275 -132.5 -418.5t-398.5 -143.5q-263 0 -395.5 145t-132.5 406zM768 1817h313l187 -306h-221l-121 117l-121 -117h-221z" />
    <glyph glyph-name="jcircumflex" unicode="&#x135;" horiz-adv-x="548" 
d="M51 -381q-70 0 -131 10v269q29 -2 70 -2q54 0 83 39t29 112v977h344v-1044q0 -175 -106.5 -268t-288.5 -93zM119 1421h313l186 -305h-221l-121 117l-120 -117h-222z" />
    <glyph glyph-name="Kcommaaccent" unicode="&#x136;" horiz-adv-x="1388" 
d="M131 0v1421h358v-579l453 579h416l-465 -585l475 -836h-407l-312 559l-160 -190v-369h-358zM858 -92v-189q0 -154 -81.5 -221t-256.5 -67v135q89 0 122.5 32.5t33.5 86.5v4h-160v219h342z" />
    <glyph glyph-name="kcommaaccent" unicode="&#x137;" horiz-adv-x="1134" 
d="M446 0h-344v1421h344v-727l291 330h393l-358 -401l352 -623h-374l-224 406l-80 -89v-317zM725 -92v-189q0 -154 -81.5 -221t-256.5 -67v135q89 0 122.5 32.5t33.5 86.5v4h-160v219h342z" />
    <glyph glyph-name="kgreenlandic" unicode="&#x138;" horiz-adv-x="1136" 
d="M772 623l352 -623h-374l-224 406l-80 -89v-317h-344v1024h344v-330l291 330h393z" />
    <glyph glyph-name="Lacute" unicode="&#x139;" horiz-adv-x="1126" 
d="M131 0v1421h358v-1102h582v-319h-940zM272 1817h328l-194 -306h-246z" />
    <glyph glyph-name="lacute" unicode="&#x13a;" horiz-adv-x="548" 
d="M446 0h-344v1421h344v-1421zM240 1776h327l-194 -306h-246z" />
    <glyph glyph-name="Lcommaaccent" unicode="&#x13b;" horiz-adv-x="1126" 
d="M131 0v1421h358v-1102h582v-319h-940zM762 -92v-189q0 -154 -81.5 -221t-256.5 -67v135q89 0 122.5 32.5t33.5 86.5v4h-160v219h342z" />
    <glyph glyph-name="lcommaaccent" unicode="&#x13c;" horiz-adv-x="548" 
d="M446 0h-344v1421h344v-1421zM442 -92v-189q0 -154 -81.5 -221t-256.5 -67v135q89 0 122.5 32.5t33.5 86.5v4h-160v219h342z" />
    <glyph glyph-name="Lcaron" unicode="&#x13d;" horiz-adv-x="1126" 
d="M131 0v1421h358v-1102h582v-319h-940zM674 1421h301l-156 -389h-223z" />
    <glyph glyph-name="lcaron" unicode="&#x13e;" horiz-adv-x="776" 
d="M446 0h-344v1421h344v-1421zM569 1421h301l-155 -389h-223z" />
    <glyph glyph-name="Ldot" unicode="&#x13f;" horiz-adv-x="1142" 
d="M131 0v1421h358v-1102h582v-319h-940zM674 612v355h354v-355h-354z" />
    <glyph glyph-name="ldot" unicode="&#x140;" horiz-adv-x="913" 
d="M446 0h-344v1421h344v-1421zM549 457v354h354v-354h-354z" />
    <glyph glyph-name="Lslash" unicode="&#x141;" horiz-adv-x="1167" 
d="M49 391v311l123 58v661h358v-493l201 94v-311l-201 -95v-297h582v-319h-940v449z" />
    <glyph glyph-name="lslash" unicode="&#x142;" horiz-adv-x="630" 
d="M143 1421h344v-528l103 49v-260l-103 -49v-633h-344v465l-102 -49v260l102 49v696z" />
    <glyph glyph-name="Nacute" unicode="&#x143;" horiz-adv-x="1488" 
d="M1358 1421v-1421h-426l-453 926v-926h-348v1421h422l457 -929v929h348zM711 1817h327l-194 -306h-246z" />
    <glyph glyph-name="nacute" unicode="&#x144;" horiz-adv-x="1124" 
d="M1026 0h-344v606q0 168 -115 168q-59 0 -90 -50t-31 -128v-596h-344v1024h328v-150q44 75 115.5 124t161.5 49q161 0 240 -101.5t79 -279.5v-666zM526 1421h328l-195 -305h-245z" />
    <glyph glyph-name="Ncommaaccent" unicode="&#x145;" horiz-adv-x="1488" 
d="M1358 1421v-1421h-426l-453 926v-926h-348v1421h422l457 -929v929h348zM913 -92v-189q0 -154 -81.5 -221t-256.5 -67v135q89 0 122.5 32.5t33.5 86.5v4h-160v219h342z" />
    <glyph glyph-name="ncommaaccent" unicode="&#x146;" horiz-adv-x="1124" 
d="M1026 0h-344v606q0 168 -115 168q-59 0 -90 -50t-31 -128v-596h-344v1024h328v-150q44 75 115.5 124t161.5 49q161 0 240 -101.5t79 -279.5v-666zM729 -92v-189q0 -154 -81.5 -221t-256.5 -67v135q89 0 122.5 32.5t33.5 86.5v4h-160v219h342z" />
    <glyph glyph-name="Ncaron" unicode="&#x147;" horiz-adv-x="1488" 
d="M1358 1421v-1421h-426l-453 926v-926h-348v1421h422l457 -929v929h348zM905 1511h-313l-184 306h221l121 -117l120 117h222z" />
    <glyph glyph-name="ncaron" unicode="&#x148;" horiz-adv-x="1124" 
d="M1026 0h-344v606q0 168 -115 168q-59 0 -90 -50t-31 -128v-596h-344v1024h328v-150q44 75 115.5 124t161.5 49q161 0 240 -101.5t79 -279.5v-666zM721 1116h-313l-185 305h221l121 -116l121 116h221z" />
    <glyph glyph-name="napostrophe" unicode="&#x149;" horiz-adv-x="1548" 
d="M1450 0h-344v606q0 168 -115 168q-59 0 -90 -50t-31 -128v-596h-344v1024h328v-150q44 75 115 124t161 49q161 0 240.5 -101.5t79.5 -279.5v-666zM420 1421v-344q0 -158 -91 -245t-261 -87v164q92 4 125.5 47t33.5 127v4h-149v334h342z" />
    <glyph glyph-name="Eng" unicode="&#x14a;" horiz-adv-x="1488" 
d="M831 -371v269q29 -2 70 -2q90 0 109 102v2h-78l-453 926v-926h-348v1421h422l457 -929v929h348v-1441q0 -175 -106.5 -268t-288.5 -93q-71 0 -132 10z" />
    <glyph glyph-name="eng" unicode="&#x14b;" horiz-adv-x="1124" 
d="M1026 666v-686q0 -175 -106.5 -268t-288.5 -93q-70 0 -131 10v269q29 -2 69 -2q54 0 83.5 39t29.5 112v555q0 90 -27.5 131t-85.5 41q-60 0 -91.5 -54t-31.5 -147v-573h-344v1024h328v-150q44 75 115.5 124t161.5 49q161 0 240 -101.5t79 -279.5z" />
    <glyph glyph-name="Omacron" unicode="&#x14c;" horiz-adv-x="1443" 
d="M440 711q0 -194 76 -310t207 -116t207 116t76 310t-76 310t-207 116t-207 -116t-76 -310zM1382 711q0 -331 -181.5 -533.5t-477.5 -202.5q-196 0 -346.5 91.5t-233 258.5t-82.5 386q0 331 182.5 533t479.5 202q296 0 477.5 -202t181.5 -533zM979 1571h-510v229h510v-229z
" />
    <glyph glyph-name="omacron" unicode="&#x14d;" horiz-adv-x="1144" 
d="M571 -23q-229 0 -371.5 144.5t-142.5 390.5t142.5 390.5t371.5 144.5q230 0 373 -144.5t143 -390.5t-143 -390.5t-373 -144.5zM571 221q76 0 118 79.5t42 211.5t-42 211.5t-118 79.5q-75 0 -116 -79.5t-41 -211.5t41 -211.5t116 -79.5zM827 1176h-510v229h510v-229z" />
    <glyph glyph-name="Obreve" unicode="&#x14e;" horiz-adv-x="1443" 
d="M440 711q0 -194 76 -310t207 -116t207 116t76 310t-76 310t-207 116t-207 -116t-76 -310zM1382 711q0 -331 -181.5 -533.5t-477.5 -202.5q-196 0 -346.5 91.5t-233 258.5t-82.5 386q0 331 182.5 533t479.5 202q296 0 477.5 -202t181.5 -533zM723 1491q-135 0 -223 90
t-88 236h209q0 -43 27 -78t77 -35t76 34.5t26 78.5h211q0 -146 -88.5 -236t-226.5 -90z" />
    <glyph glyph-name="obreve" unicode="&#x14f;" horiz-adv-x="1144" 
d="M571 -23q-229 0 -371.5 144.5t-142.5 390.5t142.5 390.5t371.5 144.5q230 0 373 -144.5t143 -390.5t-143 -390.5t-373 -144.5zM571 221q76 0 118 79.5t42 211.5t-42 211.5t-118 79.5q-75 0 -116 -79.5t-41 -211.5t41 -211.5t116 -79.5zM571 1096q-135 0 -223 89.5
t-88 235.5h209q0 -43 27 -77.5t77 -34.5t76.5 34.5t26.5 77.5h211q0 -146 -89 -235.5t-227 -89.5z" />
    <glyph glyph-name="Ohungarumlaut" unicode="&#x150;" horiz-adv-x="1443" 
d="M440 711q0 -194 76 -310t207 -116t207 116t76 310t-76 310t-207 116t-207 -116t-76 -310zM1382 711q0 -331 -181.5 -533.5t-477.5 -202.5q-196 0 -346.5 91.5t-233 258.5t-82.5 386q0 331 182.5 533t479.5 202q296 0 477.5 -202t181.5 -533zM555 1817h293l-201 -326h-213
zM915 1817h293l-200 -326h-213z" />
    <glyph glyph-name="ohungarumlaut" unicode="&#x151;" horiz-adv-x="1144" 
d="M571 -23q-229 0 -371.5 144.5t-142.5 390.5t142.5 390.5t371.5 144.5q230 0 373 -144.5t143 -390.5t-143 -390.5t-373 -144.5zM571 221q76 0 118 79.5t42 211.5t-42 211.5t-118 79.5q-75 0 -116 -79.5t-41 -211.5t41 -211.5t116 -79.5zM403 1421h293l-200 -325h-213z
M764 1421h293l-201 -325h-213z" />
    <glyph glyph-name="OE" unicode="&#x152;" horiz-adv-x="2091" 
d="M1006 0v90q-62 -54 -147.5 -84.5t-178.5 -30.5q-178 0 -318.5 91t-220.5 259.5t-80 385.5q0 163 46.5 301t128.5 233t196.5 148t247.5 53q93 0 178.5 -30.5t147.5 -84.5v90h966v-309h-616v-242h555v-295h-555v-266h633v-309h-983zM440 711q0 -188 76.5 -307t206.5 -119
t206.5 119t76.5 307t-76.5 307t-206.5 119t-206.5 -119t-76.5 -307z" />
    <glyph glyph-name="oe" unicode="&#x153;" horiz-adv-x="1773" 
d="M555 -23q-217 0 -357.5 145.5t-140.5 389.5t140.5 389.5t357.5 145.5q104 0 194.5 -41t149.5 -115q55 71 149.5 113.5t190.5 42.5q100 0 186.5 -35t151.5 -101t102 -167.5t37 -227.5v-88h-667q2 -88 45.5 -150.5t115.5 -62.5q53 0 90 33.5t46 99.5h362
q-29 -171 -162.5 -271t-316.5 -100q-89 0 -180 41.5t-148 114.5q-60 -74 -151 -115t-195 -41zM571 803q-75 0 -116 -79.5t-41 -211.5t41 -211.5t116 -79.5q76 0 118 79.5t42 211.5t-42 211.5t-118 79.5zM1053 621h309q-1 92 -43.5 146t-106.5 54q-66 0 -108.5 -55
t-50.5 -145z" />
    <glyph glyph-name="Racute" unicode="&#x154;" horiz-adv-x="1329" 
d="M131 0v1421h604q248 0 375 -112t127 -328q0 -133 -60 -241t-155 -154l262 -586h-383l-225 506h-187v-506h-358zM862 950q0 91 -50 140t-132 49h-191v-373h191q83 0 132.5 46.5t49.5 137.5zM643 1817h328l-195 -306h-246z" />
    <glyph glyph-name="racute" unicode="&#x155;" horiz-adv-x="780" 
d="M446 0h-344v1024h328v-240q29 142 102 201t207 59h4v-348q-29 4 -96 4q-98 0 -149.5 -63t-51.5 -184v-453zM383 1421h328l-195 -305h-246z" />
    <glyph glyph-name="Rcommaaccent" unicode="&#x156;" horiz-adv-x="1329" 
d="M131 0v1421h604q248 0 375 -112t127 -328q0 -133 -60 -241t-155 -154l262 -586h-383l-225 506h-187v-506h-358zM862 950q0 91 -50 140t-132 49h-191v-373h191q83 0 132.5 46.5t49.5 137.5zM834 -92v-189q0 -154 -81.5 -221t-256.5 -67v135q88 0 121.5 32.5t33.5 86.5v4
h-159v219h342z" />
    <glyph glyph-name="rcommaaccent" unicode="&#x157;" horiz-adv-x="780" 
d="M446 0h-344v1024h328v-240q29 142 102 201t207 59h4v-348q-29 4 -96 4q-98 0 -149.5 -63t-51.5 -184v-453zM434 -92v-189q0 -154 -81.5 -221t-256.5 -67v135q89 0 122.5 32.5t33.5 86.5v4h-160v219h342z" />
    <glyph glyph-name="Rcaron" unicode="&#x158;" horiz-adv-x="1329" 
d="M131 0v1421h604q248 0 375 -112t127 -328q0 -133 -60 -241t-155 -154l262 -586h-383l-225 506h-187v-506h-358zM862 950q0 91 -50 140t-132 49h-191v-373h191q83 0 132.5 46.5t49.5 137.5zM838 1511h-314l-184 306h221l121 -117l121 117h221z" />
    <glyph glyph-name="rcaron" unicode="&#x159;" horiz-adv-x="780" 
d="M446 0h-344v1024h328v-240q29 142 102 201t207 59h4v-348q-29 4 -96 4q-98 0 -149.5 -63t-51.5 -184v-453zM578 1116h-314l-184 305h221l121 -116l121 116h221z" />
    <glyph glyph-name="Sacute" unicode="&#x15a;" horiz-adv-x="1280" 
d="M102 999q0 91 35 171t101.5 142t171.5 98t235 36q250 0 395.5 -127.5t157.5 -343.5h-344q-4 94 -58.5 142t-152.5 48q-83 0 -133.5 -35.5t-50.5 -91.5q0 -57 42 -88.5t122 -52.5l206 -53q175 -45 278 -144t103 -262q0 -203 -152 -333t-403 -130q-276 0 -424.5 134.5
t-160.5 369.5h348q22 -223 235 -223q91 0 146 37.5t55 105.5q0 57 -42 89t-122 53l-207 53q-175 45 -278 143.5t-103 261.5zM588 1817h327l-194 -306h-246z" />
    <glyph glyph-name="sacute" unicode="&#x15b;" horiz-adv-x="1067" 
d="M553 -23q-228 0 -350.5 95t-134.5 268h344q0 -77 37 -115.5t104 -38.5q54 0 87.5 26.5t33.5 70.5q0 32 -24 54.5t-70 31.5l-197 39q-136 28 -218.5 105.5t-82.5 197.5q0 153 124.5 244.5t321.5 91.5q202 0 326 -89.5t133 -255.5h-328q0 69 -35.5 102.5t-95.5 33.5
q-53 0 -84.5 -23.5t-31.5 -62.5q0 -64 102 -84l197 -39q131 -27 212 -106t81 -195q0 -160 -126.5 -255.5t-324.5 -95.5zM492 1421h327l-194 -305h-246z" />
    <glyph glyph-name="Scircumflex" unicode="&#x15c;" horiz-adv-x="1280" 
d="M102 999q0 91 35 171t101.5 142t171.5 98t235 36q250 0 395.5 -127.5t157.5 -343.5h-344q-4 94 -58.5 142t-152.5 48q-83 0 -133.5 -35.5t-50.5 -91.5q0 -57 42 -88.5t122 -52.5l206 -53q175 -45 278 -144t103 -262q0 -203 -152 -333t-403 -130q-276 0 -424.5 134.5
t-160.5 369.5h348q22 -223 235 -223q91 0 146 37.5t55 105.5q0 57 -42 89t-122 53l-207 53q-175 45 -278 143.5t-103 261.5zM469 1817h313l187 -306h-221l-121 117l-121 -117h-221z" />
    <glyph glyph-name="scircumflex" unicode="&#x15d;" horiz-adv-x="1067" 
d="M553 -23q-228 0 -350.5 95t-134.5 268h344q0 -77 37 -115.5t104 -38.5q54 0 87.5 26.5t33.5 70.5q0 32 -24 54.5t-70 31.5l-197 39q-136 28 -218.5 105.5t-82.5 197.5q0 153 124.5 244.5t321.5 91.5q202 0 326 -89.5t133 -255.5h-328q0 69 -35.5 102.5t-95.5 33.5
q-53 0 -84.5 -23.5t-31.5 -62.5q0 -64 102 -84l197 -39q131 -27 212 -106t81 -195q0 -160 -126.5 -255.5t-324.5 -95.5zM373 1421h313l186 -305h-221l-121 117l-120 -117h-222z" />
    <glyph glyph-name="Scedilla" unicode="&#x15e;" horiz-adv-x="1280" 
d="M870 -229q-1 -98 -69 -149.5t-178 -51.5q-69 0 -148 27v155q77 -35 143 -35q35 0 55.5 14.5t20.5 37.5q0 22 -16.5 32.5t-40.5 10.5q-34 0 -78 -21l-59 72l86 114q-244 17 -374.5 149t-141.5 353h348q22 -223 235 -223q91 0 146 37.5t55 105.5q0 57 -42 89t-122 53
l-207 53q-175 45 -278 143.5t-103 261.5q0 91 35 171t101.5 142t171.5 98t235 36q250 0 395.5 -127.5t157.5 -343.5h-344q-4 94 -58.5 142t-152.5 48q-83 0 -133.5 -35.5t-50.5 -91.5q0 -57 42 -88.5t122 -52.5l206 -53q175 -45 278 -144t103 -262q0 -191 -137 -319.5
t-366 -141.5l-41 -59q6 2 18 2q181 0 186 -149z" />
    <glyph glyph-name="scedilla" unicode="&#x15f;" horiz-adv-x="1067" 
d="M770 -229q-1 -98 -69.5 -149.5t-178.5 -51.5q-67 0 -147 27v155q77 -35 143 -35q35 0 55.5 14.5t20.5 37.5q0 22 -16.5 32.5t-40.5 10.5q-34 0 -78 -21l-60 72l88 117q-197 13 -302.5 106t-116.5 254h344q0 -77 37 -115.5t104 -38.5q54 0 87.5 26.5t33.5 70.5
q0 32 -24 54.5t-70 31.5l-197 39q-136 28 -218.5 105.5t-82.5 197.5q0 153 124.5 244.5t321.5 91.5q202 0 326 -89.5t133 -255.5h-328q0 69 -35.5 102.5t-95.5 33.5q-53 0 -84.5 -23.5t-31.5 -62.5q0 -64 102 -84l197 -39q131 -27 212 -106t81 -195q0 -148 -109.5 -241
t-286.5 -107l-43 -62q6 2 19 2q181 0 186 -149z" />
    <glyph glyph-name="Scaron" unicode="&#x160;" horiz-adv-x="1280" 
d="M102 999q0 91 35 171t101.5 142t171.5 98t235 36q250 0 395.5 -127.5t157.5 -343.5h-344q-4 94 -58.5 142t-152.5 48q-83 0 -133.5 -35.5t-50.5 -91.5q0 -57 42 -88.5t122 -52.5l206 -53q175 -45 278 -144t103 -262q0 -203 -152 -333t-403 -130q-276 0 -424.5 134.5
t-160.5 369.5h348q22 -223 235 -223q91 0 146 37.5t55 105.5q0 57 -42 89t-122 53l-207 53q-175 45 -278 143.5t-103 261.5zM782 1511h-313l-184 306h221l121 -117l121 117h221z" />
    <glyph glyph-name="scaron" unicode="&#x161;" horiz-adv-x="1067" 
d="M553 -23q-228 0 -350.5 95t-134.5 268h344q0 -77 37 -115.5t104 -38.5q54 0 87.5 26.5t33.5 70.5q0 32 -24 54.5t-70 31.5l-197 39q-136 28 -218.5 105.5t-82.5 197.5q0 153 124.5 244.5t321.5 91.5q202 0 326 -89.5t133 -255.5h-328q0 69 -35.5 102.5t-95.5 33.5
q-53 0 -84.5 -23.5t-31.5 -62.5q0 -64 102 -84l197 -39q131 -27 212 -106t81 -195q0 -160 -126.5 -255.5t-324.5 -95.5zM686 1116h-313l-185 305h222l120 -116l121 116h221z" />
    <glyph glyph-name="Tcommaaccent" unicode="&#x162;" horiz-adv-x="1189" 
d="M817 -229q-1 -98 -69.5 -149.5t-178.5 -51.5q-67 0 -147 27v155q78 -35 143 -35q35 0 55.5 14.5t20.5 37.5q0 22 -16.5 32.5t-40.5 10.5q-34 0 -78 -21l-60 72l105 137h-135v1104h-379v317h1116v-317h-379v-1104h-104l-58 -82q6 2 19 2q181 0 186 -149z" />
    <glyph glyph-name="tcommaaccent" unicode="&#x163;" horiz-adv-x="790" 
d="M612 -229q-1 -98 -69 -149.5t-178 -51.5q-69 0 -148 27v155q77 -35 143 -35q35 0 55.5 14.5t20.5 37.5q0 22 -16.5 32.5t-40.5 10.5q-34 0 -78 -21l-59 72l110 145q-188 63 -188 332v416h-127v268h127v248h344v-248h209v-268h-209v-344q0 -73 28 -106.5t87 -33.5
q51 0 94 9v-271q-97 -20 -223 -20q-23 0 -35 2l-51 -74q6 2 18 2q181 0 186 -149z" />
    <glyph glyph-name="Tcaron" unicode="&#x164;" horiz-adv-x="1189" 
d="M1153 1421v-317h-379v-1104h-358v1104h-379v317h1116zM748 1511h-314l-184 306h221l121 -117l121 117h221z" />
    <glyph glyph-name="tcaron" unicode="&#x165;" horiz-adv-x="790" 
d="M494 -10q-168 0 -249 87t-81 263v416h-127v268h127v248h344v-248h209v-268h-209v-344q0 -73 28 -106.5t87 -33.5q51 0 94 9v-271q-97 -20 -223 -20zM633 1524h301l-156 -389h-223z" />
    <glyph glyph-name="Tbar" unicode="&#x166;" horiz-adv-x="1189" 
d="M37 1104v317h1116v-317h-379v-293h170v-291h-170v-520h-358v520h-170v291h170v293h-379z" />
    <glyph glyph-name="tbar" unicode="&#x167;" horiz-adv-x="802" 
d="M45 756v268h127v248h344v-248h209v-268h-209v-111h174v-219h-174v-14q0 -74 26.5 -107t84.5 -33q47 0 90 9v-271q-97 -20 -215 -20q-168 0 -249 87t-81 263v86h-123v219h123v111h-127z" />
    <glyph glyph-name="Utilde" unicode="&#x168;" horiz-adv-x="1370" 
d="M686 -25q-273 0 -422 141.5t-149 424.5v880h358v-880q0 -123 57 -188.5t156 -65.5q98 0 154.5 65.5t56.5 188.5v880h358v-880q0 -282 -149 -424t-420 -142zM829 1530q-44 0 -127 37t-96 37q-31 0 -31 -74h-200q0 67 8 119t26.5 95.5t53 67t84.5 23.5q43 0 125 -37t96 -37
q33 0 33 74h198q0 -54 -4.5 -97t-16 -83t-30.5 -66.5t-49 -42.5t-70 -16z" />
    <glyph glyph-name="utilde" unicode="&#x169;" horiz-adv-x="1112" 
d="M1010 0h-328v150q-45 -76 -113 -124.5t-157 -48.5q-158 0 -236 101.5t-78 279.5v666h344v-602q0 -90 26 -131t81 -41q58 0 87.5 50.5t29.5 139.5v584h344v-1024zM696 1135q-44 0 -127 36.5t-96 36.5q-31 0 -31 -73h-200q0 67 8 119t26.5 95.5t53 67t84.5 23.5
q43 0 125 -37t96 -37q33 0 33 74h198q0 -54 -4.5 -97t-16 -83t-30.5 -66.5t-49 -42.5t-70 -16z" />
    <glyph glyph-name="Umacron" unicode="&#x16a;" horiz-adv-x="1370" 
d="M686 -25q-273 0 -422 141.5t-149 424.5v880h358v-880q0 -123 57 -188.5t156 -65.5q98 0 154.5 65.5t56.5 188.5v880h358v-880q0 -282 -149 -424t-420 -142zM942 1571h-510v229h510v-229z" />
    <glyph glyph-name="umacron" unicode="&#x16b;" horiz-adv-x="1112" 
d="M1010 0h-328v150q-45 -76 -113 -124.5t-157 -48.5q-158 0 -236 101.5t-78 279.5v666h344v-602q0 -90 26 -131t81 -41q58 0 87.5 50.5t29.5 139.5v584h344v-1024zM809 1176h-510v229h510v-229z" />
    <glyph glyph-name="Ubreve" unicode="&#x16c;" horiz-adv-x="1370" 
d="M686 -25q-273 0 -422 141.5t-149 424.5v880h358v-880q0 -123 57 -188.5t156 -65.5q98 0 154.5 65.5t56.5 188.5v880h358v-880q0 -282 -149 -424t-420 -142zM686 1491q-135 0 -223 90t-88 236h209q0 -43 27 -78t77 -35t76.5 34.5t26.5 78.5h210q0 -146 -88.5 -236
t-226.5 -90z" />
    <glyph glyph-name="ubreve" unicode="&#x16d;" horiz-adv-x="1112" 
d="M1010 0h-328v150q-45 -76 -113 -124.5t-157 -48.5q-158 0 -236 101.5t-78 279.5v666h344v-602q0 -90 26 -131t81 -41q58 0 87.5 50.5t29.5 139.5v584h344v-1024zM553 1096q-135 0 -223 89.5t-88 235.5h209q0 -43 27 -77.5t77 -34.5t76 34t26 78h211q0 -146 -88.5 -235.5
t-226.5 -89.5z" />
    <glyph glyph-name="Uring" unicode="&#x16e;" horiz-adv-x="1370" 
d="M686 -25q-273 0 -422 141.5t-149 424.5v880h358v-880q0 -123 57 -188.5t156 -65.5q98 0 154.5 65.5t56.5 188.5v880h358v-880q0 -282 -149 -424t-420 -142zM422 1714q0 106 77 181t187 75t188 -75t78 -181t-78 -180t-188 -74t-187 74t-77 180zM582 1714q0 -46 30 -77
t74 -31q46 0 77.5 31t31.5 77q0 47 -31.5 80t-77.5 33q-44 0 -74 -33t-30 -80z" />
    <glyph glyph-name="uring" unicode="&#x16f;" horiz-adv-x="1112" 
d="M1010 0h-328v150q-45 -76 -113 -124.5t-157 -48.5q-158 0 -236 101.5t-78 279.5v666h344v-602q0 -90 26 -131t81 -41q58 0 87.5 50.5t29.5 139.5v584h344v-1024zM289 1319q0 106 77 181t187 75t188 -75t78 -181t-78 -180t-188 -74t-187 74t-77 180zM449 1319
q0 -46 30 -77.5t74 -31.5q46 0 77.5 31.5t31.5 77.5q0 47 -31.5 80t-77.5 33q-44 0 -74 -33t-30 -80z" />
    <glyph glyph-name="Uhungarumlaut" unicode="&#x170;" horiz-adv-x="1370" 
d="M686 -25q-273 0 -422 141.5t-149 424.5v880h358v-880q0 -123 57 -188.5t156 -65.5q98 0 154.5 65.5t56.5 188.5v880h358v-880q0 -282 -149 -424t-420 -142zM518 1817h293l-201 -326h-213zM879 1817h292l-200 -326h-213z" />
    <glyph glyph-name="uhungarumlaut" unicode="&#x171;" horiz-adv-x="1112" 
d="M1010 0h-328v150q-45 -76 -113 -124.5t-157 -48.5q-158 0 -236 101.5t-78 279.5v666h344v-602q0 -90 26 -131t81 -41q58 0 87.5 50.5t29.5 139.5v584h344v-1024zM385 1421h293l-201 -325h-213zM745 1421h293l-200 -325h-213z" />
    <glyph glyph-name="Uogonek" unicode="&#x172;" horiz-adv-x="1370" 
d="M717 -385q-92 0 -148.5 45t-56.5 121q0 91 90 199q-235 21 -361 160.5t-126 400.5v880h358v-880q0 -123 57 -188.5t156 -65.5q98 0 154.5 65.5t56.5 188.5v880h358v-880q0 -261 -128 -401.5t-363 -159.5q-41 -71 -41 -111q0 -29 20 -46.5t48 -17.5q43 0 90 19v-182
q-19 -9 -71.5 -18t-92.5 -9z" />
    <glyph glyph-name="uogonek" unicode="&#x173;" horiz-adv-x="1112" 
d="M682 0v150q-45 -76 -113 -124.5t-157 -48.5q-158 0 -236 101.5t-78 279.5v666h344v-602q0 -90 26 -131t81 -41q58 0 87.5 50.5t29.5 139.5v584h344v-1024h-172q-54 -80 -54 -131q0 -29 20 -46.5t48 -17.5q42 0 90 19v-182q-19 -9 -71.5 -18t-92.5 -9q-92 0 -148.5 45
t-56.5 121q0 102 109 219z" />
    <glyph glyph-name="Wcircumflex" unicode="&#x174;" horiz-adv-x="1896" 
d="M948 987l-209 -987h-387l-313 1421h346l186 -942l187 942h385l186 -942l187 942h342l-314 -1421h-387zM791 1817h313l186 -306h-221l-121 117l-121 -117h-221z" />
    <glyph glyph-name="wcircumflex" unicode="&#x175;" horiz-adv-x="1617" 
d="M1319 0h-367l-143 621l-143 -621h-367l-279 1024h351l147 -639l137 639h312l137 -639l147 639h346zM649 1421h314l186 -305h-221l-121 117l-121 -117h-221z" />
    <glyph glyph-name="Ycircumflex" unicode="&#x176;" horiz-adv-x="1316" 
d="M477 0v512l-473 909h406l254 -508l251 508h398l-479 -919v-502h-357zM504 1817h313l187 -306h-222l-120 117l-121 -117h-222z" />
    <glyph glyph-name="ycircumflex" unicode="&#x177;" horiz-adv-x="1077" 
d="M264 -381q-82 0 -149 12v269q47 -6 90 -6q100 0 139 77l4 9l-336 1044h361l174 -682l170 682h352l-346 -1081q-29 -92 -81.5 -158t-117 -100.5t-128.5 -50t-132 -15.5zM379 1421h313l187 -305h-222l-120 117l-121 -117h-221z" />
    <glyph glyph-name="Ydieresis" unicode="&#x178;" horiz-adv-x="1316" 
d="M477 0v512l-473 909h406l254 -508l251 508h398l-479 -919v-502h-357zM324 1550v267h284v-267h-284zM717 1550v267h282v-267h-282z" />
    <glyph glyph-name="Zacute" unicode="&#x179;" horiz-adv-x="1263" 
d="M123 1421h1010v-295l-598 -811h639v-315h-1084v295l600 811h-567v315zM586 1817h327l-194 -306h-246z" />
    <glyph glyph-name="zacute" unicode="&#x17a;" horiz-adv-x="997" 
d="M932 0h-866v248l430 512h-408v264h817v-248l-436 -512h463v-264zM467 1421h328l-195 -305h-246z" />
    <glyph glyph-name="Zdotaccent" unicode="&#x17b;" horiz-adv-x="1263" 
d="M123 1421h1010v-295l-598 -811h639v-315h-1084v295l600 811h-567v315zM432 1550v267h385v-267h-385z" />
    <glyph glyph-name="zdotaccent" unicode="&#x17c;" horiz-adv-x="997" 
d="M932 0h-866v248l430 512h-408v264h817v-248l-436 -512h463v-264zM313 1155v266h385v-266h-385z" />
    <glyph glyph-name="Zcaron" unicode="&#x17d;" horiz-adv-x="1263" 
d="M123 1421h1010v-295l-598 -811h639v-315h-1084v295l600 811h-567v315zM780 1511h-313l-184 306h221l121 -117l120 117h222z" />
    <glyph glyph-name="zcaron" unicode="&#x17e;" horiz-adv-x="997" 
d="M932 0h-866v248l430 512h-408v264h817v-248l-436 -512h463v-264zM662 1116h-314l-184 305h221l121 -116l121 116h221z" />
    <glyph glyph-name="florin" unicode="&#x192;" horiz-adv-x="817" 
d="M227 827v246q0 188 101 280.5t282 92.5q70 0 166 -14v-261q-44 7 -82 7q-62 0 -92.5 -30.5t-30.5 -103.5v-217h193v-268h-193v-579q0 -175 -106.5 -268t-288.5 -93q-70 0 -131 10v269q29 -2 70 -2q54 0 83 39t29 112v512h-149v268h149z" />
    <glyph glyph-name="uni01B5" unicode="&#x1b5;" horiz-adv-x="1263" 
d="M123 1421h1010v-295l-222 -288h105v-254h-297l-205 -269h660v-315h-1084v295l221 289h-104v254h299l205 268h-588v315z" />
    <glyph glyph-name="uni01B6" unicode="&#x1b6;" horiz-adv-x="997" 
d="M98 1024h807v-221l-180 -207h80v-170h-227l-142 -164h496v-262h-866v246l157 180h-76v170h226l145 164h-420v264z" />
    <glyph glyph-name="Aringacute" unicode="&#x1fa;" horiz-adv-x="1417" 
d="M444 1530q0 68 45 145l175 303h266l-193 -194h2q100 -11 168 -83.5t68 -170.5q0 -61 -29 -117l436 -1413h-370l-64 236h-487l-64 -236h-362l436 1415q-27 59 -27 115zM707 1110l-160 -582h317zM604 1530q0 -46 30.5 -77.5t74.5 -31.5q46 0 77 31.5t31 77.5q0 47 -31 79.5
t-77 32.5q-44 0 -74.5 -32.5t-30.5 -79.5z" />
    <glyph glyph-name="aringacute" unicode="&#x1fb;" horiz-adv-x="1095" 
d="M1006 0h-318v154q-42 -86 -128 -131.5t-183 -45.5q-154 0 -237 78t-83 217q0 132 85 213.5t233 110.5l291 55v45q0 71 -30.5 103t-90.5 32q-59 0 -92 -35t-33 -104h-330q3 164 121 259.5t334 95.5q229 0 345 -100t116 -296v-651zM494 205q73 0 122.5 54.5t49.5 158.5v37
l-154 -29q-63 -11 -94 -43t-31 -76q0 -47 29.5 -74.5t77.5 -27.5zM283 1319q0 68 45 145l174 303h266l-193 -194h5q99 -12 166 -85t67 -169q0 -106 -78 -180t-188 -74t-187 74t-77 180zM442 1319q0 -46 30.5 -77.5t74.5 -31.5q46 0 77 31.5t31 77.5q0 47 -31 80t-77 33
q-44 0 -74.5 -33t-30.5 -80z" />
    <glyph glyph-name="AEacute" unicode="&#x1fc;" horiz-adv-x="2009" 
d="M684 1421h1206v-309h-616v-244h555v-293h-555v-266h633v-309h-992v238h-456l-119 -238h-385zM606 526h309v604zM1159 1817h328l-195 -306h-245z" />
    <glyph glyph-name="aeacute" unicode="&#x1fd;" horiz-adv-x="1710" 
d="M479 623h183v65q0 143 -121 143q-60 0 -91.5 -35.5t-31.5 -103.5h-334q0 164 118 259.5t337 95.5t319 -138q56 66 142.5 102t183.5 36q213 0 338 -145t125 -386v-88h-668q3 -92 47 -152.5t117 -60.5q49 0 86 33t47 100h362q-30 -171 -164 -271t-315 -100
q-108 0 -204.5 46.5t-147.5 123.5q-63 -78 -168 -124t-213 -46q-187 0 -278 84.5t-91 227.5q0 153 105 243.5t317 90.5zM662 418v6h-142q-63 0 -99 -32t-36 -81q0 -48 30.5 -77t86.5 -29q74 0 117 55.5t43 157.5zM983 621h309q-1 92 -42.5 146t-104.5 54q-67 0 -110.5 -55
t-51.5 -145zM829 1421h328l-194 -305h-246z" />
    <glyph glyph-name="Oslashacute" unicode="&#x1fe;" horiz-adv-x="1464" 
d="M735 -25q-157 0 -299 66l-69 -102h-299l172 256q-166 199 -166 516q0 331 182 533t479 202q160 0 299 -68l68 103h301l-174 -256q166 -203 166 -514q0 -331 -182 -533.5t-478 -202.5zM1034 711q0 103 -24 186l-400 -596q61 -33 125 -33q136 0 217.5 124.5t81.5 318.5z
M436 711q0 -99 23 -189l401 596q-56 35 -125 35q-136 0 -217.5 -124t-81.5 -318zM700 1817h328l-194 -306h-246z" />
    <glyph glyph-name="oslashacute" unicode="&#x1ff;" horiz-adv-x="1153" 
d="M575 -23q-102 0 -190 31l-43 -69h-236l107 174q-152 146 -152 399q0 246 142.5 390.5t371.5 144.5q103 0 191 -31l43 69h238l-109 -174q154 -148 154 -399q0 -246 -143.5 -390.5t-373.5 -144.5zM780 512q0 54 -14 119l-256 -418q30 -12 65 -12q93 0 149 88t56 223z
M373 512q0 -64 12 -119l254 416q-31 14 -64 14q-92 0 -147 -88t-55 -223zM537 1421h327l-194 -305h-246z" />
    <glyph glyph-name="Scommaaccent" unicode="&#x218;" horiz-adv-x="1280" 
d="M102 999q0 91 35 171t101.5 142t171.5 98t235 36q250 0 395.5 -127.5t157.5 -343.5h-344q-4 94 -58.5 142t-152.5 48q-83 0 -133.5 -35.5t-50.5 -91.5q0 -57 42 -88.5t122 -52.5l206 -53q175 -45 278 -144t103 -262q0 -203 -152 -333t-403 -130q-276 0 -424.5 134.5
t-160.5 369.5h348q22 -223 235 -223q91 0 146 37.5t55 105.5q0 57 -42 89t-122 53l-207 53q-175 45 -278 143.5t-103 261.5zM807 -92v-189q0 -154 -81.5 -221t-256.5 -67v135q89 0 122.5 32.5t33.5 86.5v4h-160v219h342z" />
    <glyph glyph-name="scommaaccent" unicode="&#x219;" horiz-adv-x="1067" 
d="M553 -23q-228 0 -350.5 95t-134.5 268h344q0 -77 37 -115.5t104 -38.5q54 0 87.5 26.5t33.5 70.5q0 32 -24 54.5t-70 31.5l-197 39q-136 28 -218.5 105.5t-82.5 197.5q0 153 124.5 244.5t321.5 91.5q202 0 326 -89.5t133 -255.5h-328q0 69 -35.5 102.5t-95.5 33.5
q-53 0 -84.5 -23.5t-31.5 -62.5q0 -64 102 -84l197 -39q131 -27 212 -106t81 -195q0 -160 -126.5 -255.5t-324.5 -95.5zM707 -92v-189q0 -154 -81.5 -221t-256.5 -67v135q88 0 121.5 32.5t33.5 86.5v4h-159v219h342z" />
    <glyph glyph-name="uni021A" unicode="&#x21a;" horiz-adv-x="1189" 
d="M1153 1421v-317h-379v-1104h-358v1104h-379v317h1116zM754 -92v-189q0 -154 -81.5 -221t-256.5 -67v135q88 0 121.5 32.5t33.5 86.5v4h-159v219h342z" />
    <glyph glyph-name="uni021B" unicode="&#x21b;" horiz-adv-x="790" 
d="M494 -10q-168 0 -249 87t-81 263v416h-127v268h127v248h344v-248h209v-268h-209v-344q0 -73 28 -106.5t87 -33.5q51 0 94 9v-271q-97 -20 -223 -20zM573 -92v-189q0 -154 -81 -221t-256 -67v135q88 0 121.5 32.5t33.5 86.5v4h-160v219h342z" />
    <glyph glyph-name="dotlessj" unicode="&#x237;" horiz-adv-x="548" 
d="M51 -381q-70 0 -131 10v269q29 -2 70 -2q54 0 83 39t29 112v977h344v-1044q0 -175 -106.5 -268t-288.5 -93z" />
    <glyph glyph-name="circumflex" unicode="&#x2c6;" horiz-adv-x="720" 
d="M203 1421h313l186 -305h-221l-121 117l-120 -117h-222z" />
    <glyph glyph-name="caron" unicode="&#x2c7;" horiz-adv-x="720" 
d="M516 1116h-313l-185 305h222l120 -116l121 116h221z" />
    <glyph glyph-name="breve" unicode="&#x2d8;" horiz-adv-x="671" 
d="M334 1096q-135 0 -223 89.5t-88 235.5h208q0 -43 27.5 -77.5t77.5 -34.5t76 34t26 78h211q0 -146 -88.5 -235.5t-226.5 -89.5z" />
    <glyph glyph-name="dotaccent" unicode="&#x2d9;" horiz-adv-x="561" 
d="M88 1155v266h385v-266h-385z" />
    <glyph glyph-name="ring" unicode="&#x2da;" horiz-adv-x="577" 
d="M23 1319q0 106 77 181t187 75t188 -75t78 -181t-78 -180t-188 -74t-187 74t-77 180zM182 1319q0 -46 30.5 -77.5t74.5 -31.5q46 0 77 31.5t31 77.5q0 47 -31 80t-77 33q-44 0 -74.5 -33t-30.5 -80z" />
    <glyph glyph-name="ogonek" unicode="&#x2db;" horiz-adv-x="452" 
d="M201 49h147q-40 -46 -66 -97t-26 -83q0 -29 20 -46.5t48 -17.5q43 0 90 19v-182q-19 -9 -71.5 -18t-92.5 -9q-92 0 -148.5 45t-56.5 121q0 65 45.5 136t110.5 132z" />
    <glyph glyph-name="tilde" unicode="&#x2dc;" horiz-adv-x="714" 
d="M500 1135q-44 0 -127.5 36.5t-96.5 36.5q-30 0 -30 -73h-201q0 67 8 119t26.5 95.5t53 67t84.5 23.5q43 0 125 -37t96 -37q33 0 33 74h199q0 -54 -4.5 -97t-16 -83t-30.5 -66.5t-49 -42.5t-70 -16z" />
    <glyph glyph-name="hungarumlaut" unicode="&#x2dd;" horiz-adv-x="768" 
d="M143 1421h293l-200 -325h-213zM504 1421h293l-201 -325h-213z" />
    <glyph glyph-name="pi" unicode="&#x3c0;" horiz-adv-x="1257" 
d="M1196 758h-125v-758h-344v758h-195v-758h-344v758h-127v266h1135v-266z" />
    <glyph glyph-name="Wgrave" unicode="&#x1e80;" horiz-adv-x="1896" 
d="M948 987l-209 -987h-387l-313 1421h346l186 -942l187 942h385l186 -942l187 942h342l-314 -1421h-387zM662 1817h325l113 -306h-244z" />
    <glyph glyph-name="wgrave" unicode="&#x1e81;" horiz-adv-x="1617" 
d="M1319 0h-367l-143 621l-143 -621h-367l-279 1024h351l147 -639l137 639h312l137 -639l147 639h346zM520 1421h326l112 -305h-243z" />
    <glyph glyph-name="Wacute" unicode="&#x1e82;" horiz-adv-x="1896" 
d="M948 987l-209 -987h-387l-313 1421h346l186 -942l187 942h385l186 -942l187 942h342l-314 -1421h-387zM909 1817h328l-195 -306h-245z" />
    <glyph glyph-name="wacute" unicode="&#x1e83;" horiz-adv-x="1617" 
d="M1319 0h-367l-143 621l-143 -621h-367l-279 1024h351l147 -639l137 639h312l137 -639l147 639h346zM768 1421h328l-195 -305h-246z" />
    <glyph glyph-name="Wdieresis" unicode="&#x1e84;" horiz-adv-x="1896" 
d="M948 987l-209 -987h-387l-313 1421h346l186 -942l187 942h385l186 -942l187 942h342l-314 -1421h-387zM610 1550v267h285v-267h-285zM1004 1550v267h282v-267h-282z" />
    <glyph glyph-name="wdieresis" unicode="&#x1e85;" horiz-adv-x="1617" 
d="M1319 0h-367l-143 621l-143 -621h-367l-279 1024h351l147 -639l137 639h312l137 -639l147 639h346zM469 1155v266h285v-266h-285zM862 1155v266h283v-266h-283z" />
    <glyph glyph-name="uni1E8A" unicode="&#x1e8a;" horiz-adv-x="1351" 
d="M430 0h-405l442 709l-432 712h426l217 -397l233 397h400l-424 -710l440 -711h-426l-229 408zM483 1528v266h385v-266h-385z" />
    <glyph glyph-name="uni1E8B" unicode="&#x1e8b;" horiz-adv-x="1128" 
d="M1108 0h-377l-166 276l-166 -276h-379l330 514l-327 510h378l160 -266l166 266h377l-328 -506zM371 1155v266h385v-266h-385z" />
    <glyph glyph-name="Ygrave" unicode="&#x1ef2;" horiz-adv-x="1316" 
d="M477 0v512l-473 909h406l254 -508l251 508h398l-479 -919v-502h-357zM375 1817h325l113 -306h-244z" />
    <glyph glyph-name="ygrave" unicode="&#x1ef3;" horiz-adv-x="1077" 
d="M264 -381q-82 0 -149 12v269q47 -6 90 -6q100 0 139 77l4 9l-336 1044h361l174 -682l170 682h352l-346 -1081q-29 -92 -81.5 -158t-117 -100.5t-128.5 -50t-132 -15.5zM250 1421h325l113 -305h-244z" />
    <glyph glyph-name="endash" unicode="&#x2013;" horiz-adv-x="899" 
d="M68 455v200h763v-200h-763z" />
    <glyph glyph-name="emdash" unicode="&#x2014;" horiz-adv-x="1789" 
d="M68 455v200h1654v-200h-1654z" />
    <glyph glyph-name="quoteleft" unicode="&#x2018;" horiz-adv-x="548" 
d="M98 764v344q0 158 91 245t262 87v-164q-92 -4 -126 -47t-34 -127v-4h149v-334h-342z" />
    <glyph glyph-name="quoteright" unicode="&#x2019;" horiz-adv-x="548" 
d="M451 1421v-344q0 -158 -91 -245t-262 -87v164q92 4 126 47t34 127v4h-149v334h342z" />
    <glyph glyph-name="quotesinglbase" unicode="&#x201a;" horiz-adv-x="548" 
d="M451 334v-344q0 -158 -91 -245t-262 -87v164q92 4 126 47t34 127v4h-149v334h342z" />
    <glyph glyph-name="quotedblleft" unicode="&#x201c;" horiz-adv-x="1015" 
d="M98 764v344q0 158 91 245t262 87v-164q-92 -4 -126 -47t-34 -127v-4h149v-334h-342zM565 764v344q0 158 91 245t262 87v-164q-92 -4 -126 -47t-34 -127v-4h149v-334h-342z" />
    <glyph glyph-name="quotedblright" unicode="&#x201d;" horiz-adv-x="1015" 
d="M918 1421v-344q0 -158 -91 -245t-262 -87v164q92 4 126 47t34 127v4h-150v334h343zM451 1421v-344q0 -158 -91 -245t-262 -87v164q92 4 126 47t34 127v4h-149v334h342z" />
    <glyph glyph-name="quotedblbase" unicode="&#x201e;" horiz-adv-x="1015" 
d="M918 334v-344q0 -158 -91 -245t-262 -87v164q92 4 126 47t34 127v4h-150v334h343zM451 334v-344q0 -158 -91 -245t-262 -87v164q92 4 126 47t34 127v4h-149v334h342z" />
    <glyph glyph-name="dagger" unicode="&#x2020;" horiz-adv-x="794" 
d="M723 1155v-201h-223v-432h-207v432h-221v201h221v266h207v-266h223z" />
    <glyph glyph-name="daggerdbl" unicode="&#x2021;" horiz-adv-x="815" 
d="M733 823v-200h-223v-269h-207v269h-221v200h221v131h-221v201h221v266h207v-266h223v-201h-223v-131h223z" />
    <glyph glyph-name="bullet" unicode="&#x2022;" horiz-adv-x="737" 
d="M113 594q0 106 75 181t181 75t181 -75t75 -181t-75 -181t-181 -75t-181 75t-75 181z" />
    <glyph glyph-name="ellipsis" unicode="&#x2026;" horiz-adv-x="1624" 
d="M123 0v354h354v-354h-354zM635 0v354h354v-354h-354zM1147 0v354h354v-354h-354z" />
    <glyph glyph-name="perthousand" unicode="&#x2030;" horiz-adv-x="2246" 
d="M473 0h-199l824 1421h198zM305 1077q0 -83 27.5 -129.5t77.5 -46.5q52 0 79 46.5t27 129.5t-27 129.5t-79 46.5q-50 0 -77.5 -46.5t-27.5 -129.5zM727 1077q0 -88 -27 -159t-72 -114t-101 -66t-117 -23t-116.5 23t-100.5 66t-72 114t-27 159t27 159t72 114.5t100.5 66.5
t116.5 23t117 -23t101 -66.5t72 -114.5t27 -159zM1057 340q0 -83 27 -129.5t77 -46.5q52 0 79.5 46.5t27.5 129.5t-27.5 129.5t-79.5 46.5q-50 0 -77 -46.5t-27 -129.5zM1479 340q0 -88 -27 -159t-72.5 -114.5t-101.5 -66.5t-117 -23t-116.5 23t-100 66.5t-71.5 114.5
t-27 159t27 159t71.5 114t100 66t116.5 23t117 -23t101.5 -66t72.5 -114t27 -159zM1767 340q0 -83 27.5 -129.5t77.5 -46.5q52 0 79 46.5t27 129.5t-27 129.5t-79 46.5q-50 0 -77.5 -46.5t-27.5 -129.5zM2189 340q0 -88 -27 -159t-72 -114.5t-101 -66.5t-117 -23t-116.5 23
t-100.5 66.5t-72 114.5t-27 159q0 172 93.5 267t222.5 95q61 0 117 -23t101 -66t72 -114t27 -159z" />
    <glyph glyph-name="guilsinglleft" unicode="&#x2039;" horiz-adv-x="669" 
d="M371 479l200 -409h-256l-229 409l229 410h256z" />
    <glyph glyph-name="guilsinglright" unicode="&#x203a;" horiz-adv-x="669" 
d="M98 70l201 409l-201 410h256l230 -410l-230 -409h-256z" />
    <glyph glyph-name="fraction" unicode="&#x2044;" horiz-adv-x="417" 
d="M-356 0l925 1421h205l-924 -1421h-206z" />
    <glyph glyph-name="uni2070" unicode="&#x2070;" horiz-adv-x="727" 
d="M362 641q-66 0 -121.5 22t-99.5 68t-69 124.5t-25 182.5t25 182.5t69 124.5t99.5 68.5t121.5 22.5t122 -22.5t100.5 -68.5t70 -124.5t25.5 -182.5q0 -202 -89.5 -299.5t-228.5 -97.5zM362 815q38 0 59 48t21 175t-21 175.5t-59 48.5t-58.5 -48.5t-20.5 -175.5t20.5 -175
t58.5 -48z" />
    <glyph glyph-name="uni2074" unicode="&#x2074;" horiz-adv-x="739" 
d="M592 655h-213v136h-338v182l307 448h244v-456h84v-174h-84v-136zM379 965v215l-146 -215h146z" />
    <glyph glyph-name="uni2075" unicode="&#x2075;" horiz-adv-x="702" 
d="M360 641q-160 0 -235.5 65t-77.5 177h229q3 -34 23 -56t53 -22q36 0 56 27.5t20 70.5q0 45 -21 71.5t-53 26.5q-54 0 -75 -63h-205l32 483h490v-192h-295l-12 -113q50 41 141 41q96 0 160.5 -67t64.5 -177q0 -122 -76 -197t-219 -75z" />
    <glyph glyph-name="uni2076" unicode="&#x2076;" horiz-adv-x="712" 
d="M365 641q-148 0 -233 102t-85 289q0 194 82.5 299t239.5 105q123 0 201 -62t89 -166h-231q-13 62 -61 62q-86 0 -86 -176q63 63 149 63q102 0 169 -66.5t67 -183.5q0 -122 -87 -194t-214 -72zM365 803q35 0 54 27.5t19 70.5t-19 70.5t-54 27.5q-34 0 -54 -27.5t-20 -70.5
t20 -70.5t54 -27.5z" />
    <glyph glyph-name="uni2077" unicode="&#x2077;" horiz-adv-x="620" 
d="M43 1217v204h535v-194l-228 -572h-239l227 562h-295z" />
    <glyph glyph-name="uni2078" unicode="&#x2078;" horiz-adv-x="743" 
d="M373 641q-150 0 -233 62.5t-83 175.5q0 59 38 107.5t106 72.5q-52 15 -86.5 60.5t-34.5 97.5q0 99 81 159t212 60q130 0 210.5 -60t80.5 -159q0 -52 -34 -97.5t-87 -60.5q68 -24 105.5 -72.5t37.5 -107.5q0 -113 -81.5 -175.5t-231.5 -62.5zM373 799q33 0 54.5 25.5
t21.5 64.5q0 37 -21.5 61.5t-54.5 24.5q-35 0 -56.5 -24.5t-21.5 -61.5q0 -39 21.5 -64.5t56.5 -25.5zM373 1116q32 0 50.5 21t18.5 57q0 37 -18.5 59.5t-50.5 22.5t-52 -22.5t-20 -59.5q0 -35 20 -56.5t52 -21.5z" />
    <glyph glyph-name="uni2079" unicode="&#x2079;" horiz-adv-x="712" 
d="M348 1436q148 0 233 -102.5t85 -289.5q0 -194 -82.5 -298.5t-239.5 -104.5q-124 0 -202 62t-89 165h232q13 -61 61 -61q86 0 86 176q-63 -63 -149 -63q-102 0 -169 66t-67 183q0 122 87.5 194.5t213.5 72.5zM348 1274q-35 0 -54.5 -27.5t-19.5 -70.5t19.5 -71t54.5 -28
q34 0 54 28t20 71t-20 70.5t-54 27.5z" />
    <glyph glyph-name="parenleft.sups" unicode="&#x207d;" horiz-adv-x="501" 
d="M311 1040q3 -241 133 -448h-217q-137 213 -137 448q0 237 137 447h217q-130 -210 -133 -447z" />
    <glyph glyph-name="parenright.sups" unicode="&#x207e;" horiz-adv-x="501" 
d="M190 1040q-3 242 -133 447h217q138 -207 138 -447q0 -238 -138 -448h-217q130 201 133 448z" />
    <glyph glyph-name="uni2080" unicode="&#x2080;" horiz-adv-x="727" 
d="M362 -240q-66 0 -121.5 22.5t-99.5 68.5t-69 124.5t-25 182.5t25 182.5t69 124.5t99.5 68t121.5 22q139 0 228.5 -97.5t89.5 -299.5q0 -104 -25.5 -182.5t-70 -124.5t-100.5 -68.5t-122 -22.5zM362 -66q38 0 59 48.5t21 175.5t-21 175t-59 48t-58.5 -48t-20.5 -175
t20.5 -175.5t58.5 -48.5z" />
    <glyph glyph-name="uni2081" unicode="&#x2081;" horiz-adv-x="579" 
d="M471 -225h-235v528l-168 -121v228l176 131h227v-766z" />
    <glyph glyph-name="uni2082" unicode="&#x2082;" horiz-adv-x="700" 
d="M63 -225v178l308 268q43 46 43 96q0 28 -16.5 47t-45.5 19q-67 0 -67 -102h-228q-2 123 75 198.5t226 75.5q126 0 206.5 -66t80.5 -172q0 -77 -32.5 -131t-88.5 -100l-143 -121h254v-190h-572z" />
    <glyph glyph-name="uni2083" unicode="&#x2083;" horiz-adv-x="720" 
d="M360 -240q-159 0 -237 63t-80 179h231q1 -36 21.5 -57t50.5 -21q31 0 53.5 21t22.5 57q0 84 -98 84h-41v150h20q49 0 81 22.5t32 67.5q0 32 -19 50.5t-47 18.5t-44.5 -21t-16.5 -57h-226q0 108 75 173t220 65q137 0 209 -64.5t72 -148.5q0 -54 -33.5 -102.5t-89.5 -61.5
q60 -16 104 -65t44 -117q0 -103 -85.5 -169.5t-218.5 -66.5z" />
    <glyph glyph-name="uni2084" unicode="&#x2084;" horiz-adv-x="739" 
d="M592 -225h-213v135h-338v182l307 449h244v-457h84v-174h-84v-135zM379 84v215l-146 -215h146z" />
    <glyph glyph-name="uni2085" unicode="&#x2085;" horiz-adv-x="702" 
d="M360 -240q-160 0 -235.5 65t-77.5 177h229q3 -34 23 -56t53 -22q36 0 56 28t20 71q0 45 -21 71.5t-53 26.5q-54 0 -75 -64h-205l32 484h490v-193h-295l-12 -112q49 40 141 40q96 0 160.5 -66.5t64.5 -176.5q0 -122 -76 -197.5t-219 -75.5z" />
    <glyph glyph-name="uni2086" unicode="&#x2086;" horiz-adv-x="712" 
d="M365 -240q-148 0 -233 102.5t-85 289.5q0 194 82.5 298.5t239.5 104.5q124 0 201.5 -61.5t88.5 -165.5h-231q-13 61 -61 61q-86 0 -86 -176q63 63 149 63q102 0 169 -66t67 -183q0 -122 -87.5 -194.5t-213.5 -72.5zM365 -78q35 0 54 27.5t19 70.5t-19 71t-54 28
q-34 0 -54 -28t-20 -71t20 -70.5t54 -27.5z" />
    <glyph glyph-name="uni2087" unicode="&#x2087;" horiz-adv-x="620" 
d="M43 336v205h535v-195l-228 -571h-239l227 561h-295z" />
    <glyph glyph-name="uni2088" unicode="&#x2088;" horiz-adv-x="743" 
d="M373 -240q-150 0 -233 62.5t-83 175.5q0 59 38 107.5t106 72.5q-52 15 -86.5 60.5t-34.5 97.5q0 99 81 159t212 60q130 0 210.5 -60t80.5 -159q0 -52 -34 -97.5t-87 -60.5q68 -24 105.5 -72.5t37.5 -107.5q0 -113 -81.5 -175.5t-231.5 -62.5zM373 -82q33 0 54.5 25.5
t21.5 64.5q0 37 -21.5 61.5t-54.5 24.5q-35 0 -56.5 -24.5t-21.5 -61.5q0 -39 21.5 -64.5t56.5 -25.5zM373 236q32 0 50.5 21t18.5 56q0 37 -18.5 59.5t-50.5 22.5t-52 -22.5t-20 -59.5q0 -35 20 -56t52 -21z" />
    <glyph glyph-name="uni2089" unicode="&#x2089;" horiz-adv-x="712" 
d="M348 555q148 0 233 -102t85 -289q0 -194 -82.5 -299t-239.5 -105q-124 0 -202 62t-89 166h232q13 -62 61 -62q86 0 86 176q-63 -63 -149 -63q-102 0 -169 66.5t-67 183.5q0 122 87 194t214 72zM348 393q-35 0 -54.5 -27.5t-19.5 -70.5t19.5 -70.5t54.5 -27.5
q34 0 54 27.5t20 70.5t-20 70.5t-54 27.5z" />
    <glyph glyph-name="Euro" unicode="&#x20ac;" horiz-adv-x="1308" 
d="M84 768v205h135q22 102 61.5 182.5t89.5 134.5t112.5 89.5t127 51t135.5 15.5q140 0 253.5 -58.5t180.5 -168.5t68 -252h-348q-6 93 -46 141.5t-112 48.5q-60 0 -102.5 -39.5t-65.5 -144.5h226v-205h-248v-115h248v-204h-226q23 -105 65.5 -145t102.5 -40q72 0 112 49
t46 142h348q-1 -142 -68 -252.5t-180.5 -169t-253.5 -58.5q-89 0 -169 26t-151.5 80t-125 148t-80.5 220h-135v204h111v115h-111z" />
    <glyph glyph-name="trademark" unicode="&#x2122;" horiz-adv-x="1554" 
d="M47 1239v182h559v-182h-184v-496h-193v496h-182zM979 741l-121 435v-435h-184v680h266l139 -501l142 501h266v-680h-184v435l-119 -435h-205z" />
    <glyph glyph-name="Omega" unicode="&#x2126;" horiz-adv-x="1548" 
d="M774 1137q-130 0 -206 -120t-76 -308q0 -150 45 -264t127 -154v-291h-553v303h188q-83 63 -130.5 186t-47.5 273q0 195 81 350.5t230.5 244.5t341.5 89t341.5 -89t230.5 -244.5t81 -350.5q0 -150 -47.5 -273t-130.5 -186h189v-303h-553v291q82 40 127 154t45 264
q0 188 -76.5 308t-206.5 120z" />
    <glyph glyph-name="uni2153" unicode="&#x2153;" horiz-adv-x="1558" 
d="M164 0l926 1421h204l-923 -1421h-207zM1198 -14q-159 0 -237 62.5t-80 178.5h231q1 -36 21.5 -56.5t50.5 -20.5q31 0 53.5 20.5t22.5 56.5q0 41 -25.5 62.5t-73.5 21.5h-41v150h21q49 0 80.5 22.5t31.5 67.5q0 33 -18.5 51.5t-46.5 18.5t-45 -21t-17 -57h-225
q0 107 75 172t220 65q137 0 209 -64.5t72 -148.5q0 -54 -33.5 -102.5t-89.5 -61.5q60 -16 103.5 -65t43.5 -117q0 -103 -85 -169t-218 -66zM449 655h-236v529l-168 -121v227l176 131h228v-766z" />
    <glyph glyph-name="uni2154" unicode="&#x2154;" horiz-adv-x="1685" 
d="M61 655v179l308 268q43 46 43 96q0 28 -16.5 47t-45.5 19q-67 0 -67 -103h-228q-2 124 75.5 199.5t225.5 75.5q126 0 206.5 -66t80.5 -172q0 -77 -32.5 -131t-88.5 -100l-143 -121h254v-191h-572zM291 0l926 1421h204l-923 -1421h-207zM1325 -14q-159 0 -237 62.5
t-80 178.5h231q1 -36 21.5 -56.5t50.5 -20.5q31 0 53 20.5t22 56.5q0 84 -98 84h-41v150h21q49 0 80.5 22.5t31.5 67.5q0 33 -19 51.5t-46 18.5q-28 0 -45 -21t-17 -57h-225q0 107 75 172t220 65q137 0 209 -64.5t72 -148.5q0 -54 -33.5 -102.5t-89.5 -61.5
q60 -16 103.5 -65t43.5 -117q0 -103 -85 -169t-218 -66z" />
    <glyph glyph-name="uni2155" unicode="&#x2155;" horiz-adv-x="1589" 
d="M164 0l926 1421h204l-923 -1421h-207zM1233 -14q-160 0 -235.5 64.5t-77.5 176.5h229q3 -34 23 -55.5t53 -21.5q36 0 55.5 27.5t19.5 70.5q0 45 -20.5 71.5t-52.5 26.5q-55 0 -76 -63h-205l33 483h489v-193h-294l-13 -112q50 41 142 41q96 0 160.5 -67t64.5 -177
q0 -122 -76 -197t-219 -75zM449 655h-236v529l-168 -121v227l176 131h228v-766z" />
    <glyph glyph-name="uni2156" unicode="&#x2156;" horiz-adv-x="1734" 
d="M82 655v179l307 268q43 46 43 96q0 28 -16 47t-45 19q-68 0 -68 -103h-227q-2 124 75.5 199.5t225.5 75.5q126 0 206.5 -66t80.5 -172q0 -77 -32.5 -131t-88.5 -100l-144 -121h254v-191h-571zM1378 -14q-160 0 -235.5 64.5t-77.5 176.5h229q3 -34 23 -55.5t53 -21.5
q36 0 56 27.5t20 70.5q0 45 -21 71.5t-53 26.5q-55 0 -76 -63h-204l32 483h490v-193h-295l-12 -112q50 41 141 41q96 0 160.5 -67t64.5 -177q0 -122 -76 -197t-219 -75zM311 0l926 1421h205l-924 -1421h-207z" />
    <glyph glyph-name="uni2157" unicode="&#x2157;" horiz-adv-x="1724" 
d="M367 641q-159 0 -237.5 63t-80.5 179h232q1 -36 21 -57t50 -21q31 0 53.5 21t22.5 57q0 84 -98 84h-41v149h20q49 0 81 22.5t32 67.5q0 32 -19 51t-47 19t-44.5 -21t-16.5 -57h-225q0 108 75 173t220 65q137 0 208.5 -64t71.5 -149q0 -54 -33.5 -102.5t-89.5 -61.5
q60 -16 104 -65t44 -117q0 -103 -85 -169.5t-218 -66.5zM1368 -14q-160 0 -235.5 64.5t-77.5 176.5h229q3 -34 23 -55.5t53 -21.5q36 0 56 27.5t20 70.5q0 45 -21 71.5t-53 26.5q-55 0 -76 -63h-205l33 483h490v-193h-295l-13 -112q50 41 142 41q96 0 160.5 -67t64.5 -177
q0 -122 -76 -197t-219 -75zM299 0l926 1421h205l-924 -1421h-207z" />
    <glyph glyph-name="uni2158" unicode="&#x2158;" horiz-adv-x="1761" 
d="M584 655h-213v136h-338v182l307 448h244v-456h84v-174h-84v-136zM371 965v215l-146 -215h146zM1405 -14q-160 0 -235.5 64.5t-77.5 176.5h229q3 -34 23 -55.5t53 -21.5q36 0 56 27.5t20 70.5q0 45 -21 71.5t-53 26.5q-55 0 -76 -63h-205l33 483h489v-193h-294l-13 -112
q50 41 142 41q96 0 160.5 -67t64.5 -177q0 -122 -76 -197t-219 -75zM336 0l926 1421h204l-923 -1421h-207z" />
    <glyph glyph-name="uni2159" unicode="&#x2159;" horiz-adv-x="1576" 
d="M1214 -14q-148 0 -232.5 102t-84.5 289q0 194 82.5 298.5t239.5 104.5q124 0 201.5 -61.5t88.5 -165.5h-231q-13 61 -61 61q-42 0 -64.5 -46t-22.5 -130q64 64 150 64q102 0 169 -66.5t67 -183.5q0 -122 -87.5 -194t-214.5 -72zM1214 147q35 0 54.5 28t19.5 71
t-19.5 70.5t-54.5 27.5q-34 0 -53.5 -27.5t-19.5 -70.5t19.5 -71t53.5 -28zM164 0l926 1421h204l-923 -1421h-207zM449 655h-236v529l-168 -121v227l176 131h228v-766z" />
    <glyph glyph-name="uni215A" unicode="&#x215a;" horiz-adv-x="1708" 
d="M367 641q-160 0 -236 65t-78 177h230q3 -34 23 -56t52 -22q36 0 56 27.5t20 70.5q0 45 -21 71.5t-53 26.5q-54 0 -75 -63h-205l33 483h489v-192h-295l-12 -113q50 41 141 41q96 0 161 -67t65 -177q0 -122 -76 -197t-219 -75zM1346 -14q-148 0 -233 102t-85 289
q0 194 82.5 298.5t239.5 104.5q124 0 201.5 -61.5t88.5 -165.5h-231q-13 61 -61 61q-86 0 -86 -176q64 64 149 64q102 0 169 -66.5t67 -183.5q0 -122 -87 -194t-214 -72zM1346 147q35 0 54 28t19 71t-19 70.5t-54 27.5q-34 0 -54 -27.5t-20 -70.5t20 -71t54 -28zM295 0
l926 1421h204l-923 -1421h-207z" />
    <glyph glyph-name="uni215B" unicode="&#x215b;" horiz-adv-x="1585" 
d="M1214 -14q-150 0 -232.5 62t-82.5 175q0 59 37.5 107.5t105.5 72.5q-52 15 -86 60.5t-34 97.5q0 99 80.5 159t211.5 60q130 0 210.5 -60t80.5 -159q0 -52 -34 -97.5t-87 -60.5q68 -24 106 -72.5t38 -107.5q0 -113 -82 -175t-232 -62zM1214 143q33 0 54.5 25.5t21.5 64.5
q0 37 -21.5 61.5t-54.5 24.5q-35 0 -56 -24.5t-21 -61.5q0 -39 21 -64.5t56 -25.5zM1214 461q32 0 51 21.5t19 56.5q0 37 -19 59.5t-51 22.5t-51.5 -22.5t-19.5 -59.5q0 -35 19.5 -56.5t51.5 -21.5zM164 0l926 1421h204l-923 -1421h-207zM449 655h-236v529l-168 -121v227
l176 131h228v-766z" />
    <glyph glyph-name="uni215C" unicode="&#x215c;" horiz-adv-x="1720" 
d="M1350 -14q-151 0 -233.5 62t-82.5 175q0 59 38 107.5t106 72.5q-52 15 -86.5 60.5t-34.5 97.5q0 99 81 159t212 60q130 0 210 -60t80 -159q0 -52 -33.5 -97.5t-86.5 -60.5q68 -24 105.5 -72.5t37.5 -107.5q0 -113 -81.5 -175t-231.5 -62zM1350 143q33 0 54 25.5t21 64.5
q0 37 -21 61.5t-54 24.5q-35 0 -56.5 -24.5t-21.5 -61.5q0 -39 21.5 -64.5t56.5 -25.5zM1350 461q32 0 50.5 21t18.5 57q0 37 -18.5 59.5t-50.5 22.5t-52 -22.5t-20 -59.5q0 -35 20 -56.5t52 -21.5zM367 641q-159 0 -237.5 63t-80.5 179h232q1 -36 21 -57t50 -21
q31 0 53.5 21t22.5 57q0 84 -98 84h-41v149h20q49 0 81 22.5t32 67.5q0 32 -19 51t-47 19t-44.5 -21t-16.5 -57h-225q0 108 75 173t220 65q137 0 208.5 -64t71.5 -149q0 -54 -33.5 -102.5t-89.5 -61.5q60 -16 104 -65t44 -117q0 -103 -85 -169.5t-218 -66.5zM299 0l926 1421
h205l-924 -1421h-207z" />
    <glyph glyph-name="uni215D" unicode="&#x215d;" horiz-adv-x="1716" 
d="M1346 -14q-151 0 -233.5 62t-82.5 175q0 59 38 107.5t106 72.5q-52 15 -86.5 60.5t-34.5 97.5q0 99 81 159t212 60q130 0 210 -60t80 -159q0 -52 -33.5 -97.5t-86.5 -60.5q68 -24 105.5 -72.5t37.5 -107.5q0 -113 -81.5 -175t-231.5 -62zM1346 143q33 0 54 25.5t21 64.5
q0 37 -21 61.5t-54 24.5q-35 0 -56.5 -24.5t-21.5 -61.5q0 -39 21.5 -64.5t56.5 -25.5zM1346 461q32 0 50.5 21t18.5 57q0 37 -18.5 59.5t-50.5 22.5t-52 -22.5t-20 -59.5q0 -35 20 -56.5t52 -21.5zM367 641q-160 0 -236 65t-78 177h230q3 -34 23 -56t52 -22q36 0 56 27.5
t20 70.5q0 45 -21 71.5t-53 26.5q-54 0 -75 -63h-205l33 483h489v-192h-295l-12 -113q50 41 141 41q96 0 161 -67t65 -177q0 -122 -76 -197t-219 -75zM295 0l926 1421h204l-923 -1421h-207z" />
    <glyph glyph-name="uni215E" unicode="&#x215e;" horiz-adv-x="1617" 
d="M117 1217v204h534v-194l-227 -572h-240l228 562h-295zM199 0l925 1421h205l-923 -1421h-207zM1247 -14q-150 0 -232.5 62t-82.5 175q0 59 37.5 107.5t105.5 72.5q-52 15 -86.5 60.5t-34.5 97.5q0 99 81 159t212 60q130 0 210.5 -60t80.5 -159q0 -52 -34 -97.5t-87 -60.5
q68 -24 106 -72.5t38 -107.5q0 -113 -82 -175t-232 -62zM1247 143q33 0 54.5 25.5t21.5 64.5q0 37 -21.5 61.5t-54.5 24.5q-35 0 -56.5 -24.5t-21.5 -61.5q0 -39 21.5 -64.5t56.5 -25.5zM1247 461q32 0 51 21.5t19 56.5q0 37 -19 59.5t-51 22.5t-51.5 -22.5t-19.5 -59.5
q0 -35 19.5 -56.5t51.5 -21.5z" />
    <glyph glyph-name="uni2190" unicode="&#x2190;" 
d="M686 1319h238l-516 -520h1200v-170h-1207l523 -527h-238l-606 609z" />
    <glyph glyph-name="uni2191" unicode="&#x2191;" 
d="M1452 868v-237l-520 516v-1200h-170v1206l-526 -522v237l608 607z" />
    <glyph glyph-name="uni2192" unicode="&#x2192;" 
d="M764 1319h237l607 -608l-607 -609h-237l522 527h-1206v170h1200z" />
    <glyph glyph-name="uni2193" unicode="&#x2193;" 
d="M1452 791v-238l-608 -606l-608 606v238l526 -523v1207h170v-1201z" />
    <glyph glyph-name="partialdiff" unicode="&#x2202;" horiz-adv-x="1138" 
d="M336 1421h399q81 -87 156.5 -213.5t132.5 -300t57 -332.5q0 -290 -137.5 -444t-380.5 -154q-223 0 -364.5 141t-141.5 394q0 243 129.5 389t323.5 146q68 0 131 -25q-73 122 -154 228t-151 171zM414 512q0 -129 41.5 -210t115.5 -81q76 0 118 81t42 210t-42 210t-118 81
q-74 0 -115.5 -81t-41.5 -210z" />
    <glyph glyph-name="Delta" unicode="&#x2206;" horiz-adv-x="1359" 
d="M1251 270v-270h-1142v270l348 1151h446zM676 1071l-197 -754h387z" />
    <glyph glyph-name="product" unicode="&#x220f;" horiz-adv-x="1462" 
d="M131 0v1421h1200v-1421h-358v1102h-484v-1102h-358z" />
    <glyph glyph-name="summation" unicode="&#x2211;" horiz-adv-x="1214" 
d="M131 309l393 412l-393 391v309h965v-309h-529l252 -238v-307l-252 -258h545v-309h-981v309z" />
    <glyph glyph-name="minus" unicode="&#x2212;" horiz-adv-x="1228" 
d="M137 535v253h953v-253h-953z" />
    <glyph glyph-name="radical" unicode="&#x221a;" horiz-adv-x="1290" 
d="M61 535v307h418l135 -494l310 1073h346l-463 -1421h-399l-170 535h-177z" />
    <glyph glyph-name="infinity" unicode="&#x221e;" horiz-adv-x="1228" 
d="M311 1028q93 0 173 -52t130 -126q48 74 129 126t175 52q144 0 232.5 -106.5t88.5 -268.5t-88.5 -268t-232.5 -106q-95 0 -176 52t-128 126q-49 -75 -129.5 -126.5t-173.5 -51.5q-144 0 -232.5 106t-88.5 268t88.5 268.5t232.5 106.5zM897 823q-48 0 -96.5 -49.5
t-77.5 -120.5q29 -72 77.5 -121t96.5 -49q59 0 88 48.5t29 121.5t-29 121.5t-88 48.5zM332 483q46 0 94.5 49.5t77.5 120.5q-29 70 -77.5 120t-94.5 50q-59 0 -88 -49t-29 -121t29 -121t88 -49z" />
    <glyph glyph-name="integral" unicode="&#x222b;" horiz-adv-x="770" 
d="M526 1044v-1064q0 -175 -106.5 -268t-288.5 -93q-70 0 -131 10v269q29 -2 70 -2q54 0 83 39t29 112v1026q0 188 101 280.5t282 92.5q70 0 166 -14v-261q-44 7 -82 7q-62 0 -92.5 -30.5t-30.5 -103.5z" />
    <glyph glyph-name="approxequal" unicode="&#x2248;" horiz-adv-x="1228" 
d="M889 737q-60 0 -162 28.5t-191 56.5t-116 28q-31 0 -43 -17.5t-12 -58.5v-43h-244v129q0 128 61 188t156 60q59 0 162 -28t192 -55.5t115 -27.5q32 0 44.5 17t12.5 57v43h244v-129q0 -128 -62 -188t-157 -60zM889 266q-60 0 -162 28t-191 56.5t-116 28.5q-31 0 -43 -17.5
t-12 -58.5v-43h-244v129q0 128 61 188t156 60q59 0 162 -27.5t192 -55.5t115 -28q32 0 44.5 17t12.5 57v43h244v-129q0 -128 -62 -188t-157 -60z" />
    <glyph glyph-name="notequal" unicode="&#x2260;" horiz-adv-x="1228" 
d="M158 758v254h454l54 157h243l-55 -157h215v-254h-303l-66 -195h369v-254h-457l-53 -157h-242l54 157h-213v254h301l65 195h-366z" />
    <glyph glyph-name="lessequal" unicode="&#x2264;" horiz-adv-x="1228" 
d="M182 680v289l860 272v-254l-581 -162l581 -161v-256zM164 0v254h899v-254h-899z" />
    <glyph glyph-name="greaterequal" unicode="&#x2265;" horiz-adv-x="1228" 
d="M1044 969v-289l-860 -272v256l582 161l-582 162v254zM1063 254v-254h-899v254h899z" />
    <glyph glyph-name="uni2295" unicode="&#x2295;" 
d="M1577 711q0 -152 -57 -288t-154.5 -234t-233.5 -155t-288 -57t-288 57t-233.5 155t-154.5 234t-57 288t57 288t154.5 233.5t233.5 154.5t288 57t288 -57t233.5 -154.5t154.5 -233.5t57 -288zM930 154q185 26 314 155t157 316h-471v-471zM287 625q26 -187 155.5 -316
t317.5 -155v471h-473zM930 1268v-473h471q-26 186 -155.5 315.5t-315.5 157.5zM760 1268q-187 -26 -317 -156.5t-156 -316.5h473v473z" />
    <glyph glyph-name="uni2296" unicode="&#x2296;" 
d="M844 -23q-152 0 -288 57t-233.5 155t-154.5 234t-57 288t57 288t154.5 233.5t233.5 154.5t288 57t288 -57t233.5 -154.5t154.5 -233.5t57 -288t-57 -288t-154.5 -234t-233.5 -155t-288 -57zM844 147q215 0 370.5 135t186.5 343h-1114q29 -208 184.5 -343t372.5 -135z
M844 1274q-143 0 -264 -62t-197.5 -171t-95.5 -246h1114q-19 137 -95.5 246t-197.5 171t-264 62z" />
    <glyph glyph-name="uni2297" unicode="&#x2297;" 
d="M1577 711q0 -152 -57 -288t-154.5 -234t-233.5 -155t-288 -57t-288 57t-233.5 155t-154.5 234t-57 288t57 288t154.5 233.5t233.5 154.5t288 57t288 -57t233.5 -154.5t154.5 -233.5t57 -288zM281 711q0 -191 106 -338l336 338l-336 336q-106 -147 -106 -336zM844 147
q188 0 336 107l-336 336l-336 -336q145 -107 336 -107zM844 1274q-191 0 -336 -107l336 -336l334 336q-145 107 -334 107zM1407 711q0 188 -107 336l-335 -336l333 -338q109 151 109 338z" />
    <glyph glyph-name="uni2299" unicode="&#x2299;" 
d="M586 711q0 109 74.5 183.5t183.5 74.5t183.5 -74.5t74.5 -183.5t-74.5 -183.5t-183.5 -74.5t-183.5 74.5t-74.5 183.5zM281 711q0 -239 162 -401.5t401 -162.5t401 162.5t162 401.5t-162 401t-401 162t-401 -162t-162 -401zM1577 711q0 -152 -57 -288t-154.5 -234
t-233.5 -155t-288 -57t-288 57t-233.5 155t-154.5 234t-57 288t57 288t154.5 233.5t233.5 154.5t288 57t288 -57t233.5 -154.5t154.5 -233.5t57 -288z" />
    <glyph glyph-name="uni22A0" unicode="&#x22a0;" 
d="M1554 0h-1421v1421h1421v-1421zM1264 170l-420 420l-420 -420h840zM1384 289v841l-419 -419zM1262 1251h-836l418 -420zM303 1130v-841l420 422z" />
    <glyph glyph-name="uni2460" unicode="&#x2460;" horiz-adv-x="1945" 
d="M973 1401q-144 0 -272 -53.5t-219.5 -145t-145 -219.5t-53.5 -272t53.5 -272t145 -220t220 -145.5t271.5 -53.5t271.5 53.5t220 145.5t145 220t53.5 272t-53.5 272t-145 219.5t-219.5 145t-272 53.5zM973 1571q178 0 337.5 -67t274 -181.5t181.5 -274t67 -337.5
t-67 -337.5t-181.5 -274.5t-274 -182t-337.5 -67t-337.5 67t-274 182t-181.5 274.5t-67 337.5t67 337.5t181.5 274t274 181.5t337.5 67zM1120 195h-258v757l-182 -135v262l207 150h233v-1034z" />
    <glyph glyph-name="uni2461" unicode="&#x2461;" horiz-adv-x="1945" 
d="M973 1401q-144 0 -272 -53.5t-219.5 -145t-145 -219.5t-53.5 -272t53.5 -272t145 -220t220 -145.5t271.5 -53.5t271.5 53.5t220 145.5t145 220t53.5 272t-53.5 272t-145 219.5t-219.5 145t-272 53.5zM973 1571q178 0 337.5 -67t274 -181.5t181.5 -274t67 -337.5
t-67 -337.5t-181.5 -274.5t-274 -182t-337.5 -67t-337.5 67t-274 182t-181.5 274.5t-67 337.5t67 337.5t181.5 274t274 181.5t337.5 67zM1325 195h-694v219l356 364q82 82 82 162q0 44 -25.5 72t-66.5 28q-48 0 -75.5 -37t-24.5 -114h-252q0 167 92 263.5t262 96.5
q152 0 247 -83.5t95 -227.5q0 -52 -13.5 -99t-41 -87.5t-50 -67t-57.5 -61.5l-205 -205h371v-223z" />
    <glyph glyph-name="uni2462" unicode="&#x2462;" horiz-adv-x="1945" 
d="M973 1401q-144 0 -272 -53.5t-219.5 -145t-145 -219.5t-53.5 -272t53.5 -272t145 -220t220 -145.5t271.5 -53.5t271.5 53.5t220 145.5t145 220t53.5 272t-53.5 272t-145 219.5t-219.5 145t-272 53.5zM973 1571q178 0 337.5 -67t274 -181.5t181.5 -274t67 -337.5
t-67 -337.5t-181.5 -274.5t-274 -182t-337.5 -67t-337.5 67t-274 182t-181.5 274.5t-67 337.5t67 337.5t181.5 274t274 181.5t337.5 67zM975 176q-172 0 -271 86t-102 236h260q3 -60 34.5 -93.5t78.5 -33.5q45 0 74.5 36.5t29.5 98.5q0 115 -149 115h-33v198h25
q69 0 109 29.5t40 91.5q0 51 -28.5 82t-71.5 31t-71 -32t-28 -93h-243q0 147 92 234t254 87q154 0 245 -82t91 -204q0 -80 -37.5 -139t-97.5 -85q74 -31 119.5 -98.5t45.5 -159.5q0 -126 -97 -215.5t-269 -89.5z" />
    <glyph glyph-name="uni2463" unicode="&#x2463;" horiz-adv-x="1945" 
d="M973 1401q-144 0 -272 -53.5t-219.5 -145t-145 -219.5t-53.5 -272t53.5 -272t145 -220t220 -145.5t271.5 -53.5t271.5 53.5t220 145.5t145 220t53.5 272t-53.5 272t-145 219.5t-219.5 145t-272 53.5zM973 1571q178 0 337.5 -67t274 -181.5t181.5 -274t67 -337.5
t-67 -337.5t-181.5 -274.5t-274 -182t-337.5 -67t-337.5 67t-274 182t-181.5 274.5t-67 337.5t67 337.5t181.5 274t274 181.5t337.5 67zM1206 195h-248v194h-446v219l399 621h295v-631h101v-209h-101v-194zM958 598v344l-223 -344h223z" />
    <glyph glyph-name="uni2464" unicode="&#x2464;" horiz-adv-x="1945" 
d="M973 1401q-144 0 -272 -53.5t-219.5 -145t-145 -219.5t-53.5 -272t53.5 -272t145 -220t220 -145.5t271.5 -53.5t271.5 53.5t220 145.5t145 220t53.5 272t-53.5 272t-145 219.5t-219.5 145t-272 53.5zM973 1571q178 0 337.5 -67t274 -181.5t181.5 -274t67 -337.5
t-67 -337.5t-181.5 -274.5t-274 -182t-337.5 -67t-337.5 67t-274 182t-181.5 274.5t-67 337.5t67 337.5t181.5 274t274 181.5t337.5 67zM977 174q-179 0 -275 89t-96 235h260q0 -58 30.5 -92.5t72.5 -34.5q104 0 104 159q0 74 -28 115t-74 41q-39 0 -66.5 -25t-36.5 -69
h-229l43 637h582v-223h-361l-16 -197q57 63 168 63q116 0 197 -91t81 -246q0 -156 -98.5 -258.5t-257.5 -102.5z" />
    <glyph glyph-name="uni2465" unicode="&#x2465;" horiz-adv-x="1945" 
d="M973 20q143 0 271.5 53.5t220 145.5t145 220t53.5 272t-53.5 272t-145 219.5t-219.5 145t-272 53.5t-272 -53.5t-219.5 -145t-145 -219.5t-53.5 -272t53.5 -272t145 -220t220 -145.5t271.5 -53.5zM973 -150q-178 0 -337.5 67t-274 182t-181.5 274.5t-67 337.5t67 337.5
t181.5 274t274 181.5t337.5 67t337.5 -67t274 -181.5t181.5 -274t67 -337.5t-67 -337.5t-181.5 -274.5t-274 -182t-337.5 -67zM967 176q-182 0 -280.5 140.5t-98.5 388.5q0 264 99 404t280 140q152 0 246.5 -82.5t99.5 -212.5h-254q-3 50 -27.5 74.5t-58.5 24.5
q-56 0 -89.5 -68.5t-33.5 -208.5q30 51 82.5 76t109.5 25q118 0 198.5 -91.5t80.5 -248.5q0 -114 -52 -198t-131 -123.5t-171 -39.5zM961 371q49 0 74.5 47t25.5 112t-25.5 112.5t-74.5 47.5q-48 0 -73.5 -47.5t-25.5 -112.5q0 -64 25.5 -111.5t73.5 -47.5z" />
    <glyph glyph-name="uni2466" unicode="&#x2466;" horiz-adv-x="1945" 
d="M973 1401q-144 0 -272 -53.5t-219.5 -145t-145 -219.5t-53.5 -272t53.5 -272t145 -220t220 -145.5t271.5 -53.5t271.5 53.5t220 145.5t145 220t53.5 272t-53.5 272t-145 219.5t-219.5 145t-272 53.5zM973 1571q178 0 337.5 -67t274 -181.5t181.5 -274t67 -337.5
t-67 -337.5t-181.5 -274.5t-274 -182t-337.5 -67t-337.5 67t-274 182t-181.5 274.5t-67 337.5t67 337.5t181.5 274t274 181.5t337.5 67zM670 993v236h618v-225l-276 -809h-269l279 798h-352z" />
    <glyph glyph-name="uni2467" unicode="&#x2467;" horiz-adv-x="1945" 
d="M973 -150q-178 0 -337.5 67t-274 182t-181.5 274.5t-67 337.5t67 337.5t181.5 274t274 181.5t337.5 67t337.5 -67t274 -181.5t181.5 -274t67 -337.5t-67 -337.5t-181.5 -274.5t-274 -182t-337.5 -67zM973 0q147 0 279 55.5t226.5 150t149.5 226.5t55 279q0 118 -35 227
t-100 196t-152 152t-196 100t-227 35q-147 0 -279 -55t-226.5 -149.5t-150 -226.5t-55.5 -279q0 -196 94 -359.5t257.5 -257.5t359.5 -94zM973 176q-175 0 -272 89.5t-97 215.5q0 91 46.5 159t119.5 99q-60 26 -98.5 85t-38.5 139q0 122 93 204t247 82q155 0 247.5 -82
t92.5 -204q0 -80 -38 -139t-99 -85q74 -31 119.5 -98.5t45.5 -159.5q0 -126 -96.5 -215.5t-271.5 -89.5zM973 371q49 0 78.5 36.5t29.5 98.5q0 60 -29.5 97.5t-78.5 37.5t-79 -37.5t-30 -97.5q0 -61 29.5 -98t79.5 -37zM973 811q43 0 72.5 34t29.5 87q0 54 -29 87.5
t-73 33.5t-72.5 -33t-28.5 -88q0 -53 29 -87t72 -34z" />
    <glyph glyph-name="uni2468" unicode="&#x2468;" horiz-adv-x="1945" 
d="M973 0q147 0 279 55.5t226.5 150t149.5 226.5t55 279q0 118 -35 227t-100 196t-152 152t-196 100t-227 35q-147 0 -279 -55t-226.5 -149.5t-150 -226.5t-55.5 -279q0 -196 94 -359.5t257.5 -257.5t359.5 -94zM973 -150q-178 0 -337.5 67t-274 182t-181.5 274.5t-67 337.5
t67 337.5t181.5 274t274 181.5t337.5 67t337.5 -67t274 -181.5t181.5 -274t67 -337.5t-67 -337.5t-181.5 -274.5t-274 -182t-337.5 -67zM977 1249q182 0 280.5 -140t98.5 -388q0 -264 -99 -404.5t-280 -140.5q-152 0 -246.5 82.5t-99.5 212.5h254q3 -50 27.5 -74t58.5 -24
q56 0 89.5 68t33.5 208q-30 -51 -82.5 -75.5t-110.5 -24.5q-118 0 -198 91.5t-80 248.5q0 86 30 156t80.5 113.5t113 67t130.5 23.5zM983 1055q-49 0 -74.5 -47.5t-25.5 -112.5t25.5 -112.5t74.5 -47.5q48 0 73 47.5t25 112.5t-25 112.5t-73 47.5z" />
    <glyph glyph-name="uni2469" unicode="&#x2469;" horiz-adv-x="1943" 
d="M1833 711q0 -178 -67 -337.5t-181.5 -274.5t-274 -182t-337.5 -67t-337.5 67t-274 182t-181.5 274.5t-67 337.5t67 337.5t181.5 274t274 181.5t337.5 67t337.5 -67t274 -181.5t181.5 -274t67 -337.5zM1683 711q0 118 -35 227t-100 196t-152 152t-196 100t-227 35
q-147 0 -279 -55t-226.5 -149.5t-150 -226.5t-55.5 -279q0 -196 94 -359.5t257.5 -257.5t359.5 -94q147 0 279 55.5t226.5 150t149.5 226.5t55 279zM1524 711q0 -276 -90 -406.5t-242 -130.5t-243 130.5t-91 406.5t90.5 406t243.5 130q152 0 242 -130t90 -406zM1288 711
q0 182 -21.5 250.5t-74.5 68.5t-74.5 -68.5t-21.5 -250.5t21.5 -251t74.5 -69t74.5 69t21.5 251zM770 193h-229v1036h229v-1036z" />
    <glyph glyph-name="uni25A0" unicode="&#x25a0;" 
d="M1554 1421v-1421h-1421v1421h1421z" />
    <glyph glyph-name="uni25A1" unicode="&#x25a1;" 
d="M1554 1421v-1421h-1421v1421h1421zM303 1251v-1081h1081v1081h-1081z" />
    <glyph glyph-name="uni25B2" unicode="&#x25b2;" 
d="M844 1444l727 -1444h-1452z" />
    <glyph glyph-name="uni25B3" unicode="&#x25b3;" 
d="M844 1444l727 -1444h-1452zM397 170h895l-448 885z" />
    <glyph glyph-name="uni25B6" unicode="&#x25b6;" 
d="M123 1438l1444 -727l-1444 -725v1452z" />
    <glyph glyph-name="uni25B7" unicode="&#x25b7;" 
d="M123 1438l1444 -725l-1444 -727v1452zM293 1159v-895l885 449z" />
    <glyph glyph-name="uni25BC" unicode="&#x25bc;" 
d="M1571 1421l-727 -1444l-725 1444h1452z" />
    <glyph glyph-name="uni25BD" unicode="&#x25bd;" 
d="M1571 1421l-727 -1444l-725 1444h1452zM1292 1251h-895l447 -884z" />
    <glyph glyph-name="uni25C0" unicode="&#x25c0;" 
d="M123 711l1444 727v-1452z" />
    <glyph glyph-name="uni25C1" unicode="&#x25c1;" 
d="M123 713l1444 725v-1452zM1397 264v895l-885 -446z" />
    <glyph glyph-name="lozenge" unicode="&#x25ca;" horiz-adv-x="1361" 
d="M20 711l463 710h398l460 -710l-460 -711h-398zM690 1137l-268 -426l268 -426l266 426z" />
    <glyph glyph-name="uni25CB" unicode="&#x25cb;" 
d="M281 711q0 -239 162 -401.5t401 -162.5t401 162.5t162 401.5t-162 401t-401 162t-401 -162t-162 -401zM1577 711q0 -152 -57 -288t-154.5 -234t-233.5 -155t-288 -57t-288 57t-233.5 155t-154.5 234t-57 288t57 288t154.5 233.5t233.5 154.5t288 57t288 -57t233.5 -154.5
t154.5 -233.5t57 -288z" />
    <glyph glyph-name="uni25CF" unicode="&#x25cf;" 
d="M111 711q0 152 57 288t154.5 233.5t233.5 154.5t288 57t288 -57t233.5 -154.5t154.5 -233.5t57 -288t-57 -288t-154.5 -234t-233.5 -155t-288 -57t-288 57t-233.5 155t-154.5 234t-57 288z" />
    <glyph glyph-name="uni25D0" unicode="&#x25d0;" 
d="M844 1274v-1127q239 0 401 162.5t162 401.5t-162 401t-401 162zM844 -23q-152 0 -288 57t-233.5 155t-154.5 234t-57 288t57 288t154.5 233.5t233.5 154.5t288 57t288 -57t233.5 -154.5t154.5 -233.5t57 -288t-57 -288t-154.5 -234t-233.5 -155t-288 -57z" />
    <glyph glyph-name="uni25D1" unicode="&#x25d1;" 
d="M844 147v1127q-239 0 -401 -162t-162 -401t162 -401.5t401 -162.5zM844 -23q-152 0 -288 57t-233.5 155t-154.5 234t-57 288t57 288t154.5 233.5t233.5 154.5t288 57t288 -57t233.5 -154.5t154.5 -233.5t57 -288t-57 -288t-154.5 -234t-233.5 -155t-288 -57z" />
    <glyph glyph-name="uni25D2" unicode="&#x25d2;" 
d="M281 711h1126q0 239 -162 401t-401 162t-401 -162t-162 -401zM1577 711q0 -152 -57 -288t-154.5 -234t-233.5 -155t-288 -57t-288 57t-233.5 155t-154.5 234t-57 288t57 288t154.5 233.5t233.5 154.5t288 57t288 -57t233.5 -154.5t154.5 -233.5t57 -288z" />
    <glyph glyph-name="uni25D3" unicode="&#x25d3;" 
d="M1407 711h-1126q0 -239 162 -401.5t401 -162.5t401 162.5t162 401.5zM1577 711q0 -152 -57 -288t-154.5 -234t-233.5 -155t-288 -57t-288 57t-233.5 155t-154.5 234t-57 288t57 288t154.5 233.5t233.5 154.5t288 57t288 -57t233.5 -154.5t154.5 -233.5t57 -288z" />
    <glyph glyph-name="uni25D4" unicode="&#x25d4;" 
d="M1577 711q0 -152 -57 -288t-154.5 -234t-233.5 -155t-288 -57t-288 57t-233.5 155t-154.5 234t-57 288t57 288t154.5 233.5t233.5 154.5t288 57t288 -57t233.5 -154.5t154.5 -233.5t57 -288zM1407 711h-563v563q-239 0 -401 -162t-162 -401t162 -401.5t401 -162.5
t401 162.5t162 401.5z" />
    <glyph glyph-name="uni25D5" unicode="&#x25d5;" 
d="M844 711v563q-239 0 -401 -162t-162 -401h563zM844 -23q-152 0 -288 57t-233.5 155t-154.5 234t-57 288t57 288t154.5 233.5t233.5 154.5t288 57t288 -57t233.5 -154.5t154.5 -233.5t57 -288t-57 -288t-154.5 -234t-233.5 -155t-288 -57z" />
    <glyph glyph-name="uni25E7" unicode="&#x25e7;" 
d="M133 1421h1421v-1421h-1421v1421zM1384 170v1081h-540v-1081h540z" />
    <glyph glyph-name="uni25E8" unicode="&#x25e8;" 
d="M133 1421h1421v-1421h-1421v1421zM303 1251v-1081h541v1081h-541z" />
    <glyph glyph-name="uni25E9" unicode="&#x25e9;" 
d="M133 0v1421h1421v-1421h-1421zM1384 170v1081l-1081 -1081h1081z" />
    <glyph glyph-name="uni25EA" unicode="&#x25ea;" 
d="M1554 1421v-1421h-1421v1421h1421zM303 1251v-1081l1081 1081h-1081z" />
    <glyph glyph-name="uni2690" unicode="&#x2690;" 
d="M303 602v-602h-170v1421h1421v-819h-1251zM303 1251v-479h1081v479h-1081z" />
    <glyph glyph-name="uni2691" unicode="&#x2691;" 
d="M303 602v-602h-170v1421h1421v-819h-1251z" />
    <glyph glyph-name="uni278A" unicode="&#x278a;" horiz-adv-x="1945" 
d="M973 1571q178 0 337.5 -67t274 -181.5t181.5 -274t67 -337.5t-67 -337.5t-181.5 -274.5t-274 -182t-337.5 -67t-337.5 67t-274 182t-181.5 274.5t-67 337.5t67 337.5t181.5 274t274 181.5t337.5 67zM1120 195v1034h-233l-207 -150v-262l182 135v-757h258z" />
    <glyph glyph-name="uni278B" unicode="&#x278b;" horiz-adv-x="1945" 
d="M973 1571q178 0 337.5 -67t274 -181.5t181.5 -274t67 -337.5t-67 -337.5t-181.5 -274.5t-274 -182t-337.5 -67t-337.5 67t-274 182t-181.5 274.5t-67 337.5t67 337.5t181.5 274t274 181.5t337.5 67zM631 414v-219h694v223h-371l205 205q35 35 57.5 61.5t50 67t41 87.5
t13.5 99q0 144 -95 227.5t-247 83.5q-170 0 -262 -96.5t-92 -263.5h252v22q0 63 27 96t73 33q41 0 66.5 -28t25.5 -72q0 -80 -82 -162z" />
    <glyph glyph-name="uni278C" unicode="&#x278c;" horiz-adv-x="1945" 
d="M973 1571q178 0 337.5 -67t274 -181.5t181.5 -274t67 -337.5t-67 -337.5t-181.5 -274.5t-274 -182t-337.5 -67t-337.5 67t-274 182t-181.5 274.5t-67 337.5t67 337.5t181.5 274t274 181.5t337.5 67zM975 176q172 0 269 89.5t97 215.5q0 92 -45.5 159.5t-119.5 98.5
q60 26 97.5 85t37.5 139q0 122 -91 204t-245 82q-162 0 -254 -87t-92 -234h243q0 61 28 93t71 32t71.5 -31t28.5 -82q0 -62 -40 -91.5t-109 -29.5h-25v-198h33q149 0 149 -115q0 -62 -29.5 -98.5t-74.5 -36.5q-47 0 -78.5 33.5t-34.5 93.5h-260q3 -150 102 -236t271 -86z
" />
    <glyph glyph-name="uni278D" unicode="&#x278d;" horiz-adv-x="1945" 
d="M973 1571q178 0 337.5 -67t274 -181.5t181.5 -274t67 -337.5t-67 -337.5t-181.5 -274.5t-274 -182t-337.5 -67t-337.5 67t-274 182t-181.5 274.5t-67 337.5t67 337.5t181.5 274t274 181.5t337.5 67zM958 195h248v194h101v209h-101v631h-295l-399 -621v-219h446v-194z
M958 942v-344h-223z" />
    <glyph glyph-name="uni278E" unicode="&#x278e;" horiz-adv-x="1945" 
d="M973 1571q178 0 337.5 -67t274 -181.5t181.5 -274t67 -337.5t-67 -337.5t-181.5 -274.5t-274 -182t-337.5 -67t-337.5 67t-274 182t-181.5 274.5t-67 337.5t67 337.5t181.5 274t274 181.5t337.5 67zM977 174q159 0 257.5 102.5t98.5 258.5q0 155 -81 246t-197 91
q-111 0 -168 -63l16 197h361v223h-582l-43 -637h229q9 44 36.5 69t66.5 25q46 0 74 -41t28 -115q0 -159 -104 -159q-42 0 -72.5 34.5t-30.5 92.5h-260q0 -146 96 -235t275 -89z" />
    <glyph glyph-name="uni278F" unicode="&#x278f;" horiz-adv-x="1945" 
d="M973 -150q-178 0 -337.5 67t-274 182t-181.5 274.5t-67 337.5t67 337.5t181.5 274t274 181.5t337.5 67t337.5 -67t274 -181.5t181.5 -274t67 -337.5t-67 -337.5t-181.5 -274.5t-274 -182t-337.5 -67zM967 176q92 0 171 39.5t131 123.5t52 198q0 157 -80.5 248.5
t-198.5 91.5q-57 0 -109.5 -25t-82.5 -76q0 140 33.5 208.5t89.5 68.5q34 0 58.5 -24.5t27.5 -74.5h254q-5 130 -99.5 212.5t-246.5 82.5q-181 0 -280 -140t-99 -404q0 -248 98.5 -388.5t280.5 -140.5zM961 371q-48 0 -73.5 47.5t-25.5 111.5q0 65 25.5 112.5t73.5 47.5
q49 0 74.5 -47.5t25.5 -112.5t-25.5 -112t-74.5 -47z" />
    <glyph glyph-name="uni2790" unicode="&#x2790;" horiz-adv-x="1945" 
d="M973 1571q178 0 337.5 -67t274 -181.5t181.5 -274t67 -337.5t-67 -337.5t-181.5 -274.5t-274 -182t-337.5 -67t-337.5 67t-274 182t-181.5 274.5t-67 337.5t67 337.5t181.5 274t274 181.5t337.5 67zM670 1229v-236h352l-279 -798h269l276 809v225h-618z" />
    <glyph glyph-name="uni2791" unicode="&#x2791;" horiz-adv-x="1945" 
d="M973 1571q178 0 337.5 -67t274 -181.5t181.5 -274t67 -337.5t-67 -337.5t-181.5 -274.5t-274 -182t-337.5 -67t-337.5 67t-274 182t-181.5 274.5t-67 337.5t67 337.5t181.5 274t274 181.5t337.5 67zM973 371q-50 0 -79.5 37t-29.5 98q0 60 30 97.5t79 37.5t78.5 -37.5
t29.5 -97.5q0 -62 -29.5 -98.5t-78.5 -36.5zM973 811q-43 0 -72 34t-29 87q0 55 28.5 88t72.5 33t73 -33.5t29 -87.5q0 -53 -29.5 -87t-72.5 -34zM973 176q175 0 271.5 89.5t96.5 215.5q0 92 -45.5 159.5t-119.5 98.5q61 26 99 85t38 139q0 122 -92.5 204t-247.5 82
q-154 0 -247 -82t-93 -204q0 -80 38.5 -139t98.5 -85q-73 -31 -119.5 -99t-46.5 -159q0 -126 97 -215.5t272 -89.5z" />
    <glyph glyph-name="uni2792" unicode="&#x2792;" horiz-adv-x="1945" 
d="M973 -150q-178 0 -337.5 67t-274 182t-181.5 274.5t-67 337.5t67 337.5t181.5 274t274 181.5t337.5 67t337.5 -67t274 -181.5t181.5 -274t67 -337.5t-67 -337.5t-181.5 -274.5t-274 -182t-337.5 -67zM977 1249q-68 0 -130.5 -23.5t-113 -67t-80.5 -113.5t-30 -156
q0 -157 80 -248.5t198 -91.5q58 0 110.5 24.5t82.5 75.5q0 -140 -33.5 -208t-89.5 -68q-34 0 -58.5 24t-27.5 74h-254q5 -130 99.5 -212.5t246.5 -82.5q181 0 280 140.5t99 404.5q0 248 -98.5 388t-280.5 140zM983 1055q48 0 73 -47.5t25 -112.5t-25 -112.5t-73 -47.5
q-49 0 -74.5 47.5t-25.5 112.5t25.5 112.5t74.5 47.5z" />
    <glyph glyph-name="uni2793" unicode="&#x2793;" horiz-adv-x="1943" 
d="M973 1571q178 0 337.5 -67t274 -181.5t181.5 -274t67 -337.5t-67 -337.5t-181.5 -274.5t-274 -182t-337.5 -67t-337.5 67t-274 182t-181.5 274.5t-67 337.5t67 337.5t181.5 274t274 181.5t337.5 67zM1192 174q152 0 242 130.5t90 406.5t-90 406t-242 130
q-153 0 -243.5 -130t-90.5 -406t91 -406.5t243 -130.5zM1192 391q-53 0 -74.5 69t-21.5 251t21.5 250.5t74.5 68.5t74.5 -68.5t21.5 -250.5t-21.5 -251t-74.5 -69zM541 1229v-1036h229v1036h-229z" />
    <glyph glyph-name="uni29B6" unicode="&#x29b6;" 
d="M1577 711q0 -152 -57 -288t-154.5 -234t-233.5 -155t-288 -57t-288 57t-233.5 155t-154.5 234t-57 288t57 288t154.5 233.5t233.5 154.5t288 57t288 -57t233.5 -154.5t154.5 -233.5t57 -288zM1407 711q0 215 -134.5 370.5t-342.5 186.5v-1114q208 29 342.5 184.5
t134.5 372.5zM281 711q0 -217 134.5 -372.5t344.5 -184.5v1114q-210 -29 -344.5 -184.5t-134.5 -372.5z" />
    <glyph glyph-name="uni2B12" unicode="&#x2b12;" 
d="M1554 1421v-1421h-1421v1421h1421zM303 170h1081v541h-1081v-541z" />
    <glyph glyph-name="uni2B13" unicode="&#x2b13;" 
d="M1554 1421v-1421h-1421v1421h1421zM1384 1251h-1081v-540h1081v540z" />
    <glyph glyph-name="uni2B14" unicode="&#x2b14;" 
d="M1554 1421v-1421h-1421v1421h1421zM303 1251v-1081h1081z" />
    <glyph glyph-name="uni2B15" unicode="&#x2b15;" 
d="M133 0v1421h1421v-1421h-1421zM1384 170v1081h-1081z" />
    <glyph glyph-name="uni2B16" unicode="&#x2b16;" 
d="M844 -29l-740 740l740 739l739 -739zM1343 711l-499 499v-999z" />
    <glyph glyph-name="uni2B17" unicode="&#x2b17;" 
d="M1583 711l-739 -740l-740 740l740 739zM844 1210l-500 -499l500 -500v999z" />
    <glyph glyph-name="uni2B18" unicode="&#x2b18;" 
d="M1583 711l-739 -740l-740 740l740 739zM844 1210l-500 -499h999z" />
    <glyph glyph-name="uni2B19" unicode="&#x2b19;" 
d="M844 1450l739 -739l-739 -740l-740 740zM344 711l500 -500l499 500h-999z" />
    <glyph glyph-name="uni2B2C" unicode="&#x2b2c;" 
d="M844 258q-203 0 -371.5 59.5t-265 164t-96.5 231.5q0 95 57 179.5t154.5 144.5t233.5 95t288 35t288 -35t233.5 -95t154.5 -144.5t57 -179.5q0 -127 -96.5 -231.5t-265 -164t-371.5 -59.5z" />
    <glyph glyph-name="uni2B2D" unicode="&#x2b2d;" 
d="M285 713q0 -59 42.5 -113t116 -94t178 -64t222.5 -24t222.5 24t178 64t116 94t42.5 113t-42.5 113t-116 94t-178 64t-222.5 24t-222.5 -24t-178 -64t-116 -94t-42.5 -113zM1577 713q0 -127 -96.5 -231.5t-265 -164t-371.5 -59.5t-371.5 59.5t-265 164t-96.5 231.5
q0 95 57 179.5t154.5 144.5t233.5 95t288 35t288 -35t233.5 -95t154.5 -144.5t57 -179.5z" />
    <glyph glyph-name="uni2B2E" unicode="&#x2b2e;" 
d="M1298 713q0 -152 -35 -288t-95 -233.5t-144.5 -154.5t-179.5 -57q-127 0 -231.5 96.5t-164 265t-59.5 371.5t59.5 371.5t164 265t231.5 96.5q95 0 179.5 -57t144.5 -154.5t95 -233.5t35 -288z" />
    <glyph glyph-name="uni2B2F" unicode="&#x2b2f;" 
d="M844 154q78 0 144.5 72t105.5 200.5t39 286.5t-39 286.5t-105.5 200.5t-144.5 72t-144.5 -72t-105.5 -200.5t-39 -286.5t39 -286.5t105.5 -200.5t144.5 -72zM844 1446q95 0 179.5 -57t144.5 -154.5t95 -233.5t35 -288t-35 -288t-95 -233.5t-144.5 -154.5t-179.5 -57
q-127 0 -231.5 96.5t-164 265t-59.5 371.5t59.5 371.5t164 265t231.5 96.5z" />
    <glyph glyph-name="commaaccent" unicode="&#xf6c3;" horiz-adv-x="536" 
d="M440 -92v-189q0 -154 -81.5 -221t-256.5 -67v135q89 0 122.5 32.5t33.5 86.5v4h-160v219h342z" />
    <glyph glyph-name="Jacute" horiz-adv-x="1226" 
d="M45 526v113h358v-98q0 -246 170 -246q172 0 172 246v880h359v-884q0 -275 -132.5 -418.5t-398.5 -143.5q-263 0 -395.5 145t-132.5 406zM864 1815h328l-195 -306h-245z" />
    <glyph glyph-name="i.trk" horiz-adv-x="548" 
d="M446 0h-344v1024h344v-1024zM463 1155h-377v266h377v-266z" />
    <glyph glyph-name="jacute" horiz-adv-x="548" 
d="M51 -381q-70 0 -131 10v269q29 -2 70 -2q54 0 83 39t29 112v977h344v-1044q0 -175 -106.5 -268t-288.5 -93zM238 1421h327l-194 -305h-246z" />
    <glyph glyph-name="ringacute" horiz-adv-x="577" 
d="M23 1319q0 68 45 145l174 303h266l-193 -194h4q99 -12 166.5 -85t67.5 -169q0 -106 -78 -180t-188 -74t-187 74t-77 180zM182 1319q0 -46 30.5 -77.5t74.5 -31.5q46 0 77 31.5t31 77.5q0 47 -31 80t-77 33q-44 0 -74.5 -33t-30.5 -80z" />
    <glyph glyph-name="commatop" horiz-adv-x="536" 
d="M440 1130h-342v189q0 154 81.5 221.5t256.5 67.5v-135q-88 0 -121.5 -32.5t-33.5 -86.5v-4h159v-220z" />
    <glyph glyph-name="caron.slovak" horiz-adv-x="440" 
d="M154 1421h301l-156 -389h-223z" />
    <glyph glyph-name="parenleft.subs" horiz-adv-x="501" 
d="M311 160q3 -243 133 -449h-217q-137 213 -137 449t137 446h217q-130 -210 -133 -446z" />
    <glyph glyph-name="parenright.subs" horiz-adv-x="501" 
d="M190 160q-3 241 -133 446h217q138 -207 138 -446t-138 -449h-217q130 201 133 449z" />
    <glyph glyph-name="zero.dnom" horiz-adv-x="727" 
d="M362 -14q-66 0 -121.5 22t-99.5 68t-69 124.5t-25 182.5t25 182.5t69 124.5t99.5 68t121.5 22q139 0 228.5 -97.5t89.5 -299.5t-89.5 -299.5t-228.5 -97.5zM362 160q38 0 59 48t21 175t-21 175t-59 48t-58.5 -48t-20.5 -175t20.5 -175t58.5 -48z" />
    <glyph glyph-name="one.dnom" horiz-adv-x="579" 
d="M471 0h-235v528l-168 -120v227l176 131h227v-766z" />
    <glyph glyph-name="two.dnom" horiz-adv-x="700" 
d="M63 0v178l308 268q43 46 43 97q0 28 -16.5 46.5t-45.5 18.5q-67 0 -67 -102h-228q-2 123 75 198.5t226 75.5q126 0 206.5 -65.5t80.5 -171.5q0 -131 -121 -232l-143 -121h254v-190h-572z" />
    <glyph glyph-name="three.dnom" horiz-adv-x="720" 
d="M360 -14q-159 0 -237 62.5t-80 178.5h231q1 -36 21.5 -56.5t50.5 -20.5q31 0 53.5 20.5t22.5 56.5q0 84 -98 84h-41v150h20q49 0 81 22.5t32 67.5q0 32 -19 51t-47 19t-44.5 -21t-16.5 -57h-226q0 107 75 172t220 65q137 0 209 -64.5t72 -148.5q0 -54 -33.5 -102.5
t-89.5 -61.5q60 -16 104 -65t44 -117q0 -103 -85.5 -169t-218.5 -66z" />
    <glyph glyph-name="four.dnom" horiz-adv-x="739" 
d="M592 0h-213v135h-338v182l307 449h244v-457h84v-174h-84v-135zM379 309v215l-146 -215h146z" />
    <glyph glyph-name="five.dnom" horiz-adv-x="702" 
d="M360 -14q-160 0 -235.5 64.5t-77.5 176.5h229q3 -34 23 -55.5t53 -21.5q36 0 56 27.5t20 70.5q0 45 -21 71.5t-53 26.5q-54 0 -75 -63h-205l32 483h490v-193h-295l-12 -112q50 41 141 41q96 0 160.5 -67t64.5 -177q0 -122 -76 -197t-219 -75z" />
    <glyph glyph-name="six.dnom" horiz-adv-x="712" 
d="M365 -14q-148 0 -233 102t-85 289q0 194 82.5 298.5t239.5 104.5q124 0 201.5 -61.5t88.5 -165.5h-231q-13 61 -61 61q-86 0 -86 -176q64 64 149 64q102 0 169 -66.5t67 -183.5q0 -122 -87 -194t-214 -72zM365 147q35 0 54 28t19 71t-19 70.5t-54 27.5q-34 0 -54 -27.5
t-20 -70.5t20 -71t54 -28z" />
    <glyph glyph-name="seven.dnom" horiz-adv-x="620" 
d="M43 561v205h535v-195l-228 -571h-239l227 561h-295z" />
    <glyph glyph-name="eight.dnom" horiz-adv-x="743" 
d="M373 -14q-151 0 -233.5 62t-82.5 175q0 59 38 107.5t106 72.5q-52 15 -86.5 60.5t-34.5 97.5q0 99 81 159t212 60q130 0 210.5 -60t80.5 -159q0 -52 -34 -97.5t-87 -60.5q68 -24 105.5 -72.5t37.5 -107.5q0 -113 -81.5 -175t-231.5 -62zM373 143q33 0 54.5 25.5
t21.5 64.5q0 37 -21.5 61.5t-54.5 24.5q-35 0 -56.5 -24.5t-21.5 -61.5q0 -39 21.5 -64.5t56.5 -25.5zM373 461q32 0 50.5 21t18.5 57q0 37 -18.5 59.5t-50.5 22.5t-52 -22.5t-20 -59.5q0 -35 20 -56.5t52 -21.5z" />
    <glyph glyph-name="nine.dnom" horiz-adv-x="712" 
d="M348 780q148 0 233 -102t85 -289q0 -194 -82.5 -298.5t-239.5 -104.5q-124 0 -202 62t-89 165h232q13 -61 61 -61q86 0 86 176q-64 -64 -149 -64q-102 0 -169 66.5t-67 183.5q0 122 87 194t214 72zM348 618q-35 0 -54.5 -27.5t-19.5 -70.5t19.5 -70.5t54.5 -27.5
q34 0 54 27.5t20 70.5t-20 70.5t-54 27.5z" />
    <glyph glyph-name="parenleft.dnum" horiz-adv-x="501" 
d="M311 385q3 -241 133 -448h-217q-137 213 -137 448q0 236 137 446h217q-130 -210 -133 -446z" />
    <glyph glyph-name="parenright.dnum" horiz-adv-x="501" 
d="M190 385q-3 241 -133 446h217q138 -207 138 -446q0 -238 -138 -448h-217q130 201 133 448z" />
    <glyph glyph-name="backslash.case" horiz-adv-x="925" 
d="M580 -137l-529 1685h295l528 -1685h-294z" />
    <glyph glyph-name="bar.case" horiz-adv-x="610" 
d="M164 -137v1685h282v-1685h-282z" />
    <glyph glyph-name="braceleft.case" horiz-adv-x="821" 
d="M719 -137h-221q-246 0 -246 325v170q0 124 -38 172.5t-132 57.5v237q94 9 132 57.5t38 172.5v170q0 325 246 325h221v-245h-41q-57 0 -85 -13.5t-42 -57t-14 -132.5v-129q0 -108 -45 -177t-132 -89q87 -20 132 -89.5t45 -177.5v-129q0 -89 14 -132t42 -56.5t85 -13.5h41
v-246z" />
    <glyph glyph-name="braceright.case" horiz-adv-x="821" 
d="M102 -137v246h41q57 0 85 13.5t42.5 56.5t14.5 132v129q0 109 44.5 178t131.5 89q-87 20 -131.5 88.5t-44.5 177.5v129q0 89 -14.5 132.5t-42.5 57t-85 13.5h-41v245h222q245 0 245 -325v-170q0 -124 38 -172.5t132 -57.5v-237q-94 -9 -132 -57.5t-38 -172.5v-170
q0 -325 -245 -325h-222z" />
    <glyph glyph-name="bracketleft.case" horiz-adv-x="724" 
d="M623 1305h-195v-1196h195v-246h-480v1687h480v-245z" />
    <glyph glyph-name="bracketright.case" horiz-adv-x="724" 
d="M297 1305h-195v245h480v-1687h-480v246h195v1196z" />
    <glyph glyph-name="emdash.case" horiz-adv-x="1789" 
d="M68 598v201h1654v-201h-1654z" />
    <glyph glyph-name="endash.case" horiz-adv-x="899" 
d="M68 598v201h763v-201h-763z" />
    <glyph glyph-name="guillemotleft.case" horiz-adv-x="1099" 
d="M371 664l200 -410h-256l-229 410l229 409h256zM801 664l200 -410h-256l-229 410l229 409h256z" />
    <glyph glyph-name="guillemotright.case" horiz-adv-x="1099" 
d="M528 254l201 410l-201 409h256l230 -409l-230 -410h-256zM98 254l201 410l-201 409h256l230 -409l-230 -410h-256z" />
    <glyph glyph-name="guilsinglleft.case" horiz-adv-x="669" 
d="M371 664l200 -410h-256l-229 410l229 409h256z" />
    <glyph glyph-name="guilsinglright.case" horiz-adv-x="669" 
d="M98 254l201 410l-201 409h256l230 -409l-230 -410h-256z" />
    <glyph glyph-name="hyphen.case" horiz-adv-x="745" 
d="M113 553v291h520v-291h-520z" />
    <glyph glyph-name="parenleft.case" horiz-adv-x="731" 
d="M438 707q8 -460 232 -844h-295q-242 385 -242 844q0 458 242 843h295q-224 -384 -232 -843z" />
    <glyph glyph-name="parenright.case" horiz-adv-x="731" 
d="M293 707q-8 459 -232 843h295q242 -385 242 -843q0 -459 -242 -844h-295q224 384 232 844z" />
    <glyph glyph-name="slash.case" horiz-adv-x="925" 
d="M874 1548l-530 -1685h-293l529 1685h294z" />
    <glyph glyph-name="questiondown.case" horiz-adv-x="976" 
d="M16 350q0 83 34.5 151t84 110.5t99 76.5t85 64.5t37.5 58.5l2 33h273l4 -37q7 -59 -9.5 -107t-46 -78t-65.5 -59.5t-68 -52.5t-53.5 -56.5t-21.5 -72.5q0 -57 28.5 -89t83.5 -32q64 0 99.5 47t35.5 131h343q0 -130 -52.5 -233.5t-162 -166.5t-261.5 -63
q-214 0 -341.5 109t-127.5 266zM676 1421v-354h-354v354h354z" />
    <glyph glyph-name="exclamdown.case" horiz-adv-x="616" 
d="M178 844h258l49 -574v-270h-354v270zM131 1067v354h354v-354h-354z" />
    <glyph glyph-name="zero.tf" horiz-adv-x="1228" 
d="M614 -25q-114 0 -208 42.5t-166 129t-112 230t-40 334.5t40 335t112 230t166 128t208 42t208 -42t166.5 -128t112.5 -230t40 -335q0 -190 -40 -334t-112.5 -230.5t-166.5 -129t-208 -42.5zM614 250q34 0 64 10t64 40.5t58 79.5t40 134t16 197q0 85 -10 163l-344 -587
q47 -37 112 -37zM373 711q0 -88 10 -166l344 590q-49 36 -113 36q-34 0 -64 -10t-63.5 -40.5t-57.5 -79t-40 -133.5t-16 -197z" />
    <glyph glyph-name="one.tf" horiz-adv-x="1228" 
d="M162 0v307h325v740l-284 -207v377l291 204h348v-1114h223v-307h-903z" />
    <glyph glyph-name="two.tf" horiz-adv-x="1228" 
d="M1087 1020q0 -72 -18.5 -136t-55.5 -119.5t-68 -92t-79 -84.5l-280 -281h508v-307h-951v299l488 504q114 114 114 219q0 63 -36 101t-93 38q-137 0 -137 -207h-346q0 230 125.5 361t359.5 131q208 0 338.5 -114.5t130.5 -311.5z" />
    <glyph glyph-name="three.tf" horiz-adv-x="1228" 
d="M614 -25q-236 0 -371 118.5t-137 324.5h357q3 -82 45 -125t106 -43t106 47t42 129q0 156 -184 156h-70v276h55q81 0 133 40.5t52 123.5q0 67 -39 107t-99 40q-57 0 -95.5 -44.5t-41.5 -129.5h-336q5 207 130 329t347 122q106 0 194.5 -31t146.5 -84.5t90 -124.5t32 -151
q0 -111 -52 -192t-134 -118q101 -40 165 -132.5t64 -219.5q0 -82 -32.5 -156t-94 -133t-159.5 -94t-220 -35z" />
    <glyph glyph-name="four.tf" horiz-adv-x="1228" 
d="M1024 0h-340v268h-614v299l548 854h406v-868h135v-285h-135v-268zM684 553v475l-307 -475h307z" />
    <glyph glyph-name="five.tf" horiz-adv-x="1228" 
d="M627 -25q-246 0 -378 120.5t-134 322.5h356q0 -78 41.5 -123t99.5 -45q146 0 146 213q0 101 -40 157t-104 56q-53 0 -89.5 -34t-49.5 -95h-317l61 874h799v-305h-496l-24 -272q86 90 231 90q160 0 273.5 -126t113.5 -341q0 -140 -60 -251.5t-172 -176t-257 -64.5z" />
    <glyph glyph-name="six.tf" horiz-adv-x="1228" 
d="M631 -25q-250 0 -386 192.5t-136 532.5q0 363 136.5 554.5t387.5 191.5q134 0 240 -51t167 -144t64 -211h-348q-4 66 -39.5 97.5t-83.5 31.5q-73 0 -117.5 -88t-44.5 -264q46 55 112.5 86t139.5 31q79 0 148.5 -28.5t125.5 -84t88.5 -146.5t32.5 -206q0 -118 -41 -214
t-110.5 -156t-155.5 -92t-180 -32zM623 250q66 0 101.5 62t35.5 149t-35.5 149t-101.5 62t-102 -62t-36 -149t36 -149t102 -62z" />
    <glyph glyph-name="seven.tf" horiz-adv-x="1228" 
d="M168 1098v323h891v-309l-400 -1112h-366l401 1098h-526z" />
    <glyph glyph-name="eight.tf" horiz-adv-x="1228" 
d="M614 242q70 0 114 50t44 134t-44 134t-114 50t-113.5 -50t-43.5 -134t43.5 -134t113.5 -50zM614 854q64 0 105 43.5t41 118.5t-41 118.5t-105 43.5t-104.5 -43.5t-40.5 -118.5t40.5 -118.5t104.5 -43.5zM614 -25q-122 0 -220 35t-159 94t-93.5 133t-32.5 156
q0 127 63 219.5t164 132.5q-82 37 -134 118t-52 192q0 80 32 151t90.5 124.5t147 84.5t194.5 31q212 0 338.5 -112.5t126.5 -278.5q0 -111 -52 -192t-134 -118q101 -40 164 -132.5t63 -219.5q0 -82 -32.5 -156t-94 -133t-159.5 -94t-220 -35z" />
    <glyph glyph-name="nine.tf" horiz-adv-x="1228" 
d="M596 1446q250 0 386 -192.5t136 -532.5q0 -363 -136.5 -554.5t-387.5 -191.5q-134 0 -240 51t-167 144t-64 211h348q4 -66 39.5 -97.5t83.5 -31.5q73 0 117.5 88t44.5 264q-46 -55 -112.5 -86t-139.5 -31q-79 0 -148.5 28.5t-125.5 84t-88.5 146.5t-32.5 206
q0 118 41 214t110.5 156t155.5 92t180 32zM604 1171q-66 0 -101.5 -61.5t-35.5 -148.5t35.5 -149t101.5 -62t101.5 62t35.5 149t-35.5 148.5t-101.5 61.5z" />
    <glyph glyph-name="cent.tf" horiz-adv-x="1228" 
d="M764 0h-295v195q-168 45 -263 180t-95 336t95 336t263 178v196h295v-190q154 -33 249 -138.5t105 -267.5h-354q-4 77 -43.5 126.5t-95.5 49.5q-70 0 -114 -76.5t-44 -213.5t44 -214t114 -77q56 0 95.5 49.5t43.5 126.5h354q-10 -163 -105 -269t-249 -139v-188z" />
    <glyph glyph-name="dollar.tf" horiz-adv-x="1228" 
d="M471 -217v213q-181 36 -276 161.5t-95 336.5h346q-3 -126 49.5 -189t137.5 -63q75 0 117.5 38.5t42.5 104.5q0 52 -37 93t-101 63l-176 61q-77 27 -135.5 60t-108.5 81t-77 115.5t-27 151.5q0 161 96 269t244 144v215h295v-217q160 -39 256 -151t96 -297h-346
q4 107 -40 160t-120 53q-68 0 -106.5 -39.5t-38.5 -89.5q0 -51 36 -93.5t103 -66.5l176 -61q77 -27 135 -59.5t108 -80t76.5 -114t26.5 -150.5q0 -167 -98 -284t-264 -152v-213h-295z" />
    <glyph glyph-name="yen.tf" horiz-adv-x="1228" 
d="M170 508v205h176l-305 708h371l209 -559l210 559h357l-305 -708h174v-205h-266v-109h266v-204h-266v-195h-355v195h-266v204h266v109h-266z" />
    <glyph glyph-name="sterling.tf" horiz-adv-x="1228" 
d="M127 524v209h104q-67 157 -67 285q0 186 122.5 306t340.5 120q231 0 351 -129.5t120 -360.5h-348q0 103 -33.5 156t-98.5 53q-55 0 -87.5 -41t-32.5 -110q0 -42 12.5 -88t33 -102t29.5 -89h207v-209h-172q2 -12 2 -30q0 -112 -53 -185h547v-309h-981v309q68 0 123 48
t55 141v26h-174z" />
    <glyph glyph-name="Euro.tf" horiz-adv-x="1228" 
d="M33 768v205h135q22 102 61.5 182.5t89.5 134.5t112.5 89.5t127 51t135.5 15.5q140 0 253.5 -58.5t180.5 -168.5t68 -252h-348q-6 93 -46 141.5t-112 48.5q-60 0 -102.5 -39.5t-65.5 -144.5h226v-205h-248v-115h248v-204h-226q23 -105 65.5 -145t102.5 -40q72 0 112 49
t46 142h348q-1 -142 -68 -252.5t-180.5 -169t-253.5 -58.5q-89 0 -169 26t-151.5 80t-125 148t-80.5 220h-135v204h110v115h-110z" />
    <glyph glyph-name="a.ord" horiz-adv-x="733" 
d="M674 655h-213v103q-28 -57 -85.5 -87t-123.5 -30q-102 0 -157.5 52t-55.5 145q0 89 56 143.5t157 73.5l192 37v26q0 94 -79 94q-80 0 -80 -94h-226q3 111 82 174.5t224 63.5q153 0 231 -68.5t78 -202.5v-430zM330 793q49 0 81.5 36t32.5 107v25l-102 -21q-82 -14 -82 -80
q0 -30 19.5 -48.5t50.5 -18.5z" />
    <glyph glyph-name="b.ord" horiz-adv-x="788" 
d="M471 641q-111 0 -182 102v-88h-221v953h231v-340q71 88 172 88q124 0 199 -96.5t75 -262.5q0 -164 -75 -260t-199 -96zM399 803q51 0 79 53t28 141q0 90 -28 143.5t-79 53.5t-78.5 -53.5t-27.5 -143.5q0 -89 27.5 -141.5t78.5 -52.5z" />
    <glyph glyph-name="c.ord" horiz-adv-x="749" 
d="M385 641q-160 0 -253 96t-93 260q0 166 93 262.5t253 96.5q140 0 230.5 -74.5t97.5 -206.5h-238q-3 60 -28 89.5t-64 29.5q-48 0 -77.5 -51t-29.5 -146q0 -94 29.5 -144t77.5 -50q39 0 64 29.5t28 89.5h238q-7 -132 -97.5 -206.5t-230.5 -74.5z" />
    <glyph glyph-name="d.ord" horiz-adv-x="788" 
d="M317 641q-125 0 -199.5 95.5t-74.5 260.5q0 166 74.5 262.5t199.5 96.5q98 0 172 -88v340h230v-953h-219v88q-71 -102 -183 -102zM387 803q51 0 79 53t28 141q0 90 -28 143.5t-79 53.5t-78.5 -53.5t-27.5 -143.5q0 -89 27.5 -141.5t78.5 -52.5z" />
    <glyph glyph-name="e.ord" horiz-adv-x="759" 
d="M381 641q-149 0 -245.5 93t-96.5 263q0 163 93 261t249 98q158 0 249 -93.5t91 -254.5v-66h-447q3 -67 34 -105t77 -38q34 0 58 23t30 67h244q-20 -116 -111 -182t-225 -66zM383 1206q-42 0 -71.5 -37.5t-35.5 -97.5h209q-1 61 -29.5 98t-72.5 37z" />
    <glyph glyph-name="f.ord" horiz-adv-x="509" 
d="M479 1161h-133v-506h-231v506h-84v180h84v33q0 126 68 188t190 62q48 0 110 -10v-174q-16 4 -55 4q-42 0 -62 -19.5t-20 -68.5v-15h133v-180z" />
    <glyph glyph-name="g.ord" horiz-adv-x="788" 
d="M324 678q-126 0 -203.5 94.5t-77.5 245.5q0 152 78.5 245t200.5 93q107 0 180 -103v88h219v-643q0 -148 -88.5 -223.5t-247.5 -75.5q-167 0 -247 66.5t-87 173.5h250q2 -44 24 -69t64 -25q52 0 77.5 31t25.5 104v88q-65 -90 -168 -90zM389 840q50 0 77.5 51t27.5 127
t-27.5 127t-77.5 51q-49 0 -75.5 -51t-26.5 -127t26.5 -127t75.5 -51z" />
    <glyph glyph-name="h.ord" horiz-adv-x="753" 
d="M688 655h-231v406q0 113 -76 113q-40 0 -61 -33.5t-21 -85.5v-400h-231v953h231v-361q24 48 71 78.5t105 30.5q106 0 159.5 -67.5t53.5 -186.5v-447z" />
    <glyph glyph-name="i.ord" horiz-adv-x="368" 
d="M299 655h-231v686h231v-686zM309 1430h-252v178h252v-178z" />
    <glyph glyph-name="j.ord" horiz-adv-x="368" 
d="M35 399q-39 0 -88 9v178h47q74 0 74 100v655h231v-700q0 -116 -71.5 -179t-192.5 -63zM309 1430h-252v178h252v-178z" />
    <glyph glyph-name="k.ord" horiz-adv-x="759" 
d="M299 655h-231v953h231v-488l195 221h264l-240 -268l236 -418h-252l-150 273l-53 -60v-213z" />
    <glyph glyph-name="l.ord" horiz-adv-x="368" 
d="M299 655h-231v953h231v-953z" />
    <glyph glyph-name="m.ord" horiz-adv-x="1124" 
d="M1059 655h-230v406q0 113 -73 113q-37 0 -56.5 -33.5t-19.5 -85.5v-400h-231v406q0 113 -72 113q-38 0 -58 -33.5t-20 -85.5v-400h-231v686h221v-100q28 48 75 81.5t107 33.5q57 0 103 -28.5t71 -84.5q72 113 195 113q219 0 219 -262v-439z" />
    <glyph glyph-name="n.ord" horiz-adv-x="753" 
d="M688 655h-231v406q0 113 -76 113q-40 0 -61 -33.5t-21 -85.5v-400h-231v686h221v-100q29 50 76 82.5t108 32.5q109 0 162 -67t53 -187v-447z" />
    <glyph glyph-name="o.ord" horiz-adv-x="768" 
d="M383 641q-154 0 -249 96t-95 260q0 165 95 262t249 97t250 -97t96 -262q0 -164 -96 -260t-250 -96zM383 803q51 0 78.5 52.5t27.5 141.5q0 90 -27.5 143.5t-78.5 53.5t-79 -53.5t-28 -143.5q0 -88 28 -141t79 -53z" />
    <glyph glyph-name="p.ord" horiz-adv-x="788" 
d="M471 641q-101 0 -172 88v-313h-231v925h221v-88q72 103 182 103q124 0 199 -96.5t75 -262.5q0 -164 -75 -260t-199 -96zM399 803q51 0 79 53t28 141q0 90 -28 143.5t-79 53.5t-78.5 -53.5t-27.5 -143.5q0 -89 27.5 -141.5t78.5 -52.5z" />
    <glyph glyph-name="q.ord" horiz-adv-x="788" 
d="M317 641q-125 0 -199.5 95.5t-74.5 260.5q0 166 74.5 262.5t199.5 96.5q111 0 183 -103v88h219v-925h-230v313q-74 -88 -172 -88zM387 803q51 0 79 53t28 141q0 90 -28 143.5t-79 53.5t-78.5 -53.5t-27.5 -143.5q0 -89 27.5 -141.5t78.5 -52.5z" />
    <glyph glyph-name="r.ord" horiz-adv-x="522" 
d="M299 655h-231v686h221v-159q18 94 67 134t138 40h4v-234q-18 2 -64 2q-135 0 -135 -166v-303z" />
    <glyph glyph-name="s.ord" horiz-adv-x="712" 
d="M365 641q-151 0 -233.5 63.5t-88.5 180.5h233q0 -107 89 -107q39 0 60 17.5t21 48.5q0 45 -57 57l-133 29q-201 43 -201 198q0 104 83.5 166t215.5 62q136 0 219 -59t89 -171h-220q0 93 -84 93q-34 0 -55.5 -15.5t-21.5 -40.5t14 -38.5t49 -20.5l131 -29
q197 -43 197 -198q0 -108 -85 -172t-222 -64z" />
    <glyph glyph-name="t.ord" horiz-adv-x="530" 
d="M330 649q-112 0 -165.5 58t-53.5 176v278h-86v180h86v166h229v-166h139v-180h-139v-229q0 -49 19 -71.5t59 -22.5q34 0 61 6v-182q-73 -13 -149 -13z" />
    <glyph glyph-name="u.ord" horiz-adv-x="745" 
d="M676 655h-219v101q-29 -50 -75.5 -82.5t-105.5 -32.5q-106 0 -158 67t-52 187v446h231v-403q0 -61 17.5 -88t54.5 -27q77 0 77 127v391h230v-686z" />
    <glyph glyph-name="v.ord" horiz-adv-x="720" 
d="M502 655h-283l-213 686h242l117 -456l114 456h236z" />
    <glyph glyph-name="w.ord" horiz-adv-x="1079" 
d="M881 655h-246l-96 416l-97 -416h-245l-187 686h236l98 -428l92 428h209l92 -428l99 428h231z" />
    <glyph glyph-name="x.ord" horiz-adv-x="745" 
d="M737 655h-252l-112 185l-111 -185h-254l221 344l-219 342h254l107 -178l110 178h252l-219 -337z" />
    <glyph glyph-name="y.ord" horiz-adv-x="716" 
d="M174 399q-30 0 -100 9v180q40 -4 61 -4q68 0 92 49l4 8l-225 700h242l117 -456l112 456h236l-232 -725q-20 -62 -54.5 -106t-78 -67.5t-86 -33.5t-88.5 -10z" />
    <glyph glyph-name="z.ord" horiz-adv-x="667" 
d="M625 655h-582v166l289 344h-273v176h547v-165l-293 -345h312v-176z" />
    </font>
</defs>
</svg>
