<?xml version="1.0" standalone="no"?>
<!DOCTYPE svg PUBLIC "-//W3C//DTD SVG 1.1//EN" "http://www.w3.org/Graphics/SVG/1.1/DTD/svg11.dtd" >
<svg xmlns="http://www.w3.org/2000/svg" xmlns:xlink="http://www.w3.org/1999/xlink" version="1.1">
<metadata>
Created by FontForge 20170731 at Fri Dec 18 13:48:09 2020
 By Aleksey,,,
Copyright (c) 2018 Schick Toikka. All rights reserved. Scto Grotesk B is a trademark of Schick Toikka. Unauthorised copying or modification of any of its data is illegal.
</metadata>
<defs>
<font id="SctoGroteskB-Bold" horiz-adv-x="1689" >
  <font-face 
    font-family="Scto Grotesk B"
    font-weight="700"
    font-stretch="normal"
    units-per-em="2048"
    panose-1="2 11 8 3 0 0 0 2 0 4"
    ascent="1638"
    descent="-410"
    x-height="1016"
    cap-height="1421"
    bbox="-377 -516 2185 1954"
    underline-thickness="79"
    underline-position="-437"
    unicode-range="U+0020-FB02"
  />
<missing-glyph horiz-adv-x="1290" 
d="M1178 1421v-1779h-1065v1779h1065zM692 535l400 -719v1439zM643 444l-397 -716h794zM592 535l-393 712v-1423zM250 1335l393 -710l393 710h-786z" />
    <glyph glyph-name="fi" unicode="fi" horiz-adv-x="1216" 
d="M1090 0h-259v1016h259v-1016zM1106 1171h-291v232h291v-232zM662 795h-222v-795h-260v795h-123v221h123v86q0 172 91 256t251 84q54 0 144 -12v-216q-56 9 -91 9q-72 0 -103.5 -33t-31.5 -115v-59h222v-221z" />
    <glyph glyph-name="fl" unicode="fl" horiz-adv-x="1208" 
d="M1081 0h-258v1421h258v-1421zM662 795h-222v-795h-260v795h-123v221h123v86q0 172 91 256t251 84q54 0 144 -12v-216q-56 9 -91 9q-72 0 -103.5 -33t-31.5 -115v-59h222v-221z" />
    <glyph glyph-name=".notdef" horiz-adv-x="1290" 
d="M1178 1421v-1779h-1065v1779h1065zM692 535l400 -719v1439zM643 444l-397 -716h794zM592 535l-393 712v-1423zM250 1335l393 -710l393 710h-786z" />
    <glyph glyph-name=".null" horiz-adv-x="0" 
 />
    <glyph glyph-name="nonmarkingreturn" horiz-adv-x="682" 
 />
    <glyph glyph-name="space" unicode=" " horiz-adv-x="374" 
 />
    <glyph glyph-name="exclam" unicode="!" horiz-adv-x="587" 
d="M385 535h-184l-41 616v270h268v-270zM147 0v293h293v-293h-293z" />
    <glyph glyph-name="quotedbl" unicode="&#x22;" horiz-adv-x="843" 
d="M360 1421l-36 -561h-181l-37 561h254zM737 1421l-35 -561h-180l-37 561h252z" />
    <glyph glyph-name="numbersign" unicode="#" horiz-adv-x="1271" 
d="M166 866v187h203l43 325h200l-45 -325h211l45 325h199l-45 -325h201v-187h-226l-41 -315h195v-186h-219l-43 -324h-199l41 324h-211l-41 -324h-201l43 324h-182v186h207l41 315h-176zM543 866l-43 -315h211l43 315h-211z" />
    <glyph glyph-name="dollar" unicode="$" horiz-adv-x="1191" 
d="M1085 408q0 -166 -105.5 -280.5t-291.5 -135.5v-209h-178v211q-194 25 -298 145t-110 322h263q1 -97 39 -162t106 -92v414l-51 18q-324 110 -324 389q0 160 104.5 268.5t270.5 130.5v211h178v-213q170 -27 274 -140t105 -294h-262q0 172 -117 221v-393l76 -26
q150 -53 235.5 -143.5t85.5 -241.5zM840 379q0 62 -40.5 109.5t-111.5 72.5v-362q72 18 112 67t40 113zM383 1057q0 -56 33 -101t94 -73v336q-62 -21 -94.5 -65.5t-32.5 -96.5z" />
    <glyph glyph-name="percent" unicode="%" horiz-adv-x="1568" 
d="M487 0h-176l770 1421h176zM276 1079q0 -95 33 -148.5t92 -53.5q62 0 96.5 53.5t34.5 148.5q0 94 -35 148.5t-96 54.5q-58 0 -91.5 -54.5t-33.5 -148.5zM715 1079q0 -88 -26.5 -159t-71.5 -114t-100 -66t-116 -23q-126 0 -217.5 95t-91.5 267t91.5 267.5t217.5 95.5
q61 0 116 -23t100 -66.5t71.5 -114.5t26.5 -159zM1040 340q0 -95 34 -149t93 -54q61 0 95 53.5t34 149.5t-34 149.5t-95 53.5q-59 0 -93 -54t-34 -149zM1479 340q0 -173 -92 -268t-220 -95q-60 0 -114.5 23t-98.5 66.5t-70 114.5t-26 159t26 159t70 114t98.5 66t114.5 23
q128 0 220 -94.5t92 -267.5z" />
    <glyph glyph-name="ampersand" unicode="&#x26;" horiz-adv-x="1335" 
d="M1004 0l-84 94q-145 -119 -373 -119q-214 0 -343.5 104t-129.5 281q0 244 264 402q-127 165 -127 328q0 72 25 135.5t72.5 113t123.5 78.5t170 29q97 0 174.5 -29t124.5 -77.5t71.5 -107t24.5 -120.5q0 -91 -41 -167.5t-101.5 -127.5t-147.5 -98l235 -270q51 138 51 280
h232q0 -272 -125 -463l233 -266h-329zM567 197q120 0 205 67l-295 336q-68 -43 -104.5 -99.5t-36.5 -119.5q0 -74 63.5 -129t167.5 -55zM469 1098q0 -57 24 -105t78 -116q174 93 174 233q0 62 -38.5 101.5t-100.5 39.5q-63 0 -100 -45t-37 -108z" />
    <glyph glyph-name="quotesingle" unicode="'" horiz-adv-x="464" 
d="M360 1421l-36 -561h-181l-37 561h254z" />
    <glyph glyph-name="parenleft" unicode="(" horiz-adv-x="681" 
d="M367 625q8 -456 258 -838h-234q-262 382 -262 838q0 455 262 837h234q-250 -382 -258 -837z" />
    <glyph glyph-name="parenright" unicode=")" horiz-adv-x="681" 
d="M313 625q-8 455 -258 837h232q264 -384 264 -837q0 -454 -264 -838h-232q250 382 258 838z" />
    <glyph glyph-name="asterisk" unicode="*" horiz-adv-x="886" 
d="M530 1208l201 72l55 -174l-202 -64l131 -170l-150 -104l-121 174l-122 -174l-150 104l131 170l-203 64l56 174l200 -72l-2 213h185z" />
    <glyph glyph-name="plus" unicode="+" horiz-adv-x="1228" 
d="M117 559v205h391v395h213v-395h391v-205h-391v-399h-213v399h-391z" />
    <glyph glyph-name="comma" unicode="," horiz-adv-x="571" 
d="M436 293v-334q0 -141 -82.5 -219t-232.5 -78v139q89 3 125.5 46t36.5 124v29h-140v293h293z" />
    <glyph glyph-name="hyphen" unicode="-" horiz-adv-x="749" 
d="M115 440v226h520v-226h-520z" />
    <glyph glyph-name="period" unicode="." horiz-adv-x="569" 
d="M137 0v293h293v-293h-293z" />
    <glyph glyph-name="slash" unicode="/" horiz-adv-x="901" 
d="M844 1462l-557 -1675h-230l557 1675h230z" />
    <glyph glyph-name="zero" unicode="0" horiz-adv-x="1177" 
d="M588 199q221 0 221 512t-221 512q-219 0 -219 -512t219 -512zM588 -25q-86 0 -159.5 26.5t-135.5 84t-106 142.5t-68.5 208t-24.5 275q0 190 37 333.5t105 230t156 129t196 42.5q109 0 197 -42.5t155 -129t104 -230t37 -333.5q0 -189 -37 -332.5t-104 -230.5t-155 -130
t-197 -43z" />
    <glyph glyph-name="one" unicode="1" horiz-adv-x="804" 
d="M612 0h-266v1120l-276 -207v281l305 227h237v-1421z" />
    <glyph glyph-name="two" unicode="2" horiz-adv-x="1069" 
d="M973 1038q0 -65 -18 -127t-53.5 -119.5t-66 -97t-77.5 -92.5l-320 -364h535v-238h-867v233l474 539q60 68 95.5 131.5t35.5 134.5q0 85 -49 138t-123 53q-183 0 -183 -252h-260q0 219 116.5 344t328.5 125q195 0 313.5 -113.5t118.5 -294.5z" />
    <glyph glyph-name="three" unicode="3" horiz-adv-x="1114" 
d="M551 -25q-215 0 -343.5 118t-127.5 317h272q2 -100 56 -160t143 -60q88 0 142.5 62t54.5 162q0 194 -232 194h-57v230h43q105 0 163 53.5t58 146.5q0 87 -49 139t-127 52q-79 0 -126 -56t-50 -159h-260q5 197 120.5 314.5t319.5 117.5q195 0 311.5 -113.5t116.5 -275.5
q0 -108 -54.5 -191.5t-138.5 -120.5q99 -34 166.5 -129t67.5 -223q0 -86 -31.5 -161.5t-89.5 -132.5t-148 -90.5t-200 -33.5z" />
    <glyph glyph-name="four" unicode="4" horiz-adv-x="1169" 
d="M934 0h-258v297h-615v229l564 895h309v-903h147v-221h-147v-297zM676 518v590l-371 -590h371z" />
    <glyph glyph-name="five" unicode="5" horiz-adv-x="1101" 
d="M565 -25q-214 0 -342.5 116.5t-128.5 318.5h260q0 -101 61 -162.5t142 -61.5q92 0 145.5 74.5t53.5 202.5q0 123 -52.5 194.5t-140.5 71.5q-65 0 -112 -42t-68 -112h-246l68 846h733v-235h-506l-33 -359q39 48 102.5 78.5t137.5 30.5q166 0 277.5 -128t111.5 -343
q0 -210 -126 -350t-337 -140z" />
    <glyph glyph-name="six" unicode="6" horiz-adv-x="1128" 
d="M586 -25q-231 0 -361.5 188.5t-130.5 541.5q0 365 131 553t363 188q188 0 307.5 -109.5t124.5 -277.5h-260q-4 81 -52 127.5t-118 46.5q-47 0 -86.5 -25.5t-71.5 -79t-50.5 -146.5t-19.5 -218q43 83 118.5 127.5t162.5 44.5q78 0 147.5 -30t124 -86.5t86 -147.5
t31.5 -205q0 -116 -37 -211t-99 -155.5t-142 -93t-168 -32.5zM578 186q86 0 135 78.5t49 194.5q0 117 -49.5 194.5t-137.5 77.5q-85 0 -134.5 -80.5t-49.5 -191.5t50.5 -192t136.5 -81z" />
    <glyph glyph-name="seven" unicode="7" horiz-adv-x="978" 
d="M76 1174v247h825v-233l-422 -1188h-278l422 1174h-547z" />
    <glyph glyph-name="eight" unicode="8" horiz-adv-x="1138" 
d="M569 186q94 0 149.5 63t55.5 163q0 97 -55.5 158t-149.5 61q-92 0 -147 -61t-55 -158q0 -100 55 -163t147 -63zM569 834q81 0 130 54t49 144q0 91 -49 147t-130 56q-80 0 -129 -56t-49 -147q0 -89 49 -143.5t129 -54.5zM569 -25q-222 0 -348.5 119t-126.5 297
q0 123 64.5 219t167.5 133q-87 42 -138 125t-51 187q0 166 118 278.5t314 112.5q197 0 314.5 -112t117.5 -279q0 -103 -50.5 -186.5t-135.5 -125.5q101 -37 165 -133t64 -219q0 -178 -126.5 -297t-348.5 -119z" />
    <glyph glyph-name="nine" unicode="9" horiz-adv-x="1128" 
d="M543 1446q230 0 359.5 -188t129.5 -541q0 -366 -130 -554t-361 -188q-188 0 -307.5 109.5t-124.5 277.5h258q6 -81 53.5 -127.5t116.5 -46.5q48 0 88 26t72 79.5t50 146.5t19 217q-43 -83 -119 -127.5t-164 -44.5q-78 0 -147.5 30t-124 86.5t-86 147.5t-31.5 205
q0 116 37 211t100 155.5t143.5 93t168.5 32.5zM551 1235q-87 0 -135.5 -77t-48.5 -195q0 -117 49 -195t135 -78t136 81t50 192t-50.5 191.5t-135.5 80.5z" />
    <glyph glyph-name="colon" unicode=":" horiz-adv-x="589" 
d="M147 0v293h293v-293h-293zM147 723v293h293v-293h-293z" />
    <glyph glyph-name="semicolon" unicode=";" horiz-adv-x="591" 
d="M147 723v293h293v-293h-293zM440 293v-334q0 -141 -82.5 -219t-232.5 -78v139q89 3 125.5 46t36.5 124v29h-140v293h293z" />
    <glyph glyph-name="less" unicode="&#x3c;" horiz-adv-x="1228" 
d="M211 557v209l805 391v-219l-580 -276l580 -277v-221z" />
    <glyph glyph-name="equal" unicode="=" horiz-adv-x="1228" 
d="M176 336v203h875v-203h-875zM176 782v203h875v-203h-875z" />
    <glyph glyph-name="greater" unicode="&#x3e;" horiz-adv-x="1228" 
d="M1016 766v-209l-805 -393v221l580 277l-580 276v219z" />
    <glyph glyph-name="question" unicode="?" horiz-adv-x="937" 
d="M905 1087q0 -65 -19 -121t-49 -94.5t-66.5 -71.5t-73.5 -60.5t-67.5 -53t-50 -56t-20.5 -63.5v-32h-213l-2 34q-3 58 11.5 106.5t40 82t57.5 62.5t65 55t60 52.5t44 61.5t17 76q0 71 -42.5 115.5t-119.5 44.5q-92 0 -136 -59.5t-46 -164.5h-262q0 197 116 321t326 124
q197 0 313.5 -103t116.5 -256zM303 0v293h291v-293h-291z" />
    <glyph glyph-name="at" unicode="@" horiz-adv-x="1867" 
d="M1350 41q-77 0 -139.5 35.5t-80.5 95.5q-109 -131 -268 -131q-167 0 -276 125t-109 338q0 214 109 338.5t274 124.5q174 0 277 -140v121h229v-643q0 -41 17.5 -61.5t46.5 -20.5q72 0 126 117t54 283q0 118 -41 224.5t-118.5 191t-202.5 134.5t-281 50q-154 0 -285 -56.5
t-221 -153.5t-140.5 -230t-50.5 -283q0 -306 187 -501.5t481 -195.5q168 0 330 58v-154q-151 -43 -332 -43q-154 0 -287 44t-231 121.5t-168.5 182t-105.5 228.5t-35 258q0 188 66 350.5t180.5 275t273 176.5t338.5 64q188 0 342 -62t251.5 -165.5t150 -234t52.5 -273.5
q0 -270 -117.5 -429t-295.5 -159zM932 221q95 0 149 79t54 204t-54 203.5t-149 78.5t-149 -78.5t-54 -203.5t54 -204t149 -79z" />
    <glyph glyph-name="A" unicode="A" horiz-adv-x="1357" 
d="M1036 0l-94 309h-524l-94 -309h-281l461 1421h348l463 -1421h-279zM680 1165l-193 -624h383z" />
    <glyph glyph-name="B" unicode="B" horiz-adv-x="1284" 
d="M147 0v1421h560q208 0 322 -99t114 -271q0 -110 -53 -192t-140 -120q108 -31 175 -116t67 -215q0 -195 -125.5 -301.5t-351.5 -106.5h-568zM864 1010q0 182 -202 182h-244v-367h244q202 0 202 185zM913 420q0 196 -211 196h-284v-387h284q211 0 211 191z" />
    <glyph glyph-name="C" unicode="C" horiz-adv-x="1363" 
d="M362 711q0 -223 97.5 -359.5t249.5 -136.5q122 0 199.5 78t99.5 213h284q-14 -167 -93.5 -288t-205.5 -182t-284 -61q-282 0 -456.5 202.5t-174.5 533.5t174.5 533t456.5 202q247 0 404.5 -144t176.5 -387h-282q-22 135 -99.5 213t-199.5 78q-153 0 -250 -136t-97 -359z
" />
    <glyph glyph-name="D" unicode="D" horiz-adv-x="1372" 
d="M147 1421h492q163 0 289 -53t205.5 -148.5t120 -224t40.5 -284.5q0 -155 -40.5 -283.5t-120 -224.5t-205.5 -149.5t-289 -53.5h-492v1421zM418 240h217q172 0 273.5 123t101.5 348t-101.5 348t-273.5 123h-217v-942z" />
    <glyph glyph-name="E" unicode="E" horiz-adv-x="1200" 
d="M147 0v1421h932v-247h-661v-330h598v-238h-598v-358h674v-248h-945z" />
    <glyph glyph-name="F" unicode="F" horiz-adv-x="1103" 
d="M147 0v1421h889v-247h-618v-365h555v-238h-555v-571h-271z" />
    <glyph glyph-name="G" unicode="G" horiz-adv-x="1429" 
d="M659 -25q-165 0 -297 90.5t-208 259t-76 386.5q0 331 174.5 533t456.5 202q241 0 398.5 -137t182.5 -369h-289q-22 125 -99.5 195.5t-190.5 70.5q-154 0 -251.5 -134.5t-97.5 -360.5q0 -227 99.5 -363.5t255.5 -136.5q79 0 145.5 35t113.5 111t58 184h-297v229h559v-770
h-239v205q-62 -109 -163 -169.5t-235 -60.5z" />
    <glyph glyph-name="H" unicode="H" horiz-adv-x="1411" 
d="M147 0v1421h271v-569h575v569h271v-1421h-271v604h-575v-604h-271z" />
    <glyph glyph-name="I" unicode="I" horiz-adv-x="565" 
d="M147 0v1421h271v-1421h-271z" />
    <glyph glyph-name="J" unicode="J" horiz-adv-x="1159" 
d="M53 504v86h273v-78q0 -145 55 -219t158 -74q104 0 159.5 74.5t55.5 220.5v907h270v-907q0 -255 -121 -397t-364 -142q-241 0 -363.5 144t-122.5 385z" />
    <glyph glyph-name="K" unicode="K" horiz-adv-x="1308" 
d="M147 0v1421h271v-647l538 647h322l-494 -592l494 -829h-313l-369 621l-178 -203v-418h-271z" />
    <glyph glyph-name="L" unicode="L" horiz-adv-x="1093" 
d="M147 0v1421h271v-1171h614v-250h-885z" />
    <glyph glyph-name="M" unicode="M" horiz-adv-x="1722" 
d="M864 338l334 1083h379v-1421h-254v1075l-332 -1075h-260l-330 1075v-1075h-254v1421h381z" />
    <glyph glyph-name="N" unicode="N" horiz-adv-x="1429" 
d="M1284 1421v-1421h-332l-540 1042v-1042h-265v1421h328l545 -1044v1044h264z" />
    <glyph glyph-name="O" unicode="O" horiz-adv-x="1419" 
d="M362 711q0 -227 98 -361.5t251 -134.5q154 0 251 134.5t97 361.5t-96.5 361t-251.5 134q-154 0 -251.5 -134.5t-97.5 -360.5zM1343 711q0 -331 -174 -533.5t-458 -202.5t-458.5 202.5t-174.5 533.5q0 219 79 386t222.5 258t331.5 91q284 0 458 -202t174 -533z" />
    <glyph glyph-name="P" unicode="P" horiz-adv-x="1208" 
d="M1159 954q0 -121 -37.5 -211t-107.5 -144.5t-162.5 -80.5t-208.5 -26h-225v-492h-271v1421h496q116 0 209 -26.5t162.5 -82t107 -146t37.5 -212.5zM879 954q0 119 -65 178.5t-185 59.5h-211v-471h211q120 0 185 58t65 175z" />
    <glyph glyph-name="Q" unicode="Q" horiz-adv-x="1419" 
d="M1343 711q0 -200 -66.5 -358t-186.5 -253l239 -354h-295l-176 248q-89 -19 -147 -19q-284 0 -458.5 202.5t-174.5 533.5q0 219 79 386t222.5 258t331.5 91q284 0 458 -202t174 -533zM362 711q0 -227 98 -361.5t251 -134.5q154 0 251 134.5t97 361.5t-96.5 361t-251.5 134
q-154 0 -251.5 -134.5t-97.5 -360.5z" />
    <glyph glyph-name="R" unicode="R" horiz-adv-x="1302" 
d="M147 0v1421h566q231 0 354 -109.5t123 -318.5q0 -146 -67 -250.5t-179 -146.5l299 -596h-295l-272 543h-258v-543h-271zM907 977q0 107 -58.5 163t-164.5 56h-266v-426h266q107 0 165 51t58 156z" />
    <glyph glyph-name="S" unicode="S" horiz-adv-x="1236" 
d="M119 1024q0 181 134 301.5t363 120.5t367.5 -123t146.5 -330h-272q-6 112 -70 168t-172 56q-100 0 -163.5 -47t-63.5 -121q0 -123 172 -175l244 -69q159 -44 252.5 -141.5t93.5 -251.5q0 -190 -141 -313.5t-379 -123.5q-252 0 -393.5 126t-155.5 352h274
q11 -119 81 -183.5t194 -64.5q111 0 180.5 49.5t69.5 132.5q0 122 -172 174l-244 70q-160 44 -253 141t-93 252z" />
    <glyph glyph-name="T" unicode="T" horiz-adv-x="1161" 
d="M1116 1421v-252h-401v-1169h-271v1169h-401v252h1073z" />
    <glyph glyph-name="U" unicode="U" horiz-adv-x="1327" 
d="M664 -25q-249 0 -392 137t-143 408v901h270v-901q0 -146 71 -225.5t194 -79.5t193.5 79.5t70.5 225.5v901h270v-901q0 -270 -143 -407.5t-391 -137.5z" />
    <glyph glyph-name="V" unicode="V" horiz-adv-x="1284" 
d="M641 297l328 1124h280l-428 -1421h-368l-418 1421h289z" />
    <glyph glyph-name="W" unicode="W" horiz-adv-x="1867" 
d="M934 1083l-242 -1083h-315l-328 1421h264l236 -1073l227 1073h320l229 -1073l234 1073h262l-328 -1421h-315z" />
    <glyph glyph-name="X" unicode="X" horiz-adv-x="1280" 
d="M344 0h-311l448 709l-440 712h311l287 -483l291 483h307l-436 -710l444 -711h-311l-293 489z" />
    <glyph glyph-name="Y" unicode="Y" horiz-adv-x="1247" 
d="M485 0v526l-475 895h307l310 -596l309 596h301l-481 -901v-520h-271z" />
    <glyph glyph-name="Z" unicode="Z" horiz-adv-x="1191" 
d="M119 1421h958v-225l-651 -950h682v-246h-1024v225l653 951h-618v245z" />
    <glyph glyph-name="bracketleft" unicode="[" horiz-adv-x="700" 
d="M614 1268h-225v-1286h225v-195h-448v1675h448v-194z" />
    <glyph glyph-name="backslash" unicode="\" horiz-adv-x="901" 
d="M614 -213l-557 1675h230l557 -1675h-230z" />
    <glyph glyph-name="bracketright" unicode="]" horiz-adv-x="700" 
d="M311 1270h-225v192h449v-1675h-449v195h225v1288z" />
    <glyph glyph-name="asciicircum" unicode="^" horiz-adv-x="974" 
d="M74 909l313 512h203l313 -512h-225l-191 322l-190 -322h-223z" />
    <glyph glyph-name="underscore" unicode="_" horiz-adv-x="956" 
d="M76 -242v170h805v-170h-805z" />
    <glyph glyph-name="grave" unicode="`" horiz-adv-x="512" 
d="M16 1421h265l127 -297h-193z" />
    <glyph glyph-name="a" unicode="a" horiz-adv-x="1052" 
d="M938 0h-238v152q-47 -87 -130 -129.5t-181 -42.5q-144 0 -228.5 76.5t-84.5 211.5q0 133 86 216.5t225 109.5l297 55v43q0 84 -42 121t-122 37q-141 0 -153 -141h-258q6 154 116.5 240.5t294.5 86.5q200 0 309 -92t109 -278v-666zM463 172q94 0 157.5 63.5t63.5 186.5v45
l-203 -37q-79 -14 -117 -51.5t-38 -89.5q0 -54 36.5 -85.5t100.5 -31.5z" />
    <glyph glyph-name="b" unicode="b" horiz-adv-x="1132" 
d="M653 -23q-178 0 -282 160v-137h-244v1421h258v-530q97 145 268 145q177 0 288.5 -142.5t111.5 -385.5q0 -245 -111.5 -388t-288.5 -143zM582 184q97 0 149.5 88.5t52.5 235.5t-52.5 235t-149.5 88q-96 0 -149.5 -88.5t-53.5 -234.5t53.5 -235t149.5 -89z" />
    <glyph glyph-name="c" unicode="c" horiz-adv-x="1067" 
d="M547 -20q-214 0 -342.5 142t-128.5 386t128.5 386t342.5 142q188 0 310 -105t134 -288h-266q-6 94 -55 141t-123 47q-94 0 -148.5 -85.5t-54.5 -237.5q0 -153 54.5 -238.5t148.5 -85.5q73 0 122.5 47.5t55.5 141.5h266q-12 -183 -134 -288t-310 -105z" />
    <glyph glyph-name="d" unicode="d" horiz-adv-x="1132" 
d="M479 -23q-177 0 -288 143t-111 388q0 243 111 385.5t288 142.5q85 0 154 -38.5t115 -106.5v530h258v-1421h-244v137q-104 -160 -283 -160zM551 184q97 0 150 88.5t53 235.5t-53 235t-150 88q-96 0 -149.5 -88.5t-53.5 -234.5t53.5 -235t149.5 -89z" />
    <glyph glyph-name="e" unicode="e" horiz-adv-x="1087" 
d="M543 -20q-99 0 -183.5 35t-148 100.5t-99.5 166.5t-36 226q0 239 128.5 383.5t340.5 144.5t338.5 -138t126.5 -378q0 -53 -2 -88h-670q6 -114 62.5 -185t144.5 -71q69 0 116 38.5t60 115.5h272q-29 -166 -151 -258t-299 -92zM547 842q-82 0 -137.5 -62t-67.5 -166h399
q-4 104 -58 166t-136 62z" />
    <glyph glyph-name="f" unicode="f" horiz-adv-x="710" 
d="M662 795h-222v-795h-260v795h-123v221h123v86q0 172 91 256t251 84q54 0 144 -12v-216q-56 9 -91 9q-72 0 -103.5 -33t-31.5 -115v-59h222v-221z" />
    <glyph glyph-name="g" unicode="g" horiz-adv-x="1132" 
d="M492 31q-177 0 -294.5 137t-117.5 364q0 230 117.5 367t291.5 137q161 0 273 -153v133h244v-963q0 -218 -120.5 -326t-334.5 -108q-220 0 -332 95.5t-117 248.5h265q3 -76 53.5 -117t132.5 -41q96 0 147.5 55t51.5 183v127q-100 -139 -260 -139zM553 233q96 0 148.5 84.5
t52.5 217.5t-52.5 217t-148.5 84q-95 0 -148 -84.5t-53 -216.5t53 -217t148 -85z" />
    <glyph glyph-name="h" unicode="h" horiz-adv-x="1087" 
d="M969 0h-258v604q0 115 -37.5 167t-114.5 52q-85 0 -129.5 -68t-44.5 -173v-582h-258v1421h258v-542q42 75 111 116t157 41q153 0 234.5 -102.5t81.5 -282.5v-651z" />
    <glyph glyph-name="i" unicode="i" horiz-adv-x="512" 
d="M385 0h-258v1016h258v-1016zM401 1171h-290v232h290v-232z" />
    <glyph glyph-name="j" unicode="j" horiz-adv-x="512" 
d="M39 -375q-59 0 -111 8v217q25 -2 72 -2q127 0 127 158v1010h258v-1057q0 -165 -92.5 -249.5t-253.5 -84.5zM401 1171h-290v232h290v-232z" />
    <glyph glyph-name="k" unicode="k" horiz-adv-x="1060" 
d="M385 0h-258v1421h258v-788l344 383h305l-360 -400l364 -616h-299l-258 444l-96 -108v-336z" />
    <glyph glyph-name="l" unicode="l" horiz-adv-x="512" 
d="M385 0h-258v1421h258v-1421z" />
    <glyph glyph-name="m" unicode="m" horiz-adv-x="1632" 
d="M1513 0h-258v616q0 105 -35 156t-110 51q-72 0 -116 -61.5t-44 -165.5v-596h-260v610q0 110 -34.5 161.5t-110.5 51.5q-73 0 -116.5 -66.5t-43.5 -174.5v-582h-258v1016h244v-146q96 166 268 166q90 0 158 -42.5t104 -127.5q107 170 291 170q147 0 234 -94t87 -295v-647z
" />
    <glyph glyph-name="n" unicode="n" horiz-adv-x="1087" 
d="M969 0h-258v604q0 115 -37.5 167t-114.5 52q-85 0 -129.5 -68t-44.5 -173v-582h-258v1016h244v-146q102 166 282 166q154 0 235 -102.5t81 -282.5v-651z" />
    <glyph glyph-name="o" unicode="o" horiz-adv-x="1093" 
d="M547 -20q-210 0 -340.5 142.5t-130.5 385.5t130.5 385.5t340.5 142.5t340.5 -142.5t130.5 -385.5t-130.5 -385.5t-340.5 -142.5zM547 184q96 0 149.5 89t53.5 235t-53.5 234.5t-149.5 88.5q-97 0 -150 -88t-53 -235t53 -235.5t150 -88.5z" />
    <glyph glyph-name="p" unicode="p" horiz-adv-x="1132" 
d="M653 -23q-85 0 -153.5 39.5t-114.5 108.5v-483h-258v1374h244v-137q100 157 282 157q177 0 288.5 -142t111.5 -386q0 -243 -112 -387t-288 -144zM582 184q97 0 149.5 88.5t52.5 235.5t-52.5 235t-149.5 88q-96 0 -149.5 -88.5t-53.5 -234.5t53.5 -235t149.5 -89z" />
    <glyph glyph-name="q" unicode="q" horiz-adv-x="1132" 
d="M479 -23q-176 0 -287.5 143.5t-111.5 387.5t111 386t288 142q183 0 283 -157v137h244v-1374h-258v483q-46 -69 -115 -108.5t-154 -39.5zM551 184q97 0 150 88.5t53 235.5t-53 235t-150 88q-96 0 -149.5 -88.5t-53.5 -234.5t53.5 -235t149.5 -89z" />
    <glyph glyph-name="r" unicode="r" horiz-adv-x="741" 
d="M385 0h-258v1016h244v-215q36 124 109 178.5t186 54.5h28v-268q-31 4 -90 4q-102 0 -160.5 -71.5t-58.5 -200.5v-498z" />
    <glyph glyph-name="s" unicode="s" horiz-adv-x="1009" 
d="M514 -20q-201 0 -314.5 91.5t-119.5 254.5h266q12 -160 168 -160q75 0 116.5 30.5t41.5 82.5q0 83 -111 104l-188 41q-127 27 -200 103t-73 192q0 144 111.5 230.5t286.5 86.5q174 0 287 -84.5t120 -242.5h-258q-4 70 -44 105.5t-107 35.5q-72 0 -114 -29t-42 -76
q0 -77 123 -102l190 -41q125 -27 197 -103.5t72 -191.5q0 -148 -112.5 -237.5t-295.5 -89.5z" />
    <glyph glyph-name="t" unicode="t" horiz-adv-x="739" 
d="M469 -12q-295 0 -295 319v488h-125v221h127v256h256v-256h227v-221h-227v-426q0 -80 27 -117t92 -37q59 0 108 12v-219q-84 -20 -190 -20z" />
    <glyph glyph-name="u" unicode="u" horiz-adv-x="1075" 
d="M950 0h-245v145q-98 -165 -279 -165q-150 0 -228.5 102.5t-78.5 282.5v651h260v-600q0 -119 34.5 -171t106.5 -52q84 0 128 68.5t44 178.5v576h258v-1016z" />
    <glyph glyph-name="v" unicode="v" horiz-adv-x="1021" 
d="M674 0h-322l-321 1016h270l213 -758l213 758h266z" />
    <glyph glyph-name="w" unicode="w" horiz-adv-x="1511" 
d="M1208 0h-290l-162 707l-164 -707h-289l-266 1016h268l164 -713l158 713h260l157 -713l166 713h265z" />
    <glyph glyph-name="x" unicode="x" horiz-adv-x="1036" 
d="M999 0h-284l-197 328l-192 -328h-287l319 510l-319 506h289l190 -320l193 320h282l-315 -504z" />
    <glyph glyph-name="y" unicode="y" horiz-adv-x="1013" 
d="M246 -377q-82 0 -131 8v211q39 -4 92 -4q61 0 97.5 24t53.5 79l7 20l-336 1055h270l213 -760l213 760h264l-344 -1098q-33 -105 -100 -173.5t-141 -95t-158 -26.5z" />
    <glyph glyph-name="z" unicode="z" horiz-adv-x="944" 
d="M864 0h-790v199l458 596h-436v221h758v-199l-463 -596h473v-221z" />
    <glyph glyph-name="braceleft" unicode="{" horiz-adv-x="792" 
d="M707 -213h-191q-135 0 -192.5 83t-57.5 243v186q0 124 -41 172t-141 57v193q100 9 141 57t41 172v187q0 159 57.5 242t192.5 83h191v-194h-68q-61 0 -90.5 -14t-44.5 -58t-15 -133v-172q0 -227 -182 -266q182 -39 182 -267v-172q0 -89 15 -132.5t44.5 -57.5t90.5 -14h68
v-195z" />
    <glyph glyph-name="bar" unicode="|" horiz-adv-x="593" 
d="M188 -213v1675h220v-1675h-220z" />
    <glyph glyph-name="braceright" unicode="}" horiz-adv-x="792" 
d="M86 -213v195h66q46 0 72 7t45.5 28.5t26.5 61.5t7 107v172q0 228 180 267q-180 39 -180 266v172q0 89 -15 133t-45 58t-91 14h-66v194h190q135 0 192.5 -83t57.5 -242v-187q0 -124 41.5 -172t141.5 -57v-193q-100 -9 -141.5 -57t-41.5 -172v-186q0 -160 -57.5 -243
t-192.5 -83h-190z" />
    <glyph glyph-name="asciitilde" unicode="~" horiz-adv-x="1232" 
d="M874 496q-57 0 -156 29t-187 58t-119 29q-62 0 -62 -86v-37h-190v103q0 112 54.5 168.5t141.5 56.5q71 0 251.5 -57.5t211.5 -57.5q32 0 47 20t15 64v37h192v-102q0 -111 -56 -168t-143 -57z" />
    <glyph glyph-name="uni00A0" unicode="&#xa0;" horiz-adv-x="374" 
 />
    <glyph glyph-name="exclamdown" unicode="&#xa1;" horiz-adv-x="587" 
d="M201 483h186l43 -618v-271h-270v271zM147 723v293h293v-293h-293z" />
    <glyph glyph-name="cent" unicode="&#xa2;" horiz-adv-x="1097" 
d="M90 709q0 213 100.5 350t274.5 170v192h178v-188q155 -22 254 -125t111 -264h-267q-9 124 -98 176v-623q89 52 98 176h267q-12 -161 -111 -264t-254 -125v-184h-178v188q-174 33 -274.5 170t-100.5 351zM342 709q0 -107 32.5 -184.5t90.5 -116.5v602q-58 -39 -90.5 -117
t-32.5 -184z" />
    <glyph glyph-name="sterling" unicode="&#xa3;" horiz-adv-x="1140" 
d="M123 535v190h123q-24 61 -36 96.5t-25 96.5t-13 116q0 174 115.5 292t316.5 118q212 0 326 -126t114 -345h-264q0 122 -47 187t-133 65q-75 0 -122.5 -54t-47.5 -141q0 -49 11.5 -98t35.5 -116t31 -91h285v-190h-252q2 -16 2 -46q0 -63 -22 -127.5t-66 -113.5h581v-248
h-915v248q19 0 48 15t59.5 42t52.5 74t22 102q0 26 -4 54h-176z" />
    <glyph glyph-name="currency" unicode="&#xa4;" horiz-adv-x="1124" 
d="M561 266q-111 0 -196 43l-134 -131l-149 148l125 125q-49 85 -49 204q0 120 49 205l-127 127l149 152l136 -138q90 46 196 46q110 0 195 -46l137 138l149 -150l-129 -129q52 -90 52 -205q0 -110 -50 -202l125 -127l-149 -150l-135 133q-82 -43 -195 -43zM561 438
q83 0 131.5 60t48.5 157q0 98 -48 158.5t-132 60.5q-85 0 -132.5 -60t-47.5 -159q0 -97 47.5 -157t132.5 -60z" />
    <glyph glyph-name="yen" unicode="&#xa5;" horiz-adv-x="1191" 
d="M170 510v186h211l-350 725h284l287 -626l287 626h274l-352 -725h211v-186h-293v-119h293v-188h-293v-203h-266v203h-293v188h293v119h-293z" />
    <glyph glyph-name="brokenbar" unicode="&#xa6;" horiz-adv-x="593" 
d="M188 -213v735h220v-735h-220zM188 725v737h220v-737h-220z" />
    <glyph glyph-name="section" unicode="&#xa7;" horiz-adv-x="1110" 
d="M999 512q0 -77 -41 -146t-114 -116q92 -92 92 -221q0 -145 -110.5 -234.5t-276.5 -89.5q-121 0 -213.5 38t-148.5 119t-56 195h262q7 -166 156 -166q63 0 101 35.5t38 85.5q0 47 -27 80.5t-81 67.5l-242 149q-119 73 -173 146.5t-54 181.5q0 78 41 147t114 115
q-92 89 -92 221q0 145 110.5 235.5t276.5 90.5q121 0 213.5 -38t148.5 -119t56 -195h-262q-2 75 -39.5 119t-116.5 44q-63 0 -100 -35t-37 -83q0 -47 26.5 -82t79.5 -66l242 -149q120 -75 173.5 -148t53.5 -182zM653 633l-243 155q-66 -41 -66 -118q0 -46 26 -79.5t89 -72.5
l239 -158q68 43 68 121q0 45 -26 79t-87 73z" />
    <glyph glyph-name="dieresis" unicode="&#xa8;" horiz-adv-x="802" 
d="M98 1171v232h236v-232h-236zM467 1171v232h235v-232h-235z" />
    <glyph glyph-name="copyright" unicode="&#xa9;" horiz-adv-x="1697" 
d="M678 711q0 -121 45 -194t129 -73q61 0 100.5 40t48.5 108h207q-12 -149 -111.5 -233.5t-244.5 -84.5q-173 0 -277 119t-104 318q0 200 103.5 318t277.5 118q144 0 243.5 -84.5t112.5 -233.5h-207q-9 68 -48.5 108t-100.5 40q-84 0 -129 -72t-45 -194zM115 711
q0 150 57.5 286t155.5 234t234 155.5t286 57.5t286.5 -57.5t234.5 -155.5t156 -234t58 -286t-58 -285.5t-156 -233t-234.5 -155t-286.5 -57.5t-286 57.5t-234 155t-155.5 233t-57.5 285.5zM229 711q0 -171 82.5 -315.5t225 -228t311.5 -83.5q127 0 241.5 49.5t197.5 133
t132 200t49 244.5q0 171 -82.5 315t-225.5 227.5t-312 83.5t-311.5 -83.5t-225 -227.5t-82.5 -315z" />
    <glyph glyph-name="ordfeminine" unicode="&#xaa;" horiz-adv-x="780" 
d="M106 459v155h578v-155h-578zM678 745h-172v103q-29 -58 -85.5 -86.5t-121.5 -28.5q-97 0 -154 51.5t-57 143.5q0 88 57.5 141.5t153.5 71.5l197 37v30q0 109 -105 109q-97 0 -100 -103h-182q3 108 78.5 168t203.5 60q139 0 213 -63.5t74 -190.5v-443zM354 862
q60 0 101 42.5t41 123.5v35l-129 -27q-49 -7 -74 -32t-25 -62t23 -58.5t63 -21.5z" />
    <glyph glyph-name="guillemotleft" unicode="&#xab;" horiz-adv-x="1050" 
d="M332 479l205 -409h-207l-236 409l236 410h207zM735 479l205 -409h-205l-235 409l235 410h205z" />
    <glyph glyph-name="logicalnot" unicode="&#xac;" horiz-adv-x="1228" 
d="M162 559v203h905v-619h-203v416h-702z" />
    <glyph glyph-name="uni00AD" unicode="&#xad;" horiz-adv-x="749" 
d="M115 440v226h520v-226h-520z" />
    <glyph glyph-name="registered" unicode="&#xae;" horiz-adv-x="1134" 
d="M389 741v486h217q79 0 124.5 -40.5t45.5 -119.5q0 -44 -23.5 -83t-56.5 -54l95 -189h-127l-78 164h-78v-164h-119zM659 1065q0 32 -18.5 50t-54.5 18h-78v-138h78q73 0 73 70zM100 973q0 127 62.5 235t170 171t234.5 63q193 0 331 -138t138 -331q0 -127 -63 -234.5
t-171 -170t-235 -62.5q-193 0 -330 137t-137 330zM188 973q0 -161 110.5 -274t268.5 -113q157 0 268 113t111 274q0 160 -111 273.5t-268 113.5q-158 0 -268.5 -113.5t-110.5 -273.5z" />
    <glyph glyph-name="macron" unicode="&#xaf;" horiz-adv-x="698" 
d="M596 1196h-494v184h494v-184z" />
    <glyph glyph-name="degree" unicode="&#xb0;" horiz-adv-x="831" 
d="M104 1135q0 127 91.5 217t220.5 90t220 -90t91 -217q0 -126 -91 -215t-220 -89t-220.5 89t-91.5 215zM272 1135q0 -62 42 -106t102 -44q59 0 101 44.5t42 105.5q0 63 -42 108t-101 45q-60 0 -102 -45t-42 -108z" />
    <glyph glyph-name="plusminus" unicode="&#xb1;" horiz-adv-x="1228" 
d="M139 715v200h367v345h211v-345h373v-200h-373v-344h-211v344h-367zM139 0v203h951v-203h-951z" />
    <glyph glyph-name="twosuperior" unicode="&#xb2;" horiz-adv-x="653" 
d="M66 655v148l288 280q56 63 56 123q0 37 -22 61.5t-58 24.5q-40 0 -62 -31.5t-22 -89.5h-187q-2 119 70 192t205 73q116 0 189 -64t73 -164q0 -71 -31.5 -126t-85.5 -109l-164 -162h277v-156h-526z" />
    <glyph glyph-name="threesuperior" unicode="&#xb3;" horiz-adv-x="677" 
d="M336 641q-139 0 -211.5 62t-75.5 174h187q1 -45 27 -73t65 -28q42 0 70 28.5t28 76.5q0 98 -119 98h-35v129h19q56 0 89.5 27t33.5 77q0 40 -24.5 64t-59.5 24q-36 0 -58 -27.5t-22 -74.5h-184q0 108 70 173t200 65q124 0 191 -63.5t67 -149.5q0 -55 -33 -102.5
t-86 -65.5q58 -13 100.5 -61t42.5 -117q0 -105 -77 -170.5t-205 -65.5z" />
    <glyph glyph-name="acute" unicode="&#xb4;" horiz-adv-x="512" 
d="M231 1421h267l-201 -297h-193z" />
    <glyph glyph-name="mu" unicode="&#xb5;" horiz-adv-x="1081" 
d="M696 1016h258v-1016h-243v145q-101 -165 -246 -165q-54 0 -82 14v-352h-256v1374h256v-625q0 -198 141 -198q85 0 128.5 70t43.5 183v570z" />
    <glyph glyph-name="paragraph" unicode="&#xb6;" horiz-adv-x="1265" 
d="M94 991q0 215 119.5 322.5t329.5 107.5h211v-1421h-207v561h-4q-210 0 -329.5 107.5t-119.5 322.5zM887 0v1421h207v-1421h-207z" />
    <glyph glyph-name="periodcentered" unicode="&#xb7;" horiz-adv-x="569" 
d="M137 414v293h293v-293h-293z" />
    <glyph glyph-name="cedilla" unicode="&#xb8;" horiz-adv-x="573" 
d="M500 -225q-1 -89 -65.5 -136t-168.5 -47q-67 0 -137 25v131q80 -33 139 -33q41 0 62.5 17t21.5 43q0 49 -67 49q-38 0 -78 -21l-51 68l114 154h99l-72 -109q6 2 31 2q75 0 122 -34t50 -109z" />
    <glyph glyph-name="onesuperior" unicode="&#xb9;" horiz-adv-x="542" 
d="M430 655h-190v572l-156 -113v186l164 121h182v-766z" />
    <glyph glyph-name="ordmasculine" unicode="&#xba;" horiz-adv-x="813" 
d="M119 459v155h575v-155h-575zM406 733q-145 0 -233.5 95t-88.5 259q0 163 89 259t233 96q143 0 233 -96.5t90 -258.5q0 -163 -90 -258.5t-233 -95.5zM406 870q61 0 95 59.5t34 157.5t-34 158t-95 60q-62 0 -97 -60.5t-35 -157.5t35 -157t97 -60z" />
    <glyph glyph-name="guillemotright" unicode="&#xbb;" horiz-adv-x="1050" 
d="M514 70l205 409l-205 410h207l235 -410l-235 -409h-207zM111 70l204 409l-204 410h206l236 -410l-236 -409h-206z" />
    <glyph glyph-name="onequarter" unicode="&#xbc;" horiz-adv-x="1421" 
d="M1276 0h-176v147h-336v152l309 467h203v-475h84v-144h-84v-147zM1100 291v278l-176 -278h176zM164 0l921 1421h175l-920 -1421h-176zM408 655h-191v572l-156 -113v186l164 121h183v-766z" />
    <glyph glyph-name="onehalf" unicode="&#xbd;" horiz-adv-x="1466" 
d="M874 0v150l289 280q56 63 56 121q0 39 -22 63.5t-58 24.5q-40 0 -62 -32t-22 -89h-187q-2 118 70 190t205 72q117 0 189.5 -63.5t72.5 -163.5q0 -72 -32 -127.5t-85 -108.5l-164 -161h277v-156h-527zM164 0l921 1421h175l-920 -1421h-176zM408 655h-191v572l-156 -113
v186l164 121h183v-766z" />
    <glyph glyph-name="threequarters" unicode="&#xbe;" horiz-adv-x="1558" 
d="M1413 0h-176v147h-336v152l309 467h203v-475h84v-144h-84v-147zM1237 291v278l-176 -278h176zM342 641q-139 0 -211.5 62t-75.5 174h187q1 -45 27 -73t65 -28q42 0 70 28.5t28 76.5q0 98 -119 98h-34v129h18q56 0 89.5 27t33.5 77q0 40 -24.5 64t-59.5 24
q-36 0 -58 -27.5t-22 -74.5h-184q0 108 70 173t200 65q124 0 191 -63.5t67 -149.5q0 -55 -33 -102.5t-86 -65.5q59 -13 101.5 -61t42.5 -117q0 -105 -77.5 -170.5t-205.5 -65.5zM299 0l922 1421h174l-920 -1421h-176z" />
    <glyph glyph-name="questiondown" unicode="&#xbf;" horiz-adv-x="937" 
d="M33 -72q0 65 19 121t49 94.5t66.5 72t73.5 60.5t67.5 53t50 56.5t20.5 63.5v34h213l2 -37q3 -58 -11.5 -106.5t-40 -82t-57.5 -62.5t-65 -55t-60 -52t-44 -61t-17 -76q0 -72 41.5 -115t122.5 -43q175 0 182 221h260q0 -129 -49 -228t-150 -157.5t-243 -58.5
q-198 0 -314 102t-116 256zM637 1016v-293h-293v293h293z" />
    <glyph glyph-name="Agrave" unicode="&#xc0;" horiz-adv-x="1357" 
d="M1036 0l-94 309h-524l-94 -309h-281l461 1421h348l463 -1421h-279zM680 1165l-193 -624h383zM397 1815h265l126 -297h-192z" />
    <glyph glyph-name="Aacute" unicode="&#xc1;" horiz-adv-x="1357" 
d="M1036 0l-94 309h-524l-94 -309h-281l461 1421h348l463 -1421h-279zM680 1165l-193 -624h383zM684 1815h266l-200 -297h-193z" />
    <glyph glyph-name="Acircumflex" unicode="&#xc2;" horiz-adv-x="1357" 
d="M1036 0l-94 309h-524l-94 -309h-281l461 1421h348l463 -1421h-279zM680 1165l-193 -624h383zM551 1815h244l188 -297h-182l-127 139l-127 -139h-185z" />
    <glyph glyph-name="Atilde" unicode="&#xc3;" horiz-adv-x="1357" 
d="M1036 0l-94 309h-524l-94 -309h-281l461 1421h348l463 -1421h-279zM680 1165l-193 -624h383zM809 1540q-44 0 -128.5 47t-100.5 47q-39 0 -39 -90h-162q0 277 164 277q43 0 127.5 -47.5t99.5 -47.5q41 0 41 91h160q0 -62 -7.5 -109t-25 -86.5t-50 -60.5t-79.5 -21z" />
    <glyph glyph-name="Adieresis" unicode="&#xc4;" horiz-adv-x="1357" 
d="M1036 0l-94 309h-524l-94 -309h-281l461 1421h348l463 -1421h-279zM680 1165l-193 -624h383zM371 1556v232h235v-232h-235zM739 1556v232h236v-232h-236z" />
    <glyph glyph-name="Aring" unicode="&#xc5;" horiz-adv-x="1357" 
d="M438 1530q0 98 70 166.5t170 68.5t170 -68.5t70 -166.5q0 -41 -14.5 -81.5t-39.5 -66.5l451 -1382h-279l-94 309h-524l-94 -309h-281l449 1382q-54 61 -54 148zM680 1165l-193 -624h383zM571 1530q0 -46 31.5 -77.5t75.5 -31.5q46 0 77 31.5t31 77.5q0 49 -31 82t-77 33
q-45 0 -76 -33t-31 -82z" />
    <glyph glyph-name="AE" unicode="&#xc6;" horiz-adv-x="1949" 
d="M741 1421h1090v-247h-662v-330h598v-238h-598v-358h674v-248h-944v309h-485l-172 -309h-291zM543 541h356v639z" />
    <glyph glyph-name="Ccedilla" unicode="&#xc7;" horiz-adv-x="1363" 
d="M651 -408q-67 0 -137 25v131q80 -33 139 -33q41 0 62.5 17t21.5 43q0 49 -67 49q-38 0 -78 -21l-51 68l84 111q-249 31 -398 228t-149 501q0 331 174.5 533t456.5 202q247 0 404.5 -144t176.5 -387h-282q-22 135 -99.5 213t-199.5 78q-153 0 -250 -136t-97 -359
t97.5 -359.5t249.5 -136.5q122 0 199.5 78t99.5 213h284q-21 -245 -177 -385.5t-392 -145.5l-41 -59q6 2 31 2q74 0 122.5 -36t49.5 -107q0 -89 -65 -136t-169 -47z" />
    <glyph glyph-name="Egrave" unicode="&#xc8;" horiz-adv-x="1200" 
d="M147 0v1421h932v-247h-661v-330h598v-238h-598v-358h674v-248h-945zM338 1815h264l127 -297h-192z" />
    <glyph glyph-name="Eacute" unicode="&#xc9;" horiz-adv-x="1200" 
d="M627 1815h266l-201 -297h-192zM147 0v1421h932v-247h-661v-330h598v-238h-598v-358h674v-248h-945z" />
    <glyph glyph-name="Ecircumflex" unicode="&#xca;" horiz-adv-x="1200" 
d="M492 1815h243l189 -297h-183l-127 139l-127 -139h-184zM147 0v1421h932v-247h-661v-330h598v-238h-598v-358h674v-248h-945z" />
    <glyph glyph-name="Edieresis" unicode="&#xcb;" horiz-adv-x="1200" 
d="M311 1556v232h236v-232h-236zM680 1556v232h235v-232h-235zM147 0v1421h932v-247h-661v-330h598v-238h-598v-358h674v-248h-945z" />
    <glyph glyph-name="Igrave" unicode="&#xcc;" horiz-adv-x="565" 
d="M147 0v1421h271v-1421h-271zM8 1815h264l127 -297h-192z" />
    <glyph glyph-name="Iacute" unicode="&#xcd;" horiz-adv-x="565" 
d="M147 0v1421h271v-1421h-271zM295 1815h266l-201 -297h-192z" />
    <glyph glyph-name="Icircumflex" unicode="&#xce;" horiz-adv-x="565" 
d="M147 0v1421h271v-1421h-271zM162 1815h244l188 -297h-182l-127 139l-127 -139h-185z" />
    <glyph glyph-name="Idieresis" unicode="&#xcf;" horiz-adv-x="565" 
d="M147 0v1421h271v-1421h-271zM-18 1556v232h235v-232h-235zM350 1556v232h236v-232h-236z" />
    <glyph glyph-name="Eth" unicode="&#xd0;" horiz-adv-x="1411" 
d="M186 1421h492q163 0 289.5 -53t205.5 -148.5t119.5 -224t40.5 -284.5q0 -155 -40.5 -283.5t-119.5 -224.5t-205.5 -149.5t-289.5 -53.5h-492v598h-129v225h129v598zM457 240h217q173 0 274 123t101 348t-101 348t-274 123h-217v-359h209v-225h-209v-358z" />
    <glyph glyph-name="Ntilde" unicode="&#xd1;" horiz-adv-x="1429" 
d="M1284 1421v-1421h-332l-540 1042v-1042h-265v1421h328l545 -1044v1044h264zM862 1534q-44 0 -128.5 47t-100.5 47q-39 0 -39 -90h-162q0 277 164 277q43 0 127.5 -47.5t99.5 -47.5q41 0 41 90h160q0 -62 -7.5 -109t-25 -86t-50 -60t-79.5 -21z" />
    <glyph glyph-name="Ograve" unicode="&#xd2;" horiz-adv-x="1419" 
d="M362 711q0 -227 98 -361.5t251 -134.5q154 0 251 134.5t97 361.5t-96.5 361t-251.5 134q-154 0 -251.5 -134.5t-97.5 -360.5zM1343 711q0 -331 -174 -533.5t-458 -202.5t-458.5 202.5t-174.5 533.5q0 219 79 386t222.5 258t331.5 91q284 0 458 -202t174 -533zM432 1815
h264l127 -297h-192z" />
    <glyph glyph-name="Oacute" unicode="&#xd3;" horiz-adv-x="1419" 
d="M721 1815h266l-201 -297h-192zM362 711q0 -227 98 -361.5t251 -134.5q154 0 251 134.5t97 361.5t-96.5 361t-251.5 134q-154 0 -251.5 -134.5t-97.5 -360.5zM1343 711q0 -331 -174 -533.5t-458 -202.5t-458.5 202.5t-174.5 533.5q0 219 79 386t222.5 258t331.5 91
q284 0 458 -202t174 -533z" />
    <glyph glyph-name="Ocircumflex" unicode="&#xd4;" horiz-adv-x="1419" 
d="M586 1815h243l189 -297h-182l-127 139l-127 -139h-185zM362 711q0 -227 98 -361.5t251 -134.5q154 0 251 134.5t97 361.5t-96.5 361t-251.5 134q-154 0 -251.5 -134.5t-97.5 -360.5zM1343 711q0 -331 -174 -533.5t-458 -202.5t-458.5 202.5t-174.5 533.5q0 219 79 386
t222.5 258t331.5 91q284 0 458 -202t174 -533z" />
    <glyph glyph-name="Otilde" unicode="&#xd5;" horiz-adv-x="1419" 
d="M362 711q0 -227 98 -361.5t251 -134.5q154 0 251 134.5t97 361.5t-96.5 361t-251.5 134q-154 0 -251.5 -134.5t-97.5 -360.5zM1343 711q0 -331 -174 -533.5t-458 -202.5t-458.5 202.5t-174.5 533.5q0 219 79 386t222.5 258t331.5 91q284 0 458 -202t174 -533zM846 1534
q-44 0 -129 47t-101 47q-38 0 -38 -90h-162q0 277 164 277q43 0 127.5 -47.5t99.5 -47.5q41 0 41 90h160q0 -62 -7.5 -109t-25 -86t-50 -60t-79.5 -21z" />
    <glyph glyph-name="Odieresis" unicode="&#xd6;" horiz-adv-x="1419" 
d="M406 1556v232h235v-232h-235zM774 1556v232h236v-232h-236zM362 711q0 -227 98 -361.5t251 -134.5q154 0 251 134.5t97 361.5t-96.5 361t-251.5 134q-154 0 -251.5 -134.5t-97.5 -360.5zM1343 711q0 -331 -174 -533.5t-458 -202.5t-458.5 202.5t-174.5 533.5
q0 219 79 386t222.5 258t331.5 91q284 0 458 -202t174 -533z" />
    <glyph glyph-name="multiply" unicode="&#xd7;" horiz-adv-x="1228" 
d="M311 195l-145 139l307 325l-307 328l147 139l299 -319l303 319l146 -139l-307 -328l307 -325l-146 -139l-303 319z" />
    <glyph glyph-name="Oslash" unicode="&#xd8;" horiz-adv-x="1439" 
d="M721 -25q-183 0 -320 84l-75 -112h-240l164 243q-162 202 -162 521q0 219 79 386t222.5 258t331.5 91q174 0 317 -84l76 111h242l-164 -244q162 -202 162 -518q0 -331 -174.5 -533.5t-458.5 -202.5zM1079 711q0 159 -51 276l-485 -719q77 -53 178 -53q159 0 258.5 134.5
t99.5 361.5zM362 711q0 -159 52 -279l483 719q-80 55 -176 55q-158 0 -258.5 -134.5t-100.5 -360.5z" />
    <glyph glyph-name="Ugrave" unicode="&#xd9;" horiz-adv-x="1327" 
d="M664 -25q-249 0 -392 137t-143 408v901h270v-901q0 -146 71 -225.5t194 -79.5t193.5 79.5t70.5 225.5v901h270v-901q0 -270 -143 -407.5t-391 -137.5zM387 1815h264l127 -297h-192z" />
    <glyph glyph-name="Uacute" unicode="&#xda;" horiz-adv-x="1327" 
d="M676 1815h266l-201 -297h-192zM664 -25q-249 0 -392 137t-143 408v901h270v-901q0 -146 71 -225.5t194 -79.5t193.5 79.5t70.5 225.5v901h270v-901q0 -270 -143 -407.5t-391 -137.5z" />
    <glyph glyph-name="Ucircumflex" unicode="&#xdb;" horiz-adv-x="1327" 
d="M541 1815h243l189 -297h-182l-127 139l-127 -139h-185zM664 -25q-249 0 -392 137t-143 408v901h270v-901q0 -146 71 -225.5t194 -79.5t193.5 79.5t70.5 225.5v901h270v-901q0 -270 -143 -407.5t-391 -137.5z" />
    <glyph glyph-name="Udieresis" unicode="&#xdc;" horiz-adv-x="1327" 
d="M360 1556v232h236v-232h-236zM729 1556v232h236v-232h-236zM664 -25q-249 0 -392 137t-143 408v901h270v-901q0 -146 71 -225.5t194 -79.5t193.5 79.5t70.5 225.5v901h270v-901q0 -270 -143 -407.5t-391 -137.5z" />
    <glyph glyph-name="Yacute" unicode="&#xdd;" horiz-adv-x="1247" 
d="M485 0v526l-475 895h307l310 -596l309 596h301l-481 -901v-520h-271zM637 1815h266l-201 -297h-192z" />
    <glyph glyph-name="Thorn" unicode="&#xde;" horiz-adv-x="1210" 
d="M420 1421v-239h227q239 0 376.5 -114t137.5 -353q0 -122 -37 -212t-106.5 -144.5t-161.5 -80.5t-209 -26h-227v-252h-273v1421h273zM631 952h-211v-471h211q120 0 185 57.5t65 176.5t-65 178t-185 59z" />
    <glyph glyph-name="germandbls" unicode="&#xdf;" horiz-adv-x="1202" 
d="M573 0v217q71 -24 158 -24q75 0 119.5 34.5t44.5 94.5q0 43 -24.5 73t-77.5 64l-86 55q-68 43 -101 89t-33 112q0 46 30 100.5t66.5 97.5t66.5 97t30 98q0 65 -44 103t-114 38q-79 0 -125.5 -52.5t-46.5 -145.5v-1051h-256v795h-123v221h123v53q0 175 115.5 275
t302.5 100q184 0 302 -86t118 -225q0 -47 -19.5 -94t-47 -83.5t-55.5 -68.5t-47.5 -60.5t-19.5 -48.5q0 -18 11.5 -31.5t48.5 -37.5l92 -62q180 -122 180 -323q0 -156 -110.5 -251.5t-292.5 -95.5q-87 0 -185 23z" />
    <glyph glyph-name="agrave" unicode="&#xe0;" horiz-adv-x="1052" 
d="M938 0h-238v152q-47 -87 -130 -129.5t-181 -42.5q-144 0 -228.5 76.5t-84.5 211.5q0 133 86 216.5t225 109.5l297 55v43q0 84 -42 121t-122 37q-141 0 -153 -141h-258q6 154 116.5 240.5t294.5 86.5q200 0 309 -92t109 -278v-666zM463 172q94 0 157.5 63.5t63.5 186.5v45
l-203 -37q-79 -14 -117 -51.5t-38 -89.5q0 -54 36.5 -85.5t100.5 -31.5zM246 1421h264l127 -297h-193z" />
    <glyph glyph-name="aacute" unicode="&#xe1;" horiz-adv-x="1052" 
d="M938 0h-238v152q-47 -87 -130 -129.5t-181 -42.5q-144 0 -228.5 76.5t-84.5 211.5q0 133 86 216.5t225 109.5l297 55v43q0 84 -42 121t-122 37q-141 0 -153 -141h-258q6 154 116.5 240.5t294.5 86.5q200 0 309 -92t109 -278v-666zM463 172q94 0 157.5 63.5t63.5 186.5v45
l-203 -37q-79 -14 -117 -51.5t-38 -89.5q0 -54 36.5 -85.5t100.5 -31.5zM532 1421h267l-201 -297h-192z" />
    <glyph glyph-name="acircumflex" unicode="&#xe2;" horiz-adv-x="1052" 
d="M938 0h-238v152q-47 -87 -130 -129.5t-181 -42.5q-144 0 -228.5 76.5t-84.5 211.5q0 133 86 216.5t225 109.5l297 55v43q0 84 -42 121t-122 37q-141 0 -153 -141h-258q6 154 116.5 240.5t294.5 86.5q200 0 309 -92t109 -278v-666zM463 172q94 0 157.5 63.5t63.5 186.5v45
l-203 -37q-79 -14 -117 -51.5t-38 -89.5q0 -54 36.5 -85.5t100.5 -31.5zM399 1421h244l188 -297h-182l-127 140l-127 -140h-184z" />
    <glyph glyph-name="atilde" unicode="&#xe3;" horiz-adv-x="1052" 
d="M938 0h-238v152q-47 -87 -130 -129.5t-181 -42.5q-144 0 -228.5 76.5t-84.5 211.5q0 133 86 216.5t225 109.5l297 55v43q0 84 -42 121t-122 37q-141 0 -153 -141h-258q6 154 116.5 240.5t294.5 86.5q200 0 309 -92t109 -278v-666zM463 172q94 0 157.5 63.5t63.5 186.5v45
l-203 -37q-79 -14 -117 -51.5t-38 -89.5q0 -54 36.5 -85.5t100.5 -31.5zM659 1149q-44 0 -128.5 47t-100.5 47q-39 0 -39 -90h-162q0 277 164 277q43 0 128 -47.5t100 -47.5q41 0 41 90h159q0 -62 -7.5 -109t-25 -86t-50 -60t-79.5 -21z" />
    <glyph glyph-name="adieresis" unicode="&#xe4;" horiz-adv-x="1052" 
d="M938 0h-238v152q-47 -87 -130 -129.5t-181 -42.5q-144 0 -228.5 76.5t-84.5 211.5q0 133 86 216.5t225 109.5l297 55v43q0 84 -42 121t-122 37q-141 0 -153 -141h-258q6 154 116.5 240.5t294.5 86.5q200 0 309 -92t109 -278v-666zM463 172q94 0 157.5 63.5t63.5 186.5v45
l-203 -37q-79 -14 -117 -51.5t-38 -89.5q0 -54 36.5 -85.5t100.5 -31.5zM219 1171v232h236v-232h-236zM588 1171v232h235v-232h-235z" />
    <glyph glyph-name="aring" unicode="&#xe5;" horiz-adv-x="1052" 
d="M938 0h-238v152q-47 -87 -130 -129.5t-181 -42.5q-144 0 -228.5 76.5t-84.5 211.5q0 133 86 216.5t225 109.5l297 55v43q0 84 -42 121t-122 37q-141 0 -153 -141h-258q6 154 116.5 240.5t294.5 86.5q200 0 309 -92t109 -278v-666zM463 172q94 0 157.5 63.5t63.5 186.5v45
l-203 -37q-79 -14 -117 -51.5t-38 -89.5q0 -54 36.5 -85.5t100.5 -31.5zM283 1319q0 98 69.5 166.5t169.5 68.5t170 -68.5t70 -166.5q0 -97 -70 -164.5t-170 -67.5t-169.5 67.5t-69.5 164.5zM416 1319q0 -46 30.5 -77.5t75.5 -31.5q46 0 77.5 31.5t31.5 77.5q0 49 -31.5 82
t-77.5 33t-76 -32.5t-30 -82.5z" />
    <glyph glyph-name="ae" unicode="&#xe6;" horiz-adv-x="1673" 
d="M479 614h205v80q0 156 -164 156q-146 0 -149 -141h-265q6 153 116 240t294 87q230 0 322 -143q116 143 319 143q198 0 318 -139.5t120 -382.5q0 -2 -1 -40t-1 -42h-669q5 -112 59.5 -184t146.5 -72q67 0 115 38t62 116h272q-30 -165 -151.5 -257.5t-286.5 -92.5
q-110 0 -202.5 51t-143.5 141q-54 -90 -150 -141t-225 -51q-164 0 -254 79t-90 220q0 158 106.5 246.5t296.5 88.5zM684 420v12h-172q-92 0 -139 -37t-47 -104q0 -55 38 -87t109 -32q91 0 151 63.5t60 184.5zM928 614h399q-4 106 -58 167t-134 61q-84 0 -139.5 -61.5
t-67.5 -166.5z" />
    <glyph glyph-name="ccedilla" unicode="&#xe7;" horiz-adv-x="1067" 
d="M748 -225q-1 -89 -65.5 -136t-168.5 -47q-67 0 -137 25v131q80 -33 139 -33q41 0 62.5 17t21.5 43q0 49 -68 49q-37 0 -77 -21l-52 68l82 113q-188 19 -298.5 158t-110.5 366q0 244 128.5 386t342.5 142q188 0 310 -105t134 -288h-266q-6 94 -55 141t-123 47
q-94 0 -148.5 -85.5t-54.5 -237.5q0 -153 54.5 -238.5t148.5 -85.5q73 0 122.5 47.5t55.5 141.5h266q-12 -172 -122 -276t-281 -115l-43 -66q6 2 30 2q75 0 122.5 -34t50.5 -109z" />
    <glyph glyph-name="egrave" unicode="&#xe8;" horiz-adv-x="1087" 
d="M543 -20q-99 0 -183.5 35t-148 100.5t-99.5 166.5t-36 226q0 239 128.5 383.5t340.5 144.5t338.5 -138t126.5 -378q0 -53 -2 -88h-670q6 -114 62.5 -185t144.5 -71q69 0 116 38.5t60 115.5h272q-29 -166 -151 -258t-299 -92zM547 842q-82 0 -137.5 -62t-67.5 -166h399
q-4 104 -58 166t-136 62zM266 1421h264l127 -297h-192z" />
    <glyph glyph-name="eacute" unicode="&#xe9;" horiz-adv-x="1087" 
d="M553 1421h266l-201 -297h-192zM543 -20q-99 0 -183.5 35t-148 100.5t-99.5 166.5t-36 226q0 239 128.5 383.5t340.5 144.5t338.5 -138t126.5 -378q0 -53 -2 -88h-670q6 -114 62.5 -185t144.5 -71q69 0 116 38.5t60 115.5h272q-29 -166 -151 -258t-299 -92zM547 842
q-82 0 -137.5 -62t-67.5 -166h399q-4 104 -58 166t-136 62z" />
    <glyph glyph-name="ecircumflex" unicode="&#xea;" horiz-adv-x="1087" 
d="M420 1421h244l188 -297h-182l-127 140l-127 -140h-185zM543 -20q-99 0 -183.5 35t-148 100.5t-99.5 166.5t-36 226q0 239 128.5 383.5t340.5 144.5t338.5 -138t126.5 -378q0 -53 -2 -88h-670q6 -114 62.5 -185t144.5 -71q69 0 116 38.5t60 115.5h272q-29 -166 -151 -258
t-299 -92zM547 842q-82 0 -137.5 -62t-67.5 -166h399q-4 104 -58 166t-136 62z" />
    <glyph glyph-name="edieresis" unicode="&#xeb;" horiz-adv-x="1087" 
d="M240 1171v232h235v-232h-235zM608 1171v232h236v-232h-236zM543 -20q-99 0 -183.5 35t-148 100.5t-99.5 166.5t-36 226q0 239 128.5 383.5t340.5 144.5t338.5 -138t126.5 -378q0 -53 -2 -88h-670q6 -114 62.5 -185t144.5 -71q69 0 116 38.5t60 115.5h272
q-29 -166 -151 -258t-299 -92zM547 842q-82 0 -137.5 -62t-67.5 -166h399q-4 104 -58 166t-136 62z" />
    <glyph glyph-name="igrave" unicode="&#xec;" horiz-adv-x="512" 
d="M127 1016h260v-1016h-260v1016zM-18 1421h264l127 -297h-193z" />
    <glyph glyph-name="iacute" unicode="&#xed;" horiz-adv-x="512" 
d="M268 1421h267l-201 -297h-193zM127 1016h260v-1016h-260v1016z" />
    <glyph glyph-name="icircumflex" unicode="&#xee;" horiz-adv-x="512" 
d="M135 1421h244l188 -297h-182l-127 140l-127 -140h-184zM127 1016h260v-1016h-260v1016z" />
    <glyph glyph-name="idieresis" unicode="&#xef;" horiz-adv-x="512" 
d="M-45 1171v232h235v-232h-235zM324 1171v232h235v-232h-235zM127 1016h260v-1016h-260v1016z" />
    <glyph glyph-name="eth" unicode="&#xf0;" horiz-adv-x="1114" 
d="M342 1421h281q63 -59 100 -104l182 61l43 -145l-127 -45q217 -307 217 -623q0 -271 -126.5 -428t-354.5 -157q-211 0 -346 138t-135 378q0 230 124 364.5t308 134.5q66 0 133 -28t104 -74q-40 96 -135 227l-209 -71l-43 145l150 51q-90 113 -166 176zM346 496
q0 -138 55 -224t156 -86t155 85.5t54 224.5q0 140 -54 224.5t-155 84.5t-156 -85t-55 -224z" />
    <glyph glyph-name="ntilde" unicode="&#xf1;" horiz-adv-x="1087" 
d="M969 0h-258v604q0 115 -37.5 167t-114.5 52q-85 0 -129.5 -68t-44.5 -173v-582h-258v1016h244v-146q102 166 282 166q154 0 235 -102.5t81 -282.5v-651zM680 1149q-44 0 -128.5 47t-100.5 47q-39 0 -39 -90h-162q0 277 164 277q43 0 127.5 -47.5t99.5 -47.5q41 0 41 90
h160q0 -62 -7.5 -109t-25 -86t-50 -60t-79.5 -21z" />
    <glyph glyph-name="ograve" unicode="&#xf2;" horiz-adv-x="1093" 
d="M547 -20q-210 0 -340.5 142.5t-130.5 385.5t130.5 385.5t340.5 142.5t340.5 -142.5t130.5 -385.5t-130.5 -385.5t-340.5 -142.5zM547 184q96 0 149.5 89t53.5 235t-53.5 234.5t-149.5 88.5q-97 0 -150 -88t-53 -235t53 -235.5t150 -88.5zM270 1421h265l127 -297h-193z
" />
    <glyph glyph-name="oacute" unicode="&#xf3;" horiz-adv-x="1093" 
d="M557 1421h266l-200 -297h-193zM547 -20q-210 0 -340.5 142.5t-130.5 385.5t130.5 385.5t340.5 142.5t340.5 -142.5t130.5 -385.5t-130.5 -385.5t-340.5 -142.5zM547 184q96 0 149.5 89t53.5 235t-53.5 234.5t-149.5 88.5q-97 0 -150 -88t-53 -235t53 -235.5t150 -88.5z
" />
    <glyph glyph-name="ocircumflex" unicode="&#xf4;" horiz-adv-x="1093" 
d="M422 1421h244l188 -297h-182l-127 140l-127 -140h-185zM547 -20q-210 0 -340.5 142.5t-130.5 385.5t130.5 385.5t340.5 142.5t340.5 -142.5t130.5 -385.5t-130.5 -385.5t-340.5 -142.5zM547 184q96 0 149.5 89t53.5 235t-53.5 234.5t-149.5 88.5q-97 0 -150 -88t-53 -235
t53 -235.5t150 -88.5z" />
    <glyph glyph-name="otilde" unicode="&#xf5;" horiz-adv-x="1093" 
d="M547 -20q-210 0 -340.5 142.5t-130.5 385.5t130.5 385.5t340.5 142.5t340.5 -142.5t130.5 -385.5t-130.5 -385.5t-340.5 -142.5zM547 184q96 0 149.5 89t53.5 235t-53.5 234.5t-149.5 88.5q-97 0 -150 -88t-53 -235t53 -235.5t150 -88.5zM680 1149q-44 0 -128.5 47
t-100.5 47q-39 0 -39 -90h-162q0 277 164 277q43 0 127.5 -47.5t99.5 -47.5q41 0 41 90h160q0 -62 -7.5 -109t-25 -86t-50 -60t-79.5 -21z" />
    <glyph glyph-name="odieresis" unicode="&#xf6;" horiz-adv-x="1093" 
d="M242 1171v232h235v-232h-235zM610 1171v232h236v-232h-236zM547 -20q-210 0 -340.5 142.5t-130.5 385.5t130.5 385.5t340.5 142.5t340.5 -142.5t130.5 -385.5t-130.5 -385.5t-340.5 -142.5zM547 184q96 0 149.5 89t53.5 235t-53.5 234.5t-149.5 88.5q-97 0 -150 -88
t-53 -235t53 -235.5t150 -88.5z" />
    <glyph glyph-name="divide" unicode="&#xf7;" horiz-adv-x="1228" 
d="M154 559v203h921v-203h-921zM469 68v288h289v-288h-289zM469 965v288h289v-288h-289z" />
    <glyph glyph-name="oslash" unicode="&#xf8;" horiz-adv-x="1105" 
d="M553 -20q-121 0 -217 47l-51 -80h-193l117 180q-127 143 -127 381q0 243 130.5 385.5t340.5 142.5q113 0 213 -49l53 82h195l-117 -180q127 -146 127 -381q0 -243 -130.5 -385.5t-340.5 -142.5zM776 508q0 86 -22 160l-301 -461q43 -27 100 -27q104 0 163.5 90.5
t59.5 237.5zM330 508q0 -89 22 -160l299 461q-49 27 -98 27q-105 0 -164 -90t-59 -238z" />
    <glyph glyph-name="ugrave" unicode="&#xf9;" horiz-adv-x="1075" 
d="M950 0h-245v145q-98 -165 -279 -165q-150 0 -228.5 102.5t-78.5 282.5v651h260v-600q0 -119 34.5 -171t106.5 -52q84 0 128 68.5t44 178.5v576h258v-1016zM256 1421h264l127 -297h-192z" />
    <glyph glyph-name="uacute" unicode="&#xfa;" horiz-adv-x="1075" 
d="M545 1421h266l-201 -297h-192zM950 0h-245v145q-98 -165 -279 -165q-150 0 -228.5 102.5t-78.5 282.5v651h260v-600q0 -119 34.5 -171t106.5 -52q84 0 128 68.5t44 178.5v576h258v-1016z" />
    <glyph glyph-name="ucircumflex" unicode="&#xfb;" horiz-adv-x="1075" 
d="M410 1421h243l189 -297h-183l-127 140l-126 -140h-185zM950 0h-245v145q-98 -165 -279 -165q-150 0 -228.5 102.5t-78.5 282.5v651h260v-600q0 -119 34.5 -171t106.5 -52q84 0 128 68.5t44 178.5v576h258v-1016z" />
    <glyph glyph-name="udieresis" unicode="&#xfc;" horiz-adv-x="1075" 
d="M229 1171v232h236v-232h-236zM598 1171v232h236v-232h-236zM950 0h-245v145q-98 -165 -279 -165q-150 0 -228.5 102.5t-78.5 282.5v651h260v-600q0 -119 34.5 -171t106.5 -52q84 0 128 68.5t44 178.5v576h258v-1016z" />
    <glyph glyph-name="yacute" unicode="&#xfd;" horiz-adv-x="1013" 
d="M246 -377q-82 0 -131 8v211q39 -4 92 -4q61 0 97.5 24t53.5 79l7 20l-336 1055h270l213 -760l213 760h264l-344 -1098q-33 -105 -100 -173.5t-141 -95t-158 -26.5zM514 1421h266l-200 -297h-193z" />
    <glyph glyph-name="thorn" unicode="&#xfe;" horiz-adv-x="1132" 
d="M1053 508q0 -245 -111.5 -388t-288.5 -143q-85 0 -154 40t-114 108v-483h-258v1779h258v-530q98 145 268 145q177 0 288.5 -142t111.5 -386zM582 184q97 0 149.5 88.5t52.5 235.5t-52.5 235t-149.5 88q-96 0 -149.5 -88.5t-53.5 -234.5t53.5 -235t149.5 -89z" />
    <glyph glyph-name="ydieresis" unicode="&#xff;" horiz-adv-x="1013" 
d="M246 -377q-82 0 -131 8v211q39 -4 92 -4q61 0 97.5 24t53.5 79l7 20l-336 1055h270l213 -760l213 760h264l-344 -1098q-33 -105 -100 -173.5t-141 -95t-158 -26.5zM197 1171v232h235v-232h-235zM565 1171v232h236v-232h-236z" />
    <glyph glyph-name="Amacron" unicode="&#x100;" horiz-adv-x="1357" 
d="M1036 0l-94 309h-524l-94 -309h-281l461 1421h348l463 -1421h-279zM680 1165l-193 -624h383zM920 1581h-494v184h494v-184z" />
    <glyph glyph-name="amacron" unicode="&#x101;" horiz-adv-x="1052" 
d="M938 0h-238v152q-47 -87 -130 -129.5t-181 -42.5q-144 0 -228.5 76.5t-84.5 211.5q0 133 86 216.5t225 109.5l297 55v43q0 84 -42 121t-122 37q-141 0 -153 -141h-258q6 154 116.5 240.5t294.5 86.5q200 0 309 -92t109 -278v-666zM463 172q94 0 157.5 63.5t63.5 186.5v45
l-203 -37q-79 -14 -117 -51.5t-38 -89.5q0 -54 36.5 -85.5t100.5 -31.5zM770 1196h-494v184h494v-184z" />
    <glyph glyph-name="Abreve" unicode="&#x102;" horiz-adv-x="1357" 
d="M1036 0l-94 309h-524l-94 -309h-281l461 1421h348l463 -1421h-279zM680 1165l-193 -624h383zM672 1503q-124 0 -201.5 83t-77.5 220h168q0 -52 29 -91.5t84 -39.5q54 0 82 39t28 92h170q0 -137 -77.5 -220t-204.5 -83z" />
    <glyph glyph-name="abreve" unicode="&#x103;" horiz-adv-x="1052" 
d="M938 0h-238v152q-47 -87 -130 -129.5t-181 -42.5q-144 0 -228.5 76.5t-84.5 211.5q0 133 86 216.5t225 109.5l297 55v43q0 84 -42 121t-122 37q-141 0 -153 -141h-258q6 154 116.5 240.5t294.5 86.5q200 0 309 -92t109 -278v-666zM463 172q94 0 157.5 63.5t63.5 186.5v45
l-203 -37q-79 -14 -117 -51.5t-38 -89.5q0 -54 36.5 -85.5t100.5 -31.5zM520 1118q-124 0 -201 83t-77 220h168q0 -53 28.5 -92t83.5 -39q54 0 82.5 39t28.5 92h170q0 -137 -78 -220t-205 -83z" />
    <glyph glyph-name="Aogonek" unicode="&#x104;" horiz-adv-x="1357" 
d="M1036 0l-94 309h-524l-94 -309h-281l461 1421h348l463 -1421h-152q-86 -109 -86 -166q0 -31 19.5 -48t48.5 -17q46 0 96 20v-147q-19 -8 -66 -16.5t-83 -8.5q-84 0 -135.5 42.5t-51.5 115.5q0 98 131 225zM680 1165l-193 -624h383z" />
    <glyph glyph-name="aogonek" unicode="&#x105;" horiz-adv-x="1052" 
d="M756 -383q-84 0 -135.5 42.5t-51.5 115.5q0 100 131 227v150q-47 -87 -130 -129.5t-181 -42.5q-144 0 -228.5 76.5t-84.5 211.5q0 133 86 216.5t225 109.5l297 55v43q0 84 -42 121t-122 37q-146 0 -149 -141h-265q6 154 117.5 240.5t296.5 86.5q200 0 309 -92t109 -278
v-666h-113q-84 -105 -84 -166q0 -31 19.5 -48t48.5 -17q46 0 96 20v-147q-19 -8 -65.5 -16.5t-83.5 -8.5zM463 172q94 0 157.5 63.5t63.5 186.5v45l-203 -37q-79 -14 -117 -51.5t-38 -89.5q0 -54 36.5 -85.5t100.5 -31.5z" />
    <glyph glyph-name="Cacute" unicode="&#x106;" horiz-adv-x="1363" 
d="M719 1815h266l-201 -297h-192zM362 711q0 -223 97.5 -359.5t249.5 -136.5q122 0 199.5 78t99.5 213h284q-14 -167 -93.5 -288t-205.5 -182t-284 -61q-282 0 -456.5 202.5t-174.5 533.5t174.5 533t456.5 202q247 0 404.5 -144t176.5 -387h-282q-22 135 -99.5 213
t-199.5 78q-153 0 -250 -136t-97 -359z" />
    <glyph glyph-name="cacute" unicode="&#x107;" horiz-adv-x="1067" 
d="M559 1421h266l-200 -297h-193zM547 -20q-214 0 -342.5 142t-128.5 386t128.5 386t342.5 142q188 0 310 -105t134 -288h-266q-6 94 -55 141t-123 47q-94 0 -148.5 -85.5t-54.5 -237.5q0 -153 54.5 -238.5t148.5 -85.5q73 0 122.5 47.5t55.5 141.5h266q-12 -183 -134 -288
t-310 -105z" />
    <glyph glyph-name="Ccircumflex" unicode="&#x108;" horiz-adv-x="1363" 
d="M584 1815h243l189 -297h-182l-127 139l-127 -139h-185zM362 711q0 -223 97.5 -359.5t249.5 -136.5q122 0 199.5 78t99.5 213h284q-14 -167 -93.5 -288t-205.5 -182t-284 -61q-282 0 -456.5 202.5t-174.5 533.5t174.5 533t456.5 202q247 0 404.5 -144t176.5 -387h-282
q-22 135 -99.5 213t-199.5 78q-153 0 -250 -136t-97 -359z" />
    <glyph glyph-name="ccircumflex" unicode="&#x109;" horiz-adv-x="1067" 
d="M424 1421h244l188 -297h-182l-127 140l-127 -140h-184zM547 -20q-214 0 -342.5 142t-128.5 386t128.5 386t342.5 142q188 0 310 -105t134 -288h-266q-6 94 -55 141t-123 47q-94 0 -148.5 -85.5t-54.5 -237.5q0 -153 54.5 -238.5t148.5 -85.5q73 0 122.5 47.5t55.5 141.5
h266q-12 -183 -134 -288t-310 -105z" />
    <glyph glyph-name="Cdotaccent" unicode="&#x10a;" horiz-adv-x="1363" 
d="M362 711q0 -223 97.5 -359.5t249.5 -136.5q122 0 199.5 78t99.5 213h284q-14 -167 -93.5 -288t-205.5 -182t-284 -61q-282 0 -456.5 202.5t-174.5 533.5t174.5 533t456.5 202q247 0 404.5 -144t176.5 -387h-282q-22 135 -99.5 213t-199.5 78q-153 0 -250 -136t-97 -359z
M557 1556v232h297v-232h-297z" />
    <glyph glyph-name="cdotaccent" unicode="&#x10b;" horiz-adv-x="1067" 
d="M547 -20q-214 0 -342.5 142t-128.5 386t128.5 386t342.5 142q188 0 310 -105t134 -288h-266q-6 94 -55 141t-123 47q-94 0 -148.5 -85.5t-54.5 -237.5q0 -153 54.5 -238.5t148.5 -85.5q73 0 122.5 47.5t55.5 141.5h266q-12 -183 -134 -288t-310 -105zM397 1171v232h297
v-232h-297z" />
    <glyph glyph-name="Ccaron" unicode="&#x10c;" horiz-adv-x="1363" 
d="M827 1518h-243l-189 297h185l127 -140l127 140h182zM362 711q0 -223 97.5 -359.5t249.5 -136.5q122 0 199.5 78t99.5 213h284q-14 -167 -93.5 -288t-205.5 -182t-284 -61q-282 0 -456.5 202.5t-174.5 533.5t174.5 533t456.5 202q247 0 404.5 -144t176.5 -387h-282
q-22 135 -99.5 213t-199.5 78q-153 0 -250 -136t-97 -359z" />
    <glyph glyph-name="ccaron" unicode="&#x10d;" horiz-adv-x="1067" 
d="M668 1124h-244l-188 297h184l127 -139l127 139h182zM547 -20q-214 0 -342.5 142t-128.5 386t128.5 386t342.5 142q188 0 310 -105t134 -288h-266q-6 94 -55 141t-123 47q-94 0 -148.5 -85.5t-54.5 -237.5q0 -153 54.5 -238.5t148.5 -85.5q73 0 122.5 47.5t55.5 141.5h266
q-12 -183 -134 -288t-310 -105z" />
    <glyph glyph-name="Dcaron" unicode="&#x10e;" horiz-adv-x="1372" 
d="M772 1518h-244l-188 297h184l127 -140l127 140h183zM147 1421h492q163 0 289 -53t205.5 -148.5t120 -224t40.5 -284.5q0 -155 -40.5 -283.5t-120 -224.5t-205.5 -149.5t-289 -53.5h-492v1421zM418 240h217q172 0 273.5 123t101.5 348t-101.5 348t-273.5 123h-217v-942z
" />
    <glyph glyph-name="dcaron" unicode="&#x10f;" horiz-adv-x="1337" 
d="M1167 1421h244l-156 -374h-170zM479 -23q-177 0 -288 143t-111 388q0 243 111 385.5t288 142.5q85 0 154 -38.5t115 -106.5v530h258v-1421h-244v137q-104 -160 -283 -160zM551 184q97 0 150 88.5t53 235.5t-53 235t-150 88q-96 0 -149.5 -88.5t-53.5 -234.5t53.5 -235
t149.5 -89z" />
    <glyph glyph-name="Dcroat" unicode="&#x110;" horiz-adv-x="1411" 
d="M186 1421h492q163 0 289.5 -53t205.5 -148.5t119.5 -224t40.5 -284.5q0 -155 -40.5 -283.5t-119.5 -224.5t-205.5 -149.5t-289.5 -53.5h-492v598h-129v225h129v598zM457 240h217q173 0 274 123t101 348t-101 348t-274 123h-217v-359h209v-225h-209v-358z" />
    <glyph glyph-name="dcroat" unicode="&#x111;" horiz-adv-x="1138" 
d="M80 508q0 246 111 387t288 141q85 0 154 -38.5t115 -106.5v213h-175v170h175v147h258v-147h112v-170h-112v-1104h-244v137q-104 -160 -283 -160q-177 0 -288 142.5t-111 388.5zM551 831q-96 0 -149.5 -88.5t-53.5 -234.5t53.5 -235t149.5 -89q97 0 150 88.5t53 235.5
t-53 235t-150 88z" />
    <glyph glyph-name="Emacron" unicode="&#x112;" horiz-adv-x="1200" 
d="M147 0v1421h932v-247h-661v-330h598v-238h-598v-358h674v-248h-945zM862 1581h-493v184h493v-184z" />
    <glyph glyph-name="emacron" unicode="&#x113;" horiz-adv-x="1087" 
d="M543 -20q-99 0 -183.5 35t-148 100.5t-99.5 166.5t-36 226q0 239 128.5 383.5t340.5 144.5t338.5 -138t126.5 -378q0 -53 -2 -88h-670q6 -114 62.5 -185t144.5 -71q69 0 116 38.5t60 115.5h272q-29 -166 -151 -258t-299 -92zM547 842q-82 0 -137.5 -62t-67.5 -166h399
q-4 104 -58 166t-136 62zM788 1196h-493v184h493v-184z" />
    <glyph glyph-name="Ebreve" unicode="&#x114;" horiz-adv-x="1200" 
d="M147 0v1421h932v-247h-661v-330h598v-238h-598v-358h674v-248h-945zM612 1503q-124 0 -201 83t-77 220h168q0 -53 28.5 -92t83.5 -39q54 0 82.5 39t28.5 92h170q0 -137 -78 -220t-205 -83z" />
    <glyph glyph-name="ebreve" unicode="&#x115;" horiz-adv-x="1087" 
d="M543 -20q-99 0 -183.5 35t-148 100.5t-99.5 166.5t-36 226q0 239 128.5 383.5t340.5 144.5t338.5 -138t126.5 -378q0 -53 -2 -88h-670q6 -114 62.5 -185t144.5 -71q69 0 116 38.5t60 115.5h272q-29 -166 -151 -258t-299 -92zM547 842q-82 0 -137.5 -62t-67.5 -166h399
q-4 104 -58 166t-136 62zM541 1118q-124 0 -201.5 83t-77.5 220h168q0 -52 29 -91.5t84 -39.5q54 0 82 39t28 92h170q0 -137 -77.5 -220t-204.5 -83z" />
    <glyph glyph-name="Edotaccent" unicode="&#x116;" horiz-adv-x="1200" 
d="M147 0v1421h932v-247h-661v-330h598v-238h-598v-358h674v-248h-945zM467 1556v232h297v-232h-297z" />
    <glyph glyph-name="edotaccent" unicode="&#x117;" horiz-adv-x="1087" 
d="M543 -20q-99 0 -183.5 35t-148 100.5t-99.5 166.5t-36 226q0 239 128.5 383.5t340.5 144.5t338.5 -138t126.5 -378q0 -53 -2 -88h-670q6 -114 62.5 -185t144.5 -71q69 0 116 38.5t60 115.5h272q-29 -166 -151 -258t-299 -92zM547 842q-82 0 -137.5 -62t-67.5 -166h399
q-4 104 -58 166t-136 62zM393 1171v232h297v-232h-297z" />
    <glyph glyph-name="Eogonek" unicode="&#x118;" horiz-adv-x="1200" 
d="M147 0v1421h932v-247h-661v-330h598v-238h-598v-358h674v-248q-86 -106 -86 -166q0 -31 18 -48t47 -17q44 0 98 20v-147q-21 -8 -67 -16.5t-82 -8.5q-86 0 -137.5 42.5t-51.5 115.5q0 93 132 225h-816z" />
    <glyph glyph-name="eogonek" unicode="&#x119;" horiz-adv-x="1087" 
d="M684 -383q-84 0 -135 42.5t-51 115.5q0 100 118 209q-40 -4 -73 -4q-99 0 -183.5 35t-148 100.5t-99.5 166.5t-36 226q0 239 128.5 383.5t340.5 144.5t338.5 -138t126.5 -378q0 -53 -2 -88h-670q6 -114 62.5 -185t144.5 -71q69 0 116 38.5t60 115.5h272
q-17 -99 -66.5 -168.5t-131.5 -134.5q-58 -45 -91.5 -100t-33.5 -93q0 -31 19 -48t48 -17q47 0 97 20v-147q-19 -8 -66 -16.5t-84 -8.5zM547 842q-82 0 -137.5 -62t-67.5 -166h399q-4 104 -58 166t-136 62z" />
    <glyph glyph-name="Ecaron" unicode="&#x11a;" horiz-adv-x="1200" 
d="M735 1518h-243l-189 297h184l127 -140l127 140h183zM147 0v1421h932v-247h-661v-330h598v-238h-598v-358h674v-248h-945z" />
    <glyph glyph-name="ecaron" unicode="&#x11b;" horiz-adv-x="1087" 
d="M664 1124h-244l-189 297h185l127 -139l127 139h182zM543 -20q-99 0 -183.5 35t-148 100.5t-99.5 166.5t-36 226q0 239 128.5 383.5t340.5 144.5t338.5 -138t126.5 -378q0 -53 -2 -88h-670q6 -114 62.5 -185t144.5 -71q69 0 116 38.5t60 115.5h272q-29 -166 -151 -258
t-299 -92zM547 842q-82 0 -137.5 -62t-67.5 -166h399q-4 104 -58 166t-136 62z" />
    <glyph glyph-name="Gcircumflex" unicode="&#x11c;" horiz-adv-x="1429" 
d="M582 1815h243l189 -297h-183l-126 139l-127 -139h-185zM659 -25q-165 0 -297 90.5t-208 259t-76 386.5q0 331 174.5 533t456.5 202q241 0 398.5 -137t182.5 -369h-289q-22 125 -99.5 195.5t-190.5 70.5q-154 0 -251.5 -134.5t-97.5 -360.5q0 -227 99.5 -363.5
t255.5 -136.5q79 0 145.5 35t113.5 111t58 184h-297v229h559v-770h-239v205q-62 -109 -163 -169.5t-235 -60.5z" />
    <glyph glyph-name="gcircumflex" unicode="&#x11d;" horiz-adv-x="1132" 
d="M440 1421h244l188 -297h-182l-127 140l-127 -140h-184zM492 31q-177 0 -294.5 137t-117.5 364q0 230 117.5 367t291.5 137q161 0 273 -153v133h244v-963q0 -218 -120.5 -326t-334.5 -108q-220 0 -332 95.5t-117 248.5h265q3 -76 53.5 -117t132.5 -41q96 0 147.5 55
t51.5 183v127q-100 -139 -260 -139zM553 233q96 0 148.5 84.5t52.5 217.5t-52.5 217t-148.5 84q-95 0 -148 -84.5t-53 -216.5t53 -217t148 -85z" />
    <glyph glyph-name="Gbreve" unicode="&#x11e;" horiz-adv-x="1429" 
d="M659 -25q-165 0 -297 90.5t-208 259t-76 386.5q0 331 174.5 533t456.5 202q241 0 398.5 -137t182.5 -369h-289q-22 125 -99.5 195.5t-190.5 70.5q-154 0 -251.5 -134.5t-97.5 -360.5q0 -227 99.5 -363.5t255.5 -136.5q79 0 145.5 35t113.5 111t58 184h-297v229h559v-770
h-239v205q-62 -109 -163 -169.5t-235 -60.5zM700 1503q-124 0 -201 83t-77 220h168q0 -53 28.5 -92t83.5 -39q54 0 82.5 39t28.5 92h170q0 -137 -78 -220t-205 -83z" />
    <glyph glyph-name="gbreve" unicode="&#x11f;" horiz-adv-x="1132" 
d="M492 31q-177 0 -294.5 137t-117.5 364q0 230 117.5 367t291.5 137q161 0 273 -153v133h244v-963q0 -218 -120.5 -326t-334.5 -108q-220 0 -332 95.5t-117 248.5h265q3 -76 53.5 -117t132.5 -41q96 0 147.5 55t51.5 183v127q-100 -139 -260 -139zM553 233q96 0 148.5 84.5
t52.5 217.5t-52.5 217t-148.5 84q-95 0 -148 -84.5t-53 -216.5t53 -217t148 -85zM561 1118q-124 0 -201 83t-77 220h168q0 -53 28.5 -92t83.5 -39q54 0 82.5 39t28.5 92h170q0 -137 -78 -220t-205 -83z" />
    <glyph glyph-name="Gdotaccent" unicode="&#x120;" horiz-adv-x="1429" 
d="M659 -25q-165 0 -297 90.5t-208 259t-76 386.5q0 331 174.5 533t456.5 202q241 0 398.5 -137t182.5 -369h-289q-22 125 -99.5 195.5t-190.5 70.5q-154 0 -251.5 -134.5t-97.5 -360.5q0 -227 99.5 -363.5t255.5 -136.5q79 0 145.5 35t113.5 111t58 184h-297v229h559v-770
h-239v205q-62 -109 -163 -169.5t-235 -60.5zM555 1556v232h297v-232h-297z" />
    <glyph glyph-name="gdotaccent" unicode="&#x121;" horiz-adv-x="1132" 
d="M492 31q-177 0 -294.5 137t-117.5 364q0 230 117.5 367t291.5 137q161 0 273 -153v133h244v-963q0 -218 -120.5 -326t-334.5 -108q-220 0 -332 95.5t-117 248.5h265q3 -76 53.5 -117t132.5 -41q96 0 147.5 55t51.5 183v127q-100 -139 -260 -139zM553 233q96 0 148.5 84.5
t52.5 217.5t-52.5 217t-148.5 84q-95 0 -148 -84.5t-53 -216.5t53 -217t148 -85zM414 1171v232h297v-232h-297z" />
    <glyph glyph-name="Gcommaaccent" unicode="&#x122;" horiz-adv-x="1429" 
d="M801 -92v-182q0 -123 -70 -182.5t-213 -59.5v115q137 0 137 102v10h-123v197h269zM659 -25q-165 0 -297 90.5t-208 259t-76 386.5q0 331 174.5 533t456.5 202q241 0 398.5 -137t182.5 -369h-289q-22 125 -99.5 195.5t-190.5 70.5q-154 0 -251.5 -134.5t-97.5 -360.5
q0 -227 99.5 -363.5t255.5 -136.5q79 0 145.5 35t113.5 111t58 184h-297v229h559v-770h-239v205q-62 -109 -163 -169.5t-235 -60.5z" />
    <glyph glyph-name="gcommaaccent" unicode="&#x123;" horiz-adv-x="1132" 
d="M492 31q-177 0 -294.5 137t-117.5 364q0 230 117.5 367t291.5 137q161 0 273 -153v133h244v-963q0 -218 -120.5 -326t-334.5 -108q-220 0 -332 95.5t-117 248.5h265q3 -76 53.5 -117t132.5 -41q96 0 147.5 55t51.5 183v127q-100 -139 -260 -139zM553 233q96 0 148.5 84.5
t52.5 217.5t-52.5 217t-148.5 84q-95 0 -148 -84.5t-53 -216.5t53 -217t148 -85zM694 1130h-268v183q0 123 70 182t213 59v-114q-138 0 -138 -103v-10h123v-197z" />
    <glyph glyph-name="Hcircumflex" unicode="&#x124;" horiz-adv-x="1411" 
d="M582 1815h243l189 -297h-183l-126 139l-127 -139h-185zM147 0v1421h271v-569h575v569h271v-1421h-271v604h-575v-604h-271z" />
    <glyph glyph-name="hcircumflex" unicode="&#x125;" horiz-adv-x="1087" 
d="M129 1774h244l188 -297h-182l-127 139l-127 -139h-184zM969 0h-258v604q0 115 -37.5 167t-114.5 52q-85 0 -129.5 -68t-44.5 -173v-582h-258v1421h258v-542q42 75 111 116t157 41q153 0 234.5 -102.5t81.5 -282.5v-651z" />
    <glyph glyph-name="Hbar" unicode="&#x126;" horiz-adv-x="1482" 
d="M180 0v909h-125v226h125v286h273v-286h575v286h272v-286h125v-226h-125v-909h-272v440h-575v-440h-273zM453 688h575v221h-575v-221z" />
    <glyph glyph-name="hbar" unicode="&#x127;" horiz-adv-x="1097" 
d="M569 1104h-174v-225q42 75 111 116t158 41q153 0 234 -102.5t81 -282.5v-651h-258v604q0 115 -37.5 167t-114.5 52q-85 0 -129.5 -68t-44.5 -173v-582h-260v1104h-110v170h110v147h260v-147h174v-170z" />
    <glyph glyph-name="Itilde" unicode="&#x128;" horiz-adv-x="565" 
d="M147 0v1421h271v-1421h-271zM424 1534q-44 0 -128.5 47t-100.5 47q-39 0 -39 -90h-162q0 277 164 277q43 0 127.5 -47.5t99.5 -47.5q41 0 41 90h160q0 -62 -7.5 -109t-25 -86t-50 -60t-79.5 -21z" />
    <glyph glyph-name="itilde" unicode="&#x129;" horiz-adv-x="512" 
d="M127 1016h260v-1016h-260v1016zM393 1149q-44 0 -128.5 47t-100.5 47q-39 0 -39 -90h-162q0 277 164 277q43 0 127.5 -47.5t99.5 -47.5q41 0 41 90h160q0 -62 -7.5 -109t-25 -86t-50 -60t-79.5 -21z" />
    <glyph glyph-name="Imacron" unicode="&#x12a;" horiz-adv-x="565" 
d="M147 0v1421h271v-1421h-271zM532 1581h-493v184h493v-184z" />
    <glyph glyph-name="imacron" unicode="&#x12b;" horiz-adv-x="512" 
d="M127 1016h260v-1016h-260v1016zM506 1196h-494v184h494v-184z" />
    <glyph glyph-name="Ibreve" unicode="&#x12c;" horiz-adv-x="565" 
d="M147 0v1421h271v-1421h-271zM283 1503q-124 0 -201.5 83t-77.5 220h168q0 -52 29 -91.5t84 -39.5q54 0 82 39t28 92h170q0 -137 -77.5 -220t-204.5 -83z" />
    <glyph glyph-name="ibreve" unicode="&#x12d;" horiz-adv-x="512" 
d="M127 1016h260v-1016h-260v1016zM256 1118q-124 0 -201.5 83t-77.5 220h168q0 -52 29 -91.5t84 -39.5q54 0 82.5 39t28.5 92h170q0 -137 -78 -220t-205 -83z" />
    <glyph glyph-name="Iogonek" unicode="&#x12e;" horiz-adv-x="565" 
d="M147 0v1421h271v-1421q-70 -31 -107 -78.5t-37 -87.5q0 -31 19.5 -48t48.5 -17q46 0 96 20v-147q-19 -8 -65.5 -16.5t-83.5 -8.5q-84 0 -135.5 42.5t-51.5 115.5q0 56 41.5 117t102.5 108h-99z" />
    <glyph glyph-name="iogonek" unicode="&#x12f;" horiz-adv-x="512" 
d="M225 0h-100v1016h258v-1016q-66 -37 -101.5 -81.5t-35.5 -84.5q0 -31 19 -48t48 -17q47 0 97 20v-147q-21 -8 -67.5 -16.5t-82.5 -8.5q-84 0 -135 42.5t-51 115.5q0 60 43.5 119.5t107.5 105.5zM109 1171v232h290v-232h-290z" />
    <glyph glyph-name="Idotaccent" unicode="&#x130;" horiz-adv-x="565" 
d="M147 0v1421h271v-1421h-271zM133 1556v232h297v-232h-297z" />
    <glyph glyph-name="dotlessi" unicode="&#x131;" horiz-adv-x="512" 
d="M127 1016h260v-1016h-260v1016z" />
    <glyph glyph-name="IJ" unicode="&#x132;" horiz-adv-x="1705" 
d="M147 0v1421h271v-1421h-271zM598 504v86h272v-78q0 -145 55 -219t158 -74q104 0 159.5 74.5t55.5 220.5v907h271v-907q0 -255 -121.5 -397t-364.5 -142q-241 0 -363 144t-122 385z" />
    <glyph glyph-name="ij" unicode="&#x133;" horiz-adv-x="1017" 
d="M385 0h-258v1016h258v-1016zM401 1171h-290v232h290v-232zM543 -375q-59 0 -111 8v217q25 -2 72 -2q127 0 127 158v1010h258v-1057q0 -165 -92.5 -249.5t-253.5 -84.5zM905 1171h-291v232h291v-232z" />
    <glyph glyph-name="Jcircumflex" unicode="&#x134;" horiz-adv-x="1159" 
d="M768 1815h244l188 -297h-182l-127 139l-127 -139h-184zM53 504v86h273v-78q0 -145 55 -219t158 -74q104 0 159.5 74.5t55.5 220.5v907h270v-907q0 -255 -121 -397t-364 -142q-241 0 -363.5 144t-122.5 385z" />
    <glyph glyph-name="jcircumflex" unicode="&#x135;" horiz-adv-x="512" 
d="M37 -375q-59 0 -111 8v217q25 -2 72 -2q127 0 127 158v1010h258v-1057q0 -165 -92.5 -249.5t-253.5 -84.5zM135 1421h244l188 -297h-182l-127 140l-127 -140h-184z" />
    <glyph glyph-name="Kcommaaccent" unicode="&#x136;" horiz-adv-x="1308" 
d="M793 -92v-182q0 -123 -70 -182.5t-213 -59.5v115q137 0 137 102v10h-123v197h269zM147 0v1421h271v-647l538 647h322l-494 -592l494 -829h-313l-369 621l-178 -203v-418h-271z" />
    <glyph glyph-name="kcommaaccent" unicode="&#x137;" horiz-adv-x="1060" 
d="M670 -92v-182q0 -123 -70 -182.5t-213 -59.5v115q137 0 137 102v10h-123v197h269zM385 0h-258v1421h258v-788l344 383h305l-360 -400l364 -616h-299l-258 444l-96 -108v-336z" />
    <glyph glyph-name="kgreenlandic" unicode="&#x138;" horiz-adv-x="1060" 
d="M674 616l364 -616h-299l-258 444l-96 -108v-336h-258v1016h258v-383l344 383h305z" />
    <glyph glyph-name="Lacute" unicode="&#x139;" horiz-adv-x="1093" 
d="M297 1815h266l-201 -297h-192zM147 0v1421h271v-1171h614v-250h-885z" />
    <glyph glyph-name="lacute" unicode="&#x13a;" horiz-adv-x="512" 
d="M266 1774h266l-200 -297h-193zM385 0h-258v1421h258v-1421z" />
    <glyph glyph-name="Lcommaaccent" unicode="&#x13b;" horiz-adv-x="1093" 
d="M717 -92v-182q0 -123 -70 -182.5t-213 -59.5v115q137 0 137 102v10h-122v197h268zM147 0v1421h271v-1171h614v-250h-885z" />
    <glyph glyph-name="lcommaaccent" unicode="&#x13c;" horiz-adv-x="512" 
d="M385 -92v-182q0 -123 -70 -182.5t-213 -59.5v115q138 0 138 102v10h-123v197h268zM385 0h-258v1421h258v-1421z" />
    <glyph glyph-name="Lcaron" unicode="&#x13d;" horiz-adv-x="1093" 
d="M686 1421h244l-156 -374h-170zM147 0v1421h271v-1171h614v-250h-885z" />
    <glyph glyph-name="lcaron" unicode="&#x13e;" horiz-adv-x="712" 
d="M543 1421h243l-155 -374h-170zM385 0h-258v1421h258v-1421z" />
    <glyph glyph-name="Ldot" unicode="&#x13f;" horiz-adv-x="1099" 
d="M147 0v1421h271v-1171h614v-250h-885zM670 612v293h293v-293h-293z" />
    <glyph glyph-name="ldot" unicode="&#x140;" horiz-adv-x="827" 
d="M385 0h-258v1421h258v-1421zM516 457v293h293v-293h-293z" />
    <glyph glyph-name="Lslash" unicode="&#x141;" horiz-adv-x="1132" 
d="M55 422v250l127 65v684h273v-549l223 119v-250l-223 -118v-373h614v-250h-887v487z" />
    <glyph glyph-name="lslash" unicode="&#x142;" horiz-adv-x="571" 
d="M156 1421h258v-596l110 66v-209l-110 -64v-618h-258v479l-109 -63v209l109 63v733z" />
    <glyph glyph-name="Nacute" unicode="&#x143;" horiz-adv-x="1429" 
d="M729 1815h266l-200 -297h-193zM1284 1421v-1421h-332l-540 1042v-1042h-265v1421h328l545 -1044v1044h264z" />
    <glyph glyph-name="nacute" unicode="&#x144;" horiz-adv-x="1087" 
d="M532 1421h267l-201 -297h-192zM969 0h-258v604q0 115 -37.5 167t-114.5 52q-85 0 -129.5 -68t-44.5 -173v-582h-258v1016h244v-146q102 166 282 166q154 0 235 -102.5t81 -282.5v-651z" />
    <glyph glyph-name="Ncommaaccent" unicode="&#x145;" horiz-adv-x="1429" 
d="M846 -92v-182q0 -123 -70 -182.5t-213 -59.5v115q137 0 137 102v10h-122v197h268zM1284 1421v-1421h-332l-540 1042v-1042h-265v1421h328l545 -1044v1044h264z" />
    <glyph glyph-name="ncommaaccent" unicode="&#x146;" horiz-adv-x="1087" 
d="M676 -92v-182q0 -123 -70 -182.5t-213 -59.5v115q137 0 137 102v10h-122v197h268zM969 0h-258v604q0 115 -37.5 167t-114.5 52q-85 0 -129.5 -68t-44.5 -173v-582h-258v1016h244v-146q102 166 282 166q154 0 235 -102.5t81 -282.5v-651z" />
    <glyph glyph-name="Ncaron" unicode="&#x147;" horiz-adv-x="1429" 
d="M838 1518h-244l-188 297h184l127 -140l127 140h182zM1284 1421v-1421h-332l-540 1042v-1042h-265v1421h328l545 -1044v1044h264z" />
    <glyph glyph-name="ncaron" unicode="&#x148;" horiz-adv-x="1087" 
d="M674 1124h-244l-188 297h184l127 -139l127 139h182zM969 0h-258v604q0 115 -37.5 167t-114.5 52q-85 0 -129.5 -68t-44.5 -173v-582h-258v1016h244v-146q102 166 282 166q154 0 235 -102.5t81 -282.5v-651z" />
    <glyph glyph-name="napostrophe" unicode="&#x149;" horiz-adv-x="1441" 
d="M352 1421v-299q0 -144 -78 -221.5t-227 -77.5v138q81 1 115.5 41.5t34.5 117.5v23h-125v278h280zM1323 0h-258v604q0 115 -37.5 167t-114.5 52q-85 0 -129.5 -68t-44.5 -173v-582h-258v1016h244v-146q102 166 283 166q154 0 234.5 -102t80.5 -283v-651z" />
    <glyph glyph-name="Eng" unicode="&#x14a;" horiz-adv-x="1431" 
d="M827 -367v217q25 -2 68 -2q131 0 131 144v8h-74l-540 1042v-1042h-265v1421h330l543 -1044v1044h264v-1462q0 -165 -92.5 -249.5t-253.5 -84.5q-56 0 -111 8z" />
    <glyph glyph-name="eng" unicode="&#x14b;" horiz-adv-x="1087" 
d="M969 651v-692q0 -165 -92.5 -249.5t-253.5 -84.5q-59 0 -111 8v217q25 -2 70 -2q129 0 129 158v596q0 117 -37 169t-113 52q-87 0 -131.5 -70.5t-44.5 -183.5v-569h-258v1016h244v-146q102 166 282 166q154 0 235 -102.5t81 -282.5z" />
    <glyph glyph-name="Omacron" unicode="&#x14c;" horiz-adv-x="1419" 
d="M956 1581h-493v184h493v-184zM362 711q0 -227 98 -361.5t251 -134.5q154 0 251 134.5t97 361.5t-96.5 361t-251.5 134q-154 0 -251.5 -134.5t-97.5 -360.5zM1343 711q0 -331 -174 -533.5t-458 -202.5t-458.5 202.5t-174.5 533.5q0 219 79 386t222.5 258t331.5 91
q284 0 458 -202t174 -533z" />
    <glyph glyph-name="omacron" unicode="&#x14d;" horiz-adv-x="1093" 
d="M793 1196h-494v184h494v-184zM547 -20q-210 0 -340.5 142.5t-130.5 385.5t130.5 385.5t340.5 142.5t340.5 -142.5t130.5 -385.5t-130.5 -385.5t-340.5 -142.5zM547 184q96 0 149.5 89t53.5 235t-53.5 234.5t-149.5 88.5q-97 0 -150 -88t-53 -235t53 -235.5t150 -88.5z
" />
    <glyph glyph-name="Obreve" unicode="&#x14e;" horiz-adv-x="1419" 
d="M362 711q0 -227 98 -361.5t251 -134.5q154 0 251 134.5t97 361.5t-96.5 361t-251.5 134q-154 0 -251.5 -134.5t-97.5 -360.5zM1343 711q0 -331 -174 -533.5t-458 -202.5t-458.5 202.5t-174.5 533.5q0 219 79 386t222.5 258t331.5 91q284 0 458 -202t174 -533zM707 1503
q-124 0 -201.5 83t-77.5 220h168q0 -52 29 -91.5t84 -39.5q54 0 82 39t28 92h170q0 -137 -77.5 -220t-204.5 -83z" />
    <glyph glyph-name="obreve" unicode="&#x14f;" horiz-adv-x="1093" 
d="M547 -20q-210 0 -340.5 142.5t-130.5 385.5t130.5 385.5t340.5 142.5t340.5 -142.5t130.5 -385.5t-130.5 -385.5t-340.5 -142.5zM547 184q96 0 149.5 89t53.5 235t-53.5 234.5t-149.5 88.5q-97 0 -150 -88t-53 -235t53 -235.5t150 -88.5zM545 1118q-124 0 -201.5 83
t-77.5 220h168q0 -52 29 -91.5t84 -39.5q54 0 82 39t28 92h170q0 -137 -77.5 -220t-204.5 -83z" />
    <glyph glyph-name="Ohungarumlaut" unicode="&#x150;" horiz-adv-x="1419" 
d="M592 1815h237l-194 -314h-168zM895 1815h240l-197 -314h-168zM362 711q0 -227 98 -361.5t251 -134.5q154 0 251 134.5t97 361.5t-96.5 361t-251.5 134q-154 0 -251.5 -134.5t-97.5 -360.5zM1343 711q0 -331 -174 -533.5t-458 -202.5t-458.5 202.5t-174.5 533.5
q0 219 79 386t222.5 258t331.5 91q284 0 458 -202t174 -533z" />
    <glyph glyph-name="ohungarumlaut" unicode="&#x151;" horiz-adv-x="1093" 
d="M426 1421h238l-195 -313h-168zM729 1421h240l-197 -313h-168zM547 -20q-210 0 -340.5 142.5t-130.5 385.5t130.5 385.5t340.5 142.5t340.5 -142.5t130.5 -385.5t-130.5 -385.5t-340.5 -142.5zM547 184q96 0 149.5 89t53.5 235t-53.5 234.5t-149.5 88.5q-97 0 -150 -88
t-53 -235t53 -235.5t150 -88.5z" />
    <glyph glyph-name="OE" unicode="&#x152;" horiz-adv-x="2107" 
d="M1059 0v135q-68 -76 -165 -118t-206 -42q-270 0 -440 203t-170 533t170 532.5t440 202.5q109 0 206 -43t165 -119v137h928v-247h-660v-330h596v-236h-596v-360h672v-248h-940zM362 711q0 -223 98 -359.5t251 -136.5q154 0 251 136t97 360t-97 359.5t-251 135.5
q-153 0 -251 -136t-98 -359z" />
    <glyph glyph-name="oe" unicode="&#x153;" horiz-adv-x="1738" 
d="M537 -20q-202 0 -331.5 143t-129.5 385t129.5 385t331.5 143q107 0 196 -46.5t146 -131.5q54 83 145 130.5t193 47.5q92 0 172 -34t141.5 -97.5t97 -164.5t35.5 -226q0 -2 -1 -40t-1 -42h-670q5 -110 60.5 -183t146.5 -73q68 0 115.5 39t60.5 115h273
q-28 -164 -149.5 -257t-287.5 -93q-97 0 -186 46.5t-145 131.5q-57 -85 -146 -131.5t-196 -46.5zM547 831q-97 0 -150 -89t-53 -234q0 -146 53 -235t150 -89q96 0 149.5 89.5t53.5 234.5t-53.5 234t-149.5 89zM995 614h400q-1 102 -56.5 165t-136.5 63q-83 0 -139.5 -62.5
t-67.5 -165.5z" />
    <glyph glyph-name="Racute" unicode="&#x154;" horiz-adv-x="1302" 
d="M659 1815h267l-201 -297h-193zM147 0v1421h566q231 0 354 -109.5t123 -318.5q0 -146 -67 -250.5t-179 -146.5l299 -596h-295l-272 543h-258v-543h-271zM907 977q0 107 -58.5 163t-164.5 56h-266v-426h266q107 0 165 51t58 156z" />
    <glyph glyph-name="racute" unicode="&#x155;" horiz-adv-x="741" 
d="M389 1421h266l-200 -297h-193zM385 0h-258v1016h244v-215q36 124 109 178.5t186 54.5h28v-268q-31 4 -90 4q-102 0 -160.5 -71.5t-58.5 -200.5v-498z" />
    <glyph glyph-name="Rcommaaccent" unicode="&#x156;" horiz-adv-x="1302" 
d="M791 -92v-182q0 -123 -70 -182.5t-213 -59.5v115q137 0 137 102v10h-123v197h269zM147 0v1421h566q231 0 354 -109.5t123 -318.5q0 -146 -67 -250.5t-179 -146.5l299 -596h-295l-272 543h-258v-543h-271zM907 977q0 107 -58.5 163t-164.5 56h-266v-426h266q107 0 165 51
t58 156z" />
    <glyph glyph-name="rcommaaccent" unicode="&#x157;" horiz-adv-x="741" 
d="M381 -92v-182q0 -123 -70 -182.5t-213 -59.5v115q138 0 138 102v10h-123v197h268zM385 0h-258v1016h244v-215q36 124 109 178.5t186 54.5h28v-268q-31 4 -90 4q-102 0 -160.5 -71.5t-58.5 -200.5v-498z" />
    <glyph glyph-name="Rcaron" unicode="&#x158;" horiz-adv-x="1302" 
d="M770 1518h-244l-188 297h184l127 -140l127 140h182zM147 0v1421h566q231 0 354 -109.5t123 -318.5q0 -146 -67 -250.5t-179 -146.5l299 -596h-295l-272 543h-258v-543h-271zM907 977q0 107 -58.5 163t-164.5 56h-266v-426h266q107 0 165 51t58 156z" />
    <glyph glyph-name="rcaron" unicode="&#x159;" horiz-adv-x="741" 
d="M516 1124h-244l-188 297h184l127 -139l127 139h183zM385 0h-258v1016h244v-215q36 124 109 178.5t186 54.5h28v-268q-31 4 -90 4q-102 0 -160.5 -71.5t-58.5 -200.5v-498z" />
    <glyph glyph-name="Sacute" unicode="&#x15a;" horiz-adv-x="1236" 
d="M616 1815h267l-201 -297h-193zM119 1024q0 181 134 301.5t363 120.5t367.5 -123t146.5 -330h-272q-6 112 -70 168t-172 56q-100 0 -163.5 -47t-63.5 -121q0 -123 172 -175l244 -69q159 -44 252.5 -141.5t93.5 -251.5q0 -190 -141 -313.5t-379 -123.5q-252 0 -393.5 126
t-155.5 352h274q11 -119 81 -183.5t194 -64.5q111 0 180.5 49.5t69.5 132.5q0 122 -172 174l-244 70q-160 44 -253 141t-93 252z" />
    <glyph glyph-name="sacute" unicode="&#x15b;" horiz-adv-x="1009" 
d="M514 1421h266l-200 -297h-193zM514 -20q-201 0 -314.5 91.5t-119.5 254.5h266q12 -160 168 -160q75 0 116.5 30.5t41.5 82.5q0 83 -111 104l-188 41q-127 27 -200 103t-73 192q0 144 111.5 230.5t286.5 86.5q174 0 287 -84.5t120 -242.5h-258q-4 70 -44 105.5t-107 35.5
q-72 0 -114 -29t-42 -76q0 -77 123 -102l190 -41q125 -27 197 -103.5t72 -191.5q0 -148 -112.5 -237.5t-295.5 -89.5z" />
    <glyph glyph-name="Scircumflex" unicode="&#x15c;" horiz-adv-x="1236" 
d="M481 1815h244l188 -297h-182l-127 139l-127 -139h-184zM119 1024q0 181 134 301.5t363 120.5t367.5 -123t146.5 -330h-272q-6 112 -70 168t-172 56q-100 0 -163.5 -47t-63.5 -121q0 -123 172 -175l244 -69q159 -44 252.5 -141.5t93.5 -251.5q0 -190 -141 -313.5
t-379 -123.5q-252 0 -393.5 126t-155.5 352h274q11 -119 81 -183.5t194 -64.5q111 0 180.5 49.5t69.5 132.5q0 122 -172 174l-244 70q-160 44 -253 141t-93 252z" />
    <glyph glyph-name="scircumflex" unicode="&#x15d;" horiz-adv-x="1009" 
d="M379 1421h244l188 -297h-182l-127 140l-127 -140h-185zM514 -20q-201 0 -314.5 91.5t-119.5 254.5h266q12 -160 168 -160q75 0 116.5 30.5t41.5 82.5q0 83 -111 104l-188 41q-127 27 -200 103t-73 192q0 144 111.5 230.5t286.5 86.5q174 0 287 -84.5t120 -242.5h-258
q-4 70 -44 105.5t-107 35.5q-72 0 -114 -29t-42 -76q0 -77 123 -102l190 -41q125 -27 197 -103.5t72 -191.5q0 -148 -112.5 -237.5t-295.5 -89.5z" />
    <glyph glyph-name="Scedilla" unicode="&#x15e;" horiz-adv-x="1236" 
d="M831 -225q-1 -89 -65 -136t-168 -47q-67 0 -137 25v131q80 -33 139 -33q41 0 62.5 17t21.5 43q0 49 -68 49q-37 0 -77 -21l-52 68l80 106q-224 17 -348.5 141t-136.5 335h274q11 -119 81 -183.5t194 -64.5q111 0 180.5 49.5t69.5 132.5q0 122 -172 174l-244 70
q-160 44 -253 141t-93 252q0 181 134 301.5t363 120.5t367.5 -123t146.5 -330h-272q-6 112 -70 168t-172 56q-100 0 -163.5 -47t-63.5 -121q0 -123 172 -175l244 -69q159 -44 252.5 -141.5t93.5 -251.5q0 -182 -130.5 -303.5t-352.5 -131.5l-39 -61q6 2 30 2q75 0 122 -34
t50 -109z" />
    <glyph glyph-name="scedilla" unicode="&#x15f;" horiz-adv-x="1009" 
d="M717 -225q-1 -89 -65.5 -136t-168.5 -47q-67 0 -137 25v131q80 -33 139 -33q41 0 62.5 17t21.5 43q0 49 -67 49q-38 0 -78 -21l-51 68l82 111q-174 13 -272 103.5t-103 240.5h272q6 -160 162 -160q75 0 116.5 30.5t41.5 82.5q0 83 -111 104l-188 41q-127 27 -200 103
t-73 192q0 144 111.5 230.5t286.5 86.5q174 0 287 -84.5t120 -242.5h-264q0 72 -38.5 106.5t-106.5 34.5q-72 0 -114 -29t-42 -76q0 -77 123 -102l190 -41q125 -27 197 -103.5t72 -191.5q0 -138 -100.5 -226t-264.5 -99l-43 -66q6 2 31 2q75 0 122 -34t50 -109z" />
    <glyph glyph-name="Scaron" unicode="&#x160;" horiz-adv-x="1236" 
d="M725 1518h-244l-188 297h184l127 -140l127 140h182zM119 1024q0 181 134 301.5t363 120.5t367.5 -123t146.5 -330h-272q-6 112 -70 168t-172 56q-100 0 -163.5 -47t-63.5 -121q0 -123 172 -175l244 -69q159 -44 252.5 -141.5t93.5 -251.5q0 -190 -141 -313.5t-379 -123.5
q-252 0 -393.5 126t-155.5 352h274q11 -119 81 -183.5t194 -64.5q111 0 180.5 49.5t69.5 132.5q0 122 -172 174l-244 70q-160 44 -253 141t-93 252z" />
    <glyph glyph-name="scaron" unicode="&#x161;" horiz-adv-x="1009" 
d="M623 1124h-244l-189 297h185l127 -139l127 139h182zM514 -20q-201 0 -314.5 91.5t-119.5 254.5h266q12 -160 168 -160q75 0 116.5 30.5t41.5 82.5q0 83 -111 104l-188 41q-127 27 -200 103t-73 192q0 144 111.5 230.5t286.5 86.5q174 0 287 -84.5t120 -242.5h-258
q-4 70 -44 105.5t-107 35.5q-72 0 -114 -29t-42 -76q0 -77 123 -102l190 -41q125 -27 197 -103.5t72 -191.5q0 -148 -112.5 -237.5t-295.5 -89.5z" />
    <glyph glyph-name="Tcommaaccent" unicode="&#x162;" horiz-adv-x="1163" 
d="M786 -225q-1 -89 -65 -136t-168 -47q-67 0 -137 25v131q80 -33 139 -33q41 0 62.5 17t21.5 43q0 49 -68 49q-37 0 -77 -21l-52 68l97 129h-93v1169h-401v252h1073v-252h-401v-1169h-78l-55 -84q6 2 30 2q75 0 122 -34t50 -109z" />
    <glyph glyph-name="tcommaaccent" unicode="&#x163;" horiz-adv-x="739" 
d="M584 -225q-1 -89 -65.5 -136t-168.5 -47q-67 0 -137 25v131q80 -33 139 -33q41 0 62.5 17t21.5 43q0 49 -67 49q-38 0 -78 -21l-51 68l100 135q-166 59 -166 301v488h-125v221h127v256h256v-256h227v-221h-227v-426q0 -80 27 -117t92 -37q59 0 108 12v-219
q-84 -20 -190 -20q-7 0 -21 1t-20 1l-47 -74q6 2 31 2q75 0 122 -34t50 -109z" />
    <glyph glyph-name="Tcaron" unicode="&#x164;" horiz-adv-x="1163" 
d="M700 1518h-243l-189 297h185l127 -140l127 140h182zM1116 1421v-252h-401v-1169h-271v1169h-401v252h1073z" />
    <glyph glyph-name="tcaron" unicode="&#x165;" horiz-adv-x="739" 
d="M584 1524h243l-155 -375h-170zM469 -12q-295 0 -295 319v488h-125v221h127v256h256v-256h227v-221h-227v-426q0 -80 27 -117t92 -37q59 0 108 12v-219q-84 -20 -190 -20z" />
    <glyph glyph-name="Tbar" unicode="&#x166;" horiz-adv-x="1163" 
d="M45 1169v252h1073v-252h-399v-370h201v-230h-201v-569h-273v569h-200v230h200v370h-401z" />
    <glyph glyph-name="tbar" unicode="&#x167;" horiz-adv-x="751" 
d="M57 795v221h127v256h256v-256h228v-221h-228v-150h189v-180h-189v-96q0 -80 27 -117t92 -37q57 0 109 12v-219q-87 -20 -191 -20q-295 0 -295 319v158h-123v180h123v150h-125z" />
    <glyph glyph-name="Utilde" unicode="&#x168;" horiz-adv-x="1327" 
d="M664 -25q-249 0 -392 137t-143 408v901h270v-901q0 -146 71 -225.5t194 -79.5t193.5 79.5t70.5 225.5v901h270v-901q0 -270 -143 -407.5t-391 -137.5zM799 1534q-44 0 -129 47t-101 47q-39 0 -39 -90h-161q0 62 7.5 109t25.5 86.5t50.5 60.5t79.5 21q43 0 128 -47.5
t100 -47.5q41 0 41 90h160q0 -62 -7.5 -109t-25 -86t-50 -60t-79.5 -21z" />
    <glyph glyph-name="utilde" unicode="&#x169;" horiz-adv-x="1075" 
d="M950 0h-245v145q-98 -165 -279 -165q-150 0 -228.5 102.5t-78.5 282.5v651h260v-600q0 -119 34.5 -171t106.5 -52q84 0 128 68.5t44 178.5v576h258v-1016zM668 1149q-44 0 -129 47t-101 47q-39 0 -39 -90h-161q0 62 7.5 109t25.5 86.5t50.5 60.5t79.5 21q43 0 128 -47.5
t100 -47.5q41 0 41 90h159q0 -84 -12.5 -141.5t-49.5 -96t-99 -38.5z" />
    <glyph glyph-name="Umacron" unicode="&#x16a;" horiz-adv-x="1327" 
d="M664 -25q-249 0 -392 137t-143 408v901h270v-901q0 -146 71 -225.5t194 -79.5t193.5 79.5t70.5 225.5v901h270v-901q0 -270 -143 -407.5t-391 -137.5zM911 1581h-493v184h493v-184z" />
    <glyph glyph-name="umacron" unicode="&#x16b;" horiz-adv-x="1075" 
d="M950 0h-245v145q-98 -165 -279 -165q-150 0 -228.5 102.5t-78.5 282.5v651h260v-600q0 -119 34.5 -171t106.5 -52q84 0 128 68.5t44 178.5v576h258v-1016zM780 1196h-493v184h493v-184z" />
    <glyph glyph-name="Ubreve" unicode="&#x16c;" horiz-adv-x="1327" 
d="M664 -25q-249 0 -392 137t-143 408v901h270v-901q0 -146 71 -225.5t194 -79.5t193.5 79.5t70.5 225.5v901h270v-901q0 -270 -143 -407.5t-391 -137.5zM662 1503q-124 0 -201.5 83t-77.5 220h168q0 -52 29 -91.5t84 -39.5q54 0 82 39t28 92h170q0 -137 -77.5 -220
t-204.5 -83z" />
    <glyph glyph-name="ubreve" unicode="&#x16d;" horiz-adv-x="1075" 
d="M950 0h-245v145q-98 -165 -279 -165q-150 0 -228.5 102.5t-78.5 282.5v651h260v-600q0 -119 34.5 -171t106.5 -52q84 0 128 68.5t44 178.5v576h258v-1016zM530 1118q-124 0 -201 83t-77 220h168q0 -53 28.5 -92t83.5 -39q54 0 82.5 39t28.5 92h170q0 -137 -78 -220
t-205 -83z" />
    <glyph glyph-name="Uring" unicode="&#x16e;" horiz-adv-x="1327" 
d="M424 1704q0 98 70 166.5t170 68.5t169.5 -68.5t69.5 -166.5q0 -97 -69.5 -164t-169.5 -67t-170 67t-70 164zM557 1704q0 -46 30.5 -77.5t76.5 -31.5t77 31.5t31 77.5q0 49 -31 82t-77 33t-76.5 -33t-30.5 -82zM664 -25q-249 0 -392 137t-143 408v901h270v-901
q0 -146 71 -225.5t194 -79.5t193.5 79.5t70.5 225.5v901h270v-901q0 -270 -143 -407.5t-391 -137.5z" />
    <glyph glyph-name="uring" unicode="&#x16f;" horiz-adv-x="1075" 
d="M293 1319q0 98 69.5 166.5t169.5 68.5t170 -68.5t70 -166.5q0 -97 -70 -164.5t-170 -67.5t-169.5 67.5t-69.5 164.5zM426 1319q0 -46 30.5 -77.5t75.5 -31.5q46 0 77.5 31.5t31.5 77.5q0 49 -31.5 82t-77.5 33t-76 -32.5t-30 -82.5zM950 0h-245v145q-98 -165 -279 -165
q-150 0 -228.5 102.5t-78.5 282.5v651h260v-600q0 -119 34.5 -171t106.5 -52q84 0 128 68.5t44 178.5v576h258v-1016z" />
    <glyph glyph-name="Uhungarumlaut" unicode="&#x170;" horiz-adv-x="1327" 
d="M664 -25q-249 0 -392 137t-143 408v901h270v-901q0 -146 71 -225.5t194 -79.5t193.5 79.5t70.5 225.5v901h270v-901q0 -270 -143 -407.5t-391 -137.5zM545 1815h237l-194 -314h-168zM848 1815h239l-196 -314h-168z" />
    <glyph glyph-name="uhungarumlaut" unicode="&#x171;" horiz-adv-x="1075" 
d="M950 0h-245v145q-98 -165 -279 -165q-150 0 -228.5 102.5t-78.5 282.5v651h260v-600q0 -119 34.5 -171t106.5 -52q84 0 128 68.5t44 178.5v576h258v-1016zM414 1421h237l-194 -313h-168zM717 1421h239l-196 -313h-168z" />
    <glyph glyph-name="Uogonek" unicode="&#x172;" horiz-adv-x="1327" 
d="M696 -383q-84 0 -135 42.5t-51 115.5q0 89 108 205q-230 11 -359.5 147t-129.5 393v901h270v-901q0 -146 71 -225.5t194 -79.5t193.5 79.5t70.5 225.5v901h270v-901q0 -244 -116.5 -378t-325.5 -158q-74 -99 -74 -150q0 -31 19.5 -48t48.5 -17q46 0 96 20v-147
q-19 -8 -66 -16.5t-84 -8.5z" />
    <glyph glyph-name="uogonek" unicode="&#x173;" horiz-adv-x="1075" 
d="M705 0v145q-98 -165 -279 -165q-150 0 -228.5 102.5t-78.5 282.5v651h260v-600q0 -119 34.5 -171t106.5 -52q84 0 128 68.5t44 178.5v576h258v-1016h-116q-86 -106 -86 -166q0 -31 18 -48t47 -17q44 0 98 20v-147q-21 -8 -67 -16.5t-82 -8.5q-86 0 -137.5 42.5
t-51.5 115.5q0 93 132 225z" />
    <glyph glyph-name="Wcircumflex" unicode="&#x174;" horiz-adv-x="1867" 
d="M811 1815h244l188 -297h-182l-127 139l-127 -139h-184zM934 1083l-242 -1083h-315l-328 1421h264l236 -1073l227 1073h320l229 -1073l234 1073h262l-328 -1421h-315z" />
    <glyph glyph-name="wcircumflex" unicode="&#x175;" horiz-adv-x="1511" 
d="M629 1421h243l189 -297h-182l-127 140l-127 -140h-185zM1208 0h-290l-162 707l-164 -707h-289l-266 1016h268l164 -713l158 713h260l157 -713l166 713h265z" />
    <glyph glyph-name="Ycircumflex" unicode="&#x176;" horiz-adv-x="1247" 
d="M485 0v526l-475 895h307l310 -596l309 596h301l-481 -901v-520h-271zM504 1815h244l188 -297h-182l-127 139l-127 -139h-185z" />
    <glyph glyph-name="ycircumflex" unicode="&#x177;" horiz-adv-x="1013" 
d="M246 -377q-82 0 -131 8v211q39 -4 92 -4q61 0 97.5 24t53.5 79l7 20l-336 1055h270l213 -760l213 760h264l-344 -1098q-33 -105 -100 -173.5t-141 -95t-158 -26.5zM379 1421h244l188 -297h-182l-127 140l-127 -140h-185z" />
    <glyph glyph-name="Ydieresis" unicode="&#x178;" horiz-adv-x="1247" 
d="M485 0v526l-475 895h307l310 -596l309 596h301l-481 -901v-520h-271zM322 1556v232h235v-232h-235zM690 1556v232h236v-232h-236z" />
    <glyph glyph-name="Zacute" unicode="&#x179;" horiz-adv-x="1191" 
d="M610 1815h267l-201 -297h-193zM119 1421h958v-225l-651 -950h682v-246h-1024v225l653 951h-618v245z" />
    <glyph glyph-name="zacute" unicode="&#x17a;" horiz-adv-x="944" 
d="M492 1421h266l-201 -297h-192zM864 0h-790v199l458 596h-436v221h758v-199l-463 -596h473v-221z" />
    <glyph glyph-name="Zdotaccent" unicode="&#x17b;" horiz-adv-x="1191" 
d="M119 1421h958v-225l-651 -950h682v-246h-1024v225l653 951h-618v245zM451 1556v232h297v-232h-297z" />
    <glyph glyph-name="zdotaccent" unicode="&#x17c;" horiz-adv-x="944" 
d="M864 0h-790v199l458 596h-436v221h758v-199l-463 -596h473v-221zM330 1171v232h297v-232h-297z" />
    <glyph glyph-name="Zcaron" unicode="&#x17d;" horiz-adv-x="1191" 
d="M719 1518h-244l-188 297h184l127 -140l127 140h182zM119 1421h958v-225l-651 -950h682v-246h-1024v225l653 951h-618v245z" />
    <glyph glyph-name="zcaron" unicode="&#x17e;" horiz-adv-x="944" 
d="M600 1124h-244l-188 297h184l127 -139l127 139h182zM864 0h-790v199l458 596h-436v221h758v-199l-463 -596h473v-221z" />
    <glyph glyph-name="florin" unicode="&#x192;" horiz-adv-x="792" 
d="M256 803v299q0 173 90.5 256.5t251.5 83.5q55 0 141 -12v-216q-52 9 -90 9q-72 0 -103.5 -33t-31.5 -115v-272h205v-221h-205v-623q0 -165 -92.5 -249.5t-253.5 -84.5q-59 0 -111 8v217q25 -2 72 -2q127 0 127 158v576h-152v221h152z" />
    <glyph glyph-name="uni01B5" unicode="&#x1b5;" horiz-adv-x="1191" 
d="M119 1421h958v-225l-260 -375h141v-221h-290l-240 -354h680v-246h-1024v225l262 375h-139v221h289l241 355h-618v245z" />
    <glyph glyph-name="uni01B6" unicode="&#x1b6;" horiz-adv-x="944" 
d="M102 1016h752v-172l-201 -264h99v-146h-215l-168 -227h495v-207h-790v186l186 248h-96v146h215l170 227h-447v209z" />
    <glyph glyph-name="Aringacute" unicode="&#x1fa;" horiz-adv-x="1357" 
d="M438 1530q0 59 35 127l160 297h231l-180 -191h10q94 -6 159 -73t65 -160q0 -87 -54 -148l451 -1382h-279l-94 309h-524l-94 -309h-281l449 1382q-24 26 -39 67t-15 81zM680 1165l-193 -624h383zM571 1530q0 -46 30.5 -77.5t76.5 -31.5t77 31.5t31 77.5q0 49 -31 82
t-77 33t-76.5 -33t-30.5 -82z" />
    <glyph glyph-name="aringacute" unicode="&#x1fb;" horiz-adv-x="1052" 
d="M938 0h-238v152q-47 -87 -130 -129.5t-181 -42.5q-144 0 -228.5 76.5t-84.5 211.5q0 133 86 216.5t225 109.5l297 55v43q0 84 -42 121t-122 37q-141 0 -153 -141h-258q6 154 116.5 240.5t294.5 86.5q200 0 309 -92t109 -278v-666zM463 172q94 0 157.5 63.5t63.5 186.5v45
l-203 -37q-79 -14 -117 -51.5t-38 -89.5q0 -54 36.5 -85.5t100.5 -31.5zM283 1319q0 55 32 117l162 305h232l-181 -191q4 2 13 2q93 -8 157 -74.5t64 -158.5q0 -97 -70 -164.5t-170 -67.5t-169.5 67.5t-69.5 164.5zM416 1319q0 -47 30 -79t76 -32t77.5 32t31.5 79t-31.5 81
t-77.5 34q-45 0 -75.5 -33.5t-30.5 -81.5z" />
    <glyph glyph-name="AEacute" unicode="&#x1fc;" horiz-adv-x="1949" 
d="M1208 1806h267l-201 -297h-193zM741 1421h1090v-247h-662v-330h598v-238h-598v-358h674v-248h-944v309h-485l-172 -309h-291zM543 541h356v639z" />
    <glyph glyph-name="aeacute" unicode="&#x1fd;" horiz-adv-x="1673" 
d="M854 1421h266l-200 -297h-193zM479 614h205v80q0 156 -164 156q-146 0 -149 -141h-265q6 153 116 240t294 87q230 0 322 -143q116 143 319 143q198 0 318 -139.5t120 -382.5q0 -2 -1 -40t-1 -42h-669q5 -112 59.5 -184t146.5 -72q67 0 115 38t62 116h272
q-30 -165 -151.5 -257.5t-286.5 -92.5q-110 0 -202.5 51t-143.5 141q-54 -90 -150 -141t-225 -51q-164 0 -254 79t-90 220q0 158 106.5 246.5t296.5 88.5zM684 420v12h-172q-92 0 -139 -37t-47 -104q0 -55 38 -87t109 -32q91 0 151 63.5t60 184.5zM928 614h399
q-4 106 -58 167t-134 61q-84 0 -139.5 -61.5t-67.5 -166.5z" />
    <glyph glyph-name="Oslashacute" unicode="&#x1fe;" horiz-adv-x="1439" 
d="M721 -25q-183 0 -320 84l-75 -112h-240l164 243q-162 202 -162 521q0 219 79 386t222.5 258t331.5 91q174 0 317 -84l76 111h242l-164 -244q162 -202 162 -518q0 -331 -174.5 -533.5t-458.5 -202.5zM1079 711q0 159 -51 276l-485 -719q77 -53 178 -53q159 0 258.5 134.5
t99.5 361.5zM362 711q0 -159 52 -279l483 719q-80 55 -176 55q-158 0 -258.5 -134.5t-100.5 -360.5zM735 1815h266l-200 -297h-193z" />
    <glyph glyph-name="oslashacute" unicode="&#x1ff;" horiz-adv-x="1105" 
d="M553 -20q-121 0 -217 47l-51 -80h-193l117 180q-127 143 -127 381q0 243 130.5 385.5t340.5 142.5q113 0 213 -49l53 82h195l-117 -180q127 -146 127 -381q0 -243 -130.5 -385.5t-340.5 -142.5zM776 508q0 86 -22 160l-301 -461q43 -27 100 -27q104 0 163.5 90.5
t59.5 237.5zM330 508q0 -89 22 -160l299 461q-49 27 -98 27q-105 0 -164 -90t-59 -238zM559 1421h266l-200 -297h-193z" />
    <glyph glyph-name="Scommaaccent" unicode="&#x218;" horiz-adv-x="1236" 
d="M754 -92v-182q0 -123 -70 -182.5t-213 -59.5v115q137 0 137 102v10h-123v197h269zM119 1024q0 181 134 301.5t363 120.5t367.5 -123t146.5 -330h-272q-6 112 -70 168t-172 56q-100 0 -163.5 -47t-63.5 -121q0 -123 172 -175l244 -69q159 -44 252.5 -141.5t93.5 -251.5
q0 -190 -141 -313.5t-379 -123.5q-252 0 -393.5 126t-155.5 352h274q11 -119 81 -183.5t194 -64.5q111 0 180.5 49.5t69.5 132.5q0 122 -172 174l-244 70q-160 44 -253 141t-93 252z" />
    <glyph glyph-name="scommaaccent" unicode="&#x219;" horiz-adv-x="1009" 
d="M641 -92v-182q0 -123 -70 -182.5t-213 -59.5v115q138 0 138 102v10h-123v197h268zM514 -20q-201 0 -314.5 91.5t-119.5 254.5h266q12 -160 168 -160q75 0 116.5 30.5t41.5 82.5q0 83 -111 104l-188 41q-127 27 -200 103t-73 192q0 144 111.5 230.5t286.5 86.5
q174 0 287 -84.5t120 -242.5h-258q-4 70 -44 105.5t-107 35.5q-72 0 -114 -29t-42 -76q0 -77 123 -102l190 -41q125 -27 197 -103.5t72 -191.5q0 -148 -112.5 -237.5t-295.5 -89.5z" />
    <glyph glyph-name="uni021A" unicode="&#x21a;" horiz-adv-x="1163" 
d="M709 -92v-182q0 -123 -70 -182.5t-213 -59.5v115q137 0 137 102v10h-123v197h269zM1116 1421v-252h-401v-1169h-271v1169h-401v252h1073z" />
    <glyph glyph-name="uni021B" unicode="&#x21b;" horiz-adv-x="739" 
d="M524 -92v-182q0 -123 -69.5 -182.5t-212.5 -59.5v115q137 0 137 102v10h-123v197h268zM469 -12q-295 0 -295 319v488h-125v221h127v256h256v-256h227v-221h-227v-426q0 -80 27 -117t92 -37q59 0 108 12v-219q-84 -20 -190 -20z" />
    <glyph glyph-name="dotlessj" unicode="&#x237;" horiz-adv-x="512" 
d="M37 -375q-59 0 -111 8v217q25 -2 72 -2q127 0 127 158v1010h258v-1057q0 -165 -92.5 -249.5t-253.5 -84.5z" />
    <glyph glyph-name="circumflex" unicode="&#x2c6;" horiz-adv-x="718" 
d="M238 1421h243l189 -297h-183l-127 140l-127 -140h-184z" />
    <glyph glyph-name="caron" unicode="&#x2c7;" horiz-adv-x="718" 
d="M481 1124h-243l-189 297h184l127 -139l127 139h183z" />
    <glyph glyph-name="breve" unicode="&#x2d8;" horiz-adv-x="669" 
d="M332 1118q-124 0 -201.5 83t-77.5 220h168q0 -52 29 -91.5t84 -39.5q54 0 82 39t28 92h170q0 -137 -77.5 -220t-204.5 -83z" />
    <glyph glyph-name="dotaccent" unicode="&#x2d9;" horiz-adv-x="477" 
d="M90 1171v232h297v-232h-297z" />
    <glyph glyph-name="ring" unicode="&#x2da;" horiz-adv-x="575" 
d="M47 1319q0 98 70 166.5t170 68.5t169.5 -68.5t69.5 -166.5q0 -97 -69.5 -164.5t-169.5 -67.5t-170 67.5t-70 164.5zM180 1319q0 -46 30.5 -77.5t76.5 -31.5t77 31.5t31 77.5q0 49 -31 82t-77 33t-76.5 -33t-30.5 -82z" />
    <glyph glyph-name="ogonek" unicode="&#x2db;" horiz-adv-x="452" 
d="M225 29h123q-108 -124 -108 -195q0 -31 19 -48t48 -17q46 0 96 20v-147q-19 -8 -65.5 -16.5t-83.5 -8.5q-84 0 -135 42.5t-51 115.5q0 106 157 254z" />
    <glyph glyph-name="tilde" unicode="&#x2dc;" horiz-adv-x="714" 
d="M492 1149q-44 0 -129 47t-101 47q-39 0 -39 -90h-162q0 277 164 277q43 0 128 -47.5t100 -47.5q41 0 41 90h159q0 -84 -12.5 -141.5t-49.5 -96t-99 -38.5z" />
    <glyph glyph-name="hungarumlaut" unicode="&#x2dd;" horiz-adv-x="765" 
d="M193 1421h237l-194 -313h-168zM496 1421h239l-196 -313h-168z" />
    <glyph glyph-name="pi" unicode="&#x3c0;" horiz-adv-x="1148" 
d="M1083 795h-122v-795h-259v795h-253v-795h-259v795h-124v221h1017v-221z" />
    <glyph glyph-name="Wgrave" unicode="&#x1e80;" horiz-adv-x="1867" 
d="M934 1083l-242 -1083h-315l-328 1421h264l236 -1073l227 1073h320l229 -1073l234 1073h262l-328 -1421h-315zM657 1815h265l127 -297h-193z" />
    <glyph glyph-name="wgrave" unicode="&#x1e81;" horiz-adv-x="1511" 
d="M1208 0h-290l-162 707l-164 -707h-289l-266 1016h268l164 -713l158 713h260l157 -713l166 713h265zM475 1421h264l127 -297h-192z" />
    <glyph glyph-name="Wacute" unicode="&#x1e82;" horiz-adv-x="1867" 
d="M946 1815h266l-200 -297h-193zM934 1083l-242 -1083h-315l-328 1421h264l236 -1073l227 1073h320l229 -1073l234 1073h262l-328 -1421h-315z" />
    <glyph glyph-name="wacute" unicode="&#x1e83;" horiz-adv-x="1511" 
d="M764 1421h266l-201 -297h-192zM1208 0h-290l-162 707l-164 -707h-289l-266 1016h268l164 -713l158 713h260l157 -713l166 713h265z" />
    <glyph glyph-name="Wdieresis" unicode="&#x1e84;" horiz-adv-x="1867" 
d="M631 1556v232h235v-232h-235zM999 1556v232h236v-232h-236zM934 1083l-242 -1083h-315l-328 1421h264l236 -1073l227 1073h320l229 -1073l234 1073h262l-328 -1421h-315z" />
    <glyph glyph-name="wdieresis" unicode="&#x1e85;" horiz-adv-x="1511" 
d="M446 1171v232h236v-232h-236zM815 1171v232h236v-232h-236zM1208 0h-290l-162 707l-164 -707h-289l-266 1016h268l164 -713l158 713h260l157 -713l166 713h265z" />
    <glyph glyph-name="uni1E8A" unicode="&#x1e8a;" horiz-adv-x="1280" 
d="M344 0h-311l448 709l-440 712h311l287 -483l291 483h307l-436 -710l444 -711h-311l-293 489zM492 1544v232h296v-232h-296z" />
    <glyph glyph-name="uni1E8B" unicode="&#x1e8b;" horiz-adv-x="1036" 
d="M999 0h-284l-197 328l-192 -328h-287l319 510l-319 506h289l190 -320l193 320h282l-315 -504zM371 1171v232h297v-232h-297z" />
    <glyph glyph-name="Ygrave" unicode="&#x1ef2;" horiz-adv-x="1247" 
d="M485 0v526l-475 895h307l310 -596l309 596h301l-481 -901v-520h-271zM350 1815h264l127 -297h-192z" />
    <glyph glyph-name="ygrave" unicode="&#x1ef3;" horiz-adv-x="1013" 
d="M246 -377q-82 0 -131 8v211q39 -4 92 -4q61 0 97.5 24t53.5 79l7 20l-336 1055h270l213 -760l213 760h264l-344 -1098q-33 -105 -100 -173.5t-141 -95t-158 -26.5zM225 1421h264l127 -297h-192z" />
    <glyph glyph-name="endash" unicode="&#x2013;" horiz-adv-x="956" 
d="M76 467v170h805v-170h-805z" />
    <glyph glyph-name="emdash" unicode="&#x2014;" horiz-adv-x="1904" 
d="M76 467v170h1753v-170h-1753z" />
    <glyph glyph-name="quoteleft" unicode="&#x2018;" horiz-adv-x="507" 
d="M106 840v299q0 143 79 221t229 78v-135q-83 -3 -117.5 -43t-34.5 -119v-21h127v-280h-283z" />
    <glyph glyph-name="quoteright" unicode="&#x2019;" horiz-adv-x="507" 
d="M401 1421v-299q0 -144 -78 -221.5t-227 -77.5v138q81 1 115.5 41.5t34.5 117.5v23h-125v278h280z" />
    <glyph glyph-name="quotesinglbase" unicode="&#x201a;" horiz-adv-x="507" 
d="M401 279v-299q0 -142 -78 -219.5t-227 -77.5v135q82 3 116 43t34 119v20h-125v279h280z" />
    <glyph glyph-name="quotedblleft" unicode="&#x201c;" horiz-adv-x="927" 
d="M106 840v299q0 143 79 221t229 78v-135q-83 -3 -117.5 -43t-34.5 -119v-21h127v-280h-283zM526 840v299q0 143 79 221t229 78v-135q-83 -3 -116.5 -43t-33.5 -119v-21h125v-280h-283z" />
    <glyph glyph-name="quotedblright" unicode="&#x201d;" horiz-adv-x="927" 
d="M823 1421v-299q0 -144 -78.5 -221.5t-228.5 -77.5v138q81 1 115.5 41.5t34.5 117.5v23h-125v278h282zM401 1421v-299q0 -144 -78 -221.5t-227 -77.5v138q81 1 115.5 41.5t34.5 117.5v23h-125v278h280z" />
    <glyph glyph-name="quotedblbase" unicode="&#x201e;" horiz-adv-x="927" 
d="M823 279v-299q0 -142 -78.5 -219.5t-228.5 -77.5v135q82 3 116 43t34 119v20h-125v279h282zM401 279v-299q0 -142 -78 -219.5t-227 -77.5v135q82 3 116 43t34 119v20h-125v279h280z" />
    <glyph glyph-name="dagger" unicode="&#x2020;" horiz-adv-x="784" 
d="M698 1155v-166h-221v-471h-170v471h-221v166h221v266h170v-266h221z" />
    <glyph glyph-name="daggerdbl" unicode="&#x2021;" horiz-adv-x="804" 
d="M709 823v-168h-222v-268h-172v268h-219v168h219v164h-219v168h219v266h172v-266h222v-168h-222v-164h222z" />
    <glyph glyph-name="bullet" unicode="&#x2022;" horiz-adv-x="784" 
d="M137 594q0 106 75 181t181 75t181 -75t75 -181t-75 -181t-181 -75t-181 75t-75 181z" />
    <glyph glyph-name="ellipsis" unicode="&#x2026;" horiz-adv-x="1509" 
d="M137 0v293h293v-293h-293zM608 0v293h293v-293h-293zM1079 0v293h293v-293h-293z" />
    <glyph glyph-name="perthousand" unicode="&#x2030;" horiz-adv-x="2240" 
d="M487 0h-176l770 1421h176zM276 1079q0 -95 33 -148.5t92 -53.5q62 0 96.5 53.5t34.5 148.5q0 94 -35 148.5t-96 54.5q-58 0 -91.5 -54.5t-33.5 -148.5zM715 1079q0 -88 -26.5 -159t-71.5 -114t-100 -66t-116 -23q-126 0 -217.5 95t-91.5 267t91.5 267.5t217.5 95.5
q61 0 116 -23t100 -66.5t71.5 -114.5t26.5 -159zM1040 340q0 -95 34 -149t93 -54q61 0 95 53.5t34 149.5t-34 149.5t-95 53.5q-59 0 -93 -54t-34 -149zM1479 340q0 -173 -92 -268t-220 -95q-60 0 -114.5 23t-98.5 66.5t-70 114.5t-26 159t26 159t70 114t98.5 66t114.5 23
q128 0 220 -94.5t92 -267.5zM1745 340q0 -95 34.5 -149t94.5 -54q61 0 95 53.5t34 149.5t-34 149.5t-95 53.5q-60 0 -94.5 -54t-34.5 -149zM2185 340q0 -173 -91.5 -268t-219.5 -95q-60 0 -114.5 23t-99 66.5t-71 114.5t-26.5 159t26.5 159t71 114t99 66t114.5 23
q128 0 219.5 -94.5t91.5 -267.5z" />
    <glyph glyph-name="guilsinglleft" unicode="&#x2039;" horiz-adv-x="647" 
d="M332 479l205 -409h-207l-236 409l236 410h207z" />
    <glyph glyph-name="guilsinglright" unicode="&#x203a;" horiz-adv-x="647" 
d="M111 70l204 409l-204 410h206l236 -410l-236 -409h-206z" />
    <glyph glyph-name="fraction" unicode="&#x2044;" horiz-adv-x="339" 
d="M-377 0l922 1421h174l-920 -1421h-176z" />
    <glyph glyph-name="uni2070" unicode="&#x2070;" horiz-adv-x="698" 
d="M348 641q-129 0 -211 97t-82 302q0 203 82 299.5t211 96.5q62 0 114 -22t94 -67.5t65.5 -124t23.5 -182.5q0 -204 -83 -301.5t-214 -97.5zM348 786q50 0 77.5 57.5t27.5 196.5q0 137 -27.5 193.5t-77.5 56.5q-102 0 -102 -250q0 -254 102 -254z" />
    <glyph glyph-name="uni2074" unicode="&#x2074;" horiz-adv-x="694" 
d="M555 655h-176v148h-336v149l309 469h203v-475h84v-143h-84v-148zM379 946v279l-176 -279h176z" />
    <glyph glyph-name="uni2075" unicode="&#x2075;" horiz-adv-x="667" 
d="M338 641q-137 0 -209 63.5t-74 172.5h183q3 -45 29 -73t65 -28q45 0 72.5 35.5t27.5 91.5t-27 89.5t-69 33.5q-70 0 -92 -72h-166l37 467h442v-155h-287l-16 -158q48 51 139 51q95 0 158 -68.5t63 -179.5q0 -119 -72 -194.5t-204 -75.5z" />
    <glyph glyph-name="uni2076" unicode="&#x2076;" horiz-adv-x="677" 
d="M350 641q-137 0 -216 100t-79 293q0 199 78.5 300.5t220.5 101.5q115 0 185.5 -60t78.5 -157h-186q-6 36 -26 56.5t-52 20.5q-112 0 -112 -223q58 86 157 86q98 0 162 -67.5t64 -186.5q0 -121 -80 -192.5t-195 -71.5zM350 774q43 0 67.5 35.5t24.5 91.5t-24.5 90.5
t-69.5 34.5q-42 0 -67 -36t-25 -89q0 -55 25.5 -91t68.5 -36z" />
    <glyph glyph-name="uni2077" unicode="&#x2077;" horiz-adv-x="579" 
d="M41 1255v166h496v-157l-236 -609h-195l236 600h-301z" />
    <glyph glyph-name="uni2078" unicode="&#x2078;" horiz-adv-x="700" 
d="M350 641q-136 0 -213.5 62t-77.5 171q0 61 37 110.5t101 72.5q-50 20 -81.5 65.5t-31.5 96.5q0 97 73 157t193 60t194 -60t74 -157q0 -51 -31.5 -96.5t-82.5 -65.5q64 -23 100.5 -72.5t36.5 -110.5q0 -109 -77 -171t-214 -62zM350 772q45 0 73 31.5t28 79.5
q0 45 -28 74.5t-73 29.5t-71.5 -29.5t-26.5 -74.5q0 -48 26.5 -79.5t71.5 -31.5zM350 1110q41 0 64.5 26t23.5 70q0 42 -24 69.5t-64 27.5q-39 0 -62.5 -27.5t-23.5 -69.5q0 -44 23 -70t63 -26z" />
    <glyph glyph-name="uni2079" unicode="&#x2079;" horiz-adv-x="677" 
d="M328 1436q137 0 216 -100.5t79 -293.5q0 -199 -78.5 -300t-220.5 -101q-115 0 -186 60t-77 157h185q6 -36 26 -57t52 -21q112 0 112 224q-58 -86 -157 -86q-98 0 -162 67t-64 186q0 122 80 193.5t195 71.5zM328 1303q-43 0 -67.5 -35.5t-24.5 -91.5t24.5 -90.5
t69.5 -34.5q42 0 67 36t25 89q0 55 -25.5 91t-68.5 36z" />
    <glyph glyph-name="parenleft.sups" unicode="&#x207d;" horiz-adv-x="471" 
d="M276 1040q3 -238 142 -448h-178q-148 216 -148 448q0 234 148 447h178q-139 -214 -142 -447z" />
    <glyph glyph-name="parenright.sups" unicode="&#x207e;" horiz-adv-x="471" 
d="M201 1040q-3 240 -144 447h181q145 -204 145 -447q0 -241 -145 -448h-181q141 204 144 448z" />
    <glyph glyph-name="uni2080" unicode="&#x2080;" horiz-adv-x="698" 
d="M350 -238q-130 0 -211.5 96.5t-81.5 301.5q0 203 82 300t211 97q131 0 214 -96.5t83 -300.5t-83 -301t-214 -97zM350 -92q50 0 77.5 56.5t27.5 195.5q0 252 -105 252q-102 0 -102 -252t102 -252z" />
    <glyph glyph-name="uni2081" unicode="&#x2081;" horiz-adv-x="542" 
d="M430 -225h-190v571l-156 -113v187l164 121h182v-766z" />
    <glyph glyph-name="uni2082" unicode="&#x2082;" horiz-adv-x="653" 
d="M66 -225v149l288 281q56 63 56 121q0 39 -22 63.5t-58 24.5q-40 0 -62 -32t-22 -89h-187q-2 118 70 190t205 72q117 0 189.5 -63.5t72.5 -163.5q0 -72 -32 -127.5t-85 -108.5l-164 -162h277v-155h-526z" />
    <glyph glyph-name="uni2083" unicode="&#x2083;" horiz-adv-x="677" 
d="M336 -240q-139 0 -211.5 62t-75.5 174h187q1 -45 27 -72.5t65 -27.5q43 0 70.5 28t27.5 78q0 98 -119 98h-35v127h19q55 0 89 27.5t34 77.5q0 41 -24.5 64.5t-59.5 23.5q-36 0 -58 -27t-22 -76h-184q0 108 70 173t200 65q124 0 191 -63t67 -150q0 -54 -33 -101.5
t-86 -64.5q59 -13 101 -61t42 -119q0 -105 -77 -170.5t-205 -65.5z" />
    <glyph glyph-name="uni2084" unicode="&#x2084;" horiz-adv-x="694" 
d="M555 -225h-176v147h-336v152l309 467h203v-475h84v-144h-84v-147zM379 66v278l-176 -278h176z" />
    <glyph glyph-name="uni2085" unicode="&#x2085;" horiz-adv-x="667" 
d="M338 -240q-137 0 -209 63.5t-74 172.5h183q3 -44 29.5 -72t64.5 -28q45 0 72.5 36t27.5 91q0 56 -27 90t-69 34q-69 0 -92 -73h-166l37 467h442v-156h-287l-16 -156q47 50 139 50q96 0 158.5 -68t62.5 -180q0 -119 -72 -195t-204 -76z" />
    <glyph glyph-name="uni2086" unicode="&#x2086;" horiz-adv-x="677" 
d="M350 -240q-137 0 -216 100.5t-79 295.5q0 199 78 299t221 100q115 0 185.5 -59.5t78.5 -157.5h-186q-6 37 -26 58.5t-52 21.5q-112 0 -112 -223q58 84 157 84q97 0 161.5 -67t64.5 -185q0 -123 -80 -195t-195 -72zM350 -104q43 0 67.5 35.5t24.5 91.5q0 55 -24.5 88.5
t-69.5 33.5q-42 0 -67 -35.5t-25 -86.5q0 -55 25.5 -91t68.5 -36z" />
    <glyph glyph-name="uni2087" unicode="&#x2087;" horiz-adv-x="579" 
d="M41 377v164h496v-156l-236 -610h-195l236 602h-301z" />
    <glyph glyph-name="uni2088" unicode="&#x2088;" horiz-adv-x="700" 
d="M350 -240q-136 0 -213.5 62.5t-77.5 171.5q0 60 37 109.5t101 74.5q-50 19 -81.5 64.5t-31.5 97.5q0 97 73 156t193 59t194 -59t74 -156q0 -53 -31.5 -98t-82.5 -64q64 -25 100.5 -74.5t36.5 -109.5q0 -109 -77 -171.5t-214 -62.5zM350 -109q45 0 73 31.5t28 79.5
q0 45 -28 74.5t-73 29.5t-71.5 -29.5t-26.5 -74.5q0 -48 26.5 -79.5t71.5 -31.5zM350 229q41 0 64.5 26t23.5 71q0 43 -23.5 69.5t-64.5 26.5q-39 0 -62.5 -26.5t-23.5 -69.5q0 -44 23 -70.5t63 -26.5z" />
    <glyph glyph-name="uni2089" unicode="&#x2089;" horiz-adv-x="677" 
d="M328 555q138 0 216.5 -99.5t78.5 -293.5q0 -199 -78.5 -300.5t-220.5 -101.5q-115 0 -186 61t-77 159h185q6 -37 26 -58.5t52 -21.5q112 0 112 223q-58 -84 -157 -84q-98 0 -162 66.5t-64 185.5q0 123 79.5 193.5t195.5 70.5zM328 422q-43 0 -67.5 -35.5t-24.5 -91.5
q0 -55 24.5 -89t69.5 -34q42 0 67 35.5t25 87.5q0 55 -25.5 91t-68.5 36z" />
    <glyph glyph-name="Euro" unicode="&#x20ac;" horiz-adv-x="1265" 
d="M82 778v170h135q46 244 179 371t317 127q200 0 330.5 -126.5t142.5 -344.5h-264q-15 123 -69 184.5t-142 61.5q-83 0 -142 -67.5t-84 -205.5h291v-170h-309v-137h309v-170h-291q25 -138 84 -204t142 -66q88 0 142 61t69 184h264q-12 -218 -142.5 -344.5t-330.5 -126.5
q-184 0 -317 126t-179 370h-135v170h117q-2 12 -2 70q0 55 2 67h-117z" />
    <glyph glyph-name="trademark" unicode="&#x2122;" horiz-adv-x="1519" 
d="M59 1270v151h543v-151h-192v-527h-160v527h-191zM971 741l-148 480v-480h-151v680h223l158 -520l159 520h224v-680h-152v480l-145 -480h-168z" />
    <glyph glyph-name="Omega" unicode="&#x2126;" horiz-adv-x="1499" 
d="M750 1206q-152 0 -249.5 -134.5t-97.5 -346.5q0 -190 65.5 -321.5t174.5 -176.5v-227h-528v236h217q-99 72 -154 208t-55 312q0 196 78 353t221.5 247t327.5 90t328 -90t222 -247t78 -353q0 -175 -55.5 -311t-153.5 -209h215v-236h-528v227q109 45 174.5 176.5
t65.5 321.5q0 212 -97 346.5t-249 134.5z" />
    <glyph glyph-name="uni2153" unicode="&#x2153;" horiz-adv-x="1497" 
d="M164 0l921 1421h175l-920 -1421h-176zM1153 -14q-139 0 -211.5 62t-75.5 173h187q1 -45 27 -72.5t65 -27.5q43 0 70.5 28t27.5 78q0 99 -119 99h-34v127h18q56 0 89.5 27t33.5 77q0 41 -24.5 64.5t-59.5 23.5q-36 0 -58 -27t-22 -75h-184q0 107 70 172t200 65
q124 0 191 -63t67 -150q0 -54 -33 -101.5t-86 -64.5q59 -13 101.5 -61t42.5 -119q0 -105 -77.5 -170t-205.5 -65zM408 655h-191v572l-156 -113v186l164 121h183v-766z" />
    <glyph glyph-name="uni2154" unicode="&#x2154;" horiz-adv-x="1624" 
d="M63 655v148l289 280q56 63 56 123q0 37 -22 61.5t-58 24.5q-40 0 -62 -31.5t-22 -89.5h-187q-2 119 70 192t205 73q116 0 189 -64t73 -164q0 -71 -31.5 -126t-85.5 -109l-164 -162h277v-156h-527zM291 0l921 1421h174l-919 -1421h-176zM1280 -14q-139 0 -211.5 62
t-75.5 173h187q1 -45 27 -72.5t65 -27.5q43 0 70.5 28t27.5 78q0 99 -119 99h-34v127h18q56 0 89.5 27t33.5 77q0 41 -24.5 64.5t-59.5 23.5q-36 0 -58 -27t-22 -75h-184q0 107 70 172t200 65q124 0 191 -63t67 -150q0 -54 -33 -101.5t-86 -64.5q59 -13 101.5 -61t42.5 -119
q0 -105 -77.5 -170t-205.5 -65z" />
    <glyph glyph-name="uni2155" unicode="&#x2155;" horiz-adv-x="1527" 
d="M164 0l921 1421h175l-920 -1421h-176zM1190 -14q-137 0 -209 63t-74 172h183q3 -44 29.5 -72t64.5 -28q45 0 72.5 36t27.5 91q0 56 -27 90.5t-69 34.5q-69 0 -92 -74h-166l37 467h442v-156h-287l-16 -155q46 49 139 49q96 0 158.5 -68t62.5 -180q0 -119 -72 -194.5
t-204 -75.5zM408 655h-191v572l-156 -113v186l164 121h183v-766z" />
    <glyph glyph-name="uni2156" unicode="&#x2156;" horiz-adv-x="1673" 
d="M84 655v148l289 280q55 62 55 123q0 37 -22 61.5t-58 24.5q-40 0 -62 -31.5t-22 -89.5h-186q-2 119 69.5 192t204.5 73q116 0 189 -64t73 -164q0 -72 -31.5 -127t-84.5 -108l-164 -162h276v-156h-526zM1335 -14q-137 0 -208.5 63t-73.5 172h182q3 -44 29.5 -72t64.5 -28
q45 0 73 36t28 91q0 56 -27.5 90.5t-69.5 34.5q-69 0 -92 -74h-166l37 467h442v-156h-286l-17 -155q46 49 140 49q96 0 158.5 -68t62.5 -180q0 -119 -72.5 -194.5t-204.5 -75.5zM311 0l922 1421h174l-920 -1421h-176z" />
    <glyph glyph-name="uni2157" unicode="&#x2157;" horiz-adv-x="1662" 
d="M342 641q-139 0 -211.5 62t-75.5 174h187q1 -45 27 -73t65 -28q42 0 70 28.5t28 76.5q0 98 -119 98h-34v129h18q56 0 89.5 27t33.5 77q0 40 -24.5 64t-59.5 24q-36 0 -58 -27.5t-22 -74.5h-184q0 108 70 173t200 65q124 0 191 -63.5t67 -149.5q0 -55 -33 -102.5
t-86 -65.5q59 -13 101.5 -61t42.5 -117q0 -105 -77.5 -170.5t-205.5 -65.5zM1325 -14q-137 0 -209 63t-74 172h183q3 -44 29.5 -72t64.5 -28q45 0 72.5 36t27.5 91q0 56 -27 90.5t-69 34.5q-69 0 -92 -74h-166l37 467h442v-156h-287l-16 -155q46 49 139 49q96 0 159 -68
t63 -180q0 -119 -72.5 -194.5t-204.5 -75.5zM299 0l922 1421h174l-920 -1421h-176z" />
    <glyph glyph-name="uni2158" unicode="&#x2158;" horiz-adv-x="1699" 
d="M547 655h-176v148h-336v149l309 469h203v-475h84v-143h-84v-148zM371 946v279l-176 -279h176zM1362 -14q-137 0 -209 63t-74 172h183q3 -44 29.5 -72t64.5 -28q45 0 72.5 36t27.5 91q0 56 -27 90.5t-69 34.5q-69 0 -92 -74h-166l37 467h442v-156h-287l-16 -155
q46 49 139 49q96 0 158.5 -68t62.5 -180q0 -119 -72 -194.5t-204 -75.5zM336 0l921 1421h175l-920 -1421h-176z" />
    <glyph glyph-name="uni2159" unicode="&#x2159;" horiz-adv-x="1515" 
d="M1180 -14q-137 0 -216 100t-79 295q0 199 78 299t221 100q115 0 185.5 -59.5t78.5 -157.5h-186q-6 37 -26 58.5t-52 21.5q-53 0 -83 -55t-30 -168q58 84 158 84q97 0 161 -67t64 -185q0 -123 -79.5 -194.5t-194.5 -71.5zM1180 121q43 0 67.5 35.5t24.5 91.5
q0 55 -24.5 89t-69.5 34q-42 0 -67.5 -36t-25.5 -87q0 -55 26 -91t69 -36zM164 0l921 1421h175l-920 -1421h-176zM408 655h-191v572l-156 -113v186l164 121h183v-766z" />
    <glyph glyph-name="uni215A" unicode="&#x215a;" horiz-adv-x="1646" 
d="M344 641q-137 0 -209 63.5t-74 172.5h183q3 -45 29 -73t65 -28q45 0 72.5 35.5t27.5 91.5t-27 89.5t-69 33.5q-70 0 -92 -72h-166l37 467h442v-155h-287l-16 -158q48 51 139 51q95 0 158.5 -68.5t63.5 -179.5q0 -119 -72.5 -194.5t-204.5 -75.5zM1311 -14
q-137 0 -216 100t-79 295q0 199 78 299t221 100q115 0 185.5 -59.5t78.5 -157.5h-186q-6 37 -26 58.5t-52 21.5q-53 0 -83 -55t-30 -168q58 84 158 84q97 0 161 -67t64 -185q0 -123 -79.5 -194.5t-194.5 -71.5zM1311 121q43 0 67.5 35.5t24.5 91.5q0 55 -24.5 89t-69.5 34
q-41 0 -66.5 -36t-25.5 -87q0 -55 25.5 -91t68.5 -36zM295 0l922 1421h174l-920 -1421h-176z" />
    <glyph glyph-name="uni215B" unicode="&#x215b;" horiz-adv-x="1523" 
d="M1171 -14q-136 0 -213 62t-77 171q0 60 36.5 109.5t100.5 74.5q-50 19 -81.5 64.5t-31.5 97.5q0 97 73 156t193 59t194.5 -59t74.5 -156q0 -53 -32 -98t-83 -64q64 -25 100.5 -74.5t36.5 -109.5q0 -109 -77 -171t-214 -62zM1171 117q45 0 73 31t28 79q0 45 -28 75t-73 30
t-71.5 -30t-26.5 -75q0 -48 26.5 -79t71.5 -31zM1171 455q41 0 65 26t24 70q0 43 -24 69.5t-65 26.5q-39 0 -62.5 -26.5t-23.5 -69.5q0 -44 23 -70t63 -26zM164 0l921 1421h175l-920 -1421h-176zM408 655h-191v572l-156 -113v186l164 121h183v-766z" />
    <glyph glyph-name="uni215C" unicode="&#x215c;" horiz-adv-x="1658" 
d="M1307 -14q-136 0 -213.5 62t-77.5 171q0 60 36.5 109.5t100.5 74.5q-50 19 -81.5 64.5t-31.5 97.5q0 97 73.5 156t193.5 59t194 -59t74 -156q0 -53 -32 -98t-83 -64q64 -25 100.5 -74.5t36.5 -109.5q0 -109 -76.5 -171t-213.5 -62zM1307 117q45 0 72.5 31t27.5 79
q0 45 -27.5 75t-72.5 30t-72 -30t-27 -75q0 -48 27 -79t72 -31zM1307 455q41 0 64.5 26t23.5 70q0 43 -23.5 69.5t-64.5 26.5q-39 0 -62.5 -26.5t-23.5 -69.5q0 -44 23 -70t63 -26zM342 641q-139 0 -211.5 62t-75.5 174h187q1 -45 27 -73t65 -28q42 0 70 28.5t28 76.5
q0 98 -119 98h-34v129h18q56 0 89.5 27t33.5 77q0 40 -24.5 64t-59.5 24q-36 0 -58 -27.5t-22 -74.5h-184q0 108 70 173t200 65q124 0 191 -63.5t67 -149.5q0 -55 -33 -102.5t-86 -65.5q59 -13 101.5 -61t42.5 -117q0 -105 -77.5 -170.5t-205.5 -65.5zM299 0l922 1421h174
l-920 -1421h-176z" />
    <glyph glyph-name="uni215D" unicode="&#x215d;" horiz-adv-x="1654" 
d="M1303 -14q-136 0 -213.5 62t-77.5 171q0 60 36.5 109.5t100.5 74.5q-50 19 -81.5 64.5t-31.5 97.5q0 97 73.5 156t193.5 59t194 -59t74 -156q0 -53 -32 -98t-83 -64q64 -25 100.5 -74.5t36.5 -109.5q0 -109 -76.5 -171t-213.5 -62zM1303 117q45 0 72.5 31t27.5 79
q0 45 -27.5 75t-72.5 30t-72 -30t-27 -75q0 -48 27 -79t72 -31zM1303 455q41 0 64.5 26t23.5 70q0 43 -23.5 69.5t-64.5 26.5q-39 0 -62.5 -26.5t-23.5 -69.5q0 -44 23 -70t63 -26zM344 641q-137 0 -209 63.5t-74 172.5h183q3 -45 29 -73t65 -28q45 0 72.5 35.5t27.5 91.5
t-27 89.5t-69 33.5q-70 0 -92 -72h-166l37 467h442v-155h-287l-16 -158q48 51 139 51q95 0 158.5 -68.5t63.5 -179.5q0 -119 -72.5 -194.5t-204.5 -75.5zM295 0l922 1421h174l-920 -1421h-176z" />
    <glyph glyph-name="uni215E" unicode="&#x215e;" horiz-adv-x="1556" 
d="M115 1255v166h495v-157l-235 -609h-195l236 600h-301zM199 0l921 1421h174l-919 -1421h-176zM1204 -14q-136 0 -213.5 62t-77.5 171q0 60 37 109.5t101 74.5q-50 19 -81.5 64.5t-31.5 97.5q0 97 73 156t193 59t194.5 -59t74.5 -156q0 -53 -32 -98t-83 -64
q64 -25 100.5 -74.5t36.5 -109.5q0 -109 -77 -171t-214 -62zM1204 117q45 0 73 31t28 79q0 45 -28 75t-73 30t-71.5 -30t-26.5 -75q0 -48 26.5 -79t71.5 -31zM1204 455q41 0 64.5 26t23.5 70q0 43 -23.5 69.5t-64.5 26.5q-39 0 -62.5 -26.5t-23.5 -69.5q0 -44 23 -70t63 -26
z" />
    <glyph glyph-name="uni2190" unicode="&#x2190;" 
d="M686 1319h223l-520 -524h1219v-162h-1225l526 -531h-223l-606 609z" />
    <glyph glyph-name="uni2191" unicode="&#x2191;" 
d="M1452 868v-223l-524 520v-1218h-162v1224l-530 -526v223l608 607z" />
    <glyph glyph-name="uni2192" unicode="&#x2192;" 
d="M778 1319h223l607 -608l-607 -609h-223l527 531h-1225v162h1218z" />
    <glyph glyph-name="uni2193" unicode="&#x2193;" 
d="M1452 776v-223l-608 -606l-608 606v223l530 -526v1225h162v-1219z" />
    <glyph glyph-name="partialdiff" unicode="&#x2202;" horiz-adv-x="1091" 
d="M332 1421h305q63 -59 126 -146t121.5 -198t95 -247t36.5 -267q0 -274 -124.5 -428.5t-348.5 -154.5q-207 0 -337 140.5t-130 387.5q0 241 122 383.5t310 142.5q105 0 172 -61q-67 133 -161.5 250.5t-186.5 197.5zM344 508q0 -150 53 -242t150 -92q98 0 150.5 92t52.5 242
q0 149 -52.5 241.5t-150.5 92.5q-97 0 -150 -93t-53 -241z" />
    <glyph glyph-name="Delta" unicode="&#x2206;" horiz-adv-x="1339" 
d="M1239 215v-215h-1130v215l391 1206h348zM676 1165l-281 -913h561z" />
    <glyph glyph-name="product" unicode="&#x220f;" horiz-adv-x="1413" 
d="M147 0v1421h1119v-1421h-273v1174h-573v-1174h-273z" />
    <glyph glyph-name="summation" unicode="&#x2211;" horiz-adv-x="1198" 
d="M143 246l406 481l-406 447v247h936v-247h-600l301 -330v-240l-299 -356h611v-248h-949v246z" />
    <glyph glyph-name="minus" unicode="&#x2212;" horiz-adv-x="1228" 
d="M164 559v203h899v-203h-899z" />
    <glyph glyph-name="radical" unicode="&#x221a;" horiz-adv-x="1245" 
d="M76 559v232h362l154 -533l350 1163h258l-463 -1421h-303l-180 559h-178z" />
    <glyph glyph-name="infinity" unicode="&#x221e;" horiz-adv-x="1228" 
d="M330 995q88 0 162 -51t122 -127q46 75 121 126.5t164 51.5q134 0 215.5 -96.5t81.5 -245.5t-81.5 -244.5t-215.5 -95.5q-89 0 -164.5 51.5t-120.5 127.5q-48 -77 -121.5 -128t-162.5 -51q-134 0 -214.5 95.5t-80.5 244.5t80.5 245.5t214.5 96.5zM887 827q-53 0 -102 -50
t-80 -124q31 -74 80 -123t102 -49q62 0 94.5 50t32.5 122q0 73 -32.5 123.5t-94.5 50.5zM344 481q50 0 98.5 49t81.5 123q-33 74 -81.5 124t-98.5 50q-62 0 -95.5 -51t-33.5 -123q0 -70 33.5 -121t95.5 -51z" />
    <glyph glyph-name="integral" unicode="&#x222b;" horiz-adv-x="761" 
d="M487 1075v-1116q0 -165 -93.5 -249.5t-254.5 -84.5q-55 0 -110 8v217q25 -2 73 -2q127 0 127 158v1096q0 172 89.5 256t248.5 84q77 0 144 -12v-216q-45 9 -90 9q-71 0 -102.5 -33.5t-31.5 -114.5z" />
    <glyph glyph-name="approxequal" unicode="&#x2248;" horiz-adv-x="1228" 
d="M872 735q-57 0 -156 29.5t-187 58.5t-119 29q-62 0 -62 -86v-37h-190v102q0 112 54.5 169t141.5 57q71 0 251.5 -57.5t211.5 -57.5q32 0 47 20t15 64v37h192v-102q0 -111 -56 -168.5t-143 -57.5zM872 291q-57 0 -156 29t-187 58.5t-119 29.5q-62 0 -62 -86v-37h-190v102
q0 112 54.5 168.5t141.5 56.5q71 0 251.5 -57t211.5 -57q32 0 47 20t15 64v36h192v-102q0 -111 -56 -168t-143 -57z" />
    <glyph glyph-name="notequal" unicode="&#x2260;" horiz-adv-x="1228" 
d="M176 784v201h453l61 184h195l-64 -184h230v-201h-297l-84 -247h381v-201h-451l-63 -184h-195l64 184h-230v201h299l84 247h-383z" />
    <glyph glyph-name="lessequal" unicode="&#x2264;" horiz-adv-x="1228" 
d="M213 705v223l805 307v-207l-582 -211l582 -211v-211zM197 0v203h833v-203h-833z" />
    <glyph glyph-name="greaterequal" unicode="&#x2265;" horiz-adv-x="1228" 
d="M1014 928v-223l-805 -310v211l582 211l-582 211v207zM1030 203v-203h-833v203h833z" />
    <glyph glyph-name="uni2295" unicode="&#x2295;" 
d="M1577 711q0 -152 -57 -288t-154.5 -234t-233.5 -155t-288 -57t-288 57t-233.5 155t-154.5 234t-57 288t57 288t154.5 233.5t233.5 154.5t288 57t288 -57t233.5 -154.5t154.5 -233.5t57 -288zM926 143q191 26 325 160t160 328h-485v-488zM276 631q26 -195 160 -328.5
t328 -159.5v488h-488zM926 1278v-487h485q-26 192 -159.5 326.5t-325.5 160.5zM764 1278q-193 -26 -327.5 -160.5t-160.5 -326.5h488v487z" />
    <glyph glyph-name="uni2296" unicode="&#x2296;" 
d="M844 -23q-152 0 -288 57t-233.5 155t-154.5 234t-57 288t57 288t154.5 233.5t233.5 154.5t288 57t288 -57t233.5 -154.5t154.5 -233.5t57 -288t-57 -288t-154.5 -234t-233.5 -155t-288 -57zM844 139q220 0 379 138.5t188 353.5h-1135q28 -215 187 -353.5t381 -138.5z
M844 1284q-222 0 -381 -139t-187 -354h1135q-28 215 -186.5 354t-380.5 139z" />
    <glyph glyph-name="uni2297" unicode="&#x2297;" 
d="M1577 711q0 -152 -57 -288t-154.5 -234t-233.5 -155t-288 -57t-288 57t-233.5 155t-154.5 234t-57 288t57 288t154.5 233.5t233.5 154.5t288 57t288 -57t233.5 -154.5t154.5 -233.5t57 -288zM272 711q0 -197 111 -349l346 349l-346 346q-111 -152 -111 -346zM844 139
q194 0 346 111l-346 346l-346 -346q149 -111 346 -111zM844 1284q-198 0 -346 -113l346 -346l344 346q-152 113 -344 113zM1417 711q0 192 -112 346l-347 -346l345 -349q114 152 114 349z" />
    <glyph glyph-name="uni2299" unicode="&#x2299;" 
d="M586 711q0 109 74.5 183.5t183.5 74.5t183.5 -74.5t74.5 -183.5t-74.5 -183.5t-183.5 -74.5t-183.5 74.5t-74.5 183.5zM272 711q0 -160 75 -291t206 -206t291 -75t291.5 75t206.5 206t75 291q0 120 -44.5 226t-120.5 182t-182 120.5t-226 44.5q-160 0 -291 -75
t-206 -206.5t-75 -291.5zM1577 711q0 -152 -57 -288t-154.5 -234t-233.5 -155t-288 -57t-288 57t-233.5 155t-154.5 234t-57 288t57 288t154.5 233.5t233.5 154.5t288 57t288 -57t233.5 -154.5t154.5 -233.5t57 -288z" />
    <glyph glyph-name="uni22A0" unicode="&#x22a0;" 
d="M1554 0h-1421v1421h1421v-1421zM1280 162l-436 434l-436 -434h872zM1395 274v873l-437 -436zM1278 1262h-868l434 -437zM295 1147v-873l434 437z" />
    <glyph glyph-name="uni2460" unicode="&#x2460;" horiz-adv-x="1945" 
d="M973 1425q-148 0 -280.5 -55.5t-228 -150.5t-151 -227.5t-55.5 -280.5q0 -197 94.5 -361.5t259 -259t361.5 -94.5t361.5 94.5t259 259t94.5 361.5q0 148 -55.5 280.5t-151 227.5t-228 150.5t-280.5 55.5zM973 1571q178 0 337.5 -67t274 -181.5t181.5 -274t67 -337.5
t-67 -337.5t-181.5 -274.5t-274 -182t-337.5 -67t-337.5 67t-274 182t-181.5 274.5t-67 337.5t67 337.5t181.5 274t274 181.5t337.5 67zM1100 195h-219v788l-195 -143v229l217 160h197v-1034z" />
    <glyph glyph-name="uni2461" unicode="&#x2461;" horiz-adv-x="1945" 
d="M973 1425q-148 0 -280.5 -55.5t-228 -150.5t-151 -227.5t-55.5 -280.5q0 -197 94.5 -361.5t259 -259t361.5 -94.5t361.5 94.5t259 259t94.5 361.5q0 148 -55.5 280.5t-151 227.5t-228 150.5t-280.5 55.5zM973 1571q178 0 337.5 -67t274 -181.5t181.5 -274t67 -337.5
t-67 -337.5t-181.5 -274.5t-274 -182t-337.5 -67t-337.5 67t-274 182t-181.5 274.5t-67 337.5t67 337.5t181.5 274t274 181.5t337.5 67zM1307 195h-660v190l352 379q88 96 88 182q0 54 -30.5 87.5t-79.5 33.5q-56 0 -88 -42.5t-31 -125.5h-219q0 160 89.5 254t250.5 94
q146 0 237 -82.5t91 -218.5q0 -49 -13.5 -95.5t-40.5 -88t-50 -69t-58 -64.5l-223 -240h385v-194z" />
    <glyph glyph-name="uni2462" unicode="&#x2462;" horiz-adv-x="1945" 
d="M973 1425q-148 0 -280.5 -55.5t-228 -150.5t-151 -227.5t-55.5 -280.5q0 -197 94.5 -361.5t259 -259t361.5 -94.5t361.5 94.5t259 259t94.5 361.5q0 148 -55.5 280.5t-151 227.5t-228 150.5t-280.5 55.5zM973 1571q178 0 337.5 -67t274 -181.5t181.5 -274t67 -337.5
t-67 -337.5t-181.5 -274.5t-274 -182t-337.5 -67t-337.5 67t-274 182t-181.5 274.5t-67 337.5t67 337.5t181.5 274t274 181.5t337.5 67zM973 176q-164 0 -260 85t-97 233h226q3 -69 38.5 -108.5t92.5 -39.5q56 0 91.5 42t35.5 112q0 133 -166 133h-33v174h25q76 0 117.5 36
t41.5 103q0 58 -31 93.5t-81 35.5q-52 0 -84 -37.5t-33 -107.5h-213q0 144 88.5 230.5t243.5 86.5q148 0 234.5 -81.5t86.5 -202.5q0 -79 -39 -139.5t-100 -86.5q73 -28 120.5 -96.5t47.5 -159.5q0 -129 -94 -217t-258 -88z" />
    <glyph glyph-name="uni2463" unicode="&#x2463;" horiz-adv-x="1945" 
d="M973 1425q-148 0 -280.5 -55.5t-228 -150.5t-151 -227.5t-55.5 -280.5q0 -197 94.5 -361.5t259 -259t361.5 -94.5t361.5 94.5t259 259t94.5 361.5q0 148 -55.5 280.5t-151 227.5t-228 150.5t-280.5 55.5zM973 1571q178 0 337.5 -67t274 -181.5t181.5 -274t67 -337.5
t-67 -337.5t-181.5 -274.5t-274 -182t-337.5 -67t-337.5 67t-274 182t-181.5 274.5t-67 337.5t67 337.5t181.5 274t274 181.5t337.5 67zM1186 195h-213v206h-449v189l406 639h256v-645h104v-183h-104v-206zM973 584v393l-250 -393h250z" />
    <glyph glyph-name="uni2464" unicode="&#x2464;" horiz-adv-x="1945" 
d="M973 1425q-148 0 -280.5 -55.5t-228 -150.5t-151 -227.5t-55.5 -280.5q0 -197 94.5 -361.5t259 -259t361.5 -94.5t361.5 94.5t259 259t94.5 361.5q0 148 -55.5 280.5t-151 227.5t-228 150.5t-280.5 55.5zM973 1571q178 0 337.5 -67t274 -181.5t181.5 -274t67 -337.5
t-67 -337.5t-181.5 -274.5t-274 -182t-337.5 -67t-337.5 67t-274 182t-181.5 274.5t-67 337.5t67 337.5t181.5 274t274 181.5t337.5 67zM975 176q-166 0 -260 85.5t-94 232.5h225q0 -68 35 -108t86 -40q61 0 95 48t34 134q0 85 -33.5 133t-91.5 48q-44 0 -75 -28.5
t-42 -76.5h-201l45 625h553v-195h-362l-21 -231q58 71 170 71q118 0 199.5 -93t81.5 -249q0 -154 -94.5 -255t-249.5 -101z" />
    <glyph glyph-name="uni2465" unicode="&#x2465;" horiz-adv-x="1945" 
d="M969 176q-174 0 -270.5 137.5t-96.5 391.5q0 264 97.5 403t269.5 139q144 0 234 -80t95 -206h-221q-3 56 -31 85t-73 29q-65 0 -106.5 -78t-41.5 -241q29 59 84.5 88.5t118.5 29.5q118 0 198.5 -91.5t80.5 -250.5q0 -86 -28 -155t-76 -112t-108 -66t-126 -23zM963 348
q57 0 88.5 51.5t31.5 126.5q0 77 -31.5 130t-88.5 53t-89 -54.5t-32 -128.5q0 -72 32.5 -125t88.5 -53zM973 1425q-148 0 -280.5 -55.5t-228 -150.5t-151 -227.5t-55.5 -280.5q0 -197 94.5 -361.5t259 -259t361.5 -94.5t361.5 94.5t259 259t94.5 361.5q0 148 -55.5 280.5
t-151 227.5t-228 150.5t-280.5 55.5zM973 1571q178 0 337.5 -67t274 -181.5t181.5 -274t67 -337.5t-67 -337.5t-181.5 -274.5t-274 -182t-337.5 -67t-337.5 67t-274 182t-181.5 274.5t-67 337.5t67 337.5t181.5 274t274 181.5t337.5 67z" />
    <glyph glyph-name="uni2466" unicode="&#x2466;" horiz-adv-x="1945" 
d="M973 1425q-148 0 -280.5 -55.5t-228 -150.5t-151 -227.5t-55.5 -280.5q0 -197 94.5 -361.5t259 -259t361.5 -94.5t361.5 94.5t259 259t94.5 361.5q0 148 -55.5 280.5t-151 227.5t-228 150.5t-280.5 55.5zM973 1571q178 0 337.5 -67t274 -181.5t181.5 -274t67 -337.5
t-67 -337.5t-181.5 -274.5t-274 -182t-337.5 -67t-337.5 67t-274 182t-181.5 274.5t-67 337.5t67 337.5t181.5 274t274 181.5t337.5 67zM672 1024v205h608v-195l-297 -839h-229l297 829h-379z" />
    <glyph glyph-name="uni2467" unicode="&#x2467;" horiz-adv-x="1945" 
d="M973 -150q-178 0 -337.5 67t-274 182t-181.5 274.5t-67 337.5t67 337.5t181.5 274t274 181.5t337.5 67t337.5 -67t274 -181.5t181.5 -274t67 -337.5t-67 -337.5t-181.5 -274.5t-274 -182t-337.5 -67zM973 -4q197 0 361.5 94.5t259 259t94.5 361.5q0 148 -55.5 280.5
t-151 227.5t-228 150.5t-280.5 55.5t-280.5 -55.5t-228 -150.5t-151 -227.5t-55.5 -280.5q0 -197 94.5 -361.5t259 -259t361.5 -94.5zM973 176q-168 0 -262.5 87.5t-94.5 215.5q0 90 47.5 159.5t120.5 98.5q-61 28 -99 89t-38 137q0 122 88.5 203t237.5 81q148 0 236.5 -81
t88.5 -203q0 -77 -37.5 -137.5t-99.5 -88.5q74 -29 121 -98.5t47 -159.5q0 -128 -94.5 -215.5t-261.5 -87.5zM973 348q61 0 97 41.5t36 108.5t-36 109t-97 42t-97 -42t-36 -109t36 -108.5t97 -41.5zM973 805q53 0 87 37.5t34 97.5q0 61 -34 98t-87 37t-86 -37t-33 -98
q0 -60 33 -97.5t86 -37.5z" />
    <glyph glyph-name="uni2468" unicode="&#x2468;" horiz-adv-x="1945" 
d="M975 1247q174 0 270 -137t96 -389q0 -265 -97 -405t-269 -140q-144 0 -234.5 81.5t-95.5 207.5h221q3 -57 31 -86t72 -29q67 0 108 77.5t41 242.5q-31 -60 -86 -90.5t-117 -30.5q-118 0 -199 91.5t-81 250.5q0 86 28.5 155t76.5 112t108.5 66t126.5 23zM981 1077
q-59 0 -90 -51.5t-31 -128.5t32 -129.5t89 -52.5t89 54t32 128q0 73 -32.5 126.5t-88.5 53.5zM973 1425q-148 0 -280.5 -55.5t-228 -150.5t-151 -227.5t-55.5 -280.5q0 -197 94.5 -361.5t259 -259t361.5 -94.5t361.5 94.5t259 259t94.5 361.5q0 148 -55.5 280.5t-151 227.5
t-228 150.5t-280.5 55.5zM973 1571q178 0 337.5 -67t274 -181.5t181.5 -274t67 -337.5t-67 -337.5t-181.5 -274.5t-274 -182t-337.5 -67t-337.5 67t-274 182t-181.5 274.5t-67 337.5t67 337.5t181.5 274t274 181.5t337.5 67z" />
    <glyph glyph-name="uni2469" unicode="&#x2469;" horiz-adv-x="1945" 
d="M1833 711q0 -178 -67 -337.5t-181.5 -274.5t-274 -182t-337.5 -67t-337.5 67t-274 182t-181.5 274.5t-67 337.5t67 337.5t181.5 274t274 181.5t337.5 67t337.5 -67t274 -181.5t181.5 -274t67 -337.5zM1688 711q0 148 -55.5 280.5t-151 227.5t-228 150.5t-280.5 55.5
t-280.5 -55.5t-228 -150.5t-151 -227.5t-55.5 -280.5q0 -197 94.5 -361.5t259 -259t361.5 -94.5t361.5 94.5t259 259t94.5 361.5zM1485 711q0 -279 -82 -406t-242 -127q-159 0 -240 127t-81 406q0 280 81 407t240 127q160 0 242 -127t82 -407zM1272 711q0 190 -25 266
t-86 76q-62 0 -86 -75t-24 -267t24 -267t86 -75q61 0 86 76t25 266zM760 195h-205v1032h205v-1032z" />
    <glyph glyph-name="uni25A0" unicode="&#x25a0;" 
d="M1554 1421v-1421h-1421v1421h1421z" />
    <glyph glyph-name="uni25A1" unicode="&#x25a1;" 
d="M1554 1421v-1421h-1421v1421h1421zM295 1262v-1100h1100v1100h-1100z" />
    <glyph glyph-name="uni25B2" unicode="&#x25b2;" 
d="M844 1444l727 -1444h-1452z" />
    <glyph glyph-name="uni25B3" unicode="&#x25b3;" 
d="M844 1444l727 -1444h-1452zM381 162h928l-465 915z" />
    <glyph glyph-name="uni25B6" unicode="&#x25b6;" 
d="M123 1438l1444 -727l-1444 -725v1452z" />
    <glyph glyph-name="uni25B7" unicode="&#x25b7;" 
d="M123 1438l1444 -725l-1444 -727v1452zM283 1176v-928l917 465z" />
    <glyph glyph-name="uni25BC" unicode="&#x25bc;" 
d="M1571 1421l-727 -1444l-725 1444h1452z" />
    <glyph glyph-name="uni25BD" unicode="&#x25bd;" 
d="M1571 1421l-727 -1444l-725 1444h1452zM1309 1262h-928l463 -918z" />
    <glyph glyph-name="uni25C0" unicode="&#x25c0;" 
d="M123 711l1444 727v-1452z" />
    <glyph glyph-name="uni25C1" unicode="&#x25c1;" 
d="M123 713l1444 725v-1452zM1407 248v928l-918 -463z" />
    <glyph glyph-name="lozenge" unicode="&#x25ca;" horiz-adv-x="1341" 
d="M51 711l469 710h299l471 -710l-471 -711h-299zM670 1180l-310 -471l310 -469l309 471z" />
    <glyph glyph-name="uni25CB" unicode="&#x25cb;" 
d="M272 711q0 -160 75 -291t206 -206t291 -75t291.5 75t206.5 206t75 291q0 120 -44.5 226t-120.5 182t-182 120.5t-226 44.5q-160 0 -291 -75t-206 -206.5t-75 -291.5zM1577 711q0 -152 -57 -288t-154.5 -234t-233.5 -155t-288 -57t-288 57t-233.5 155t-154.5 234t-57 288
t57 288t154.5 233.5t233.5 154.5t288 57t288 -57t233.5 -154.5t154.5 -233.5t57 -288z" />
    <glyph glyph-name="uni25CF" unicode="&#x25cf;" 
d="M111 711q0 152 57 288t154.5 233.5t233.5 154.5t288 57t288 -57t233.5 -154.5t154.5 -233.5t57 -288t-57 -288t-154.5 -234t-233.5 -155t-288 -57t-288 57t-233.5 155t-154.5 234t-57 288z" />
    <glyph glyph-name="uni25D0" unicode="&#x25d0;" 
d="M844 1284v-1145q160 0 291.5 75t206.5 206t75 291q0 120 -44.5 226t-120.5 182t-182 120.5t-226 44.5zM844 -23q-152 0 -288 57t-233.5 155t-154.5 234t-57 288t57 288t154.5 233.5t233.5 154.5t288 57t288 -57t233.5 -154.5t154.5 -233.5t57 -288t-57 -288t-154.5 -234
t-233.5 -155t-288 -57z" />
    <glyph glyph-name="uni25D1" unicode="&#x25d1;" 
d="M844 139v1145q-160 0 -291 -75t-206 -206.5t-75 -291.5t75 -291t206 -206t291 -75zM844 -23q-152 0 -288 57t-233.5 155t-154.5 234t-57 288t57 288t154.5 233.5t233.5 154.5t288 57t288 -57t233.5 -154.5t154.5 -233.5t57 -288t-57 -288t-154.5 -234t-233.5 -155
t-288 -57z" />
    <glyph glyph-name="uni25D2" unicode="&#x25d2;" 
d="M272 711h1145q0 120 -44.5 226t-120.5 182t-182 120.5t-226 44.5q-160 0 -291 -75t-206 -206.5t-75 -291.5zM1577 711q0 -152 -57 -288t-154.5 -234t-233.5 -155t-288 -57t-288 57t-233.5 155t-154.5 234t-57 288t57 288t154.5 233.5t233.5 154.5t288 57t288 -57
t233.5 -154.5t154.5 -233.5t57 -288z" />
    <glyph glyph-name="uni25D3" unicode="&#x25d3;" 
d="M1417 711h-1145q0 -160 75 -291t206 -206t291 -75t291.5 75t206.5 206t75 291zM1577 711q0 -152 -57 -288t-154.5 -234t-233.5 -155t-288 -57t-288 57t-233.5 155t-154.5 234t-57 288t57 288t154.5 233.5t233.5 154.5t288 57t288 -57t233.5 -154.5t154.5 -233.5t57 -288z
" />
    <glyph glyph-name="uni25D4" unicode="&#x25d4;" 
d="M1577 711q0 -152 -57 -288t-154.5 -234t-233.5 -155t-288 -57t-288 57t-233.5 155t-154.5 234t-57 288t57 288t154.5 233.5t233.5 154.5t288 57t288 -57t233.5 -154.5t154.5 -233.5t57 -288zM1417 711h-573v573q-160 0 -291 -75t-206 -206.5t-75 -291.5t75 -291t206 -206
t291 -75t291.5 75t206.5 206t75 291z" />
    <glyph glyph-name="uni25D5" unicode="&#x25d5;" 
d="M844 711v573q-160 0 -291 -75t-206 -206.5t-75 -291.5h572zM844 -23q-152 0 -288 57t-233.5 155t-154.5 234t-57 288t57 288t154.5 233.5t233.5 154.5t288 57t288 -57t233.5 -154.5t154.5 -233.5t57 -288t-57 -288t-154.5 -234t-233.5 -155t-288 -57z" />
    <glyph glyph-name="uni25E7" unicode="&#x25e7;" 
d="M133 1421h1421v-1421h-1421v1421zM1395 162v1100h-551v-1100h551z" />
    <glyph glyph-name="uni25E8" unicode="&#x25e8;" 
d="M133 1421h1421v-1421h-1421v1421zM295 1262v-1100h549v1100h-549z" />
    <glyph glyph-name="uni25E9" unicode="&#x25e9;" 
d="M133 0v1421h1421v-1421h-1421zM1395 162v1100l-1100 -1100h1100z" />
    <glyph glyph-name="uni25EA" unicode="&#x25ea;" 
d="M1554 1421v-1421h-1421v1421h1421zM295 1262v-1100l1100 1100h-1100z" />
    <glyph glyph-name="uni2690" unicode="&#x2690;" 
d="M295 602v-602h-162v1421h1421v-819h-1259zM295 1262v-500h1100v500h-1100z" />
    <glyph glyph-name="uni2691" unicode="&#x2691;" 
d="M295 602v-602h-162v1421h1421v-819h-1259z" />
    <glyph glyph-name="uni278A" unicode="&#x278a;" horiz-adv-x="1945" 
d="M973 1571q178 0 337.5 -67t274 -181.5t181.5 -274t67 -337.5t-67 -337.5t-181.5 -274.5t-274 -182t-337.5 -67t-337.5 67t-274 182t-181.5 274.5t-67 337.5t67 337.5t181.5 274t274 181.5t337.5 67zM1100 195v1034h-197l-217 -160v-229l195 143v-788h219z" />
    <glyph glyph-name="uni278B" unicode="&#x278b;" horiz-adv-x="1945" 
d="M647 195h660v194h-385l223 240q35 37 58 64.5t50 69t40.5 88t13.5 95.5q0 136 -91 218.5t-237 82.5q-161 0 -250.5 -94t-89.5 -254h219q-1 83 31 125.5t88 42.5q49 0 79.5 -33.5t30.5 -87.5q0 -86 -88 -182l-352 -379v-190zM973 1571q178 0 337.5 -67t274 -181.5
t181.5 -274t67 -337.5t-67 -337.5t-181.5 -274.5t-274 -182t-337.5 -67t-337.5 67t-274 182t-181.5 274.5t-67 337.5t67 337.5t181.5 274t274 181.5t337.5 67z" />
    <glyph glyph-name="uni278C" unicode="&#x278c;" horiz-adv-x="1945" 
d="M973 1571q178 0 337.5 -67t274 -181.5t181.5 -274t67 -337.5t-67 -337.5t-181.5 -274.5t-274 -182t-337.5 -67t-337.5 67t-274 182t-181.5 274.5t-67 337.5t67 337.5t181.5 274t274 181.5t337.5 67zM973 176q164 0 258 88t94 217q0 91 -47.5 159.5t-120.5 96.5
q61 26 100 86.5t39 139.5q0 121 -86.5 202.5t-234.5 81.5q-155 0 -243.5 -86.5t-88.5 -230.5h213q1 70 33 107.5t84 37.5q50 0 81 -35.5t31 -93.5q0 -67 -41.5 -103t-117.5 -36h-25v-174h33q166 0 166 -133q0 -70 -35.5 -112t-91.5 -42q-57 0 -92.5 39.5t-38.5 108.5h-226
q1 -148 97 -233t260 -85z" />
    <glyph glyph-name="uni278D" unicode="&#x278d;" horiz-adv-x="1945" 
d="M973 1571q178 0 337.5 -67t274 -181.5t181.5 -274t67 -337.5t-67 -337.5t-181.5 -274.5t-274 -182t-337.5 -67t-337.5 67t-274 182t-181.5 274.5t-67 337.5t67 337.5t181.5 274t274 181.5t337.5 67zM973 195h213v206h104v183h-104v645h-256l-406 -639v-189h449v-206z
M973 977v-393h-250z" />
    <glyph glyph-name="uni278E" unicode="&#x278e;" horiz-adv-x="1945" 
d="M973 1571q178 0 337.5 -67t274 -181.5t181.5 -274t67 -337.5t-67 -337.5t-181.5 -274.5t-274 -182t-337.5 -67t-337.5 67t-274 182t-181.5 274.5t-67 337.5t67 337.5t181.5 274t274 181.5t337.5 67zM975 176q155 0 249.5 101t94.5 255q0 156 -81.5 249t-199.5 93
q-112 0 -170 -71l21 231h362v195h-553l-45 -625h201q11 48 42 76.5t75 28.5q58 0 91.5 -48t33.5 -133q0 -86 -34 -134t-95 -48q-51 0 -86 40t-35 108h-225q0 -147 94 -232.5t260 -85.5z" />
    <glyph glyph-name="uni278F" unicode="&#x278f;" horiz-adv-x="1945" 
d="M969 176q66 0 126 23t108 66t76 112t28 155q0 159 -80.5 250.5t-198.5 91.5q-63 0 -118.5 -29.5t-84.5 -88.5q0 163 41.5 241t106.5 78q45 0 73 -29t31 -85h221q-5 126 -95 206t-234 80q-172 0 -269.5 -139t-97.5 -403q0 -254 96.5 -391.5t270.5 -137.5zM963 348
q-56 0 -88.5 53t-32.5 125q0 74 32 128.5t89 54.5t88.5 -53t31.5 -130q0 -75 -31.5 -126.5t-88.5 -51.5zM973 1571q178 0 337.5 -67t274 -181.5t181.5 -274t67 -337.5t-67 -337.5t-181.5 -274.5t-274 -182t-337.5 -67t-337.5 67t-274 182t-181.5 274.5t-67 337.5t67 337.5
t181.5 274t274 181.5t337.5 67z" />
    <glyph glyph-name="uni2790" unicode="&#x2790;" horiz-adv-x="1945" 
d="M973 1571q178 0 337.5 -67t274 -181.5t181.5 -274t67 -337.5t-67 -337.5t-181.5 -274.5t-274 -182t-337.5 -67t-337.5 67t-274 182t-181.5 274.5t-67 337.5t67 337.5t181.5 274t274 181.5t337.5 67zM672 1229v-205h379l-297 -829h229l297 839v195h-608z" />
    <glyph glyph-name="uni2791" unicode="&#x2791;" horiz-adv-x="1945" 
d="M973 1571q178 0 337.5 -67t274 -181.5t181.5 -274t67 -337.5t-67 -337.5t-181.5 -274.5t-274 -182t-337.5 -67t-337.5 67t-274 182t-181.5 274.5t-67 337.5t67 337.5t181.5 274t274 181.5t337.5 67zM973 348q-61 0 -97 41.5t-36 108.5t36 109t97 42t97 -42t36 -109
t-36 -108.5t-97 -41.5zM973 805q-53 0 -86 37.5t-33 97.5q0 61 33 98t86 37t87 -37t34 -98q0 -60 -34 -97.5t-87 -37.5zM973 176q167 0 261.5 87.5t94.5 215.5q0 90 -47 159.5t-121 98.5q62 28 99.5 88.5t37.5 137.5q0 122 -88.5 203t-236.5 81q-149 0 -237.5 -81
t-88.5 -203q0 -76 38 -137t99 -89q-73 -29 -120.5 -98.5t-47.5 -159.5q0 -128 94.5 -215.5t262.5 -87.5z" />
    <glyph glyph-name="uni2792" unicode="&#x2792;" horiz-adv-x="1945" 
d="M975 1247q-66 0 -126.5 -23t-108.5 -66t-76.5 -112t-28.5 -155q0 -159 81 -250.5t199 -91.5q62 0 117 30.5t86 90.5q0 -165 -41 -242.5t-108 -77.5q-44 0 -72 29t-31 86h-221q5 -126 95.5 -207.5t234.5 -81.5q172 0 269 140t97 405q0 252 -96 389t-270 137zM981 1077
q56 0 88.5 -53.5t32.5 -126.5q0 -74 -32 -128t-89 -54t-89 52.5t-32 129.5t31 128.5t90 51.5zM973 1571q178 0 337.5 -67t274 -181.5t181.5 -274t67 -337.5t-67 -337.5t-181.5 -274.5t-274 -182t-337.5 -67t-337.5 67t-274 182t-181.5 274.5t-67 337.5t67 337.5t181.5 274
t274 181.5t337.5 67z" />
    <glyph glyph-name="uni2793" unicode="&#x2793;" horiz-adv-x="1945" 
d="M973 1571q178 0 337.5 -67t274 -181.5t181.5 -274t67 -337.5t-67 -337.5t-181.5 -274.5t-274 -182t-337.5 -67t-337.5 67t-274 182t-181.5 274.5t-67 337.5t67 337.5t181.5 274t274 181.5t337.5 67zM1161 178q160 0 242 127t82 406q0 280 -82 407t-242 127
q-159 0 -240 -127t-81 -407q0 -279 81 -406t240 -127zM1161 369q-62 0 -86 75t-24 267t24 267t86 75q61 0 86 -76t25 -266t-25 -266t-86 -76zM555 1227v-1032h205v1032h-205z" />
    <glyph glyph-name="uni29B6" unicode="&#x29b6;" 
d="M1577 711q0 -152 -57 -288t-154.5 -234t-233.5 -155t-288 -57t-288 57t-233.5 155t-154.5 234t-57 288t57 288t154.5 233.5t233.5 154.5t288 57t288 -57t233.5 -154.5t154.5 -233.5t57 -288zM1417 711q0 145 -63.5 268t-175.5 201.5t-252 97.5v-1135q213 28 352 187
t139 381zM272 711q0 -222 138.5 -381t353.5 -187v1135q-215 -28 -353.5 -186.5t-138.5 -380.5z" />
    <glyph glyph-name="uni2B12" unicode="&#x2b12;" 
d="M1554 1421v-1421h-1421v1421h1421zM295 162h1100v549h-1100v-549z" />
    <glyph glyph-name="uni2B13" unicode="&#x2b13;" 
d="M1554 1421v-1421h-1421v1421h1421zM1395 1262h-1100v-551h1100v551z" />
    <glyph glyph-name="uni2B14" unicode="&#x2b14;" 
d="M1554 1421v-1421h-1421v1421h1421zM295 1262v-1100h1100z" />
    <glyph glyph-name="uni2B15" unicode="&#x2b15;" 
d="M133 0v1421h1421v-1421h-1421zM1395 162v1100h-1100z" />
    <glyph glyph-name="uni2B16" unicode="&#x2b16;" 
d="M844 -29l-740 740l740 739l739 -739zM1356 711l-512 514v-1026z" />
    <glyph glyph-name="uni2B17" unicode="&#x2b17;" 
d="M1583 711l-739 -740l-740 740l740 739zM844 1225l-512 -514l512 -512v1026z" />
    <glyph glyph-name="uni2B18" unicode="&#x2b18;" 
d="M1583 711l-739 -740l-740 740l740 739zM844 1223l-512 -512h1026z" />
    <glyph glyph-name="uni2B19" unicode="&#x2b19;" 
d="M844 1450l739 -739l-739 -740l-740 740zM332 711l512 -512l514 512h-1026z" />
    <glyph glyph-name="uni2B2C" unicode="&#x2b2c;" 
d="M844 258q-203 0 -371.5 60t-265 164.5t-96.5 230.5q0 95 57 179.5t154.5 144.5t233.5 95t288 35t288 -35t233.5 -95t154.5 -144.5t57 -179.5q0 -126 -96.5 -230.5t-265 -164.5t-371.5 -60z" />
    <glyph glyph-name="uni2B2D" unicode="&#x2b2d;" 
d="M274 713q0 -82 73.5 -152t205.5 -111.5t291 -41.5t290.5 41.5t205 111.5t73.5 152q0 126 -164 216.5t-405 90.5t-405.5 -90.5t-164.5 -216.5zM1577 713q0 -126 -96.5 -230.5t-265 -164.5t-371.5 -60t-371.5 60t-265 164.5t-96.5 230.5q0 95 57 179.5t154.5 144.5
t233.5 95t288 35t288 -35t233.5 -95t154.5 -144.5t57 -179.5z" />
    <glyph glyph-name="uni2B2E" unicode="&#x2b2e;" 
d="M1298 713q0 -152 -35 -288t-95 -233.5t-144.5 -154.5t-179.5 -57q-126 0 -230.5 96.5t-164.5 265t-60 371.5t60 371.5t164.5 265t230.5 96.5q95 0 179.5 -57t144.5 -154.5t95 -233.5t35 -288z" />
    <glyph glyph-name="uni2B2F" unicode="&#x2b2f;" 
d="M844 143q125 0 212 163.5t87 406.5t-87 406t-212 163t-211 -163t-86 -406t86 -406.5t211 -163.5zM844 1446q95 0 179.5 -57t144.5 -154.5t95 -233.5t35 -288t-35 -288t-95 -233.5t-144.5 -154.5t-179.5 -57q-126 0 -230.5 96.5t-164.5 265t-60 371.5t60 371.5t164.5 265
t230.5 96.5z" />
    <glyph glyph-name="commaaccent" unicode="&#xf6c3;" horiz-adv-x="477" 
d="M381 -92v-182q0 -123 -70 -182.5t-213 -59.5v115q138 0 138 102v10h-123v197h268z" />
    <glyph glyph-name="Jacute" horiz-adv-x="1159" 
d="M885 1815h266l-201 -297h-192zM53 504v86h273v-78q0 -145 55 -219t158 -74q104 0 159.5 74.5t55.5 220.5v907h270v-907q0 -255 -121 -397t-364 -142q-241 0 -363.5 144t-122.5 385z" />
    <glyph glyph-name="i.trk" horiz-adv-x="512" 
d="M385 0h-258v1016h258v-1016zM401 1171h-290v232h290v-232z" />
    <glyph glyph-name="jacute" horiz-adv-x="512" 
d="M37 -375q-59 0 -111 8v217q25 -2 72 -2q127 0 127 158v1010h258v-1057q0 -165 -92.5 -249.5t-253.5 -84.5zM266 1421h266l-200 -297h-193z" />
    <glyph glyph-name="ringacute" horiz-adv-x="575" 
d="M47 1319q0 53 33 117l162 305h231l-180 -191q4 2 12 2q93 -8 157 -74.5t64 -158.5q0 -97 -69.5 -164.5t-169.5 -67.5t-170 67.5t-70 164.5zM180 1319q0 -47 30.5 -79t76.5 -32t77 32t31 79q0 48 -31.5 81.5t-76.5 33.5t-76 -33.5t-31 -81.5z" />
    <glyph glyph-name="commatop" horiz-adv-x="477" 
d="M365 1130h-269v183q0 123 70 182t213 59v-114q-137 0 -137 -103v-10h123v-197z" />
    <glyph glyph-name="caron.slovak" horiz-adv-x="438" 
d="M176 1421h244l-156 -374h-170z" />
    <glyph glyph-name="parenleft.subs" horiz-adv-x="471" 
d="M276 160q3 -239 142 -449h-178q-148 216 -148 449t148 446h178q-139 -214 -142 -446z" />
    <glyph glyph-name="parenright.subs" horiz-adv-x="471" 
d="M201 160q-3 239 -144 446h181q145 -204 145 -446t-145 -449h-181q141 204 144 449z" />
    <glyph glyph-name="zero.dnom" horiz-adv-x="698" 
d="M348 -12q-62 0 -113 21.5t-92.5 67t-64.5 124t-23 184.5q0 203 82 300t211 97q131 0 214 -96.5t83 -300.5t-83 -300.5t-214 -96.5zM348 133q50 0 77.5 56.5t27.5 195.5q0 252 -105 252q-102 0 -102 -252t102 -252z" />
    <glyph glyph-name="one.dnom" horiz-adv-x="542" 
d="M430 0h-190v571l-156 -112v186l164 121h182v-766z" />
    <glyph glyph-name="two.dnom" horiz-adv-x="653" 
d="M66 0v150l288 280q56 63 56 121q0 39 -22 63.5t-58 24.5q-40 0 -62 -32t-22 -89h-187q-2 118 70 190t205 72q117 0 189.5 -63.5t72.5 -163.5q0 -72 -32 -127.5t-85 -108.5l-164 -161h277v-156h-526z" />
    <glyph glyph-name="three.dnom" horiz-adv-x="677" 
d="M336 -14q-139 0 -211.5 62t-75.5 173h187q1 -45 27 -72.5t65 -27.5q43 0 70.5 28t27.5 78q0 99 -119 99h-35v127h19q56 0 89.5 27t33.5 77q0 41 -24.5 64.5t-59.5 23.5q-36 0 -58 -27t-22 -75h-184q0 107 70 172t200 65q124 0 191 -63t67 -150q0 -54 -33 -101.5
t-86 -64.5q59 -13 101 -61t42 -119q0 -105 -77 -170t-205 -65z" />
    <glyph glyph-name="four.dnom" horiz-adv-x="694" 
d="M555 0h-176v147h-336v152l309 467h203v-475h84v-144h-84v-147zM379 291v278l-176 -278h176z" />
    <glyph glyph-name="five.dnom" horiz-adv-x="667" 
d="M338 -14q-137 0 -209 63t-74 172h183q3 -44 29.5 -72t64.5 -28q45 0 72.5 36t27.5 91q0 56 -27 90.5t-69 34.5q-69 0 -92 -74h-166l37 467h442v-156h-287l-16 -155q46 49 139 49q96 0 158.5 -68t62.5 -180q0 -119 -72 -194.5t-204 -75.5z" />
    <glyph glyph-name="six.dnom" horiz-adv-x="677" 
d="M350 -14q-137 0 -216 100t-79 295q0 199 78 299t221 100q115 0 185.5 -59.5t78.5 -157.5h-186q-6 37 -26 58.5t-52 21.5q-112 0 -112 -223q58 84 157 84q97 0 161.5 -67t64.5 -185q0 -123 -79.5 -194.5t-195.5 -71.5zM350 121q43 0 67.5 35.5t24.5 91.5q0 55 -24.5 89
t-69.5 34q-41 0 -66.5 -36t-25.5 -87q0 -55 25.5 -91t68.5 -36z" />
    <glyph glyph-name="seven.dnom" horiz-adv-x="579" 
d="M41 602v164h496v-156l-236 -610h-195l236 602h-301z" />
    <glyph glyph-name="eight.dnom" horiz-adv-x="700" 
d="M350 -14q-136 0 -213.5 62t-77.5 171q0 60 37 109.5t101 74.5q-50 19 -81.5 64.5t-31.5 97.5q0 97 73 156t193 59t194 -59t74 -156q0 -53 -31.5 -98t-82.5 -64q64 -25 100.5 -74.5t36.5 -109.5q0 -109 -77 -171t-214 -62zM350 117q45 0 73 31t28 79q0 45 -28 75t-73 30
t-71.5 -30t-26.5 -75q0 -48 26.5 -79t71.5 -31zM350 455q41 0 64.5 26t23.5 70q0 43 -23.5 69.5t-64.5 26.5q-39 0 -62.5 -26.5t-23.5 -69.5q0 -44 23 -70t63 -26z" />
    <glyph glyph-name="nine.dnom" horiz-adv-x="677" 
d="M328 780q138 0 216.5 -99.5t78.5 -293.5q0 -199 -78.5 -300t-220.5 -101q-115 0 -186 60.5t-77 158.5h185q6 -37 26 -58.5t52 -21.5q112 0 112 223q-58 -84 -157 -84q-98 0 -162 66.5t-64 185.5q0 123 79.5 193.5t195.5 70.5zM328 647q-43 0 -67.5 -35.5t-24.5 -91.5
q0 -55 24.5 -89t69.5 -34q42 0 67 35.5t25 87.5q0 55 -25.5 91t-68.5 36z" />
    <glyph glyph-name="parenleft.dnum" horiz-adv-x="471" 
d="M276 385q3 -238 142 -448h-178q-148 216 -148 448q0 233 148 446h178q-139 -214 -142 -446z" />
    <glyph glyph-name="parenright.dnum" horiz-adv-x="471" 
d="M201 385q-3 239 -144 446h181q145 -204 145 -446q0 -241 -145 -448h-181q141 204 144 448z" />
    <glyph glyph-name="backslash.case" horiz-adv-x="901" 
d="M614 -131l-557 1675h230l557 -1675h-230z" />
    <glyph glyph-name="bar.case" horiz-adv-x="593" 
d="M188 -131v1675h220v-1675h-220z" />
    <glyph glyph-name="braceleft.case" horiz-adv-x="792" 
d="M707 -131h-191q-135 0 -192.5 83t-57.5 243v186q0 124 -41 172t-141 57v193q100 9 141 57t41 172v187q0 159 57.5 242t192.5 83h191v-194h-68q-61 0 -90.5 -14t-44.5 -58t-15 -133v-172q0 -227 -182 -266q182 -39 182 -267v-172q0 -89 15 -133t44.5 -58t90.5 -14h68v-194
z" />
    <glyph glyph-name="braceright.case" horiz-adv-x="792" 
d="M86 -131v194h66q61 0 91 14t45 58t15 133v172q0 228 180 267q-180 39 -180 266v172q0 89 -15 133t-45 58t-91 14h-66v194h190q135 0 192.5 -83t57.5 -242v-187q0 -124 41.5 -172t141.5 -57v-193q-100 -9 -141.5 -57t-41.5 -172v-186q0 -160 -57.5 -243t-192.5 -83h-190z
" />
    <glyph glyph-name="bracketleft.case" horiz-adv-x="700" 
d="M610 1350h-225v-1287h225v-194h-448v1675h448v-194z" />
    <glyph glyph-name="bracketright.case" horiz-adv-x="700" 
d="M311 1352h-225v192h449v-1675h-449v194h225v1289z" />
    <glyph glyph-name="emdash.case" horiz-adv-x="1904" 
d="M76 610v170h1753v-170h-1753z" />
    <glyph glyph-name="endash.case" horiz-adv-x="956" 
d="M76 610v170h805v-170h-805z" />
    <glyph glyph-name="guillemotleft.case" horiz-adv-x="1050" 
d="M332 672l205 -410h-207l-236 410l236 409h207zM735 672l205 -410h-205l-235 410l235 409h205z" />
    <glyph glyph-name="guillemotright.case" horiz-adv-x="1050" 
d="M514 262l205 410l-205 409h207l235 -409l-235 -410h-207zM111 262l204 410l-204 409h206l236 -409l-236 -410h-206z" />
    <glyph glyph-name="guilsinglleft.case" horiz-adv-x="647" 
d="M332 672l205 -410h-207l-236 410l236 409h207z" />
    <glyph glyph-name="guilsinglright.case" horiz-adv-x="647" 
d="M111 262l204 410l-204 409h206l236 -409l-236 -410h-206z" />
    <glyph glyph-name="hyphen.case" horiz-adv-x="749" 
d="M115 586v225h520v-225h-520z" />
    <glyph glyph-name="parenleft.case" horiz-adv-x="681" 
d="M367 707q8 -456 258 -838h-234q-262 382 -262 838q0 455 262 837h234q-250 -382 -258 -837z" />
    <glyph glyph-name="parenright.case" horiz-adv-x="681" 
d="M313 707q-8 455 -258 837h232q264 -384 264 -837q0 -454 -264 -838h-232q250 382 258 838z" />
    <glyph glyph-name="slash.case" horiz-adv-x="901" 
d="M844 1544l-557 -1675h-230l557 1675h230z" />
    <glyph glyph-name="questiondown.case" horiz-adv-x="937" 
d="M33 334q0 65 19 121t49 94.5t66.5 71.5t73.5 60.5t67.5 53t50 56t20.5 63.5v35h213l2 -37q3 -58 -11.5 -106.5t-40 -82t-57.5 -62.5t-65 -55t-60 -52.5t-44 -61.5t-17 -76q0 -72 41.5 -114.5t122.5 -42.5q175 0 182 221h260q0 -198 -115.5 -321.5t-326.5 -123.5
q-198 0 -314 102.5t-116 256.5zM637 1421v-293h-293v293h293z" />
    <glyph glyph-name="exclamdown.case" horiz-adv-x="587" 
d="M201 889h186l43 -619v-270h-270v270zM147 1128v293h293v-293h-293z" />
    <glyph glyph-name="zero.tf" horiz-adv-x="1228" 
d="M614 -25q-108 0 -196 43t-155.5 130t-104.5 230.5t-37 332.5q0 190 37 333.5t104.5 230t155.5 129t196 42.5t196 -42.5t156 -129t105 -230t37 -333.5q0 -152 -24.5 -275t-68.5 -208t-106 -142.5t-135.5 -84t-159.5 -26.5zM614 190q55 0 100.5 26t85 83t61.5 162.5
t22 249.5q0 129 -23 237l-401 -684q60 -74 155 -74zM346 711q0 -126 21 -236l401 682q-62 74 -154 74q-43 0 -80.5 -15t-72.5 -52.5t-60 -95.5t-40 -149t-15 -208z" />
    <glyph glyph-name="one.tf" horiz-adv-x="1228" 
d="M182 0v238h344v888l-305 -219v291l316 223h256v-1183h251v-238h-862z" />
    <glyph glyph-name="two.tf" horiz-adv-x="1228" 
d="M1049 1038q0 -65 -18 -127t-53.5 -119.5t-66 -97t-77.5 -92.5l-320 -364h535v-238h-867v233l473 539q60 68 95.5 131.5t35.5 134.5q0 85 -49 138t-123 53q-182 0 -182 -252h-260q0 219 116 344t328 125q195 0 314 -113.5t119 -294.5z" />
    <glyph glyph-name="three.tf" horiz-adv-x="1228" 
d="M614 -25q-215 0 -343.5 118t-127.5 317h273q2 -100 55.5 -160t142.5 -60q88 0 142.5 62t54.5 162q0 194 -231 194h-58v230h43q105 0 163 53.5t58 146.5q0 87 -49 139t-127 52q-79 0 -126 -56t-50 -159h-260q5 197 120.5 314.5t319.5 117.5q195 0 311.5 -113.5
t116.5 -275.5q0 -108 -54.5 -191.5t-137.5 -120.5q99 -34 166 -129t67 -223q0 -86 -31.5 -161.5t-89.5 -132.5t-148 -90.5t-200 -33.5z" />
    <glyph glyph-name="four.tf" horiz-adv-x="1228" 
d="M977 0h-258v297h-615v229l564 895h309v-903h147v-221h-147v-297zM719 518v590l-371 -590h371z" />
    <glyph glyph-name="five.tf" horiz-adv-x="1228" 
d="M618 -25q-214 0 -342.5 116.5t-128.5 318.5h261q0 -101 60.5 -162.5t141.5 -61.5q92 0 145.5 74.5t53.5 202.5q0 123 -52.5 194.5t-140.5 71.5q-65 0 -112 -42t-68 -112h-246l68 846h733v-235h-506l-32 -359q39 48 102 78.5t137 30.5q166 0 277.5 -128t111.5 -343
q0 -210 -126 -350t-337 -140z" />
    <glyph glyph-name="six.tf" horiz-adv-x="1228" 
d="M635 -25q-231 0 -361.5 188.5t-130.5 541.5q0 365 131 553t363 188q188 0 307.5 -109.5t124.5 -277.5h-260q-4 81 -52 127.5t-118 46.5q-47 0 -86.5 -25.5t-71.5 -79t-50 -146.5t-19 -218q43 83 118 127.5t162 44.5q78 0 147.5 -30t124 -86.5t86 -147.5t31.5 -205
q0 -116 -37 -211t-99 -155.5t-142 -93t-168 -32.5zM627 186q86 0 135 78.5t49 194.5q0 117 -49 194.5t-137 77.5q-85 0 -135 -80.5t-50 -191.5t50.5 -192t136.5 -81z" />
    <glyph glyph-name="seven.tf" horiz-adv-x="1228" 
d="M180 1174v247h862v-233l-440 -1188h-278l440 1174h-584z" />
    <glyph glyph-name="eight.tf" horiz-adv-x="1228" 
d="M612 186q94 0 149.5 63t55.5 163q0 97 -55.5 158t-149.5 61q-92 0 -147 -61t-55 -158q0 -100 55 -163t147 -63zM612 834q81 0 130 54t49 144q0 91 -49 147t-130 56q-80 0 -129 -56t-49 -147q0 -89 49 -143.5t129 -54.5zM612 -25q-222 0 -348.5 119t-126.5 297
q0 123 64.5 219t167.5 133q-87 42 -138 125t-51 187q0 166 118 278.5t314 112.5q197 0 314.5 -112t117.5 -279q0 -103 -50.5 -186.5t-135.5 -125.5q101 -37 165 -133t64 -219q0 -178 -126.5 -297t-348.5 -119z" />
    <glyph glyph-name="nine.tf" horiz-adv-x="1228" 
d="M592 1446q230 0 359.5 -188t129.5 -541q0 -366 -130 -554t-361 -188q-188 0 -307.5 109.5t-124.5 277.5h258q6 -81 53.5 -127.5t116.5 -46.5q48 0 88 26t72 79.5t50 146.5t19 217q-43 -83 -119 -127.5t-164 -44.5q-78 0 -147.5 30t-124 86.5t-86 147.5t-31.5 205
q0 116 37 211t100 155.5t143.5 93t168.5 32.5zM600 1235q-87 0 -135.5 -77t-48.5 -195q0 -117 49 -195t135 -78t136 81t50 192t-50.5 191.5t-135.5 80.5z" />
    <glyph glyph-name="cent.tf" horiz-adv-x="1228" 
d="M154 709q0 213 100 350t274 170v192h179v-188q155 -22 253.5 -124.5t110.5 -264.5h-266q-9 124 -98 176v-623q89 52 98 176h266q-12 -162 -110.5 -264.5t-253.5 -124.5v-184h-179v188q-174 33 -274 170t-100 351zM406 709q0 -107 32 -184.5t90 -116.5v602
q-58 -39 -90 -117t-32 -184z" />
    <glyph glyph-name="dollar.tf" horiz-adv-x="1228" 
d="M1104 408q0 -166 -105.5 -280.5t-291.5 -135.5v-209h-179v211q-194 25 -297.5 145t-109.5 322h262q1 -97 39 -162t106 -92v414l-51 18q-323 109 -323 389q0 160 104 268.5t270 130.5v211h179v-213q170 -27 273.5 -140t104.5 -294h-262q0 172 -116 221v-393l75 -26
q71 -25 126 -57t101 -77t70.5 -108.5t24.5 -142.5zM858 379q0 62 -40.5 109.5t-110.5 72.5v-362q72 18 111.5 67t39.5 113zM401 1057q0 -56 33 -101t94 -73v336q-62 -21 -94.5 -65.5t-32.5 -96.5z" />
    <glyph glyph-name="yen.tf" horiz-adv-x="1228" 
d="M186 510v186h211l-350 725h285l286 -626l287 626h275l-353 -725h211v-186h-293v-119h293v-188h-293v-203h-266v203h-293v188h293v119h-293z" />
    <glyph glyph-name="sterling.tf" horiz-adv-x="1228" 
d="M152 535v190h122q-23 59 -35.5 96t-25 97.5t-12.5 115.5q0 174 115.5 292t316.5 118q212 0 326 -126t114 -345h-264q0 122 -47 187t-133 65q-75 0 -122.5 -54t-47.5 -141q0 -49 11.5 -98t35.5 -116t31 -91h284v-190h-252q2 -16 2 -46q0 -63 -22 -127.5t-66 -113.5h582
v-248h-915v248q19 0 48 15t59.5 42t52.5 74t22 102q0 26 -4 54h-176z" />
    <glyph glyph-name="Euro.tf" horiz-adv-x="1228" 
d="M63 778v170h136q46 244 178.5 371t316.5 127q200 0 330.5 -126.5t142.5 -344.5h-264q-15 123 -69 184.5t-142 61.5q-82 0 -141 -67.5t-84 -205.5h291v-170h-309v-137h309v-170h-291q25 -138 83.5 -204t141.5 -66q88 0 142 61t69 184h264q-12 -218 -142.5 -344.5
t-330.5 -126.5q-184 0 -316.5 126t-178.5 370h-136v170h117q-2 12 -2 70q0 55 2 67h-117z" />
    <glyph glyph-name="a.ord" horiz-adv-x="714" 
d="M641 655h-172v103q-31 -59 -87 -88t-122 -29q-97 0 -154 51.5t-57 143.5q0 88 57.5 141.5t153.5 71.5l197 36v33q0 109 -103 109q-99 0 -102 -103h-182q4 108 79 167t205 59q138 0 212.5 -63.5t74.5 -190.5v-441zM315 770q61 0 101.5 42.5t40.5 125.5v33l-129 -25
q-99 -17 -99 -94q0 -37 23.5 -59.5t62.5 -22.5z" />
    <glyph glyph-name="b.ord" horiz-adv-x="768" 
d="M446 641q-120 0 -186 107v-93h-178v953h186v-353q65 95 178 95q120 0 195.5 -95.5t75.5 -259.5q0 -163 -76 -258.5t-195 -95.5zM393 778q61 0 95 59.5t34 157.5t-34 157.5t-95 59.5q-63 0 -96 -59t-33 -158t33 -158t96 -59z" />
    <glyph glyph-name="c.ord" horiz-adv-x="724" 
d="M373 641q-148 0 -236 95t-88 259t88 259.5t236 95.5q128 0 211 -71t92 -196h-191q-4 63 -35.5 96t-78.5 33q-59 0 -94 -57t-35 -160q0 -102 35 -159.5t94 -57.5q47 0 78.5 33t35.5 98h191q-9 -125 -92 -196.5t-211 -71.5z" />
    <glyph glyph-name="d.ord" horiz-adv-x="768" 
d="M322 641q-121 0 -196 95.5t-75 258.5q0 164 75 259.5t196 95.5q110 0 178 -95v353h184v-953h-176v93q-70 -107 -186 -107zM375 778q61 0 95 59.5t34 157.5t-34 157.5t-95 59.5q-63 0 -97 -59.5t-34 -157.5t34 -157.5t97 -59.5z" />
    <glyph glyph-name="e.ord" horiz-adv-x="735" 
d="M369 641q-139 0 -229.5 94t-90.5 260q0 161 87.5 258t232.5 97q146 0 231.5 -90.5t85.5 -253.5v-58h-446q3 -78 38.5 -125t92.5 -47q43 0 72 26t38 77h197q-20 -112 -103.5 -175t-205.5 -63zM371 1223q-53 0 -87.5 -40t-41.5 -110h254q-3 70 -37.5 110t-87.5 40z" />
    <glyph glyph-name="f.ord" horiz-adv-x="485" 
d="M451 1188h-146v-533h-186v533h-82v149h82v52q0 118 62 175.5t173 57.5q37 0 99 -8v-148q-28 7 -60 7q-46 0 -67 -23t-21 -78v-35h146v-149z" />
    <glyph glyph-name="g.ord" horiz-adv-x="765" 
d="M330 676q-122 0 -200.5 92.5t-78.5 245.5t79 244.5t198 91.5q109 0 182 -103v90h176v-645q0 -146 -82.5 -219.5t-228.5 -73.5q-153 0 -228.5 64.5t-80.5 169.5h198q1 -52 31 -79.5t82 -27.5q60 0 92.5 35t32.5 121v86q-69 -92 -172 -92zM375 813q62 0 94.5 57t32.5 146
q0 88 -32.5 144.5t-94.5 56.5q-59 0 -93 -57t-34 -144q0 -88 33.5 -145.5t93.5 -57.5z" />
    <glyph glyph-name="h.ord" horiz-adv-x="735" 
d="M659 655h-186v406q0 141 -96 141q-53 0 -81 -43t-28 -110v-394h-186v953h186v-363q27 49 73 77t105 28q104 0 158.5 -68t54.5 -186v-441z" />
    <glyph glyph-name="i.ord" horiz-adv-x="350" 
d="M268 655h-186v682h186v-682zM279 1438h-207v159h207v-159z" />
    <glyph glyph-name="j.ord" horiz-adv-x="350" 
d="M29 403q-27 0 -78 7v149q18 -2 49 -2q82 0 82 109v671h186v-706q0 -112 -64 -170t-175 -58zM279 1438h-207v159h207v-159z" />
    <glyph glyph-name="k.ord" horiz-adv-x="720" 
d="M268 655h-186v953h186v-523l226 252h215l-242 -270l242 -412h-207l-170 293l-64 -69v-224z" />
    <glyph glyph-name="l.ord" horiz-adv-x="350" 
d="M268 655h-186v953h186v-953z" />
    <glyph glyph-name="m.ord" horiz-adv-x="1101" 
d="M1024 655h-184v412q0 135 -95 135q-44 0 -71 -40.5t-27 -106.5v-400h-186v408q0 72 -21.5 105.5t-70.5 33.5q-47 0 -74 -42.5t-27 -110.5v-394h-186v682h178v-98q62 111 178 111q125 0 176 -113q68 113 195 113q100 0 157.5 -62t57.5 -198v-435z" />
    <glyph glyph-name="n.ord" horiz-adv-x="735" 
d="M659 655h-186v406q0 141 -96 141q-53 0 -81 -43t-28 -110v-394h-186v682h178v-98q65 111 186 111q104 0 158.5 -68t54.5 -186v-441z" />
    <glyph glyph-name="o.ord" horiz-adv-x="743" 
d="M371 641q-143 0 -232.5 96t-89.5 258q0 163 89.5 259t232.5 96t233 -96t90 -259q0 -162 -90 -258t-233 -96zM371 778q61 0 95 59.5t34 157.5t-34 157.5t-95 59.5t-95 -59.5t-34 -157.5t34 -157.5t95 -59.5z" />
    <glyph glyph-name="p.ord" horiz-adv-x="768" 
d="M446 641q-112 0 -178 96v-321h-186v921h178v-92q65 105 186 105q120 0 195.5 -95.5t75.5 -259.5q0 -162 -76 -258t-195 -96zM393 778q61 0 95 60t34 157q0 99 -33.5 158t-95.5 59q-63 0 -96 -58.5t-33 -158.5q0 -97 33.5 -157t95.5 -60z" />
    <glyph glyph-name="q.ord" horiz-adv-x="768" 
d="M322 641q-120 0 -195.5 96t-75.5 258q0 164 75 259.5t196 95.5q118 0 186 -105v92h176v-921h-184v321q-69 -96 -178 -96zM375 778q61 0 95 60t34 157q0 99 -33.5 158t-95.5 59q-63 0 -97 -59t-34 -158q0 -97 34 -157t97 -60z" />
    <glyph glyph-name="r.ord" horiz-adv-x="501" 
d="M268 655h-186v682h178v-147q21 85 69.5 122.5t127.5 37.5h16v-191q-20 2 -61 2q-67 0 -105.5 -47t-38.5 -133v-326z" />
    <glyph glyph-name="s.ord" horiz-adv-x="684" 
d="M348 641q-137 0 -214.5 63t-82.5 173h189q3 -115 108 -115q51 0 78 22t27 58q0 56 -70 71l-129 29q-188 39 -188 193q0 98 76.5 156.5t197.5 58.5q124 0 201.5 -56.5t83.5 -165.5h-181q0 52 -27 77.5t-75 25.5q-43 0 -69.5 -21t-26.5 -53q0 -55 76 -72l127 -26
q186 -42 186 -195q0 -101 -79.5 -162t-207.5 -61z" />
    <glyph glyph-name="t.ord" horiz-adv-x="505" 
d="M317 647q-202 0 -202 217v324h-84v149h86v170h182v-170h150v-149h-150v-279q0 -55 19 -80.5t61 -25.5q37 0 70 10v-151q-62 -15 -132 -15z" />
    <glyph glyph-name="u.ord" horiz-adv-x="727" 
d="M645 655h-174v99q-67 -113 -186 -113q-102 0 -154.5 68.5t-52.5 189.5v438h186v-403q0 -75 21.5 -108t68.5 -33q53 0 80 43t27 114v387h184v-682z" />
    <glyph glyph-name="v.ord" horiz-adv-x="690" 
d="M461 655h-230l-215 682h195l137 -495l137 495h189z" />
    <glyph glyph-name="w.ord" horiz-adv-x="1026" 
d="M825 655h-204l-109 465l-106 -465h-205l-181 682h191l111 -477l104 477h178l105 -477l110 477h187z" />
    <glyph glyph-name="x.ord" horiz-adv-x="700" 
d="M682 655h-205l-127 211l-127 -211h-205l215 342l-215 340h207l123 -204l125 204h205l-215 -338z" />
    <glyph glyph-name="y.ord" horiz-adv-x="686" 
d="M166 403q-43 0 -90 7v151q30 -6 61 -6q75 0 101 63l6 15l-228 704h195l137 -497l135 497h191l-236 -733q-34 -107 -108 -154t-164 -47z" />
    <glyph glyph-name="z.ord" horiz-adv-x="643" 
d="M590 655h-541v136l305 399h-291v147h517v-135l-308 -399h318v-148z" />
    </font>
</defs>
</svg>
