<?xml version="1.0" standalone="no"?>
<!DOCTYPE svg PUBLIC "-//W3C//DTD SVG 1.1//EN" "http://www.w3.org/Graphics/SVG/1.1/DTD/svg11.dtd" >
<svg xmlns="http://www.w3.org/2000/svg" xmlns:xlink="http://www.w3.org/1999/xlink" version="1.1">
<metadata>
Created by FontForge 20170731 at Fri Dec 18 13:48:05 2020
 By Aleksey,,,
Copyright (c) 2018 Schick Toikka. All rights reserved. Scto Grotesk B is a trademark of Schick Toikka. Unauthorised copying or modification of any of its data is illegal.
</metadata>
<defs>
<font id="SctoGroteskB-LightItalic" horiz-adv-x="1689" >
  <font-face 
    font-family="Scto Grotesk B"
    font-weight="300"
    font-style="italic"
    font-stretch="normal"
    units-per-em="2048"
    panose-1="2 11 3 3 0 0 0 9 0 4"
    ascent="1638"
    descent="-410"
    x-height="1001"
    cap-height="1421"
    bbox="-498 -442 2107 1907"
    underline-thickness="79"
    underline-position="-437"
    unicode-range="U+0020-FB02"
  />
<missing-glyph horiz-adv-x="1259" 
d="M1305 1421l-314 -1779h-1030l311 1779h1033zM616 449l-516 -730h779zM674 528l264 -729l254 1463zM379 1343l262 -722l512 722h-774zM324 1257l-250 -1437l510 719z" />
    <glyph glyph-name="fi" unicode="fi" horiz-adv-x="1019" 
d="M997 1206h-149l26 154h150zM764 0h-105l177 1001h104zM610 907h-248l-157 -907h-105l158 907h-104l18 94h102l27 150q25 143 102 214t191 71q58 0 108 -15l-18 -96q-48 12 -92 12q-80 0 -125 -50.5t-64 -156.5l-22 -129h248z" />
    <glyph glyph-name="fl" unicode="fl" horiz-adv-x="1021" 
d="M770 0h-106l249 1421h107zM610 907h-248l-157 -907h-105l158 907h-104l18 94h102l27 150q25 143 102 214t191 71q58 0 108 -15l-18 -96q-48 12 -92 12q-80 0 -125 -50.5t-64 -156.5l-22 -129h248z" />
    <glyph glyph-name=".notdef" horiz-adv-x="1259" 
d="M1305 1421l-314 -1779h-1030l311 1779h1033zM616 449l-516 -730h779zM674 528l264 -729l254 1463zM379 1343l262 -722l512 722h-774zM324 1257l-250 -1437l510 719z" />
    <glyph glyph-name=".null" horiz-adv-x="0" 
 />
    <glyph glyph-name="nonmarkingreturn" horiz-adv-x="682" 
 />
    <glyph glyph-name="space" unicode=" " horiz-adv-x="413" 
 />
    <glyph glyph-name="exclam" unicode="!" horiz-adv-x="444" 
d="M238 455h-62l98 694l48 272h112l-47 -272zM39 0l33 184h178l-33 -184h-178z" />
    <glyph glyph-name="quotedbl" unicode="&#x22;" horiz-adv-x="688" 
d="M412 1421l-107 -456h-82l56 456h133zM721 1421l-107 -456h-79l55 456h131z" />
    <glyph glyph-name="numbersign" unicode="#" horiz-adv-x="1236" 
d="M1044 414h-253l-113 -371h-96l112 371h-286l-111 -371h-96l112 371h-225l16 92h238l125 409h-221l16 91h232l114 374h99l-117 -374h287l114 374h96l-116 -374h246l-17 -91h-256l-125 -409h242zM561 915l-123 -409h285l125 409h-287z" />
    <glyph glyph-name="dollar" unicode="$" horiz-adv-x="1116" 
d="M477 -217h-92l35 211q-151 29 -235 139.5t-87 269.5h109q2 -128 61.5 -209t169.5 -104l107 602l-41 29q-223 140 -223 350q0 156 103.5 260.5t268.5 104.5h23l37 202h92l-39 -215q129 -36 200.5 -142.5t71.5 -252.5h-108q0 114 -48 191.5t-134 105.5l-101 -573l45 -25
q60 -38 99 -71t73.5 -76.5t51 -98.5t16.5 -123q0 -162 -109.5 -268t-298.5 -106h-12zM831 356q0 92 -44.5 155t-133.5 118l-26 12l-99 -561q146 1 224.5 76t78.5 200zM381 1073q0 -152 166 -260l16 -10l96 536q-131 0 -204.5 -76t-73.5 -190z" />
    <glyph glyph-name="percent" unicode="%" horiz-adv-x="1511" 
d="M1202 1421h109l-955 -1421h-110zM418 721q-108 0 -173 73t-65 205q0 75 21.5 152t62 143.5t106 109t144.5 42.5q109 0 173.5 -73.5t64.5 -205.5q0 -75 -21.5 -151.5t-62 -143.5t-106 -109t-144.5 -42zM514 1354q-73 0 -127.5 -56t-79 -135t-24.5 -164q0 -188 137 -188
q72 0 126.5 56t79.5 135t25 165q0 97 -37 142t-100 45zM1143 612q-73 0 -128 -56t-80.5 -135t-25.5 -165q0 -99 37.5 -143.5t100.5 -44.5q73 0 128 56t80 135t25 165q0 188 -137 188zM1143 702q109 0 173 -73t64 -205q0 -75 -21.5 -152t-61.5 -143.5t-105.5 -109
t-144.5 -42.5q-109 0 -173.5 73.5t-64.5 205.5q0 75 21.5 151.5t62 143.5t106 109t144.5 42z" />
    <glyph glyph-name="ampersand" unicode="&#x26;" horiz-adv-x="1173" 
d="M51 305q0 135 94 245t287 208q-61 89 -91 166.5t-30 167.5q0 146 92 249t246 103q130 0 211.5 -79.5t81.5 -209.5q0 -125 -85 -231.5t-279 -202.5l260 -385q99 154 135 385h104q-44 -285 -178 -475l168 -246h-123l-113 166q-176 -189 -409 -189q-170 0 -270.5 90
t-100.5 238zM422 76q202 0 352 174l-289 426q-172 -88 -248.5 -175.5t-76.5 -191.5q0 -105 72.5 -169t189.5 -64zM420 1096q0 -137 102 -293q178 89 246 171.5t68 180.5q0 88 -50 140.5t-137 52.5q-108 0 -168.5 -72.5t-60.5 -179.5z" />
    <glyph glyph-name="quotesingle" unicode="'" horiz-adv-x="376" 
d="M408 1421l-107 -456h-80l55 456h132z" />
    <glyph glyph-name="parenleft" unicode="(" horiz-adv-x="579" 
d="M225 446q0 -342 174 -651h-102q-180 294 -180 651q0 597 442 1008h121q-235 -222 -345 -470.5t-110 -537.5z" />
    <glyph glyph-name="parenright" unicode=")" horiz-adv-x="579" 
d="M377 803q0 342 -174 651h102q180 -299 180 -651q0 -598 -444 -1008h-121q237 222 347 470t110 538z" />
    <glyph glyph-name="asterisk" unicode="*" horiz-adv-x="819" 
d="M690 770l-162 236l-163 -236l-80 59l174 226l-273 84l29 92l270 -96l-6 286h99l-9 -286l271 96l28 -92l-274 -84l176 -226z" />
    <glyph glyph-name="plus" unicode="+" horiz-adv-x="1228" 
d="M209 612l16 97h367l76 419h100l-74 -419h375l-16 -97h-377l-72 -422h-102l73 422h-366z" />
    <glyph glyph-name="comma" unicode="," horiz-adv-x="495" 
d="M279 184l-43 -239q-22 -116 -90.5 -176t-176.5 -60l17 76q131 6 159 145l15 70h-90l30 184h179z" />
    <glyph glyph-name="hyphen" unicode="-" horiz-adv-x="733" 
d="M109 496l18 100h504l-19 -100h-503z" />
    <glyph glyph-name="period" unicode="." horiz-adv-x="495" 
d="M68 0l32 184h176l-32 -184h-176z" />
    <glyph glyph-name="slash" unicode="/" horiz-adv-x="831" 
d="M928 1454l-887 -1659h-109l885 1659h111z" />
    <glyph glyph-name="zero" unicode="0" horiz-adv-x="1085" 
d="M461 78q99 0 185.5 82.5t142.5 214t88 290.5t32 316q0 362 -225 362q-99 0 -185 -82.5t-142.5 -214t-88.5 -290.5t-32 -316q0 -362 225 -362zM455 -23q-145 0 -237.5 111t-92.5 340q0 187 39.5 367.5t110.5 325.5t180 234t237 89q68 0 126 -25.5t104.5 -78t73 -141
t26.5 -206.5q0 -187 -40 -367.5t-111 -325.5t-180 -234t-236 -89z" />
    <glyph glyph-name="one" unicode="1" horiz-adv-x="743" 
d="M418 0h-111l223 1270l-360 -260l29 143l368 268h101z" />
    <glyph glyph-name="two" unicode="2" horiz-adv-x="946" 
d="M737 0h-696l18 106l543 607q115 131 170 226.5t55 190.5t-59 154t-156 59q-124 0 -206 -89t-89 -236h-110q4 187 119 306.5t290 119.5q146 0 235 -86.5t89 -224.5q0 -114 -64.5 -229.5t-199.5 -266.5l-479 -533h559z" />
    <glyph glyph-name="three" unicode="3" horiz-adv-x="999" 
d="M416 -23q-180 0 -278.5 116t-76.5 300h109q-15 -142 52.5 -228.5t201.5 -86.5q141 0 232.5 93t91.5 241q0 126 -71.5 200t-201.5 74h-31l21 105h55q132 0 219.5 92t87.5 229q0 108 -57.5 169.5t-157.5 61.5q-122 0 -203 -88.5t-92 -230.5h-110q6 182 121.5 301t289.5 119
q147 0 233.5 -89.5t86.5 -236.5q0 -129 -72 -235t-192 -150q79 -28 131.5 -116t52.5 -201q0 -191 -125 -315t-317 -124z" />
    <glyph glyph-name="four" unicode="4" horiz-adv-x="1030" 
d="M680 0h-109l62 346h-604l20 98l746 977h135l-170 -975h164l-19 -100h-164zM649 446l146 816l-621 -816h475z" />
    <glyph glyph-name="five" unicode="5" horiz-adv-x="1013" 
d="M436 -23q-171 0 -273 116t-79 300h111q-17 -141 51 -228t198 -87q97 0 178 68t125 177t44 232q0 130 -58 207.5t-158 77.5q-89 0 -165 -58.5t-123 -156.5h-113l215 796h594l-20 -104h-498l-139 -510q43 58 117.5 95.5t148.5 37.5q139 0 224 -102.5t85 -272.5
q0 -113 -33 -219t-92 -188t-147.5 -131.5t-192.5 -49.5z" />
    <glyph glyph-name="six" unicode="6" horiz-adv-x="1028" 
d="M455 -23q-151 0 -240.5 114t-89.5 317q0 207 41.5 396t114.5 330.5t179.5 225.5t229.5 84q142 0 230.5 -99.5t83.5 -254.5h-111q2 114 -55.5 183.5t-153.5 69.5q-144 0 -263 -175t-169 -478q52 119 144 184.5t200 65.5q136 0 221.5 -102.5t85.5 -270.5q0 -150 -55 -283.5
t-159 -218.5t-234 -88zM453 78q96 0 175.5 68.5t122 177t42.5 229.5q0 131 -56.5 209t-156.5 78q-96 0 -176 -68.5t-123 -177t-43 -229.5q0 -131 57 -209t158 -78z" />
    <glyph glyph-name="seven" unicode="7" horiz-adv-x="958" 
d="M285 0h-123l710 1317h-630l20 104h756l-19 -96z" />
    <glyph glyph-name="eight" unicode="8" horiz-adv-x="1044" 
d="M457 -23q-168 0 -273.5 102t-105.5 261q0 150 86 266t231 154q-63 37 -100 109t-37 159q0 178 116.5 297t289.5 119q138 0 228.5 -90.5t90.5 -231.5q0 -133 -71.5 -240t-192.5 -149q83 -34 133.5 -119t50.5 -194q0 -192 -126.5 -317.5t-319.5 -125.5zM467 76
q138 0 232 96t94 248q0 123 -74.5 195.5t-206.5 72.5q-138 0 -232 -96t-94 -248q0 -123 74.5 -195.5t206.5 -72.5zM590 793q118 0 200 93.5t82 225.5q0 107 -60 170.5t-159 63.5q-118 0 -201 -94t-83 -226q0 -107 60.5 -170t160.5 -63z" />
    <glyph glyph-name="nine" unicode="9" horiz-adv-x="1028" 
d="M635 1444q151 0 239.5 -113.5t88.5 -316.5q0 -277 -70.5 -513.5t-201.5 -380t-294 -143.5q-142 0 -229 99.5t-82 255.5h109q-2 -115 55 -184.5t153 -69.5q146 0 265.5 175t169.5 478q-52 -119 -144 -184.5t-200 -65.5q-137 0 -223.5 102.5t-86.5 270.5q0 150 56 283.5
t160.5 218.5t234.5 88zM637 1343q-96 0 -176 -68.5t-123 -177t-43 -229.5q0 -131 56.5 -208.5t156.5 -77.5q96 0 176 68.5t123 177t43 229.5q0 131 -56.5 208.5t-156.5 77.5z" />
    <glyph glyph-name="colon" unicode=":" horiz-adv-x="516" 
d="M78 0l33 184h176l-31 -184h-178zM219 819l35 182h176l-33 -182h-178z" />
    <glyph glyph-name="semicolon" unicode=";" horiz-adv-x="516" 
d="M219 819l35 182h176l-33 -182h-178zM287 184l-43 -239q-20 -116 -89.5 -176t-177.5 -60l17 76q65 3 106.5 40.5t53.5 104.5l14 70h-90l33 184h176z" />
    <glyph glyph-name="less" unicode="&#x3c;" horiz-adv-x="1228" 
d="M281 614l16 95l766 434l-23 -125l-645 -365l518 -362l-20 -111z" />
    <glyph glyph-name="equal" unicode="=" horiz-adv-x="1228" 
d="M270 834l19 98h786l-16 -98h-789zM193 391l18 98h786l-18 -98h-786z" />
    <glyph glyph-name="greater" unicode="&#x3e;" horiz-adv-x="1228" 
d="M989 709l-16 -95l-764 -434l22 125l643 363l-518 364l21 111z" />
    <glyph glyph-name="question" unicode="?" horiz-adv-x="831" 
d="M426 500l-8 -45h-96l12 59q13 65 44.5 120.5t71 94.5t84 75t86 69.5t75.5 69.5t54.5 84.5t20.5 105.5q0 96 -63.5 153t-165.5 57q-130 0 -204 -84.5t-87 -216.5h-111q15 181 125.5 291.5t276.5 110.5q145 0 242.5 -82.5t97.5 -228.5q0 -69 -22.5 -128t-59.5 -102t-82 -81
t-92 -73t-88 -70.5t-71.5 -81.5t-39.5 -97zM201 0l32 184h179l-33 -184h-178z" />
    <glyph glyph-name="at" unicode="@" horiz-adv-x="1814" 
d="M1272 25q-81 0 -125 42t-47 115q-109 -159 -297 -159q-142 0 -225.5 102t-83.5 278q0 156 54 287t155.5 210t228.5 79q95 0 162 -48t98 -138l29 172h102l-111 -641q-14 -77 -14 -109q0 -92 86 -92q85 0 159.5 75t118.5 199t44 262q0 280 -167 445.5t-458 165.5
q-227 0 -407.5 -114t-279.5 -311.5t-99 -441.5q0 -301 168.5 -476t465.5 -175q143 0 273 43l-19 -96q-121 -37 -256 -37q-337 0 -533 200t-196 541q0 199 66 375.5t181 305t281 203.5t357 75q328 0 521.5 -194t193.5 -509q0 -164 -54.5 -309t-153.5 -235t-218 -90zM815 121
q146 0 241 138.5t95 336.5q0 136 -56 210.5t-157 74.5q-97 0 -174.5 -64.5t-119.5 -172.5t-42 -238q0 -136 56 -210.5t157 -74.5z" />
    <glyph glyph-name="A" unicode="A" horiz-adv-x="1216" 
d="M956 0l-75 453h-562l-231 -453h-121l733 1421h129l238 -1421h-111zM745 1280l-374 -727h493z" />
    <glyph glyph-name="B" unicode="B" horiz-adv-x="1198" 
d="M78 0l250 1421h467q152 0 239.5 -86.5t87.5 -230.5q0 -124 -67 -227.5t-172 -141.5q85 -24 137.5 -98t52.5 -184q0 -197 -135.5 -325t-347.5 -128h-512zM711 782q130 4 214.5 97t84.5 225q0 104 -60.5 159.5t-169.5 55.5h-360l-92 -537h383zM606 102q154 1 254.5 101.5
t100.5 249.5q0 108 -66.5 168.5t-189.5 60.5h-396l-102 -580h399z" />
    <glyph glyph-name="C" unicode="C" horiz-adv-x="1259" 
d="M588 -23q-206 0 -339.5 150t-133.5 420q0 136 30.5 267.5t90.5 245t141.5 199.5t190.5 135.5t231 49.5q202 0 319.5 -137.5t106.5 -358.5h-113q7 179 -79.5 285t-239.5 106q-126 0 -234.5 -69t-179.5 -182t-111.5 -254t-40.5 -287q0 -234 103.5 -349.5t267.5 -115.5
q152 0 260.5 97t165.5 284h113q-53 -226 -197.5 -356t-351.5 -130z" />
    <glyph glyph-name="D" unicode="D" horiz-adv-x="1271" 
d="M328 1421h403q226 0 353.5 -143t127.5 -395q0 -180 -49 -340t-138 -281t-224 -191.5t-297 -70.5h-426zM207 102h305q104 0 197.5 40.5t164 112.5t122 168t78 210.5t26.5 236.5q0 218 -98 333.5t-283 115.5h-297z" />
    <glyph glyph-name="E" unicode="E" horiz-adv-x="1118" 
d="M78 0l250 1421h831l-20 -104h-719l-94 -535h657l-20 -102h-654l-102 -578h727l-19 -102h-837z" />
    <glyph glyph-name="F" unicode="F" horiz-adv-x="1024" 
d="M78 0l250 1421h784l-20 -102h-672l-90 -526h579l-18 -103h-580l-121 -690h-112z" />
    <glyph glyph-name="G" unicode="G" horiz-adv-x="1316" 
d="M799 1444q204 0 319.5 -136.5t106.5 -359.5h-113q7 182 -80.5 286.5t-240.5 104.5q-124 0 -231.5 -68.5t-179.5 -180.5t-112.5 -255t-40.5 -294q0 -219 95 -339t253 -120q174 0 309 138.5t187 381.5h-395l18 105h502l-125 -707h-98l49 279q-73 -148 -189.5 -225
t-263.5 -77q-205 0 -329.5 150t-124.5 414q0 178 49.5 341.5t136.5 288t217 199t281 74.5z" />
    <glyph glyph-name="H" unicode="H" horiz-adv-x="1280" 
d="M78 0l250 1421h112l-110 -618h721l108 618h113l-250 -1421h-113l123 698h-721l-121 -698h-112z" />
    <glyph glyph-name="I" unicode="I" horiz-adv-x="450" 
d="M78 0l250 1421h112l-250 -1421h-112z" />
    <glyph glyph-name="J" unicode="J" horiz-adv-x="1003" 
d="M63 502h107q-20 -95 -20 -154q0 -124 65.5 -195t183.5 -71q130 0 214 94t118 279l170 966h111l-170 -970q-42 -232 -155.5 -353t-295.5 -121q-166 0 -258 100.5t-92 268.5q0 70 22 156z" />
    <glyph glyph-name="K" unicode="K" horiz-adv-x="1132" 
d="M78 0l250 1421h112l-137 -770l803 770h149l-630 -602l368 -819h-116l-336 745l-265 -249l-86 -496h-112z" />
    <glyph glyph-name="L" unicode="L" horiz-adv-x="1001" 
d="M78 0l250 1421h110l-229 -1319h651l-16 -102h-766z" />
    <glyph glyph-name="M" unicode="M" horiz-adv-x="1548" 
d="M1288 0h-106l223 1282l-660 -1282h-127l-208 1280l-224 -1280h-108l250 1421h161l211 -1288l666 1288h172z" />
    <glyph glyph-name="N" unicode="N" horiz-adv-x="1284" 
d="M1026 0h-137l-477 1268l-224 -1268h-110l250 1421h137l477 -1269l221 1269h113z" />
    <glyph glyph-name="O" unicode="O" horiz-adv-x="1339" 
d="M594 -23q-218 0 -348.5 153t-130.5 413q0 140 31 273t90.5 246t141.5 199t190.5 134.5t230.5 48.5q218 0 347.5 -152.5t129.5 -412.5q0 -140 -30.5 -273.5t-90.5 -247t-141.5 -199t-190 -134t-229.5 -48.5zM598 82q125 0 233 68.5t179.5 180.5t112 255t40.5 293
q0 222 -98.5 341t-271.5 119q-100 0 -190 -44t-157.5 -121.5t-117.5 -178t-75.5 -217t-25.5 -235.5q0 -222 99.5 -341.5t271.5 -119.5z" />
    <glyph glyph-name="P" unicode="P" horiz-adv-x="1114" 
d="M1141 1073q0 -215 -141.5 -350t-366.5 -135h-340l-103 -588h-112l250 1421h446q170 0 268.5 -93.5t98.5 -254.5zM659 692q161 0 265 108t104 271q0 120 -70 184t-202 64h-334l-111 -627h348z" />
    <glyph glyph-name="Q" unicode="Q" horiz-adv-x="1339" 
d="M594 -23q-218 0 -348.5 153t-130.5 413q0 140 31 273t90.5 246t141.5 199t190.5 134.5t230.5 48.5q218 0 347.5 -152.5t129.5 -412.5q0 -267 -106.5 -491.5t-290.5 -332.5l163 -315h-122l-140 270q-97 -33 -186 -33zM598 82q125 0 233 68.5t179.5 180.5t112 255t40.5 293
q0 222 -98.5 341t-271.5 119q-100 0 -190 -44t-157.5 -121.5t-117.5 -178t-75.5 -217t-25.5 -235.5q0 -222 99.5 -341.5t271.5 -119.5z" />
    <glyph glyph-name="R" unicode="R" horiz-adv-x="1216" 
d="M78 0l250 1421h491q162 0 257 -91.5t95 -246.5q0 -165 -101 -288.5t-271 -149.5l243 -645h-116l-240 635h-385l-111 -635h-112zM717 739q157 0 249.5 100.5t92.5 241.5q0 114 -67.5 176t-186.5 62h-385l-101 -580h398z" />
    <glyph glyph-name="S" unicode="S" horiz-adv-x="1118" 
d="M967 387q0 -180 -130 -295t-329 -115q-205 0 -332 116.5t-123 309.5h111q0 -148 95.5 -236.5t250.5 -88.5q148 0 246 84.5t98 218.5q0 177 -172 252l-188 82q-121 53 -185.5 141.5t-64.5 206.5q0 165 117 273t294 108q187 0 307 -114.5t119 -301.5h-112q0 139 -88 227
t-226 88q-130 0 -214.5 -79t-84.5 -199q0 -83 47.5 -148t135.5 -102l188 -82q112 -47 176 -136t64 -210z" />
    <glyph glyph-name="T" unicode="T" horiz-adv-x="1083" 
d="M1184 1421l-21 -102h-428l-231 -1319h-111l232 1319h-428l20 102h967z" />
    <glyph glyph-name="U" unicode="U" horiz-adv-x="1208" 
d="M539 -23q-185 0 -295.5 100.5t-110.5 289.5q0 71 14 157l156 897h113l-160 -901q-14 -96 -14 -149q0 -141 77.5 -215t221.5 -74q157 0 261 99.5t140 303.5l164 936h113l-166 -942q-45 -252 -179 -377t-335 -125z" />
    <glyph glyph-name="V" unicode="V" horiz-adv-x="1114" 
d="M535 0h-136l-192 1421h110l170 -1280l611 1280h119z" />
    <glyph glyph-name="W" unicode="W" horiz-adv-x="1759" 
d="M1249 0h-145l-92 1292l-545 -1292h-148l-102 1421h109l90 -1288l540 1288h146l92 -1286l541 1286h116z" />
    <glyph glyph-name="X" unicode="X" horiz-adv-x="1132" 
d="M100 0h-137l574 715l-324 706h121l276 -614l484 614h137l-572 -714l322 -707h-121l-276 612z" />
    <glyph glyph-name="Y" unicode="Y" horiz-adv-x="1095" 
d="M397 0l97 549l-312 872h117l262 -755l529 755h133l-619 -870l-96 -551h-111z" />
    <glyph glyph-name="Z" unicode="Z" horiz-adv-x="1040" 
d="M276 1421h834l-18 -88l-951 -1231h746l-17 -102h-890l14 88l952 1231h-688z" />
    <glyph glyph-name="bracketleft" unicode="[" horiz-adv-x="638" 
d="M719 1362h-279l-258 -1475h277l-17 -92h-381l293 1659h381z" />
    <glyph glyph-name="backslash" unicode="\" horiz-adv-x="831" 
d="M563 -205l-364 1659h98l365 -1659h-99z" />
    <glyph glyph-name="bracketright" unicode="]" horiz-adv-x="638" 
d="M223 1454h381l-291 -1659h-381l17 92h276l260 1475h-276z" />
    <glyph glyph-name="asciicircum" unicode="^" horiz-adv-x="759" 
d="M152 909l354 512h92l172 -512h-94l-135 410l-285 -410h-104z" />
    <glyph glyph-name="underscore" unicode="_" horiz-adv-x="1028" 
d="M-39 -176l19 94h851l-18 -94h-852z" />
    <glyph glyph-name="grave" unicode="`" horiz-adv-x="495" 
d="M197 1421h137l106 -280h-82z" />
    <glyph glyph-name="a" unicode="a" horiz-adv-x="946" 
d="M707 0h-97l29 158q-56 -84 -139 -129t-174 -45q-119 0 -193 68.5t-74 178.5q0 124 87 211t229 115l342 66l6 39q8 41 8 79q0 86 -56 134.5t-155 48.5q-201 0 -244 -201h-106q18 145 115.5 221t240.5 76q136 0 220.5 -71.5t84.5 -194.5q0 -51 -8 -92zM336 78
q118 0 218 96.5t128 255.5l16 96l-313 -59q-101 -20 -160 -81t-59 -148q0 -74 44.5 -117t125.5 -43z" />
    <glyph glyph-name="b" unicode="b" horiz-adv-x="1024" 
d="M473 80q104 0 185.5 79t123 202.5t41.5 265.5q0 145 -60 220t-163 75q-105 0 -187 -79t-123.5 -202.5t-41.5 -265.5q0 -144 60.5 -219.5t164.5 -75.5zM475 -16q-103 0 -175.5 55t-96.5 147l-33 -186h-98l250 1421h106l-100 -565q41 75 117 118.5t167 43.5
q138 0 228 -102.5t90 -288.5q0 -117 -31 -230.5t-87 -206t-144 -149.5t-193 -57z" />
    <glyph glyph-name="c" unicode="c" horiz-adv-x="942" 
d="M414 -16q-141 0 -233.5 101.5t-92.5 287.5q0 124 32.5 239.5t90.5 206t147 145t195 54.5q141 0 232 -99t79 -245h-106q10 95 -45.5 171.5t-165.5 76.5q-105 0 -187 -79t-123.5 -202.5t-41.5 -265.5q0 -144 60.5 -219.5t164.5 -75.5q95 0 171 68.5t105 179.5h107
q-43 -159 -146.5 -251.5t-242.5 -92.5z" />
    <glyph glyph-name="d" unicode="d" horiz-adv-x="1024" 
d="M420 80q105 0 186.5 79t122.5 202.5t41 265.5q0 144 -60 219.5t-163 75.5q-105 0 -187 -79t-123.5 -202.5t-41.5 -265.5q0 -145 60.5 -220t164.5 -75zM406 -16q-138 0 -228 103t-90 286q0 117 31 230.5t87.5 206.5t145 150.5t193.5 57.5q99 0 169 -52t97 -141l104 596
h107l-250 -1421h-100l26 156q-42 -77 -120.5 -124.5t-171.5 -47.5z" />
    <glyph glyph-name="e" unicode="e" horiz-adv-x="962" 
d="M770 651q0 131 -62.5 202t-160.5 71q-116 0 -206 -97t-128 -268h549q8 58 8 92zM414 -16q-137 0 -231.5 101t-94.5 290q0 98 20.5 192t60.5 175.5t95 143t129 97t158 35.5q138 0 229.5 -98.5t91.5 -262.5q0 -89 -22 -188h-651q-6 -47 -6 -94q0 -132 56 -213.5t169 -81.5
q89 0 160 57t108 160h107q-46 -149 -148 -231t-231 -82z" />
    <glyph glyph-name="f" unicode="f" horiz-adv-x="602" 
d="M610 907h-248l-157 -907h-105l158 907h-104l18 94h102l27 150q25 143 102 214t191 71q58 0 108 -15l-18 -96q-48 12 -92 12q-80 0 -125 -50.5t-64 -156.5l-22 -129h248z" />
    <glyph glyph-name="g" unicode="g" horiz-adv-x="1024" 
d="M422 123q80 0 147.5 46.5t110.5 121t66.5 164.5t23.5 182q0 135 -59.5 211t-163.5 76q-65 0 -121.5 -30.5t-97.5 -82t-70.5 -118t-44 -139.5t-14.5 -146q0 -134 60 -209.5t163 -75.5zM362 -377q-155 0 -244.5 87t-80.5 229h104q0 -110 58.5 -165t165.5 -55q56 0 101.5 15
t88.5 50.5t74 103t47 163.5l22 133q-52 -74 -126.5 -115.5t-159.5 -41.5q-135 0 -226.5 99t-91.5 277q0 155 53 293.5t158 230t240 91.5q102 0 174 -55t96 -142l31 180h100l-172 -972q-71 -406 -412 -406z" />
    <glyph glyph-name="h" unicode="h" horiz-adv-x="995" 
d="M752 0h-105l103 592q18 113 18 156q0 87 -49 132.5t-133 45.5q-120 0 -201.5 -99t-112.5 -272l-96 -555h-104l250 1421h104l-102 -563q47 77 121 118.5t163 41.5q120 0 192 -71t72 -193q0 -61 -14 -150z" />
    <glyph glyph-name="i" unicode="i" horiz-adv-x="430" 
d="M410 1206h-150l27 154h149zM176 0h-104l176 1001h104z" />
    <glyph glyph-name="j" unicode="j" horiz-adv-x="430" 
d="M410 1206h-150l27 154h149zM-121 -367q-39 0 -92 11l18 96q50 -8 68 -8q150 0 184 198l191 1071h104l-188 -1075q-51 -293 -285 -293z" />
    <glyph glyph-name="k" unicode="k" horiz-adv-x="888" 
d="M178 0h-106l250 1421h106l-160 -899l516 479h138l-441 -409l277 -592h-117l-242 522l-155 -147z" />
    <glyph glyph-name="l" unicode="l" horiz-adv-x="430" 
d="M178 0h-106l250 1421h106z" />
    <glyph glyph-name="m" unicode="m" horiz-adv-x="1505" 
d="M1260 0h-105l111 633q14 79 14 125q0 81 -43 124.5t-119 43.5q-106 0 -187 -90t-108 -246l-104 -590h-103l107 616q16 94 16 140q0 80 -46 125t-122 45q-108 0 -187 -98t-110 -271l-96 -557h-106l176 1001h98l-27 -149q105 166 275 166q94 0 155.5 -47t81.5 -135
q115 182 302 182q113 0 181 -67t68 -189q0 -55 -12 -133z" />
    <glyph glyph-name="n" unicode="n" horiz-adv-x="995" 
d="M752 0h-105l103 592q18 113 18 156q0 87 -49 132.5t-131 45.5q-120 0 -202 -99t-112 -272l-98 -555h-104l176 1001h98l-27 -149q104 166 291 166q119 0 190.5 -71t71.5 -193q0 -61 -14 -150z" />
    <glyph glyph-name="o" unicode="o" horiz-adv-x="968" 
d="M414 -16q-141 0 -233.5 101.5t-92.5 287.5q0 124 32.5 239.5t90.5 206t147 145t195 54.5q142 0 233 -101.5t91 -287.5q0 -124 -32.5 -239.5t-90.5 -206t-146.5 -145t-193.5 -54.5zM420 80q105 0 186.5 79t122.5 202.5t41 265.5q0 144 -60 219.5t-163 75.5
q-105 0 -187 -79t-123.5 -202.5t-41.5 -265.5q0 -144 60.5 -219.5t164.5 -75.5z" />
    <glyph glyph-name="p" unicode="p" horiz-adv-x="1024" 
d="M473 80q104 0 185.5 79t123 202.5t41.5 265.5q0 145 -60 220t-163 75q-105 0 -187 -79t-123.5 -202.5t-41.5 -265.5q0 -144 60.5 -219.5t164.5 -75.5zM471 -16q-94 0 -166 52t-98 140l-92 -534h-107l240 1359h98l-27 -155q44 77 122.5 124.5t170.5 47.5q138 0 228 -103
t90 -286q0 -117 -30.5 -230.5t-86.5 -207t-145 -150.5t-197 -57z" />
    <glyph glyph-name="q" unicode="q" horiz-adv-x="1024" 
d="M420 80q105 0 186.5 79t122.5 202.5t41 265.5q0 144 -60 219.5t-163 75.5q-105 0 -187 -79t-123.5 -202.5t-41.5 -265.5q0 -144 60.5 -219.5t164.5 -75.5zM406 -16q-138 0 -228 103t-90 288q0 117 31 230.5t87.5 206t145 149.5t193.5 57q101 0 174 -55.5t98 -147.5
l31 186h100l-239 -1359h-107l90 503q-43 -75 -118.5 -118t-167.5 -43z" />
    <glyph glyph-name="r" unicode="r" horiz-adv-x="651" 
d="M178 0h-106l176 1001h98l-31 -172q56 92 132 140.5t161 48.5q12 0 66 -4l-19 -111q-50 4 -67 4q-114 0 -199.5 -90t-112.5 -244z" />
    <glyph glyph-name="s" unicode="s" horiz-adv-x="878" 
d="M381 -16q-154 0 -247.5 82.5t-90.5 230.5h104q0 -102 61.5 -160.5t172.5 -58.5q107 0 171 50t64 136q0 62 -34 103.5t-109 70.5l-90 35q-209 82 -209 260q0 127 89 206t229 79q141 0 228.5 -79t88.5 -218h-107q0 96 -57 149.5t-153 53.5t-156 -49t-60 -134
q0 -118 142 -176l90 -35q211 -82 211 -260q0 -129 -93.5 -207.5t-244.5 -78.5z" />
    <glyph glyph-name="t" unicode="t" horiz-adv-x="620" 
d="M344 -16q-91 0 -148 48.5t-57 139.5q0 26 11 100l112 635h-117l19 94h121l47 271h100l-47 -271h250l-19 -94h-249l-109 -622q-12 -70 -12 -95q0 -108 121 -108q46 0 112 16l-16 -100q-68 -14 -119 -14z" />
    <glyph glyph-name="u" unicode="u" horiz-adv-x="980" 
d="M729 0h-100l26 150q-102 -166 -282 -166q-116 0 -185 71t-69 193q0 75 14 149l107 604h104l-102 -591q-19 -111 -19 -154q0 -88 45.5 -134t124.5 -46q117 0 198 100t111 270l97 555h106z" />
    <glyph glyph-name="v" unicode="v" horiz-adv-x="878" 
d="M412 0h-133l-144 1001h107l120 -888l431 888h110z" />
    <glyph glyph-name="w" unicode="w" horiz-adv-x="1288" 
d="M893 0h-137l-45 877l-357 -877h-135l-67 1001h104l49 -886l359 886h129l47 -886l360 886h107z" />
    <glyph glyph-name="x" unicode="x" horiz-adv-x="847" 
d="M692 0h-114l-170 412l-306 -412h-125l383 508l-210 493h114l168 -409l301 409h125l-379 -505z" />
    <glyph glyph-name="y" unicode="y" horiz-adv-x="878" 
d="M51 -367q-49 0 -102 15l18 96q48 -10 88 -10q67 0 111.5 38.5t85.5 125.5l33 65l-150 1038h107l120 -888l431 888h110l-557 -1128q-62 -127 -131 -183.5t-164 -56.5z" />
    <glyph glyph-name="z" unicode="z" horiz-adv-x="823" 
d="M635 0h-633l12 80l658 825h-500l21 96h634l-14 -77l-657 -828h495z" />
    <glyph glyph-name="braceleft" unicode="{" horiz-adv-x="716" 
d="M516 -205h-102q-232 0 -232 201q0 60 34 219t34 223q0 67 -38 98t-122 39l16 99q102 9 155.5 59.5t74.5 163.5l47 283q24 142 92.5 208t204.5 66h129l-16 -94h-119q-86 0 -129 -41t-58 -141l-47 -281q-23 -134 -74.5 -196.5t-148.5 -77.5q70 -19 104.5 -63.5t34.5 -121.5
q0 -62 -34.5 -219t-34.5 -221q0 -109 131 -109h117z" />
    <glyph glyph-name="bar" unicode="|" horiz-adv-x="550" 
d="M94 -205l293 1659h105l-293 -1659h-105z" />
    <glyph glyph-name="braceright" unicode="}" horiz-adv-x="716" 
d="M633 575q-102 -9 -154.5 -59.5t-72.5 -163.5l-50 -282q-24 -142 -92.5 -208.5t-204.5 -66.5h-129l17 94h121q84 0 126.5 41.5t57.5 141.5l47 280q23 135 74.5 197.5t150.5 77.5q-70 19 -104.5 63t-34.5 121q0 62 34 219t34 221q0 109 -131 109h-117l18 94h103
q231 0 231 -201q0 -60 -34 -219t-34 -223q0 -67 39 -98t123 -39z" />
    <glyph glyph-name="asciitilde" unicode="~" horiz-adv-x="1239" 
d="M852 541q-56 0 -140.5 33.5t-163 67.5t-118.5 34q-76 0 -92 -96l-8 -45h-94l10 55q28 182 182 182q56 0 141 -34t163.5 -67.5t119.5 -33.5q74 0 90 96l8 45h94l-10 -55q-28 -182 -182 -182z" />
    <glyph glyph-name="uni00A0" unicode="&#xa0;" horiz-adv-x="413" 
 />
    <glyph glyph-name="exclamdown" unicode="&#xa1;" horiz-adv-x="444" 
d="M193 547h61l-96 -694l-47 -273h-115l47 273zM393 1001l-33 -182h-178l33 182h178z" />
    <glyph glyph-name="cent" unicode="&#xa2;" horiz-adv-x="946" 
d="M438 0h-94l35 197q-112 26 -181 124.5t-69 258.5q0 157 50.5 298t151 237.5t230.5 107.5l35 198h96l-37 -202q117 -24 188 -117.5t62 -222.5h-106q8 81 -33.5 152.5t-126.5 90.5l-150 -835q87 10 153.5 77.5t94.5 170.5h107q-43 -155 -142 -248t-231 -99zM236 582
q0 -121 42 -193.5t117 -95.5l150 831q-94 -17 -165.5 -98t-107.5 -197t-36 -247z" />
    <glyph glyph-name="sterling" unicode="&#xa3;" horiz-adv-x="1028" 
d="M117 584l16 94h158q-4 32 -14 97t-15.5 119t-5.5 107q0 122 39.5 220t127.5 160.5t214 62.5q180 0 269 -116t89 -320h-110q0 161 -61.5 247t-184.5 86q-131 0 -200.5 -94t-69.5 -246q0 -51 5 -102.5t14.5 -122.5t12.5 -98h410l-16 -94h-387q0 -6 1 -20.5t1 -20.5
q0 -147 -48.5 -252.5t-166.5 -188.5h616l-16 -102h-777l19 102q137 87 200.5 190t63.5 251q0 6 -1 20.5t-1 20.5h-182z" />
    <glyph glyph-name="currency" unicode="&#xa4;" horiz-adv-x="1060" 
d="M567 272q-137 0 -229 76l-121 -121l-74 74l125 127q-63 94 -63 229q0 136 65 236l-129 127l76 74l125 -125q94 75 225 75q133 0 226 -77l127 127l73 -74l-131 -131q66 -97 66 -232t-62 -229l125 -127l-73 -74l-121 121q-95 -76 -230 -76zM567 369q119 0 187.5 80.5
t68.5 207.5q0 128 -68.5 208.5t-187.5 80.5t-187.5 -80.5t-68.5 -208.5q0 -127 68.5 -207.5t187.5 -80.5z" />
    <glyph glyph-name="yen" unicode="&#xa5;" horiz-adv-x="1144" 
d="M193 559l18 92h270l-274 770h117l264 -755l528 755h133l-547 -770h277l-16 -92h-332l-33 -186h332l-17 -94h-331l-47 -279h-111l47 279h-328l17 94h327l33 186h-327z" />
    <glyph glyph-name="brokenbar" unicode="&#xa6;" horiz-adv-x="550" 
d="M94 -205l127 727h105l-127 -727h-105zM258 725l129 729h105l-130 -729h-104z" />
    <glyph glyph-name="section" unicode="&#xa7;" horiz-adv-x="944" 
d="M279 1139q0 134 88 219.5t239 85.5q150 0 232.5 -81.5t85.5 -211.5h-109q-3 90 -56.5 143.5t-152.5 53.5q-102 0 -160.5 -56t-58.5 -147q0 -62 30 -111.5t105 -113.5l164 -140q81 -71 117.5 -130t36.5 -136q0 -98 -61.5 -172.5t-184.5 -116.5q84 -96 84 -217
q0 -134 -89 -220.5t-239 -86.5t-232 81.5t-85 211.5h108q3 -88 56.5 -141.5t152.5 -53.5q103 0 162 55.5t59 147.5q0 62 -31 111t-106 114l-164 140q-80 69 -116.5 128.5t-36.5 135.5q0 100 61.5 174t183.5 115q-83 95 -83 219zM731 504q0 55 -28 98.5t-87 93.5l-192 164
q-199 -66 -199 -217q0 -55 28 -98.5t87 -93.5l192 -164q199 64 199 217z" />
    <glyph glyph-name="dieresis" unicode="&#xa8;" horiz-adv-x="645" 
d="M209 1204l29 154h145l-29 -154h-145zM522 1204l27 154h147l-28 -154h-146z" />
    <glyph glyph-name="copyright" unicode="&#xa9;" horiz-adv-x="1652" 
d="M623 709q0 -150 65.5 -243t179.5 -93q78 0 136 52.5t69 149.5h105q-15 -136 -98.5 -217.5t-211.5 -81.5q-150 0 -250 117t-100 316q0 204 99.5 319t250.5 115q128 0 212 -81.5t98 -217.5h-105q-12 96 -70 149.5t-135 53.5q-114 0 -179.5 -92.5t-65.5 -245.5zM127 711
q0 152 57 288t154.5 233.5t233.5 154.5t288 57q151 0 287.5 -57t234.5 -154.5t155.5 -233.5t57.5 -288t-57.5 -288t-155.5 -234t-234.5 -155t-287.5 -57q-152 0 -288 57t-233.5 155t-154.5 234t-57 288zM219 711q0 -176 85.5 -324.5t233 -234.5t322.5 -86t322.5 86
t233 234.5t85.5 324.5t-85.5 324.5t-233 234.5t-322.5 86t-322.5 -86t-233 -234.5t-85.5 -324.5z" />
    <glyph glyph-name="ordfeminine" unicode="&#xaa;" horiz-adv-x="706" 
d="M102 492l15 86h493l-14 -86h-494zM623 762h-88l16 90q-37 -53 -93 -78.5t-114 -25.5q-86 0 -138 47.5t-52 126.5q0 85 58 139.5t165 73.5l227 39l2 16q6 24 6 59q0 54 -34.5 84.5t-94.5 30.5q-68 0 -106 -30.5t-51 -94.5h-97q16 105 86 156t170 51q97 0 158.5 -50
t61.5 -141q0 -29 -13 -102zM362 827q75 0 137.5 56t80.5 157l10 56l-195 -33q-143 -27 -143 -137q0 -45 28.5 -72t81.5 -27z" />
    <glyph glyph-name="guillemotleft" unicode="&#xab;" horiz-adv-x="925" 
d="M508 889l-285 -418l144 -401h-99l-170 409l303 410h107zM844 889l-285 -418l141 -401h-96l-170 409l301 410h109z" />
    <glyph glyph-name="logicalnot" unicode="&#xac;" horiz-adv-x="1228" 
d="M195 612l18 99h866l-100 -568h-100l82 469h-766z" />
    <glyph glyph-name="uni00AD" unicode="&#xad;" horiz-adv-x="733" 
d="M109 496l18 100h504l-19 -100h-503z" />
    <glyph glyph-name="registered" unicode="&#xae;" horiz-adv-x="1093" 
d="M467 745v486h168q86 0 134 -39.5t48 -114.5q0 -48 -25.5 -85t-70.5 -52l113 -195h-89l-100 181h-98v-181h-80zM737 1077q0 38 -26.5 62t-77.5 24h-86v-172h86q104 0 104 86zM160 977q0 127 62.5 235t170 171t234.5 63q193 0 331 -138t138 -331q0 -127 -63 -234.5
t-171 -170t-235 -62.5q-193 0 -330 137t-137 330zM238 977q0 -166 113 -281.5t276 -115.5q164 0 278.5 115.5t114.5 281.5q0 165 -114.5 281t-278.5 116q-162 0 -275.5 -116t-113.5 -281z" />
    <glyph glyph-name="macron" unicode="&#xaf;" horiz-adv-x="647" 
d="M674 1243h-451l17 92h452z" />
    <glyph glyph-name="degree" unicode="&#xb0;" horiz-adv-x="759" 
d="M205 1161q0 119 80.5 201t201.5 82t203 -82t82 -201q0 -118 -82 -199t-203 -81t-201.5 81t-80.5 199zM303 1161q0 -81 53.5 -136.5t130.5 -55.5q79 0 134 55.5t55 136.5q0 83 -55 139t-134 56q-77 0 -130.5 -56t-53.5 -139z" />
    <glyph glyph-name="plusminus" unicode="&#xb1;" horiz-adv-x="1228" 
d="M94 0l17 98h852l-17 -98h-852zM229 754l17 98h370l72 408h103l-72 -408h377l-17 -98h-379l-73 -414h-101l74 414h-371z" />
    <glyph glyph-name="twosuperior" unicode="&#xb2;" horiz-adv-x="559" 
d="M520 653h-414l15 84l305 316q54 54 83.5 99t29.5 95t-31 78.5t-80 28.5q-62 0 -101.5 -43t-45.5 -119h-86q8 109 72 175.5t163 66.5q89 0 142 -49t53 -134q0 -67 -37.5 -128t-112.5 -136l-244 -250h304z" />
    <glyph glyph-name="threesuperior" unicode="&#xb3;" horiz-adv-x="589" 
d="M346 641q-107 0 -167.5 63t-55.5 168h88q-3 -69 34 -111t103 -42t108 43t42 110q0 61 -39.5 99.5t-102.5 38.5h-30l14 82h41q70 0 115 41t45 106q0 52 -32 84.5t-83 32.5q-58 0 -97.5 -42.5t-47.5 -113.5h-84q8 105 71.5 169.5t159.5 64.5q89 0 144 -52.5t55 -138.5
q0 -67 -39.5 -119t-108.5 -77q50 -19 78.5 -64.5t28.5 -108.5q0 -102 -67.5 -167.5t-172.5 -65.5z" />
    <glyph glyph-name="acute" unicode="&#xb4;" horiz-adv-x="495" 
d="M461 1421h151l-250 -280h-92z" />
    <glyph glyph-name="mu" unicode="&#xb5;" horiz-adv-x="985" 
d="M801 1001h106l-176 -1001h-100l26 150q-102 -166 -284 -166q-141 0 -191 84l-76 -426h-104l240 1359h104l-102 -591q-19 -111 -19 -154q0 -88 45.5 -134t124.5 -46q117 0 198.5 100t111.5 270z" />
    <glyph glyph-name="paragraph" unicode="&#xb6;" horiz-adv-x="1124" 
d="M641 1421h176l-250 -1421h-108l98 561h-12q-183 0 -281 94.5t-98 259.5q0 71 14.5 139.5t50 136t88 117.5t136 81.5t186.5 31.5zM700 0l250 1421h109l-250 -1421h-109z" />
    <glyph glyph-name="periodcentered" unicode="&#xb7;" horiz-adv-x="495" 
d="M150 463l32 182h178l-32 -182h-178z" />
    <glyph glyph-name="cedilla" unicode="&#xb8;" horiz-adv-x="552" 
d="M125 -369q-75 0 -148 31l15 76q73 -35 131 -35t85.5 22t27.5 58q0 32 -24.5 49.5t-61.5 17.5q-41 0 -76 -14l-25 51l121 138h66l-89 -115q8 2 25 2q60 0 103.5 -32.5t43.5 -96.5q0 -69 -53.5 -110.5t-140.5 -41.5z" />
    <glyph glyph-name="onesuperior" unicode="&#xb9;" horiz-adv-x="468" 
d="M350 653h-88l117 656l-180 -119l18 108l189 123h79z" />
    <glyph glyph-name="ordmasculine" unicode="&#xba;" horiz-adv-x="739" 
d="M111 492l14 86h504l-15 -86h-503zM422 748q-108 0 -172 73.5t-64 200.5q0 61 13 121t40 115t65 96.5t92 66.5t116 25q106 0 169.5 -74t63.5 -201q0 -78 -21 -152t-60 -135t-102 -98.5t-140 -37.5zM426 831q99 0 160 103t61 237q0 92 -36.5 141.5t-102.5 49.5
q-100 0 -161.5 -103t-61.5 -235q0 -93 37 -143t104 -50z" />
    <glyph glyph-name="guillemotright" unicode="&#xbb;" horiz-adv-x="925" 
d="M489 70h-108l285 417l-142 402h97l170 -410zM154 70h-107l283 417l-142 402h99l170 -410z" />
    <glyph glyph-name="onequarter" unicode="&#xbc;" horiz-adv-x="1345" 
d="M1067 0h-86l31 172h-326l14 84l400 512h102l-90 -516h82l-14 -80h-84zM1026 252l70 391l-305 -391h235zM78 0l1151 1421h100l-1149 -1421h-102zM362 653h-88l117 656l-180 -119l18 108l189 123h80z" />
    <glyph glyph-name="onehalf" unicode="&#xbd;" horiz-adv-x="1374" 
d="M1171 0h-413l14 84l305 315q54 54 83.5 99.5t29.5 95.5t-31 78t-80 28q-62 0 -101.5 -42.5t-45.5 -118.5h-86q8 109 72 175t163 66q89 0 142 -48.5t53 -133.5q0 -67 -37.5 -128t-112.5 -136l-243 -250h303zM61 0l1151 1421h101l-1149 -1421h-103zM346 653h-88l117 656
l-180 -119l18 108l188 123h80z" />
    <glyph glyph-name="threequarters" unicode="&#xbe;" horiz-adv-x="1495" 
d="M1202 0h-86l31 172h-326l15 84l399 512h102l-90 -516h82l-14 -80h-84zM1161 252l70 391l-305 -391h235zM385 641q-107 0 -167.5 63t-55.5 168h88q-3 -69 34 -111t103 -42t108 43t42 110q0 61 -39.5 99.5t-102.5 38.5h-30l14 82h41q70 0 115 41t45 106q0 52 -32 84.5
t-83 32.5q-58 0 -98 -42.5t-48 -113.5h-83q8 105 71.5 169.5t159.5 64.5q89 0 144 -52.5t55 -138.5q0 -67 -39.5 -119t-108.5 -77q50 -19 78.5 -64.5t28.5 -108.5q0 -102 -67.5 -167.5t-172.5 -65.5zM211 0l1151 1421h100l-1149 -1421h-102z" />
    <glyph glyph-name="questiondown" unicode="&#xbf;" horiz-adv-x="831" 
d="M401 502l9 45h96l-10 -60q-11 -64 -41.5 -118.5t-70 -93.5t-84.5 -74.5t-87.5 -70t-77.5 -71t-56.5 -85t-21.5 -105.5q0 -96 64 -153.5t168 -57.5q128 0 202 84.5t87 216.5h110q-15 -181 -124.5 -291t-274.5 -110q-146 0 -244 82.5t-98 228.5q0 69 22.5 128t59.5 102
t82 81t92 73t87.5 70.5t71 81.5t39.5 97zM627 1001l-33 -182h-178l33 182h178z" />
    <glyph glyph-name="Agrave" unicode="&#xc0;" horiz-adv-x="1216" 
d="M956 0l-75 453h-562l-231 -453h-121l733 1421h129l238 -1421h-111zM745 1280l-374 -727h493zM586 1812h137l106 -280h-81z" />
    <glyph glyph-name="Aacute" unicode="&#xc1;" horiz-adv-x="1216" 
d="M956 0l-75 453h-562l-231 -453h-121l733 1421h129l238 -1421h-111zM745 1280l-374 -727h493zM918 1812h151l-250 -280h-92z" />
    <glyph glyph-name="Acircumflex" unicode="&#xc2;" horiz-adv-x="1216" 
d="M956 0l-75 453h-562l-231 -453h-121l733 1421h129l238 -1421h-111zM745 1280l-374 -727h493zM770 1812h121l137 -280h-94l-113 188l-180 -188h-104z" />
    <glyph glyph-name="Atilde" unicode="&#xc3;" horiz-adv-x="1216" 
d="M956 0l-75 453h-562l-231 -453h-121l733 1421h129l238 -1421h-111zM745 1280l-374 -727h493zM926 1536q-34 0 -71 21.5t-63.5 48t-54.5 48t-47 21.5q-56 0 -74 -129h-86q31 221 156 221q34 0 71.5 -21.5t64 -47t55 -47t47.5 -21.5q29 0 45.5 31t25.5 98h88
q-31 -223 -157 -223z" />
    <glyph glyph-name="Adieresis" unicode="&#xc4;" horiz-adv-x="1216" 
d="M956 0l-75 453h-562l-231 -453h-121l733 1421h129l238 -1421h-111zM745 1280l-374 -727h493zM563 1569l29 153h145l-28 -153h-146zM877 1569l26 153h148l-29 -153h-145z" />
    <glyph glyph-name="Aring" unicode="&#xc5;" horiz-adv-x="1216" 
d="M586 1534q0 83 55 139t137 56t137.5 -56t55.5 -139q0 -66 -36.5 -115.5t-96.5 -68.5l227 -1350h-113l-73 453h-562l-233 -453h-119l707 1370q-86 57 -86 164zM741 1280l-372 -727h491zM668 1534q0 -53 30.5 -85t79.5 -32q50 0 80.5 32.5t30.5 84.5q0 51 -31 84t-80 33
t-79.5 -33t-30.5 -84z" />
    <glyph glyph-name="AE" unicode="&#xc6;" horiz-adv-x="1816" 
d="M774 0l78 449h-498l-342 -449h-129l1088 1421h882l-20 -104h-717l-94 -535h655l-18 -102h-655l-101 -578h725l-16 -102h-838zM434 551h436l131 743z" />
    <glyph glyph-name="Ccedilla" unicode="&#xc7;" horiz-adv-x="1259" 
d="M453 -369q-77 0 -146 31l12 76q73 -35 132 -35q58 0 86 22t28 58q0 32 -25 49.5t-61 17.5q-41 0 -76 -14l-26 51l94 107q-161 40 -256.5 182.5t-95.5 370.5q0 136 30.5 267.5t90.5 245t141.5 199.5t190.5 135.5t231 49.5q202 0 319.5 -137.5t106.5 -358.5h-113
q7 179 -79.5 285t-239.5 106q-126 0 -234.5 -69t-179.5 -182t-111.5 -254t-40.5 -287q0 -234 103.5 -349.5t267.5 -115.5q152 0 260.5 97t165.5 284h113q-53 -226 -197.5 -356t-351.5 -130q-12 0 -62 5l-53 -72q6 2 15 2q67 0 112 -32t45 -97q0 -69 -54 -110.5t-142 -41.5z
" />
    <glyph glyph-name="Egrave" unicode="&#xc8;" horiz-adv-x="1118" 
d="M78 0l250 1421h831l-20 -104h-719l-94 -535h657l-20 -102h-654l-102 -578h727l-19 -102h-837zM578 1812h137l106 -280h-82z" />
    <glyph glyph-name="Eacute" unicode="&#xc9;" horiz-adv-x="1118" 
d="M887 1812h151l-250 -280h-92zM78 0l250 1421h831l-20 -104h-719l-94 -535h657l-20 -102h-654l-102 -578h727l-19 -102h-837z" />
    <glyph glyph-name="Ecircumflex" unicode="&#xca;" horiz-adv-x="1118" 
d="M748 1812h120l138 -280h-95l-112 188l-181 -188h-104zM78 0l250 1421h831l-20 -104h-719l-94 -535h657l-20 -102h-654l-102 -578h727l-19 -102h-837z" />
    <glyph glyph-name="Edieresis" unicode="&#xcb;" horiz-adv-x="1118" 
d="M537 1571l28 153h146l-29 -153h-145zM850 1571l27 153h147l-29 -153h-145zM78 0l250 1421h831l-20 -104h-719l-94 -535h657l-20 -102h-654l-102 -578h727l-19 -102h-837z" />
    <glyph glyph-name="Igrave" unicode="&#xcc;" horiz-adv-x="450" 
d="M78 0l250 1421h112l-250 -1421h-112zM207 1812h137l107 -280h-82z" />
    <glyph glyph-name="Iacute" unicode="&#xcd;" horiz-adv-x="450" 
d="M78 0l250 1421h112l-250 -1421h-112zM541 1812h151l-250 -280h-92z" />
    <glyph glyph-name="Icircumflex" unicode="&#xce;" horiz-adv-x="450" 
d="M78 0l250 1421h112l-250 -1421h-112zM393 1812h121l137 -280h-94l-113 188l-180 -188h-104z" />
    <glyph glyph-name="Idieresis" unicode="&#xcf;" horiz-adv-x="450" 
d="M78 0l250 1421h112l-250 -1421h-112zM182 1571l29 153h145l-28 -153h-146zM496 1571l26 153h148l-29 -153h-145z" />
    <glyph glyph-name="Eth" unicode="&#xd0;" horiz-adv-x="1306" 
d="M92 664l17 94h137l119 663h401q226 0 353.5 -143t127.5 -395q0 -180 -49 -340t-138 -281t-224 -191.5t-297 -70.5h-424l114 664h-137zM244 102h303q104 0 197.5 40.5t164 112.5t122 168t78 210.5t26.5 236.5q0 218 -98 333.5t-283 115.5h-297l-101 -561h279l-17 -94h-276
z" />
    <glyph glyph-name="Ntilde" unicode="&#xd1;" horiz-adv-x="1284" 
d="M1026 0h-137l-477 1268l-224 -1268h-110l250 1421h137l477 -1269l221 1269h113zM985 1542q-34 0 -71 21.5t-63 48t-54 48t-47 21.5q-56 0 -74 -129h-86q31 222 155 222q34 0 71.5 -21.5t64 -47.5t55 -47.5t47.5 -21.5q29 0 46 31t26 98h88q-31 -223 -158 -223z" />
    <glyph glyph-name="Ograve" unicode="&#xd2;" horiz-adv-x="1339" 
d="M594 -23q-218 0 -348.5 153t-130.5 413q0 140 31 273t90.5 246t141.5 199t190.5 134.5t230.5 48.5q218 0 347.5 -152.5t129.5 -412.5q0 -140 -30.5 -273.5t-90.5 -247t-141.5 -199t-190 -134t-229.5 -48.5zM598 82q125 0 233 68.5t179.5 180.5t112 255t40.5 293
q0 222 -98.5 341t-271.5 119q-100 0 -190 -44t-157.5 -121.5t-117.5 -178t-75.5 -217t-25.5 -235.5q0 -222 99.5 -341.5t271.5 -119.5zM659 1812h138l106 -280h-82z" />
    <glyph glyph-name="Oacute" unicode="&#xd3;" horiz-adv-x="1339" 
d="M969 1812h151l-250 -280h-92zM594 -23q-218 0 -348.5 153t-130.5 413q0 140 31 273t90.5 246t141.5 199t190.5 134.5t230.5 48.5q218 0 347.5 -152.5t129.5 -412.5q0 -140 -30.5 -273.5t-90.5 -247t-141.5 -199t-190 -134t-229.5 -48.5zM598 82q125 0 233 68.5
t179.5 180.5t112 255t40.5 293q0 222 -98.5 341t-271.5 119q-100 0 -190 -44t-157.5 -121.5t-117.5 -178t-75.5 -217t-25.5 -235.5q0 -222 99.5 -341.5t271.5 -119.5z" />
    <glyph glyph-name="Ocircumflex" unicode="&#xd4;" horiz-adv-x="1339" 
d="M825 1812h121l137 -280h-94l-112 188l-181 -188h-104zM594 -23q-218 0 -348.5 153t-130.5 413q0 140 31 273t90.5 246t141.5 199t190.5 134.5t230.5 48.5q218 0 347.5 -152.5t129.5 -412.5q0 -140 -30.5 -273.5t-90.5 -247t-141.5 -199t-190 -134t-229.5 -48.5zM598 82
q125 0 233 68.5t179.5 180.5t112 255t40.5 293q0 222 -98.5 341t-271.5 119q-100 0 -190 -44t-157.5 -121.5t-117.5 -178t-75.5 -217t-25.5 -235.5q0 -222 99.5 -341.5t271.5 -119.5z" />
    <glyph glyph-name="Otilde" unicode="&#xd5;" horiz-adv-x="1339" 
d="M594 -23q-218 0 -348.5 153t-130.5 413q0 140 31 273t90.5 246t141.5 199t190.5 134.5t230.5 48.5q218 0 347.5 -152.5t129.5 -412.5q0 -140 -30.5 -273.5t-90.5 -247t-141.5 -199t-190 -134t-229.5 -48.5zM598 82q125 0 233 68.5t179.5 180.5t112 255t40.5 293
q0 222 -98.5 341t-271.5 119q-100 0 -190 -44t-157.5 -121.5t-117.5 -178t-75.5 -217t-25.5 -235.5q0 -222 99.5 -341.5t271.5 -119.5zM987 1542q-34 0 -71 21.5t-63 48t-54 48t-47 21.5q-56 0 -74 -129h-86q31 222 156 222q34 0 71 -21.5t63.5 -47.5t55 -47.5t47.5 -21.5
q29 0 46 31t26 98h88q-31 -223 -158 -223z" />
    <glyph glyph-name="Odieresis" unicode="&#xd6;" horiz-adv-x="1339" 
d="M618 1571l29 153h146l-29 -153h-146zM932 1571l26 153h148l-29 -153h-145zM594 -23q-218 0 -348.5 153t-130.5 413q0 140 31 273t90.5 246t141.5 199t190.5 134.5t230.5 48.5q218 0 347.5 -152.5t129.5 -412.5q0 -140 -30.5 -273.5t-90.5 -247t-141.5 -199t-190 -134
t-229.5 -48.5zM598 82q125 0 233 68.5t179.5 180.5t112 255t40.5 293q0 222 -98.5 341t-271.5 119q-100 0 -190 -44t-157.5 -121.5t-117.5 -178t-75.5 -217t-25.5 -235.5q0 -222 99.5 -341.5t271.5 -119.5z" />
    <glyph glyph-name="multiply" unicode="&#xd7;" horiz-adv-x="1228" 
d="M971 287l-82 -60l-248 359l-365 -359l-65 72l373 367l-256 368l82 60l247 -359l363 359l65 -72l-372 -367z" />
    <glyph glyph-name="Oslash" unicode="&#xd8;" horiz-adv-x="1351" 
d="M141 -37h-127l195 230q-84 146 -84 350q0 140 31 273t90.5 246t141.5 199t190.5 134.5t230.5 48.5q204 0 336 -141l131 155h125l-199 -233q84 -141 84 -346q0 -140 -30.5 -273.5t-90.5 -247t-141.5 -199t-190 -134t-229.5 -48.5q-204 0 -336 138zM608 82q125 0 233 68.5
t179.5 180.5t112.5 255t41 293q0 149 -48 254l-786 -934q94 -117 268 -117zM238 543q0 -154 49 -258l786 934q-95 120 -270 120q-100 0 -190 -44t-157 -121.5t-117 -178t-75.5 -217t-25.5 -235.5z" />
    <glyph glyph-name="Ugrave" unicode="&#xd9;" horiz-adv-x="1208" 
d="M539 -23q-185 0 -295.5 100.5t-110.5 289.5q0 71 14 157l156 897h113l-160 -901q-14 -96 -14 -149q0 -141 77.5 -215t221.5 -74q157 0 261 99.5t140 303.5l164 936h113l-166 -942q-45 -252 -179 -377t-335 -125zM578 1812h137l106 -280h-82z" />
    <glyph glyph-name="Uacute" unicode="&#xda;" horiz-adv-x="1208" 
d="M913 1812h152l-250 -280h-92zM539 -23q-185 0 -295.5 100.5t-110.5 289.5q0 71 14 157l156 897h113l-160 -901q-14 -96 -14 -149q0 -141 77.5 -215t221.5 -74q157 0 261 99.5t140 303.5l164 936h113l-166 -942q-45 -252 -179 -377t-335 -125z" />
    <glyph glyph-name="Ucircumflex" unicode="&#xdb;" horiz-adv-x="1208" 
d="M758 1812h121l137 -280h-94l-113 188l-180 -188h-105zM539 -23q-185 0 -295.5 100.5t-110.5 289.5q0 71 14 157l156 897h113l-160 -901q-14 -96 -14 -149q0 -141 77.5 -215t221.5 -74q157 0 261 99.5t140 303.5l164 936h113l-166 -942q-45 -252 -179 -377t-335 -125z" />
    <glyph glyph-name="Udieresis" unicode="&#xdc;" horiz-adv-x="1208" 
d="M549 1571l29 153h145l-29 -153h-145zM862 1571l27 153h147l-28 -153h-146zM539 -23q-185 0 -295.5 100.5t-110.5 289.5q0 71 14 157l156 897h113l-160 -901q-14 -96 -14 -149q0 -141 77.5 -215t221.5 -74q157 0 261 99.5t140 303.5l164 936h113l-166 -942
q-45 -252 -179 -377t-335 -125z" />
    <glyph glyph-name="Yacute" unicode="&#xdd;" horiz-adv-x="1095" 
d="M397 0l97 549l-312 872h117l262 -755l529 755h133l-619 -870l-96 -551h-111zM866 1812h152l-250 -280h-92z" />
    <glyph glyph-name="Thorn" unicode="&#xde;" horiz-adv-x="1118" 
d="M1090 780q0 -215 -141.5 -350t-366.5 -135h-340l-52 -295h-112l250 1421h112l-53 -293h336q170 0 268.5 -93.5t98.5 -254.5zM608 397q161 0 265 109t104 272q0 120 -70 184t-202 64h-334l-111 -629h348z" />
    <glyph glyph-name="germandbls" unicode="&#xdf;" horiz-adv-x="1011" 
d="M399 16l17 99q70 -37 162 -37q119 0 178 58.5t59 144.5q0 63 -26 106t-74 90l-88 82q-47 44 -67.5 79.5t-20.5 76.5q0 48 29.5 93t72 82.5t85 76t72 90.5t29.5 110q0 80 -50 127t-136 47q-102 0 -163.5 -61.5t-84.5 -194.5l-190 -1085h-105l160 907h-106l20 94h102l17 99
q29 163 120 250.5t230 87.5q134 0 211.5 -75t77.5 -196q0 -68 -30 -127.5t-72 -100.5t-84.5 -76.5t-72.5 -70t-30 -65.5q0 -24 15.5 -45.5t48.5 -52.5l90 -84q65 -63 97 -122.5t32 -139.5q0 -56 -18.5 -107t-57 -95t-107.5 -70.5t-159 -26.5q-117 0 -183 32z" />
    <glyph glyph-name="agrave" unicode="&#xe0;" horiz-adv-x="946" 
d="M707 0h-97l29 158q-56 -84 -139 -129t-174 -45q-119 0 -193 68.5t-74 178.5q0 124 87 211t229 115l342 66l6 39q8 41 8 79q0 86 -56 134.5t-155 48.5q-201 0 -244 -201h-106q18 145 115.5 221t240.5 76q136 0 220.5 -71.5t84.5 -194.5q0 -51 -8 -92zM336 78
q118 0 218 96.5t128 255.5l16 96l-313 -59q-101 -20 -160 -81t-59 -148q0 -74 44.5 -117t125.5 -43zM377 1421h137l107 -280h-82z" />
    <glyph glyph-name="aacute" unicode="&#xe1;" horiz-adv-x="946" 
d="M707 0h-97l29 158q-56 -84 -139 -129t-174 -45q-119 0 -193 68.5t-74 178.5q0 124 87 211t229 115l342 66l6 39q8 41 8 79q0 86 -56 134.5t-155 48.5q-201 0 -244 -201h-106q18 145 115.5 221t240.5 76q136 0 220.5 -71.5t84.5 -194.5q0 -51 -8 -92zM336 78
q118 0 218 96.5t128 255.5l16 96l-313 -59q-101 -20 -160 -81t-59 -148q0 -74 44.5 -117t125.5 -43zM709 1421h151l-250 -280h-92z" />
    <glyph glyph-name="acircumflex" unicode="&#xe2;" horiz-adv-x="946" 
d="M707 0h-97l29 158q-56 -84 -139 -129t-174 -45q-119 0 -193 68.5t-74 178.5q0 124 87 211t229 115l342 66l6 39q8 41 8 79q0 86 -56 134.5t-155 48.5q-201 0 -244 -201h-106q18 145 115.5 221t240.5 76q136 0 220.5 -71.5t84.5 -194.5q0 -51 -8 -92zM336 78
q118 0 218 96.5t128 255.5l16 96l-313 -59q-101 -20 -160 -81t-59 -148q0 -74 44.5 -117t125.5 -43zM557 1421h121l137 -280h-94l-113 188l-180 -188h-104z" />
    <glyph glyph-name="atilde" unicode="&#xe3;" horiz-adv-x="946" 
d="M707 0h-97l29 158q-56 -84 -139 -129t-174 -45q-119 0 -193 68.5t-74 178.5q0 124 87 211t229 115l342 66l6 39q8 41 8 79q0 86 -56 134.5t-155 48.5q-201 0 -244 -201h-106q18 145 115.5 221t240.5 76q136 0 220.5 -71.5t84.5 -194.5q0 -51 -8 -92zM336 78
q118 0 218 96.5t128 255.5l16 96l-313 -59q-101 -20 -160 -81t-59 -148q0 -74 44.5 -117t125.5 -43zM721 1176q-34 0 -71 21.5t-63.5 48t-54.5 48t-47 21.5q-55 0 -73 -129h-86q31 221 155 221q34 0 71.5 -21.5t64 -47t55 -47t47.5 -21.5q29 0 46 31t26 98h88
q-31 -223 -158 -223z" />
    <glyph glyph-name="adieresis" unicode="&#xe4;" horiz-adv-x="946" 
d="M707 0h-97l29 158q-56 -84 -139 -129t-174 -45q-119 0 -193 68.5t-74 178.5q0 124 87 211t229 115l342 66l6 39q8 41 8 79q0 86 -56 134.5t-155 48.5q-201 0 -244 -201h-106q18 145 115.5 221t240.5 76q136 0 220.5 -71.5t84.5 -194.5q0 -51 -8 -92zM336 78
q118 0 218 96.5t128 255.5l16 96l-313 -59q-101 -20 -160 -81t-59 -148q0 -74 44.5 -117t125.5 -43zM352 1204l29 154h145l-28 -154h-146zM666 1204l26 154h148l-29 -154h-145z" />
    <glyph glyph-name="aring" unicode="&#xe5;" horiz-adv-x="946" 
d="M707 0h-97l29 158q-56 -84 -139 -129t-174 -45q-119 0 -193 68.5t-74 178.5q0 124 87 211t229 115l342 66l6 39q8 41 8 79q0 86 -56 134.5t-155 48.5q-201 0 -244 -201h-106q18 145 115.5 221t240.5 76q136 0 220.5 -71.5t84.5 -194.5q0 -51 -8 -92zM336 78
q118 0 218 96.5t128 255.5l16 96l-313 -59q-101 -20 -160 -81t-59 -148q0 -74 44.5 -117t125.5 -43zM412 1323q0 83 56 139t136 56q82 0 138.5 -56t56.5 -139t-56.5 -139t-138.5 -56q-80 0 -136 56t-56 139zM494 1323q0 -53 30.5 -85t79.5 -32q50 0 81.5 32.5t31.5 84.5
q0 51 -32 84t-81 33t-79.5 -33t-30.5 -84z" />
    <glyph glyph-name="ae" unicode="&#xe6;" horiz-adv-x="1556" 
d="M352 -16q-136 0 -214.5 71t-78.5 193q0 134 99 222.5t288 88.5h259l16 92q10 51 10 90q0 86 -56 134.5t-155 48.5q-201 0 -244 -201h-106q18 145 115.5 221t240.5 76q112 0 189 -51.5t100 -139.5q60 87 144 138t186 51q136 0 227.5 -98.5t91.5 -262.5q0 -101 -22 -188
h-651q-5 -39 -5 -98q0 -132 57.5 -211.5t166.5 -79.5q89 0 160 57t108 160h106q-46 -149 -147.5 -231t-230.5 -82q-107 0 -189 62t-112 177q-56 -121 -149 -180t-204 -59zM356 78q114 0 203.5 82t118.5 248l10 61h-237q-145 0 -215 -61t-70 -156q0 -84 49 -129t141 -45z
M807 559h547q8 58 8 92q0 131 -62.5 202t-160.5 71q-118 0 -206.5 -97t-125.5 -268z" />
    <glyph glyph-name="ccedilla" unicode="&#xe7;" horiz-adv-x="942" 
d="M289 -369q-73 0 -146 31l15 76q73 -35 131 -35q57 0 84.5 22t27.5 58q0 32 -25 49.5t-61 17.5q-40 0 -75 -14l-25 51l98 111q-102 32 -163.5 128.5t-61.5 246.5q0 124 32.5 239.5t90.5 206t147 145t195 54.5q141 0 232 -99t79 -245h-106q10 95 -45.5 171.5t-165.5 76.5
q-105 0 -187 -79t-123.5 -202.5t-41.5 -265.5q0 -144 60.5 -219.5t164.5 -75.5q95 0 171 68.5t105 179.5h107q-43 -159 -146.5 -251.5t-242.5 -92.5q-29 0 -43 2l-58 -76q6 2 25 2q60 0 103.5 -32.5t43.5 -96.5q0 -69 -54 -110.5t-142 -41.5z" />
    <glyph glyph-name="egrave" unicode="&#xe8;" horiz-adv-x="962" 
d="M770 651q0 131 -62.5 202t-160.5 71q-116 0 -206 -97t-128 -268h549q8 58 8 92zM414 -16q-137 0 -231.5 101t-94.5 290q0 98 20.5 192t60.5 175.5t95 143t129 97t158 35.5q138 0 229.5 -98.5t91.5 -262.5q0 -89 -22 -188h-651q-6 -47 -6 -94q0 -132 56 -213.5t169 -81.5
q89 0 160 57t108 160h107q-46 -149 -148 -231t-231 -82zM395 1421h137l107 -280h-82z" />
    <glyph glyph-name="eacute" unicode="&#xe9;" horiz-adv-x="962" 
d="M725 1421h152l-250 -280h-92zM770 651q0 131 -62.5 202t-160.5 71q-116 0 -206 -97t-128 -268h549q8 58 8 92zM414 -16q-137 0 -231.5 101t-94.5 290q0 98 20.5 192t60.5 175.5t95 143t129 97t158 35.5q138 0 229.5 -98.5t91.5 -262.5q0 -89 -22 -188h-651q-6 -47 -6 -94
q0 -132 56 -213.5t169 -81.5q89 0 160 57t108 160h107q-46 -149 -148 -231t-231 -82z" />
    <glyph glyph-name="ecircumflex" unicode="&#xea;" horiz-adv-x="962" 
d="M575 1421h121l138 -280h-95l-112 188l-181 -188h-104zM770 651q0 131 -62.5 202t-160.5 71q-116 0 -206 -97t-128 -268h549q8 58 8 92zM414 -16q-137 0 -231.5 101t-94.5 290q0 98 20.5 192t60.5 175.5t95 143t129 97t158 35.5q138 0 229.5 -98.5t91.5 -262.5
q0 -89 -22 -188h-651q-6 -47 -6 -94q0 -132 56 -213.5t169 -81.5q89 0 160 57t108 160h107q-46 -149 -148 -231t-231 -82z" />
    <glyph glyph-name="edieresis" unicode="&#xeb;" horiz-adv-x="962" 
d="M369 1204l28 154h146l-29 -154h-145zM682 1204l27 154h147l-29 -154h-145zM770 651q0 131 -62.5 202t-160.5 71q-116 0 -206 -97t-128 -268h549q8 58 8 92zM414 -16q-137 0 -231.5 101t-94.5 290q0 98 20.5 192t60.5 175.5t95 143t129 97t158 35.5q138 0 229.5 -98.5
t91.5 -262.5q0 -89 -22 -188h-651q-6 -47 -6 -94q0 -132 56 -213.5t169 -81.5q89 0 160 57t108 160h107q-46 -149 -148 -231t-231 -82z" />
    <glyph glyph-name="igrave" unicode="&#xec;" horiz-adv-x="430" 
d="M176 0h-104l176 1001h104zM131 1421h137l107 -280h-82z" />
    <glyph glyph-name="iacute" unicode="&#xed;" horiz-adv-x="430" 
d="M463 1421h151l-249 -280h-93zM176 0h-104l176 1001h104z" />
    <glyph glyph-name="icircumflex" unicode="&#xee;" horiz-adv-x="430" 
d="M311 1421h121l137 -280h-94l-113 188l-180 -188h-104zM176 0h-104l176 1001h104z" />
    <glyph glyph-name="idieresis" unicode="&#xef;" horiz-adv-x="430" 
d="M104 1204l29 154h146l-29 -154h-146zM418 1204l26 154h148l-29 -154h-145zM176 0h-104l176 1001h104z" />
    <glyph glyph-name="eth" unicode="&#xf0;" horiz-adv-x="968" 
d="M463 1421h127q49 -46 108 -129l195 64l25 -86l-170 -53q133 -249 133 -525q0 -194 -52.5 -352.5t-160.5 -257t-254 -98.5q-141 0 -233.5 102.5t-92.5 290.5q0 118 31.5 231t88 204.5t146.5 147.5t197 56q140 0 211 -103q-48 177 -109 273l-196 -64l-25 84l174 56
q-64 86 -143 159zM420 80q105 0 186.5 79t122.5 202.5t41 265.5q0 144 -60 219.5t-163 75.5q-105 0 -187 -79.5t-123.5 -202.5t-41.5 -261q0 -148 60 -223.5t165 -75.5z" />
    <glyph glyph-name="ntilde" unicode="&#xf1;" horiz-adv-x="995" 
d="M752 0h-105l103 592q18 113 18 156q0 87 -49 132.5t-131 45.5q-120 0 -202 -99t-112 -272l-98 -555h-104l176 1001h98l-27 -149q104 166 291 166q119 0 190.5 -71t71.5 -193q0 -61 -14 -150zM752 1176q-34 0 -71 21.5t-63.5 48t-54.5 48t-47 21.5q-56 0 -74 -129h-86
q31 221 156 221q34 0 71.5 -21.5t64 -47t55 -47t47.5 -21.5q29 0 45.5 31t25.5 98h88q-31 -223 -157 -223z" />
    <glyph glyph-name="ograve" unicode="&#xf2;" horiz-adv-x="968" 
d="M414 -16q-141 0 -233.5 101.5t-92.5 287.5q0 124 32.5 239.5t90.5 206t147 145t195 54.5q142 0 233 -101.5t91 -287.5q0 -124 -32.5 -239.5t-90.5 -206t-146.5 -145t-193.5 -54.5zM420 80q105 0 186.5 79t122.5 202.5t41 265.5q0 144 -60 219.5t-163 75.5
q-105 0 -187 -79t-123.5 -202.5t-41.5 -265.5q0 -144 60.5 -219.5t164.5 -75.5zM401 1421h138l106 -280h-82z" />
    <glyph glyph-name="oacute" unicode="&#xf3;" horiz-adv-x="968" 
d="M735 1421h152l-250 -280h-92zM414 -16q-141 0 -233.5 101.5t-92.5 287.5q0 124 32.5 239.5t90.5 206t147 145t195 54.5q142 0 233 -101.5t91 -287.5q0 -124 -32.5 -239.5t-90.5 -206t-146.5 -145t-193.5 -54.5zM420 80q105 0 186.5 79t122.5 202.5t41 265.5
q0 144 -60 219.5t-163 75.5q-105 0 -187 -79t-123.5 -202.5t-41.5 -265.5q0 -144 60.5 -219.5t164.5 -75.5z" />
    <glyph glyph-name="ocircumflex" unicode="&#xf4;" horiz-adv-x="968" 
d="M580 1421h120l138 -280h-95l-112 188l-180 -188h-105zM414 -16q-141 0 -233.5 101.5t-92.5 287.5q0 124 32.5 239.5t90.5 206t147 145t195 54.5q142 0 233 -101.5t91 -287.5q0 -124 -32.5 -239.5t-90.5 -206t-146.5 -145t-193.5 -54.5zM420 80q105 0 186.5 79
t122.5 202.5t41 265.5q0 144 -60 219.5t-163 75.5q-105 0 -187 -79t-123.5 -202.5t-41.5 -265.5q0 -144 60.5 -219.5t164.5 -75.5z" />
    <glyph glyph-name="otilde" unicode="&#xf5;" horiz-adv-x="968" 
d="M414 -16q-141 0 -233.5 101.5t-92.5 287.5q0 124 32.5 239.5t90.5 206t147 145t195 54.5q142 0 233 -101.5t91 -287.5q0 -124 -32.5 -239.5t-90.5 -206t-146.5 -145t-193.5 -54.5zM420 80q105 0 186.5 79t122.5 202.5t41 265.5q0 144 -60 219.5t-163 75.5
q-105 0 -187 -79t-123.5 -202.5t-41.5 -265.5q0 -144 60.5 -219.5t164.5 -75.5zM741 1176q-34 0 -71 21.5t-63 48t-54 48t-47 21.5q-56 0 -74 -129h-86q31 221 156 221q43 0 90 -34.5t85.5 -68.5t61.5 -34q29 0 46 31t26 98h88q-31 -223 -158 -223z" />
    <glyph glyph-name="odieresis" unicode="&#xf6;" horiz-adv-x="968" 
d="M371 1204l28 154h146l-29 -154h-145zM684 1204l27 154h147l-29 -154h-145zM414 -16q-141 0 -233.5 101.5t-92.5 287.5q0 124 32.5 239.5t90.5 206t147 145t195 54.5q142 0 233 -101.5t91 -287.5q0 -124 -32.5 -239.5t-90.5 -206t-146.5 -145t-193.5 -54.5zM420 80
q105 0 186.5 79t122.5 202.5t41 265.5q0 144 -60 219.5t-163 75.5q-105 0 -187 -79t-123.5 -202.5t-41.5 -265.5q0 -144 60.5 -219.5t164.5 -75.5z" />
    <glyph glyph-name="divide" unicode="&#xf7;" horiz-adv-x="1228" 
d="M606 985l31 182h178l-31 -182h-178zM459 152l33 182h176l-31 -182h-178zM240 614l18 99h778l-18 -99h-778z" />
    <glyph glyph-name="oslash" unicode="&#xf8;" horiz-adv-x="993" 
d="M74 -37h-113l178 203q-41 84 -41 207q0 124 32.5 239.5t90.5 206t147 145t195 54.5q147 0 232 -105l110 125h115l-176 -198q43 -85 43 -211q0 -124 -32.5 -239.5t-90.5 -206t-146.5 -145t-193.5 -54.5q-152 0 -238 108zM430 76q105 0 187.5 80t124.5 204.5t42 266.5
q0 69 -16 125l-516 -582q57 -94 178 -94zM203 375q0 -75 12 -119l514 582q-58 88 -172 88q-105 0 -187.5 -80t-124.5 -204.5t-42 -266.5z" />
    <glyph glyph-name="ugrave" unicode="&#xf9;" horiz-adv-x="980" 
d="M729 0h-100l26 150q-102 -166 -282 -166q-116 0 -185 71t-69 193q0 75 14 149l107 604h104l-102 -591q-19 -111 -19 -154q0 -88 45.5 -134t124.5 -46q117 0 198 100t111 270l97 555h106zM397 1421h138l106 -280h-82z" />
    <glyph glyph-name="uacute" unicode="&#xfa;" horiz-adv-x="980" 
d="M731 1421h152l-250 -280h-92zM729 0h-100l26 150q-102 -166 -282 -166q-116 0 -185 71t-69 193q0 75 14 149l107 604h104l-102 -591q-19 -111 -19 -154q0 -88 45.5 -134t124.5 -46q117 0 198 100t111 270l97 555h106z" />
    <glyph glyph-name="ucircumflex" unicode="&#xfb;" horiz-adv-x="980" 
d="M578 1421h120l138 -280h-95l-112 188l-180 -188h-105zM729 0h-100l26 150q-102 -166 -282 -166q-116 0 -185 71t-69 193q0 75 14 149l107 604h104l-102 -591q-19 -111 -19 -154q0 -88 45.5 -134t124.5 -46q117 0 198 100t111 270l97 555h106z" />
    <glyph glyph-name="udieresis" unicode="&#xfc;" horiz-adv-x="980" 
d="M369 1204l28 154h146l-29 -154h-145zM682 1204l27 154h147l-29 -154h-145zM729 0h-100l26 150q-102 -166 -282 -166q-116 0 -185 71t-69 193q0 75 14 149l107 604h104l-102 -591q-19 -111 -19 -154q0 -88 45.5 -134t124.5 -46q117 0 198 100t111 270l97 555h106z" />
    <glyph glyph-name="yacute" unicode="&#xfd;" horiz-adv-x="878" 
d="M51 -367q-49 0 -102 15l18 96q48 -10 88 -10q67 0 111.5 38.5t85.5 125.5l33 65l-150 1038h107l120 -888l431 888h110l-557 -1128q-62 -127 -131 -183.5t-164 -56.5zM680 1421h151l-249 -280h-93z" />
    <glyph glyph-name="thorn" unicode="&#xfe;" horiz-adv-x="1024" 
d="M930 627q0 -92 -19 -183.5t-57.5 -174.5t-92 -146.5t-129 -101t-161.5 -37.5q-93 0 -165.5 52.5t-98.5 139.5l-92 -534h-107l314 1779h104l-100 -565q44 75 119 118.5t167 43.5q138 0 228 -102.5t90 -288.5zM471 80q105 0 187 79t123.5 202.5t41.5 265.5q0 145 -60 220
t-163 75q-105 0 -187 -79t-123.5 -202.5t-41.5 -265.5q0 -144 60 -219.5t163 -75.5z" />
    <glyph glyph-name="ydieresis" unicode="&#xff;" horiz-adv-x="878" 
d="M51 -367q-49 0 -102 15l18 96q48 -10 88 -10q67 0 111.5 38.5t85.5 125.5l33 65l-150 1038h107l120 -888l431 888h110l-557 -1128q-62 -127 -131 -183.5t-164 -56.5zM317 1204l29 154h146l-29 -154h-146zM631 1204l26 154h148l-29 -154h-145z" />
    <glyph glyph-name="Amacron" unicode="&#x100;" horiz-adv-x="1216" 
d="M956 0l-75 453h-562l-231 -453h-121l733 1421h129l238 -1421h-111zM745 1280l-374 -727h493zM1018 1610h-451l17 92h452z" />
    <glyph glyph-name="amacron" unicode="&#x101;" horiz-adv-x="946" 
d="M707 0h-97l29 158q-56 -84 -139 -129t-174 -45q-119 0 -193 68.5t-74 178.5q0 124 87 211t229 115l342 66l6 39q8 41 8 79q0 86 -56 134.5t-155 48.5q-201 0 -244 -201h-106q18 145 115.5 221t240.5 76q136 0 220.5 -71.5t84.5 -194.5q0 -51 -8 -92zM336 78
q118 0 218 96.5t128 255.5l16 96l-313 -59q-101 -20 -160 -81t-59 -148q0 -74 44.5 -117t125.5 -43zM813 1243h-451l17 92h452z" />
    <glyph glyph-name="Abreve" unicode="&#x102;" horiz-adv-x="1216" 
d="M956 0l-75 453h-562l-231 -453h-121l733 1421h129l238 -1421h-111zM745 1280l-374 -727h493zM799 1528q-112 0 -163.5 72t-35.5 188h88q-9 -82 19.5 -126t91.5 -44q121 0 151 170h88q-43 -260 -239 -260z" />
    <glyph glyph-name="abreve" unicode="&#x103;" horiz-adv-x="946" 
d="M707 0h-97l29 158q-56 -84 -139 -129t-174 -45q-119 0 -193 68.5t-74 178.5q0 124 87 211t229 115l342 66l6 39q8 41 8 79q0 86 -56 134.5t-155 48.5q-201 0 -244 -201h-106q18 145 115.5 221t240.5 76q136 0 220.5 -71.5t84.5 -194.5q0 -51 -8 -92zM336 78
q118 0 218 96.5t128 255.5l16 96l-313 -59q-101 -20 -160 -81t-59 -148q0 -74 44.5 -117t125.5 -43zM590 1161q-112 0 -163.5 72t-35.5 188h88q-9 -82 19.5 -126t91.5 -44q121 0 151 170h88q-43 -260 -239 -260z" />
    <glyph glyph-name="Aogonek" unicode="&#x104;" horiz-adv-x="1216" 
d="M1063 14q-120 -96 -166.5 -154.5t-46.5 -101.5q0 -57 68 -57q44 0 102 23l-14 -82q-38 -19 -107 -19q-66 0 -105.5 30t-39.5 87q0 63 51.5 122.5t148.5 131.5l-75 459h-562l-231 -453h-121l733 1421h129zM743 1280l-374 -727h493z" />
    <glyph glyph-name="aogonek" unicode="&#x105;" horiz-adv-x="946" 
d="M659 -10l31 168q-56 -84 -139.5 -129t-173.5 -45q-119 0 -192.5 69t-73.5 180q0 122 86.5 209t228.5 115l342 66l6 39q8 62 8 79q0 86 -56 134.5t-155 48.5q-200 0 -243 -201h-107q18 145 116 221t241 76q136 0 220.5 -71.5t84.5 -194.5q0 -46 -9 -92l-116 -662
q-116 -87 -161.5 -143t-45.5 -99q0 -57 67 -57q41 0 103 23l-14 -82q-43 -19 -107 -19q-67 0 -107 30.5t-40 88.5q0 60 51 117t155 131zM389 78q117 0 216.5 96.5t127.5 255.5l17 96l-314 -59q-101 -20 -160 -81t-59 -148q0 -74 45 -117t127 -43z" />
    <glyph glyph-name="Cacute" unicode="&#x106;" horiz-adv-x="1259" 
d="M961 1812h151l-250 -280h-92zM588 -23q-206 0 -339.5 150t-133.5 420q0 136 30.5 267.5t90.5 245t141.5 199.5t190.5 135.5t231 49.5q202 0 319.5 -137.5t106.5 -358.5h-113q7 179 -79.5 285t-239.5 106q-126 0 -234.5 -69t-179.5 -182t-111.5 -254t-40.5 -287
q0 -234 103.5 -349.5t267.5 -115.5q152 0 260.5 97t165.5 284h113q-53 -226 -197.5 -356t-351.5 -130z" />
    <glyph glyph-name="cacute" unicode="&#x107;" horiz-adv-x="942" 
d="M733 1421h152l-250 -280h-92zM414 -16q-141 0 -233.5 101.5t-92.5 287.5q0 124 32.5 239.5t90.5 206t147 145t195 54.5q141 0 232 -99t79 -245h-106q10 95 -45.5 171.5t-165.5 76.5q-105 0 -187 -79t-123.5 -202.5t-41.5 -265.5q0 -144 60.5 -219.5t164.5 -75.5
q95 0 171 68.5t105 179.5h107q-43 -159 -146.5 -251.5t-242.5 -92.5z" />
    <glyph glyph-name="Ccircumflex" unicode="&#x108;" horiz-adv-x="1259" 
d="M819 1812h121l137 -280h-94l-113 188l-180 -188h-104zM588 -23q-206 0 -339.5 150t-133.5 420q0 136 30.5 267.5t90.5 245t141.5 199.5t190.5 135.5t231 49.5q202 0 319.5 -137.5t106.5 -358.5h-113q7 179 -79.5 285t-239.5 106q-126 0 -234.5 -69t-179.5 -182
t-111.5 -254t-40.5 -287q0 -234 103.5 -349.5t267.5 -115.5q152 0 260.5 97t165.5 284h113q-53 -226 -197.5 -356t-351.5 -130z" />
    <glyph glyph-name="ccircumflex" unicode="&#x109;" horiz-adv-x="942" 
d="M578 1421h120l138 -280h-95l-112 188l-180 -188h-105zM414 -16q-141 0 -233.5 101.5t-92.5 287.5q0 124 32.5 239.5t90.5 206t147 145t195 54.5q141 0 232 -99t79 -245h-106q10 95 -45.5 171.5t-165.5 76.5q-105 0 -187 -79t-123.5 -202.5t-41.5 -265.5
q0 -144 60.5 -219.5t164.5 -75.5q95 0 171 68.5t105 179.5h107q-43 -159 -146.5 -251.5t-242.5 -92.5z" />
    <glyph glyph-name="Cdotaccent" unicode="&#x10a;" horiz-adv-x="1259" 
d="M588 -23q-206 0 -339.5 150t-133.5 420q0 136 30.5 267.5t90.5 245t141.5 199.5t190.5 135.5t231 49.5q202 0 319.5 -137.5t106.5 -358.5h-113q7 179 -79.5 285t-239.5 106q-126 0 -234.5 -69t-179.5 -182t-111.5 -254t-40.5 -287q0 -234 103.5 -349.5t267.5 -115.5
q152 0 260.5 97t165.5 284h113q-53 -226 -197.5 -356t-351.5 -130zM760 1571l26 153h150l-27 -153h-149z" />
    <glyph glyph-name="cdotaccent" unicode="&#x10b;" horiz-adv-x="942" 
d="M414 -16q-141 0 -233.5 101.5t-92.5 287.5q0 124 32.5 239.5t90.5 206t147 145t195 54.5q141 0 232 -99t79 -245h-106q10 95 -45.5 171.5t-165.5 76.5q-105 0 -187 -79t-123.5 -202.5t-41.5 -265.5q0 -144 60.5 -219.5t164.5 -75.5q95 0 171 68.5t105 179.5h107
q-43 -159 -146.5 -251.5t-242.5 -92.5zM535 1204l26 154h150l-27 -154h-149z" />
    <glyph glyph-name="Ccaron" unicode="&#x10c;" horiz-adv-x="1259" 
d="M891 1532h-121l-137 280h94l111 -188l182 188h104zM588 -23q-206 0 -339.5 150t-133.5 420q0 136 30.5 267.5t90.5 245t141.5 199.5t190.5 135.5t231 49.5q202 0 319.5 -137.5t106.5 -358.5h-113q7 179 -79.5 285t-239.5 106q-126 0 -234.5 -69t-179.5 -182t-111.5 -254
t-40.5 -287q0 -234 103.5 -349.5t267.5 -115.5q152 0 260.5 97t165.5 284h113q-53 -226 -197.5 -356t-351.5 -130z" />
    <glyph glyph-name="ccaron" unicode="&#x10d;" horiz-adv-x="942" 
d="M649 1141h-121l-137 280h94l111 -188l182 188h105zM414 -16q-141 0 -233.5 101.5t-92.5 287.5q0 124 32.5 239.5t90.5 206t147 145t195 54.5q141 0 232 -99t79 -245h-106q10 95 -45.5 171.5t-165.5 76.5q-105 0 -187 -79t-123.5 -202.5t-41.5 -265.5q0 -144 60.5 -219.5
t164.5 -75.5q95 0 171 68.5t105 179.5h107q-43 -159 -146.5 -251.5t-242.5 -92.5z" />
    <glyph glyph-name="Dcaron" unicode="&#x10e;" horiz-adv-x="1271" 
d="M831 1532h-120l-138 280h95l110 -188l183 188h104zM328 1421h403q226 0 353.5 -143t127.5 -395q0 -180 -49 -340t-138 -281t-224 -191.5t-297 -70.5h-426zM207 102h305q104 0 197.5 40.5t164 112.5t122 168t78 210.5t26.5 236.5q0 218 -98 333.5t-283 115.5h-297z" />
    <glyph glyph-name="dcaron" unicode="&#x10f;" horiz-adv-x="1179" 
d="M1223 1421h135l-199 -348h-80zM420 80q105 0 186.5 79t122.5 202.5t41 265.5q0 144 -60 219.5t-163 75.5q-105 0 -187 -79t-123.5 -202.5t-41.5 -265.5q0 -145 60.5 -220t164.5 -75zM406 -16q-138 0 -228 103t-90 286q0 117 31 230.5t87.5 206.5t145 150.5t193.5 57.5
q99 0 169 -52t97 -141l104 596h107l-250 -1421h-100l26 156q-42 -77 -120.5 -124.5t-171.5 -47.5z" />
    <glyph glyph-name="Dcroat" unicode="&#x110;" horiz-adv-x="1306" 
d="M92 664l17 94h137l119 663h401q226 0 353.5 -143t127.5 -395q0 -180 -49 -340t-138 -281t-224 -191.5t-297 -70.5h-424l114 664h-137zM244 102h303q104 0 197.5 40.5t164 112.5t122 168t78 210.5t26.5 236.5q0 218 -98 333.5t-283 115.5h-297l-101 -561h279l-17 -94h-276
z" />
    <glyph glyph-name="dcroat" unicode="&#x111;" horiz-adv-x="1040" 
d="M678 1137l16 88h187l34 196h107l-37 -196h117l-15 -88h-116l-199 -1137h-100l26 156q-42 -77 -120.5 -124.5t-171.5 -47.5q-138 0 -228 103t-90 286q0 117 31 230.5t87.5 206.5t145 150.5t193.5 57.5q99 0 169 -52t97 -141l53 312h-186zM547 922q-105 0 -187 -79
t-123.5 -202.5t-41.5 -265.5q0 -145 60.5 -220t164.5 -75q105 0 186.5 79t122.5 202.5t41 265.5q0 144 -60 219.5t-163 75.5z" />
    <glyph glyph-name="Emacron" unicode="&#x112;" horiz-adv-x="1118" 
d="M78 0l250 1421h831l-20 -104h-719l-94 -535h657l-20 -102h-654l-102 -578h727l-19 -102h-837zM1004 1610h-451l16 92h453z" />
    <glyph glyph-name="emacron" unicode="&#x113;" horiz-adv-x="962" 
d="M770 651q0 131 -62.5 202t-160.5 71q-116 0 -206 -97t-128 -268h549q8 58 8 92zM414 -16q-137 0 -231.5 101t-94.5 290q0 98 20.5 192t60.5 175.5t95 143t129 97t158 35.5q138 0 229.5 -98.5t91.5 -262.5q0 -89 -22 -188h-651q-6 -47 -6 -94q0 -132 56 -213.5t169 -81.5
q89 0 160 57t108 160h107q-46 -149 -148 -231t-231 -82zM829 1243h-450l16 92h453z" />
    <glyph glyph-name="Ebreve" unicode="&#x114;" horiz-adv-x="1118" 
d="M78 0l250 1421h831l-20 -104h-719l-94 -535h657l-20 -102h-654l-102 -578h727l-19 -102h-837zM780 1528q-112 0 -163 71.5t-35 188.5h88q-9 -82 19 -126t91 -44q122 0 152 170h88q-43 -260 -240 -260z" />
    <glyph glyph-name="ebreve" unicode="&#x115;" horiz-adv-x="962" 
d="M770 651q0 131 -62.5 202t-160.5 71q-116 0 -206 -97t-128 -268h549q8 58 8 92zM414 -16q-137 0 -231.5 101t-94.5 290q0 98 20.5 192t60.5 175.5t95 143t129 97t158 35.5q138 0 229.5 -98.5t91.5 -262.5q0 -89 -22 -188h-651q-6 -47 -6 -94q0 -132 56 -213.5t169 -81.5
q89 0 160 57t108 160h107q-46 -149 -148 -231t-231 -82zM604 1161q-112 0 -163 71.5t-35 188.5h88q-9 -82 19 -126t91 -44q122 0 152 170h88q-43 -260 -240 -260z" />
    <glyph glyph-name="Edotaccent" unicode="&#x116;" horiz-adv-x="1118" 
d="M78 0l250 1421h831l-20 -104h-719l-94 -535h657l-20 -102h-654l-102 -578h727l-19 -102h-837zM702 1571l27 153h150l-27 -153h-150z" />
    <glyph glyph-name="edotaccent" unicode="&#x117;" horiz-adv-x="962" 
d="M770 651q0 131 -62.5 202t-160.5 71q-116 0 -206 -97t-128 -268h549q8 58 8 92zM414 -16q-137 0 -231.5 101t-94.5 290q0 98 20.5 192t60.5 175.5t95 143t129 97t158 35.5q138 0 229.5 -98.5t91.5 -262.5q0 -89 -22 -188h-651q-6 -47 -6 -94q0 -132 56 -213.5t169 -81.5
q89 0 160 57t108 160h107q-46 -149 -148 -231t-231 -82zM526 1204l27 154h149l-26 -154h-150z" />
    <glyph glyph-name="Eogonek" unicode="&#x118;" horiz-adv-x="1118" 
d="M934 102l-19 -102q-108 -92 -150 -146t-42 -96q0 -57 65 -57q43 0 105 23l-14 -82q-43 -19 -107 -19q-67 0 -107 30t-40 87q0 63 55 125t156 135h-758l250 1421h831l-20 -104h-719l-94 -535h657l-20 -102h-654l-102 -578h727z" />
    <glyph glyph-name="eogonek" unicode="&#x119;" horiz-adv-x="962" 
d="M414 -16q-140 0 -233 102t-93 287q0 125 33 241t91.5 206t146.5 144t192 54q138 0 229.5 -98.5t91.5 -262.5q0 -89 -22 -188h-651q-6 -47 -6 -94q0 -132 56 -213.5t169 -81.5q89 0 160 57t108 160h107q-28 -94 -79 -157.5t-136 -131.5q-111 -88 -158 -147t-47 -103
q0 -57 67 -57q41 0 103 23l-15 -82q-43 -19 -106 -19q-67 0 -107.5 30.5t-40.5 88.5q0 108 193 246q-16 -4 -53 -4zM770 651q0 131 -62 202t-159 71q-118 0 -208 -97t-128 -268h549q8 58 8 92z" />
    <glyph glyph-name="Ecaron" unicode="&#x11a;" horiz-adv-x="1118" 
d="M819 1532h-121l-137 280h94l111 -188l182 188h105zM78 0l250 1421h831l-20 -104h-719l-94 -535h657l-20 -102h-654l-102 -578h727l-19 -102h-837z" />
    <glyph glyph-name="ecaron" unicode="&#x11b;" horiz-adv-x="962" 
d="M647 1141h-121l-137 280h94l111 -188l182 188h105zM770 651q0 131 -62.5 202t-160.5 71q-116 0 -206 -97t-128 -268h549q8 58 8 92zM414 -16q-137 0 -231.5 101t-94.5 290q0 98 20.5 192t60.5 175.5t95 143t129 97t158 35.5q138 0 229.5 -98.5t91.5 -262.5
q0 -89 -22 -188h-651q-6 -47 -6 -94q0 -132 56 -213.5t169 -81.5q89 0 160 57t108 160h107q-46 -149 -148 -231t-231 -82z" />
    <glyph glyph-name="Gcircumflex" unicode="&#x11c;" horiz-adv-x="1316" 
d="M815 1812h121l137 -280h-94l-113 188l-180 -188h-104zM799 1444q204 0 319.5 -136.5t106.5 -359.5h-113q7 182 -80.5 286.5t-240.5 104.5q-124 0 -231.5 -68.5t-179.5 -180.5t-112.5 -255t-40.5 -294q0 -219 95 -339t253 -120q174 0 309 138.5t187 381.5h-395l18 105h502
l-125 -707h-98l49 279q-73 -148 -189.5 -225t-263.5 -77q-205 0 -329.5 150t-124.5 414q0 178 49.5 341.5t136.5 288t217 199t281 74.5z" />
    <glyph glyph-name="gcircumflex" unicode="&#x11d;" horiz-adv-x="1024" 
d="M600 1421h121l137 -280h-94l-113 188l-180 -188h-104zM422 123q80 0 147.5 46.5t110.5 121t66.5 164.5t23.5 182q0 135 -59.5 211t-163.5 76q-65 0 -121.5 -30.5t-97.5 -82t-70.5 -118t-44 -139.5t-14.5 -146q0 -134 60 -209.5t163 -75.5zM362 -377q-155 0 -244.5 87
t-80.5 229h104q0 -110 58.5 -165t165.5 -55q56 0 101.5 15t88.5 50.5t74 103t47 163.5l22 133q-52 -74 -126.5 -115.5t-159.5 -41.5q-135 0 -226.5 99t-91.5 277q0 155 53 293.5t158 230t240 91.5q102 0 174 -55t96 -142l31 180h100l-172 -972q-71 -406 -412 -406z" />
    <glyph glyph-name="Gbreve" unicode="&#x11e;" horiz-adv-x="1316" 
d="M799 1444q204 0 319.5 -136.5t106.5 -359.5h-113q7 182 -80.5 286.5t-240.5 104.5q-124 0 -231.5 -68.5t-179.5 -180.5t-112.5 -255t-40.5 -294q0 -219 95 -339t253 -120q174 0 309 138.5t187 381.5h-395l18 105h502l-125 -707h-98l49 279q-73 -148 -189.5 -225
t-263.5 -77q-205 0 -329.5 150t-124.5 414q0 178 49.5 341.5t136.5 288t217 199t281 74.5zM846 1528q-112 0 -163.5 72t-35.5 188h88q-9 -82 19.5 -126t91.5 -44q121 0 151 170h88q-43 -260 -239 -260z" />
    <glyph glyph-name="gbreve" unicode="&#x11f;" horiz-adv-x="1024" 
d="M422 123q80 0 147.5 46.5t110.5 121t66.5 164.5t23.5 182q0 135 -59.5 211t-163.5 76q-65 0 -121.5 -30.5t-97.5 -82t-70.5 -118t-44 -139.5t-14.5 -146q0 -134 60 -209.5t163 -75.5zM362 -377q-155 0 -244.5 87t-80.5 229h104q0 -110 58.5 -165t165.5 -55q56 0 101.5 15
t88.5 50.5t74 103t47 163.5l22 133q-52 -74 -126.5 -115.5t-159.5 -41.5q-135 0 -226.5 99t-91.5 277q0 155 53 293.5t158 230t240 91.5q102 0 174 -55t96 -142l31 180h100l-172 -972q-71 -406 -412 -406zM633 1161q-112 0 -163.5 72t-35.5 188h88q-9 -82 19.5 -126
t91.5 -44q121 0 151 170h88q-43 -260 -239 -260z" />
    <glyph glyph-name="Gdotaccent" unicode="&#x120;" horiz-adv-x="1316" 
d="M799 1444q204 0 319.5 -136.5t106.5 -359.5h-113q7 182 -80.5 286.5t-240.5 104.5q-124 0 -231.5 -68.5t-179.5 -180.5t-112.5 -255t-40.5 -294q0 -219 95 -339t253 -120q174 0 309 138.5t187 381.5h-395l18 105h502l-125 -707h-98l49 279q-73 -148 -189.5 -225
t-263.5 -77q-205 0 -329.5 150t-124.5 414q0 178 49.5 341.5t136.5 288t217 199t281 74.5zM768 1571l27 153h149l-26 -153h-150z" />
    <glyph glyph-name="gdotaccent" unicode="&#x121;" horiz-adv-x="1024" 
d="M422 123q80 0 147.5 46.5t110.5 121t66.5 164.5t23.5 182q0 135 -59.5 211t-163.5 76q-65 0 -121.5 -30.5t-97.5 -82t-70.5 -118t-44 -139.5t-14.5 -146q0 -134 60 -209.5t163 -75.5zM362 -377q-155 0 -244.5 87t-80.5 229h104q0 -110 58.5 -165t165.5 -55q56 0 101.5 15
t88.5 50.5t74 103t47 163.5l22 133q-52 -74 -126.5 -115.5t-159.5 -41.5q-135 0 -226.5 99t-91.5 277q0 155 53 293.5t158 230t240 91.5q102 0 174 -55t96 -142l31 180h100l-172 -972q-71 -406 -412 -406zM551 1204l27 154h149l-27 -154h-149z" />
    <glyph glyph-name="Gcommaaccent" unicode="&#x122;" horiz-adv-x="1316" 
d="M606 -92l-31 -180q-13 -75 -61.5 -114.5t-124.5 -39.5l12 70q81 0 99 84l6 30h-72l25 150h147zM799 1444q204 0 319.5 -136.5t106.5 -359.5h-113q7 182 -80.5 286.5t-240.5 104.5q-124 0 -231.5 -68.5t-179.5 -180.5t-112.5 -255t-40.5 -294q0 -219 95 -339t253 -120
q174 0 309 138.5t187 381.5h-395l18 105h502l-125 -707h-98l49 279q-73 -148 -189.5 -225t-263.5 -77q-205 0 -329.5 150t-124.5 414q0 178 49.5 341.5t136.5 288t217 199t281 74.5z" />
    <glyph glyph-name="gcommaaccent" unicode="&#x123;" horiz-adv-x="1024" 
d="M422 123q80 0 147.5 46.5t110.5 121t66.5 164.5t23.5 182q0 135 -59.5 211t-163.5 76q-65 0 -121.5 -30.5t-97.5 -82t-70.5 -118t-44 -139.5t-14.5 -146q0 -134 60 -209.5t163 -75.5zM362 -377q-155 0 -244.5 87t-80.5 229h104q0 -110 58.5 -165t165.5 -55q56 0 101.5 15
t88.5 50.5t74 103t47 163.5l22 133q-52 -74 -126.5 -115.5t-159.5 -41.5q-135 0 -226.5 99t-91.5 277q0 155 53 293.5t158 230t240 91.5q102 0 174 -55t96 -142l31 180h100l-172 -972q-71 -406 -412 -406zM537 1133l32 180q12 74 61 113.5t126 39.5l-15 -69q-80 0 -98 -84
l-6 -31h74l-27 -149h-147z" />
    <glyph glyph-name="Hcircumflex" unicode="&#x124;" horiz-adv-x="1280" 
d="M797 1812h121l137 -280h-94l-113 188l-180 -188h-105zM78 0l250 1421h112l-110 -618h721l108 618h113l-250 -1421h-113l123 698h-721l-121 -698h-112z" />
    <glyph glyph-name="hcircumflex" unicode="&#x125;" horiz-adv-x="995" 
d="M367 1772h120l138 -281h-95l-112 188l-180 -188h-105zM752 0h-105l103 592q18 113 18 156q0 87 -49 132.5t-133 45.5q-120 0 -201.5 -99t-112.5 -272l-96 -555h-104l250 1421h104l-102 -563q47 77 121 118.5t163 41.5q120 0 192 -71t72 -193q0 -61 -14 -150z" />
    <glyph glyph-name="Hbar" unicode="&#x126;" horiz-adv-x="1327" 
d="M143 983l17 94h129l61 344h111l-62 -344h721l60 344h112l-61 -344h131l-16 -94h-132l-172 -983h-112l104 590h-719l-104 -590h-111l172 983h-129zM332 692h721l51 291h-721z" />
    <glyph glyph-name="hbar" unicode="&#x127;" horiz-adv-x="1007" 
d="M168 1137l16 88h115l35 196h104l-35 -196h187l-15 -88h-188l-51 -279q47 76 122.5 118t164.5 42q119 0 190.5 -71t71.5 -193q0 -54 -15 -150l-104 -604h-107l103 592q18 113 18 156q0 87 -48 132.5t-132 45.5q-120 0 -202 -99t-113 -272l-97 -555h-104l201 1137h-117z
" />
    <glyph glyph-name="Itilde" unicode="&#x128;" horiz-adv-x="450" 
d="M78 0l250 1421h112l-250 -1421h-112zM561 1542q-34 0 -71 21.5t-63 48t-54 48t-47 21.5q-56 0 -74 -129h-86q31 222 156 222q34 0 71 -21.5t63.5 -47.5t55 -47.5t47.5 -21.5q29 0 46 31t26 98h88q-31 -223 -158 -223z" />
    <glyph glyph-name="itilde" unicode="&#x129;" horiz-adv-x="430" 
d="M176 0h-104l176 1001h104zM471 1176q-34 0 -71 21.5t-63 48t-54 48t-47 21.5q-56 0 -74 -129h-86q31 221 155 221q34 0 71.5 -21.5t64 -47t55 -47t47.5 -21.5q29 0 46 31t26 98h88q-31 -223 -158 -223z" />
    <glyph glyph-name="Imacron" unicode="&#x12a;" horiz-adv-x="450" 
d="M78 0l250 1421h112l-250 -1421h-112zM645 1610h-450l16 92h453z" />
    <glyph glyph-name="imacron" unicode="&#x12b;" horiz-adv-x="430" 
d="M176 0h-104l176 1001h104zM569 1243h-450l16 92h453z" />
    <glyph glyph-name="Ibreve" unicode="&#x12c;" horiz-adv-x="450" 
d="M78 0l250 1421h112l-250 -1421h-112zM424 1528q-112 0 -163.5 72t-35.5 188h88q-9 -82 19.5 -126t91.5 -44q121 0 151 170h89q-43 -260 -240 -260z" />
    <glyph glyph-name="ibreve" unicode="&#x12d;" horiz-adv-x="430" 
d="M176 0h-104l176 1001h104zM344 1161q-112 0 -163.5 72t-35.5 188h88q-9 -82 19.5 -126t91.5 -44q122 0 152 170h88q-43 -260 -240 -260z" />
    <glyph glyph-name="Iogonek" unicode="&#x12e;" horiz-adv-x="450" 
d="M477 1421l-248 -1417q-109 -91 -152.5 -147.5t-43.5 -98.5q0 -57 67 -57q46 0 103 23l-15 -82q-43 -19 -106 -19q-66 0 -105.5 30t-39.5 87t44 109t130 122l254 1450h112z" />
    <glyph glyph-name="iogonek" unicode="&#x12f;" horiz-adv-x="430" 
d="M391 1001l-176 -1001q-108 -92 -150 -146t-42 -96q0 -57 65 -57q43 0 105 23l-15 -82q-43 -19 -106 -19q-67 0 -107.5 30t-40.5 87q0 59 45.5 111t136.5 122l181 1028h104zM449 1206h-150l27 154h149z" />
    <glyph glyph-name="Idotaccent" unicode="&#x130;" horiz-adv-x="450" 
d="M78 0l250 1421h112l-250 -1421h-112zM340 1571l27 153h149l-27 -153h-149z" />
    <glyph glyph-name="dotlessi" unicode="&#x131;" horiz-adv-x="430" 
d="M176 0h-104l176 1001h104z" />
    <glyph glyph-name="IJ" unicode="&#x132;" horiz-adv-x="1441" 
d="M78 0l250 1421h112l-250 -1421h-112zM502 502h106q-20 -95 -20 -154q0 -124 66 -195t184 -71q130 0 213.5 94t117.5 279l170 966h111l-170 -970q-42 -232 -155.5 -353t-295.5 -121q-166 0 -258 100.5t-92 268.5q0 66 23 156z" />
    <glyph glyph-name="ij" unicode="&#x133;" horiz-adv-x="847" 
d="M410 1206h-150l27 154h149zM176 0h-104l176 1001h104zM827 1206h-149l27 154h149zM297 -367q-39 0 -92 11l18 96q50 -8 68 -8q150 0 184 198l191 1071h104l-188 -1075q-51 -293 -285 -293z" />
    <glyph glyph-name="Jcircumflex" unicode="&#x134;" horiz-adv-x="1003" 
d="M967 1812h120l138 -280h-95l-112 188l-180 -188h-105zM63 502h107q-20 -95 -20 -154q0 -124 65.5 -195t183.5 -71q130 0 214 94t118 279l170 966h111l-170 -970q-42 -232 -155.5 -353t-295.5 -121q-166 0 -258 100.5t-92 268.5q0 70 22 156z" />
    <glyph glyph-name="jcircumflex" unicode="&#x135;" horiz-adv-x="430" 
d="M-121 -367q-39 0 -92 11l18 96q50 -8 68 -8q150 0 184 198l191 1071h104l-188 -1075q-51 -293 -285 -293zM309 1421h121l137 -280h-94l-113 188l-180 -188h-104z" />
    <glyph glyph-name="Kcommaaccent" unicode="&#x136;" horiz-adv-x="1132" 
d="M573 -92l-30 -180q-13 -74 -62 -114t-125 -40l13 70q80 0 98 84l6 30h-72l25 150h147zM78 0l250 1421h112l-137 -770l803 770h149l-630 -602l368 -819h-116l-336 745l-265 -249l-86 -496h-112z" />
    <glyph glyph-name="kcommaaccent" unicode="&#x137;" horiz-adv-x="888" 
d="M463 -92l-31 -180q-13 -75 -61.5 -114.5t-124.5 -39.5l12 70q80 0 98 84l6 30h-71l24 150h148zM178 0h-106l250 1421h106l-160 -899l516 479h138l-441 -409l277 -592h-117l-242 522l-155 -147z" />
    <glyph glyph-name="kgreenlandic" unicode="&#x138;" horiz-adv-x="888" 
d="M178 0h-106l176 1001h106l-86 -479l516 479h138l-441 -409l277 -592h-117l-242 522l-155 -147z" />
    <glyph glyph-name="Lacute" unicode="&#x139;" horiz-adv-x="1001" 
d="M549 1812h151l-249 -280h-93zM78 0l250 1421h110l-229 -1319h651l-16 -102h-766z" />
    <glyph glyph-name="lacute" unicode="&#x13a;" horiz-adv-x="430" 
d="M530 1772h152l-250 -281h-92zM178 0h-106l250 1421h106z" />
    <glyph glyph-name="Lcommaaccent" unicode="&#x13b;" horiz-adv-x="1001" 
d="M526 -92l-30 -180q-13 -74 -62 -114t-125 -40l13 70q80 0 98 84l6 30h-72l25 150h147zM78 0l250 1421h110l-229 -1319h651l-16 -102h-766z" />
    <glyph glyph-name="lcommaaccent" unicode="&#x13c;" horiz-adv-x="430" 
d="M197 -92l-31 -180q-13 -75 -61.5 -114.5t-124.5 -39.5l12 70q80 0 98 84l6 30h-71l24 150h148zM193 0h-107l250 1421h106z" />
    <glyph glyph-name="Lcaron" unicode="&#x13d;" horiz-adv-x="1001" 
d="M838 1421h135l-199 -348h-80zM78 0l250 1421h110l-229 -1319h651l-16 -102h-766z" />
    <glyph glyph-name="lcaron" unicode="&#x13e;" horiz-adv-x="579" 
d="M629 1421h135l-199 -348h-80zM178 0h-106l250 1421h106z" />
    <glyph glyph-name="Ldot" unicode="&#x13f;" horiz-adv-x="1001" 
d="M78 0l250 1421h110l-229 -1319h651l-16 -102h-766zM662 612l32 185h176l-32 -185h-176z" />
    <glyph glyph-name="ldot" unicode="&#x140;" horiz-adv-x="653" 
d="M178 0h-106l250 1421h106zM434 457l33 184h176l-33 -184h-176z" />
    <glyph glyph-name="Lslash" unicode="&#x141;" horiz-adv-x="1034" 
d="M59 487l19 117l151 86l129 731h111l-115 -661l287 166l-20 -117l-287 -166l-94 -541h651l-19 -102h-763l100 573z" />
    <glyph glyph-name="lslash" unicode="&#x142;" horiz-adv-x="450" 
d="M328 1421h106l-127 -719l135 93l-20 -113l-135 -94l-103 -588h-106l90 508l-131 -88l20 112l129 91z" />
    <glyph glyph-name="Nacute" unicode="&#x143;" horiz-adv-x="1284" 
d="M956 1812h152l-250 -280h-92zM1026 0h-137l-477 1268l-224 -1268h-110l250 1421h137l477 -1269l221 1269h113z" />
    <glyph glyph-name="nacute" unicode="&#x144;" horiz-adv-x="995" 
d="M672 1421h151l-250 -280h-92zM752 0h-105l103 592q18 113 18 156q0 87 -49 132.5t-131 45.5q-120 0 -202 -99t-112 -272l-98 -555h-104l176 1001h98l-27 -149q104 166 291 166q119 0 190.5 -71t71.5 -193q0 -61 -14 -150z" />
    <glyph glyph-name="Ncommaaccent" unicode="&#x145;" horiz-adv-x="1284" 
d="M602 -92l-31 -180q-13 -75 -61.5 -114.5t-124.5 -39.5l12 70q81 0 99 84l6 30h-72l25 150h147zM1026 0h-137l-477 1268l-224 -1268h-110l250 1421h137l477 -1269l221 1269h113z" />
    <glyph glyph-name="ncommaaccent" unicode="&#x146;" horiz-adv-x="995" 
d="M492 -92l-31 -180q-13 -74 -62 -114t-125 -40l13 70q80 0 98 84l6 30h-72l25 150h148zM752 0h-105l103 592q18 113 18 156q0 87 -49 132.5t-131 45.5q-120 0 -202 -99t-112 -272l-98 -555h-104l176 1001h98l-27 -149q104 166 291 166q119 0 190.5 -71t71.5 -193
q0 -61 -14 -150z" />
    <glyph glyph-name="Ncaron" unicode="&#x147;" horiz-adv-x="1284" 
d="M872 1532h-120l-138 280h95l110 -188l182 188h105zM1026 0h-137l-477 1268l-224 -1268h-110l250 1421h137l477 -1269l221 1269h113z" />
    <glyph glyph-name="ncaron" unicode="&#x148;" horiz-adv-x="995" 
d="M678 1141h-121l-137 280h94l111 -188l182 188h104zM752 0h-105l103 592q18 113 18 156q0 87 -49 132.5t-131 45.5q-120 0 -202 -99t-112 -272l-98 -555h-104l176 1001h98l-27 -149q104 166 291 166q119 0 190.5 -71t71.5 -193q0 -61 -14 -150z" />
    <glyph glyph-name="napostrophe" unicode="&#x149;" horiz-adv-x="1261" 
d="M432 1421l-37 -225q-39 -221 -245 -221l12 74q65 0 101.5 35t49.5 110l11 51h-91l31 176h168zM1018 0h-105l103 592q18 113 18 156q0 87 -49 132.5t-131 45.5q-120 0 -201.5 -99t-111.5 -272l-99 -555h-104l176 1001h98l-26 -149q104 166 291 166q119 0 190.5 -71
t71.5 -193q0 -54 -15 -150z" />
    <glyph glyph-name="Eng" unicode="&#x14a;" horiz-adv-x="1284" 
d="M633 -356l20 96q50 -8 70 -8q145 0 182 202l10 66h-26l-477 1268l-224 -1268h-110l250 1421h137l477 -1269l221 1269h113l-264 -1495q-51 -293 -285 -293q-41 0 -94 11z" />
    <glyph glyph-name="eng" unicode="&#x14b;" horiz-adv-x="995" 
d="M633 -70l117 662q18 95 18 156q0 87 -49 132.5t-131 45.5q-120 0 -202 -99t-112 -272l-98 -555h-104l176 1001h98l-27 -149q104 166 291 166q119 0 189.5 -71t70.5 -193q0 -74 -12 -150l-119 -678q-51 -293 -284 -293q-42 0 -95 11l21 96q50 -8 70 -8q145 0 182 198z" />
    <glyph glyph-name="Omacron" unicode="&#x14c;" horiz-adv-x="1339" 
d="M1079 1610h-450l16 92h453zM594 -23q-218 0 -348.5 153t-130.5 413q0 140 31 273t90.5 246t141.5 199t190.5 134.5t230.5 48.5q218 0 347.5 -152.5t129.5 -412.5q0 -140 -30.5 -273.5t-90.5 -247t-141.5 -199t-190 -134t-229.5 -48.5zM598 82q125 0 233 68.5t179.5 180.5
t112 255t40.5 293q0 222 -98.5 341t-271.5 119q-100 0 -190 -44t-157.5 -121.5t-117.5 -178t-75.5 -217t-25.5 -235.5q0 -222 99.5 -341.5t271.5 -119.5z" />
    <glyph glyph-name="omacron" unicode="&#x14d;" horiz-adv-x="968" 
d="M836 1243h-451l16 92h453zM414 -16q-141 0 -233.5 101.5t-92.5 287.5q0 124 32.5 239.5t90.5 206t147 145t195 54.5q142 0 233 -101.5t91 -287.5q0 -124 -32.5 -239.5t-90.5 -206t-146.5 -145t-193.5 -54.5zM420 80q105 0 186.5 79t122.5 202.5t41 265.5q0 144 -60 219.5
t-163 75.5q-105 0 -187 -79t-123.5 -202.5t-41.5 -265.5q0 -144 60.5 -219.5t164.5 -75.5z" />
    <glyph glyph-name="Obreve" unicode="&#x14e;" horiz-adv-x="1339" 
d="M594 -23q-218 0 -348.5 153t-130.5 413q0 140 31 273t90.5 246t141.5 199t190.5 134.5t230.5 48.5q218 0 347.5 -152.5t129.5 -412.5q0 -140 -30.5 -273.5t-90.5 -247t-141.5 -199t-190 -134t-229.5 -48.5zM598 82q125 0 233 68.5t179.5 180.5t112 255t40.5 293
q0 222 -98.5 341t-271.5 119q-100 0 -190 -44t-157.5 -121.5t-117.5 -178t-75.5 -217t-25.5 -235.5q0 -222 99.5 -341.5t271.5 -119.5zM856 1528q-112 0 -163.5 72t-35.5 188h88q-9 -82 19.5 -126t91.5 -44q122 0 152 170h88q-43 -260 -240 -260z" />
    <glyph glyph-name="obreve" unicode="&#x14f;" horiz-adv-x="968" 
d="M414 -16q-141 0 -233.5 101.5t-92.5 287.5q0 124 32.5 239.5t90.5 206t147 145t195 54.5q142 0 233 -101.5t91 -287.5q0 -124 -32.5 -239.5t-90.5 -206t-146.5 -145t-193.5 -54.5zM420 80q105 0 186.5 79t122.5 202.5t41 265.5q0 144 -60 219.5t-163 75.5
q-105 0 -187 -79t-123.5 -202.5t-41.5 -265.5q0 -144 60.5 -219.5t164.5 -75.5zM614 1161q-112 0 -163 71.5t-35 188.5h88q-9 -82 19 -126t91 -44q122 0 152 170h88q-43 -260 -240 -260z" />
    <glyph glyph-name="Ohungarumlaut" unicode="&#x150;" horiz-adv-x="1339" 
d="M858 1812h135l-229 -288h-88zM1073 1812h135l-229 -288h-88zM594 -23q-218 0 -348.5 153t-130.5 413q0 140 31 273t90.5 246t141.5 199t190.5 134.5t230.5 48.5q218 0 347.5 -152.5t129.5 -412.5q0 -140 -30.5 -273.5t-90.5 -247t-141.5 -199t-190 -134t-229.5 -48.5z
M598 82q125 0 233 68.5t179.5 180.5t112 255t40.5 293q0 222 -98.5 341t-271.5 119q-100 0 -190 -44t-157.5 -121.5t-117.5 -178t-75.5 -217t-25.5 -235.5q0 -222 99.5 -341.5t271.5 -119.5z" />
    <glyph glyph-name="ohungarumlaut" unicode="&#x151;" horiz-adv-x="968" 
d="M610 1421h135l-229 -288h-88zM825 1421h136l-230 -288h-88zM414 -16q-141 0 -233.5 101.5t-92.5 287.5q0 124 32.5 239.5t90.5 206t147 145t195 54.5q142 0 233 -101.5t91 -287.5q0 -124 -32.5 -239.5t-90.5 -206t-146.5 -145t-193.5 -54.5zM420 80q105 0 186.5 79
t122.5 202.5t41 265.5q0 144 -60 219.5t-163 75.5q-105 0 -187 -79t-123.5 -202.5t-41.5 -265.5q0 -144 60.5 -219.5t164.5 -75.5z" />
    <glyph glyph-name="OE" unicode="&#x152;" horiz-adv-x="2068" 
d="M799 1444q156 0 268 -80.5t162 -226.5l49 284h829l-18 -104h-719l-94 -535h655l-18 -102h-656l-100 -578h727l-18 -102h-838l41 229q-88 -120 -210 -186t-265 -66q-218 0 -348.5 153t-130.5 413q0 140 31 273t91 246t142 199t190.5 134.5t229.5 48.5zM600 82
q124 0 232 68.5t179.5 180.5t112.5 255t41 293q0 222 -99.5 341t-272.5 119q-124 0 -231.5 -68t-179.5 -180t-112.5 -255t-40.5 -293q0 -222 99 -341.5t272 -119.5z" />
    <glyph glyph-name="oe" unicode="&#x153;" horiz-adv-x="1624" 
d="M414 -16q-141 0 -233.5 101.5t-92.5 287.5q0 124 32.5 239.5t90.5 206t147 145t195 54.5q107 0 187.5 -61t113.5 -175q63 108 153.5 172t206.5 64q136 0 228 -98.5t92 -262.5q0 -80 -23 -188h-651q-6 -47 -6 -102q0 -127 57 -207t168 -80q90 0 161 57.5t108 159.5h106
q-46 -149 -148.5 -231t-228.5 -82q-107 0 -188 59t-115 174q-61 -107 -154 -170t-206 -63zM547 922q-105 0 -187 -79t-123.5 -202.5t-41.5 -265.5q0 -144 60.5 -219.5t164.5 -75.5q105 0 186.5 79t122.5 202.5t41 265.5q0 144 -60 219.5t-163 75.5zM877 559h546q9 74 9 92
q0 131 -62.5 202t-159.5 71q-118 0 -207 -97t-126 -268z" />
    <glyph glyph-name="Racute" unicode="&#x154;" horiz-adv-x="1216" 
d="M889 1812h151l-249 -280h-93zM78 0l250 1421h491q162 0 257 -91.5t95 -246.5q0 -165 -101 -288.5t-271 -149.5l243 -645h-116l-240 635h-385l-111 -635h-112zM717 739q157 0 249.5 100.5t92.5 241.5q0 114 -67.5 176t-186.5 62h-385l-101 -580h398z" />
    <glyph glyph-name="racute" unicode="&#x155;" horiz-adv-x="651" 
d="M539 1421h151l-250 -280h-92zM178 0h-106l176 1001h98l-31 -172q56 92 132 140.5t161 48.5q12 0 66 -4l-19 -111q-50 4 -67 4q-114 0 -199.5 -90t-112.5 -244z" />
    <glyph glyph-name="Rcommaaccent" unicode="&#x156;" horiz-adv-x="1216" 
d="M608 -92l-30 -180q-13 -74 -62 -114t-125 -40l12 70q81 0 99 84l6 30h-72l25 150h147zM78 0l250 1421h491q162 0 257 -91.5t95 -246.5q0 -165 -101 -288.5t-271 -149.5l243 -645h-116l-240 635h-385l-111 -635h-112zM717 739q157 0 249.5 100.5t92.5 241.5
q0 114 -67.5 176t-186.5 62h-385l-101 -580h398z" />
    <glyph glyph-name="rcommaaccent" unicode="&#x157;" horiz-adv-x="651" 
d="M199 -92l-31 -180q-13 -75 -61.5 -114.5t-124.5 -39.5l12 70q80 0 98 84l6 30h-71l24 150h148zM197 0h-107l176 1001h99l-31 -172q56 92 132 140.5t161 48.5q11 0 65 -4l-18 -111q-50 4 -68 4q-114 0 -198.5 -90t-112.5 -244z" />
    <glyph glyph-name="Rcaron" unicode="&#x158;" horiz-adv-x="1216" 
d="M807 1532h-121l-137 280h94l111 -188l182 188h104zM78 0l250 1421h491q162 0 257 -91.5t95 -246.5q0 -165 -101 -288.5t-271 -149.5l243 -645h-116l-240 635h-385l-111 -635h-112zM717 739q157 0 249.5 100.5t92.5 241.5q0 114 -67.5 176t-186.5 62h-385l-101 -580h398z
" />
    <glyph glyph-name="rcaron" unicode="&#x159;" horiz-adv-x="651" 
d="M514 1141h-121l-137 280h94l111 -188l182 188h105zM178 0h-106l176 1001h98l-31 -172q56 92 132 140.5t161 48.5q12 0 66 -4l-19 -111q-50 4 -67 4q-114 0 -199.5 -90t-112.5 -244z" />
    <glyph glyph-name="Sacute" unicode="&#x15a;" horiz-adv-x="1118" 
d="M862 1812h152l-250 -280h-92zM967 387q0 -180 -130 -295t-329 -115q-205 0 -332 116.5t-123 309.5h111q0 -148 95.5 -236.5t250.5 -88.5q148 0 246 84.5t98 218.5q0 177 -172 252l-188 82q-121 53 -185.5 141.5t-64.5 206.5q0 165 117 273t294 108q187 0 307 -114.5
t119 -301.5h-112q0 139 -88 227t-226 88q-130 0 -214.5 -79t-84.5 -199q0 -83 47.5 -148t135.5 -102l188 -82q112 -47 176 -136t64 -210z" />
    <glyph glyph-name="sacute" unicode="&#x15b;" horiz-adv-x="878" 
d="M686 1421h152l-250 -280h-92zM381 -16q-154 0 -247.5 82.5t-90.5 230.5h104q0 -102 61.5 -160.5t172.5 -58.5q107 0 171 50t64 136q0 62 -34 103.5t-109 70.5l-90 35q-209 82 -209 260q0 127 89 206t229 79q141 0 228.5 -79t88.5 -218h-107q0 96 -57 149.5t-153 53.5
t-156 -49t-60 -134q0 -118 142 -176l90 -35q211 -82 211 -260q0 -129 -93.5 -207.5t-244.5 -78.5z" />
    <glyph glyph-name="Scircumflex" unicode="&#x15c;" horiz-adv-x="1118" 
d="M709 1812h120l138 -280h-95l-112 188l-180 -188h-105zM967 387q0 -180 -130 -295t-329 -115q-205 0 -332 116.5t-123 309.5h111q0 -148 95.5 -236.5t250.5 -88.5q148 0 246 84.5t98 218.5q0 177 -172 252l-188 82q-121 53 -185.5 141.5t-64.5 206.5q0 165 117 273
t294 108q187 0 307 -114.5t119 -301.5h-112q0 139 -88 227t-226 88q-130 0 -214.5 -79t-84.5 -199q0 -83 47.5 -148t135.5 -102l188 -82q112 -47 176 -136t64 -210z" />
    <glyph glyph-name="scircumflex" unicode="&#x15d;" horiz-adv-x="878" 
d="M532 1421h121l138 -280h-95l-112 188l-181 -188h-104zM381 -16q-154 0 -247.5 82.5t-90.5 230.5h104q0 -102 61.5 -160.5t172.5 -58.5q107 0 171 50t64 136q0 62 -34 103.5t-109 70.5l-90 35q-209 82 -209 260q0 127 89 206t229 79q141 0 228.5 -79t88.5 -218h-107
q0 96 -57 149.5t-153 53.5t-156 -49t-60 -134q0 -118 142 -176l90 -35q211 -82 211 -260q0 -129 -93.5 -207.5t-244.5 -78.5z" />
    <glyph glyph-name="Scedilla" unicode="&#x15e;" horiz-adv-x="1118" 
d="M410 -369q-77 0 -146 31l12 76q73 -35 132 -35q58 0 86 22t28 58q0 32 -25 49.5t-61 17.5q-41 0 -76 -14l-26 51l86 97q-170 24 -270.5 136t-96.5 283h111q0 -148 95.5 -236.5t250.5 -88.5q148 0 246 84.5t98 218.5q0 177 -172 252l-188 82q-121 53 -185.5 141.5
t-64.5 206.5q0 165 117 273t294 108q187 0 307 -114.5t119 -301.5h-112q0 139 -88 227t-226 88q-130 0 -214.5 -79t-84.5 -199q0 -83 47.5 -148t135.5 -102l188 -82q112 -47 176 -136t64 -210q0 -180 -130 -295t-329 -115h-23l-51 -67q6 2 23 2q62 0 105.5 -32.5t43.5 -96.5
q0 -69 -54 -110.5t-142 -41.5z" />
    <glyph glyph-name="scedilla" unicode="&#x15f;" horiz-adv-x="878" 
d="M283 -369q-75 0 -148 31l15 76q73 -35 131 -35q112 0 112 80q0 32 -24.5 49.5t-61.5 17.5q-42 0 -74 -14l-26 51l90 105q-119 19 -188 98.5t-66 206.5h104q0 -102 61.5 -160.5t172.5 -58.5q107 0 171 50t64 136q0 62 -34 103.5t-109 70.5l-90 35q-209 82 -209 260
q0 127 89 206t229 79q141 0 228.5 -79t88.5 -218h-107q0 96 -57 149.5t-153 53.5t-156 -49t-60 -134q0 -118 142 -176l90 -35q211 -82 211 -260q0 -129 -93.5 -207.5t-244.5 -78.5h-21l-55 -74q8 2 25 2q60 0 103.5 -32.5t43.5 -96.5q0 -69 -53.5 -110.5t-140.5 -41.5z" />
    <glyph glyph-name="Scaron" unicode="&#x160;" horiz-adv-x="1118" 
d="M780 1532h-121l-137 280h94l111 -188l182 188h105zM967 387q0 -180 -130 -295t-329 -115q-205 0 -332 116.5t-123 309.5h111q0 -148 95.5 -236.5t250.5 -88.5q148 0 246 84.5t98 218.5q0 177 -172 252l-188 82q-121 53 -185.5 141.5t-64.5 206.5q0 165 117 273t294 108
q187 0 307 -114.5t119 -301.5h-112q0 139 -88 227t-226 88q-130 0 -214.5 -79t-84.5 -199q0 -83 47.5 -148t135.5 -102l188 -82q112 -47 176 -136t64 -210z" />
    <glyph glyph-name="scaron" unicode="&#x161;" horiz-adv-x="878" 
d="M604 1141h-121l-137 280h94l111 -188l182 188h105zM381 -16q-154 0 -247.5 82.5t-90.5 230.5h104q0 -102 61.5 -160.5t172.5 -58.5q107 0 171 50t64 136q0 62 -34 103.5t-109 70.5l-90 35q-209 82 -209 260q0 127 89 206t229 79q141 0 228.5 -79t88.5 -218h-107
q0 96 -57 149.5t-153 53.5t-156 -49t-60 -134q0 -118 142 -176l90 -35q211 -82 211 -260q0 -129 -93.5 -207.5t-244.5 -78.5z" />
    <glyph glyph-name="Tcommaaccent" unicode="&#x162;" horiz-adv-x="1083" 
d="M401 -369q-76 0 -145 31l12 76q73 -35 131 -35t86.5 22t28.5 58q0 32 -25 49.5t-61 17.5q-41 0 -76 -14l-26 51l67 72l242 1360h-428l20 102h967l-20 -102h-429l-231 -1315l-88 -92h23q62 0 105.5 -32.5t43.5 -96.5q0 -69 -54.5 -110.5t-142.5 -41.5z" />
    <glyph glyph-name="tcommaaccent" unicode="&#x163;" horiz-adv-x="620" 
d="M197 -369q-73 0 -146 31l15 76q73 -35 131 -35q57 0 84.5 22t27.5 58q0 32 -25 49.5t-61 17.5q-41 0 -76 -14l-24 51l108 121q-92 52 -92 164q0 26 11 100l112 635h-117l19 94h121l47 271h100l-47 -271h250l-19 -94h-249l-109 -622q-12 -70 -12 -95q0 -108 121 -108
q46 0 112 16l-16 -100q-68 -14 -119 -14q-31 0 -63 8l-60 -82q6 2 25 2q60 0 103.5 -32.5t43.5 -96.5q0 -69 -54 -110.5t-142 -41.5z" />
    <glyph glyph-name="Tcaron" unicode="&#x164;" horiz-adv-x="1083" 
d="M780 1532h-121l-137 280h94l111 -188l182 188h105zM1184 1421l-21 -102h-428l-231 -1319h-111l232 1319h-428l20 102h967z" />
    <glyph glyph-name="tcaron" unicode="&#x165;" horiz-adv-x="620" 
d="M655 1524h136l-199 -348h-80zM344 -16q-91 0 -148 48.5t-57 139.5q0 26 11 100l112 635h-117l19 94h121l47 271h100l-47 -271h250l-19 -94h-249l-109 -622q-12 -70 -12 -95q0 -108 121 -108q46 0 112 16l-16 -100q-68 -14 -119 -14z" />
    <glyph glyph-name="Tbar" unicode="&#x166;" horiz-adv-x="1083" 
d="M1182 1421l-21 -102h-428l-96 -557h252l-17 -92h-254l-114 -670h-113l117 670h-250l16 92h250l99 557h-426l20 102h965z" />
    <glyph glyph-name="tbar" unicode="&#x167;" horiz-adv-x="649" 
d="M356 -16q-91 0 -147.5 48.5t-56.5 139.5q0 32 10 100l47 279h-115l17 90h116l45 266h-114l18 94h121l47 271h100l-49 -271h252l-18 -94h-252l-47 -266h209l-17 -90h-207l-47 -266q-10 -58 -10 -95q0 -108 121 -108q47 0 113 16l-19 -100q-68 -14 -117 -14z" />
    <glyph glyph-name="Utilde" unicode="&#x168;" horiz-adv-x="1208" 
d="M539 -23q-185 0 -295.5 100.5t-110.5 289.5q0 71 14 157l156 897h113l-160 -901q-14 -96 -14 -149q0 -141 77.5 -215t221.5 -74q157 0 261 99.5t140 303.5l164 936h113l-166 -942q-45 -252 -179 -377t-335 -125zM918 1542q-34 0 -71 21.5t-63.5 48t-54.5 48t-47 21.5
q-56 0 -74 -129h-86q31 222 156 222q34 0 71 -21.5t63.5 -47.5t55 -47.5t47.5 -21.5q29 0 46 31t26 98h88q-31 -223 -157 -223z" />
    <glyph glyph-name="utilde" unicode="&#x169;" horiz-adv-x="980" 
d="M729 0h-100l26 150q-102 -166 -282 -166q-116 0 -185 71t-69 193q0 75 14 149l107 604h104l-102 -591q-19 -111 -19 -154q0 -88 45.5 -134t124.5 -46q117 0 198 100t111 270l97 555h106zM737 1176q-34 0 -71 21.5t-63 48t-54 48t-47 21.5q-56 0 -74 -129h-86
q31 221 156 221q43 0 90 -34.5t85.5 -68.5t61.5 -34q29 0 46 31t26 98h88q-31 -223 -158 -223z" />
    <glyph glyph-name="Umacron" unicode="&#x16a;" horiz-adv-x="1208" 
d="M539 -23q-185 0 -295.5 100.5t-110.5 289.5q0 71 14 157l156 897h113l-160 -901q-14 -96 -14 -149q0 -141 77.5 -215t221.5 -74q157 0 261 99.5t140 303.5l164 936h113l-166 -942q-45 -252 -179 -377t-335 -125zM1012 1610h-451l17 92h452z" />
    <glyph glyph-name="umacron" unicode="&#x16b;" horiz-adv-x="980" 
d="M729 0h-100l26 150q-102 -166 -282 -166q-116 0 -185 71t-69 193q0 75 14 149l107 604h104l-102 -591q-19 -111 -19 -154q0 -88 45.5 -134t124.5 -46q117 0 198 100t111 270l97 555h106zM834 1243h-451l16 92h453z" />
    <glyph glyph-name="Ubreve" unicode="&#x16c;" horiz-adv-x="1208" 
d="M539 -23q-185 0 -295.5 100.5t-110.5 289.5q0 71 14 157l156 897h113l-160 -901q-14 -96 -14 -149q0 -141 77.5 -215t221.5 -74q157 0 261 99.5t140 303.5l164 936h113l-166 -942q-45 -252 -179 -377t-335 -125zM793 1528q-112 0 -163.5 72t-35.5 188h88
q-9 -82 19.5 -126t91.5 -44q121 0 151 170h88q-43 -260 -239 -260z" />
    <glyph glyph-name="ubreve" unicode="&#x16d;" horiz-adv-x="980" 
d="M729 0h-100l26 150q-102 -166 -282 -166q-116 0 -185 71t-69 193q0 75 14 149l107 604h104l-102 -591q-19 -111 -19 -154q0 -88 45.5 -134t124.5 -46q117 0 198 100t111 270l97 555h106zM610 1161q-112 0 -163 71.5t-35 188.5h88q-9 -82 19 -126t91 -44q122 0 152 170h88
q-43 -260 -240 -260z" />
    <glyph glyph-name="Uring" unicode="&#x16e;" horiz-adv-x="1208" 
d="M610 1690q0 82 56.5 138t136.5 56q82 0 138 -55.5t56 -138.5t-56 -139t-138 -56q-80 0 -136.5 56t-56.5 139zM692 1690q0 -52 30.5 -84.5t80.5 -32.5t81 32.5t31 84.5q0 51 -31.5 83.5t-80.5 32.5t-80 -32.5t-31 -83.5zM539 -23q-185 0 -295.5 100.5t-110.5 289.5
q0 71 14 157l156 897h113l-160 -901q-14 -96 -14 -149q0 -141 77.5 -215t221.5 -74q157 0 261 99.5t140 303.5l164 936h113l-166 -942q-45 -252 -179 -377t-335 -125z" />
    <glyph glyph-name="uring" unicode="&#x16f;" horiz-adv-x="980" 
d="M432 1323q0 83 56.5 139t136.5 56q82 0 138 -56t56 -139t-56 -139t-138 -56q-80 0 -136.5 56t-56.5 139zM514 1323q0 -52 30.5 -84.5t80.5 -32.5t81 32.5t31 84.5q0 51 -31.5 84t-80.5 33t-80 -33t-31 -84zM729 0h-100l26 150q-102 -166 -282 -166q-116 0 -185 71
t-69 193q0 75 14 149l107 604h104l-102 -591q-19 -111 -19 -154q0 -88 45.5 -134t124.5 -46q117 0 198 100t111 270l97 555h106z" />
    <glyph glyph-name="Uhungarumlaut" unicode="&#x170;" horiz-adv-x="1208" 
d="M539 -23q-185 0 -295.5 100.5t-110.5 289.5q0 71 14 157l156 897h113l-160 -901q-14 -96 -14 -149q0 -141 77.5 -215t221.5 -74q157 0 261 99.5t140 303.5l164 936h113l-166 -942q-45 -252 -179 -377t-335 -125zM791 1812h135l-230 -288h-88zM1006 1812h135l-230 -288
h-88z" />
    <glyph glyph-name="uhungarumlaut" unicode="&#x171;" horiz-adv-x="980" 
d="M729 0h-100l26 150q-102 -166 -282 -166q-116 0 -185 71t-69 193q0 75 14 149l107 604h104l-102 -591q-19 -111 -19 -154q0 -88 45.5 -134t124.5 -46q117 0 198 100t111 270l97 555h106zM608 1421h135l-229 -288h-88zM823 1421h135l-229 -288h-88z" />
    <glyph glyph-name="Uogonek" unicode="&#x172;" horiz-adv-x="1208" 
d="M1053 479q-45 -245 -171.5 -369.5t-318.5 -132.5q-93 -80 -129.5 -129.5t-36.5 -89.5q0 -57 66 -57q42 0 104 23l-14 -82q-43 -19 -107 -19q-67 0 -107 30.5t-40 88.5q0 105 184 240q-162 12 -256 111t-94 274q0 71 14 157l156 897h113l-160 -901q-14 -96 -14 -149
q0 -141 77.5 -215t221.5 -74q157 0 261 99.5t140 303.5l164 936h113z" />
    <glyph glyph-name="uogonek" unicode="&#x173;" horiz-adv-x="980" 
d="M627 -8l28 158q-102 -166 -282 -166q-116 0 -185 71t-69 193q0 75 14 149l107 604h104l-102 -591q-19 -111 -19 -154q0 -88 45.5 -134t124.5 -46q117 0 198 100t111 270l97 555h106l-174 -995q-209 -153 -209 -248q0 -57 66 -57q46 0 104 23l-14 -82q-43 -19 -107 -19
q-67 0 -107 30t-40 87q0 63 52 121.5t151 130.5z" />
    <glyph glyph-name="Wcircumflex" unicode="&#x174;" horiz-adv-x="1759" 
d="M1051 1812h120l138 -280h-95l-112 188l-180 -188h-105zM1249 0h-145l-92 1292l-545 -1292h-148l-102 1421h109l90 -1288l540 1288h146l92 -1286l541 1286h116z" />
    <glyph glyph-name="wcircumflex" unicode="&#x175;" horiz-adv-x="1288" 
d="M733 1421h121l137 -280h-94l-113 188l-180 -188h-104zM893 0h-137l-45 877l-357 -877h-135l-67 1001h104l49 -886l359 886h129l47 -886l360 886h107z" />
    <glyph glyph-name="Ycircumflex" unicode="&#x176;" horiz-adv-x="1095" 
d="M397 0l97 549l-312 872h117l262 -755l529 755h133l-619 -870l-96 -551h-111zM713 1812h121l137 -280h-94l-113 188l-180 -188h-105z" />
    <glyph glyph-name="ycircumflex" unicode="&#x177;" horiz-adv-x="878" 
d="M51 -367q-49 0 -102 15l18 96q48 -10 88 -10q67 0 111.5 38.5t85.5 125.5l33 65l-150 1038h107l120 -888l431 888h110l-557 -1128q-62 -127 -131 -183.5t-164 -56.5zM528 1421h121l137 -280h-94l-112 188l-181 -188h-104z" />
    <glyph glyph-name="Ydieresis" unicode="&#x178;" horiz-adv-x="1095" 
d="M397 0l97 549l-312 872h117l262 -755l529 755h133l-619 -870l-96 -551h-111zM502 1571l28 153h146l-29 -153h-145zM815 1571l27 153h147l-28 -153h-146z" />
    <glyph glyph-name="Zacute" unicode="&#x179;" horiz-adv-x="1040" 
d="M854 1812h152l-250 -280h-92zM276 1421h834l-18 -88l-951 -1231h746l-17 -102h-890l14 88l952 1231h-688z" />
    <glyph glyph-name="zacute" unicode="&#x17a;" horiz-adv-x="823" 
d="M668 1421h151l-250 -280h-92zM635 0h-633l12 80l658 825h-500l21 96h634l-14 -77l-657 -828h495z" />
    <glyph glyph-name="Zdotaccent" unicode="&#x17b;" horiz-adv-x="1040" 
d="M276 1421h834l-18 -88l-951 -1231h746l-17 -102h-890l14 88l952 1231h-688zM653 1571l27 153h149l-26 -153h-150z" />
    <glyph glyph-name="zdotaccent" unicode="&#x17c;" horiz-adv-x="823" 
d="M635 0h-633l12 80l658 825h-500l21 96h634l-14 -77l-657 -828h495zM465 1204l27 154h149l-27 -154h-149z" />
    <glyph glyph-name="Zcaron" unicode="&#x17d;" horiz-adv-x="1040" 
d="M770 1532h-121l-137 280h94l111 -188l182 188h105zM276 1421h834l-18 -88l-951 -1231h746l-17 -102h-890l14 88l952 1231h-688z" />
    <glyph glyph-name="zcaron" unicode="&#x17e;" horiz-adv-x="823" 
d="M586 1141h-121l-137 280h94l110 -188l183 188h104zM635 0h-633l12 80l658 825h-500l21 96h634l-14 -77l-657 -828h495z" />
    <glyph glyph-name="florin" unicode="&#x192;" horiz-adv-x="729" 
d="M514 1130l-68 -389h218l-17 -94h-219l-125 -725q-54 -289 -293 -289q-33 0 -86 11l21 98q33 -8 69 -8q149 0 183 196l125 717h-148l19 94h147l72 410q27 144 103.5 214.5t189.5 70.5q55 0 110 -15l-18 -96q-42 12 -95 12q-79 0 -124 -50.5t-64 -156.5z" />
    <glyph glyph-name="uni01B5" unicode="&#x1b5;" horiz-adv-x="1040" 
d="M276 1421h834l-18 -88l-445 -575h223l-16 -92h-279l-434 -564h746l-17 -102h-890l14 88l446 578h-217l17 92h272l434 561h-688z" />
    <glyph glyph-name="uni01B6" unicode="&#x1b6;" horiz-adv-x="823" 
d="M193 1001h634l-14 -77l-301 -379h135l-14 -86h-189l-288 -363h495l-16 -96h-633l12 80l303 379h-135l17 86h186l287 360h-498z" />
    <glyph glyph-name="Aringacute" unicode="&#x1fa;" horiz-adv-x="1216" 
d="M975 1534q0 -66 -37 -115.5t-96 -68.5l225 -1350h-111l-75 453h-562l-231 -453h-121l707 1370q-86 59 -86 162q0 74 67 168l152 207h156l-195 -181q12 3 18 3q80 -3 134.5 -58.5t54.5 -136.5zM745 1280l-374 -727h493zM670 1534q0 -51 30.5 -84t79.5 -33t81 33t32 84
t-32 85t-81 34t-79.5 -33.5t-30.5 -85.5z" />
    <glyph glyph-name="aringacute" unicode="&#x1fb;" horiz-adv-x="946" 
d="M707 0h-97l29 158q-56 -84 -139 -129t-174 -45q-119 0 -193 68.5t-74 178.5q0 124 87 211t229 115l342 66l6 39q8 41 8 79q0 86 -56 134.5t-155 48.5q-201 0 -244 -201h-106q18 145 115.5 221t240.5 76q136 0 220.5 -71.5t84.5 -194.5q0 -51 -8 -92zM336 78
q118 0 218 96.5t128 255.5l16 96l-313 -59q-101 -20 -160 -81t-59 -148q0 -74 44.5 -117t125.5 -43zM600 1128q-82 0 -138 55t-56 138q0 70 69 166l150 207h155l-196 -181l7 1q7 2 11 2q82 0 136.5 -55.5t54.5 -137.5q0 -83 -55.5 -139t-137.5 -56zM489 1323
q0 -52 30.5 -84.5t80.5 -32.5t80.5 32.5t30.5 84.5q0 51 -31 84t-80 33t-80 -33t-31 -84z" />
    <glyph glyph-name="AEacute" unicode="&#x1fc;" horiz-adv-x="1816" 
d="M1464 1812h152l-250 -280h-92zM774 0l78 449h-498l-342 -449h-129l1088 1421h882l-20 -104h-717l-94 -535h655l-18 -102h-655l-101 -578h725l-16 -102h-838zM434 551h436l131 743z" />
    <glyph glyph-name="aeacute" unicode="&#x1fd;" horiz-adv-x="1556" 
d="M1016 1421h151l-249 -280h-93zM352 -16q-136 0 -214.5 71t-78.5 193q0 134 99 222.5t288 88.5h259l16 92q10 51 10 90q0 86 -56 134.5t-155 48.5q-201 0 -244 -201h-106q18 145 115.5 221t240.5 76q112 0 189 -51.5t100 -139.5q60 87 144 138t186 51q136 0 227.5 -98.5
t91.5 -262.5q0 -101 -22 -188h-651q-5 -39 -5 -98q0 -132 57.5 -211.5t166.5 -79.5q89 0 160 57t108 160h106q-46 -149 -147.5 -231t-230.5 -82q-107 0 -189 62t-112 177q-56 -121 -149 -180t-204 -59zM356 78q114 0 203.5 82t118.5 248l10 61h-237q-145 0 -215 -61
t-70 -156q0 -84 49 -129t141 -45zM807 559h547q8 58 8 92q0 131 -62.5 202t-160.5 71q-118 0 -206.5 -97t-125.5 -268z" />
    <glyph glyph-name="Oslashacute" unicode="&#x1fe;" horiz-adv-x="1351" 
d="M141 -37h-127l195 230q-84 146 -84 350q0 140 31 273t90.5 246t141.5 199t190.5 134.5t230.5 48.5q204 0 336 -141l131 155h125l-199 -233q84 -141 84 -346q0 -140 -30.5 -273.5t-90.5 -247t-141.5 -199t-190 -134t-229.5 -48.5q-204 0 -336 138zM608 82q125 0 233 68.5
t179.5 180.5t112.5 255t41 293q0 149 -48 254l-786 -934q94 -117 268 -117zM238 543q0 -154 49 -258l786 934q-95 120 -270 120q-100 0 -190 -44t-157 -121.5t-117 -178t-75.5 -217t-25.5 -235.5zM989 1812h152l-250 -280h-92z" />
    <glyph glyph-name="oslashacute" unicode="&#x1ff;" horiz-adv-x="993" 
d="M74 -37h-113l178 203q-41 84 -41 207q0 124 32.5 239.5t90.5 206t147 145t195 54.5q147 0 232 -105l110 125h115l-176 -198q43 -85 43 -211q0 -124 -32.5 -239.5t-90.5 -206t-146.5 -145t-193.5 -54.5q-152 0 -238 108zM430 76q105 0 187.5 80t124.5 204.5t42 266.5
q0 69 -16 125l-516 -582q57 -94 178 -94zM203 375q0 -75 12 -119l514 582q-58 88 -172 88q-105 0 -187.5 -80t-124.5 -204.5t-42 -266.5zM731 1421h152l-250 -280h-92z" />
    <glyph glyph-name="Scommaaccent" unicode="&#x218;" horiz-adv-x="1118" 
d="M518 -92l-31 -180q-13 -75 -61.5 -114.5t-124.5 -39.5l12 70q81 0 99 84l6 30h-72l25 150h147zM967 387q0 -180 -130 -295t-329 -115q-205 0 -332 116.5t-123 309.5h111q0 -148 95.5 -236.5t250.5 -88.5q148 0 246 84.5t98 218.5q0 177 -172 252l-188 82
q-121 53 -185.5 141.5t-64.5 206.5q0 165 117 273t294 108q187 0 307 -114.5t119 -301.5h-112q0 139 -88 227t-226 88q-130 0 -214.5 -79t-84.5 -199q0 -83 47.5 -148t135.5 -102l188 -82q112 -47 176 -136t64 -210z" />
    <glyph glyph-name="scommaaccent" unicode="&#x219;" horiz-adv-x="878" 
d="M393 -92l-31 -180q-13 -75 -61.5 -114.5t-124.5 -39.5l12 70q81 0 99 84l6 30h-72l25 150h147zM381 -16q-154 0 -247.5 82.5t-90.5 230.5h104q0 -102 61.5 -160.5t172.5 -58.5q107 0 171 50t64 136q0 62 -34 103.5t-109 70.5l-90 35q-209 82 -209 260q0 127 89 206
t229 79q141 0 228.5 -79t88.5 -218h-107q0 96 -57 149.5t-153 53.5t-156 -49t-60 -134q0 -118 142 -176l90 -35q211 -82 211 -260q0 -129 -93.5 -207.5t-244.5 -78.5z" />
    <glyph glyph-name="uni021A" unicode="&#x21a;" horiz-adv-x="1083" 
d="M506 -92l-31 -180q-13 -75 -61.5 -114.5t-124.5 -39.5l12 70q80 0 98 84l7 30h-72l24 150h148zM1184 1421l-21 -102h-428l-231 -1319h-111l232 1319h-428l20 102h967z" />
    <glyph glyph-name="uni021B" unicode="&#x21b;" horiz-adv-x="620" 
d="M336 -92l-31 -180q-13 -75 -61.5 -114.5t-124.5 -39.5l12 70q80 0 98 84l7 30h-72l24 150h148zM358 -16q-91 0 -147.5 48.5t-56.5 139.5q0 32 10 100l112 635h-116l18 94h121l47 271h100l-47 -271h250l-18 -94h-250l-109 -622q-12 -70 -12 -95q0 -108 121 -108
q47 0 113 16l-17 -100q-68 -14 -119 -14z" />
    <glyph glyph-name="dotlessj" unicode="&#x237;" horiz-adv-x="430" 
d="M-121 -367q-39 0 -92 11l18 96q50 -8 68 -8q150 0 184 198l191 1071h104l-188 -1075q-51 -293 -285 -293z" />
    <glyph glyph-name="circumflex" unicode="&#x2c6;" horiz-adv-x="696" 
d="M442 1421h121l137 -280h-94l-112 188l-181 -188h-104z" />
    <glyph glyph-name="caron" unicode="&#x2c7;" horiz-adv-x="696" 
d="M514 1141h-121l-137 280h94l111 -188l182 188h105z" />
    <glyph glyph-name="breve" unicode="&#x2d8;" horiz-adv-x="645" 
d="M451 1161q-112 0 -163.5 72t-35.5 188h88q-9 -82 19.5 -126t91.5 -44q121 0 151 170h88q-43 -260 -239 -260z" />
    <glyph glyph-name="dotaccent" unicode="&#x2d9;" horiz-adv-x="317" 
d="M209 1204l27 154h149l-27 -154h-149z" />
    <glyph glyph-name="ring" unicode="&#x2da;" horiz-adv-x="555" 
d="M225 1323q0 83 56.5 139t136.5 56q82 0 138 -56t56 -139t-56 -139t-138 -56q-80 0 -136.5 56t-56.5 139zM307 1323q0 -52 30.5 -84.5t80.5 -32.5t81 32.5t31 84.5q0 51 -31.5 84t-80.5 33t-80 -33t-31 -84z" />
    <glyph glyph-name="ogonek" unicode="&#x2db;" horiz-adv-x="438" 
d="M182 0h76q-108 -91 -149 -145.5t-41 -96.5q0 -57 67 -57q45 0 103 23l-15 -82q-43 -19 -106 -19q-67 0 -107.5 31.5t-40.5 89.5q0 113 213 256z" />
    <glyph glyph-name="tilde" unicode="&#x2dc;" horiz-adv-x="692" 
d="M600 1176q-34 0 -71 21.5t-63 48t-54 48t-47 21.5q-56 0 -74 -129h-86q31 221 155 221q34 0 71.5 -21.5t64 -47t55 -47t47.5 -21.5q29 0 46 31t26 98h88q-31 -223 -158 -223z" />
    <glyph glyph-name="hungarumlaut" unicode="&#x2dd;" horiz-adv-x="739" 
d="M426 1421h135l-229 -288h-88zM641 1421h135l-229 -288h-88z" />
    <glyph glyph-name="pi" unicode="&#x3c0;" horiz-adv-x="929" 
d="M924 907h-113l-158 -907h-104l158 907h-345l-157 -907h-105l158 907h-113l17 97h778z" />
    <glyph glyph-name="Wgrave" unicode="&#x1e80;" horiz-adv-x="1759" 
d="M1249 0h-145l-92 1292l-545 -1292h-148l-102 1421h109l90 -1288l540 1288h146l92 -1286l541 1286h116zM872 1812h138l106 -280h-82z" />
    <glyph glyph-name="wgrave" unicode="&#x1e81;" horiz-adv-x="1288" 
d="M893 0h-137l-45 877l-357 -877h-135l-67 1001h104l49 -886l359 886h129l47 -886l360 886h107zM551 1421h137l107 -280h-82z" />
    <glyph glyph-name="Wacute" unicode="&#x1e82;" horiz-adv-x="1759" 
d="M1206 1812h152l-250 -280h-92zM1249 0h-145l-92 1292l-545 -1292h-148l-102 1421h109l90 -1288l540 1288h146l92 -1286l541 1286h116z" />
    <glyph glyph-name="wacute" unicode="&#x1e83;" horiz-adv-x="1288" 
d="M889 1421h151l-249 -280h-93zM893 0h-137l-45 877l-357 -877h-135l-67 1001h104l49 -886l359 886h129l47 -886l360 886h107z" />
    <glyph glyph-name="Wdieresis" unicode="&#x1e84;" horiz-adv-x="1759" 
d="M840 1571l28 153h146l-29 -153h-145zM1153 1571l27 153h147l-29 -153h-145zM1249 0h-145l-92 1292l-545 -1292h-148l-102 1421h109l90 -1288l540 1288h146l92 -1286l541 1286h116z" />
    <glyph glyph-name="wdieresis" unicode="&#x1e85;" horiz-adv-x="1288" 
d="M524 1204l29 154h145l-28 -154h-146zM838 1204l26 154h148l-29 -154h-145zM893 0h-137l-45 877l-357 -877h-135l-67 1001h104l49 -886l359 886h129l47 -886l360 886h107z" />
    <glyph glyph-name="uni1E8A" unicode="&#x1e8a;" horiz-adv-x="1132" 
d="M100 0h-137l574 715l-324 706h121l276 -614l484 614h137l-572 -714l322 -707h-121l-276 612zM670 1577l26 154h150l-27 -154h-149z" />
    <glyph glyph-name="uni1E8B" unicode="&#x1e8b;" horiz-adv-x="847" 
d="M694 0h-114l-170 412l-306 -412h-124l382 508l-210 493h114l168 -409l301 409h125l-379 -505zM465 1204l27 154h149l-27 -154h-149z" />
    <glyph glyph-name="Ygrave" unicode="&#x1ef2;" horiz-adv-x="1095" 
d="M397 0l97 549l-312 872h117l262 -755l529 755h133l-619 -870l-96 -551h-111zM532 1812h138l106 -280h-82z" />
    <glyph glyph-name="ygrave" unicode="&#x1ef3;" horiz-adv-x="878" 
d="M51 -367q-49 0 -102 15l18 96q48 -10 88 -10q67 0 111.5 38.5t85.5 125.5l33 65l-150 1038h107l120 -888l431 888h110l-557 -1128q-62 -127 -131 -183.5t-164 -56.5zM348 1421h137l107 -280h-82z" />
    <glyph glyph-name="endash" unicode="&#x2013;" horiz-adv-x="1028" 
d="M80 496l18 94h852l-18 -94h-852z" />
    <glyph glyph-name="emdash" unicode="&#x2014;" horiz-adv-x="2045" 
d="M80 496l18 94h1870l-18 -94h-1870z" />
    <glyph glyph-name="quoteleft" unicode="&#x2018;" horiz-adv-x="421" 
d="M199 985l39 225q36 222 243 222l-12 -74q-126 0 -152 -146l-8 -51h88l-28 -176h-170z" />
    <glyph glyph-name="quoteright" unicode="&#x2019;" horiz-adv-x="421" 
d="M449 1421l-37 -225q-39 -221 -246 -221l12 74q65 0 102 35t50 110l10 51h-90l31 176h168z" />
    <glyph glyph-name="quotesinglbase" unicode="&#x201a;" horiz-adv-x="421" 
d="M231 176l-38 -225q-36 -221 -244 -221l12 73q126 0 152 144l8 53h-88l28 176h170z" />
    <glyph glyph-name="quotedblleft" unicode="&#x201c;" horiz-adv-x="743" 
d="M199 985l39 225q36 222 243 222l-12 -74q-126 0 -152 -146l-8 -51h88l-28 -176h-170zM520 985l37 225q39 222 246 222l-12 -74q-126 0 -152 -146l-8 -51h88l-29 -176h-170z" />
    <glyph glyph-name="quotedblright" unicode="&#x201d;" horiz-adv-x="743" 
d="M449 1421l-37 -225q-39 -221 -246 -221l12 74q65 0 102 35t50 110l10 51h-90l31 176h168zM770 1421l-37 -225q-39 -221 -246 -221l13 74q125 0 151 145l11 51h-91l31 176h168z" />
    <glyph glyph-name="quotedblbase" unicode="&#x201e;" horiz-adv-x="743" 
d="M231 176l-38 -225q-36 -221 -244 -221l12 73q126 0 152 144l8 53h-88l28 176h170zM553 176l-37 -225q-39 -221 -246 -221l13 73q125 0 151 144l8 53h-88l31 176h168z" />
    <glyph glyph-name="dagger" unicode="&#x2020;" horiz-adv-x="745" 
d="M741 1147l-14 -86h-219l-98 -565h-95l99 565h-213l16 86h213l47 274h94l-47 -274h217z" />
    <glyph glyph-name="daggerdbl" unicode="&#x2021;" horiz-adv-x="763" 
d="M690 811l-16 -86h-217l-47 -268h-95l47 268h-212l16 86h213l43 250h-213l16 86h213l47 274h95l-48 -274h218l-17 -86h-217l-43 -250h217z" />
    <glyph glyph-name="bullet" unicode="&#x2022;" horiz-adv-x="843" 
d="M178 594q0 106 75 181t181 75t181 -75t75 -181t-75 -181t-181 -75t-181 75t-75 181z" />
    <glyph glyph-name="ellipsis" unicode="&#x2026;" horiz-adv-x="1265" 
d="M68 0l32 184h176l-32 -184h-176zM453 0l32 184h177l-33 -184h-176zM838 0l32 184h177l-33 -184h-176z" />
    <glyph glyph-name="perthousand" unicode="&#x2030;" horiz-adv-x="2148" 
d="M1202 1421h109l-955 -1421h-110zM514 1446q109 0 173.5 -73.5t64.5 -205.5q0 -75 -21.5 -151.5t-62 -143.5t-106 -109t-144.5 -42q-108 0 -173 73t-65 205q0 75 21.5 152t62 143.5t106 109t144.5 42.5zM514 1354q-73 0 -127.5 -56t-79 -135t-24.5 -164q0 -188 137 -188
q72 0 126.5 56t79.5 135t25 165q0 97 -37 142t-100 45zM1143 612q-73 0 -128 -56t-80.5 -135t-25.5 -165q0 -99 37.5 -143.5t100.5 -44.5q73 0 128 56t80 135t25 165q0 188 -137 188zM1143 702q109 0 173 -73t64 -205q0 -75 -21.5 -152t-61.5 -143.5t-105.5 -109
t-144.5 -42.5q-109 0 -173.5 73.5t-64.5 205.5q0 75 21.5 151.5t62 143.5t106 109t144.5 42zM1804 612q-73 0 -127.5 -56t-79 -135t-24.5 -165q0 -188 135 -188q73 0 128 56t80.5 135t25.5 165q0 99 -37.5 143.5t-100.5 44.5zM1804 702q109 0 173.5 -73t64.5 -205
q0 -75 -21.5 -152t-62 -143.5t-106 -109t-144.5 -42.5q-108 0 -173 74t-65 205q0 75 21.5 151.5t62 143.5t106 109t144.5 42z" />
    <glyph glyph-name="guilsinglleft" unicode="&#x2039;" horiz-adv-x="591" 
d="M508 889l-285 -418l144 -401h-99l-170 409l303 410h107z" />
    <glyph glyph-name="guilsinglright" unicode="&#x203a;" horiz-adv-x="591" 
d="M154 70h-107l283 417l-142 402h99l170 -410z" />
    <glyph glyph-name="fraction" unicode="&#x2044;" horiz-adv-x="196" 
d="M-498 0l1151 1421h101l-1149 -1421h-103z" />
    <glyph glyph-name="uni2070" unicode="&#x2070;" horiz-adv-x="638" 
d="M346 721q53 0 98 45.5t71.5 115.5t41 146.5t14.5 145.5q0 180 -110 180q-53 0 -98 -45.5t-71.5 -115.5t-41 -146.5t-14.5 -145.5q0 -180 110 -180zM346 641q-92 0 -145.5 65t-53.5 195q0 66 10.5 136.5t35 142t59.5 127.5t89.5 91.5t119.5 35.5q92 0 145 -65t53 -195
q0 -66 -10.5 -136.5t-34.5 -142t-59 -127.5t-89.5 -91.5t-119.5 -35.5z" />
    <glyph glyph-name="uni2074" unicode="&#x2074;" horiz-adv-x="604" 
d="M485 653h-86l31 172h-326l15 84l399 512h103l-91 -516h82l-14 -80h-84zM444 905l70 391l-305 -391h235z" />
    <glyph glyph-name="uni2075" unicode="&#x2075;" horiz-adv-x="595" 
d="M340 641q-102 0 -160 62t-55 169h88q0 -73 34.5 -113t94.5 -40q75 0 118.5 63t43.5 152q0 69 -31.5 105t-85.5 36q-87 0 -137 -94h-84l119 440h350l-14 -84h-277l-61 -225q45 45 125 45q84 0 134 -57t50 -162q0 -128 -68 -212.5t-184 -84.5z" />
    <glyph glyph-name="uni2076" unicode="&#x2076;" horiz-adv-x="606" 
d="M356 641q-98 0 -151 66t-53 198q0 134 34.5 252.5t107.5 197.5t171 79q91 0 142.5 -54.5t49.5 -144.5h-84q0 55 -29.5 89t-82.5 34q-73 0 -130.5 -80.5t-84.5 -228.5q60 108 178 108q79 0 130.5 -55.5t51.5 -155.5q0 -75 -26.5 -142.5t-85 -115t-138.5 -47.5zM354 717
q73 0 118.5 70t45.5 153q0 63 -30.5 102t-84.5 39q-73 0 -118 -70t-45 -153q0 -63 30 -102t84 -39z" />
    <glyph glyph-name="uni2077" unicode="&#x2077;" horiz-adv-x="501" 
d="M238 653h-93l357 682h-330l16 86h420l-14 -84z" />
    <glyph glyph-name="uni2078" unicode="&#x2078;" horiz-adv-x="612" 
d="M362 641q-102 0 -165.5 57.5t-63.5 153.5q0 70 39.5 127.5t118.5 83.5q-70 55 -70 149q0 95 61.5 158.5t161.5 63.5q87 0 144 -50t57 -143q0 -142 -129 -199q90 -53 90 -168q0 -100 -67 -166.5t-177 -66.5zM365 719q67 0 111 45.5t44 112.5q0 62 -40.5 97.5t-102.5 35.5
q-67 0 -112.5 -45t-45.5 -111q0 -62 42 -98.5t104 -36.5zM426 1087q59 1 98 44.5t39 105.5q0 52 -34.5 85.5t-88.5 33.5q-58 0 -96.5 -44.5t-38.5 -107.5q0 -52 33.5 -84.5t87.5 -32.5z" />
    <glyph glyph-name="uni2079" unicode="&#x2079;" horiz-adv-x="606" 
d="M475 1434q98 0 151.5 -66.5t53.5 -198.5q0 -134 -34.5 -252t-107.5 -197t-171 -79q-91 0 -143 54.5t-50 144.5h84q0 -55 30 -89t83 -34q73 0 130.5 80.5t84.5 228.5q-60 -108 -178 -108q-79 0 -131 55t-52 155q0 75 26.5 143t85 115.5t138.5 47.5zM477 1358
q-73 0 -118.5 -70t-45.5 -153q0 -63 30.5 -102.5t84.5 -39.5q73 0 118.5 70.5t45.5 153.5q0 63 -30.5 102t-84.5 39z" />
    <glyph glyph-name="parenleft.sups" unicode="&#x207d;" horiz-adv-x="415" 
d="M268 942q0 -196 84 -352h-82q-44 71 -69 166t-25 186q0 325 230 541h98q-236 -231 -236 -541z" />
    <glyph glyph-name="parenright.sups" unicode="&#x207e;" horiz-adv-x="415" 
d="M315 1128q0 201 -86 355h84q43 -75 69 -169.5t26 -185.5q0 -150 -57 -288.5t-175 -249.5h-98q237 229 237 538z" />
    <glyph glyph-name="uni2080" unicode="&#x2080;" horiz-adv-x="634" 
d="M190 -158q53 0 98 45.5t72 115.5t41.5 146.5t14.5 145.5q0 180 -111 180q-53 0 -98 -45.5t-71.5 -115t-41 -146t-14.5 -145.5q0 -181 110 -181zM190 -238q-91 0 -144.5 65.5t-53.5 195.5q0 85 17.5 173t53 171t98.5 135.5t144 52.5q92 0 145.5 -65t53.5 -195
q0 -66 -10.5 -136.5t-35 -142t-59.5 -127.5t-89.5 -91.5t-119.5 -35.5z" />
    <glyph glyph-name="uni2081" unicode="&#x2081;" horiz-adv-x="466" 
d="M205 -225h-88l116 655l-180 -119l19 109l188 123h80z" />
    <glyph glyph-name="uni2082" unicode="&#x2082;" horiz-adv-x="557" 
d="M365 -225h-414l14 84l305 315q54 54 83.5 99.5t29.5 95.5t-31 78t-80 28q-62 0 -101.5 -43t-45.5 -119h-86q8 109 72 175.5t163 66.5q89 0 142 -48.5t53 -133.5q0 -67 -37.5 -128t-112.5 -136l-243 -250h303z" />
    <glyph glyph-name="uni2083" unicode="&#x2083;" horiz-adv-x="587" 
d="M195 -238q-107 0 -168 63.5t-56 168.5h88q-3 -69 34.5 -111.5t103.5 -42.5t107.5 43t41.5 111q0 61 -39 99t-102 38h-31l14 82h41q70 0 115 41t45 106q0 52 -32 84.5t-83 32.5q-58 0 -97.5 -42t-47.5 -113h-84q8 104 71 168.5t160 64.5q90 0 144.5 -52t54.5 -138
q0 -68 -39 -120t-108 -77q50 -19 78 -64t28 -108q0 -102 -67 -168t-172 -66z" />
    <glyph glyph-name="uni2084" unicode="&#x2084;" horiz-adv-x="602" 
d="M332 -225h-86l30 172h-325l14 84l400 512h102l-90 -516h82l-15 -80h-84zM291 27l69 391l-305 -391h236z" />
    <glyph glyph-name="uni2085" unicode="&#x2085;" horiz-adv-x="593" 
d="M188 -238q-102 0 -160 62.5t-55 169.5h88q0 -73 34.5 -113.5t94.5 -40.5q75 0 118.5 63t43.5 152q0 69 -31 105.5t-85 36.5q-88 0 -138 -95h-84l119 441h350l-14 -84h-276l-62 -226q46 46 125 46q84 0 134 -57.5t50 -162.5q0 -128 -68 -212.5t-184 -84.5z" />
    <glyph glyph-name="uni2086" unicode="&#x2086;" horiz-adv-x="604" 
d="M203 -238q-98 0 -151.5 66.5t-53.5 198.5q0 134 34.5 252t107.5 197t171 79q91 0 143 -54.5t50 -144.5h-84q0 55 -30 89t-83 34q-73 0 -130.5 -80.5t-84.5 -228.5q60 109 178 109q79 0 131 -55.5t52 -155.5q0 -75 -26.5 -143t-85 -115.5t-138.5 -47.5zM201 -162
q73 0 118.5 70t45.5 153q0 63 -30.5 102.5t-84.5 39.5q-73 0 -118.5 -70t-45.5 -153q0 -63 30.5 -102.5t84.5 -39.5z" />
    <glyph glyph-name="uni2087" unicode="&#x2087;" horiz-adv-x="501" 
d="M84 -225h-92l356 682h-330l17 86h420l-15 -84z" />
    <glyph glyph-name="uni2088" unicode="&#x2088;" horiz-adv-x="610" 
d="M209 -238q-102 0 -165.5 57.5t-63.5 153.5q0 71 39 128t118 83q-69 54 -69 150q0 95 61.5 158t161.5 63q87 0 144 -50t57 -143q0 -140 -130 -198q91 -54 91 -168q0 -101 -67 -167.5t-177 -66.5zM211 -160q67 0 111.5 45.5t44.5 112.5q0 62 -41 97.5t-103 35.5
q-67 0 -112 -45t-45 -111q0 -63 41.5 -99t103.5 -36zM272 209q60 1 99 44t39 105q0 52 -34.5 85.5t-88.5 33.5q-58 0 -96.5 -44.5t-38.5 -106.5q0 -53 33 -85t87 -32z" />
    <glyph glyph-name="uni2089" unicode="&#x2089;" horiz-adv-x="604" 
d="M324 555q98 0 151 -66t53 -198q0 -134 -34.5 -252.5t-107.5 -197.5t-171 -79q-91 0 -142.5 54.5t-49.5 144.5h83q0 -55 30 -89t83 -34q73 0 130.5 80.5t84.5 228.5q-60 -108 -178 -108q-79 0 -130.5 55.5t-51.5 155.5q0 75 26.5 142.5t85 115t138.5 47.5zM326 479
q-73 0 -118.5 -70t-45.5 -153q0 -63 30 -102t84 -39q73 0 118.5 70t45.5 153q0 63 -30 102t-84 39z" />
    <glyph glyph-name="Euro" unicode="&#x20ac;" horiz-adv-x="1159" 
d="M78 518l16 94h129q5 79 29 195h-123l16 94h131q32 111 76.5 204.5t105.5 171.5t144 122.5t178 44.5q344 0 344 -453h-110q0 350 -238 350q-72 0 -134.5 -36t-110 -100t-82.5 -138.5t-62 -165.5h395l-16 -94h-401q-23 -110 -31 -195h397l-16 -94h-385q0 -438 262 -438
q114 0 201.5 88.5t124.5 263.5h110q-45 -221 -162 -338t-274 -117q-186 0 -279.5 137.5t-93.5 403.5h-141z" />
    <glyph glyph-name="trademark" unicode="&#x2122;" horiz-adv-x="1396" 
d="M174 1333v88h514v-88h-211v-590h-92v590h-211zM1049 741l-201 566v-566h-88v680h133l203 -573l200 573h136v-680h-89v566l-198 -566h-96z" />
    <glyph glyph-name="Omega" unicode="&#x2126;" horiz-adv-x="1368" 
d="M788 1339q-99 0 -187.5 -42t-152.5 -113.5t-110.5 -163.5t-70 -194t-23.5 -203q0 -378 264 -523l-19 -98h-464l16 102h291q-101 94 -152 219t-51 300q0 119 29 237.5t86 223t135 185.5t184 128t225 47q227 0 364.5 -160.5t137.5 -425.5q0 -253 -101.5 -447.5
t-283.5 -306.5h273l-19 -102h-473l19 98q227 95 349 297t122 461q0 224 -104 352.5t-284 128.5z" />
    <glyph glyph-name="uni2153" unicode="&#x2153;" horiz-adv-x="1435" 
d="M78 0l1151 1421h100l-1149 -1421h-102zM1026 -12q-107 0 -167.5 63t-55.5 168h88q-3 -69 34 -111t103 -42t108 43t42 110q0 61 -39.5 99t-102.5 38h-30l14 82h41q70 0 115 41.5t45 106.5q0 52 -32 84t-83 32q-58 0 -97.5 -42t-47.5 -113h-84q8 104 71 168.5t160 64.5
q90 0 144.5 -52t54.5 -138q0 -67 -39.5 -119.5t-108.5 -77.5q50 -19 78.5 -64.5t28.5 -107.5q0 -102 -67.5 -167.5t-172.5 -65.5zM362 653h-88l117 656l-180 -119l18 108l189 123h80z" />
    <glyph glyph-name="uni2154" unicode="&#x2154;" horiz-adv-x="1562" 
d="M539 653h-414l14 84l305 316q54 54 83.5 99t29.5 95t-31 78.5t-80 28.5q-62 0 -101.5 -43t-45.5 -119h-86q8 109 72.5 175.5t163.5 66.5q89 0 141.5 -49t52.5 -134q0 -67 -37 -128t-112 -136l-244 -250h303zM190 0l1151 1421h101l-1149 -1421h-103zM1139 -12
q-107 0 -168 63t-56 168h89q-3 -69 34 -111t103 -42t107.5 42.5t41.5 110.5q0 61 -39 99t-102 38h-31l15 82h41q69 0 114 41t45 107q0 52 -31.5 84t-82.5 32q-59 0 -99 -42.5t-47 -112.5h-84q8 104 71.5 168.5t160.5 64.5q89 0 143.5 -52t54.5 -138q0 -68 -39 -120t-108 -77
q50 -19 78 -64t28 -108q0 -102 -67 -167.5t-172 -65.5z" />
    <glyph glyph-name="uni2155" unicode="&#x2155;" horiz-adv-x="1445" 
d="M78 0l1151 1421h100l-1149 -1421h-102zM1055 -12q-102 0 -160 62t-55 169h88q0 -73 34.5 -113t94.5 -40q75 0 118.5 63t43.5 152q0 69 -31.5 105t-85.5 36q-87 0 -137 -94h-84l118 440h351l-15 -84h-276l-62 -225q45 45 125 45q84 0 134.5 -57t50.5 -162q0 -127 -68 -212
t-184 -85zM362 653h-88l117 656l-180 -119l18 108l189 123h80z" />
    <glyph glyph-name="uni2156" unicode="&#x2156;" horiz-adv-x="1591" 
d="M559 653h-414l15 84l305 316q54 54 83.5 99t29.5 95t-31 78.5t-80 28.5q-62 0 -102 -43t-46 -119h-86q8 109 72.5 175.5t163.5 66.5q89 0 142 -49t53 -134q0 -67 -37.5 -128t-112.5 -136l-244 -250h303zM1186 -12q-102 0 -160 62t-55 169h88q0 -73 34.5 -113t94.5 -40
q75 0 118.5 63t43.5 152q0 69 -31.5 105t-85.5 36q-87 0 -137 -94h-84l118 440h351l-15 -84h-276l-62 -225q45 45 125 45q84 0 134.5 -57t50.5 -162q0 -127 -68 -212t-184 -85zM211 0l1151 1421h100l-1149 -1421h-102z" />
    <glyph glyph-name="uni2157" unicode="&#x2157;" horiz-adv-x="1593" 
d="M373 641q-107 0 -167.5 63t-55.5 168h88q-3 -69 34 -111t103 -42t107.5 42.5t41.5 110.5q0 62 -39 100t-102 38h-31l15 82h41q70 0 114.5 41t44.5 106q0 52 -31.5 84.5t-82.5 32.5q-58 0 -98 -42.5t-48 -113.5h-84q8 104 71.5 169t160.5 65q89 0 143.5 -52.5t54.5 -138.5
q0 -67 -39 -119t-108 -77q50 -19 78 -64.5t28 -108.5q0 -102 -67 -167.5t-172 -65.5zM1176 -12q-102 0 -160 62t-55 169h88q0 -73 34.5 -113t94.5 -40q75 0 118 62.5t43 152.5q0 69 -31 105t-85 36q-88 0 -138 -94h-84l119 440h350l-14 -84h-276l-62 -225q45 45 125 45
q84 0 134 -57t50 -162q0 -128 -67.5 -212.5t-183.5 -84.5zM199 0l1151 1421h100l-1149 -1421h-102z" />
    <glyph glyph-name="uni2158" unicode="&#x2158;" horiz-adv-x="1624" 
d="M498 653h-86l30 172h-325l14 84l399 512h103l-90 -516h82l-15 -80h-84zM457 905l69 391l-305 -391h236zM1212 -12q-102 0 -160 62t-55 169h88q0 -73 34.5 -113t94.5 -40q75 0 118.5 63t43.5 152q0 69 -31 105t-85 36q-88 0 -138 -94h-84l119 440h350l-14 -84h-276
l-62 -225q45 45 125 45q84 0 134 -57t50 -162q0 -127 -68 -212t-184 -85zM236 0l1150 1421h101l-1149 -1421h-102z" />
    <glyph glyph-name="uni2159" unicode="&#x2159;" horiz-adv-x="1452" 
d="M1047 -12q-98 0 -151.5 66t-53.5 198q0 134 34.5 252t107.5 197t171 79q91 0 143 -54t50 -144h-84q0 55 -30 89t-83 34q-73 0 -130.5 -81t-84.5 -229q60 109 178 109q79 0 130.5 -55.5t51.5 -155.5q0 -75 -26 -142.5t-84.5 -115t-138.5 -47.5zM1044 63q73 0 118.5 70.5
t45.5 153.5q0 63 -30 102t-84 39q-73 0 -118.5 -70t-45.5 -153q0 -63 30 -102.5t84 -39.5zM78 0l1151 1421h100l-1149 -1421h-102zM362 653h-88l117 656l-180 -119l18 108l189 123h80z" />
    <glyph glyph-name="uni215A" unicode="&#x215a;" horiz-adv-x="1595" 
d="M367 641q-102 0 -160 62t-55 169h88q0 -73 34.5 -113t94.5 -40q75 0 118 62.5t43 152.5q0 69 -31 105t-85 36q-88 0 -138 -94h-83l118 440h351l-15 -84h-276l-62 -225q45 45 125 45q84 0 134 -57t50 -162q0 -128 -67.5 -212.5t-183.5 -84.5zM1163 -12q-98 0 -151.5 66
t-53.5 198q0 134 34.5 252t108 197t171.5 79q91 0 142.5 -54t49.5 -144h-84q0 55 -29.5 89t-82.5 34q-73 0 -130.5 -81t-84.5 -229q60 109 178 109q79 0 130.5 -55.5t51.5 -155.5q0 -75 -26.5 -142.5t-85 -115t-138.5 -47.5zM1161 63q73 0 118.5 70.5t45.5 153.5
q0 63 -30.5 102t-84.5 39q-73 0 -118 -70t-45 -153q0 -63 30 -102.5t84 -39.5zM195 0l1151 1421h100l-1149 -1421h-102z" />
    <glyph glyph-name="uni215B" unicode="&#x215b;" horiz-adv-x="1437" 
d="M1044 -12q-102 0 -165.5 57.5t-63.5 153.5q0 70 39.5 127.5t118.5 83.5q-70 55 -70 149q0 95 61.5 158t161.5 63q87 0 144 -50t57 -142q0 -142 -129 -199q90 -53 90 -168q0 -100 -67 -166.5t-177 -66.5zM1047 66q67 0 111 45t44 112q0 62 -40.5 97.5t-102.5 35.5
q-67 0 -112.5 -44.5t-45.5 -110.5q0 -62 42 -98.5t104 -36.5zM1108 434q59 1 98 44.5t39 105.5q0 52 -34.5 85t-88.5 33q-58 0 -96.5 -44.5t-38.5 -106.5q0 -52 33.5 -84.5t87.5 -32.5zM78 0l1151 1421h100l-1149 -1421h-102zM362 653h-88l117 656l-180 -119l18 108l189 123
h80z" />
    <glyph glyph-name="uni215C" unicode="&#x215c;" horiz-adv-x="1585" 
d="M1165 -12q-102 0 -165.5 57.5t-63.5 153.5q0 70 39.5 127.5t118.5 83.5q-70 55 -70 149q0 95 61.5 158t161.5 63q87 0 144 -50t57 -142q0 -142 -129 -199q90 -53 90 -168q0 -100 -67 -166.5t-177 -66.5zM1167 66q67 0 111.5 45.5t44.5 111.5q0 62 -40.5 97.5t-102.5 35.5
q-67 0 -112.5 -44.5t-45.5 -110.5q0 -63 41.5 -99t103.5 -36zM1229 434q59 1 98 44.5t39 105.5q0 52 -34.5 85t-88.5 33q-58 0 -96.5 -44.5t-38.5 -106.5q0 -52 33.5 -84.5t87.5 -32.5zM373 641q-107 0 -167.5 63t-55.5 168h88q-3 -69 34 -111t103 -42t107.5 42.5
t41.5 110.5q0 62 -39 100t-102 38h-31l15 82h41q70 0 114.5 41t44.5 106q0 52 -31.5 84.5t-82.5 32.5q-58 0 -98 -42.5t-48 -113.5h-84q8 104 71.5 169t160.5 65q89 0 143.5 -52.5t54.5 -138.5q0 -67 -39 -119t-108 -77q50 -19 78 -64.5t28 -108.5q0 -102 -67 -167.5
t-172 -65.5zM199 0l1151 1421h100l-1149 -1421h-102z" />
    <glyph glyph-name="uni215D" unicode="&#x215d;" horiz-adv-x="1581" 
d="M1161 -12q-102 0 -165.5 57.5t-63.5 153.5q0 70 39.5 127.5t118.5 83.5q-70 55 -70 149q0 95 61.5 158t161.5 63q87 0 144 -50t57 -142q0 -142 -129 -199q90 -53 90 -168q0 -100 -67 -166.5t-177 -66.5zM1163 66q67 0 111.5 45.5t44.5 111.5q0 62 -40.5 97.5t-102.5 35.5
q-67 0 -112.5 -44.5t-45.5 -110.5q0 -63 41.5 -99t103.5 -36zM1225 434q59 1 98 44.5t39 105.5q0 52 -34.5 85t-88.5 33q-58 0 -96.5 -44.5t-38.5 -106.5q0 -52 33.5 -84.5t87.5 -32.5zM367 641q-102 0 -160 62t-55 169h88q0 -73 34.5 -113t94.5 -40q75 0 118 62.5t43 152.5
q0 69 -31 105t-85 36q-88 0 -138 -94h-83l118 440h351l-15 -84h-276l-62 -225q45 45 125 45q84 0 134 -57t50 -162q0 -128 -67.5 -212.5t-183.5 -84.5zM195 0l1151 1421h100l-1149 -1421h-102z" />
    <glyph glyph-name="uni215E" unicode="&#x215e;" horiz-adv-x="1476" 
d="M332 653h-92l356 682h-330l17 86h419l-14 -84zM98 0l1151 1421h101l-1149 -1421h-103zM1063 -12q-102 0 -165.5 57.5t-63.5 153.5q0 71 39 128t118 83q-69 54 -69 149t61.5 158t161.5 63q87 0 144 -50t57 -142q0 -142 -129 -199q90 -53 90 -168q0 -100 -67 -166.5
t-177 -66.5zM1065 66q67 0 111.5 45.5t44.5 111.5q0 62 -41 97.5t-103 35.5q-67 0 -112 -44.5t-45 -110.5q0 -63 41.5 -99t103.5 -36zM1126 434q60 1 99 44.5t39 105.5q0 52 -34.5 85t-88.5 33q-58 0 -96.5 -44.5t-38.5 -106.5q0 -53 33 -85t87 -32z" />
    <glyph glyph-name="uni2190" unicode="&#x2190;" 
d="M686 1319h148l-547 -551h1321v-109h-1327l553 -557h-148l-606 609z" />
    <glyph glyph-name="uni2191" unicode="&#x2191;" 
d="M1452 868v-147l-551 547v-1321h-108v1327l-557 -553v147l608 607z" />
    <glyph glyph-name="uni2192" unicode="&#x2192;" 
d="M854 1319h147l607 -608l-607 -609h-147l553 557h-1327v109h1321z" />
    <glyph glyph-name="uni2193" unicode="&#x2193;" 
d="M1452 700v-147l-608 -606l-608 606v147l557 -553v1328h108v-1321z" />
    <glyph glyph-name="partialdiff" unicode="&#x2202;" horiz-adv-x="972" 
d="M461 1421h127q122 -115 206.5 -305t84.5 -424q0 -194 -52.5 -352.5t-160.5 -257t-254 -98.5q-141 0 -233.5 101.5t-92.5 287.5q0 95 19.5 187t58.5 174.5t93.5 145.5t130 99.5t161.5 36.5q140 0 211 -103q-41 157 -110.5 277.5t-188.5 230.5zM418 80q105 0 186.5 79
t122.5 202.5t41 265.5q0 144 -60 219.5t-163 75.5q-105 0 -187 -79t-123.5 -202.5t-41.5 -265.5q0 -144 60.5 -219.5t164.5 -75.5z" />
    <glyph glyph-name="Delta" unicode="&#x2206;" horiz-adv-x="1263" 
d="M1073 100l-16 -100h-1043l17 100l688 1321h129zM764 1280l-610 -1174h804z" />
    <glyph glyph-name="product" unicode="&#x220f;" horiz-adv-x="1282" 
d="M1022 0h-113l232 1319h-717l-234 -1319h-112l250 1421h944z" />
    <glyph glyph-name="summation" unicode="&#x2211;" horiz-adv-x="1155" 
d="M90 100l551 643l-336 578l19 100h858l-21 -102h-731l313 -541l-18 -100l-494 -576h723l-18 -102h-862z" />
    <glyph glyph-name="minus" unicode="&#x2212;" horiz-adv-x="1228" 
d="M240 614l16 99h778l-16 -99h-778z" />
    <glyph glyph-name="radical" unicode="&#x221a;" horiz-adv-x="1173" 
d="M139 602l19 96h252l73 -589l641 1312h109l-703 -1421h-124l-89 602h-178z" />
    <glyph glyph-name="infinity" unicode="&#x221e;" horiz-adv-x="1228" 
d="M909 934q98 0 156.5 -66t58.5 -178q0 -78 -28.5 -148t-90.5 -118.5t-145 -48.5q-78 0 -134.5 44.5t-100.5 143.5q-63 -96 -126 -142t-139 -46q-100 0 -157.5 65t-57.5 178q0 78 27.5 148.5t88 119t142.5 48.5q77 0 135 -46t103 -145q65 98 127 144.5t141 46.5zM860 465
q79 0 124.5 70.5t45.5 154.5q0 66 -32.5 110t-90.5 44q-64 0 -113.5 -46t-113.5 -147q38 -97 79.5 -141.5t100.5 -44.5zM408 844q-52 0 -92.5 -36.5t-59 -87t-18.5 -102.5q0 -66 32.5 -109.5t89.5 -43.5q63 0 114.5 46t111.5 142q-41 100 -80.5 145.5t-97.5 45.5z" />
    <glyph glyph-name="integral" unicode="&#x222b;" horiz-adv-x="724" 
d="M512 1130l-213 -1208q-26 -146 -101 -217.5t-190 -71.5q-33 0 -86 11l19 98q33 -8 69 -8q148 0 185 196l215 1221q25 145 101.5 215t190.5 70q54 0 109 -15l-18 -96q-36 12 -93 12q-80 0 -124.5 -50.5t-63.5 -156.5z" />
    <glyph glyph-name="approxequal" unicode="&#x2248;" horiz-adv-x="1228" 
d="M879 731q-55 0 -140 33.5t-163.5 67.5t-118.5 34q-76 0 -92 -96l-9 -45h-94l10 55q29 183 183 183q56 0 141 -34t163.5 -68t119.5 -34q73 0 90 97l8 45h94l-10 -56q-28 -182 -182 -182zM813 336q-55 0 -140 34t-163.5 67.5t-118.5 33.5q-76 0 -92 -96l-8 -45h-94l10 55
q28 182 182 182q56 0 141 -33.5t163.5 -67.5t119.5 -34q74 0 90 96l8 45h95l-11 -55q-28 -182 -182 -182z" />
    <glyph glyph-name="notequal" unicode="&#x2260;" horiz-adv-x="1228" 
d="M270 834l19 98h434l123 237h102l-123 -237h250l-16 -98h-285l-176 -345h399l-18 -98h-432l-123 -239h-102l122 239h-251l18 98h285l176 345h-402z" />
    <glyph glyph-name="lessequal" unicode="&#x2264;" horiz-adv-x="1228" 
d="M311 752l17 96l759 379l-20 -123l-635 -311l524 -310l-18 -108zM172 0l18 98h699l-17 -98h-700z" />
    <glyph glyph-name="greaterequal" unicode="&#x2265;" horiz-adv-x="1228" 
d="M1018 850l-17 -96l-759 -379l20 123l633 311l-522 309l18 109zM174 0l19 98h698l-17 -98h-700z" />
    <glyph glyph-name="uni2295" unicode="&#x2295;" 
d="M1577 711q0 -152 -57 -288t-154.5 -234t-233.5 -155t-288 -57t-288 57t-233.5 155t-154.5 234t-57 288t57 288t154.5 233.5t233.5 154.5t288 57t288 -57t233.5 -154.5t154.5 -233.5t57 -288zM897 86q230 19 391 180t180 393h-571v-573zM219 659q19 -232 179.5 -393
t392.5 -180v573h-572zM897 1335v-569h571q-19 229 -180 389.5t-391 179.5zM791 1335q-232 -20 -392.5 -180t-179.5 -389h572v569z" />
    <glyph glyph-name="uni2296" unicode="&#x2296;" 
d="M844 -23q-152 0 -288 57t-233.5 155t-154.5 234t-57 288t57 288t154.5 233.5t233.5 154.5t288 57t288 -57t233.5 -154.5t154.5 -233.5t57 -288t-57 -288t-154.5 -234t-233.5 -155t-288 -57zM844 84q164 0 302.5 75t223.5 206t98 292h-1249q13 -161 98.5 -292t224.5 -206
t302 -75zM844 1337q-163 0 -302 -75t-224.5 -206t-98.5 -292h1249q-13 161 -98 292t-223.5 206t-302.5 75z" />
    <glyph glyph-name="uni2297" unicode="&#x2297;" 
d="M1577 711q0 -152 -57 -288t-154.5 -234t-233.5 -155t-288 -57t-288 57t-233.5 155t-154.5 234t-57 288t57 288t154.5 233.5t233.5 154.5t288 57t288 -57t233.5 -154.5t154.5 -233.5t57 -288zM217 711q0 -234 145 -406l406 406l-406 405q-145 -176 -145 -405zM844 84
q229 0 405 145l-405 406l-406 -406q172 -145 406 -145zM844 1337q-234 0 -406 -145l406 -406l405 406q-176 145 -405 145zM1470 711q0 229 -145 405l-405 -405l405 -406q145 172 145 406z" />
    <glyph glyph-name="uni2299" unicode="&#x2299;" 
d="M586 711q0 109 74.5 183.5t183.5 74.5t183.5 -74.5t74.5 -183.5t-74.5 -183.5t-183.5 -74.5t-183.5 74.5t-74.5 183.5zM217 711q0 -129 49 -245t133 -200t200 -133t245 -49q130 0 246 49t199.5 133t132 200t48.5 245q0 173 -82.5 317t-226.5 226.5t-317 82.5
q-129 0 -245 -48.5t-200 -132t-133 -199.5t-49 -246zM1577 711q0 -152 -57 -288t-154.5 -234t-233.5 -155t-288 -57t-288 57t-233.5 155t-154.5 234t-57 288t57 288t154.5 233.5t233.5 154.5t288 57t288 -57t233.5 -154.5t154.5 -233.5t57 -288z" />
    <glyph glyph-name="uni22A0" unicode="&#x22a0;" 
d="M1554 0h-1421v1421h1421v-1421zM1374 106l-530 529l-529 -529h1059zM1448 184v1055l-528 -528zM1372 1315h-1055l527 -529zM240 1241v-1059l528 529z" />
    <glyph glyph-name="uni2460" unicode="&#x2460;" horiz-adv-x="1945" 
d="M1044 193h-106v899l-221 -179v129l231 187h96v-1036zM973 1464q-155 0 -294.5 -59t-240.5 -159t-160 -239.5t-59 -295.5q0 -155 59 -294.5t160 -240.5t240.5 -160t294.5 -59q156 0 295.5 59t239.5 160t159 240.5t59 294.5q0 156 -59 295.5t-159 239.5t-239.5 159
t-295.5 59zM973 1571q178 0 337.5 -67t274 -181.5t181.5 -274t67 -337.5t-67 -337.5t-181.5 -274.5t-274 -182t-337.5 -67t-337.5 67t-274 182t-181.5 274.5t-67 337.5t67 337.5t181.5 274t274 181.5t337.5 67z" />
    <glyph glyph-name="uni2461" unicode="&#x2461;" horiz-adv-x="1945" 
d="M1270 193h-584v102l354 420q113 133 113 252q0 81 -50 129.5t-128 48.5q-88 0 -140.5 -59.5t-52.5 -165.5h-112q1 147 85 235t220 88q131 0 211 -81t80 -197q0 -141 -156 -326l-289 -344h449v-102zM973 1464q-155 0 -294.5 -59t-240.5 -159t-160 -239.5t-59 -295.5
q0 -155 59 -294.5t160 -240.5t240.5 -160t294.5 -59q156 0 295.5 59t239.5 160t159 240.5t59 294.5q0 156 -59 295.5t-159 239.5t-239.5 159t-295.5 59zM973 1571q178 0 337.5 -67t274 -181.5t181.5 -274t67 -337.5t-67 -337.5t-181.5 -274.5t-274 -182t-337.5 -67
t-337.5 67t-274 182t-181.5 274.5t-67 337.5t67 337.5t181.5 274t274 181.5t337.5 67z" />
    <glyph glyph-name="uni2462" unicode="&#x2462;" horiz-adv-x="1945" 
d="M971 180q-140 0 -227.5 83t-88.5 222h113q3 -95 56.5 -153t146.5 -58t150 57t57 150q0 94 -59.5 144.5t-172.5 50.5h-33v96h27q106 0 157.5 56.5t51.5 138.5q0 81 -49 131.5t-127 50.5q-83 0 -133.5 -56.5t-55.5 -152.5h-112q6 137 87.5 222t213.5 85q131 0 209 -81
t78 -195q0 -82 -40.5 -147t-105.5 -93q71 -19 121.5 -86.5t50.5 -167.5q0 -132 -85.5 -214.5t-229.5 -82.5zM973 1464q-155 0 -294.5 -59t-240.5 -159t-160 -239.5t-59 -295.5q0 -155 59 -294.5t160 -240.5t240.5 -160t294.5 -59q156 0 295.5 59t239.5 160t159 240.5
t59 294.5q0 156 -59 295.5t-159 239.5t-239.5 159t-295.5 59zM973 1571q178 0 337.5 -67t274 -181.5t181.5 -274t67 -337.5t-67 -337.5t-181.5 -274.5t-274 -182t-337.5 -67t-337.5 67t-274 182t-181.5 274.5t-67 337.5t67 337.5t181.5 274t274 181.5t337.5 67z" />
    <glyph glyph-name="uni2463" unicode="&#x2463;" horiz-adv-x="1945" 
d="M1130 193h-104v243h-471v99l446 694h129v-694h140v-99h-140v-243zM1026 535v552l-352 -552h352zM973 1464q-155 0 -294.5 -59t-240.5 -159t-160 -239.5t-59 -295.5q0 -155 59 -294.5t160 -240.5t240.5 -160t294.5 -59q156 0 295.5 59t239.5 160t159 240.5t59 294.5
q0 156 -59 295.5t-159 239.5t-239.5 159t-295.5 59zM973 1571q178 0 337.5 -67t274 -181.5t181.5 -274t67 -337.5t-67 -337.5t-181.5 -274.5t-274 -182t-337.5 -67t-337.5 67t-274 182t-181.5 274.5t-67 337.5t67 337.5t181.5 274t274 181.5t337.5 67z" />
    <glyph glyph-name="uni2464" unicode="&#x2464;" horiz-adv-x="1945" 
d="M971 178q-138 0 -226.5 80.5t-91.5 226.5h113q2 -97 57 -155t146 -58q97 0 153 70t56 184q0 111 -54 181.5t-143 70.5q-66 0 -112.5 -38.5t-69.5 -102.5h-111l64 592h475v-103h-383l-39 -350q32 43 82.5 69.5t109.5 26.5q126 0 209.5 -97t83.5 -249q0 -153 -85 -250.5
t-234 -97.5zM973 1464q-155 0 -294.5 -59t-240.5 -159t-160 -239.5t-59 -295.5q0 -155 59 -294.5t160 -240.5t240.5 -160t294.5 -59q156 0 295.5 59t239.5 160t159 240.5t59 294.5q0 156 -59 295.5t-159 239.5t-239.5 159t-295.5 59zM973 1571q178 0 337.5 -67t274 -181.5
t181.5 -274t67 -337.5t-67 -337.5t-181.5 -274.5t-274 -182t-337.5 -67t-337.5 67t-274 182t-181.5 274.5t-67 337.5t67 337.5t181.5 274t274 181.5t337.5 67z" />
    <glyph glyph-name="uni2465" unicode="&#x2465;" horiz-adv-x="1945" 
d="M975 176q-154 0 -245 129.5t-91 403.5q0 269 91.5 401.5t244.5 132.5q121 0 198 -75.5t82 -188.5h-112q-6 74 -51 120t-119 46q-64 0 -111 -38.5t-73 -106t-37.5 -148t-10.5 -176.5q27 94 93.5 143t152.5 49q126 0 209.5 -93t83.5 -251q0 -161 -86 -254.5t-219 -93.5z
M971 274q92 0 145 66.5t53 179.5q0 114 -53.5 182t-142.5 68t-144 -71t-55 -179q0 -109 53.5 -177.5t143.5 -68.5zM973 1464q-155 0 -294.5 -59t-240.5 -159t-160 -239.5t-59 -295.5q0 -155 59 -294.5t160 -240.5t240.5 -160t294.5 -59q156 0 295.5 59t239.5 160t159 240.5
t59 294.5q0 156 -59 295.5t-159 239.5t-239.5 159t-295.5 59zM973 1571q178 0 337.5 -67t274 -181.5t181.5 -274t67 -337.5t-67 -337.5t-181.5 -274.5t-274 -182t-337.5 -67t-337.5 67t-274 182t-181.5 274.5t-67 337.5t67 337.5t181.5 274t274 181.5t337.5 67z" />
    <glyph glyph-name="uni2466" unicode="&#x2466;" horiz-adv-x="1945" 
d="M684 1124v105h586v-99l-355 -937h-112l350 931h-469zM973 1464q-155 0 -294.5 -59t-240.5 -159t-160 -239.5t-59 -295.5q0 -155 59 -294.5t160 -240.5t240.5 -160t294.5 -59q156 0 295.5 59t239.5 160t159 240.5t59 294.5q0 156 -59 295.5t-159 239.5t-239.5 159
t-295.5 59zM973 1571q178 0 337.5 -67t274 -181.5t181.5 -274t67 -337.5t-67 -337.5t-181.5 -274.5t-274 -182t-337.5 -67t-337.5 67t-274 182t-181.5 274.5t-67 337.5t67 337.5t181.5 274t274 181.5t337.5 67z" />
    <glyph glyph-name="uni2467" unicode="&#x2467;" horiz-adv-x="1945" 
d="M973 180q-148 0 -235 82t-87 213q0 89 46.5 159.5t121.5 98.5q-64 31 -99.5 96t-35.5 138q0 120 80 200t209 80q128 0 207.5 -80.5t79.5 -199.5q0 -73 -36 -138t-100 -96q76 -28 122 -98.5t46 -159.5q0 -131 -86 -213t-233 -82zM973 276q97 0 152 57t55 146t-55 146
t-152 57q-98 0 -153.5 -57t-55.5 -146t55.5 -146t153.5 -57zM973 778q82 0 130 53t48 136q0 81 -48 131.5t-130 50.5q-83 0 -131.5 -50.5t-48.5 -131.5q0 -84 48.5 -136.5t131.5 -52.5zM973 1464q-155 0 -294.5 -59t-240.5 -159t-160 -239.5t-59 -295.5q0 -155 59 -294.5
t160 -240.5t240.5 -160t294.5 -59q156 0 295.5 59t239.5 160t159 240.5t59 294.5q0 156 -59 295.5t-159 239.5t-239.5 159t-295.5 59zM973 1571q178 0 337.5 -67t274 -181.5t181.5 -274t67 -337.5t-67 -337.5t-181.5 -274.5t-274 -182t-337.5 -67t-337.5 67t-274 182
t-181.5 274.5t-67 337.5t67 337.5t181.5 274t274 181.5t337.5 67z" />
    <glyph glyph-name="uni2468" unicode="&#x2468;" horiz-adv-x="1945" 
d="M971 1245q154 0 245 -129t91 -403q0 -269 -91.5 -402t-244.5 -133q-121 0 -198.5 75.5t-82.5 188.5h113q6 -74 51 -120t119 -46q64 0 111 38.5t72.5 106t37 148t10.5 176.5q-27 -94 -93.5 -143t-152.5 -49q-126 0 -209 93t-83 251q0 161 86 254.5t219 93.5zM975 1147
q-92 0 -145.5 -66.5t-53.5 -179.5q0 -114 54 -182t143 -68t143.5 71t54.5 179q0 109 -53 177.5t-143 68.5zM973 1464q-155 0 -294.5 -59t-240.5 -159t-160 -239.5t-59 -295.5q0 -155 59 -294.5t160 -240.5t240.5 -160t294.5 -59q156 0 295.5 59t239.5 160t159 240.5
t59 294.5q0 156 -59 295.5t-159 239.5t-239.5 159t-295.5 59zM973 1571q178 0 337.5 -67t274 -181.5t181.5 -274t67 -337.5t-67 -337.5t-181.5 -274.5t-274 -182t-337.5 -67t-337.5 67t-274 182t-181.5 274.5t-67 337.5t67 337.5t181.5 274t274 181.5t337.5 67z" />
    <glyph glyph-name="uni2469" unicode="&#x2469;" horiz-adv-x="1945" 
d="M1419 715q0 -533 -289 -533q-288 0 -288 533q0 532 288 532q289 0 289 -532zM1307 715q0 229 -44 330.5t-133 101.5t-132.5 -101.5t-43.5 -330.5q0 -230 43.5 -332t132.5 -102t133 102t44 332zM727 193h-109v1036h109v-1036zM973 1464q-155 0 -294.5 -59t-240.5 -159
t-160 -239.5t-59 -295.5q0 -155 59 -294.5t160 -240.5t240.5 -160t294.5 -59q156 0 295.5 59t239.5 160t159 240.5t59 294.5q0 156 -59 295.5t-159 239.5t-239.5 159t-295.5 59zM973 1571q178 0 337.5 -67t274 -181.5t181.5 -274t67 -337.5t-67 -337.5t-181.5 -274.5
t-274 -182t-337.5 -67t-337.5 67t-274 182t-181.5 274.5t-67 337.5t67 337.5t181.5 274t274 181.5t337.5 67z" />
    <glyph glyph-name="uni25A0" unicode="&#x25a0;" 
d="M1554 1421v-1421h-1421v1421h1421z" />
    <glyph glyph-name="uni25A1" unicode="&#x25a1;" 
d="M1554 1421v-1421h-1421v1421h1421zM240 1315v-1209h1208v1209h-1208z" />
    <glyph glyph-name="uni25B2" unicode="&#x25b2;" 
d="M844 1444l727 -1444h-1452z" />
    <glyph glyph-name="uni25B3" unicode="&#x25b3;" 
d="M844 1444l727 -1444h-1452zM293 106h1106l-555 1098z" />
    <glyph glyph-name="uni25B6" unicode="&#x25b6;" 
d="M123 1438l1444 -727l-1444 -725v1452z" />
    <glyph glyph-name="uni25B7" unicode="&#x25b7;" 
d="M121 1436l1444 -725l-1444 -727v1452zM227 1264v-1106l1096 553z" />
    <glyph glyph-name="uni25BC" unicode="&#x25bc;" 
d="M1571 1421l-727 -1444l-725 1444h1452z" />
    <glyph glyph-name="uni25BD" unicode="&#x25bd;" 
d="M1571 1421l-725 -1444l-727 1444h1452zM1399 1315h-1106l553 -1096z" />
    <glyph glyph-name="uni25C0" unicode="&#x25c0;" 
d="M123 711l1444 727v-1452z" />
    <glyph glyph-name="uni25C1" unicode="&#x25c1;" 
d="M123 711l1444 725v-1452zM1460 158v1106l-1095 -553z" />
    <glyph glyph-name="lozenge" unicode="&#x25ca;" horiz-adv-x="1236" 
d="M104 711l592 710h127l371 -710l-594 -711h-127zM231 698l312 -602l520 629l-309 598z" />
    <glyph glyph-name="uni25CB" unicode="&#x25cb;" 
d="M217 711q0 -129 49 -245t133 -200t200 -133t245 -49q130 0 246 49t199.5 133t132 200t48.5 245q0 173 -82.5 317t-226.5 226.5t-317 82.5q-129 0 -245 -48.5t-200 -132t-133 -199.5t-49 -246zM1577 711q0 -152 -57 -288t-154.5 -234t-233.5 -155t-288 -57t-288 57
t-233.5 155t-154.5 234t-57 288t57 288t154.5 233.5t233.5 154.5t288 57t288 -57t233.5 -154.5t154.5 -233.5t57 -288z" />
    <glyph glyph-name="uni25CF" unicode="&#x25cf;" 
d="M111 711q0 152 57 288t154.5 233.5t233.5 154.5t288 57t288 -57t233.5 -154.5t154.5 -233.5t57 -288t-57 -288t-154.5 -234t-233.5 -155t-288 -57t-288 57t-233.5 155t-154.5 234t-57 288z" />
    <glyph glyph-name="uni25D0" unicode="&#x25d0;" 
d="M844 1337v-1253q130 0 246 49t199.5 133t132 200t48.5 245q0 173 -82.5 317t-226.5 226.5t-317 82.5zM844 -23q-152 0 -288 57t-233.5 155t-154.5 234t-57 288t57 288t154.5 233.5t233.5 154.5t288 57t288 -57t233.5 -154.5t154.5 -233.5t57 -288t-57 -288t-154.5 -234
t-233.5 -155t-288 -57z" />
    <glyph glyph-name="uni25D1" unicode="&#x25d1;" 
d="M844 84v1253q-129 0 -245 -48.5t-200 -132t-133 -199.5t-49 -246q0 -129 49 -245t133 -200t200 -133t245 -49zM844 -23q-152 0 -288 57t-233.5 155t-154.5 234t-57 288t57 288t154.5 233.5t233.5 154.5t288 57t288 -57t233.5 -154.5t154.5 -233.5t57 -288t-57 -288
t-154.5 -234t-233.5 -155t-288 -57z" />
    <glyph glyph-name="uni25D2" unicode="&#x25d2;" 
d="M217 711h1253q0 173 -82.5 317t-226.5 226.5t-317 82.5q-129 0 -245 -48.5t-200 -132t-133 -199.5t-49 -246zM1577 711q0 -152 -57 -288t-154.5 -234t-233.5 -155t-288 -57t-288 57t-233.5 155t-154.5 234t-57 288t57 288t154.5 233.5t233.5 154.5t288 57t288 -57
t233.5 -154.5t154.5 -233.5t57 -288z" />
    <glyph glyph-name="uni25D3" unicode="&#x25d3;" 
d="M1470 711h-1253q0 -129 49 -245t133 -200t200 -133t245 -49q130 0 246 49t199.5 133t132 200t48.5 245zM1577 711q0 -152 -57 -288t-154.5 -234t-233.5 -155t-288 -57t-288 57t-233.5 155t-154.5 234t-57 288t57 288t154.5 233.5t233.5 154.5t288 57t288 -57
t233.5 -154.5t154.5 -233.5t57 -288z" />
    <glyph glyph-name="uni25D4" unicode="&#x25d4;" 
d="M1577 711q0 -152 -57 -288t-154.5 -234t-233.5 -155t-288 -57t-288 57t-233.5 155t-154.5 234t-57 288t57 288t154.5 233.5t233.5 154.5t288 57t288 -57t233.5 -154.5t154.5 -233.5t57 -288zM1470 711h-626v626q-129 0 -245 -48.5t-200 -132t-133 -199.5t-49 -246
q0 -129 49 -245t133 -200t200 -133t245 -49q130 0 246 49t199.5 133t132 200t48.5 245z" />
    <glyph glyph-name="uni25D5" unicode="&#x25d5;" 
d="M844 711v626q-129 0 -245 -48.5t-200 -132t-133 -199.5t-49 -246h627zM844 -23q-152 0 -288 57t-233.5 155t-154.5 234t-57 288t57 288t154.5 233.5t233.5 154.5t288 57t288 -57t233.5 -154.5t154.5 -233.5t57 -288t-57 -288t-154.5 -234t-233.5 -155t-288 -57z" />
    <glyph glyph-name="uni25E7" unicode="&#x25e7;" 
d="M133 1421h1421v-1421h-1421v1421zM1448 106v1209h-604v-1209h604z" />
    <glyph glyph-name="uni25E8" unicode="&#x25e8;" 
d="M133 1421h1421v-1421h-1421v1421zM240 1315v-1209h604v1209h-604z" />
    <glyph glyph-name="uni25E9" unicode="&#x25e9;" 
d="M133 0v1421h1421v-1421h-1421zM1448 106v1209l-1208 -1209h1208z" />
    <glyph glyph-name="uni25EA" unicode="&#x25ea;" 
d="M1554 1421v-1421h-1421v1421h1421zM240 1315v-1209l1208 1209h-1208z" />
    <glyph glyph-name="uni2690" unicode="&#x2690;" 
d="M240 600v-600h-107v1421h1421v-821h-1314zM240 1315v-608h1208v608h-1208z" />
    <glyph glyph-name="uni2691" unicode="&#x2691;" 
d="M240 600v-600h-107v1421h1421v-821h-1314z" />
    <glyph glyph-name="uni278A" unicode="&#x278a;" horiz-adv-x="1945" 
d="M938 193h106v1036h-96l-231 -187v-129l221 179v-899zM973 1571q178 0 337.5 -67t274 -181.5t181.5 -274t67 -337.5t-67 -337.5t-181.5 -274.5t-274 -182t-337.5 -67t-337.5 67t-274 182t-181.5 274.5t-67 337.5t67 337.5t181.5 274t274 181.5t337.5 67z" />
    <glyph glyph-name="uni278B" unicode="&#x278b;" horiz-adv-x="1945" 
d="M686 193h584v102h-449l289 344q156 185 156 326q0 116 -80 197t-211 81q-136 0 -220 -88t-85 -235h112q0 106 52.5 165.5t140.5 59.5q78 0 128 -48.5t50 -129.5q0 -119 -113 -252l-354 -420v-102zM973 1571q178 0 337.5 -67t274 -181.5t181.5 -274t67 -337.5t-67 -337.5
t-181.5 -274.5t-274 -182t-337.5 -67t-337.5 67t-274 182t-181.5 274.5t-67 337.5t67 337.5t181.5 274t274 181.5t337.5 67z" />
    <glyph glyph-name="uni278C" unicode="&#x278c;" horiz-adv-x="1945" 
d="M971 180q144 0 229.5 82.5t85.5 214.5q0 100 -50.5 167.5t-121.5 86.5q65 28 105.5 93t40.5 147q0 114 -78 195t-209 81q-132 0 -213.5 -85t-87.5 -222h112q5 96 55.5 152.5t133.5 56.5q78 0 127 -50.5t49 -131.5q0 -82 -51.5 -138.5t-157.5 -56.5h-27v-96h33
q113 0 172.5 -50.5t59.5 -144.5q0 -93 -57 -150t-150 -57t-146.5 58t-56.5 153h-113q1 -139 88.5 -222t227.5 -83zM973 1571q178 0 337.5 -67t274 -181.5t181.5 -274t67 -337.5t-67 -337.5t-181.5 -274.5t-274 -182t-337.5 -67t-337.5 67t-274 182t-181.5 274.5t-67 337.5
t67 337.5t181.5 274t274 181.5t337.5 67z" />
    <glyph glyph-name="uni278D" unicode="&#x278d;" horiz-adv-x="1945" 
d="M1026 193h104v243h140v99h-140v694h-129l-446 -694v-99h471v-243zM1026 1087v-552h-352zM973 1571q178 0 337.5 -67t274 -181.5t181.5 -274t67 -337.5t-67 -337.5t-181.5 -274.5t-274 -182t-337.5 -67t-337.5 67t-274 182t-181.5 274.5t-67 337.5t67 337.5t181.5 274
t274 181.5t337.5 67z" />
    <glyph glyph-name="uni278E" unicode="&#x278e;" horiz-adv-x="1945" 
d="M971 178q149 0 234 97.5t85 250.5q0 152 -83.5 249t-209.5 97q-59 0 -109.5 -26.5t-82.5 -69.5l39 350h383v103h-475l-64 -592h111q23 64 69.5 102.5t112.5 38.5q89 0 143 -70.5t54 -181.5q0 -114 -56 -184t-153 -70q-91 0 -146 58t-57 155h-113q3 -146 91.5 -226.5
t226.5 -80.5zM973 1571q178 0 337.5 -67t274 -181.5t181.5 -274t67 -337.5t-67 -337.5t-181.5 -274.5t-274 -182t-337.5 -67t-337.5 67t-274 182t-181.5 274.5t-67 337.5t67 337.5t181.5 274t274 181.5t337.5 67z" />
    <glyph glyph-name="uni278F" unicode="&#x278f;" horiz-adv-x="1945" 
d="M975 176q133 0 219 93.5t86 254.5q0 158 -83.5 251t-209.5 93q-86 0 -152.5 -49t-93.5 -143q-1 96 10.5 176.5t37.5 148t73 106t111 38.5q74 0 119 -46t51 -120h112q-5 113 -82 188.5t-198 75.5q-153 0 -244.5 -132.5t-91.5 -401.5q0 -274 91 -403.5t245 -129.5zM971 274
q-90 0 -143.5 68.5t-53.5 177.5q0 108 55 179t144 71t142.5 -68t53.5 -182q0 -113 -53 -179.5t-145 -66.5zM973 1571q178 0 337.5 -67t274 -181.5t181.5 -274t67 -337.5t-67 -337.5t-181.5 -274.5t-274 -182t-337.5 -67t-337.5 67t-274 182t-181.5 274.5t-67 337.5t67 337.5
t181.5 274t274 181.5t337.5 67z" />
    <glyph glyph-name="uni2790" unicode="&#x2790;" horiz-adv-x="1945" 
d="M684 1229v-105h469l-350 -931h112l355 937v99h-586zM973 1571q178 0 337.5 -67t274 -181.5t181.5 -274t67 -337.5t-67 -337.5t-181.5 -274.5t-274 -182t-337.5 -67t-337.5 67t-274 182t-181.5 274.5t-67 337.5t67 337.5t181.5 274t274 181.5t337.5 67z" />
    <glyph glyph-name="uni2791" unicode="&#x2791;" horiz-adv-x="1945" 
d="M973 180q147 0 233 82t86 213q0 89 -46 159.5t-122 98.5q64 31 100 96t36 138q0 119 -79.5 199.5t-207.5 80.5q-129 0 -209 -80t-80 -200q0 -73 35.5 -138t99.5 -96q-75 -28 -121.5 -98.5t-46.5 -159.5q0 -131 87 -213t235 -82zM973 276q-98 0 -153.5 57t-55.5 146
t55.5 146t153.5 57q97 0 152 -57t55 -146t-55 -146t-152 -57zM973 778q-83 0 -131.5 52.5t-48.5 136.5q0 81 48.5 131.5t131.5 50.5q82 0 130 -50.5t48 -131.5q0 -83 -48 -136t-130 -53zM973 1571q178 0 337.5 -67t274 -181.5t181.5 -274t67 -337.5t-67 -337.5
t-181.5 -274.5t-274 -182t-337.5 -67t-337.5 67t-274 182t-181.5 274.5t-67 337.5t67 337.5t181.5 274t274 181.5t337.5 67z" />
    <glyph glyph-name="uni2792" unicode="&#x2792;" horiz-adv-x="1945" 
d="M971 1245q-133 0 -219 -93.5t-86 -254.5q0 -158 83 -251t209 -93q86 0 152.5 49t93.5 143q1 -96 -10.5 -176.5t-37 -148t-72.5 -106t-111 -38.5q-74 0 -119 46t-51 120h-113q5 -113 82.5 -188.5t198.5 -75.5q153 0 244.5 133t91.5 402q0 274 -91 403t-245 129zM975 1147
q90 0 143 -68.5t53 -177.5q0 -108 -54.5 -179t-143.5 -71t-143 68t-54 182q0 113 53.5 179.5t145.5 66.5zM973 1571q178 0 337.5 -67t274 -181.5t181.5 -274t67 -337.5t-67 -337.5t-181.5 -274.5t-274 -182t-337.5 -67t-337.5 67t-274 182t-181.5 274.5t-67 337.5t67 337.5
t181.5 274t274 181.5t337.5 67z" />
    <glyph glyph-name="uni2793" unicode="&#x2793;" horiz-adv-x="1945" 
d="M1419 715q0 532 -289 532q-288 0 -288 -532q0 -533 288 -533q289 0 289 533zM1307 715q0 -230 -44 -332t-133 -102t-132.5 102t-43.5 332q0 229 43.5 330.5t132.5 101.5t133 -101.5t44 -330.5zM618 193h109v1036h-109v-1036zM973 1571q178 0 337.5 -67t274 -181.5
t181.5 -274t67 -337.5t-67 -337.5t-181.5 -274.5t-274 -182t-337.5 -67t-337.5 67t-274 182t-181.5 274.5t-67 337.5t67 337.5t181.5 274t274 181.5t337.5 67z" />
    <glyph glyph-name="uni29B6" unicode="&#x29b6;" 
d="M1577 711q0 -152 -57 -288t-154.5 -234t-233.5 -155t-288 -57t-288 57t-233.5 155t-154.5 234t-57 288t57 288t154.5 233.5t233.5 154.5t288 57t288 -57t233.5 -154.5t154.5 -233.5t57 -288zM1470 711q0 164 -75 303t-206 224t-292 97v-1249q161 13 292 98t206 224
t75 303zM217 711q0 -123 44 -234.5t120.5 -193.5t182.5 -134.5t227 -62.5v1249q-161 -13 -292.5 -98t-206.5 -223.5t-75 -302.5z" />
    <glyph glyph-name="uni2B12" unicode="&#x2b12;" 
d="M1554 1421v-1421h-1421v1421h1421zM240 106h1208v605h-1208v-605z" />
    <glyph glyph-name="uni2B13" unicode="&#x2b13;" 
d="M1554 1421v-1421h-1421v1421h1421zM1448 1315h-1208v-604h1208v604z" />
    <glyph glyph-name="uni2B14" unicode="&#x2b14;" 
d="M1554 1421v-1421h-1421v1421h1421zM240 1315v-1209h1208z" />
    <glyph glyph-name="uni2B15" unicode="&#x2b15;" 
d="M133 0v1421h1421v-1421h-1421zM1448 106v1209h-1208z" />
    <glyph glyph-name="uni2B16" unicode="&#x2b16;" 
d="M846 -29l-740 740l740 739l739 -739zM1434 711l-588 589v-1177z" />
    <glyph glyph-name="uni2B17" unicode="&#x2b17;" 
d="M1585 711l-739 -740l-740 740l740 739zM846 1300l-586 -589l586 -588v1177z" />
    <glyph glyph-name="uni2B18" unicode="&#x2b18;" 
d="M1585 711l-739 -740l-740 740l740 739zM846 1298l-588 -587h1178z" />
    <glyph glyph-name="uni2B19" unicode="&#x2b19;" 
d="M846 1450l739 -739l-739 -740l-740 740zM258 711l588 -586l590 586h-1178z" />
    <glyph glyph-name="uni2B2C" unicode="&#x2b2c;" 
d="M844 258q-203 0 -371.5 60.5t-265 165t-96.5 229.5t96.5 229.5t265 164.5t371.5 60t371.5 -60t265 -164.5t96.5 -229.5t-96.5 -229.5t-265 -165t-371.5 -60.5z" />
    <glyph glyph-name="uni2B2D" unicode="&#x2b2d;" 
d="M844 358q173 0 315.5 46.5t224.5 128t82 180.5t-82 180.5t-224.5 127.5t-315.5 46q-172 0 -315 -46t-225.5 -127.5t-82.5 -180.5t82.5 -180.5t225.5 -128t315 -46.5zM844 258q-203 0 -371.5 60.5t-265 165t-96.5 229.5t96.5 229.5t265 164.5t371.5 60t371.5 -60
t265 -164.5t96.5 -229.5t-96.5 -229.5t-265 -165t-371.5 -60.5z" />
    <glyph glyph-name="uni2B2E" unicode="&#x2b2e;" 
d="M1298 711q0 -203 -60 -371.5t-164.5 -265.5t-229.5 -97t-229.5 97t-165 265.5t-60.5 371.5t60.5 371.5t165 265t229.5 96.5t229.5 -96.5t164.5 -265t60 -371.5z" />
    <glyph glyph-name="uni2B2F" unicode="&#x2b2f;" 
d="M1194 713q0 173 -45 315.5t-125.5 224.5t-179.5 82t-179.5 -82t-125.5 -224.5t-45 -315.5q0 -172 45 -314.5t125.5 -225.5t179.5 -83t179.5 83t125.5 225.5t45 314.5zM1298 713q0 -203 -60 -371.5t-164.5 -265t-229.5 -96.5t-229.5 96.5t-165 265t-60.5 371.5t60.5 371.5
t165 265t229.5 96.5t229.5 -96.5t164.5 -265t60 -371.5z" />
    <glyph glyph-name="commaaccent" unicode="&#xf6c3;" horiz-adv-x="358" 
d="M150 -92l-31 -180q-13 -74 -62 -114t-125 -40l13 70q80 0 98 84l6 30h-72l25 150h148z" />
    <glyph glyph-name="Jacute" horiz-adv-x="1003" 
d="M1108 1815h152l-250 -281h-92zM63 502h107q-20 -95 -20 -154q0 -124 65.5 -195t183.5 -71q130 0 214 94t118 279l170 966h111l-170 -970q-42 -232 -155.5 -353t-295.5 -121q-166 0 -258 100.5t-92 268.5q0 70 22 156z" />
    <glyph glyph-name="i.trk" horiz-adv-x="430" 
d="M410 1206h-150l27 154h149zM176 0h-104l176 1001h104z" />
    <glyph glyph-name="jacute" horiz-adv-x="430" 
d="M-121 -367q-39 0 -92 11l18 96q50 -8 68 -8q150 0 184 198l191 1071h104l-188 -1075q-51 -293 -285 -293zM461 1421h151l-250 -280h-92z" />
    <glyph glyph-name="ringacute" horiz-adv-x="555" 
d="M414 1128q-82 0 -138.5 55t-56.5 138q0 37 15.5 74t54.5 92l149 207h156l-197 -181q1 0 8 1.5t11 1.5q81 0 135.5 -55.5t54.5 -137.5q0 -83 -55 -139t-137 -56zM303 1323q0 -52 30.5 -84.5t80.5 -32.5q49 0 79.5 32t30.5 85q0 51 -30.5 84t-79.5 33t-80 -33t-31 -84z" />
    <glyph glyph-name="commatop" horiz-adv-x="358" 
d="M195 1133l32 180q12 74 61 113.5t126 39.5l-15 -69q-80 0 -98 -84l-6 -31h74l-27 -149h-147z" />
    <glyph glyph-name="caron.slovak" horiz-adv-x="421" 
d="M356 1421h136l-199 -348h-80z" />
    <glyph glyph-name="parenleft.subs" horiz-adv-x="413" 
d="M113 66q0 -197 84 -353h-82q-44 72 -69.5 167t-25.5 186q0 324 230 540h98q-235 -230 -235 -540z" />
    <glyph glyph-name="parenright.subs" horiz-adv-x="413" 
d="M162 252q0 200 -86 354h84q43 -74 68.5 -168.5t25.5 -185.5q0 -150 -56.5 -289t-174.5 -250h-99q238 230 238 539z" />
    <glyph glyph-name="zero.dnom" horiz-adv-x="638" 
d="M236 68q53 0 98 45.5t71.5 115t41 146t14.5 145.5q0 180 -111 180q-53 0 -98 -45.5t-71.5 -115t-41 -146t-14.5 -145.5q0 -180 111 -180zM236 -12q-92 0 -145.5 65t-53.5 195q0 85 17.5 173t53 171t98.5 135.5t144 52.5q92 0 145.5 -65t53.5 -195q0 -85 -17.5 -173
t-53 -171t-98.5 -135.5t-144 -52.5z" />
    <glyph glyph-name="one.dnom" horiz-adv-x="468" 
d="M246 0h-88l116 655l-180 -118l19 108l188 123h80z" />
    <glyph glyph-name="two.dnom" horiz-adv-x="559" 
d="M406 0h-414l14 84l305 315q54 54 83.5 99.5t29.5 95.5t-31 78t-80 28q-62 0 -101.5 -42.5t-45.5 -118.5h-86q8 109 72 175t163 66q89 0 142 -48.5t53 -133.5q0 -67 -37.5 -128t-112.5 -136l-243 -250h303z" />
    <glyph glyph-name="three.dnom" horiz-adv-x="589" 
d="M236 -12q-107 0 -168 63t-56 168h88q-3 -69 34.5 -111t103.5 -42t107.5 42.5t41.5 110.5q0 61 -39 99t-102 38h-31l14 82h41q70 0 115 41.5t45 106.5q0 52 -32 84t-83 32q-58 0 -97.5 -42t-47.5 -113h-84q8 104 71 168.5t160 64.5q90 0 144.5 -52t54.5 -138
q0 -68 -39 -120t-108 -77q50 -19 78 -64t28 -108q0 -102 -67 -167.5t-172 -65.5z" />
    <glyph glyph-name="four.dnom" horiz-adv-x="604" 
d="M373 0h-86l30 172h-325l14 84l400 512h102l-90 -516h82l-15 -80h-84zM332 252l69 391l-305 -391h236z" />
    <glyph glyph-name="five.dnom" horiz-adv-x="595" 
d="M229 -12q-102 0 -160 62t-55 169h88q0 -73 34.5 -113t94.5 -40q75 0 118.5 63t43.5 152q0 69 -31.5 105t-85.5 36q-87 0 -137 -94h-84l119 440h350l-14 -84h-277l-61 -225q45 45 125 45q84 0 134 -57t50 -162q0 -127 -68 -212t-184 -85z" />
    <glyph glyph-name="six.dnom" horiz-adv-x="606" 
d="M244 -12q-98 0 -151.5 66t-53.5 198q0 134 34.5 252t107.5 197t171 79q91 0 143 -54t50 -144h-84q0 55 -30 89t-83 34q-73 0 -130.5 -81t-84.5 -229q60 109 178 109q79 0 131 -55.5t52 -155.5q0 -75 -26.5 -142.5t-85 -115t-138.5 -47.5zM242 63q73 0 118.5 70.5
t45.5 153.5q0 63 -30.5 102t-84.5 39q-73 0 -118.5 -70t-45.5 -153q0 -63 30.5 -102.5t84.5 -39.5z" />
    <glyph glyph-name="seven.dnom" horiz-adv-x="501" 
d="M125 0h-92l356 682h-330l17 86h420l-15 -84z" />
    <glyph glyph-name="eight.dnom" horiz-adv-x="612" 
d="M250 -12q-102 0 -166 57.5t-64 153.5q0 70 39.5 127.5t118.5 83.5q-69 54 -69 149t61.5 158t161.5 63q87 0 143.5 -49.5t56.5 -142.5q0 -142 -129 -199q91 -54 91 -168q0 -100 -67 -166.5t-177 -66.5zM252 66q67 0 111.5 45.5t44.5 111.5q0 62 -41 97.5t-103 35.5
q-67 0 -112.5 -44.5t-45.5 -110.5q0 -62 42 -98.5t104 -36.5zM313 434q60 1 99 44.5t39 105.5q0 52 -34.5 85t-88.5 33q-58 0 -96.5 -44.5t-38.5 -106.5q0 -53 33 -85t87 -32z" />
    <glyph glyph-name="nine.dnom" horiz-adv-x="606" 
d="M362 780q98 0 151.5 -66t53.5 -198q0 -134 -34.5 -252t-107.5 -197t-171 -79q-91 0 -143 54t-50 144h84q0 -55 30 -89t83 -34q73 0 130.5 81t84.5 229q-60 -109 -178 -109q-79 0 -130.5 55.5t-51.5 155.5q0 75 26 142.5t84.5 115t138.5 47.5zM365 705q-73 0 -118.5 -70.5
t-45.5 -153.5q0 -63 30 -102t84 -39q73 0 118.5 70t45.5 153q0 63 -30 102.5t-84 39.5z" />
    <glyph glyph-name="parenleft.dnum" horiz-adv-x="415" 
d="M156 291q0 -196 84 -352h-82q-44 72 -69.5 166.5t-25.5 185.5q0 324 230 540h98q-235 -230 -235 -540z" />
    <glyph glyph-name="parenright.dnum" horiz-adv-x="415" 
d="M201 477q0 200 -86 354h84q43 -74 68.5 -168.5t25.5 -185.5q0 -150 -57 -288.5t-175 -249.5h-98q238 230 238 538z" />
    <glyph glyph-name="backslash.case" horiz-adv-x="831" 
d="M578 -121l-365 1659h98l365 -1659h-98z" />
    <glyph glyph-name="bar.case" horiz-adv-x="550" 
d="M109 -121l292 1659h105l-293 -1659h-104z" />
    <glyph glyph-name="braceleft.case" horiz-adv-x="716" 
d="M530 -121h-102q-231 0 -231 201q0 60 33.5 219t33.5 223q0 67 -38 98t-122 39l17 99q102 9 155 59t74 164l47 283q24 142 92.5 208t204.5 66h129l-16 -94h-119q-86 0 -128.5 -41t-57.5 -141l-47 -281q-23 -134 -74.5 -196.5t-149.5 -77.5q140 -38 140 -185
q0 -62 -35 -219t-35 -221q0 -109 131 -109h117z" />
    <glyph glyph-name="braceright.case" horiz-adv-x="716" 
d="M647 659q-102 -9 -154.5 -59.5t-72.5 -163.5l-49 -282q-24 -142 -92.5 -208.5t-204.5 -66.5h-129l16 94h121q84 0 126.5 41.5t57.5 141.5l47 280q23 134 75 197t151 78q-71 19 -105.5 63.5t-34.5 120.5q0 62 34 219t34 221q0 109 -131 109h-117l19 94h102q231 0 231 -201
q0 -60 -33.5 -219t-33.5 -223q0 -67 39 -98t123 -39z" />
    <glyph glyph-name="bracketleft.case" horiz-adv-x="638" 
d="M733 1446h-278l-258 -1475h276l-16 -92h-381l293 1659h381z" />
    <glyph glyph-name="bracketright.case" horiz-adv-x="638" 
d="M238 1538h380l-290 -1659h-381l16 92h277l260 1475h-277z" />
    <glyph glyph-name="emdash.case" horiz-adv-x="2045" 
d="M104 641l19 94h1870l-19 -94h-1870z" />
    <glyph glyph-name="endash.case" horiz-adv-x="1028" 
d="M104 641l19 94h852l-19 -94h-852z" />
    <glyph glyph-name="guillemotleft.case" horiz-adv-x="925" 
d="M543 1096l-285 -418l143 -402h-98l-170 410l303 410h107zM879 1096l-285 -418l141 -402h-96l-170 410l301 410h109z" />
    <glyph glyph-name="guillemotright.case" horiz-adv-x="925" 
d="M526 276h-108l284 418l-141 402h96l170 -410zM190 276h-106l283 418l-142 402h99l170 -410z" />
    <glyph glyph-name="guilsinglleft.case" horiz-adv-x="591" 
d="M543 1096l-285 -418l143 -402h-98l-170 410l303 410h107z" />
    <glyph glyph-name="guilsinglright.case" horiz-adv-x="591" 
d="M190 276h-106l283 418l-142 402h99l170 -410z" />
    <glyph glyph-name="hyphen.case" horiz-adv-x="733" 
d="M133 643l19 100h503l-18 -100h-504z" />
    <glyph glyph-name="parenleft.case" horiz-adv-x="579" 
d="M240 530q0 -342 174 -651h-103q-180 294 -180 651q0 597 442 1008h121q-235 -222 -344.5 -470t-109.5 -538z" />
    <glyph glyph-name="parenright.case" horiz-adv-x="579" 
d="M393 887q0 342 -174 651h103q180 -299 180 -651q0 -597 -445 -1008h-120q237 221 346.5 469.5t109.5 538.5z" />
    <glyph glyph-name="slash.case" horiz-adv-x="831" 
d="M942 1538l-887 -1659h-108l884 1659h111z" />
    <glyph glyph-name="questiondown.case" horiz-adv-x="831" 
d="M473 922l8 45h97l-11 -60q-11 -64 -41.5 -118.5t-69.5 -93.5t-84 -74.5t-88 -70t-78 -71t-56 -85t-21 -105.5q0 -96 63.5 -153.5t167.5 -57.5q128 0 202 84.5t87 216.5h111q-15 -181 -125 -291.5t-275 -110.5q-146 0 -244 82.5t-98 229.5q0 69 22.5 128t59.5 102t82 81
t92 73t88 70.5t71.5 81.5t39.5 97zM698 1421l-32 -182h-179l33 182h178z" />
    <glyph glyph-name="exclamdown.case" horiz-adv-x="444" 
d="M244 967h61l-96 -695l-47 -272h-115l47 272zM444 1421l-32 -182h-179l33 182h178z" />
    <glyph glyph-name="zero.tf" horiz-adv-x="1228" 
d="M311 332l654 878q-58 140 -201 140q-102 0 -189.5 -83t-145 -217t-90 -299.5t-32.5 -334.5q0 -30 4 -84zM532 -23q-145 0 -236 114t-91 319q0 197 39.5 382t110.5 330.5t180 233.5t237 88q146 0 238 -113.5t92 -318.5q0 -197 -40 -382t-111.5 -331t-181 -234t-237.5 -88z
M541 72q102 0 189.5 83t144.5 217t89.5 299.5t32.5 334.5q0 48 -6 92l-653 -881q57 -145 203 -145z" />
    <glyph glyph-name="one.tf" horiz-adv-x="1228" 
d="M139 0l19 104h362l205 1170l-373 -248l27 139l379 256h102l-231 -1317h291l-19 -104h-762z" />
    <glyph glyph-name="two.tf" horiz-adv-x="1228" 
d="M870 0h-696l19 106l542 607q115 131 170.5 226.5t55.5 190.5t-59.5 154t-156.5 59q-124 0 -205.5 -89t-88.5 -236h-111q4 187 119.5 306.5t290.5 119.5q146 0 234.5 -86.5t88.5 -224.5q0 -114 -64.5 -229.5t-199.5 -266.5l-479 -533h559z" />
    <glyph glyph-name="three.tf" horiz-adv-x="1228" 
d="M539 -23q-180 0 -278.5 116t-76.5 300h109q-15 -142 52.5 -228.5t201.5 -86.5q141 0 232 93t91 241q0 127 -71 200.5t-201 73.5h-31l21 105h55q132 0 219.5 92t87.5 229q0 108 -57.5 169.5t-157.5 61.5q-122 0 -203 -88.5t-92 -230.5h-110q6 182 121.5 301t289.5 119
q147 0 233.5 -89.5t86.5 -236.5q0 -129 -72 -235t-192 -150q79 -28 131.5 -116t52.5 -201q0 -191 -125 -315t-317 -124z" />
    <glyph glyph-name="four.tf" horiz-adv-x="1228" 
d="M793 0h-109l61 346h-604l21 98l745 977h135l-170 -975h164l-18 -100h-164zM762 446l145 816l-620 -816h475z" />
    <glyph glyph-name="five.tf" horiz-adv-x="1228" 
d="M543 -23q-171 0 -273.5 116t-79.5 300h111q-17 -141 51.5 -228t198.5 -87q97 0 177.5 68t124.5 177t44 232q0 130 -57.5 207.5t-157.5 77.5q-89 0 -165.5 -58.5t-123.5 -156.5h-112l215 796h594l-21 -104h-498l-139 -510q43 58 117.5 95.5t148.5 37.5q139 0 224.5 -103
t85.5 -272q0 -113 -33 -219t-92 -188t-147.5 -131.5t-192.5 -49.5z" />
    <glyph glyph-name="six.tf" horiz-adv-x="1228" 
d="M563 -23q-151 0 -240.5 114t-89.5 317q0 277 70.5 513t201.5 379.5t294 143.5q142 0 230 -99.5t83 -254.5h-111q2 114 -55 183.5t-153 69.5q-144 0 -263.5 -175t-169.5 -478q51 119 144 184.5t201 65.5q136 0 221.5 -102.5t85.5 -270.5q0 -150 -55.5 -283.5
t-159.5 -218.5t-234 -88zM561 78q96 0 175.5 68.5t122 177t42.5 229.5q0 131 -56.5 209t-156.5 78q-96 0 -176 -68.5t-123 -177t-43 -229.5q0 -131 57 -209t158 -78z" />
    <glyph glyph-name="seven.tf" horiz-adv-x="1228" 
d="M338 1315l18 106h805l-18 -98l-725 -1323h-119l721 1315h-682z" />
    <glyph glyph-name="eight.tf" horiz-adv-x="1228" 
d="M537 -23q-168 0 -273.5 102t-105.5 261q0 150 86 266t231 154q-63 37 -100 109t-37 159q0 178 116 297t289 119q138 0 229 -90.5t91 -231.5q0 -133 -71.5 -240t-192.5 -149q83 -34 133.5 -119t50.5 -194q0 -192 -126.5 -317.5t-319.5 -125.5zM547 76q138 0 231.5 96
t93.5 248q0 123 -74 195.5t-206 72.5q-138 0 -232 -96t-94 -248q0 -123 74.5 -195.5t206.5 -72.5zM670 793q118 0 200 93.5t82 225.5q0 107 -60 170.5t-159 63.5q-118 0 -201 -94t-83 -226q0 -107 60.5 -170t160.5 -63z" />
    <glyph glyph-name="nine.tf" horiz-adv-x="1228" 
d="M737 1444q151 0 239.5 -113.5t88.5 -316.5q0 -207 -41.5 -396t-114.5 -331t-179.5 -226t-229.5 -84q-142 0 -229.5 99.5t-82.5 255.5h109q-2 -114 55.5 -184t153.5 -70q145 0 264.5 175t169.5 478q-52 -119 -144 -184.5t-200 -65.5q-137 0 -223 102.5t-86 270.5
q0 150 55.5 283.5t160 218.5t234.5 88zM739 1343q-96 0 -176 -68.5t-123 -177t-43 -229.5q0 -131 56.5 -208.5t156.5 -77.5q96 0 176 68.5t123 177t43 229.5q0 131 -56.5 208.5t-156.5 77.5z" />
    <glyph glyph-name="cent.tf" horiz-adv-x="1228" 
d="M571 0h-94l35 197q-112 26 -181 124.5t-69 258.5q0 157 50.5 298t151 237.5t230.5 107.5l35 198h96l-37 -202q117 -24 188 -117.5t62 -222.5h-106q8 81 -33.5 152.5t-126.5 90.5l-149 -835q87 10 153 77t94 171h107q-43 -155 -142 -248t-231 -99zM369 582
q0 -121 42 -193.5t117 -95.5l150 831q-94 -17 -165.5 -98t-107.5 -197t-36 -247z" />
    <glyph glyph-name="dollar.tf" horiz-adv-x="1228" 
d="M539 -217h-93l35 211q-150 29 -234 139.5t-87 269.5h108q2 -128 62 -209t170 -104l106 602l-41 29q-223 140 -223 350q0 156 104 260.5t269 104.5h22l37 202h92l-39 -215q130 -36 201.5 -143t71.5 -252h-109q0 114 -48 191.5t-134 105.5l-100 -573l45 -25q60 -38 99 -71
t73.5 -76.5t50.5 -98.5t16 -123q0 -162 -109 -268t-298 -106h-13zM893 356q0 92 -44.5 155t-133.5 118l-27 12l-98 -561q146 1 224.5 76t78.5 200zM442 1073q0 -152 166 -260l17 -10l96 536q-131 0 -205 -76t-74 -190z" />
    <glyph glyph-name="yen.tf" horiz-adv-x="1228" 
d="M236 559l18 92h270l-274 770h117l264 -755l528 755h133l-547 -770h277l-16 -92h-332l-33 -186h332l-17 -94h-331l-47 -279h-111l47 279h-328l17 94h327l33 186h-327z" />
    <glyph glyph-name="sterling.tf" horiz-adv-x="1228" 
d="M227 584l17 94h157q-3 30 -13 96.5t-15.5 120t-5.5 106.5q0 122 39.5 220t127.5 160.5t214 62.5q180 0 269 -116t89 -320h-111q0 161 -61 247t-184 86q-132 0 -201.5 -94.5t-69.5 -245.5q0 -51 5 -103.5t15 -121t13 -98.5h410l-17 -94h-387q0 -6 1 -20.5t1 -20.5
q0 -147 -48.5 -252.5t-166.5 -188.5h617l-17 -102h-776l18 102q137 87 201 190.5t64 250.5q0 6 -1 20.5t-1 20.5h-183z" />
    <glyph glyph-name="Euro.tf" horiz-adv-x="1228" 
d="M127 518l16 94h129q5 79 29 195h-123l17 94h131q32 111 76.5 204.5t105.5 171.5t143.5 122.5t177.5 44.5q345 0 345 -453h-111q0 350 -238 350q-72 0 -134.5 -36t-110 -100t-82.5 -138.5t-62 -165.5h395l-16 -94h-401q-23 -110 -31 -195h397l-16 -94h-385
q0 -438 262 -438q114 0 201.5 88.5t124.5 263.5h110q-45 -221 -162 -338t-274 -117q-186 0 -279.5 137.5t-93.5 403.5h-141z" />
    <glyph glyph-name="a.ord" horiz-adv-x="659" 
d="M610 655h-90l17 93q-37 -55 -92.5 -81t-114.5 -26q-87 0 -139 47.5t-52 128.5q0 84 58 138.5t165 74.5l228 39l2 14q6 35 6 58q0 57 -34 86.5t-99 29.5q-129 0 -154 -124h-96q16 106 85.5 156t168.5 50t160 -49.5t61 -140.5q0 -27 -10 -102zM348 723q75 0 137 55t80 156
l10 57l-194 -35q-70 -12 -106.5 -47t-36.5 -88q0 -45 28.5 -71.5t81.5 -26.5z" />
    <glyph glyph-name="b.ord" horiz-adv-x="708" 
d="M432 727q99 0 161 103.5t62 236.5q0 91 -37 140.5t-104 49.5q-99 0 -161 -102t-62 -235q0 -93 37 -143t104 -50zM438 643q-63 0 -111 32t-71 95l-18 -115h-91l168 953h95l-64 -365q70 98 182 98q101 0 163.5 -74.5t62.5 -199.5q0 -61 -12.5 -121t-39 -115t-63.5 -96.5
t-89 -66.5t-112 -25z" />
    <glyph glyph-name="c.ord" horiz-adv-x="655" 
d="M395 643q-103 0 -169 71t-66 201q0 107 36 202t112.5 159.5t178.5 64.5q100 0 163 -64t63 -177h-99q0 74 -35 115.5t-96 41.5q-70 0 -123 -53t-77.5 -129t-24.5 -157q0 -93 37 -142t104 -49q61 0 109.5 42t69.5 116h100q-32 -115 -106.5 -178.5t-176.5 -63.5z" />
    <glyph glyph-name="d.ord" horiz-adv-x="708" 
d="M399 727q99 0 161.5 103.5t62.5 234.5q0 93 -37.5 142.5t-104.5 49.5t-119 -50t-78 -126.5t-26 -162.5q0 -91 38 -141t103 -50zM385 643q-99 0 -161 74.5t-62 200.5q0 77 20.5 151t58 135.5t98.5 99t136 37.5q61 0 107 -30t69 -90l70 387h94l-168 -953h-90l16 95
q-71 -107 -188 -107z" />
    <glyph glyph-name="e.ord" horiz-adv-x="667" 
d="M621 1090q0 77 -37 123.5t-101 46.5q-72 0 -130 -61t-81 -161h344q5 40 5 52zM399 643q-104 0 -170.5 70.5t-66.5 204.5q0 106 36 200.5t112 158.5t177 64q102 0 166 -69.5t64 -188.5q0 -56 -17 -125h-440q-2 -16 -2 -43q0 -83 36.5 -136.5t111.5 -53.5q58 0 102 35
t67 102h99q-30 -105 -103 -162t-172 -57z" />
    <glyph glyph-name="f.ord" horiz-adv-x="425" 
d="M535 1247h-162l-105 -592h-96l104 592h-77l14 82h78l18 92q35 197 207 197q48 0 84 -10l-14 -82q-40 8 -66 8q-50 0 -78.5 -30t-40.5 -99l-14 -76h162z" />
    <glyph glyph-name="g.ord" horiz-adv-x="704" 
d="M401 756q67 0 118.5 49.5t76.5 120.5t25 147q0 87 -38 135.5t-106 48.5q-67 0 -118 -49.5t-75 -119.5t-24 -146q0 -89 37.5 -137.5t103.5 -48.5zM362 401q-117 0 -182 58.5t-63 154.5h100q0 -66 38.5 -99.5t106.5 -33.5q76 0 124.5 44t66.5 145l16 98q-77 -96 -186 -96
q-97 0 -159 73.5t-62 194.5q0 73 20 143t57.5 128.5t97.5 94t132 35.5q65 0 113 -32t71 -95l21 115h88l-117 -661q-48 -267 -283 -267z" />
    <glyph glyph-name="h.ord" horiz-adv-x="684" 
d="M637 655h-94l69 400q11 57 11 75q0 64 -33 95.5t-86 31.5q-76 0 -126.5 -61t-68.5 -156l-67 -385h-95l168 953h95l-66 -365q66 98 180 98q85 0 138 -52.5t53 -145.5q0 -45 -6 -88z" />
    <glyph glyph-name="i.ord" horiz-adv-x="307" 
d="M395 1456h-121l23 125h121zM242 655h-95l119 674h94z" />
    <glyph glyph-name="j.ord" horiz-adv-x="307" 
d="M399 1456h-120l22 125h121zM37 410q-45 0 -76 8l16 82q36 -6 54 -6q46 0 74 29t40 93l125 713h95l-127 -721q-34 -198 -201 -198z" />
    <glyph glyph-name="k.ord" horiz-adv-x="628" 
d="M244 655h-97l166 953h95l-101 -584l332 305h121l-289 -268l176 -406h-100l-150 342l-112 -102z" />
    <glyph glyph-name="l.ord" horiz-adv-x="307" 
d="M242 655h-95l168 953h95z" />
    <glyph glyph-name="m.ord" horiz-adv-x="1030" 
d="M979 655h-94l71 406q9 43 9 76q0 61 -28.5 90.5t-78.5 29.5q-66 0 -114.5 -58.5t-63.5 -149.5l-68 -394h-96l72 402q8 62 8 82q0 58 -27.5 88t-76.5 30q-68 0 -116.5 -60.5t-66.5 -156.5l-65 -385h-97l119 674h90l-16 -90q66 102 174 102q62 0 104.5 -31t59.5 -91
q77 122 201 122q80 0 130 -51t50 -147q0 -22 -8 -84z" />
    <glyph glyph-name="n.ord" horiz-adv-x="684" 
d="M639 655h-96l69 400q11 69 11 78q0 64 -33 94t-86 30q-76 0 -126.5 -61t-68.5 -156l-65 -385h-97l119 674h90l-16 -92q67 104 184 104q85 0 138 -50.5t53 -145.5q0 -47 -6 -90z" />
    <glyph glyph-name="o.ord" horiz-adv-x="673" 
d="M397 643q-108 0 -171.5 74t-63.5 201q0 78 21 152t60 135t102 98.5t140 37.5q108 0 172 -73.5t64 -200.5q0 -105 -35.5 -200t-111.5 -159.5t-177 -64.5zM399 727q67 0 119.5 51t78.5 127.5t26 161.5q0 91 -37.5 140.5t-102.5 49.5q-68 0 -120 -50t-77.5 -126t-25.5 -161
q0 -93 37 -143t102 -50z" />
    <glyph glyph-name="p.ord" horiz-adv-x="708" 
d="M434 727q99 0 161 103.5t62 236.5q0 91 -37 140.5t-104 49.5q-99 0 -161 -102t-62 -235q0 -93 37 -143t104 -50zM438 643q-59 0 -106.5 30t-69.5 89l-59 -346h-97l162 913h90l-16 -94q70 106 188 106q100 0 163 -74t63 -200q0 -77 -20.5 -151.5t-59 -136t-100.5 -99
t-138 -37.5z" />
    <glyph glyph-name="q.ord" horiz-adv-x="708" 
d="M399 727q99 0 161.5 103.5t62.5 234.5q0 93 -37.5 142.5t-104.5 49.5t-119 -50t-78 -126.5t-26 -162.5q0 -91 38 -141t103 -50zM385 643q-100 0 -161.5 75t-61.5 200q0 77 20.5 151t58 135.5t98.5 99t136 37.5q133 0 182 -127l19 115h90l-162 -913h-94l57 325
q-67 -98 -182 -98z" />
    <glyph glyph-name="r.ord" horiz-adv-x="454" 
d="M242 655h-95l119 674h90l-22 -117q78 129 203 129q25 0 45 -4l-17 -96q-32 4 -49 4q-81 0 -135.5 -59t-73.5 -164z" />
    <glyph glyph-name="s.ord" horiz-adv-x="616" 
d="M379 643q-109 0 -179.5 56t-70.5 165h96q-2 -65 38 -104t116 -39q66 0 106.5 30.5t40.5 84.5q0 69 -94 104l-70 27q-74 29 -110.5 71t-36.5 107q0 87 64.5 141.5t162.5 54.5q101 0 167.5 -54t66.5 -150h-94q0 62 -39 93.5t-101 31.5q-59 0 -97 -29.5t-38 -81.5
q0 -36 22 -60.5t70 -43.5l70 -27q74 -28 113 -70.5t39 -109.5q0 -86 -67.5 -141.5t-174.5 -55.5z" />
    <glyph glyph-name="t.ord" horiz-adv-x="440" 
d="M356 643q-73 0 -115 38t-42 105q0 22 8 84l67 377h-79l14 82h80l33 178h94l-33 -178h166l-14 -82h-166l-66 -377q-8 -50 -8 -69q0 -72 80 -72q33 0 69 8l-14 -84q-29 -10 -74 -10z" />
    <glyph glyph-name="u.ord" horiz-adv-x="675" 
d="M618 655h-90l15 88q-66 -100 -181 -100q-82 0 -133 52.5t-51 146.5q0 30 8 88l70 399h94l-69 -399q-9 -70 -9 -78q0 -64 31 -94.5t82 -30.5q71 0 120.5 59t67.5 156l68 387h96z" />
    <glyph glyph-name="v.ord" horiz-adv-x="616" 
d="M412 655h-117l-98 674h96l76 -575l280 575h99z" />
    <glyph glyph-name="w.ord" horiz-adv-x="903" 
d="M745 655h-114l-35 555l-227 -555h-115l-53 674h92l39 -565l229 565h107l32 -571l236 571h96z" />
    <glyph glyph-name="x.ord" horiz-adv-x="600" 
d="M610 655h-98l-119 267l-205 -267h-108l270 342l-151 332h102l115 -258l198 258h111l-268 -338z" />
    <glyph glyph-name="y.ord" horiz-adv-x="614" 
d="M154 410q-38 0 -74 8l14 84q27 -8 58 -8q79 0 122 81l29 56l-106 698h96l76 -579l280 579h99l-379 -760q-43 -86 -94 -122.5t-121 -36.5z" />
    <glyph glyph-name="z.ord" horiz-adv-x="577" 
d="M559 655h-455l13 72l428 518h-326l17 84h444l-12 -69l-432 -523h337z" />
    </font>
</defs>
</svg>
