<?xml version="1.0" standalone="no"?>
<!DOCTYPE svg PUBLIC "-//W3C//DTD SVG 1.1//EN" "http://www.w3.org/Graphics/SVG/1.1/DTD/svg11.dtd" >
<svg xmlns="http://www.w3.org/2000/svg" xmlns:xlink="http://www.w3.org/1999/xlink" version="1.1">
<metadata>
Created by FontForge 20170731 at Fri Dec 18 13:48:04 2020
 By Aleksey,,,
Copyright (c) 2018 Schick Toikka. All rights reserved. Scto Grotesk B is a trademark of Schick Toikka. Unauthorised copying or modification of any of its data is illegal.
</metadata>
<defs>
<font id="SctoGroteskB-MediumItalic" horiz-adv-x="1689" >
  <font-face 
    font-family="Scto Grotesk B"
    font-weight="500"
    font-style="italic"
    font-stretch="normal"
    units-per-em="2048"
    panose-1="2 11 6 3 0 0 0 9 0 4"
    ascent="1638"
    descent="-410"
    x-height="1010"
    cap-height="1421"
    bbox="-475 -479 2097 1933"
    underline-thickness="79"
    underline-position="-437"
    unicode-range="U+0020-FB02"
  />
<missing-glyph horiz-adv-x="1253" 
d="M1300 1421l-313 -1779h-1030l311 1779h1032zM612 442l-510 -714h768zM674 528l256 -704l250 1413zM383 1335l256 -706l504 706h-760zM324 1237l-246 -1395l497 699z" />
    <glyph glyph-name="fi" unicode="fi" horiz-adv-x="1110" 
d="M1102 1188h-219l35 203h221zM881 0h-191l178 1010h189zM655 846h-229l-147 -846h-191l148 846h-111l29 164h110l21 112q56 318 338 318q71 0 135 -15l-29 -163q-40 10 -90 10q-73 0 -113 -40.5t-55 -131.5l-16 -90h229z" />
    <glyph glyph-name="fl" unicode="fl" horiz-adv-x="1107" 
d="M874 0h-188l250 1421h188zM655 846h-229l-147 -846h-191l148 846h-111l29 164h110l21 112q56 318 338 318q71 0 135 -15l-29 -163q-40 10 -90 10q-73 0 -113 -40.5t-55 -131.5l-16 -90h229z" />
    <glyph glyph-name=".notdef" horiz-adv-x="1253" 
d="M1300 1421l-313 -1779h-1030l311 1779h1032zM612 442l-510 -714h768zM674 528l256 -704l250 1413zM383 1335l256 -706l504 706h-760zM324 1237l-246 -1395l497 699z" />
    <glyph glyph-name=".null" horiz-adv-x="0" 
 />
    <glyph glyph-name="nonmarkingreturn" horiz-adv-x="682" 
 />
    <glyph glyph-name="space" unicode=" " horiz-adv-x="387" 
 />
    <glyph glyph-name="exclam" unicode="!" horiz-adv-x="501" 
d="M309 500h-125l78 653l47 268h201l-47 -268zM39 0l43 244h240l-43 -244h-240z" />
    <glyph glyph-name="quotedbl" unicode="&#x22;" horiz-adv-x="770" 
d="M471 1421l-125 -516h-137l59 516h203zM821 1421l-125 -516h-137l57 516h205z" />
    <glyph glyph-name="numbersign" unicode="#" horiz-adv-x="1234" 
d="M1049 387h-234l-104 -344h-154l105 344h-238l-105 -344h-151l104 344h-196l26 143h215l109 359h-193l27 143h209l106 348h154l-106 -348h237l107 348h151l-106 -348h217l-25 -143h-235l-109 -359h213zM578 889l-109 -359h238l108 359h-237z" />
    <glyph glyph-name="dollar" unicode="$" horiz-adv-x="1136" 
d="M508 -217h-139l39 223q-88 20 -154 65t-102.5 105t-54 124.5t-17.5 133.5h190q0 -96 41.5 -166t124.5 -100l88 494l-49 22q-124 59 -187 144t-63 206q0 167 113 280t307 116h12l39 208h140l-41 -227q100 -28 169 -94t98.5 -144t29.5 -165h-191q0 80 -35.5 143.5
t-99.5 93.5l-80 -461l59 -26q136 -63 198.5 -144.5t62.5 -220.5q0 -76 -28.5 -147t-82 -128.5t-140.5 -92t-194 -35.5h-16zM827 379q0 70 -34.5 117t-104.5 84l-37 18l-80 -453q130 4 193 70t63 164zM403 1044q0 -54 36 -105.5t96 -82.5l20 -10l76 426q-116 -7 -172 -70.5
t-56 -157.5z" />
    <glyph glyph-name="percent" unicode="%" horiz-adv-x="1519" 
d="M1200 1421h160l-971 -1421h-160zM446 719q-121 0 -193.5 76t-72.5 215q0 104 41 202t121 165t180 67q122 0 195.5 -77t73.5 -216q0 -77 -25 -153.5t-68.5 -138.5t-110 -101t-141.5 -39zM522 1307q-54 0 -97.5 -45t-66 -112.5t-22.5 -139.5q0 -156 110 -156q81 0 135 92.5
t54 204.5q0 156 -113 156zM1141 567q-54 0 -98 -45.5t-66.5 -113t-22.5 -138.5q0 -157 111 -157q81 0 134.5 92.5t53.5 204.5q0 157 -112 157zM1141 702q123 0 195.5 -76t72.5 -216q0 -103 -41.5 -201t-122 -165t-180.5 -67q-121 0 -193.5 76.5t-72.5 216.5q0 103 41 201
t121 164.5t180 66.5z" />
    <glyph glyph-name="ampersand" unicode="&#x26;" horiz-adv-x="1241" 
d="M45 328q0 134 85.5 241t266.5 199q-96 151 -96 309q0 95 43 177t132 136t208 54q154 0 244 -86.5t90 -216.5q0 -132 -90 -237.5t-271 -194.5l209 -306q83 139 117 322h178q-53 -295 -192 -475l172 -250h-219l-84 123q-165 -146 -375 -146q-191 0 -304.5 95t-113.5 256z
M471 152q150 0 268 112l-247 365q-134 -71 -192 -141t-58 -154q0 -83 65 -132.5t164 -49.5zM496 1079q0 -119 69 -233q146 70 204 139.5t58 153.5q0 68 -38 109.5t-105 41.5q-86 0 -137 -62t-51 -149z" />
    <glyph glyph-name="quotesingle" unicode="'" horiz-adv-x="419" 
d="M469 1421l-123 -516h-139l59 516h203z" />
    <glyph glyph-name="parenleft" unicode="(" horiz-adv-x="620" 
d="M301 420q0 -326 148 -629h-166q-164 299 -164 629q0 583 432 1038h190q-440 -488 -440 -1038z" />
    <glyph glyph-name="parenright" unicode=")" horiz-adv-x="620" 
d="M354 829q0 328 -147 629h166q164 -299 164 -629q0 -583 -435 -1038h-190q442 487 442 1038z" />
    <glyph glyph-name="asterisk" unicode="*" horiz-adv-x="841" 
d="M657 780l-135 195l-135 -195l-121 86l146 189l-226 69l45 140l224 -80l-4 237h147l-8 -237l223 80l45 -140l-227 -69l145 -189z" />
    <glyph glyph-name="plus" unicode="+" horiz-adv-x="1228" 
d="M176 582l29 157h364l72 408h164l-72 -408h371l-29 -157h-370l-72 -410h-164l72 410h-365z" />
    <glyph glyph-name="comma" unicode="," horiz-adv-x="528" 
d="M338 244l-53 -293q-48 -270 -320 -270l23 112q146 3 170 150l10 57h-111l43 244h238z" />
    <glyph glyph-name="hyphen" unicode="-" horiz-adv-x="729" 
d="M102 463l31 174h504l-31 -174h-504z" />
    <glyph glyph-name="period" unicode="." horiz-adv-x="526" 
d="M53 0l43 244h238l-43 -244h-238z" />
    <glyph glyph-name="slash" unicode="/" horiz-adv-x="854" 
d="M965 1458l-852 -1667h-185l852 1667h185z" />
    <glyph glyph-name="zero" unicode="0" horiz-adv-x="1116" 
d="M494 147q72 0 135 54t106.5 141t75 195.5t46.5 217t15 206.5q0 167 -47.5 240t-140.5 73q-88 0 -162.5 -81.5t-119.5 -207t-70 -263t-25 -261.5q0 -167 47.5 -240.5t139.5 -73.5zM483 -23q-168 0 -271 121t-103 353q0 103 14.5 212t43 221.5t77 212t111.5 178t151 124
t190 45.5q168 0 271.5 -120t103.5 -353q0 -87 -10 -180t-33 -190.5t-55.5 -187.5t-81 -170t-107 -138.5t-136 -93t-165.5 -34.5z" />
    <glyph glyph-name="one" unicode="1" horiz-adv-x="765" 
d="M467 0h-195l205 1174l-325 -222l41 230l356 239h168z" />
    <glyph glyph-name="two" unicode="2" horiz-adv-x="997" 
d="M805 0h-778l32 180l549 565q93 97 145 179t52 176q0 80 -46 127t-124 47q-103 0 -172 -75t-82 -206h-193q13 206 139.5 328.5t319.5 122.5q162 0 257 -91.5t95 -238.5q0 -233 -264 -493l-426 -443h529z" />
    <glyph glyph-name="three" unicode="3" horiz-adv-x="1048" 
d="M449 -23q-196 0 -301 118t-91 308h195q-11 -120 43 -191t168 -71q112 0 187 80.5t75 210.5q0 99 -55 158t-162 59h-55l30 168h52q118 0 195 76.5t77 193.5q0 91 -46.5 141t-125.5 50q-99 0 -165 -69t-83 -191h-194q19 191 142 308.5t312 117.5q163 0 257.5 -93t94.5 -249
q0 -119 -64.5 -218.5t-176.5 -148.5q66 -30 117 -113t51 -186q0 -198 -134 -328.5t-343 -130.5z" />
    <glyph glyph-name="four" unicode="4" horiz-adv-x="1089" 
d="M760 0h-191l54 317h-598l30 172l721 932h234l-164 -936h149l-30 -168h-150zM653 485l119 680l-522 -680h403z" />
    <glyph glyph-name="five" unicode="5" horiz-adv-x="1044" 
d="M465 -23q-188 0 -299 116.5t-94 309.5h194q-12 -124 42 -193t159 -69q65 0 120.5 36t91.5 94.5t56.5 129.5t20.5 142q0 106 -46 169.5t-130 63.5q-73 0 -137 -50.5t-103 -129.5h-186l213 825h665l-33 -178h-497l-109 -409q41 45 107 74.5t135 29.5q142 0 231.5 -101
t89.5 -278q0 -107 -33.5 -210.5t-94.5 -186.5t-156 -134t-207 -51z" />
    <glyph glyph-name="six" unicode="6" horiz-adv-x="1064" 
d="M483 -23q-174 0 -274 120t-100 358q0 141 23.5 280.5t72 267.5t116 226t163.5 156.5t206 58.5q168 0 265.5 -101t93.5 -272h-193q2 93 -44 151t-126 58q-110 0 -208 -132t-152 -400q55 96 136.5 143t174.5 47q137 0 229 -98.5t92 -274.5q0 -107 -32 -209t-90.5 -185.5
t-150.5 -136.5t-202 -57zM481 141q83 0 149 66.5t98 157t32 178.5q0 102 -46 167.5t-130 65.5q-83 0 -149 -66t-98 -156.5t-32 -180.5q0 -100 46 -166t130 -66z" />
    <glyph glyph-name="seven" unicode="7" horiz-adv-x="954" 
d="M336 0h-209l655 1237h-575l35 184h786l-31 -172z" />
    <glyph glyph-name="eight" unicode="8" horiz-adv-x="1085" 
d="M471 -23q-185 0 -295 104t-110 263q0 135 81 250t218 160q-62 43 -97 117.5t-35 152.5q0 182 124 301t315 119q155 0 256.5 -92t101.5 -248q0 -120 -62.5 -219.5t-176.5 -149.5q73 -36 119 -119t46 -186q0 -92 -35.5 -175t-98 -144.5t-154 -97.5t-197.5 -36zM483 137
q111 0 193 84.5t82 218.5q0 96 -56.5 156.5t-160.5 60.5q-111 0 -193 -84.5t-82 -220.5q0 -96 56.5 -155.5t160.5 -59.5zM606 815q98 0 165 80t67 192q0 90 -49.5 143.5t-129.5 53.5q-99 -1 -166 -81.5t-67 -192.5q0 -90 49 -142.5t131 -52.5z" />
    <glyph glyph-name="nine" unicode="9" horiz-adv-x="1064" 
d="M643 1444q175 0 275 -119t100 -358q0 -177 -38.5 -350.5t-109 -317.5t-184 -233t-250.5 -89q-169 0 -265 100.5t-93 272.5h192q0 -93 45 -151t125 -58q111 0 209 132t152 401q-55 -96 -137.5 -143.5t-176.5 -47.5q-136 0 -227.5 98.5t-91.5 274.5q0 107 31.5 209
t90 185.5t150.5 136.5t203 57zM645 1280q-64 0 -118.5 -39t-89 -99t-53.5 -129t-19 -134q0 -101 47 -167.5t131 -66.5q63 0 117 38.5t88.5 99t53.5 130.5t19 136q0 101 -45.5 166t-130.5 65z" />
    <glyph glyph-name="colon" unicode=":" horiz-adv-x="546" 
d="M63 0l43 244h240l-43 -244h-240zM199 766l43 244h237l-41 -244h-239z" />
    <glyph glyph-name="semicolon" unicode=";" horiz-adv-x="548" 
d="M199 766l43 244h237l-41 -244h-239zM346 244l-53 -293q-48 -270 -320 -270l21 112q148 3 172 150l10 57h-110l43 244h237z" />
    <glyph glyph-name="less" unicode="&#x3c;" horiz-adv-x="1228" 
d="M252 580l31 163l811 408l-35 -195l-617 -305l510 -305l-30 -176z" />
    <glyph glyph-name="equal" unicode="=" horiz-adv-x="1228" 
d="M252 805l29 158h821l-27 -158h-823zM172 358l29 158h821l-27 -158h-823z" />
    <glyph glyph-name="greater" unicode="&#x3e;" horiz-adv-x="1228" 
d="M1024 743l-31 -163l-811 -410l33 197l619 303l-510 307l30 174z" />
    <glyph glyph-name="question" unicode="?" horiz-adv-x="876" 
d="M496 543l-9 -43h-159l6 47q9 66 36 121t63.5 92t78.5 69.5t82.5 62t73.5 60t53 72t20 90.5q0 72 -48 117t-132 45q-109 0 -168.5 -69t-73.5 -191h-194q23 202 140 315t300 113q169 0 271 -87t102 -235q0 -67 -22.5 -124.5t-59 -98.5t-81 -77t-90.5 -67.5t-85 -62.5
t-68 -69t-36 -80zM201 0l43 244h237l-43 -244h-237z" />
    <glyph glyph-name="at" unicode="@" horiz-adv-x="1814" 
d="M1272 35q-83 0 -130 40.5t-52 102.5q-109 -143 -293 -143q-136 0 -224 104t-88 273q0 84 18 164.5t55.5 152.5t90 126t125.5 86t158 32q86 0 151.5 -42t102.5 -114l22 139h174l-116 -665q-4 -24 -4 -47q0 -31 18 -47.5t45 -16.5q74 0 140 72t104.5 188.5t38.5 241.5
q0 248 -153 403.5t-423 155.5q-174 0 -324 -69t-252.5 -186.5t-161 -275t-58.5 -331.5q0 -170 71 -304.5t205.5 -212t310.5 -77.5q147 0 295 51l-22 -131q-144 -41 -279 -41q-215 0 -381 94.5t-254 257t-88 365.5q0 196 69 374.5t190 313.5t298.5 215t382.5 80
q161 0 295 -54t223 -146.5t138 -216.5t49 -265q0 -114 -32.5 -227.5t-90.5 -207.5t-148 -153t-196 -59zM850 180q89 0 157 61t101 153t33 196q0 114 -46 175.5t-132 61.5q-88 0 -155.5 -61t-100.5 -153t-33 -195q0 -115 45.5 -176.5t130.5 -61.5z" />
    <glyph glyph-name="A" unicode="A" horiz-adv-x="1271" 
d="M934 0l-55 375h-527l-186 -375h-209l713 1421h248l215 -1421h-199zM764 1208l-330 -663h422z" />
    <glyph glyph-name="B" unicode="B" horiz-adv-x="1224" 
d="M63 0l250 1421h488q175 0 271.5 -87.5t96.5 -241.5q0 -118 -63.5 -218t-175.5 -141q80 -25 133 -94.5t53 -173.5q0 -209 -139.5 -337t-368.5 -128h-545zM694 809q124 3 197.5 79t73.5 193q0 82 -49.5 125t-143.5 43h-291l-78 -440h291zM625 172q132 3 209 84t77 209
q0 87 -53.5 133.5t-152.5 46.5h-330l-84 -473h334z" />
    <glyph glyph-name="C" unicode="C" horiz-adv-x="1296" 
d="M612 -23q-233 0 -371.5 159t-138.5 419q0 124 28.5 249t88 240.5t142.5 204.5t200.5 142t253.5 53q217 0 348 -141.5t119 -370.5h-205q6 153 -66.5 243.5t-205.5 90.5q-116 0 -213 -66.5t-157 -172t-93 -228.5t-33 -244q0 -190 80 -294.5t227 -104.5q135 0 234.5 84.5
t148.5 248.5h205q-53 -238 -210.5 -375t-381.5 -137z" />
    <glyph glyph-name="D" unicode="D" horiz-adv-x="1302" 
d="M313 1421h432q246 0 383.5 -149t137.5 -398q0 -131 -29 -256.5t-90.5 -237.5t-147.5 -196.5t-208.5 -134t-266.5 -49.5h-461zM295 178h248q100 0 185.5 41t145 109t102.5 156.5t63 183t20 188.5q0 188 -87.5 287.5t-246.5 99.5h-244z" />
    <glyph glyph-name="E" unicode="E" horiz-adv-x="1144" 
d="M63 0l250 1421h875l-33 -182h-676l-73 -424h612l-33 -176h-610l-80 -457h684l-31 -182h-885z" />
    <glyph glyph-name="F" unicode="F" horiz-adv-x="1050" 
d="M63 0l250 1421h830l-33 -182h-631l-76 -436h555l-28 -180h-559l-109 -623h-199z" />
    <glyph glyph-name="G" unicode="G" horiz-adv-x="1355" 
d="M811 1444q226 0 353 -142t118 -360h-207q4 152 -68.5 238t-201.5 86q-116 0 -213 -66.5t-157 -172.5t-93 -229.5t-33 -244.5q0 -196 79 -297.5t222 -101.5q137 0 255 107.5t169 309.5h-332l31 174h524l-129 -745h-178l39 225q-68 -120 -177 -184t-241 -64
q-209 0 -339 154t-130 422q0 105 21 210.5t60 205t100.5 186t138 151t177 101.5t212.5 37z" />
    <glyph glyph-name="H" unicode="H" horiz-adv-x="1329" 
d="M63 0l250 1421h199l-102 -592h624l105 592h200l-249 -1421h-201l110 645h-624l-113 -645h-199z" />
    <glyph glyph-name="I" unicode="I" horiz-adv-x="507" 
d="M63 0l250 1421h199l-250 -1421h-199z" />
    <glyph glyph-name="J" unicode="J" horiz-adv-x="1071" 
d="M63 551h197q-22 -107 -22 -166q0 -108 51 -167.5t147 -59.5q114 0 189 85t104 251l164 927h201l-164 -925q-91 -519 -502 -519q-98 0 -173.5 31t-122 85.5t-70 125.5t-23.5 156q0 81 24 176z" />
    <glyph glyph-name="K" unicode="K" horiz-adv-x="1210" 
d="M63 0l250 1421h199l-121 -694l703 694h247l-604 -596l346 -825h-211l-288 684l-242 -233l-80 -451h-199z" />
    <glyph glyph-name="L" unicode="L" horiz-adv-x="1036" 
d="M61 0l250 1421h199l-219 -1239h620l-32 -182h-818z" />
    <glyph glyph-name="M" unicode="M" horiz-adv-x="1617" 
d="M1374 0h-186l201 1159l-566 -1159h-209l-161 1161l-201 -1161h-189l250 1421h281l162 -1177l579 1177h289z" />
    <glyph glyph-name="N" unicode="N" horiz-adv-x="1343" 
d="M1100 0h-240l-401 1151l-203 -1151h-193l250 1421h242l399 -1153l199 1153h197z" />
    <glyph glyph-name="O" unicode="O" horiz-adv-x="1357" 
d="M610 -23q-232 0 -370 159.5t-138 420.5q0 125 28.5 250t88.5 240t143 203.5t200.5 141t252.5 52.5q232 0 369 -159.5t137 -420.5q0 -125 -28.5 -250t-88 -240t-142 -203.5t-200 -141t-252.5 -52.5zM618 156q116 0 213 66.5t157 171.5t93 227.5t33 242.5q0 192 -79.5 297
t-227.5 105q-94 0 -175.5 -43.5t-139.5 -116t-99.5 -165t-61.5 -191t-20 -193.5q0 -192 79.5 -296.5t227.5 -104.5z" />
    <glyph glyph-name="P" unicode="P" horiz-adv-x="1146" 
d="M1182 1051q0 -236 -153.5 -377.5t-401.5 -141.5h-271l-94 -532h-199l250 1421h451q195 0 306.5 -100t111.5 -270zM647 707q150 3 239 96.5t89 240.5q0 98 -59.5 149.5t-172.5 51.5h-262l-94 -538h260z" />
    <glyph glyph-name="Q" unicode="Q" horiz-adv-x="1357" 
d="M608 -23q-232 0 -370 159.5t-138 420.5q0 125 28.5 250t88.5 240t143 203.5t200.5 141t252.5 52.5q232 0 369 -159.5t137 -420.5q0 -153 -41 -301t-127.5 -279t-206.5 -208l172 -332h-217l-133 254q-86 -21 -158 -21zM616 156q116 0 213 66.5t157 171.5t93 227.5
t33 242.5q0 192 -79.5 297t-227.5 105q-94 0 -175.5 -43.5t-139.5 -116t-99.5 -165t-61.5 -191t-20 -193.5q0 -192 79.5 -296.5t227.5 -104.5z" />
    <glyph glyph-name="R" unicode="R" horiz-adv-x="1243" 
d="M63 0l250 1421h510q182 0 285.5 -97.5t103.5 -262.5q0 -166 -95 -290t-249 -161l215 -610h-206l-203 582h-307l-105 -582h-199zM711 756q133 1 214 83t81 210q0 200 -222 200h-303l-86 -493h316z" />
    <glyph glyph-name="S" unicode="S" horiz-adv-x="1165" 
d="M1042 406q0 -186 -140 -307.5t-353 -121.5q-230 0 -363.5 125t-128.5 330h205q0 -131 79.5 -206.5t211.5 -75.5q119 0 204 66t85 175q0 141 -160 207l-172 68q-283 110 -283 378q0 167 126 283.5t323 116.5q216 0 347.5 -120.5t125.5 -313.5h-205q0 116 -73.5 189
t-194.5 73q-106 0 -178 -63t-72 -158q0 -70 45 -122.5t125 -82.5l162 -64q137 -53 210.5 -142.5t73.5 -233.5z" />
    <glyph glyph-name="T" unicode="T" horiz-adv-x="1110" 
d="M1217 1421l-33 -184h-404l-217 -1237h-201l218 1237h-404l33 184h1008z" />
    <glyph glyph-name="U" unicode="U" horiz-adv-x="1247" 
d="M557 -23q-200 0 -318 108t-118 304q0 72 14 154l152 878h200l-153 -878q-15 -103 -15 -142q0 -114 63.5 -177.5t178.5 -63.5q138 0 230 89.5t120 248.5l164 923h199l-162 -923q-46 -261 -193.5 -391t-361.5 -130z" />
    <glyph glyph-name="V" unicode="V" horiz-adv-x="1189" 
d="M629 0h-254l-174 1421h198l138 -1190l557 1190h213z" />
    <glyph glyph-name="W" unicode="W" horiz-adv-x="1787" 
d="M1317 0h-246l-57 1186l-479 -1186h-244l-80 1421h195l53 -1169l469 1169h243l58 -1173l465 1173h200z" />
    <glyph glyph-name="X" unicode="X" horiz-adv-x="1187" 
d="M184 0h-237l569 715l-315 706h217l233 -536l416 536h233l-561 -714l316 -707h-219l-234 541z" />
    <glyph glyph-name="Y" unicode="Y" horiz-adv-x="1163" 
d="M387 0l94 539l-305 882h213l223 -667l459 667h229l-620 -884l-94 -537h-199z" />
    <glyph glyph-name="Z" unicode="Z" horiz-adv-x="1101" 
d="M276 1421h885l-31 -164l-858 -1073h693l-31 -184h-948l26 164l860 1073h-630z" />
    <glyph glyph-name="bracketleft" unicode="[" horiz-adv-x="657" 
d="M725 1307h-240l-239 -1364h239l-26 -152h-416l295 1667h416z" />
    <glyph glyph-name="backslash" unicode="\" horiz-adv-x="854" 
d="M524 -209l-321 1667h166l319 -1667h-164z" />
    <glyph glyph-name="bracketright" unicode="]" horiz-adv-x="657" 
d="M233 1458h416l-295 -1667h-413l26 152h240l239 1366h-239z" />
    <glyph glyph-name="asciicircum" unicode="^" horiz-adv-x="931" 
d="M180 909l379 512h148l198 -512h-162l-131 353l-258 -353h-174z" />
    <glyph glyph-name="underscore" unicode="_" horiz-adv-x="970" 
d="M-51 -219l26 149h811l-24 -149h-813z" />
    <glyph glyph-name="grave" unicode="`" horiz-adv-x="495" 
d="M170 1421h209l96 -291h-141z" />
    <glyph glyph-name="a" unicode="a" horiz-adv-x="993" 
d="M774 0h-172l25 150q-59 -87 -142.5 -127.5t-167.5 -40.5q-125 0 -200.5 69.5t-75.5 184.5q0 135 95 225t247 117l322 59l8 41q6 34 6 59q0 70 -45.5 107t-122.5 37q-172 0 -209 -168h-190q11 108 71.5 181.5t145 104.5t188.5 31q150 0 245 -74t95 -208q0 -65 -10 -117z
M373 131q61 0 119.5 30t107 99t66.5 166l12 66l-258 -48q-83 -18 -137 -68.5t-54 -121.5q0 -57 37.5 -90t106.5 -33z" />
    <glyph glyph-name="b" unicode="b" horiz-adv-x="1062" 
d="M492 139q73 0 132.5 45.5t95.5 118t55.5 157t19.5 169.5q0 114 -48.5 177.5t-136.5 63.5q-72 0 -131.5 -45t-96 -117.5t-56 -156.5t-19.5 -168q0 -116 48.5 -180t136.5 -64zM512 -18q-92 0 -161 46.5t-99 123.5l-27 -152h-178l250 1421h190l-94 -538q43 67 112 107
t154 40q141 0 234.5 -110t93.5 -289q0 -92 -19 -183t-58 -175.5t-94 -149t-134 -103t-170 -38.5z" />
    <glyph glyph-name="c" unicode="c" horiz-adv-x="993" 
d="M436 -18q-154 0 -259 107t-105 290q0 125 34 240.5t97 207.5t162 147.5t219 55.5q101 0 183.5 -48t127.5 -134.5t35 -192.5h-191q11 90 -34.5 152.5t-137.5 62.5q-72 0 -131 -45t-95 -117.5t-55.5 -156.5t-19.5 -168q0 -116 48 -180t137 -64q78 0 143 58t92 157h193
q-40 -172 -159.5 -272t-283.5 -100z" />
    <glyph glyph-name="d" unicode="d" horiz-adv-x="1064" 
d="M451 139q73 0 132.5 45.5t95.5 118t55.5 157t19.5 169.5q0 114 -49 177.5t-138 63.5q-72 0 -131 -45t-95 -117.5t-55.5 -156.5t-19.5 -168q0 -116 48 -180t137 -64zM401 -18q-138 0 -233.5 107t-95.5 290q0 91 19 182.5t58.5 176t95 149.5t134.5 104t170 39
q85 0 152.5 -44t97.5 -116l96 551h190l-249 -1421h-179l25 139q-109 -157 -281 -157z" />
    <glyph glyph-name="e" unicode="e" horiz-adv-x="1011" 
d="M750 662q0 102 -52 158.5t-133 56.5q-94 0 -167.5 -76t-108.5 -211h454q7 47 7 72zM436 -18q-154 0 -259 107t-105 292q0 99 21 193.5t64 177t103 144.5t143 98t179 36q154 0 254 -106t100 -273q0 -105 -27 -205h-647q-2 -25 -2 -73q0 -106 49 -171t137 -65
q76 0 138 46.5t92 129.5h192q-50 -160 -165 -245.5t-267 -85.5z" />
    <glyph glyph-name="f" unicode="f" horiz-adv-x="651" 
d="M655 846h-229l-147 -846h-191l148 846h-111l29 164h110l21 112q56 318 338 318q71 0 135 -15l-29 -163q-40 10 -90 10q-73 0 -113 -40.5t-55 -131.5l-16 -90h229z" />
    <glyph glyph-name="g" unicode="g" horiz-adv-x="1064" 
d="M459 186q72 0 130.5 44.5t92.5 114.5t52 146t18 148q0 106 -48.5 170.5t-136.5 64.5q-72 0 -130.5 -44.5t-92.5 -114t-52 -145.5t-18 -148q0 -108 47.5 -172t137.5 -64zM383 -383q-180 0 -279.5 93.5t-93.5 240.5h191q1 -90 51 -137t137 -47q103 0 170 63t96 217l21 125
q-61 -72 -125 -107.5t-143 -35.5q-139 0 -234.5 106t-95.5 281q0 112 31.5 220t88.5 196.5t147 143t198 54.5q90 0 161 -47.5t101 -124.5l26 152h179l-168 -953q-78 -440 -459 -440z" />
    <glyph glyph-name="h" unicode="h" horiz-adv-x="1028" 
d="M809 0h-191l105 602q14 91 14 117q0 149 -139 149q-97 0 -167 -85.5t-93 -211.5l-100 -571h-191l250 1421h190l-98 -547q47 74 118.5 115t160.5 41q120 0 190 -73.5t70 -200.5q0 -75 -15 -152z" />
    <glyph glyph-name="i" unicode="i" horiz-adv-x="466" 
d="M459 1188h-219l34 203h222zM238 0h-191l178 1010h189z" />
    <glyph glyph-name="j" unicode="j" horiz-adv-x="466" 
d="M457 1188h-219l34 203h222zM-111 -371q-67 0 -112 11l28 163q38 -6 70 -6q134 0 164 176l184 1037h189l-189 -1076q-54 -305 -334 -305z" />
    <glyph glyph-name="k" unicode="k" horiz-adv-x="966" 
d="M236 0h-189l250 1421h188l-145 -827l446 416h232l-422 -394l252 -616h-201l-201 487l-149 -139z" />
    <glyph glyph-name="l" unicode="l" horiz-adv-x="466" 
d="M236 0h-189l250 1421h188z" />
    <glyph glyph-name="m" unicode="m" horiz-adv-x="1548" 
d="M1327 0h-190l110 623q1 11 7 49t6 55q0 143 -127 143q-82 0 -153 -74t-93 -198l-105 -598h-188l106 612q15 77 15 117q0 70 -33.5 105.5t-93.5 35.5q-86 0 -156.5 -83t-93.5 -216l-100 -571h-191l178 1010h178l-24 -144q102 164 274 164q91 0 152.5 -45t81.5 -131
q63 85 136 130.5t169 45.5q114 0 186 -68.5t72 -205.5q0 -60 -14 -135z" />
    <glyph glyph-name="n" unicode="n" horiz-adv-x="1028" 
d="M809 0h-191l105 602q14 68 14 117q0 149 -139 149q-97 0 -167 -85.5t-93 -211.5l-100 -571h-191l178 1010h178l-24 -144q114 164 289 164q120 0 190 -73.5t70 -200.5q0 -85 -13 -152z" />
    <glyph glyph-name="o" unicode="o" horiz-adv-x="1019" 
d="M436 -18q-154 0 -259 107t-105 290q0 125 34 240.5t97 207.5t162 147.5t219 55.5q152 0 257 -108t105 -291q0 -125 -34 -240t-96.5 -207t-161 -147t-218.5 -55zM451 139q73 0 132.5 45.5t95.5 118t55.5 157t19.5 169.5q0 114 -49 177.5t-138 63.5q-72 0 -131 -45
t-95 -117.5t-55.5 -156.5t-19.5 -168q0 -116 48 -180t137 -64z" />
    <glyph glyph-name="p" unicode="p" horiz-adv-x="1064" 
d="M492 139q73 0 132.5 45.5t95.5 118t55.5 157t19.5 169.5q0 114 -48.5 177.5t-136.5 63.5q-73 0 -132.5 -45t-95.5 -117.5t-55.5 -156.5t-19.5 -168q0 -116 48.5 -180t136.5 -64zM504 -18q-75 0 -145 44t-97 113l-88 -497h-188l239 1368h176l-22 -140q107 160 278 160
q138 0 234 -108t96 -291q0 -91 -18.5 -181.5t-57.5 -175t-94.5 -149.5t-136.5 -104t-176 -39z" />
    <glyph glyph-name="q" unicode="q" horiz-adv-x="1064" 
d="M451 139q73 0 132.5 45.5t95.5 118t55.5 157t19.5 169.5q0 114 -49 177.5t-138 63.5q-72 0 -131 -45t-95 -117.5t-55.5 -156.5t-19.5 -168q0 -116 48 -180t137 -64zM401 -18q-141 0 -235 109t-94 288q0 92 19 183.5t58.5 176t95 149t134.5 103.5t170 39q90 0 158.5 -46.5
t101.5 -125.5l25 152h178l-240 -1368h-190l86 485q-43 -67 -112.5 -106t-154.5 -39z" />
    <glyph glyph-name="r" unicode="r" horiz-adv-x="690" 
d="M236 0h-189l176 1010h178l-34 -197q112 215 311 215q22 0 45 -2l-33 -201q-35 2 -78 2q-103 0 -181.5 -80t-102.5 -217z" />
    <glyph glyph-name="s" unicode="s" horiz-adv-x="931" 
d="M408 -18q-170 0 -276.5 84.5t-102.5 246.5h188q1 -86 53 -135t140 -49q89 0 143.5 38t54.5 105q0 98 -121 136l-112 38q-102 37 -161.5 107.5t-59.5 169.5q0 139 102 223t256 84q160 0 261.5 -84t98.5 -233h-188q-1 84 -49.5 126t-128.5 42q-74 0 -124 -36t-50 -102
q0 -50 29.5 -82.5t91.5 -54.5l112 -37q223 -79 223 -276q0 -135 -105.5 -223t-274.5 -88z" />
    <glyph glyph-name="t" unicode="t" horiz-adv-x="673" 
d="M377 -14q-107 0 -175.5 55.5t-68.5 157.5q0 46 14 137l91 512h-119l31 162h120l45 262h189l-47 -262h233l-28 -162h-234l-90 -508q-10 -77 -10 -88q0 -94 106 -94q48 0 107 12l-31 -166q-70 -18 -133 -18z" />
    <glyph glyph-name="u" unicode="u" horiz-adv-x="1015" 
d="M782 0h-178l27 143q-111 -161 -287 -161q-117 0 -183.5 72.5t-66.5 201.5q0 88 12 150l107 604h190l-104 -602q-16 -78 -16 -117q0 -150 131 -150q97 0 166 85t92 212l98 572h191z" />
    <glyph glyph-name="v" unicode="v" horiz-adv-x="937" 
d="M496 0h-236l-137 1010h192l93 -820l380 820h197z" />
    <glyph glyph-name="w" unicode="w" horiz-adv-x="1386" 
d="M999 0h-223l-35 784l-311 -784h-223l-72 1010h187l38 -799l314 799h205l32 -799l322 799h192z" />
    <glyph glyph-name="x" unicode="x" horiz-adv-x="933" 
d="M795 0h-201l-154 365l-268 -365h-215l395 514l-219 496h205l147 -355l260 355h220l-394 -510z" />
    <glyph glyph-name="y" unicode="y" horiz-adv-x="937" 
d="M82 -371q-68 0 -131 13l31 163q36 -8 90 -8q64 0 106 29t76 94l16 37l-149 1053h192l90 -822l383 822h197l-549 -1110q-72 -146 -155.5 -208.5t-196.5 -62.5z" />
    <glyph glyph-name="z" unicode="z" horiz-adv-x="876" 
d="M698 0h-708l24 143l586 699h-442l30 168h689l-25 -136l-596 -708h471z" />
    <glyph glyph-name="braceleft" unicode="{" horiz-adv-x="745" 
d="M545 -209h-119q-125 0 -185.5 59t-60.5 158q0 34 32 205t32 211q0 114 -158 123l29 155q102 8 152 56.5t73 171.5l41 237q29 156 105 223.5t219 67.5h137l-27 -149h-102q-74 0 -111.5 -38t-54.5 -138l-37 -220q-26 -139 -79.5 -203.5t-156.5 -86.5q144 -43 144 -185
q0 -40 -31 -205.5t-31 -201.5q0 -49 29.5 -69.5t93.5 -20.5h92z" />
    <glyph glyph-name="bar" unicode="|" horiz-adv-x="565" 
d="M70 -209l292 1667h166l-292 -1667h-166z" />
    <glyph glyph-name="braceright" unicode="}" horiz-adv-x="745" 
d="M666 547q-103 -8 -153 -56.5t-73 -171.5l-43 -237q-28 -156 -103 -223.5t-218 -67.5h-137l26 150h103q74 0 110.5 37.5t54.5 138.5l37 219q26 139 79 204t155 87q-142 44 -142 184q0 39 31 205t31 203q0 49 -29.5 69.5t-93.5 20.5h-94l29 149h118q125 0 185.5 -59
t60.5 -158q0 -34 -31.5 -205t-31.5 -211q0 -114 157 -123z" />
    <glyph glyph-name="asciitilde" unicode="~" horiz-adv-x="1234" 
d="M860 514q-54 0 -142.5 31t-170 62.5t-117.5 31.5q-64 0 -78 -86l-8 -45h-147l14 84q35 207 209 207q54 0 142.5 -31.5t170 -62.5t117.5 -31q64 0 78 86l8 45h147l-14 -84q-38 -207 -209 -207z" />
    <glyph glyph-name="uni00A0" unicode="&#xa0;" horiz-adv-x="387" 
 />
    <glyph glyph-name="exclamdown" unicode="&#xa1;" horiz-adv-x="501" 
d="M186 510h125l-78 -653l-47 -269h-200l47 269zM455 1010l-43 -244h-240l43 244h240z" />
    <glyph glyph-name="cent" unicode="&#xa2;" horiz-adv-x="1015" 
d="M489 0h-143l35 197q-117 32 -190.5 133t-73.5 252q0 116 29.5 225.5t84.5 199t141.5 149.5t192.5 73l37 192h141l-34 -198q125 -29 201.5 -128.5t64.5 -234.5h-195q9 69 -16.5 126t-83.5 79l-129 -717q61 17 108 72t70 137h193q-37 -162 -144 -261.5t-256 -111.5z
M309 584q0 -174 101 -224l127 701q-73 -27 -126 -105.5t-77.5 -175t-24.5 -196.5z" />
    <glyph glyph-name="sterling" unicode="&#xa3;" horiz-adv-x="1073" 
d="M121 551l24 147h140q-3 24 -12.5 90.5t-14 112t-4.5 86.5q0 198 108.5 327.5t301.5 129.5q198 0 293.5 -120t95.5 -335h-193q0 287 -196 287q-99 0 -157 -78t-58 -211q0 -42 4 -90t10.5 -107.5t9.5 -91.5h334l-25 -147h-299v-8q0 -227 -172 -363h582l-33 -180h-837
l32 180q111 58 176 152.5t66 208.5v10h-176z" />
    <glyph glyph-name="currency" unicode="&#xa4;" horiz-adv-x="1079" 
d="M578 268q-122 0 -213 58l-125 -125l-121 118l125 125q-54 91 -54 213q0 119 56 213l-129 127l121 121l129 -129q88 55 211 55q117 0 208 -55l129 129l121 -121l-129 -127q58 -98 58 -213q0 -120 -56 -211l125 -127l-121 -118l-127 125q-88 -58 -208 -58zM578 414
q94 0 151 67.5t57 175.5t-57 176t-151 68q-96 0 -152.5 -67.5t-56.5 -176.5t56.5 -176t152.5 -67z" />
    <glyph glyph-name="yen" unicode="&#xa5;" horiz-adv-x="1140" 
d="M172 535l25 147h231l-242 739h203l213 -682l451 682h221l-504 -739h231l-24 -147h-305l-27 -152h305l-26 -147h-306l-40 -236h-197l41 236h-301l24 147h301l27 152h-301z" />
    <glyph glyph-name="brokenbar" unicode="&#xa6;" horiz-adv-x="565" 
d="M70 -209l127 731h165l-126 -731h-166zM233 725l129 733h166l-129 -733h-166z" />
    <glyph glyph-name="section" unicode="&#xa7;" horiz-adv-x="1019" 
d="M272 1120q0 139 100 232.5t267 93.5q176 0 268 -93t92 -233h-194q0 76 -42 126t-126 50q-85 0 -129.5 -44t-44.5 -115q0 -57 26.5 -95.5t79.5 -78.5l193 -150q79 -63 117.5 -127t38.5 -151q0 -196 -228 -299q74 -89 74 -207q0 -138 -100 -232t-267 -94q-176 0 -268 94
t-92 234h194q0 -76 42 -126t126 -50t129 43.5t45 113.5q0 57 -27 96t-79 80l-193 148q-79 63 -117 126.5t-38 151.5q0 198 225 297q-72 87 -72 209zM735 504q0 86 -92 160l-203 159q-72 -32 -105.5 -79t-33.5 -99q0 -86 92 -158l201 -159q73 31 107 77t34 99z" />
    <glyph glyph-name="dieresis" unicode="&#xa8;" horiz-adv-x="720" 
d="M209 1186l37 203h190l-37 -203h-190zM547 1186l35 203h192l-37 -203h-190z" />
    <glyph glyph-name="copyright" unicode="&#xa9;" horiz-adv-x="1648" 
d="M662 711q0 -135 52.5 -216t149.5 -81q67 0 113.5 45t56.5 127h162q-13 -144 -104.5 -227t-227.5 -83q-166 0 -267 117t-101 318q0 202 101 318t267 116q136 0 227.5 -82.5t104.5 -226.5h-162q-10 82 -56.5 127t-113.5 45q-97 0 -149.5 -80.5t-52.5 -216.5zM123 711
q0 151 57.5 287t155.5 233.5t234 155t286 57.5q151 0 287.5 -57.5t234.5 -155t155.5 -233.5t57.5 -287q0 -202 -97.5 -370.5t-266.5 -266t-371 -97.5q-201 0 -369.5 97.5t-266 266t-97.5 370.5zM236 711q0 -129 48.5 -245.5t131.5 -200.5t197.5 -133.5t242.5 -49.5t243 49.5
t198.5 133.5t132.5 200.5t49 245.5q0 172 -83 316.5t-226.5 228t-313.5 83.5q-128 0 -242.5 -49.5t-197.5 -133t-131.5 -200t-48.5 -245.5z" />
    <glyph glyph-name="ordfeminine" unicode="&#xaa;" horiz-adv-x="727" 
d="M88 471l21 129h540l-22 -129h-539zM666 752h-140l17 98q-74 -111 -205 -111q-84 0 -135 46.5t-51 127.5q0 89 63.5 148t169.5 80l209 39l4 24q4 28 4 41q0 44 -26 67t-72 23q-108 0 -131 -110h-148q12 106 89 162.5t192 56.5q110 0 174.5 -48.5t64.5 -146.5q0 -51 -8 -90
zM385 850q62 0 114 47t68 137l8 45l-155 -30q-54 -9 -87.5 -41.5t-33.5 -81.5q0 -34 22.5 -55t63.5 -21z" />
    <glyph glyph-name="guillemotleft" unicode="&#xab;" horiz-adv-x="985" 
d="M561 889l-278 -422l129 -397h-158l-164 409l299 410h172zM932 889l-279 -422l131 -397h-157l-166 409l303 410h168z" />
    <glyph glyph-name="logicalnot" unicode="&#xac;" horiz-adv-x="1228" 
d="M188 582l29 157h873l-107 -596h-160l78 439h-713z" />
    <glyph glyph-name="uni00AD" unicode="&#xad;" horiz-adv-x="729" 
d="M102 463l31 174h504l-31 -174h-504z" />
    <glyph glyph-name="registered" unicode="&#xae;" horiz-adv-x="1097" 
d="M455 743v486h200q81 0 127.5 -40.5t46.5 -119.5q0 -45 -23 -83.5t-56 -53.5l92 -189h-111l-80 168h-94v-168h-102zM731 1067q0 35 -22 56.5t-62 21.5h-90v-156h90q40 0 62 21t22 57zM160 975q0 127 62.5 235t170 171t234.5 63q193 0 331 -138t138 -331q0 -127 -63 -234.5
t-171 -170t-235 -62.5q-193 0 -330 137t-137 330zM250 975q0 -161 110 -274t267 -113q158 0 269.5 113t111.5 274q0 160 -111.5 273.5t-269.5 113.5q-156 0 -266.5 -113.5t-110.5 -273.5z" />
    <glyph glyph-name="macron" unicode="&#xaf;" horiz-adv-x="665" 
d="M686 1214h-467l25 144h467z" />
    <glyph glyph-name="degree" unicode="&#xb0;" horiz-adv-x="786" 
d="M201 1147q0 123 86.5 210t212.5 87q125 0 213 -87t88 -210t-88 -209t-213 -86q-126 0 -212.5 86t-86.5 209zM338 1147q0 -69 47.5 -118.5t114.5 -49.5q66 0 114 49.5t48 118.5t-48 120.5t-114 51.5q-67 0 -114.5 -51t-47.5 -121z" />
    <glyph glyph-name="plusminus" unicode="&#xb1;" horiz-adv-x="1228" 
d="M76 0l26 158h891l-26 -158h-891zM205 729l28 158h359l67 373h162l-65 -373h366l-26 -158h-369l-65 -371h-162l63 371h-358z" />
    <glyph glyph-name="twosuperior" unicode="&#xb2;" horiz-adv-x="604" 
d="M563 653h-465l23 127l303 291q49 47 74.5 84.5t25.5 77.5q0 37 -23 58.5t-59 21.5q-45 0 -76 -35t-38 -98h-144q13 121 86.5 187.5t184.5 66.5q95 0 152 -51.5t57 -143.5q0 -125 -140 -252l-217 -205h279z" />
    <glyph glyph-name="threesuperior" unicode="&#xb3;" horiz-adv-x="630" 
d="M360 641q-120 0 -182 64.5t-59 168.5h145q-3 -118 98 -118q50 0 82.5 36t32.5 93q0 50 -28 76t-76 26h-33l22 119h35q53 0 90 35t37 88q0 42 -23 65t-61 23q-42 0 -72.5 -30.5t-39.5 -86.5h-140q13 106 84 170t172 64q99 0 158.5 -53t59.5 -144q0 -61 -37 -111t-101 -75
q42 -15 70.5 -60.5t28.5 -103.5q0 -105 -72.5 -175.5t-190.5 -70.5z" />
    <glyph glyph-name="acute" unicode="&#xb4;" horiz-adv-x="495" 
d="M418 1421h219l-252 -291h-152z" />
    <glyph glyph-name="mu" unicode="&#xb5;" horiz-adv-x="1024" 
d="M780 1010h191l-178 -1010h-179l25 143q-109 -161 -279 -161q-81 0 -122 41l-66 -381h-188l239 1368h189l-105 -602q-12 -78 -12 -117q0 -79 35 -115.5t94 -36.5q95 0 164 86t92 213z" />
    <glyph glyph-name="paragraph" unicode="&#xb6;" horiz-adv-x="1183" 
d="M655 1421h205l-250 -1421h-170l99 561h-2q-170 0 -270.5 88.5t-100.5 257.5q0 75 16.5 146.5t54.5 139t93.5 117.5t139 80.5t185.5 30.5zM741 0l250 1421h170l-250 -1421h-170z" />
    <glyph glyph-name="periodcentered" unicode="&#xb7;" horiz-adv-x="526" 
d="M131 438l43 244h238l-43 -244h-238z" />
    <glyph glyph-name="cedilla" unicode="&#xb8;" horiz-adv-x="555" 
d="M119 -391q-74 0 -150 31l21 106q77 -37 129 -37t76 19.5t24 50.5q0 27 -18.5 42t-48.5 15q-39 0 -78 -20l-31 63l131 146h82l-84 -111h18q63 -2 106.5 -35t43.5 -98q0 -80 -61.5 -126t-159.5 -46z" />
    <glyph glyph-name="onesuperior" unicode="&#xb9;" horiz-adv-x="503" 
d="M410 653h-148l105 596l-172 -116l28 163l191 125h131z" />
    <glyph glyph-name="ordmasculine" unicode="&#xba;" horiz-adv-x="768" 
d="M106 471l21 129h537l-23 -129h-535zM434 737q-111 0 -183.5 75t-72.5 198q0 83 23.5 160t66.5 138.5t111 98.5t151 37q111 0 183.5 -74.5t72.5 -198.5q0 -83 -23.5 -160t-66.5 -138.5t-111 -98.5t-151 -37zM444 856q61 0 105.5 52t64 121.5t19.5 141.5q0 73 -29.5 114.5
t-83.5 41.5q-60 0 -105 -52t-65 -122t-20 -143q0 -71 30 -112.5t84 -41.5z" />
    <glyph glyph-name="guillemotright" unicode="&#xbb;" horiz-adv-x="985" 
d="M578 70h-170l276 422l-127 397h156l166 -410zM205 70h-170l276 422l-127 397h156l166 -410z" />
    <glyph glyph-name="onequarter" unicode="&#xbc;" horiz-adv-x="1345" 
d="M1124 0h-141l31 160h-324l23 125l379 483h168l-84 -489h75l-22 -119h-76zM1034 279l53 309l-241 -309h188zM86 0l1137 1421h151l-1132 -1421h-156zM408 653h-148l105 596l-172 -116l28 163l191 125h131z" />
    <glyph glyph-name="onehalf" unicode="&#xbd;" horiz-adv-x="1374" 
d="M1239 0h-463l21 127l303 289q49 49 73.5 86.5t24.5 77.5q0 36 -21.5 56.5t-58.5 20.5q-45 0 -75 -33.5t-39 -97.5h-144q12 119 85.5 186.5t182.5 67.5q96 0 153.5 -51.5t57.5 -142.5q0 -125 -137 -252l-219 -205h279zM86 0l1137 1421h151l-1132 -1421h-156zM408 653h-148
l105 596l-172 -116l28 163l191 125h131z" />
    <glyph glyph-name="threequarters" unicode="&#xbe;" horiz-adv-x="1495" 
d="M1262 0h-142l31 160h-324l23 125l379 483h168l-84 -489h76l-23 -119h-76zM1171 279l54 309l-242 -309h188zM387 641q-120 0 -182.5 64.5t-59.5 168.5h146q-3 -118 98 -118q50 0 82.5 36t32.5 93q0 50 -28 76t-77 26h-32l22 119h35q53 0 90 35t37 88q0 42 -23 65t-61 23
q-42 0 -73 -30.5t-40 -86.5h-139q13 106 84 170t172 64q99 0 158 -52.5t59 -144.5q0 -61 -36.5 -111.5t-100.5 -74.5q42 -15 70 -60t28 -104q0 -105 -72 -175.5t-190 -70.5zM221 0l1137 1421h151l-1132 -1421h-156z" />
    <glyph glyph-name="questiondown" unicode="&#xbf;" horiz-adv-x="876" 
d="M377 467l8 43h160l-4 -47q-9 -66 -36.5 -121t-64.5 -92t-79 -69.5t-82.5 -62t-74 -60t-53.5 -72t-20 -90.5q0 -72 48 -117t132 -45q109 0 168.5 69t73.5 191h192q-22 -202 -138 -315t-300 -113q-169 0 -271 86.5t-102 234.5q0 67 22.5 124.5t59 98.5t81 77.5t90.5 68
t85.5 62.5t68.5 69t36 80zM672 1010l-43 -244h-238l43 244h238z" />
    <glyph glyph-name="Agrave" unicode="&#xc0;" horiz-adv-x="1271" 
d="M932 0l-55 375h-527l-186 -375h-209l713 1421h247l215 -1421h-198zM762 1208l-330 -663h422zM586 1815h209l96 -291h-141z" />
    <glyph glyph-name="Aacute" unicode="&#xc1;" horiz-adv-x="1271" 
d="M932 0l-55 375h-527l-186 -375h-209l713 1421h247l215 -1421h-198zM762 1208l-330 -663h422zM901 1815h219l-252 -291h-151z" />
    <glyph glyph-name="Acircumflex" unicode="&#xc2;" horiz-adv-x="1271" 
d="M932 0l-55 375h-527l-186 -375h-209l713 1421h247l215 -1421h-198zM762 1208l-330 -663h422zM766 1815h182l135 -291h-143l-98 162l-158 -162h-156z" />
    <glyph glyph-name="Atilde" unicode="&#xc3;" horiz-adv-x="1271" 
d="M932 0l-55 375h-527l-186 -375h-209l713 1421h247l215 -1421h-198zM762 1208l-330 -663h422zM954 1534q-32 0 -68 17.5t-62 39t-53 39t-44 17.5q-23 0 -37.5 -24.5t-23.5 -80.5h-127q41 252 178 252q39 0 85 -29t84.5 -57.5t57.5 -28.5q23 0 37 25t23 82h126
q-41 -252 -176 -252z" />
    <glyph glyph-name="Adieresis" unicode="&#xc4;" horiz-adv-x="1271" 
d="M932 0l-55 375h-527l-186 -375h-209l713 1421h247l215 -1421h-198zM762 1208l-330 -663h422zM549 1561l37 202h190l-37 -202h-190zM887 1561l35 202h192l-37 -202h-190z" />
    <glyph glyph-name="Aring" unicode="&#xc5;" horiz-adv-x="1271" 
d="M590 1532q0 91 62.5 154t154.5 63t156.5 -63t64.5 -154q0 -59 -28.5 -106t-77.5 -74l204 -1352h-198l-56 375h-526l-184 -375h-209l696 1389q-59 53 -59 143zM758 1208l-330 -663h422zM702 1532q0 -49 30 -81t75 -32q46 0 77 32t31 81t-31 82t-77 33q-44 0 -74.5 -33
t-30.5 -82z" />
    <glyph glyph-name="AE" unicode="&#xc6;" horiz-adv-x="1859" 
d="M774 0l66 369h-475l-275 -369h-223l1048 1421h981l-32 -182h-674l-74 -424h610l-30 -176h-613l-79 -457h686l-33 -182h-883zM489 543h379l119 676z" />
    <glyph glyph-name="Ccedilla" unicode="&#xc7;" horiz-adv-x="1296" 
d="M451 -391q-78 0 -150 31l18 106q2 -1 14.5 -6.5t19 -8.5t20 -8t24 -7.5t24.5 -4.5t28 -2q52 0 76 19.5t24 50.5q0 27 -19 42t-49 15q-36 0 -75 -20l-33 63l102 115q-174 41 -273.5 191t-99.5 370q0 124 28.5 249t88 240.5t142.5 204.5t200.5 142t253.5 53
q217 0 347.5 -142t117.5 -370h-203q6 153 -66.5 243.5t-205.5 90.5q-94 0 -175.5 -44t-139 -116.5t-98.5 -165t-61 -191t-20 -194.5q0 -190 79.5 -294.5t225.5 -104.5q135 0 234.5 84.5t148.5 248.5h205q-53 -238 -210.5 -375t-381.5 -137q-14 0 -59 5l-51 -68
q75 0 122.5 -33.5t47.5 -99.5q0 -80 -62 -126t-159 -46z" />
    <glyph glyph-name="Egrave" unicode="&#xc8;" horiz-adv-x="1144" 
d="M63 0l250 1421h875l-33 -182h-676l-73 -424h612l-33 -176h-610l-80 -457h684l-31 -182h-885zM545 1815h209l96 -291h-141z" />
    <glyph glyph-name="Eacute" unicode="&#xc9;" horiz-adv-x="1144" 
d="M864 1815h219l-252 -291h-151zM63 0l250 1421h875l-33 -182h-676l-73 -424h612l-33 -176h-610l-80 -457h684l-31 -182h-885z" />
    <glyph glyph-name="Ecircumflex" unicode="&#xca;" horiz-adv-x="1144" 
d="M727 1815h182l135 -291h-143l-98 162l-158 -162h-156zM63 0l250 1421h875l-33 -182h-676l-73 -424h612l-33 -176h-610l-80 -457h684l-31 -182h-885z" />
    <glyph glyph-name="Edieresis" unicode="&#xcb;" horiz-adv-x="1144" 
d="M506 1563l37 202h190l-37 -202h-190zM844 1563l35 202h192l-37 -202h-190zM63 0l250 1421h875l-33 -182h-676l-73 -424h612l-33 -176h-610l-80 -457h684l-31 -182h-885z" />
    <glyph glyph-name="Igrave" unicode="&#xcc;" horiz-adv-x="507" 
d="M63 0l250 1421h199l-250 -1421h-199zM209 1815h209l96 -291h-141z" />
    <glyph glyph-name="Iacute" unicode="&#xcd;" horiz-adv-x="507" 
d="M63 0l250 1421h199l-250 -1421h-199zM526 1815h219l-251 -291h-152z" />
    <glyph glyph-name="Icircumflex" unicode="&#xce;" horiz-adv-x="507" 
d="M63 0l250 1421h199l-250 -1421h-199zM393 1815h182l136 -291h-144l-98 162l-158 -162h-155z" />
    <glyph glyph-name="Idieresis" unicode="&#xcf;" horiz-adv-x="507" 
d="M63 0l250 1421h199l-250 -1421h-199zM172 1563l37 202h190l-37 -202h-190zM510 1563l35 202h192l-37 -202h-190z" />
    <glyph glyph-name="Eth" unicode="&#xd0;" horiz-adv-x="1337" 
d="M78 629l28 164h132l110 628h432q246 0 383 -149t137 -398q0 -131 -29 -256.5t-90 -237.5t-147.5 -196.5t-209.5 -134t-267 -49.5h-459l111 629h-131zM330 178h248q99 0 184.5 41t145.5 109t102.5 156.5t63 183t20.5 188.5q0 188 -87.5 287.5t-248.5 99.5h-242l-80 -450
h236l-29 -164h-237z" />
    <glyph glyph-name="Ntilde" unicode="&#xd1;" horiz-adv-x="1343" 
d="M1100 0h-240l-401 1151l-203 -1151h-193l250 1421h242l399 -1153l199 1153h197zM1010 1538q-32 0 -68 17.5t-62 39t-53.5 39t-44.5 17.5q-23 0 -37.5 -24.5t-23.5 -80.5h-127q41 252 178 252q39 0 85 -29t84.5 -57.5t57.5 -28.5q23 0 37 25t23 82h127q-41 -252 -176 -252
z" />
    <glyph glyph-name="Ograve" unicode="&#xd2;" horiz-adv-x="1357" 
d="M610 -23q-232 0 -370 159.5t-138 420.5q0 125 28.5 250t88.5 240t143 203.5t200.5 141t252.5 52.5q232 0 369 -159.5t137 -420.5q0 -125 -28.5 -250t-88 -240t-142 -203.5t-200 -141t-252.5 -52.5zM618 156q116 0 213 66.5t157 171.5t93 227.5t33 242.5q0 192 -79.5 297
t-227.5 105q-94 0 -175.5 -43.5t-139.5 -116t-99.5 -165t-61.5 -191t-20 -193.5q0 -192 79.5 -296.5t227.5 -104.5zM633 1815h209l96 -291h-141z" />
    <glyph glyph-name="Oacute" unicode="&#xd3;" horiz-adv-x="1357" 
d="M952 1815h219l-251 -291h-152zM610 -23q-232 0 -370 159.5t-138 420.5q0 125 28.5 250t88.5 240t143 203.5t200.5 141t252.5 52.5q232 0 369 -159.5t137 -420.5q0 -125 -28.5 -250t-88 -240t-142 -203.5t-200 -141t-252.5 -52.5zM618 156q116 0 213 66.5t157 171.5
t93 227.5t33 242.5q0 192 -79.5 297t-227.5 105q-94 0 -175.5 -43.5t-139.5 -116t-99.5 -165t-61.5 -191t-20 -193.5q0 -192 79.5 -296.5t227.5 -104.5z" />
    <glyph glyph-name="Ocircumflex" unicode="&#xd4;" horiz-adv-x="1357" 
d="M813 1815h182l135 -291h-143l-98 162l-158 -162h-156zM610 -23q-232 0 -370 159.5t-138 420.5q0 125 28.5 250t88.5 240t143 203.5t200.5 141t252.5 52.5q232 0 369 -159.5t137 -420.5q0 -125 -28.5 -250t-88 -240t-142 -203.5t-200 -141t-252.5 -52.5zM618 156
q116 0 213 66.5t157 171.5t93 227.5t33 242.5q0 192 -79.5 297t-227.5 105q-94 0 -175.5 -43.5t-139.5 -116t-99.5 -165t-61.5 -191t-20 -193.5q0 -192 79.5 -296.5t227.5 -104.5z" />
    <glyph glyph-name="Otilde" unicode="&#xd5;" horiz-adv-x="1357" 
d="M610 -23q-232 0 -370 159.5t-138 420.5q0 125 28.5 250t88.5 240t143 203.5t200.5 141t252.5 52.5q232 0 369 -159.5t137 -420.5q0 -125 -28.5 -250t-88 -240t-142 -203.5t-200 -141t-252.5 -52.5zM618 156q116 0 213 66.5t157 171.5t93 227.5t33 242.5q0 192 -79.5 297
t-227.5 105q-94 0 -175.5 -43.5t-139.5 -116t-99.5 -165t-61.5 -191t-20 -193.5q0 -192 79.5 -296.5t227.5 -104.5zM1004 1538q-32 0 -68 17.5t-62 39t-53.5 39t-44.5 17.5q-23 0 -37.5 -24.5t-23.5 -80.5h-127q41 252 178 252q39 0 85 -29t84.5 -57.5t57.5 -28.5
q23 0 37 25t23 82h127q-41 -252 -176 -252z" />
    <glyph glyph-name="Odieresis" unicode="&#xd6;" horiz-adv-x="1357" 
d="M594 1563l37 202h190l-37 -202h-190zM932 1563l35 202h192l-37 -202h-190zM610 -23q-232 0 -370 159.5t-138 420.5q0 125 28.5 250t88.5 240t143 203.5t200.5 141t252.5 52.5q232 0 369 -159.5t137 -420.5q0 -125 -28.5 -250t-88 -240t-142 -203.5t-200 -141
t-252.5 -52.5zM618 156q116 0 213 66.5t157 171.5t93 227.5t33 242.5q0 192 -79.5 297t-227.5 105q-94 0 -175.5 -43.5t-139.5 -116t-99.5 -165t-61.5 -191t-20 -193.5q0 -192 79.5 -296.5t227.5 -104.5z" />
    <glyph glyph-name="multiply" unicode="&#xd7;" horiz-adv-x="1228" 
d="M1001 305l-129 -96l-241 334l-352 -334l-103 117l363 342l-250 348l131 96l237 -332l353 332l102 -117l-362 -342z" />
    <glyph glyph-name="Oslash" unicode="&#xd8;" horiz-adv-x="1378" 
d="M195 -47h-199l207 252q-88 142 -88 350q0 125 28.5 250.5t87.5 240.5t142 203.5t200.5 141.5t253.5 53q188 0 314 -111l110 133h199l-207 -249q90 -143 90 -351q0 -125 -28.5 -250.5t-87.5 -240.5t-142 -203.5t-200.5 -141.5t-253.5 -53q-190 0 -316 111zM627 152
q95 0 178.5 44t141.5 117t100.5 166.5t62.5 192t20 194.5q0 107 -26 181l-680 -818q74 -77 203 -77zM317 555q0 -109 27 -180l678 817q-75 78 -205 78q-94 0 -176.5 -44t-140.5 -117t-100.5 -166t-62.5 -192.5t-20 -195.5z" />
    <glyph glyph-name="Ugrave" unicode="&#xd9;" horiz-adv-x="1247" 
d="M557 -23q-200 0 -318 108t-118 304q0 72 14 154l152 878h200l-153 -878q-15 -103 -15 -142q0 -114 63.5 -177.5t178.5 -63.5q138 0 230 89.5t120 248.5l164 923h199l-162 -923q-46 -261 -193.5 -391t-361.5 -130zM575 1815h209l97 -291h-142z" />
    <glyph glyph-name="Uacute" unicode="&#xda;" horiz-adv-x="1247" 
d="M895 1815h219l-252 -291h-151zM557 -23q-200 0 -318 108t-118 304q0 72 14 154l152 878h200l-153 -878q-15 -103 -15 -142q0 -114 63.5 -177.5t178.5 -63.5q138 0 230 89.5t120 248.5l164 923h199l-162 -923q-46 -261 -193.5 -391t-361.5 -130z" />
    <glyph glyph-name="Ucircumflex" unicode="&#xdb;" horiz-adv-x="1247" 
d="M756 1815h182l135 -291h-143l-99 162l-157 -162h-156zM557 -23q-200 0 -318 108t-118 304q0 72 14 154l152 878h200l-153 -878q-15 -103 -15 -142q0 -114 63.5 -177.5t178.5 -63.5q138 0 230 89.5t120 248.5l164 923h199l-162 -923q-46 -261 -193.5 -391t-361.5 -130z
" />
    <glyph glyph-name="Udieresis" unicode="&#xdc;" horiz-adv-x="1247" 
d="M537 1563l36 202h191l-37 -202h-190zM874 1563l35 202h193l-37 -202h-191zM557 -23q-200 0 -318 108t-118 304q0 72 14 154l152 878h200l-153 -878q-15 -103 -15 -142q0 -114 63.5 -177.5t178.5 -63.5q138 0 230 89.5t120 248.5l164 923h199l-162 -923
q-46 -261 -193.5 -391t-361.5 -130z" />
    <glyph glyph-name="Yacute" unicode="&#xdd;" horiz-adv-x="1163" 
d="M387 0l94 539l-305 882h213l223 -667l459 667h229l-620 -884l-94 -537h-199zM856 1815h219l-252 -291h-151z" />
    <glyph glyph-name="Thorn" unicode="&#xde;" horiz-adv-x="1148" 
d="M1137 782q0 -232 -154 -372t-403 -140h-271l-47 -270h-199l250 1421h199l-45 -262h248q197 0 309.5 -100t112.5 -277zM604 444q149 0 237.5 92.5t88.5 239.5q0 101 -60.5 154t-173.5 53h-260l-96 -539h264z" />
    <glyph glyph-name="germandbls" unicode="&#xdf;" horiz-adv-x="1099" 
d="M438 8l27 164q73 -31 162 -31q95 0 147.5 49.5t52.5 120.5q0 52 -23.5 88t-70.5 76l-71 62q-50 41 -73.5 77t-23.5 86q0 37 20.5 76t51.5 70t67.5 68t67.5 70t51.5 75t20.5 84q0 68 -43.5 106.5t-116.5 38.5q-92 0 -146 -51t-75 -170l-187 -1067h-186l150 846h-111
l29 164h110l11 63q31 175 137.5 272t267.5 97q157 0 249.5 -80t92.5 -215q0 -60 -28 -116.5t-67.5 -97.5t-79 -76t-67.5 -66.5t-28 -55.5q0 -14 7.5 -27t16.5 -22t29 -27l74 -61q67 -58 103 -123t36 -158q0 -62 -24 -120.5t-70.5 -107.5t-124 -79t-174.5 -30q-109 0 -191 28
z" />
    <glyph glyph-name="agrave" unicode="&#xe0;" horiz-adv-x="993" 
d="M774 0h-172l25 150q-59 -87 -142.5 -127.5t-167.5 -40.5q-125 0 -200.5 69.5t-75.5 184.5q0 135 95 225t247 117l322 59l8 41q6 34 6 59q0 70 -45.5 107t-122.5 37q-172 0 -209 -168h-190q11 108 71.5 181.5t145 104.5t188.5 31q150 0 245 -74t95 -208q0 -65 -10 -117z
M373 131q61 0 119.5 30t107 99t66.5 166l12 66l-258 -48q-83 -18 -137 -68.5t-54 -121.5q0 -57 37.5 -90t106.5 -33zM373 1421h209l96 -291h-141z" />
    <glyph glyph-name="aacute" unicode="&#xe1;" horiz-adv-x="993" 
d="M774 0h-172l25 150q-59 -87 -142.5 -127.5t-167.5 -40.5q-125 0 -200.5 69.5t-75.5 184.5q0 135 95 225t247 117l322 59l8 41q6 34 6 59q0 70 -45.5 107t-122.5 37q-172 0 -209 -168h-190q11 108 71.5 181.5t145 104.5t188.5 31q150 0 245 -74t95 -208q0 -65 -10 -117z
M373 131q61 0 119.5 30t107 99t66.5 166l12 66l-258 -48q-83 -18 -137 -68.5t-54 -121.5q0 -57 37.5 -90t106.5 -33zM690 1421h219l-252 -291h-151z" />
    <glyph glyph-name="acircumflex" unicode="&#xe2;" horiz-adv-x="993" 
d="M774 0h-172l25 150q-59 -87 -142.5 -127.5t-167.5 -40.5q-125 0 -200.5 69.5t-75.5 184.5q0 135 95 225t247 117l322 59l8 41q6 34 6 59q0 70 -45.5 107t-122.5 37q-172 0 -209 -168h-190q11 108 71.5 181.5t145 104.5t188.5 31q150 0 245 -74t95 -208q0 -65 -10 -117z
M373 131q61 0 119.5 30t107 99t66.5 166l12 66l-258 -48q-83 -18 -137 -68.5t-54 -121.5q0 -57 37.5 -90t106.5 -33zM553 1421h182l135 -291h-143l-98 162l-158 -162h-156z" />
    <glyph glyph-name="atilde" unicode="&#xe3;" horiz-adv-x="993" 
d="M774 0h-172l25 150q-59 -87 -142.5 -127.5t-167.5 -40.5q-125 0 -200.5 69.5t-75.5 184.5q0 135 95 225t247 117l322 59l8 41q6 34 6 59q0 70 -45.5 107t-122.5 37q-172 0 -209 -168h-190q11 108 71.5 181.5t145 104.5t188.5 31q150 0 245 -74t95 -208q0 -65 -10 -117z
M373 131q61 0 119.5 30t107 99t66.5 166l12 66l-258 -48q-83 -18 -137 -68.5t-54 -121.5q0 -57 37.5 -90t106.5 -33zM745 1161q-40 0 -86 28.5t-83.5 56.5t-57.5 28q-23 0 -37.5 -24.5t-23.5 -80.5h-127q41 252 178 252q39 0 85 -28.5t84.5 -57t57.5 -28.5q23 0 37 24.5
t23 81.5h127q-41 -252 -177 -252z" />
    <glyph glyph-name="adieresis" unicode="&#xe4;" horiz-adv-x="993" 
d="M774 0h-172l25 150q-59 -87 -142.5 -127.5t-167.5 -40.5q-125 0 -200.5 69.5t-75.5 184.5q0 135 95 225t247 117l322 59l8 41q6 34 6 59q0 70 -45.5 107t-122.5 37q-172 0 -209 -168h-190q11 108 71.5 181.5t145 104.5t188.5 31q150 0 245 -74t95 -208q0 -65 -10 -117z
M373 131q61 0 119.5 30t107 99t66.5 166l12 66l-258 -48q-83 -18 -137 -68.5t-54 -121.5q0 -57 37.5 -90t106.5 -33zM336 1186l37 203h190l-37 -203h-190zM674 1186l35 203h192l-37 -203h-190z" />
    <glyph glyph-name="aring" unicode="&#xe5;" horiz-adv-x="993" 
d="M774 0h-172l25 150q-59 -87 -142.5 -127.5t-167.5 -40.5q-125 0 -200.5 69.5t-75.5 184.5q0 135 95 225t247 117l322 59l8 41q6 34 6 59q0 70 -45.5 107t-122.5 37q-172 0 -209 -168h-190q11 108 71.5 181.5t145 104.5t188.5 31q150 0 245 -74t95 -208q0 -65 -10 -117z
M373 131q61 0 119.5 30t107 99t66.5 166l12 66l-258 -48q-83 -18 -137 -68.5t-54 -121.5q0 -57 37.5 -90t106.5 -33zM408 1321q0 91 63.5 154t155.5 63t156.5 -63t64.5 -154t-64.5 -153t-156.5 -62t-155.5 62t-63.5 153zM520 1321q0 -49 30.5 -81t76.5 -32t77 32t31 81
t-31 82t-77 33t-76.5 -33t-30.5 -82z" />
    <glyph glyph-name="ae" unicode="&#xe6;" horiz-adv-x="1597" 
d="M360 -18q-151 0 -235 73.5t-84 204.5q0 144 106 237t302 93h247l13 69q10 51 10 76q0 72 -45.5 109t-122.5 37q-172 0 -209 -168h-190q9 82 45.5 144t92.5 99t123.5 55.5t145.5 18.5q101 0 177 -37.5t112 -109.5q131 147 317 147q154 0 254.5 -105t100.5 -272
q0 -111 -27 -207h-645q-4 -25 -4 -75q0 -105 48.5 -169.5t135.5 -64.5q77 0 138.5 46t93.5 130h192q-49 -159 -164 -245t-268 -86q-103 0 -185.5 50t-125.5 144q-60 -97 -150.5 -145.5t-198.5 -48.5zM385 131q97 0 174.5 66.5t102.5 199.5l8 49h-226q-102 0 -157.5 -49
t-55.5 -129q0 -64 39.5 -100.5t114.5 -36.5zM870 590h457q4 27 4 72q0 103 -50.5 159t-131.5 56q-94 0 -168 -76t-111 -211z" />
    <glyph glyph-name="ccedilla" unicode="&#xe7;" horiz-adv-x="993" 
d="M303 -391q-77 0 -149 31l18 106q3 -1 14.5 -6.5t18.5 -8.5t20 -8t23.5 -7.5t24.5 -4.5t28 -2q53 0 77.5 19.5t24.5 50.5q0 27 -19.5 42t-49.5 15q-37 0 -76 -20l-31 63l105 117q-117 32 -188.5 132t-71.5 251q0 125 34 240.5t97 207.5t162 147.5t219 55.5
q101 0 183.5 -48t127.5 -134.5t35 -192.5h-191q11 91 -35 153t-137 62q-72 0 -131 -45t-95 -117.5t-55.5 -156.5t-19.5 -168q0 -116 48 -180t137 -64q78 0 143 58t92 157h193q-40 -172 -159.5 -272t-283.5 -100h-28l-54 -68h21q63 -2 106 -35t43 -98q0 -80 -61.5 -126
t-159.5 -46z" />
    <glyph glyph-name="egrave" unicode="&#xe8;" horiz-adv-x="1011" 
d="M750 662q0 102 -52 158.5t-133 56.5q-94 0 -167.5 -76t-108.5 -211h454q7 47 7 72zM436 -18q-154 0 -259 107t-105 292q0 99 21 193.5t64 177t103 144.5t143 98t179 36q154 0 254 -106t100 -273q0 -105 -27 -205h-647q-2 -25 -2 -73q0 -106 49 -171t137 -65
q76 0 138 46.5t92 129.5h192q-50 -160 -165 -245.5t-267 -85.5zM393 1421h209l96 -291h-141z" />
    <glyph glyph-name="eacute" unicode="&#xe9;" horiz-adv-x="1011" 
d="M711 1421h219l-252 -291h-152zM750 662q0 102 -52 158.5t-133 56.5q-94 0 -167.5 -76t-108.5 -211h454q7 47 7 72zM436 -18q-154 0 -259 107t-105 292q0 99 21 193.5t64 177t103 144.5t143 98t179 36q154 0 254 -106t100 -273q0 -105 -27 -205h-647q-2 -25 -2 -73
q0 -106 49 -171t137 -65q76 0 138 46.5t92 129.5h192q-50 -160 -165 -245.5t-267 -85.5z" />
    <glyph glyph-name="ecircumflex" unicode="&#xea;" horiz-adv-x="1011" 
d="M573 1421h183l135 -291h-143l-99 162l-157 -162h-156zM750 662q0 102 -52 158.5t-133 56.5q-94 0 -167.5 -76t-108.5 -211h454q7 47 7 72zM436 -18q-154 0 -259 107t-105 292q0 99 21 193.5t64 177t103 144.5t143 98t179 36q154 0 254 -106t100 -273q0 -105 -27 -205
h-647q-2 -25 -2 -73q0 -106 49 -171t137 -65q76 0 138 46.5t92 129.5h192q-50 -160 -165 -245.5t-267 -85.5z" />
    <glyph glyph-name="edieresis" unicode="&#xeb;" horiz-adv-x="1011" 
d="M356 1186l37 203h191l-37 -203h-191zM694 1186l35 203h193l-37 -203h-191zM750 662q0 102 -52 158.5t-133 56.5q-94 0 -167.5 -76t-108.5 -211h454q7 47 7 72zM436 -18q-154 0 -259 107t-105 292q0 99 21 193.5t64 177t103 144.5t143 98t179 36q154 0 254 -106t100 -273
q0 -105 -27 -205h-647q-2 -25 -2 -73q0 -106 49 -171t137 -65q76 0 138 46.5t92 129.5h192q-50 -160 -165 -245.5t-267 -85.5z" />
    <glyph glyph-name="igrave" unicode="&#xec;" horiz-adv-x="466" 
d="M233 0h-186l176 1010h189zM123 1421h209l96 -291h-141z" />
    <glyph glyph-name="iacute" unicode="&#xed;" horiz-adv-x="466" 
d="M438 1421h219l-251 -291h-152zM233 0h-186l176 1010h189z" />
    <glyph glyph-name="icircumflex" unicode="&#xee;" horiz-adv-x="466" 
d="M303 1421h182l136 -291h-144l-98 162l-158 -162h-155zM233 0h-186l176 1010h189z" />
    <glyph glyph-name="idieresis" unicode="&#xef;" horiz-adv-x="466" 
d="M84 1186l37 203h190l-37 -203h-190zM422 1186l35 203h192l-37 -203h-190zM233 0h-186l176 1010h189z" />
    <glyph glyph-name="eth" unicode="&#xf0;" horiz-adv-x="1032" 
d="M475 1421h207q44 -46 90 -112l186 61l35 -123l-157 -51q118 -228 118 -479q0 -115 -19.5 -221.5t-60.5 -200.5t-100.5 -163t-145 -109.5t-188.5 -40.5q-160 0 -265 106.5t-105 290.5q0 116 31.5 226.5t90 201t152 146t207.5 55.5q143 0 219 -105q-30 130 -88 244
l-207 -68l-37 121l174 57q-51 75 -137 164zM451 137q93 0 163.5 74.5t104 181.5t33.5 223q0 114 -50 177t-139 63q-93 0 -163.5 -73.5t-104 -179t-33.5 -220.5q0 -116 50 -181t139 -65z" />
    <glyph glyph-name="ntilde" unicode="&#xf1;" horiz-adv-x="1028" 
d="M809 0h-191l105 602q14 68 14 117q0 149 -139 149q-97 0 -167 -85.5t-93 -211.5l-100 -571h-191l178 1010h178l-24 -144q114 164 289 164q120 0 190 -73.5t70 -200.5q0 -85 -13 -152zM772 1161q-40 0 -86 28.5t-83.5 56.5t-57.5 28q-24 0 -38.5 -24.5t-23.5 -80.5h-127
q41 252 179 252q39 0 85 -28.5t84.5 -57t57.5 -28.5q23 0 36.5 24.5t22.5 81.5h127q-41 -252 -176 -252z" />
    <glyph glyph-name="ograve" unicode="&#xf2;" horiz-adv-x="1019" 
d="M436 -18q-154 0 -259 107t-105 290q0 125 34 240.5t97 207.5t162 147.5t219 55.5q152 0 257 -108t105 -291q0 -125 -34 -240t-96.5 -207t-161 -147t-218.5 -55zM451 139q73 0 132.5 45.5t95.5 118t55.5 157t19.5 169.5q0 114 -49 177.5t-138 63.5q-72 0 -131 -45
t-95 -117.5t-55.5 -156.5t-19.5 -168q0 -116 48 -180t137 -64zM397 1421h209l96 -291h-141z" />
    <glyph glyph-name="oacute" unicode="&#xf3;" horiz-adv-x="1019" 
d="M717 1421h219l-252 -291h-152zM436 -18q-154 0 -259 107t-105 290q0 125 34 240.5t97 207.5t162 147.5t219 55.5q152 0 257 -108t105 -291q0 -125 -34 -240t-96.5 -207t-161 -147t-218.5 -55zM451 139q73 0 132.5 45.5t95.5 118t55.5 157t19.5 169.5q0 114 -49 177.5
t-138 63.5q-72 0 -131 -45t-95 -117.5t-55.5 -156.5t-19.5 -168q0 -116 48 -180t137 -64z" />
    <glyph glyph-name="ocircumflex" unicode="&#xf4;" horiz-adv-x="1019" 
d="M578 1421h182l135 -291h-143l-99 162l-157 -162h-156zM436 -18q-154 0 -259 107t-105 290q0 125 34 240.5t97 207.5t162 147.5t219 55.5q152 0 257 -108t105 -291q0 -125 -34 -240t-96.5 -207t-161 -147t-218.5 -55zM451 139q73 0 132.5 45.5t95.5 118t55.5 157
t19.5 169.5q0 114 -49 177.5t-138 63.5q-72 0 -131 -45t-95 -117.5t-55.5 -156.5t-19.5 -168q0 -116 48 -180t137 -64z" />
    <glyph glyph-name="otilde" unicode="&#xf5;" horiz-adv-x="1019" 
d="M436 -18q-154 0 -259 107t-105 290q0 125 34 240.5t97 207.5t162 147.5t219 55.5q152 0 257 -108t105 -291q0 -125 -34 -240t-96.5 -207t-161 -147t-218.5 -55zM451 139q73 0 132.5 45.5t95.5 118t55.5 157t19.5 169.5q0 114 -49 177.5t-138 63.5q-72 0 -131 -45
t-95 -117.5t-55.5 -156.5t-19.5 -168q0 -116 48 -180t137 -64zM768 1161q-40 0 -86 28.5t-83.5 56.5t-57.5 28q-24 0 -38.5 -24.5t-23.5 -80.5h-127q41 252 178 252q30 0 66.5 -18t63 -39t54.5 -39t44 -18q23 0 36.5 24.5t22.5 81.5h127q-41 -252 -176 -252z" />
    <glyph glyph-name="odieresis" unicode="&#xf6;" horiz-adv-x="1019" 
d="M358 1186l37 203h191l-37 -203h-191zM696 1186l35 203h193l-37 -203h-191zM436 -18q-154 0 -259 107t-105 290q0 125 34 240.5t97 207.5t162 147.5t219 55.5q152 0 257 -108t105 -291q0 -125 -34 -240t-96.5 -207t-161 -147t-218.5 -55zM451 139q73 0 132.5 45.5
t95.5 118t55.5 157t19.5 169.5q0 114 -49 177.5t-138 63.5q-72 0 -131 -45t-95 -117.5t-55.5 -156.5t-19.5 -168q0 -116 48 -180t137 -64z" />
    <glyph glyph-name="divide" unicode="&#xf7;" horiz-adv-x="1228" 
d="M575 973l43 244h238l-43 -244h-238zM422 104l43 244h237l-43 -244h-237zM203 582l26 157h842l-27 -157h-841z" />
    <glyph glyph-name="oslash" unicode="&#xf8;" horiz-adv-x="1038" 
d="M137 -47h-162l162 197q-59 92 -59 229q0 125 34 240.5t97 207.5t162 147.5t219 55.5q123 0 215 -76l84 103h166l-162 -197q59 -97 59 -229q0 -125 -34 -240t-96.5 -207t-161 -147t-218.5 -55q-130 0 -217 75zM457 123q76 0 138.5 45t101 118t59 160t20.5 177q0 53 -10 84
l-444 -523q20 -29 57 -45t78 -16zM254 383q0 -43 8 -76l445 522q-46 58 -132 58q-76 0 -138.5 -45.5t-101.5 -119.5t-60 -162t-21 -177z" />
    <glyph glyph-name="ugrave" unicode="&#xf9;" horiz-adv-x="1015" 
d="M782 0h-178l27 143q-111 -161 -287 -161q-117 0 -183.5 72.5t-66.5 201.5q0 88 12 150l107 604h190l-104 -602q-16 -78 -16 -117q0 -150 131 -150q97 0 166 85t92 212l98 572h191zM389 1421h209l96 -291h-141z" />
    <glyph glyph-name="uacute" unicode="&#xfa;" horiz-adv-x="1015" 
d="M707 1421h219l-252 -291h-152zM782 0h-178l27 143q-111 -161 -287 -161q-117 0 -183.5 72.5t-66.5 201.5q0 88 12 150l107 604h190l-104 -602q-16 -78 -16 -117q0 -150 131 -150q97 0 166 85t92 212l98 572h191z" />
    <glyph glyph-name="ucircumflex" unicode="&#xfb;" horiz-adv-x="1015" 
d="M569 1421h183l135 -291h-144l-98 162l-158 -162h-155zM782 0h-178l27 143q-111 -161 -287 -161q-117 0 -183.5 72.5t-66.5 201.5q0 88 12 150l107 604h190l-104 -602q-16 -78 -16 -117q0 -150 131 -150q97 0 166 85t92 212l98 572h191z" />
    <glyph glyph-name="udieresis" unicode="&#xfc;" horiz-adv-x="1015" 
d="M350 1186l37 203h191l-37 -203h-191zM688 1186l35 203h192l-36 -203h-191zM782 0h-178l27 143q-111 -161 -287 -161q-117 0 -183.5 72.5t-66.5 201.5q0 88 12 150l107 604h190l-104 -602q-16 -78 -16 -117q0 -150 131 -150q97 0 166 85t92 212l98 572h191z" />
    <glyph glyph-name="yacute" unicode="&#xfd;" horiz-adv-x="937" 
d="M82 -371q-68 0 -131 13l31 163q36 -8 90 -8q64 0 106 29t76 94l16 37l-149 1053h192l90 -822l383 822h197l-549 -1110q-72 -146 -155.5 -208.5t-196.5 -62.5zM668 1421h219l-252 -291h-152z" />
    <glyph glyph-name="thorn" unicode="&#xfe;" horiz-adv-x="1064" 
d="M989 631q0 -91 -18.5 -181.5t-58 -175.5t-95 -150.5t-137 -104.5t-176.5 -39q-75 0 -145 44.5t-97 114.5l-86 -497h-190l313 1779h188l-94 -538q43 67 112 107t154 40q141 0 235.5 -110t94.5 -289zM494 137q72 0 131.5 45.5t96 118.5t56 158t19.5 170q0 114 -49 177.5
t-138 63.5q-72 0 -131 -45t-95 -117.5t-55.5 -156.5t-19.5 -168q0 -116 48 -181t137 -65z" />
    <glyph glyph-name="ydieresis" unicode="&#xff;" horiz-adv-x="937" 
d="M82 -371q-68 0 -131 13l31 163q36 -8 90 -8q64 0 106 29t76 94l16 37l-149 1053h192l90 -822l383 822h197l-549 -1110q-72 -146 -155.5 -208.5t-196.5 -62.5zM309 1186l37 203h191l-37 -203h-191zM647 1186l35 203h192l-36 -203h-191z" />
    <glyph glyph-name="Amacron" unicode="&#x100;" horiz-adv-x="1271" 
d="M932 0l-55 375h-527l-186 -375h-209l713 1421h247l215 -1421h-198zM762 1208l-330 -663h422zM1051 1591h-467l24 144h467z" />
    <glyph glyph-name="amacron" unicode="&#x101;" horiz-adv-x="993" 
d="M774 0h-172l25 150q-59 -87 -142.5 -127.5t-167.5 -40.5q-125 0 -200.5 69.5t-75.5 184.5q0 135 95 225t247 117l322 59l8 41q6 34 6 59q0 70 -45.5 107t-122.5 37q-172 0 -209 -168h-190q11 108 71.5 181.5t145 104.5t188.5 31q150 0 245 -74t95 -208q0 -65 -10 -117z
M373 131q61 0 119.5 30t107 99t66.5 166l12 66l-258 -48q-83 -18 -137 -68.5t-54 -121.5q0 -57 37.5 -90t106.5 -33zM842 1214h-467l24 144h467z" />
    <glyph glyph-name="Abreve" unicode="&#x102;" horiz-adv-x="1271" 
d="M932 0l-55 375h-527l-186 -375h-209l713 1421h247l215 -1421h-198zM762 1208l-330 -663h422zM836 1513q-130 0 -191 80.5t-39 204.5h133q-11 -64 14.5 -105.5t86.5 -41.5q107 0 133 147h131q-48 -285 -268 -285z" />
    <glyph glyph-name="abreve" unicode="&#x103;" horiz-adv-x="993" 
d="M774 0h-172l25 150q-59 -87 -142.5 -127.5t-167.5 -40.5q-125 0 -200.5 69.5t-75.5 184.5q0 135 95 225t247 117l322 59l8 41q6 34 6 59q0 70 -45.5 107t-122.5 37q-172 0 -209 -168h-190q11 108 71.5 181.5t145 104.5t188.5 31q150 0 245 -74t95 -208q0 -65 -10 -117z
M373 131q61 0 119.5 30t107 99t66.5 166l12 66l-258 -48q-83 -18 -137 -68.5t-54 -121.5q0 -57 37.5 -90t106.5 -33zM625 1137q-130 0 -191 80t-39 204h133q-11 -64 14.5 -105.5t86.5 -41.5q107 0 133 147h131q-48 -284 -268 -284z" />
    <glyph glyph-name="Aogonek" unicode="&#x104;" horiz-adv-x="1271" 
d="M1130 0h-90q-151 -142 -151 -207q0 -55 61 -55q46 0 101 22l-23 -118q-53 -23 -119 -23q-74 0 -119 33t-45 98q0 32 13.5 63.5t45 66t51 52.5t62.5 55q10 9 15 13l-55 375h-527l-186 -375h-209l713 1421h247zM762 1208l-330 -663h422z" />
    <glyph glyph-name="aogonek" unicode="&#x105;" horiz-adv-x="993" 
d="M602 0l25 150q-59 -87 -142.5 -127.5t-167.5 -40.5q-125 0 -200.5 69.5t-75.5 184.5q0 135 95 225t247 117l322 59l8 41q6 34 6 59q0 70 -45.5 107t-122.5 37q-172 0 -209 -168h-190q11 108 71.5 181.5t145 104.5t188.5 31q150 0 245 -74t95 -208q0 -65 -10 -117
l-113 -631h-61q-154 -142 -154 -207q0 -55 62 -55q41 0 100 22l-21 -118q-58 -23 -120 -23q-75 0 -119.5 33t-44.5 102q0 57 48 114.5t138 131.5zM373 131q61 0 119.5 30t107 99t66.5 166l12 66l-258 -48q-83 -18 -137 -68.5t-54 -121.5q0 -57 37.5 -90t106.5 -33z" />
    <glyph glyph-name="Cacute" unicode="&#x106;" horiz-adv-x="1296" 
d="M944 1815h219l-252 -291h-151zM612 -23q-233 0 -371.5 159t-138.5 419q0 124 28.5 249t88 240.5t142.5 204.5t200.5 142t253.5 53q217 0 348 -141.5t119 -370.5h-205q6 153 -66.5 243.5t-205.5 90.5q-116 0 -213 -66.5t-157 -172t-93 -228.5t-33 -244q0 -190 80 -294.5
t227 -104.5q135 0 234.5 84.5t148.5 248.5h205q-53 -238 -210.5 -375t-381.5 -137z" />
    <glyph glyph-name="cacute" unicode="&#x107;" horiz-adv-x="993" 
d="M715 1421h219l-252 -291h-152zM436 -18q-154 0 -259 107t-105 290q0 125 34 240.5t97 207.5t162 147.5t219 55.5q101 0 183.5 -48t127.5 -134.5t35 -192.5h-191q11 90 -34.5 152.5t-137.5 62.5q-72 0 -131 -45t-95 -117.5t-55.5 -156.5t-19.5 -168q0 -116 48 -180
t137 -64q78 0 143 58t92 157h193q-40 -172 -159.5 -272t-283.5 -100z" />
    <glyph glyph-name="Ccircumflex" unicode="&#x108;" horiz-adv-x="1296" 
d="M805 1815h182l135 -291h-143l-98 162l-158 -162h-156zM612 -23q-233 0 -371.5 159t-138.5 419q0 124 28.5 249t88 240.5t142.5 204.5t200.5 142t253.5 53q217 0 348 -141.5t119 -370.5h-205q6 153 -66.5 243.5t-205.5 90.5q-116 0 -213 -66.5t-157 -172t-93 -228.5
t-33 -244q0 -190 80 -294.5t227 -104.5q135 0 234.5 84.5t148.5 248.5h205q-53 -238 -210.5 -375t-381.5 -137z" />
    <glyph glyph-name="ccircumflex" unicode="&#x109;" horiz-adv-x="993" 
d="M575 1421h183l135 -291h-143l-99 162l-157 -162h-156zM436 -18q-154 0 -259 107t-105 290q0 125 34 240.5t97 207.5t162 147.5t219 55.5q101 0 183.5 -48t127.5 -134.5t35 -192.5h-191q11 90 -34.5 152.5t-137.5 62.5q-72 0 -131 -45t-95 -117.5t-55.5 -156.5t-19.5 -168
q0 -116 48 -180t137 -64q78 0 143 58t92 157h193q-40 -172 -159.5 -272t-283.5 -100z" />
    <glyph glyph-name="Cdotaccent" unicode="&#x10a;" horiz-adv-x="1296" 
d="M612 -23q-233 0 -371.5 159t-138.5 419q0 124 28.5 249t88 240.5t142.5 204.5t200.5 142t253.5 53q217 0 348 -141.5t119 -370.5h-205q6 153 -66.5 243.5t-205.5 90.5q-116 0 -213 -66.5t-157 -172t-93 -228.5t-33 -244q0 -190 80 -294.5t227 -104.5q135 0 234.5 84.5
t148.5 248.5h205q-53 -238 -210.5 -375t-381.5 -137zM741 1563l35 202h221l-34 -202h-222z" />
    <glyph glyph-name="cdotaccent" unicode="&#x10b;" horiz-adv-x="993" 
d="M436 -18q-154 0 -259 107t-105 290q0 125 34 240.5t97 207.5t162 147.5t219 55.5q101 0 183.5 -48t127.5 -134.5t35 -192.5h-191q11 90 -34.5 152.5t-137.5 62.5q-72 0 -131 -45t-95 -117.5t-55.5 -156.5t-19.5 -168q0 -116 48 -180t137 -64q78 0 143 58t92 157h193
q-40 -172 -159.5 -272t-283.5 -100zM514 1186l35 203h221l-35 -203h-221z" />
    <glyph glyph-name="Ccaron" unicode="&#x10c;" horiz-adv-x="1296" 
d="M934 1524h-184l-134 291h144l98 -162l158 162h155zM612 -23q-233 0 -371.5 159t-138.5 419q0 124 28.5 249t88 240.5t142.5 204.5t200.5 142t253.5 53q217 0 348 -141.5t119 -370.5h-205q6 153 -66.5 243.5t-205.5 90.5q-116 0 -213 -66.5t-157 -172t-93 -228.5t-33 -244
q0 -190 80 -294.5t227 -104.5q135 0 234.5 84.5t148.5 248.5h205q-53 -238 -210.5 -375t-381.5 -137z" />
    <glyph glyph-name="ccaron" unicode="&#x10d;" horiz-adv-x="993" 
d="M705 1130h-185l-133 291h143l99 -161l157 161h156zM436 -18q-154 0 -259 107t-105 290q0 125 34 240.5t97 207.5t162 147.5t219 55.5q101 0 183.5 -48t127.5 -134.5t35 -192.5h-191q11 90 -34.5 152.5t-137.5 62.5q-72 0 -131 -45t-95 -117.5t-55.5 -156.5t-19.5 -168
q0 -116 48 -180t137 -64q78 0 143 58t92 157h193q-40 -172 -159.5 -272t-283.5 -100z" />
    <glyph glyph-name="Dcaron" unicode="&#x10e;" horiz-adv-x="1302" 
d="M887 1524h-185l-133 291h144l98 -162l158 162h155zM313 1421h432q246 0 383.5 -149t137.5 -398q0 -131 -29 -256.5t-90.5 -237.5t-147.5 -196.5t-208.5 -134t-266.5 -49.5h-461zM295 178h248q100 0 185.5 41t145 109t102.5 156.5t63 183t20 188.5q0 188 -87.5 287.5
t-246.5 99.5h-244z" />
    <glyph glyph-name="dcaron" unicode="&#x10f;" horiz-adv-x="1247" 
d="M1257 1421h203l-213 -362h-131zM451 139q73 0 132.5 45.5t95.5 118t55.5 157t19.5 169.5q0 114 -49 177.5t-138 63.5q-72 0 -131 -45t-95 -117.5t-55.5 -156.5t-19.5 -168q0 -116 48 -180t137 -64zM401 -18q-138 0 -233.5 107t-95.5 290q0 91 19 182.5t58.5 176t95 149.5
t134.5 104t170 39q85 0 152.5 -44t97.5 -116l96 551h190l-249 -1421h-179l25 139q-109 -157 -281 -157z" />
    <glyph glyph-name="Dcroat" unicode="&#x110;" horiz-adv-x="1337" 
d="M78 629l28 164h132l110 628h432q246 0 383 -149t137 -398q0 -131 -29 -256.5t-90 -237.5t-147.5 -196.5t-209.5 -134t-267 -49.5h-459l111 629h-131zM330 178h248q99 0 184.5 41t145.5 109t102.5 156.5t63 183t20.5 188.5q0 188 -87.5 287.5t-248.5 99.5h-242l-80 -450
h236l-29 -164h-237z" />
    <glyph glyph-name="dcroat" unicode="&#x111;" horiz-adv-x="1077" 
d="M666 1118l26 133h174l29 170h190l-30 -170h114l-24 -133h-113l-196 -1118h-179l25 139q-109 -157 -281 -157q-138 0 -233.5 107t-95.5 290q0 91 19 182.5t58.5 176t95 149.5t134.5 104t170 39q85 0 152.5 -44t97.5 -116l43 248h-176zM567 870q-72 0 -131 -45t-95 -117.5
t-55.5 -156.5t-19.5 -168q0 -116 48 -180t137 -64q73 0 132.5 45.5t95.5 118t55.5 157t19.5 169.5q0 114 -49 177.5t-138 63.5z" />
    <glyph glyph-name="Emacron" unicode="&#x112;" horiz-adv-x="1144" 
d="M63 0l250 1421h875l-33 -182h-676l-73 -424h612l-33 -176h-610l-80 -457h684l-31 -182h-885zM1014 1591h-467l24 144h467z" />
    <glyph glyph-name="emacron" unicode="&#x113;" horiz-adv-x="1011" 
d="M750 662q0 102 -52 158.5t-133 56.5q-94 0 -167.5 -76t-108.5 -211h454q7 47 7 72zM436 -18q-154 0 -259 107t-105 292q0 99 21 193.5t64 177t103 144.5t143 98t179 36q154 0 254 -106t100 -273q0 -105 -27 -205h-647q-2 -25 -2 -73q0 -106 49 -171t137 -65
q76 0 138 46.5t92 129.5h192q-50 -160 -165 -245.5t-267 -85.5zM860 1214h-467l25 144h467z" />
    <glyph glyph-name="Ebreve" unicode="&#x114;" horiz-adv-x="1144" 
d="M63 0l250 1421h875l-33 -182h-676l-73 -424h612l-33 -176h-610l-80 -457h684l-31 -182h-885zM797 1513q-130 0 -191 80.5t-39 204.5h133q-11 -64 14.5 -105.5t86.5 -41.5q107 0 133 147h131q-48 -285 -268 -285z" />
    <glyph glyph-name="ebreve" unicode="&#x115;" horiz-adv-x="1011" 
d="M750 662q0 102 -52 158.5t-133 56.5q-94 0 -167.5 -76t-108.5 -211h454q7 47 7 72zM436 -18q-154 0 -259 107t-105 292q0 99 21 193.5t64 177t103 144.5t143 98t179 36q154 0 254 -106t100 -273q0 -105 -27 -205h-647q-2 -25 -2 -73q0 -106 49 -171t137 -65
q76 0 138 46.5t92 129.5h192q-50 -160 -165 -245.5t-267 -85.5zM643 1137q-130 0 -190.5 80t-38.5 204h133q-11 -65 14 -106t86 -41q107 0 133 147h131q-48 -284 -268 -284z" />
    <glyph glyph-name="Edotaccent" unicode="&#x116;" horiz-adv-x="1144" 
d="M63 0l250 1421h875l-33 -182h-676l-73 -424h612l-33 -176h-610l-80 -457h684l-31 -182h-885zM664 1563l34 202h222l-35 -202h-221z" />
    <glyph glyph-name="edotaccent" unicode="&#x117;" horiz-adv-x="1011" 
d="M750 662q0 102 -52 158.5t-133 56.5q-94 0 -167.5 -76t-108.5 -211h454q7 47 7 72zM436 -18q-154 0 -259 107t-105 292q0 99 21 193.5t64 177t103 144.5t143 98t179 36q154 0 254 -106t100 -273q0 -105 -27 -205h-647q-2 -25 -2 -73q0 -106 49 -171t137 -65
q76 0 138 46.5t92 129.5h192q-50 -160 -165 -245.5t-267 -85.5zM508 1186l35 203h221l-35 -203h-221z" />
    <glyph glyph-name="Eogonek" unicode="&#x118;" horiz-adv-x="1144" 
d="M979 182l-31 -182q-153 -141 -153 -207q0 -55 61 -55q41 0 100 22l-22 -118q-53 -23 -121 -23q-73 0 -117.5 33t-44.5 98q0 32 13.5 63.5t45 66t51 52.5t62.5 55q10 9 15 13h-775l250 1421h875l-33 -182h-676l-73 -424h612l-33 -176h-610l-80 -457h684z" />
    <glyph glyph-name="eogonek" unicode="&#x119;" horiz-adv-x="1011" 
d="M436 -18q-154 0 -259 107t-105 292q0 124 34.5 240t98 207.5t162 146.5t217.5 55q152 0 253 -106t101 -273q0 -102 -27 -205h-647q-4 -23 -4 -75q0 -105 49.5 -169.5t136.5 -64.5q77 0 138 46.5t92 129.5h192q-6 -23 -15 -45.5t-17 -40t-22.5 -38.5t-22 -33t-26 -31.5
t-24.5 -27t-27 -26t-24.5 -22t-25.5 -22.5l-23 -19q-164 -143 -164 -215q0 -55 62 -55q43 0 98 22l-21 -118q-53 -23 -120 -23q-75 0 -118.5 33t-43.5 102q0 98 164 230q-20 -2 -62 -2zM750 662q0 102 -51.5 158.5t-131.5 56.5q-95 0 -169 -76t-109 -211h454q7 44 7 72z" />
    <glyph glyph-name="Ecaron" unicode="&#x11a;" horiz-adv-x="1144" 
d="M856 1524h-184l-133 291h143l98 -162l158 162h156zM63 0l250 1421h875l-33 -182h-676l-73 -424h612l-33 -176h-610l-80 -457h684l-31 -182h-885z" />
    <glyph glyph-name="ecaron" unicode="&#x11b;" horiz-adv-x="1011" 
d="M702 1130h-184l-133 291h143l99 -161l157 161h156zM750 662q0 102 -52 158.5t-133 56.5q-94 0 -167.5 -76t-108.5 -211h454q7 47 7 72zM436 -18q-154 0 -259 107t-105 292q0 99 21 193.5t64 177t103 144.5t143 98t179 36q154 0 254 -106t100 -273q0 -105 -27 -205h-647
q-2 -25 -2 -73q0 -106 49 -171t137 -65q76 0 138 46.5t92 129.5h192q-50 -160 -165 -245.5t-267 -85.5z" />
    <glyph glyph-name="Gcircumflex" unicode="&#x11c;" horiz-adv-x="1355" 
d="M803 1815h182l135 -291h-143l-98 162l-158 -162h-156zM811 1444q226 0 353 -142t118 -360h-207q4 152 -68.5 238t-201.5 86q-116 0 -213 -66.5t-157 -172.5t-93 -229.5t-33 -244.5q0 -196 79 -297.5t222 -101.5q137 0 255 107.5t169 309.5h-332l31 174h524l-129 -745
h-178l39 225q-68 -120 -177 -184t-241 -64q-209 0 -339 154t-130 422q0 105 21 210.5t60 205t100.5 186t138 151t177 101.5t212.5 37z" />
    <glyph glyph-name="gcircumflex" unicode="&#x11d;" horiz-adv-x="1064" 
d="M604 1421h182l136 -291h-144l-98 162l-158 -162h-155zM459 186q72 0 130.5 44.5t92.5 114.5t52 146t18 148q0 106 -48.5 170.5t-136.5 64.5q-72 0 -130.5 -44.5t-92.5 -114t-52 -145.5t-18 -148q0 -108 47.5 -172t137.5 -64zM383 -383q-180 0 -279.5 93.5t-93.5 240.5
h191q1 -90 51 -137t137 -47q103 0 170 63t96 217l21 125q-61 -72 -125 -107.5t-143 -35.5q-139 0 -234.5 106t-95.5 281q0 112 31.5 220t88.5 196.5t147 143t198 54.5q90 0 161 -47.5t101 -124.5l26 152h179l-168 -953q-78 -440 -459 -440z" />
    <glyph glyph-name="Gbreve" unicode="&#x11e;" horiz-adv-x="1355" 
d="M811 1444q226 0 353 -142t118 -360h-207q4 152 -68.5 238t-201.5 86q-116 0 -213 -66.5t-157 -172.5t-93 -229.5t-33 -244.5q0 -196 79 -297.5t222 -101.5q137 0 255 107.5t169 309.5h-332l31 174h524l-129 -745h-178l39 225q-68 -120 -177 -184t-241 -64
q-209 0 -339 154t-130 422q0 105 21 210.5t60 205t100.5 186t138 151t177 101.5t212.5 37zM872 1513q-130 0 -190.5 80.5t-38.5 204.5h133q-11 -64 14.5 -105.5t86.5 -41.5q107 0 133 147h131q-48 -285 -269 -285z" />
    <glyph glyph-name="gbreve" unicode="&#x11f;" horiz-adv-x="1064" 
d="M459 186q72 0 130.5 44.5t92.5 114.5t52 146t18 148q0 106 -48.5 170.5t-136.5 64.5q-72 0 -130.5 -44.5t-92.5 -114t-52 -145.5t-18 -148q0 -108 47.5 -172t137.5 -64zM383 -383q-180 0 -279.5 93.5t-93.5 240.5h191q1 -90 51 -137t137 -47q103 0 170 63t96 217l21 125
q-61 -72 -125 -107.5t-143 -35.5q-139 0 -234.5 106t-95.5 281q0 112 31.5 220t88.5 196.5t147 143t198 54.5q90 0 161 -47.5t101 -124.5l26 152h179l-168 -953q-78 -440 -459 -440zM674 1137q-130 0 -191 80t-39 204h134q-11 -65 14 -106t86 -41q107 0 133 147h131
q-48 -284 -268 -284z" />
    <glyph glyph-name="Gdotaccent" unicode="&#x120;" horiz-adv-x="1355" 
d="M811 1444q226 0 353 -142t118 -360h-207q4 152 -68.5 238t-201.5 86q-116 0 -213 -66.5t-157 -172.5t-93 -229.5t-33 -244.5q0 -196 79 -297.5t222 -101.5q137 0 255 107.5t169 309.5h-332l31 174h524l-129 -745h-178l39 225q-68 -120 -177 -184t-241 -64
q-209 0 -339 154t-130 422q0 105 21 210.5t60 205t100.5 186t138 151t177 101.5t212.5 37zM739 1563l35 202h221l-34 -202h-222z" />
    <glyph glyph-name="gdotaccent" unicode="&#x121;" horiz-adv-x="1064" 
d="M459 186q72 0 130.5 44.5t92.5 114.5t52 146t18 148q0 106 -48.5 170.5t-136.5 64.5q-72 0 -130.5 -44.5t-92.5 -114t-52 -145.5t-18 -148q0 -108 47.5 -172t137.5 -64zM383 -383q-180 0 -279.5 93.5t-93.5 240.5h191q1 -90 51 -137t137 -47q103 0 170 63t96 217l21 125
q-61 -72 -125 -107.5t-143 -35.5q-139 0 -234.5 106t-95.5 281q0 112 31.5 220t88.5 196.5t147 143t198 54.5q90 0 161 -47.5t101 -124.5l26 152h179l-168 -953q-78 -440 -459 -440zM541 1186l34 203h222l-35 -203h-221z" />
    <glyph glyph-name="Gcommaaccent" unicode="&#x122;" horiz-adv-x="1355" 
d="M653 -92l-32 -195q-37 -192 -261 -192l17 92q57 0 88 22t41 74l2 8h-94l32 191h207zM811 1444q226 0 353 -142t118 -360h-207q4 152 -68.5 238t-201.5 86q-116 0 -213 -66.5t-157 -172.5t-93 -229.5t-33 -244.5q0 -196 79 -297.5t222 -101.5q137 0 255 107.5t169 309.5
h-332l31 174h524l-129 -745h-178l39 225q-68 -120 -177 -184t-241 -64q-209 0 -339 154t-130 422q0 105 21 210.5t60 205t100.5 186t138 151t177 101.5t212.5 37z" />
    <glyph glyph-name="gcommaaccent" unicode="&#x123;" horiz-adv-x="1064" 
d="M459 186q72 0 130.5 44.5t92.5 114.5t52 146t18 148q0 106 -48.5 170.5t-136.5 64.5q-72 0 -130.5 -44.5t-92.5 -114t-52 -145.5t-18 -148q0 -108 47.5 -172t137.5 -64zM383 -383q-180 0 -279.5 93.5t-93.5 240.5h191q1 -90 51 -137t137 -47q103 0 170 63t96 217l21 125
q-61 -72 -125 -107.5t-143 -35.5q-139 0 -234.5 106t-95.5 281q0 112 31.5 220t88.5 196.5t147 143t198 54.5q90 0 161 -47.5t101 -124.5l26 152h179l-168 -953q-78 -440 -459 -440zM537 1133l34 192q19 100 82.5 147.5t177.5 47.5l-18 -95q-56 0 -86.5 -22t-42.5 -72
l-2 -10h96l-35 -188h-206z" />
    <glyph glyph-name="Hcircumflex" unicode="&#x124;" horiz-adv-x="1329" 
d="M799 1815h182l135 -291h-143l-99 162l-157 -162h-156zM63 0l250 1421h199l-102 -592h624l105 592h200l-249 -1421h-201l110 645h-624l-113 -645h-199z" />
    <glyph glyph-name="hcircumflex" unicode="&#x125;" horiz-adv-x="1028" 
d="M360 1774h183l135 -291h-143l-99 162l-157 -162h-156zM809 0h-191l105 602q14 91 14 117q0 149 -139 149q-97 0 -167 -85.5t-93 -211.5l-100 -571h-191l250 1421h190l-98 -547q47 74 118.5 115t160.5 41q120 0 190 -73.5t70 -200.5q0 -75 -15 -152z" />
    <glyph glyph-name="Hbar" unicode="&#x126;" horiz-adv-x="1394" 
d="M133 944l29 164h123l57 313h199l-58 -313h627l57 313h199l-55 -313h127l-31 -164h-123l-168 -944h-198l88 504h-627l-88 -504h-199l166 944h-125zM412 688h624l47 256h-626z" />
    <glyph glyph-name="hbar" unicode="&#x127;" horiz-adv-x="1040" 
d="M143 1118l25 133h115l28 170h191l-31 -170h172l-25 -133h-172l-43 -244q102 156 279 156q121 0 190.5 -73t69.5 -201q0 -90 -12 -152l-107 -604h-190l104 602q15 73 15 117q0 78 -38 113.5t-102 35.5q-97 0 -167 -85.5t-93 -211.5l-100 -571h-191l197 1118h-115z" />
    <glyph glyph-name="Itilde" unicode="&#x128;" horiz-adv-x="507" 
d="M63 0l250 1421h199l-250 -1421h-199zM588 1538q-32 0 -68 17.5t-62 39t-53.5 39t-44.5 17.5q-23 0 -37.5 -24.5t-23.5 -80.5h-127q41 252 178 252q39 0 85.5 -29t85 -57.5t57.5 -28.5q23 0 36.5 24.5t22.5 82.5h127q-41 -252 -176 -252z" />
    <glyph glyph-name="itilde" unicode="&#x129;" horiz-adv-x="466" 
d="M233 0h-186l176 1010h189zM492 1161q-40 0 -86.5 28.5t-84 56.5t-57.5 28q-23 0 -37.5 -24.5t-23.5 -80.5h-127q41 252 178 252q39 0 85 -28.5t84.5 -57t57.5 -28.5q23 0 37 24.5t23 81.5h127q-41 -252 -176 -252z" />
    <glyph glyph-name="Imacron" unicode="&#x12a;" horiz-adv-x="507" 
d="M63 0l250 1421h199l-250 -1421h-199zM678 1591h-467l25 144h466z" />
    <glyph glyph-name="imacron" unicode="&#x12b;" horiz-adv-x="466" 
d="M233 0h-186l176 1010h189zM590 1214h-467l24 144h467z" />
    <glyph glyph-name="Ibreve" unicode="&#x12c;" horiz-adv-x="507" 
d="M63 0l250 1421h199l-250 -1421h-199zM461 1513q-130 0 -191 80.5t-39 204.5h134q-11 -65 14 -106t86 -41q107 0 133 147h131q-48 -285 -268 -285z" />
    <glyph glyph-name="ibreve" unicode="&#x12d;" horiz-adv-x="466" 
d="M233 0h-186l176 1010h189zM373 1137q-130 0 -191 80t-39 204h133q-11 -64 14.5 -105.5t86.5 -41.5q107 0 133 147h131q-48 -284 -268 -284z" />
    <glyph glyph-name="Iogonek" unicode="&#x12e;" horiz-adv-x="507" 
d="M510 1421l-250 -1421q-172 -131 -172 -207q0 -55 62 -55q43 0 98 22l-21 -118q-53 -23 -121 -23q-74 0 -117.5 33t-43.5 98q0 35 15.5 69t48.5 68.5t57.5 56t68.5 56.5h-74l250 1421h199z" />
    <glyph glyph-name="iogonek" unicode="&#x12f;" horiz-adv-x="466" 
d="M412 1010l-176 -1010q-173 -138 -173 -207q0 -55 62 -55q45 0 100 22l-20 -118q-57 -23 -121 -23q-74 0 -118 33t-44 98q0 35 17 70.5t50.5 70t60 56.5t67.5 53h-72l178 1010h189zM457 1188h-219l34 203h222z" />
    <glyph glyph-name="Idotaccent" unicode="&#x130;" horiz-adv-x="507" 
d="M63 0l250 1421h199l-250 -1421h-199zM324 1563l34 202h222l-35 -202h-221z" />
    <glyph glyph-name="dotlessi" unicode="&#x131;" horiz-adv-x="466" 
d="M233 0h-186l176 1010h189z" />
    <glyph glyph-name="IJ" unicode="&#x132;" horiz-adv-x="1560" 
d="M63 0l250 1421h199l-250 -1421h-199zM553 551h197q-23 -112 -23 -166q0 -108 51.5 -167.5t147.5 -59.5q114 0 189 85t104 251l163 927h201l-164 -925q-91 -519 -501 -519q-98 0 -173.5 31t-122.5 85.5t-70.5 126t-23.5 155.5q0 78 25 176z" />
    <glyph glyph-name="ij" unicode="&#x133;" horiz-adv-x="929" 
d="M459 1188h-219l34 203h222zM238 0h-191l178 1010h189zM915 1188h-219l35 203h221zM348 -371q-67 0 -112 11l28 163q38 -6 70 -6q134 0 164 176l184 1037h188l-188 -1076q-54 -305 -334 -305z" />
    <glyph glyph-name="Jcircumflex" unicode="&#x134;" horiz-adv-x="1071" 
d="M973 1815h182l135 -291h-143l-98 162l-158 -162h-156zM63 551h197q-22 -107 -22 -166q0 -108 51 -167.5t147 -59.5q114 0 189 85t104 251l164 927h201l-164 -925q-91 -519 -502 -519q-98 0 -173.5 31t-122 85.5t-70 125.5t-23.5 156q0 81 24 176z" />
    <glyph glyph-name="jcircumflex" unicode="&#x135;" horiz-adv-x="466" 
d="M-111 -371q-67 0 -112 11l28 163q38 -6 70 -6q134 0 164 176l184 1037h189l-189 -1076q-54 -305 -334 -305zM301 1421h182l135 -291h-143l-98 162l-158 -162h-156z" />
    <glyph glyph-name="Kcommaaccent" unicode="&#x136;" horiz-adv-x="1210" 
d="M651 -92l-33 -195q-19 -98 -83 -145t-177 -47l17 92q57 0 88 22t41 74l2 8h-94l32 191h207zM63 0l250 1421h199l-121 -694l703 694h247l-604 -596l346 -825h-211l-288 684l-242 -233l-80 -451h-199z" />
    <glyph glyph-name="kcommaaccent" unicode="&#x137;" horiz-adv-x="966" 
d="M518 -92l-33 -195q-19 -98 -83 -145t-177 -47l17 92q57 0 88 22t41 74l2 8h-94l32 191h207zM236 0h-189l250 1421h188l-145 -827l446 416h232l-422 -394l252 -616h-201l-201 487l-149 -139z" />
    <glyph glyph-name="kgreenlandic" unicode="&#x138;" horiz-adv-x="966" 
d="M236 0h-189l176 1010h191l-74 -416l446 416h232l-422 -394l252 -616h-201l-201 487l-149 -139z" />
    <glyph glyph-name="Lacute" unicode="&#x139;" horiz-adv-x="1036" 
d="M530 1815h220l-252 -291h-152zM61 0l250 1421h199l-219 -1239h620l-32 -182h-818z" />
    <glyph glyph-name="lacute" unicode="&#x13a;" horiz-adv-x="466" 
d="M506 1774h219l-252 -291h-151zM236 0h-189l250 1421h188z" />
    <glyph glyph-name="Lcommaaccent" unicode="&#x13b;" horiz-adv-x="1036" 
d="M553 -92l-33 -195q-19 -98 -83 -145t-177 -47l16 92q57 0 88.5 22.5t41.5 73.5l2 8h-95l33 191h207zM61 0l250 1421h199l-219 -1239h620l-32 -182h-818z" />
    <glyph glyph-name="lcommaaccent" unicode="&#x13c;" horiz-adv-x="466" 
d="M221 -92l-33 -195q-19 -98 -83 -145t-177 -47l17 92q57 0 88 22t41 74l2 8h-94l32 191h207zM236 0h-189l250 1421h188z" />
    <glyph glyph-name="Lcaron" unicode="&#x13d;" horiz-adv-x="1036" 
d="M827 1421h203l-213 -362h-131zM61 0l250 1421h199l-219 -1239h620l-32 -182h-818z" />
    <glyph glyph-name="lcaron" unicode="&#x13e;" horiz-adv-x="643" 
d="M657 1421h203l-213 -362h-131zM236 0h-189l250 1421h188z" />
    <glyph glyph-name="Ldot" unicode="&#x13f;" horiz-adv-x="1042" 
d="M61 0l250 1421h199l-219 -1239h620l-32 -182h-818zM664 612l43 244h237l-43 -244h-237z" />
    <glyph glyph-name="ldot" unicode="&#x140;" horiz-adv-x="735" 
d="M236 0h-189l250 1421h188zM467 457l43 243h238l-43 -243h-238z" />
    <glyph glyph-name="Lslash" unicode="&#x141;" horiz-adv-x="1071" 
d="M45 449l35 194l143 74l123 704h199l-105 -594l258 138l-32 -195l-258 -137l-80 -451h618l-31 -182h-819l92 522z" />
    <glyph glyph-name="lslash" unicode="&#x142;" horiz-adv-x="509" 
d="M317 1421h191l-115 -643l125 72l-31 -170l-122 -74l-107 -606h-190l88 489l-125 -71l30 170l123 74z" />
    <glyph glyph-name="Nacute" unicode="&#x143;" horiz-adv-x="1343" 
d="M944 1815h219l-252 -291h-151zM1100 0h-240l-401 1151l-203 -1151h-193l250 1421h242l399 -1153l199 1153h197z" />
    <glyph glyph-name="nacute" unicode="&#x144;" horiz-adv-x="1028" 
d="M674 1421h219l-252 -291h-152zM809 0h-191l105 602q14 68 14 117q0 149 -139 149q-97 0 -167 -85.5t-93 -211.5l-100 -571h-191l178 1010h178l-24 -144q114 164 289 164q120 0 190 -73.5t70 -200.5q0 -85 -13 -152z" />
    <glyph glyph-name="Ncommaaccent" unicode="&#x145;" horiz-adv-x="1343" 
d="M662 -92l-33 -195q-19 -98 -83 -145t-177 -47l16 92q57 0 88 22t41 74l2 8h-94l33 191h207zM1100 0h-240l-401 1151l-203 -1151h-193l250 1421h242l399 -1153l199 1153h197z" />
    <glyph glyph-name="ncommaaccent" unicode="&#x146;" horiz-adv-x="1028" 
d="M516 -92l-33 -195q-19 -98 -83 -145t-177 -47l17 92q57 0 88 22t41 74l2 8h-95l33 191h207zM809 0h-191l105 602q14 68 14 117q0 149 -139 149q-97 0 -167 -85.5t-93 -211.5l-100 -571h-191l178 1010h178l-24 -144q114 164 289 164q120 0 190 -73.5t70 -200.5
q0 -85 -13 -152z" />
    <glyph glyph-name="Ncaron" unicode="&#x147;" horiz-adv-x="1343" 
d="M934 1524h-184l-134 291h144l98 -162l158 162h155zM1100 0h-240l-401 1151l-203 -1151h-193l250 1421h242l399 -1153l199 1153h197z" />
    <glyph glyph-name="ncaron" unicode="&#x148;" horiz-adv-x="1030" 
d="M721 1130h-184l-134 291h144l98 -161l158 161h155zM809 0h-191l105 602q14 68 14 117q0 149 -139 149q-97 0 -167 -85.5t-93 -211.5l-100 -571h-191l178 1010h178l-24 -144q114 164 289 164q120 0 190 -73.5t70 -200.5q0 -85 -13 -152z" />
    <glyph glyph-name="napostrophe" unicode="&#x149;" horiz-adv-x="1320" 
d="M446 1421l-47 -280q-41 -256 -307 -256l19 112q73 0 111 33.5t52 110.5l9 45h-105l41 235h227zM1102 0h-191l105 602q14 68 14 117q0 149 -139 149q-97 0 -167 -85.5t-93 -211.5l-101 -571h-190l178 1010h178l-24 -144q114 164 289 164q120 0 190 -73.5t70 -200.5
q0 -85 -13 -152z" />
    <glyph glyph-name="Eng" unicode="&#x14a;" horiz-adv-x="1343" 
d="M643 -360l29 163q34 -6 71 -6q131 0 160 162l6 41h-49l-401 1151l-203 -1151h-193l250 1421h242l399 -1153l199 1153h197l-263 -1484q-53 -308 -331 -308q-70 0 -113 11z" />
    <glyph glyph-name="eng" unicode="&#x14b;" horiz-adv-x="1028" 
d="M612 -27l111 629q14 68 14 117q0 149 -139 149q-97 0 -167 -85.5t-93 -211.5l-100 -571h-191l178 1010h178l-24 -144q114 164 289 164q120 0 190 -73.5t70 -200.5q0 -85 -13 -152l-118 -670q-54 -305 -334 -305q-67 0 -115 11l33 163q35 -6 72 -6q129 0 159 176z" />
    <glyph glyph-name="Omacron" unicode="&#x14c;" horiz-adv-x="1357" 
d="M1098 1591h-467l24 144h467zM610 -23q-232 0 -370 159.5t-138 420.5q0 125 28.5 250t88.5 240t143 203.5t200.5 141t252.5 52.5q232 0 369 -159.5t137 -420.5q0 -125 -28.5 -250t-88 -240t-142 -203.5t-200 -141t-252.5 -52.5zM618 156q116 0 213 66.5t157 171.5
t93 227.5t33 242.5q0 192 -79.5 297t-227.5 105q-94 0 -175.5 -43.5t-139.5 -116t-99.5 -165t-61.5 -191t-20 -193.5q0 -192 79.5 -296.5t227.5 -104.5z" />
    <glyph glyph-name="omacron" unicode="&#x14d;" horiz-adv-x="1019" 
d="M864 1214h-467l25 144h467zM436 -18q-154 0 -259 107t-105 290q0 125 34 240.5t97 207.5t162 147.5t219 55.5q152 0 257 -108t105 -291q0 -125 -34 -240t-96.5 -207t-161 -147t-218.5 -55zM451 139q73 0 132.5 45.5t95.5 118t55.5 157t19.5 169.5q0 114 -49 177.5
t-138 63.5q-72 0 -131 -45t-95 -117.5t-55.5 -156.5t-19.5 -168q0 -116 48 -180t137 -64z" />
    <glyph glyph-name="Obreve" unicode="&#x14e;" horiz-adv-x="1357" 
d="M610 -23q-232 0 -370 159.5t-138 420.5q0 125 28.5 250t88.5 240t143 203.5t200.5 141t252.5 52.5q232 0 369 -159.5t137 -420.5q0 -125 -28.5 -250t-88 -240t-142 -203.5t-200 -141t-252.5 -52.5zM618 156q116 0 213 66.5t157 171.5t93 227.5t33 242.5q0 192 -79.5 297
t-227.5 105q-94 0 -175.5 -43.5t-139.5 -116t-99.5 -165t-61.5 -191t-20 -193.5q0 -192 79.5 -296.5t227.5 -104.5zM881 1513q-130 0 -191 80.5t-39 204.5h133q-11 -64 14.5 -105.5t86.5 -41.5q107 0 133 147h131q-48 -285 -268 -285z" />
    <glyph glyph-name="obreve" unicode="&#x14f;" horiz-adv-x="1019" 
d="M436 -18q-154 0 -259 107t-105 290q0 125 34 240.5t97 207.5t162 147.5t219 55.5q152 0 257 -108t105 -291q0 -125 -34 -240t-96.5 -207t-161 -147t-218.5 -55zM451 139q73 0 132.5 45.5t95.5 118t55.5 157t19.5 169.5q0 114 -49 177.5t-138 63.5q-72 0 -131 -45
t-95 -117.5t-55.5 -156.5t-19.5 -168q0 -116 48 -180t137 -64zM649 1137q-130 0 -190.5 80t-38.5 204h133q-11 -65 14 -106t86 -41q107 0 133 147h132q-48 -284 -269 -284z" />
    <glyph glyph-name="Ohungarumlaut" unicode="&#x150;" horiz-adv-x="1357" 
d="M821 1815h195l-236 -304h-135zM1075 1815h193l-234 -304h-135zM610 -23q-232 0 -370 159.5t-138 420.5q0 125 28.5 250t88.5 240t143 203.5t200.5 141t252.5 52.5q232 0 369 -159.5t137 -420.5q0 -125 -28.5 -250t-88 -240t-142 -203.5t-200 -141t-252.5 -52.5zM618 156
q116 0 213 66.5t157 171.5t93 227.5t33 242.5q0 192 -79.5 297t-227.5 105q-94 0 -175.5 -43.5t-139.5 -116t-99.5 -165t-61.5 -191t-20 -193.5q0 -192 79.5 -296.5t227.5 -104.5z" />
    <glyph glyph-name="ohungarumlaut" unicode="&#x151;" horiz-adv-x="1019" 
d="M586 1421h194l-235 -303h-135zM840 1421h192l-233 -303h-135zM436 -18q-154 0 -259 107t-105 290q0 125 34 240.5t97 207.5t162 147.5t219 55.5q152 0 257 -108t105 -291q0 -125 -34 -240t-96.5 -207t-161 -147t-218.5 -55zM451 139q73 0 132.5 45.5t95.5 118t55.5 157
t19.5 169.5q0 114 -49 177.5t-138 63.5q-72 0 -131 -45t-95 -117.5t-55.5 -156.5t-19.5 -168q0 -116 48 -180t137 -64z" />
    <glyph glyph-name="OE" unicode="&#x152;" horiz-adv-x="2054" 
d="M817 1444q125 0 220.5 -53t154.5 -154l33 184h872l-33 -182h-675l-74 -424h612l-31 -176h-612l-80 -457h686l-32 -182h-883l26 152q-155 -175 -409 -175q-218 0 -354 159t-136 419q0 104 20.5 209.5t60 205t101.5 185.5t139 150.5t178.5 101.5t215.5 37zM616 156
q117 0 214.5 66.5t157.5 172t93 228t33 243.5q0 190 -79.5 295t-227.5 105q-117 0 -214.5 -66.5t-157.5 -171.5t-93 -228.5t-33 -244.5q0 -190 80 -294.5t227 -104.5z" />
    <glyph glyph-name="oe" unicode="&#x153;" horiz-adv-x="1660" 
d="M436 -18q-154 0 -259 107t-105 290q0 125 34 240.5t97 207.5t162 147.5t219 55.5q95 0 175.5 -47t123.5 -135q65 86 154 134t194 48q153 0 253.5 -105t100.5 -276q0 -113 -26 -203h-648q-2 -25 -2 -75q0 -105 49 -169.5t136 -64.5q77 0 138 46t93 130h193
q-48 -159 -164 -245t-269 -86q-99 0 -178.5 46t-122.5 134q-131 -180 -348 -180zM567 870q-72 0 -131 -45t-95 -117.5t-55.5 -156.5t-19.5 -168q0 -116 48 -180t137 -64q73 0 132.5 45.5t95.5 118t55.5 157t19.5 169.5q0 114 -49 177.5t-138 63.5zM936 590h457q4 25 4 72
q0 102 -51 158.5t-132 56.5q-95 0 -168 -76.5t-110 -210.5z" />
    <glyph glyph-name="Racute" unicode="&#x154;" horiz-adv-x="1243" 
d="M870 1815h220l-252 -291h-152zM63 0l250 1421h510q182 0 285.5 -97.5t103.5 -262.5q0 -166 -95 -290t-249 -161l215 -610h-206l-203 582h-307l-105 -582h-199zM711 756q133 1 214 83t81 210q0 200 -222 200h-303l-86 -493h316z" />
    <glyph glyph-name="racute" unicode="&#x155;" horiz-adv-x="690" 
d="M539 1421h219l-252 -291h-152zM236 0h-189l176 1010h178l-34 -197q112 215 311 215q22 0 45 -2l-33 -201q-35 2 -78 2q-103 0 -181.5 -80t-102.5 -217z" />
    <glyph glyph-name="Rcommaaccent" unicode="&#x156;" horiz-adv-x="1243" 
d="M625 -92l-33 -195q-19 -98 -83 -145t-177 -47l16 92q57 0 88 22t41 74l2 8h-94l33 191h207zM63 0l250 1421h510q182 0 285.5 -97.5t103.5 -262.5q0 -166 -95 -290t-249 -161l215 -610h-206l-203 582h-307l-105 -582h-199zM711 756q133 1 214 83t81 210q0 200 -222 200
h-303l-86 -493h316z" />
    <glyph glyph-name="rcommaaccent" unicode="&#x157;" horiz-adv-x="690" 
d="M219 -92l-33 -195q-19 -98 -83 -145t-177 -47l17 92q57 0 88 22t41 74l2 8h-94l32 191h207zM236 0h-189l176 1010h178l-34 -197q112 215 311 215q22 0 45 -2l-33 -201q-35 2 -78 2q-103 0 -181.5 -80t-102.5 -217z" />
    <glyph glyph-name="Rcaron" unicode="&#x158;" horiz-adv-x="1243" 
d="M862 1524h-184l-133 291h143l98 -162l158 162h156zM63 0l250 1421h510q182 0 285.5 -97.5t103.5 -262.5q0 -166 -95 -290t-249 -161l215 -610h-206l-203 582h-307l-105 -582h-199zM711 756q133 1 214 83t81 210q0 200 -222 200h-303l-86 -493h316z" />
    <glyph glyph-name="rcaron" unicode="&#x159;" horiz-adv-x="690" 
d="M557 1130h-184l-133 291h143l98 -161l158 161h156zM236 0h-189l176 1010h178l-34 -197q112 215 311 215q22 0 45 -2l-33 -201q-35 2 -78 2q-103 0 -181.5 -80t-102.5 -217z" />
    <glyph glyph-name="Sacute" unicode="&#x15a;" horiz-adv-x="1165" 
d="M842 1815h219l-252 -291h-152zM1042 406q0 -186 -140 -307.5t-353 -121.5q-230 0 -363.5 125t-128.5 330h205q0 -131 79.5 -206.5t211.5 -75.5q119 0 204 66t85 175q0 141 -160 207l-172 68q-283 110 -283 378q0 167 126 283.5t323 116.5q216 0 347.5 -120.5
t125.5 -313.5h-205q0 116 -73.5 189t-194.5 73q-106 0 -178 -63t-72 -158q0 -70 45 -122.5t125 -82.5l162 -64q137 -53 210.5 -142.5t73.5 -233.5z" />
    <glyph glyph-name="sacute" unicode="&#x15b;" horiz-adv-x="931" 
d="M666 1421h219l-252 -291h-152zM408 -18q-170 0 -276.5 84.5t-102.5 246.5h188q1 -86 53 -135t140 -49q89 0 143.5 38t54.5 105q0 98 -121 136l-112 38q-102 37 -161.5 107.5t-59.5 169.5q0 139 102 223t256 84q160 0 261.5 -84t98.5 -233h-188q-1 84 -49.5 126t-128.5 42
q-74 0 -124 -36t-50 -102q0 -50 29.5 -82.5t91.5 -54.5l112 -37q223 -79 223 -276q0 -135 -105.5 -223t-274.5 -88z" />
    <glyph glyph-name="Scircumflex" unicode="&#x15c;" horiz-adv-x="1165" 
d="M705 1815h182l135 -291h-143l-99 162l-157 -162h-156zM1042 406q0 -186 -140 -307.5t-353 -121.5q-230 0 -363.5 125t-128.5 330h205q0 -131 79.5 -206.5t211.5 -75.5q119 0 204 66t85 175q0 141 -160 207l-172 68q-283 110 -283 378q0 167 126 283.5t323 116.5
q216 0 347.5 -120.5t125.5 -313.5h-205q0 116 -73.5 189t-194.5 73q-106 0 -178 -63t-72 -158q0 -70 45 -122.5t125 -82.5l162 -64q137 -53 210.5 -142.5t73.5 -233.5z" />
    <glyph glyph-name="scircumflex" unicode="&#x15d;" horiz-adv-x="931" 
d="M528 1421h183l135 -291h-144l-98 162l-158 -162h-155zM408 -18q-170 0 -276.5 84.5t-102.5 246.5h188q1 -86 53 -135t140 -49q89 0 143.5 38t54.5 105q0 98 -121 136l-112 38q-102 37 -161.5 107.5t-59.5 169.5q0 139 102 223t256 84q160 0 261.5 -84t98.5 -233h-188
q-1 84 -49.5 126t-128.5 42q-74 0 -124 -36t-50 -102q0 -50 29.5 -82.5t91.5 -54.5l112 -37q223 -79 223 -276q0 -135 -105.5 -223t-274.5 -88z" />
    <glyph glyph-name="Scedilla" unicode="&#x15e;" horiz-adv-x="1165" 
d="M424 -391q-74 0 -150 31l21 106q77 -37 129 -37t76 19.5t24 50.5q0 27 -18.5 42t-48.5 15q-39 0 -78 -20l-31 63l94 105q-184 28 -287 148t-98 300h205q0 -131 79.5 -206.5t211.5 -75.5q119 0 204 66t85 175q0 141 -160 207l-172 68q-283 110 -283 378q0 167 126 283.5
t323 116.5q216 0 347.5 -120.5t125.5 -313.5h-205q0 116 -73.5 189t-194.5 73q-106 0 -178 -63t-72 -158q0 -70 45 -122.5t125 -82.5l162 -64q137 -53 210.5 -142.5t73.5 -233.5q0 -186 -140 -307.5t-353 -121.5h-25l-47 -63h17q64 0 107.5 -34t43.5 -99q0 -80 -61.5 -126
t-159.5 -46z" />
    <glyph glyph-name="scedilla" unicode="&#x15f;" horiz-adv-x="0" 
d="M299 -391q-73 0 -149 31l20 106q77 -37 129 -37t76 19.5t24 50.5q0 27 -18.5 42t-48.5 15q-39 0 -78 -20l-31 63l96 111q-134 20 -213 102t-75 221h188q1 -86 53 -135t140 -49q89 0 143.5 38t54.5 105q0 98 -121 136l-112 38q-102 37 -161.5 107.5t-59.5 169.5
q0 139 102 223t256 84q160 0 261.5 -84t98.5 -233h-188q-1 84 -49.5 126t-128.5 42q-74 0 -124 -36t-50 -102q0 -50 29.5 -82.5t91.5 -54.5l112 -37q224 -79 224 -276q0 -135 -106 -223t-275 -88h-9l-49 -68h19q63 -2 106 -35t43 -98q0 -80 -61.5 -126t-159.5 -46z" />
    <glyph glyph-name="Scaron" unicode="&#x160;" horiz-adv-x="1165" 
d="M834 1524h-185l-133 291h143l99 -162l157 162h156zM1042 406q0 -186 -140 -307.5t-353 -121.5q-230 0 -363.5 125t-128.5 330h205q0 -131 79.5 -206.5t211.5 -75.5q119 0 204 66t85 175q0 141 -160 207l-172 68q-283 110 -283 378q0 167 126 283.5t323 116.5
q216 0 347.5 -120.5t125.5 -313.5h-205q0 116 -73.5 189t-194.5 73q-106 0 -178 -63t-72 -158q0 -70 45 -122.5t125 -82.5l162 -64q137 -53 210.5 -142.5t73.5 -233.5z" />
    <glyph glyph-name="scaron" unicode="&#x161;" horiz-adv-x="931" 
d="M657 1130h-184l-133 291h143l99 -161l157 161h156zM408 -18q-170 0 -276.5 84.5t-102.5 246.5h188q1 -86 53 -135t140 -49q89 0 143.5 38t54.5 105q0 98 -121 136l-112 38q-102 37 -161.5 107.5t-59.5 169.5q0 139 102 223t256 84q160 0 261.5 -84t98.5 -233h-188
q-1 84 -49.5 126t-128.5 42q-74 0 -124 -36t-50 -102q0 -50 29.5 -82.5t91.5 -54.5l112 -37q223 -79 223 -276q0 -135 -105.5 -223t-274.5 -88z" />
    <glyph glyph-name="Tcommaaccent" unicode="&#x162;" horiz-adv-x="1110" 
d="M387 -391q-73 0 -149 31l20 106q77 -37 129 -37t76 19.5t24 50.5q0 27 -18.5 42t-48.5 15q-39 0 -78 -20l-31 63l109 121h-58l218 1237h-404l33 184h1008l-33 -184h-404l-217 -1237h-57l-66 -86h19q64 -2 106.5 -35t42.5 -98q0 -80 -61.5 -126t-159.5 -46z" />
    <glyph glyph-name="tcommaaccent" unicode="&#x163;" horiz-adv-x="673" 
d="M207 -391q-78 0 -150 31l19 106q3 -1 15 -6.5t18.5 -8.5t20 -8t24 -7.5t25 -4.5t28.5 -2q51 0 75.5 20t24.5 50q0 27 -19 42t-50 15q-37 0 -76 -20l-31 63l119 131q-119 53 -119 189q0 46 14 137l91 512h-119l30 162h121l45 262h189l-47 -262h233l-29 -162h-233l-90 -508
q-10 -77 -10 -88q0 -94 104 -94q50 0 109 12l-31 -166q-71 -18 -133 -18q-31 0 -58 6l-59 -78h18q64 -2 108 -35t44 -98q0 -80 -61.5 -126t-159.5 -46z" />
    <glyph glyph-name="Tcaron" unicode="&#x164;" horiz-adv-x="1110" 
d="M821 1524h-184l-133 291h143l98 -162l158 162h156zM1217 1421l-33 -184h-404l-217 -1237h-201l218 1237h-404l33 184h1008z" />
    <glyph glyph-name="tcaron" unicode="&#x165;" horiz-adv-x="673" 
d="M702 1524h203l-213 -363h-131zM377 -14q-107 0 -175.5 55.5t-68.5 157.5q0 46 14 137l91 512h-119l31 162h120l45 262h189l-47 -262h233l-28 -162h-234l-90 -508q-10 -77 -10 -88q0 -94 106 -94q48 0 107 12l-31 -166q-70 -18 -133 -18z" />
    <glyph glyph-name="Tbar" unicode="&#x166;" horiz-adv-x="1110" 
d="M1219 1421l-33 -184h-406l-80 -457h222l-31 -164h-217l-109 -616h-200l108 616h-219l29 164h217l82 457h-406l33 184h1010z" />
    <glyph glyph-name="tbar" unicode="&#x167;" horiz-adv-x="696" 
d="M387 -14q-108 0 -176 55.5t-68 157.5q0 49 13 129l30 170h-116l24 145h117l35 205h-117l29 162h123l45 262h186l-45 -262h233l-30 -162h-234l-35 -205h193l-29 -145h-188l-31 -164q-8 -62 -8 -82q0 -94 104 -94q52 0 107 12l-29 -166q-74 -18 -133 -18z" />
    <glyph glyph-name="Utilde" unicode="&#x168;" horiz-adv-x="1247" 
d="M557 -23q-200 0 -318 108t-118 304q0 72 14 154l152 878h200l-153 -878q-15 -103 -15 -142q0 -114 63.5 -177.5t178.5 -63.5q138 0 230 89.5t120 248.5l164 923h199l-162 -923q-46 -261 -193.5 -391t-361.5 -130zM944 1538q-32 0 -68 17.5t-62 39t-53 39t-44 17.5
q-24 0 -38.5 -24.5t-23.5 -80.5h-127q41 252 179 252q39 0 85 -29t84.5 -57.5t57.5 -28.5q23 0 36.5 24.5t22.5 82.5h127q-41 -252 -176 -252z" />
    <glyph glyph-name="utilde" unicode="&#x169;" horiz-adv-x="1015" 
d="M782 0h-178l27 143q-111 -161 -287 -161q-117 0 -183.5 72.5t-66.5 201.5q0 88 12 150l107 604h190l-104 -602q-16 -78 -16 -117q0 -150 131 -150q97 0 166 85t92 212l98 572h191zM758 1161q-40 0 -86.5 28.5t-84 56.5t-57.5 28q-23 0 -37.5 -24.5t-23.5 -80.5h-127
q41 252 178 252q30 0 66.5 -18t63 -39t54.5 -39t44 -18q23 0 36.5 24.5t22.5 81.5h127q-41 -252 -176 -252z" />
    <glyph glyph-name="Umacron" unicode="&#x16a;" horiz-adv-x="1247" 
d="M557 -23q-200 0 -318 108t-118 304q0 72 14 154l152 878h200l-153 -878q-15 -103 -15 -142q0 -114 63.5 -177.5t178.5 -63.5q138 0 230 89.5t120 248.5l164 923h199l-162 -923q-46 -261 -193.5 -391t-361.5 -130zM1042 1591h-467l25 144h467z" />
    <glyph glyph-name="umacron" unicode="&#x16b;" horiz-adv-x="1015" 
d="M782 0h-178l27 143q-111 -161 -287 -161q-117 0 -183.5 72.5t-66.5 201.5q0 88 12 150l107 604h190l-104 -602q-16 -78 -16 -117q0 -150 131 -150q97 0 166 85t92 212l98 572h191zM856 1214h-467l25 144h467z" />
    <glyph glyph-name="Ubreve" unicode="&#x16c;" horiz-adv-x="1247" 
d="M557 -23q-200 0 -318 108t-118 304q0 72 14 154l152 878h200l-153 -878q-15 -103 -15 -142q0 -114 63.5 -177.5t178.5 -63.5q138 0 230 89.5t120 248.5l164 923h199l-162 -923q-46 -261 -193.5 -391t-361.5 -130zM827 1513q-130 0 -190.5 80.5t-38.5 204.5h133
q-11 -65 14 -106t86 -41q108 0 134 147h131q-48 -285 -269 -285z" />
    <glyph glyph-name="ubreve" unicode="&#x16d;" horiz-adv-x="1015" 
d="M782 0h-178l27 143q-111 -161 -287 -161q-117 0 -183.5 72.5t-66.5 201.5q0 88 12 150l107 604h190l-104 -602q-16 -78 -16 -117q0 -150 131 -150q97 0 166 85t92 212l98 572h191zM639 1137q-130 0 -190.5 80t-38.5 204h133q-11 -65 14 -106t86 -41q107 0 133 147h131
q-48 -284 -268 -284z" />
    <glyph glyph-name="Uring" unicode="&#x16e;" horiz-adv-x="1247" 
d="M608 1698q0 91 63.5 154t155.5 63t157 -63t65 -154q0 -90 -64.5 -152.5t-157.5 -62.5q-92 0 -155.5 62t-63.5 153zM721 1698q0 -49 30 -81t76 -32t77.5 32t31.5 81t-31.5 81.5t-77.5 32.5t-76 -32.5t-30 -81.5zM557 -23q-200 0 -318 108t-118 304q0 72 14 154l152 878
h200l-153 -878q-15 -103 -15 -142q0 -114 63.5 -177.5t178.5 -63.5q138 0 230 89.5t120 248.5l164 923h199l-162 -923q-46 -261 -193.5 -391t-361.5 -130z" />
    <glyph glyph-name="uring" unicode="&#x16f;" horiz-adv-x="1015" 
d="M424 1321q0 91 63.5 154t155.5 63t156.5 -63t64.5 -154t-64.5 -153t-156.5 -62t-155.5 62t-63.5 153zM537 1321q0 -49 30 -81t76 -32t77.5 32t31.5 81t-31.5 82t-77.5 33t-76 -32.5t-30 -82.5zM782 0h-178l27 143q-111 -161 -287 -161q-117 0 -183.5 72.5t-66.5 201.5
q0 88 12 150l107 604h190l-104 -602q-16 -78 -16 -117q0 -150 131 -150q97 0 166 85t92 212l98 572h191z" />
    <glyph glyph-name="Uhungarumlaut" unicode="&#x170;" horiz-adv-x="1247" 
d="M557 -23q-200 0 -318 108t-118 304q0 72 14 154l152 878h200l-153 -878q-15 -103 -15 -142q0 -114 63.5 -177.5t178.5 -63.5q138 0 230 89.5t120 248.5l164 923h199l-162 -923q-46 -261 -193.5 -391t-361.5 -130zM766 1815h195l-236 -304h-135zM1020 1815h192l-233 -304
h-135z" />
    <glyph glyph-name="uhungarumlaut" unicode="&#x171;" horiz-adv-x="1015" 
d="M782 0h-178l27 143q-111 -161 -287 -161q-117 0 -183.5 72.5t-66.5 201.5q0 88 12 150l107 604h190l-104 -602q-16 -78 -16 -117q0 -150 131 -150q97 0 166 85t92 212l98 572h191zM578 1421h194l-235 -303h-136zM831 1421h193l-233 -303h-136z" />
    <glyph glyph-name="Uogonek" unicode="&#x172;" horiz-adv-x="1247" 
d="M1112 498q-44 -249 -180 -378t-334 -140q-129 -129 -129 -187q0 -55 61 -55q46 0 101 22l-23 -118q-53 -23 -119 -23q-75 0 -119 33t-44 102q0 93 163 228q-172 18 -270 123t-98 284q0 72 14 154l152 878h200l-153 -878q-15 -103 -15 -142q0 -114 63.5 -177.5
t178.5 -63.5q138 0 230 89.5t120 248.5l164 923h199z" />
    <glyph glyph-name="uogonek" unicode="&#x173;" horiz-adv-x="1015" 
d="M604 0l27 143q-111 -161 -287 -161q-117 0 -183.5 72.5t-66.5 201.5q0 88 12 150l107 604h190l-104 -602q-16 -78 -16 -117q0 -150 131 -150q97 0 166 85t92 212l98 572h191l-179 -1010h-67q-152 -143 -152 -207q0 -55 60 -55q45 0 100 22l-21 -118q-53 -23 -120 -23
q-73 0 -117.5 33t-44.5 98q0 32 13 63t43 65t49.5 52.5t61.5 54.5q11 10 17 15z" />
    <glyph glyph-name="Wcircumflex" unicode="&#x174;" horiz-adv-x="1787" 
d="M1059 1815h182l135 -291h-143l-98 162l-158 -162h-156zM1317 0h-246l-57 1186l-479 -1186h-244l-80 1421h195l53 -1169l469 1169h243l58 -1173l465 1173h200z" />
    <glyph glyph-name="wcircumflex" unicode="&#x175;" horiz-adv-x="1386" 
d="M758 1421h182l135 -291h-143l-98 162l-158 -162h-156zM999 0h-223l-35 784l-311 -784h-223l-72 1010h187l38 -799l314 799h205l32 -799l322 799h192z" />
    <glyph glyph-name="Ycircumflex" unicode="&#x176;" horiz-adv-x="1163" 
d="M387 0l94 539l-305 882h213l223 -667l459 667h229l-620 -884l-94 -537h-199zM719 1815h182l135 -291h-143l-98 162l-158 -162h-156z" />
    <glyph glyph-name="ycircumflex" unicode="&#x177;" horiz-adv-x="937" 
d="M82 -371q-68 0 -131 13l31 163q36 -8 90 -8q64 0 106 29t76 94l16 37l-149 1053h192l90 -822l383 822h197l-549 -1110q-72 -146 -155.5 -208.5t-196.5 -62.5zM530 1421h183l135 -291h-143l-99 162l-157 -162h-156z" />
    <glyph glyph-name="Ydieresis" unicode="&#x178;" horiz-adv-x="1163" 
d="M387 0l94 539l-305 882h213l223 -667l459 667h229l-620 -884l-94 -537h-199zM498 1563l37 202h190l-37 -202h-190zM836 1563l34 202h193l-37 -202h-190z" />
    <glyph glyph-name="Zacute" unicode="&#x179;" horiz-adv-x="1101" 
d="M836 1815h219l-252 -291h-152zM276 1421h885l-31 -164l-858 -1073h693l-31 -184h-948l26 164l860 1073h-630z" />
    <glyph glyph-name="zacute" unicode="&#x17a;" horiz-adv-x="876" 
d="M649 1421h219l-252 -291h-151zM698 0h-708l24 143l586 699h-442l30 168h689l-25 -136l-596 -708h471z" />
    <glyph glyph-name="Zdotaccent" unicode="&#x17b;" horiz-adv-x="1101" 
d="M276 1421h885l-31 -164l-858 -1073h693l-31 -184h-948l26 164l860 1073h-630zM633 1563l35 202h221l-35 -202h-221z" />
    <glyph glyph-name="zdotaccent" unicode="&#x17c;" horiz-adv-x="876" 
d="M698 0h-708l24 143l586 699h-442l30 168h689l-25 -136l-596 -708h471zM446 1186l35 203h221l-34 -203h-222z" />
    <glyph glyph-name="Zcaron" unicode="&#x17d;" horiz-adv-x="1101" 
d="M825 1524h-184l-133 291h143l99 -162l157 162h156zM276 1421h885l-31 -164l-858 -1073h693l-31 -184h-948l26 164l860 1073h-630z" />
    <glyph glyph-name="zcaron" unicode="&#x17e;" horiz-adv-x="876" 
d="M641 1130h-184l-133 291h143l98 -161l158 161h156zM698 0h-708l24 143l586 699h-442l30 168h689l-25 -136l-596 -708h471z" />
    <glyph glyph-name="florin" unicode="&#x192;" horiz-adv-x="751" 
d="M561 1100l-57 -328h207l-29 -164h-209l-117 -674q-28 -158 -118.5 -231.5t-229.5 -73.5q-48 0 -98 9l31 169q46 -8 71 -8q133 0 162 174l111 635h-146l29 164h145l64 350q53 318 336 318q71 0 135 -15l-29 -163q-35 10 -90 10q-73 0 -113 -40.5t-55 -131.5z" />
    <glyph glyph-name="uni01B5" unicode="&#x1b5;" horiz-adv-x="1101" 
d="M276 1421h885l-31 -164l-376 -464h180l-31 -162h-278l-361 -447h701l-31 -184h-948l26 164l377 467h-174l31 162h274l361 444h-639z" />
    <glyph glyph-name="uni01B6" unicode="&#x1b6;" horiz-adv-x="876" 
d="M188 1010h689l-23 -129l-264 -316h110l-22 -123h-195l-235 -280h479l-29 -162h-708l24 139l254 303h-110l22 123h195l235 283h-452z" />
    <glyph glyph-name="Aringacute" unicode="&#x1fa;" horiz-adv-x="1271" 
d="M1032 1534q0 -59 -28.5 -106t-77.5 -74l204 -1354h-198l-58 375h-524l-186 -375h-209l698 1391q-61 58 -61 143q0 76 72 172l170 227h213l-209 -184q82 -9 138 -70.5t56 -144.5zM762 1208l-330 -663h422zM705 1534q0 -49 30 -81t76 -32t77.5 32t31.5 81q0 47 -31.5 81
t-77.5 34q-45 0 -75.5 -33.5t-30.5 -81.5z" />
    <glyph glyph-name="aringacute" unicode="&#x1fb;" horiz-adv-x="993" 
d="M774 0h-172l25 150q-59 -87 -142.5 -127.5t-167.5 -40.5q-125 0 -200.5 69.5t-75.5 184.5q0 135 95 225t247 117l322 59l8 41q6 34 6 59q0 70 -45.5 107t-122.5 37q-172 0 -209 -168h-190q11 108 71.5 181.5t145 104.5t188.5 31q150 0 245 -74t95 -208q0 -65 -10 -117z
M373 131q61 0 119.5 30t107 99t66.5 166l12 66l-258 -48q-83 -18 -137 -68.5t-54 -121.5q0 -57 37.5 -90t106.5 -33zM627 1106q-92 0 -155.5 62t-63.5 153q0 79 69 172l172 227h213l-219 -188q88 -4 146.5 -65.5t58.5 -145.5q0 -90 -65 -152.5t-156 -62.5zM520 1321
q0 -49 30.5 -81t76.5 -32t77 32t31 81t-31 82t-77 33t-76.5 -33t-30.5 -82z" />
    <glyph glyph-name="AEacute" unicode="&#x1fc;" horiz-adv-x="1859" 
d="M1427 1815h220l-252 -291h-152zM774 0l66 369h-475l-275 -369h-223l1048 1421h981l-32 -182h-674l-74 -424h610l-30 -176h-613l-79 -457h686l-33 -182h-883zM489 543h379l119 676z" />
    <glyph glyph-name="aeacute" unicode="&#x1fd;" horiz-adv-x="1597" 
d="M1001 1421h220l-252 -291h-152zM360 -18q-151 0 -235 73.5t-84 204.5q0 144 106 237t302 93h247l13 69q10 51 10 76q0 72 -45.5 109t-122.5 37q-172 0 -209 -168h-190q9 82 45.5 144t92.5 99t123.5 55.5t145.5 18.5q101 0 177 -37.5t112 -109.5q131 147 317 147
q154 0 254.5 -105t100.5 -272q0 -111 -27 -207h-645q-4 -25 -4 -75q0 -105 48.5 -169.5t135.5 -64.5q77 0 138.5 46t93.5 130h192q-49 -159 -164 -245t-268 -86q-103 0 -185.5 50t-125.5 144q-60 -97 -150.5 -145.5t-198.5 -48.5zM385 131q97 0 174.5 66.5t102.5 199.5l8 49
h-226q-102 0 -157.5 -49t-55.5 -129q0 -64 39.5 -100.5t114.5 -36.5zM870 590h457q4 27 4 72q0 103 -50.5 159t-131.5 56q-94 0 -168 -76t-111 -211z" />
    <glyph glyph-name="Oslashacute" unicode="&#x1fe;" horiz-adv-x="1378" 
d="M195 -47h-199l207 252q-88 142 -88 350q0 125 28.5 250.5t87.5 240.5t142 203.5t200.5 141.5t253.5 53q188 0 314 -111l110 133h199l-207 -249q90 -143 90 -351q0 -125 -28.5 -250.5t-87.5 -240.5t-142 -203.5t-200.5 -141.5t-253.5 -53q-190 0 -316 111zM627 152
q95 0 178.5 44t141.5 117t100.5 166.5t62.5 192t20 194.5q0 107 -26 181l-680 -818q74 -77 203 -77zM317 555q0 -109 27 -180l678 817q-75 78 -205 78q-94 0 -176.5 -44t-140.5 -117t-100.5 -166t-62.5 -192.5t-20 -195.5zM963 1815h219l-252 -291h-152z" />
    <glyph glyph-name="oslashacute" unicode="&#x1ff;" horiz-adv-x="1038" 
d="M137 -47h-162l162 197q-59 92 -59 229q0 125 34 240.5t97 207.5t162 147.5t219 55.5q123 0 215 -76l84 103h166l-162 -197q59 -97 59 -229q0 -125 -34 -240t-96.5 -207t-161 -147t-218.5 -55q-130 0 -217 75zM457 123q76 0 138.5 45t101 118t59 160t20.5 177q0 53 -10 84
l-444 -523q20 -29 57 -45t78 -16zM254 383q0 -43 8 -76l445 522q-46 58 -132 58q-76 0 -138.5 -45.5t-101.5 -119.5t-60 -162t-21 -177zM717 1421h219l-252 -291h-152z" />
    <glyph glyph-name="Scommaaccent" unicode="&#x218;" horiz-adv-x="1165" 
d="M580 -92l-33 -195q-19 -98 -83 -145t-177 -47l16 92q57 0 88 22t41 74l2 8h-94l33 191h207zM1042 406q0 -186 -140 -307.5t-353 -121.5q-230 0 -363.5 125t-128.5 330h205q0 -131 79.5 -206.5t211.5 -75.5q119 0 204 66t85 175q0 141 -160 207l-172 68q-283 110 -283 378
q0 167 126 283.5t323 116.5q216 0 347.5 -120.5t125.5 -313.5h-205q0 116 -73.5 189t-194.5 73q-106 0 -178 -63t-72 -158q0 -70 45 -122.5t125 -82.5l162 -64q137 -53 210.5 -142.5t73.5 -233.5z" />
    <glyph glyph-name="scommaaccent" unicode="&#x219;" horiz-adv-x="931" 
d="M461 -92l-33 -195q-19 -98 -83 -145t-177 -47l16 92q57 0 88 22t41 74l2 8h-94l33 191h207zM408 -18q-170 0 -276.5 84.5t-102.5 246.5h188q1 -86 53 -135t140 -49q89 0 143.5 38t54.5 105q0 98 -121 136l-112 38q-102 37 -161.5 107.5t-59.5 169.5q0 139 102 223t256 84
q160 0 261.5 -84t98.5 -233h-188q-1 84 -49.5 126t-128.5 42q-74 0 -124 -36t-50 -102q0 -50 29.5 -82.5t91.5 -54.5l112 -37q223 -79 223 -276q0 -135 -105.5 -223t-274.5 -88z" />
    <glyph glyph-name="uni021A" unicode="&#x21a;" horiz-adv-x="1110" 
d="M547 -92l-33 -195q-19 -98 -83 -145t-177 -47l16 92q57 0 88 22t41 74l2 8h-94l33 191h207zM1217 1421l-33 -184h-404l-217 -1237h-201l218 1237h-404l33 184h1008z" />
    <glyph glyph-name="uni021B" unicode="&#x21b;" horiz-adv-x="673" 
d="M365 -92l-33 -195q-19 -98 -83 -145t-177 -47l16 92q57 0 88 22t41 74l2 8h-94l33 191h207zM379 -14q-107 0 -175.5 55.5t-68.5 157.5q0 39 15 137l90 512h-119l31 162h120l45 262h189l-47 -262h233l-28 -162h-234l-90 -508q-10 -77 -10 -88q0 -94 106 -94q48 0 107 12
l-31 -166q-70 -18 -133 -18z" />
    <glyph glyph-name="dotlessj" unicode="&#x237;" horiz-adv-x="466" 
d="M-111 -371q-67 0 -112 11l28 163q38 -6 70 -6q134 0 164 176l184 1037h189l-189 -1076q-54 -305 -334 -305z" />
    <glyph glyph-name="circumflex" unicode="&#x2c6;" horiz-adv-x="696" 
d="M416 1421h182l135 -291h-143l-98 162l-158 -162h-156z" />
    <glyph glyph-name="caron" unicode="&#x2c7;" horiz-adv-x="696" 
d="M545 1130h-185l-133 291h144l98 -161l158 161h155z" />
    <glyph glyph-name="breve" unicode="&#x2d8;" horiz-adv-x="647" 
d="M461 1137q-130 0 -191 80t-39 204h134q-11 -65 14 -106t86 -41q107 0 133 147h131q-48 -284 -268 -284z" />
    <glyph glyph-name="dotaccent" unicode="&#x2d9;" horiz-adv-x="401" 
d="M205 1186l35 203h221l-35 -203h-221z" />
    <glyph glyph-name="ring" unicode="&#x2da;" horiz-adv-x="557" 
d="M199 1321q0 91 63.5 154t155.5 63t156.5 -63t64.5 -154t-64.5 -153t-156.5 -62t-155.5 62t-63.5 153zM311 1321q0 -49 30.5 -81t76.5 -32t77 32t31 81t-31 82t-77 33t-76.5 -33t-30.5 -82z" />
    <glyph glyph-name="ogonek" unicode="&#x2db;" horiz-adv-x="438" 
d="M147 12h105q-160 -145 -160 -219q0 -55 60 -55q45 0 100 22l-21 -118q-53 -23 -120 -23q-74 0 -118 34.5t-44 102.5q0 114 198 256z" />
    <glyph glyph-name="tilde" unicode="&#x2dc;" horiz-adv-x="692" 
d="M602 1161q-40 0 -86 28.5t-83.5 56.5t-57.5 28q-24 0 -38.5 -24.5t-23.5 -80.5h-127q41 252 179 252q39 0 85 -28.5t84.5 -57t57.5 -28.5q23 0 36.5 24.5t22.5 81.5h127q-41 -252 -176 -252z" />
    <glyph glyph-name="hungarumlaut" unicode="&#x2dd;" horiz-adv-x="741" 
d="M377 1421h194l-235 -303h-135zM631 1421h192l-233 -303h-135z" />
    <glyph glyph-name="pi" unicode="&#x3c0;" horiz-adv-x="1034" 
d="M1024 848h-115l-149 -848h-189l150 848h-289l-149 -848h-189l150 848h-117l29 164h897z" />
    <glyph glyph-name="Wgrave" unicode="&#x1e80;" horiz-adv-x="1787" 
d="M1317 0h-246l-57 1186l-479 -1186h-244l-80 1421h195l53 -1169l469 1169h243l58 -1173l465 1173h200zM881 1815h209l96 -291h-142z" />
    <glyph glyph-name="wgrave" unicode="&#x1e81;" horiz-adv-x="1386" 
d="M999 0h-223l-35 784l-311 -784h-223l-72 1010h187l38 -799l314 799h205l32 -799l322 799h192zM575 1421h209l97 -291h-142z" />
    <glyph glyph-name="Wacute" unicode="&#x1e82;" horiz-adv-x="1787" 
d="M1198 1815h219l-252 -291h-151zM1317 0h-246l-57 1186l-479 -1186h-244l-80 1421h195l53 -1169l469 1169h243l58 -1173l465 1173h200z" />
    <glyph glyph-name="wacute" unicode="&#x1e83;" horiz-adv-x="1386" 
d="M897 1421h219l-252 -291h-151zM999 0h-223l-35 784l-311 -784h-223l-72 1010h187l38 -799l314 799h205l32 -799l322 799h192z" />
    <glyph glyph-name="Wdieresis" unicode="&#x1e84;" horiz-adv-x="1787" 
d="M840 1563l37 202h190l-37 -202h-190zM1178 1563l34 202h193l-37 -202h-190zM1317 0h-246l-57 1186l-479 -1186h-244l-80 1421h195l53 -1169l469 1169h243l58 -1173l465 1173h200z" />
    <glyph glyph-name="wdieresis" unicode="&#x1e85;" horiz-adv-x="1386" 
d="M537 1186l36 203h191l-37 -203h-190zM874 1186l35 203h193l-37 -203h-191zM999 0h-223l-35 784l-311 -784h-223l-72 1010h187l38 -799l314 799h205l32 -799l322 799h192z" />
    <glyph glyph-name="uni1E8A" unicode="&#x1e8a;" horiz-adv-x="1187" 
d="M184 0h-237l569 715l-315 706h217l233 -536l416 536h233l-561 -714l316 -707h-219l-234 541zM657 1559l35 202h221l-34 -202h-222z" />
    <glyph glyph-name="uni1E8B" unicode="&#x1e8b;" horiz-adv-x="933" 
d="M801 0h-201l-154 365l-268 -365h-215l395 514l-219 496h205l148 -355l260 355h219l-393 -510zM461 1186l35 203h221l-35 -203h-221z" />
    <glyph glyph-name="Ygrave" unicode="&#x1ef2;" horiz-adv-x="1163" 
d="M387 0l94 539l-305 882h213l223 -667l459 667h229l-620 -884l-94 -537h-199zM539 1815h209l96 -291h-142z" />
    <glyph glyph-name="ygrave" unicode="&#x1ef3;" horiz-adv-x="937" 
d="M82 -371q-68 0 -131 13l31 163q36 -8 90 -8q64 0 106 29t76 94l16 37l-149 1053h192l90 -822l383 822h197l-549 -1110q-72 -146 -155.5 -208.5t-196.5 -62.5zM350 1421h209l96 -291h-141z" />
    <glyph glyph-name="endash" unicode="&#x2013;" horiz-adv-x="970" 
d="M70 473l26 150h811l-26 -150h-811z" />
    <glyph glyph-name="emdash" unicode="&#x2014;" horiz-adv-x="1933" 
d="M70 473l26 150h1774l-27 -150h-1773z" />
    <glyph glyph-name="quoteleft" unicode="&#x2018;" horiz-adv-x="462" 
d="M176 899l47 281q22 129 98 192.5t211 63.5l-20 -113q-73 0 -110.5 -33t-51.5 -110l-8 -45h102l-38 -236h-230z" />
    <glyph glyph-name="quoteright" unicode="&#x2019;" horiz-adv-x="462" 
d="M508 1421l-47 -280q-41 -256 -307 -256l18 112q74 0 112.5 34t51.5 110l8 45h-104l41 235h227z" />
    <glyph glyph-name="quotesinglbase" unicode="&#x201a;" horiz-adv-x="462" 
d="M303 236l-49 -279q-20 -129 -95.5 -192.5t-211.5 -63.5l20 111q74 0 111.5 33.5t50.5 111.5l8 43h-104l41 236h229z" />
    <glyph glyph-name="quotedblleft" unicode="&#x201c;" horiz-adv-x="835" 
d="M176 899l47 281q22 129 98 192.5t211 63.5l-20 -113q-73 0 -110.5 -33t-51.5 -110l-8 -45h102l-38 -236h-230zM549 899l47 281q22 129 98 192.5t211 63.5l-20 -113q-74 0 -112.5 -33.5t-51.5 -109.5l-6 -45h102l-39 -236h-229z" />
    <glyph glyph-name="quotedblright" unicode="&#x201d;" horiz-adv-x="835" 
d="M508 1421l-47 -280q-41 -256 -307 -256l18 112q74 0 112.5 34t51.5 110l8 45h-104l41 235h227zM881 1421l-47 -280q-44 -256 -308 -256l19 112q74 0 112.5 34t51.5 110l6 45h-103l41 235h228z" />
    <glyph glyph-name="quotedblbase" unicode="&#x201e;" horiz-adv-x="835" 
d="M303 236l-49 -279q-20 -129 -95.5 -192.5t-211.5 -63.5l18 111q75 0 112.5 33.5t51.5 111.5l8 43h-104l41 236h229zM676 236l-47 -279q-22 -130 -97.5 -193t-209.5 -63l18 111q74 0 111.5 33.5t50.5 111.5l8 43h-102l41 236h227z" />
    <glyph glyph-name="dagger" unicode="&#x2020;" horiz-adv-x="755" 
d="M770 1153l-25 -135h-213l-88 -502h-139l88 502h-211l25 135h211l47 268h139l-47 -268h213z" />
    <glyph glyph-name="daggerdbl" unicode="&#x2021;" horiz-adv-x="774" 
d="M721 817l-25 -135h-215l-47 -268h-137l47 268h-213l25 135h211l36 201h-213l25 135h211l47 268h139l-47 -268h215l-24 -135h-215l-35 -201h215z" />
    <glyph glyph-name="bullet" unicode="&#x2022;" horiz-adv-x="796" 
d="M156 594q0 106 75 181t181 75t181 -75t75 -181t-75 -181t-181 -75t-181 75t-75 181z" />
    <glyph glyph-name="ellipsis" unicode="&#x2026;" horiz-adv-x="1378" 
d="M53 0l43 244h238l-43 -244h-238zM479 0l43 244h236l-41 -244h-238zM903 0l43 244h238l-43 -244h-238z" />
    <glyph glyph-name="perthousand" unicode="&#x2030;" horiz-adv-x="2168" 
d="M1200 1421h160l-971 -1421h-160zM522 1444q122 0 195.5 -77t73.5 -216q0 -77 -25 -153.5t-68.5 -138.5t-110 -101t-141.5 -39q-121 0 -193.5 76t-72.5 215q0 104 41 202t121 165t180 67zM522 1307q-54 0 -97.5 -45t-66 -112.5t-22.5 -139.5q0 -156 110 -156
q81 0 135 92.5t54 204.5q0 156 -113 156zM1141 567q-54 0 -98 -45.5t-66.5 -113t-22.5 -138.5q0 -157 111 -157q81 0 134.5 92.5t53.5 204.5q0 157 -112 157zM1141 702q123 0 195.5 -76t72.5 -216q0 -103 -41.5 -201t-122 -165t-180.5 -67q-121 0 -193.5 76.5t-72.5 216.5
q0 103 41 201t121 164.5t180 66.5zM1825 567q-54 0 -98.5 -45.5t-67.5 -113t-23 -138.5q0 -157 111 -157q81 0 134.5 92.5t53.5 204.5q0 157 -110 157zM1825 702q121 0 193.5 -76t72.5 -216q0 -103 -41 -201t-121.5 -165t-181.5 -67q-121 0 -193.5 76.5t-72.5 216.5
q0 103 41.5 201t122 164.5t180.5 66.5z" />
    <glyph glyph-name="guilsinglleft" unicode="&#x2039;" horiz-adv-x="614" 
d="M561 889l-278 -422l129 -397h-158l-164 409l299 410h172z" />
    <glyph glyph-name="guilsinglright" unicode="&#x203a;" horiz-adv-x="612" 
d="M205 70h-170l276 422l-127 397h156l166 -410z" />
    <glyph glyph-name="fraction" unicode="&#x2044;" horiz-adv-x="272" 
d="M-475 0l1137 1421h151l-1132 -1421h-156z" />
    <glyph glyph-name="uni2070" unicode="&#x2070;" horiz-adv-x="661" 
d="M373 762q52 0 93.5 64.5t62 155.5t20.5 183q0 148 -86 148q-52 0 -93 -65t-61 -156.5t-20 -182.5q0 -147 84 -147zM371 641q-107 0 -168.5 72t-61.5 200q0 86 18.5 173t55.5 167t102 130.5t148 50.5q106 0 167.5 -72t61.5 -199q0 -86 -18.5 -173t-55 -167.5t-101.5 -131
t-148 -50.5z" />
    <glyph glyph-name="uni2074" unicode="&#x2074;" horiz-adv-x="645" 
d="M537 653h-144l31 160h-324l23 125l379 483h170l-86 -489h76l-21 -119h-78zM444 932l54 309l-242 -309h188z" />
    <glyph glyph-name="uni2075" unicode="&#x2075;" horiz-adv-x="626" 
d="M352 641q-117 0 -176.5 63t-56.5 170h147q-4 -58 19.5 -88t70.5 -30q54 0 90.5 54.5t36.5 129.5q0 50 -23 78.5t-61 28.5q-33 0 -60.5 -23t-45.5 -61h-133l114 458h396l-25 -127h-268l-49 -182q47 47 123 47t127 -55t51 -160q0 -131 -77 -217t-200 -86z" />
    <glyph glyph-name="uni2076" unicode="&#x2076;" horiz-adv-x="636" 
d="M377 641q-110 0 -170 67t-60 205q0 133 38.5 250.5t115 194t174.5 76.5q107 0 161 -54.5t54 -154.5h-143q0 42 -20 68t-56 26q-49 0 -92.5 -59.5t-69.5 -178.5q55 78 154 78q75 0 128.5 -54.5t53.5 -156.5q0 -125 -76 -216t-192 -91zM371 756q56 0 92.5 59.5t36.5 128.5
q0 44 -21.5 74.5t-60.5 30.5q-55 0 -92 -59.5t-37 -129.5q0 -44 21.5 -74t60.5 -30z" />
    <glyph glyph-name="uni2077" unicode="&#x2077;" horiz-adv-x="538" 
d="M291 653h-152l332 633h-295l25 135h450l-24 -129z" />
    <glyph glyph-name="uni2078" unicode="&#x2078;" horiz-adv-x="653" 
d="M367 641q-110 0 -175 59t-65 150q0 69 42 129t114 84q-34 22 -52 61.5t-18 81.5q0 96 68.5 162t179.5 66q95 0 156 -53.5t61 -143.5q0 -60 -34.5 -111t-94.5 -77q42 -19 67 -63.5t25 -100.5q0 -101 -75 -172.5t-199 -71.5zM371 754q51 0 87 41.5t36 101.5q0 44 -25 72
t-70 28q-53 0 -90 -41.5t-37 -101.5q0 -44 27 -72t72 -28zM432 1102q47 1 78 38t31 89q0 41 -23.5 65.5t-60.5 24.5q-46 0 -76.5 -38.5t-30.5 -90.5q0 -40 22 -64t60 -24z" />
    <glyph glyph-name="uni2079" unicode="&#x2079;" horiz-adv-x="636" 
d="M340 641q-107 0 -162 54.5t-53 154.5h143q-2 -42 18 -68t56 -26q50 0 94.5 59t67.5 178q-52 -78 -152 -78q-76 0 -129 54t-53 157q0 125 76 216.5t190 91.5q110 0 171 -67.5t61 -205.5q0 -133 -38.5 -250t-115 -193.5t-174.5 -76.5zM397 1026q56 0 91.5 58.5t35.5 127.5
q0 46 -21.5 76.5t-60.5 30.5q-56 0 -91.5 -60t-35.5 -129q0 -44 21.5 -74t60.5 -30z" />
    <glyph glyph-name="parenleft.sups" unicode="&#x207d;" horiz-adv-x="442" 
d="M322 930q0 -191 75 -338h-133q-41 69 -65.5 160.5t-24.5 177.5q0 323 229 555h152q-233 -247 -233 -555z" />
    <glyph glyph-name="parenright.sups" unicode="&#x207e;" horiz-adv-x="442" 
d="M301 1147q0 189 -76 338h133q41 -69 66 -160.5t25 -177.5q0 -322 -230 -555h-151q233 247 233 555z" />
    <glyph glyph-name="uni2080" unicode="&#x2080;" horiz-adv-x="657" 
d="M221 -117q52 0 93 65t61 156t20 183q0 76 -21 110.5t-63 34.5q-52 0 -93.5 -64.5t-62 -155t-20.5 -181.5q0 -148 86 -148zM217 -238q-105 0 -166 71.5t-61 199.5q0 68 11 138t36 139.5t61.5 123.5t92 87.5t122.5 33.5q106 0 168 -71.5t62 -198.5q0 -87 -18.5 -174.5
t-55.5 -167.5t-102.5 -130.5t-149.5 -50.5z" />
    <glyph glyph-name="uni2081" unicode="&#x2081;" horiz-adv-x="497" 
d="M256 -225h-147l104 596l-172 -117l29 162l190 127h131z" />
    <glyph glyph-name="uni2082" unicode="&#x2082;" horiz-adv-x="598" 
d="M408 -225h-463l20 127l303 288q49 49 74 86.5t25 77.5q0 37 -21.5 57.5t-58.5 20.5q-45 0 -75.5 -34t-39.5 -97h-143q12 119 85.5 186.5t182.5 67.5q96 0 153.5 -52t57.5 -143q0 -124 -137 -251l-219 -205h278z" />
    <glyph glyph-name="uni2083" unicode="&#x2083;" horiz-adv-x="622" 
d="M205 -238q-119 0 -181 65t-59 169h148q-5 -57 20 -88t76 -31q50 0 82.5 36t32.5 93q0 50 -28 76.5t-75 26.5h-35l23 118h33q55 0 92 34t37 89q0 42 -22 65t-60 23q-44 0 -76 -31t-39 -85h-137q12 106 82.5 169.5t171.5 63.5q99 0 158 -52.5t59 -144.5q0 -63 -36 -113
t-101 -73q43 -16 71.5 -61t28.5 -103q0 -105 -73.5 -175.5t-192.5 -70.5z" />
    <glyph glyph-name="uni2084" unicode="&#x2084;" horiz-adv-x="638" 
d="M381 -225h-141l30 159h-323l22 125l379 484h168l-84 -490h76l-23 -119h-75zM291 53l53 309l-242 -309h189z" />
    <glyph glyph-name="uni2085" unicode="&#x2085;" horiz-adv-x="620" 
d="M201 -238q-117 0 -177.5 63.5t-54.5 170.5h144q-3 -119 90 -119q56 0 92.5 54t36.5 128q0 51 -23 79t-59 28q-34 0 -62.5 -22t-46.5 -60h-133l115 459h395l-24 -127h-269l-49 -183q52 48 123 48q76 0 128 -56t52 -159q0 -131 -77.5 -217.5t-200.5 -86.5z" />
    <glyph glyph-name="uni2086" unicode="&#x2086;" horiz-adv-x="630" 
d="M221 -238q-229 0 -229 273q0 133 38 250t114.5 193.5t174.5 76.5q107 0 161.5 -55t54.5 -156h-144q0 43 -19.5 69.5t-54.5 26.5q-50 0 -94 -59t-69 -178q60 78 155 78q74 0 128.5 -54.5t54.5 -156.5q0 -125 -77.5 -216.5t-193.5 -91.5zM215 -123q57 0 93 59.5t36 129.5
q0 44 -21.5 74t-60.5 30q-55 0 -92 -60t-37 -128q0 -45 22 -75t60 -30z" />
    <glyph glyph-name="uni2087" unicode="&#x2087;" horiz-adv-x="538" 
d="M137 -225h-151l331 633h-294l24 135h451l-25 -129z" />
    <glyph glyph-name="uni2088" unicode="&#x2088;" horiz-adv-x="645" 
d="M213 -238q-110 0 -175 59t-65 150q0 69 42 129t114 84q-34 22 -52 61.5t-18 82.5q0 96 68.5 161.5t179.5 65.5q95 0 156 -53.5t61 -143.5q0 -61 -34 -111.5t-95 -76.5q42 -19 68 -63.5t26 -100.5q0 -101 -75 -172.5t-201 -71.5zM217 -125q51 0 87 41.5t36 101.5
q0 44 -24.5 71.5t-69.5 27.5q-53 0 -89 -41t-36 -101q0 -44 25.5 -72t70.5 -28zM279 223q46 0 77 37.5t31 89.5q0 40 -23.5 65t-60.5 25q-45 0 -75.5 -38.5t-30.5 -90.5q0 -40 22 -64t60 -24z" />
    <glyph glyph-name="uni2089" unicode="&#x2089;" horiz-adv-x="630" 
d="M186 -238q-108 0 -162.5 54.5t-52.5 154.5h144q-2 -43 17.5 -68.5t55.5 -25.5q50 0 94.5 59t67.5 177q-51 -76 -151 -76q-77 0 -130 53.5t-53 155.5q0 126 76.5 217.5t192.5 91.5q108 0 168.5 -67.5t60.5 -204.5q0 -133 -38.5 -250.5t-115 -194t-174.5 -76.5zM242 147
q56 0 92.5 59t36.5 128q0 45 -21.5 75.5t-60.5 30.5q-56 0 -91.5 -60t-35.5 -128q0 -44 21 -74.5t59 -30.5z" />
    <glyph glyph-name="Euro" unicode="&#x20ac;" horiz-adv-x="1204" 
d="M80 489l24 142h115q5 60 23 157h-111l25 140h125q36 109 86 200.5t116 163t150 112t178 40.5q196 0 289.5 -120.5t93.5 -342.5h-195q0 295 -192 295q-108 0 -191 -95.5t-137 -252.5h334l-25 -140h-348q-16 -69 -26 -157h350l-27 -142h-329q1 -171 55.5 -257.5
t152.5 -86.5q101 0 175.5 73t113.5 222h195q-52 -226 -180 -344.5t-308 -118.5q-192 0 -294 133.5t-105 378.5h-133z" />
    <glyph glyph-name="trademark" unicode="&#x2122;" horiz-adv-x="1472" 
d="M170 1294v127h530v-127h-200v-551h-133v551h-197zM1065 741l-168 512v-512h-127v680h191l174 -532l170 532h192v-680h-129v512l-164 -512h-139z" />
    <glyph glyph-name="Omega" unicode="&#x2126;" horiz-adv-x="1417" 
d="M831 1266q-90 0 -170.5 -41.5t-138 -109.5t-99.5 -153.5t-62.5 -175.5t-20.5 -174q0 -329 203 -438l-31 -174h-492l31 176h254q-86 87 -127 198.5t-41 262.5q0 102 28 212t86.5 216.5t139 190.5t195 136t245.5 52q236 0 377.5 -156.5t141.5 -437.5q0 -215 -88 -392.5
t-246 -281.5h227l-31 -176h-497l30 174q175 64 286.5 252.5t111.5 413.5q0 205 -82 315.5t-230 110.5z" />
    <glyph glyph-name="uni2153" unicode="&#x2153;" horiz-adv-x="1435" 
d="M86 0l1137 1421h151l-1132 -1421h-156zM1044 -12q-119 0 -180.5 64.5t-58.5 168.5h147q-5 -57 20.5 -88t76.5 -31q50 0 82 36t32 93q0 50 -27.5 76.5t-74.5 26.5h-35l23 119h32q55 0 92 34t37 88q0 42 -22.5 65.5t-59.5 23.5q-44 0 -75.5 -31.5t-38.5 -85.5h-137
q12 106 82 169.5t171 63.5q99 0 158.5 -52.5t59.5 -143.5q0 -63 -36.5 -113.5t-101.5 -73.5q43 -16 72 -61t29 -103q0 -105 -74 -175t-193 -70zM408 653h-148l105 596l-172 -116l28 163l191 125h131z" />
    <glyph glyph-name="uni2154" unicode="&#x2154;" horiz-adv-x="1562" 
d="M582 653h-465l22 127l303 291q50 48 75.5 85t25.5 77q0 37 -23 58.5t-59 21.5q-45 0 -76.5 -35t-38.5 -98h-143q13 121 86 187.5t184 66.5q95 0 152 -51.5t57 -143.5q0 -126 -139 -252l-217 -205h278zM213 0l1137 1421h151l-1132 -1421h-156zM1171 -12
q-119 0 -180.5 64.5t-58.5 168.5h147q-5 -57 20.5 -88t76.5 -31q50 0 82 36t32 93q0 50 -27.5 76.5t-74.5 26.5h-35l23 119h32q55 0 92 34t37 88q0 42 -22.5 65.5t-59.5 23.5q-44 0 -75.5 -31.5t-38.5 -85.5h-137q12 106 82 169.5t171 63.5q99 0 158.5 -52.5t59.5 -143.5
q0 -63 -36.5 -113.5t-101.5 -73.5q43 -16 72 -61t29 -103q0 -105 -74 -175t-193 -70z" />
    <glyph glyph-name="uni2155" unicode="&#x2155;" horiz-adv-x="1445" 
d="M86 0l1137 1421h151l-1132 -1421h-156zM1075 -12q-117 0 -177 63t-54 170h143q-3 -119 90 -119q56 0 92.5 54.5t36.5 128.5q0 51 -22.5 78.5t-59.5 27.5q-70 0 -108 -82h-133l114 459h396l-25 -127h-268l-49 -182q50 47 123 47q76 0 128 -56t52 -159q0 -130 -78 -216.5
t-201 -86.5zM408 653h-148l105 596l-172 -116l28 163l191 125h131z" />
    <glyph glyph-name="uni2156" unicode="&#x2156;" horiz-adv-x="1591" 
d="M602 653h-465l23 127l303 291q49 47 74.5 84.5t25.5 77.5q0 37 -23 58.5t-59 21.5q-45 0 -76 -35t-38 -98h-144q13 121 86.5 187.5t184.5 66.5q95 0 151.5 -51.5t56.5 -143.5q0 -126 -139 -252l-217 -205h279zM1221 -12q-118 0 -178 63t-54 170h144q-3 -119 90 -119
q56 0 92.5 54.5t36.5 128.5q0 51 -22.5 78.5t-59.5 27.5q-34 0 -62.5 -22t-46.5 -60h-133l115 459h395l-25 -127h-268l-49 -182q50 47 123 47q76 0 128 -56t52 -159q0 -131 -77.5 -217t-200.5 -86zM233 0l1137 1421h152l-1133 -1421h-156z" />
    <glyph glyph-name="uni2157" unicode="&#x2157;" horiz-adv-x="1593" 
d="M387 641q-120 0 -182.5 64.5t-59.5 168.5h146q-3 -118 98 -118q50 0 82.5 36t32.5 93q0 50 -28 76t-77 26h-32l22 119h35q53 0 90 35t37 88q0 42 -23 65t-61 23q-42 0 -73 -30.5t-40 -86.5h-139q13 106 84 170t172 64q99 0 158 -52.5t59 -144.5q0 -61 -36.5 -111.5
t-100.5 -74.5q42 -15 70 -60t28 -104q0 -105 -72 -175.5t-190 -70.5zM1210 -12q-117 0 -177 63t-54 170h143q-3 -119 90 -119q56 0 92.5 54.5t36.5 128.5q0 51 -22.5 78.5t-58.5 27.5q-34 0 -62.5 -22t-46.5 -60h-133l115 459h395l-25 -127h-268l-49 -182q50 47 123 47
q76 0 128 -56t52 -159q0 -130 -78 -216.5t-201 -86.5zM221 0l1137 1421h151l-1132 -1421h-156z" />
    <glyph glyph-name="uni2158" unicode="&#x2158;" horiz-adv-x="1624" 
d="M549 653h-143l30 160h-323l22 125l379 483h170l-86 -489h76l-21 -119h-78zM457 932l53 309l-242 -309h189zM1247 -12q-117 0 -177 63t-54 170h143q-3 -119 90 -119q56 0 92.5 54.5t36.5 128.5q0 51 -22.5 78.5t-59.5 27.5q-70 0 -108 -82h-133l114 459h396l-25 -127h-268
l-49 -182q50 47 123 47q76 0 128 -56t52 -159q0 -130 -78 -216.5t-201 -86.5zM258 0l1137 1421h151l-1132 -1421h-156z" />
    <glyph glyph-name="uni2159" unicode="&#x2159;" horiz-adv-x="1452" 
d="M1073 -12q-229 0 -229 272q0 133 38 250t114.5 193.5t174.5 76.5q107 0 161 -54.5t54 -156.5h-143q0 44 -19.5 70.5t-54.5 26.5q-50 0 -94 -59.5t-69 -178.5q60 78 155 78q74 0 128 -54.5t54 -156.5q0 -125 -77 -216t-193 -91zM1067 102q57 0 93 59.5t36 129.5
q0 44 -21.5 74t-60.5 30q-55 0 -92 -60t-37 -128q0 -45 22 -75t60 -30zM86 0l1137 1421h151l-1132 -1421h-156zM428 653h-147l104 596l-172 -116l29 163l190 125h131z" />
    <glyph glyph-name="uni215A" unicode="&#x215a;" horiz-adv-x="1595" 
d="M379 641q-117 0 -177 63t-57 170h148q-4 -58 19.5 -88t70.5 -30q54 0 90.5 54.5t36.5 129.5q0 50 -23 78.5t-61 28.5q-33 0 -61 -23t-46 -61h-133l115 458h395l-24 -127h-269l-49 -182q47 47 123 47t127 -55t51 -160q0 -131 -76.5 -217t-199.5 -86zM1204 -12
q-229 0 -229 272q0 133 38.5 250t115 193.5t174.5 76.5q107 0 161 -54.5t54 -156.5h-144q0 44 -19.5 70.5t-54.5 26.5q-50 0 -94 -59.5t-69 -178.5q60 78 155 78q74 0 128.5 -54.5t54.5 -156.5q0 -124 -77.5 -215.5t-193.5 -91.5zM1198 102q57 0 93 59.5t36 129.5
q0 44 -21.5 74t-60.5 30q-55 0 -92 -60t-37 -128q0 -45 22 -75t60 -30zM217 0l1137 1421h151l-1132 -1421h-156z" />
    <glyph glyph-name="uni215B" unicode="&#x215b;" horiz-adv-x="1437" 
d="M1057 -12q-110 0 -175 59t-65 150q0 69 42 129t114 84q-34 22 -52 61t-18 82q0 96 68.5 161.5t179.5 65.5q95 0 156 -53t61 -143q0 -61 -34 -112t-95 -77q42 -19 68 -63.5t26 -100.5q0 -101 -75 -172t-201 -71zM1061 100q51 0 87 42t36 102q0 44 -24.5 71t-69.5 27
q-53 0 -89 -40.5t-36 -100.5q0 -44 25.5 -72.5t70.5 -28.5zM1122 449q47 0 78 37t31 89q0 40 -23.5 65.5t-60.5 25.5q-45 0 -76 -38.5t-31 -90.5q0 -40 22 -64t60 -24zM86 0l1137 1421h151l-1132 -1421h-156zM408 653h-148l105 596l-172 -116l28 163l191 125h131z" />
    <glyph glyph-name="uni215C" unicode="&#x215c;" horiz-adv-x="1585" 
d="M1192 -12q-110 0 -175 59t-65 150q0 69 42 129t114 84q-34 22 -52 61t-18 82q0 96 68.5 161.5t179.5 65.5q95 0 156 -53t61 -143q0 -61 -34 -112t-95 -77q42 -19 68 -63.5t26 -100.5q0 -101 -75 -172t-201 -71zM1196 100q51 0 87 42t36 102q0 44 -24.5 71t-69.5 27
q-53 0 -89 -40.5t-36 -100.5q0 -44 25.5 -72.5t70.5 -28.5zM1257 449q47 0 78 37t31 89q0 40 -23.5 65.5t-60.5 25.5q-45 0 -75.5 -38.5t-30.5 -90.5q0 -40 21.5 -64t59.5 -24zM387 641q-120 0 -182.5 64.5t-59.5 168.5h146q-3 -118 98 -118q50 0 82.5 36t32.5 93
q0 50 -28 76t-77 26h-32l22 119h35q53 0 90 35t37 88q0 42 -23 65t-61 23q-42 0 -73 -30.5t-40 -86.5h-139q13 106 84 170t172 64q99 0 158 -52.5t59 -144.5q0 -61 -36.5 -111.5t-100.5 -74.5q42 -15 70 -60t28 -104q0 -105 -72 -175.5t-190 -70.5zM221 0l1137 1421h151
l-1132 -1421h-156z" />
    <glyph glyph-name="uni215D" unicode="&#x215d;" horiz-adv-x="1581" 
d="M1188 -12q-110 0 -175 59t-65 150q0 69 42 129t114 84q-34 22 -52 61t-18 82q0 96 68.5 161.5t179.5 65.5q95 0 156 -53t61 -143q0 -61 -34 -112t-95 -77q42 -19 68 -63.5t26 -100.5q0 -101 -75 -172t-201 -71zM1192 100q51 0 87 42t36 102q0 44 -24.5 71t-69.5 27
q-53 0 -89 -40.5t-36 -100.5q0 -44 25.5 -72.5t70.5 -28.5zM1253 449q47 0 78 37t31 89q0 40 -23.5 65.5t-60.5 25.5q-45 0 -76 -38.5t-31 -90.5q0 -40 22 -64t60 -24zM379 641q-117 0 -177 63t-57 170h148q-4 -58 19.5 -88t70.5 -30q54 0 90.5 54.5t36.5 129.5
q0 50 -23 78.5t-61 28.5q-33 0 -61 -23t-46 -61h-133l115 458h395l-24 -127h-269l-49 -182q47 47 123 47t127 -55t51 -160q0 -131 -76.5 -217t-199.5 -86zM217 0l1137 1421h151l-1132 -1421h-156z" />
    <glyph glyph-name="uni215E" unicode="&#x215e;" horiz-adv-x="1476" 
d="M385 653h-152l332 633h-295l25 135h450l-24 -129zM121 0l1136 1421h152l-1133 -1421h-155zM1090 -12q-110 0 -175 59t-65 150q0 69 42 129t114 84q-34 22 -52 61t-18 82q0 96 68.5 161.5t179.5 65.5q95 0 156 -53t61 -143q0 -61 -34 -112t-95 -77q42 -19 68 -63.5
t26 -100.5q0 -101 -75 -172t-201 -71zM1094 100q51 0 87 42t36 102q0 44 -25 71t-70 27q-53 0 -89 -40.5t-36 -100.5q0 -44 26 -72.5t71 -28.5zM1155 449q47 0 78 37t31 89q0 40 -23.5 65.5t-60.5 25.5q-45 0 -76 -38.5t-31 -90.5q0 -40 22 -64t60 -24z" />
    <glyph glyph-name="uni2190" unicode="&#x2190;" 
d="M686 1319h203l-529 -533h1248v-145h-1254l535 -539h-203l-606 609z" />
    <glyph glyph-name="uni2191" unicode="&#x2191;" 
d="M1452 868v-202l-539 534v-1253h-145v1247l-532 -528v202l608 607z" />
    <glyph glyph-name="uni2192" unicode="&#x2192;" 
d="M799 1319h202l607 -608l-607 -609h-202l534 539h-1253v145h1247z" />
    <glyph glyph-name="uni2193" unicode="&#x2193;" 
d="M1452 756v-203l-608 -606l-608 606v203l532 -529v1248h145v-1254z" />
    <glyph glyph-name="partialdiff" unicode="&#x2202;" horiz-adv-x="1024" 
d="M479 1421h211q109 -118 185.5 -303t76.5 -401q0 -204 -58.5 -369t-176 -265.5t-275.5 -100.5q-160 0 -265 107t-105 290q0 94 19.5 185t60.5 174.5t99 147t140 101t178 37.5q122 0 187 -84q-42 151 -106 263t-171 218zM451 135q93 0 164 75.5t105 185.5t34 231
q0 116 -49 183t-136 67q-94 0 -165.5 -76.5t-105.5 -187t-34 -230.5q0 -117 49 -182.5t138 -65.5z" />
    <glyph glyph-name="Delta" unicode="&#x2206;" horiz-adv-x="1282" 
d="M1114 158l-29 -158h-1071l29 158l637 1263h240zM766 1198l-500 -1012h643z" />
    <glyph glyph-name="product" unicode="&#x220f;" horiz-adv-x="1333" 
d="M1090 0h-201l217 1239h-623l-219 -1239h-201l250 1421h1026z" />
    <glyph glyph-name="summation" unicode="&#x2211;" horiz-adv-x="1126" 
d="M72 178l518 567l-332 498l33 178h887l-33 -178h-658l279 -426l-33 -182l-416 -455h652l-33 -180h-895z" />
    <glyph glyph-name="minus" unicode="&#x2212;" horiz-adv-x="1228" 
d="M209 582l27 157h831l-27 -157h-831z" />
    <glyph glyph-name="radical" unicode="&#x221a;" horiz-adv-x="1202" 
d="M111 580l30 172h303l64 -566l586 1235h192l-700 -1421h-219l-82 580h-174z" />
    <glyph glyph-name="infinity" unicode="&#x221e;" horiz-adv-x="1228" 
d="M922 969q117 0 183 -75.5t66 -203.5q0 -65 -20 -127t-56 -112t-92.5 -80.5t-123.5 -30.5q-89 0 -150 44.5t-106 137.5q-128 -182 -275 -182q-116 0 -182 75t-66 203q0 88 32 166.5t99.5 131.5t157.5 53q88 0 148 -46.5t106 -140.5q131 187 279 187zM877 475
q70 0 110.5 66.5t40.5 148.5q0 63 -29.5 103.5t-83.5 40.5q-58 0 -107.5 -45.5t-107.5 -137.5q40 -90 81 -133t96 -43zM395 834q-70 0 -111.5 -66.5t-41.5 -149.5q0 -62 30 -102.5t84 -40.5t103 45t104 133q-38 91 -76.5 136t-91.5 45z" />
    <glyph glyph-name="integral" unicode="&#x222b;" horiz-adv-x="733" 
d="M545 1100l-207 -1166q-28 -158 -118.5 -231.5t-229.5 -73.5q-46 0 -96 9l28 169q46 -8 74 -8q131 0 160 174l202 1149q56 318 338 318q72 0 133 -15l-26 -163q-40 10 -92 10q-71 0 -111 -40.5t-55 -131.5z" />
    <glyph glyph-name="approxequal" unicode="&#x2248;" horiz-adv-x="1228" 
d="M897 733q-54 0 -142.5 31.5t-170 62.5t-117.5 31q-64 0 -78 -86l-8 -45h-148l15 84q35 207 209 207q54 0 142.5 -31t170 -62.5t117.5 -31.5q64 0 78 86l8 45h147l-14 -84q-38 -207 -209 -207zM827 309q-54 0 -142.5 31.5t-170 62.5t-117.5 31q-64 0 -78 -86l-8 -45h-147
l14 84q35 207 209 207q54 0 142.5 -31t170 -62.5t117.5 -31.5q64 0 78 86l8 45h148l-15 -84q-38 -207 -209 -207z" />
    <glyph glyph-name="notequal" unicode="&#x2260;" horiz-adv-x="1228" 
d="M252 805l29 158h428l106 206h158l-105 -206h234l-27 -158h-284l-146 -289h377l-27 -158h-430l-104 -206h-160l105 206h-234l29 158h282l146 289h-377z" />
    <glyph glyph-name="lessequal" unicode="&#x2264;" horiz-adv-x="1228" 
d="M285 727l30 170l799 334l-33 -180l-606 -250l518 -248l-28 -166zM143 0l29 158h760l-29 -158h-760z" />
    <glyph glyph-name="greaterequal" unicode="&#x2265;" horiz-adv-x="1228" 
d="M1047 893l-33 -172l-797 -334l31 180l606 250l-518 250l29 164zM143 0l27 158h760l-27 -158h-760z" />
    <glyph glyph-name="uni2295" unicode="&#x2295;" 
d="M1577 711q0 -152 -57 -288t-154.5 -234t-233.5 -155t-288 -57t-288 57t-233.5 155t-154.5 234t-57 288t57 288t154.5 233.5t233.5 154.5t288 57t288 -57t233.5 -154.5t154.5 -233.5t57 -288zM918 127q202 25 342 166t165 346h-507v-512zM262 639q23 -205 163.5 -346
t344.5 -166v512h-508zM918 1292v-508h507q-23 203 -164 344t-343 164zM770 1292q-202 -23 -343.5 -164.5t-164.5 -343.5h508v508z" />
    <glyph glyph-name="uni2296" unicode="&#x2296;" 
d="M844 -23q-152 0 -288 57t-233.5 155t-154.5 234t-57 288t57 288t154.5 233.5t233.5 154.5t288 57t288 -57t233.5 -154.5t154.5 -233.5t57 -288t-57 -288t-154.5 -234t-233.5 -155t-288 -57zM844 123q228 0 392 146.5t189 369.5h-1165q26 -224 190.5 -370t393.5 -146z
M844 1298q-229 0 -393.5 -146t-190.5 -368h1165q-17 146 -96.5 263.5t-206.5 184t-278 66.5z" />
    <glyph glyph-name="uni2297" unicode="&#x2297;" 
d="M1577 711q0 -152 -57 -288t-154.5 -234t-233.5 -155t-288 -57t-288 57t-233.5 155t-154.5 234t-57 288t57 288t154.5 233.5t233.5 154.5t288 57t288 -57t233.5 -154.5t154.5 -233.5t57 -288zM256 711q0 -207 121 -363l362 363l-362 362q-121 -159 -121 -362zM844 123
q203 0 362 121l-362 362l-363 -362q156 -121 363 -121zM844 1298q-208 0 -363 -120l363 -363l362 363q-162 120 -362 120zM1432 711q0 198 -121 362l-363 -362l361 -363q123 155 123 363z" />
    <glyph glyph-name="uni2299" unicode="&#x2299;" 
d="M586 711q0 109 74.5 183.5t183.5 74.5t183.5 -74.5t74.5 -183.5t-74.5 -183.5t-183.5 -74.5t-183.5 74.5t-74.5 183.5zM256 711q0 -123 45.5 -232t123.5 -187t187 -123.5t232 -45.5t232 45.5t187 123.5t123.5 187t45.5 232q0 122 -45.5 231t-123.5 187t-187 123.5
t-232 45.5t-232 -45.5t-187 -123.5t-123.5 -187t-45.5 -231zM1577 711q0 -152 -57 -288t-154.5 -234t-233.5 -155t-288 -57t-288 57t-233.5 155t-154.5 234t-57 288t57 288t154.5 233.5t233.5 154.5t288 57t288 -57t233.5 -154.5t154.5 -233.5t57 -288z" />
    <glyph glyph-name="uni22A0" unicode="&#x22a0;" 
d="M1554 0h-1421v1421h1421v-1421zM1307 145l-463 461l-461 -461h924zM1409 250v921l-461 -460zM1305 1276h-920l459 -461zM279 1174v-924l460 461z" />
    <glyph glyph-name="uni2460" unicode="&#x2460;" horiz-adv-x="1945" 
d="M973 1425q-148 0 -280.5 -55.5t-228 -150.5t-151 -227.5t-55.5 -280.5q0 -197 94.5 -361.5t259 -259t361.5 -94.5t361.5 94.5t259 259t94.5 361.5q0 148 -55.5 280.5t-151 227.5t-228 150.5t-280.5 55.5zM973 1571q178 0 337.5 -67t274 -181.5t181.5 -274t67 -337.5
t-67 -337.5t-181.5 -274.5t-274 -182t-337.5 -67t-337.5 67t-274 182t-181.5 274.5t-67 337.5t67 337.5t181.5 274t274 181.5t337.5 67zM1073 195h-172v827l-207 -156v191l228 172h151v-1034z" />
    <glyph glyph-name="uni2461" unicode="&#x2461;" horiz-adv-x="1945" 
d="M973 1425q-148 0 -280.5 -55.5t-228 -150.5t-151 -227.5t-55.5 -280.5q0 -197 94.5 -361.5t259 -259t361.5 -94.5t361.5 94.5t259 259t94.5 361.5q0 148 -55.5 280.5t-151 227.5t-228 150.5t-280.5 55.5zM973 1571q178 0 337.5 -67t274 -181.5t181.5 -274t67 -337.5
t-67 -337.5t-181.5 -274.5t-274 -182t-337.5 -67t-337.5 67t-274 182t-181.5 274.5t-67 337.5t67 337.5t181.5 274t274 181.5t337.5 67zM1282 195h-616v157l348 396q94 105 94 206q0 64 -36 104t-95 40q-67 0 -103.5 -48.5t-35.5 -138.5h-181q0 152 86.5 243t235.5 91
q138 0 222.5 -82t84.5 -209q0 -60 -27 -123t-56 -102.5t-75 -91.5l-243 -285h397v-157z" />
    <glyph glyph-name="uni2462" unicode="&#x2462;" horiz-adv-x="1945" 
d="M973 1425q-148 0 -280.5 -55.5t-228 -150.5t-151 -227.5t-55.5 -280.5q0 -197 94.5 -361.5t259 -259t361.5 -94.5t361.5 94.5t259 259t94.5 361.5q0 148 -55.5 280.5t-151 227.5t-228 150.5t-280.5 55.5zM973 1571q178 0 337.5 -67t274 -181.5t181.5 -274t67 -337.5
t-67 -337.5t-181.5 -274.5t-274 -182t-337.5 -67t-337.5 67t-274 182t-181.5 274.5t-67 337.5t67 337.5t181.5 274t274 181.5t337.5 67zM971 176q-153 0 -244.5 84.5t-91.5 226.5h182q2 -78 42.5 -124t111.5 -46q69 0 111 48.5t42 128.5q0 153 -186 153h-33v146h25
q86 0 130 43t44 116q0 68 -35.5 109t-95.5 41q-62 0 -99 -44.5t-38 -125.5h-177q2 142 86.5 227.5t229.5 85.5q139 0 220 -81.5t81 -200.5q0 -79 -39.5 -140t-103.5 -88q73 -25 123.5 -94t50.5 -160q0 -133 -90.5 -219t-245.5 -86z" />
    <glyph glyph-name="uni2463" unicode="&#x2463;" horiz-adv-x="1945" 
d="M973 1425q-148 0 -280.5 -55.5t-228 -150.5t-151 -227.5t-55.5 -280.5q0 -197 94.5 -361.5t259 -259t361.5 -94.5t361.5 94.5t259 259t94.5 361.5q0 148 -55.5 280.5t-151 227.5t-228 150.5t-280.5 55.5zM973 1571q178 0 337.5 -67t274 -181.5t181.5 -274t67 -337.5
t-67 -337.5t-181.5 -274.5t-274 -182t-337.5 -67t-337.5 67t-274 182t-181.5 274.5t-67 337.5t67 337.5t181.5 274t274 181.5t337.5 67zM1159 195h-170v221h-450v153l415 660h205v-666h113v-147h-113v-221zM989 563v453l-282 -453h282z" />
    <glyph glyph-name="uni2464" unicode="&#x2464;" horiz-adv-x="1945" 
d="M973 1425q-148 0 -280.5 -55.5t-228 -150.5t-151 -227.5t-55.5 -280.5q0 -197 94.5 -361.5t259 -259t361.5 -94.5t361.5 94.5t259 259t94.5 361.5q0 148 -55.5 280.5t-151 227.5t-228 150.5t-280.5 55.5zM973 1571q178 0 337.5 -67t274 -181.5t181.5 -274t67 -337.5
t-67 -337.5t-181.5 -274.5t-274 -182t-337.5 -67t-337.5 67t-274 182t-181.5 274.5t-67 337.5t67 337.5t181.5 274t274 181.5t337.5 67zM971 176q-152 0 -243 81.5t-91 231.5h182q0 -82 41 -127t105 -45q73 0 115 57t42 154q0 95 -40.5 152t-110.5 57q-50 0 -85.5 -32.5
t-51.5 -86.5h-164l49 611h518v-160h-367l-24 -272q61 77 172 77q122 0 203.5 -94t81.5 -250q0 -154 -89.5 -254t-242.5 -100z" />
    <glyph glyph-name="uni2465" unicode="&#x2465;" horiz-adv-x="1945" 
d="M971 176q-165 0 -257.5 134t-92.5 395q0 266 94 403t256 137q134 0 219 -78.5t88 -199.5h-180q-3 65 -35.5 100t-89.5 35q-78 0 -127.5 -88t-50.5 -285q29 70 87 106.5t126 36.5q119 0 200.5 -91t81.5 -253q0 -166 -92 -259t-227 -93zM965 319q69 0 108 56.5t39 146.5
q0 92 -40 151.5t-109 59.5q-66 0 -106 -62t-40 -149q0 -85 40.5 -144t107.5 -59zM973 1425q-148 0 -280.5 -55.5t-228 -150.5t-151 -227.5t-55.5 -280.5q0 -197 94.5 -361.5t259 -259t361.5 -94.5t361.5 94.5t259 259t94.5 361.5q0 148 -55.5 280.5t-151 227.5t-228 150.5
t-280.5 55.5zM973 1571q178 0 337.5 -67t274 -181.5t181.5 -274t67 -337.5t-67 -337.5t-181.5 -274.5t-274 -182t-337.5 -67t-337.5 67t-274 182t-181.5 274.5t-67 337.5t67 337.5t181.5 274t274 181.5t337.5 67z" />
    <glyph glyph-name="uni2466" unicode="&#x2466;" horiz-adv-x="1945" 
d="M973 1425q-148 0 -280.5 -55.5t-228 -150.5t-151 -227.5t-55.5 -280.5q0 -197 94.5 -361.5t259 -259t361.5 -94.5t361.5 94.5t259 259t94.5 361.5q0 148 -55.5 280.5t-151 227.5t-228 150.5t-280.5 55.5zM973 1571q178 0 337.5 -67t274 -181.5t181.5 -274t67 -337.5
t-67 -337.5t-181.5 -274.5t-274 -182t-337.5 -67t-337.5 67t-274 182t-181.5 274.5t-67 337.5t67 337.5t181.5 274t274 181.5t337.5 67zM672 1063v166h598v-160l-320 -874h-184l317 868h-411z" />
    <glyph glyph-name="uni2467" unicode="&#x2467;" horiz-adv-x="1945" 
d="M973 -150q-178 0 -337.5 67t-274 182t-181.5 274.5t-67 337.5t67 337.5t181.5 274t274 181.5t337.5 67t337.5 -67t274 -181.5t181.5 -274t67 -337.5t-67 -337.5t-181.5 -274.5t-274 -182t-337.5 -67zM973 -4q197 0 361.5 94.5t259 259t94.5 361.5q0 148 -55.5 280.5
t-151 227.5t-228 150.5t-280.5 55.5t-280.5 -55.5t-228 -150.5t-151 -227.5t-55.5 -280.5q0 -197 94.5 -361.5t259 -259t361.5 -94.5zM981 176q-159 0 -249.5 85t-90.5 216q0 88 48 159.5t122 98.5q-64 31 -101.5 92.5t-37.5 135.5q0 121 84.5 201.5t224.5 80.5
q141 0 225 -80t84 -202q0 -75 -36 -136.5t-101 -91.5q75 -26 122.5 -97.5t47.5 -160.5q0 -131 -91.5 -216t-250.5 -85zM981 319q75 0 118.5 47t43.5 123q0 74 -43.5 122t-118.5 48q-73 0 -116.5 -48t-43.5 -122q0 -76 43 -123t117 -47zM981 797q64 0 102.5 42.5t38.5 110.5
q0 70 -38 112t-103 42q-63 0 -101 -42t-38 -112q0 -68 38 -110.5t101 -42.5z" />
    <glyph glyph-name="uni2468" unicode="&#x2468;" horiz-adv-x="1945" 
d="M975 1245q165 0 257.5 -133.5t92.5 -394.5q0 -266 -94 -403.5t-256 -137.5q-134 0 -219 79t-88 200h180q3 -65 35.5 -100.5t89.5 -35.5q78 0 127.5 88t50.5 285q-29 -70 -87 -106.5t-126 -36.5q-119 0 -201 91.5t-82 252.5q0 166 92.5 259t227.5 93zM981 1102
q-69 0 -108 -56.5t-39 -146.5q0 -92 40 -151.5t109 -59.5q66 0 105.5 62t39.5 149q0 85 -40 144t-107 59zM973 1425q-148 0 -280.5 -55.5t-228 -150.5t-151 -227.5t-55.5 -280.5q0 -197 94.5 -361.5t259 -259t361.5 -94.5t361.5 94.5t259 259t94.5 361.5q0 148 -55.5 280.5
t-151 227.5t-228 150.5t-280.5 55.5zM973 1571q178 0 337.5 -67t274 -181.5t181.5 -274t67 -337.5t-67 -337.5t-181.5 -274.5t-274 -182t-337.5 -67t-337.5 67t-274 182t-181.5 274.5t-67 337.5t67 337.5t181.5 274t274 181.5t337.5 67z" />
    <glyph glyph-name="uni2469" unicode="&#x2469;" horiz-adv-x="1945" 
d="M1833 711q0 -178 -67 -337.5t-181.5 -274.5t-274 -182t-337.5 -67t-337.5 67t-274 182t-181.5 274.5t-67 337.5t67 337.5t181.5 274t274 181.5t337.5 67t337.5 -67t274 -181.5t181.5 -274t67 -337.5zM1688 711q0 148 -55.5 280.5t-151 227.5t-228 150.5t-280.5 55.5
t-280.5 -55.5t-228 -150.5t-151 -227.5t-55.5 -280.5q0 -197 94.5 -361.5t259 -259t361.5 -94.5t361.5 94.5t259 259t94.5 361.5zM1454 711q0 -535 -309 -535t-309 535q0 534 309 534t309 -534zM1280 711q0 207 -31 295t-104 88q-74 0 -104.5 -87t-30.5 -296t30.5 -296
t104.5 -87q73 0 104 88t31 295zM743 195h-168v1030h168v-1030z" />
    <glyph glyph-name="uni25A0" unicode="&#x25a0;" 
d="M1554 1421v-1421h-1421v1421h1421z" />
    <glyph glyph-name="uni25A1" unicode="&#x25a1;" 
d="M1554 1421v-1421h-1421v1421h1421zM279 1276v-1131h1130v1131h-1130z" />
    <glyph glyph-name="uni25B2" unicode="&#x25b2;" 
d="M844 1444l727 -1444h-1452z" />
    <glyph glyph-name="uni25B3" unicode="&#x25b3;" 
d="M844 1444l727 -1444h-1452zM356 145h977l-489 969z" />
    <glyph glyph-name="uni25B6" unicode="&#x25b6;" 
d="M123 1438l1444 -727l-1444 -725v1452z" />
    <glyph glyph-name="uni25B7" unicode="&#x25b7;" 
d="M121 1436l1444 -725l-1444 -727v1452zM268 1200v-979l967 490z" />
    <glyph glyph-name="uni25BC" unicode="&#x25bc;" 
d="M1571 1421l-727 -1444l-725 1444h1452z" />
    <glyph glyph-name="uni25BD" unicode="&#x25bd;" 
d="M1571 1421l-727 -1444l-725 1444h1452zM1333 1276h-977l488 -969z" />
    <glyph glyph-name="uni25C0" unicode="&#x25c0;" 
d="M123 711l1444 727v-1452z" />
    <glyph glyph-name="uni25C1" unicode="&#x25c1;" 
d="M123 711l1444 725v-1452zM1421 221v979l-968 -489z" />
    <glyph glyph-name="lozenge" unicode="&#x25ca;" horiz-adv-x="1267" 
d="M86 711l588 710h219l354 -710l-592 -711h-219zM315 692l248 -512l451 553l-248 506z" />
    <glyph glyph-name="uni25CB" unicode="&#x25cb;" 
d="M256 711q0 -123 45.5 -232t123.5 -187t187 -123.5t232 -45.5t232 45.5t187 123.5t123.5 187t45.5 232q0 122 -45.5 231t-123.5 187t-187 123.5t-232 45.5t-232 -45.5t-187 -123.5t-123.5 -187t-45.5 -231zM1577 711q0 -152 -57 -288t-154.5 -234t-233.5 -155t-288 -57
t-288 57t-233.5 155t-154.5 234t-57 288t57 288t154.5 233.5t233.5 154.5t288 57t288 -57t233.5 -154.5t154.5 -233.5t57 -288z" />
    <glyph glyph-name="uni25CF" unicode="&#x25cf;" 
d="M111 711q0 152 57 288t154.5 233.5t233.5 154.5t288 57t288 -57t233.5 -154.5t154.5 -233.5t57 -288t-57 -288t-154.5 -234t-233.5 -155t-288 -57t-288 57t-233.5 155t-154.5 234t-57 288z" />
    <glyph glyph-name="uni25D0" unicode="&#x25d0;" 
d="M844 1298v-1175q123 0 232 45.5t187 123.5t123.5 187t45.5 232q0 122 -45.5 231t-123.5 187t-187 123.5t-232 45.5zM844 -23q-152 0 -288 57t-233.5 155t-154.5 234t-57 288t57 288t154.5 233.5t233.5 154.5t288 57t288 -57t233.5 -154.5t154.5 -233.5t57 -288t-57 -288
t-154.5 -234t-233.5 -155t-288 -57z" />
    <glyph glyph-name="uni25D1" unicode="&#x25d1;" 
d="M844 123v1175q-123 0 -232 -45.5t-187 -123.5t-123.5 -187t-45.5 -231q0 -123 45.5 -232t123.5 -187t187 -123.5t232 -45.5zM844 -23q-152 0 -288 57t-233.5 155t-154.5 234t-57 288t57 288t154.5 233.5t233.5 154.5t288 57t288 -57t233.5 -154.5t154.5 -233.5t57 -288
t-57 -288t-154.5 -234t-233.5 -155t-288 -57z" />
    <glyph glyph-name="uni25D2" unicode="&#x25d2;" 
d="M256 711h1176q0 122 -45.5 231t-123.5 187t-187 123.5t-232 45.5t-232 -45.5t-187 -123.5t-123.5 -187t-45.5 -231zM1577 711q0 -152 -57 -288t-154.5 -234t-233.5 -155t-288 -57t-288 57t-233.5 155t-154.5 234t-57 288t57 288t154.5 233.5t233.5 154.5t288 57t288 -57
t233.5 -154.5t154.5 -233.5t57 -288z" />
    <glyph glyph-name="uni25D3" unicode="&#x25d3;" 
d="M1432 711h-1176q0 -123 45.5 -232t123.5 -187t187 -123.5t232 -45.5t232 45.5t187 123.5t123.5 187t45.5 232zM1577 711q0 -152 -57 -288t-154.5 -234t-233.5 -155t-288 -57t-288 57t-233.5 155t-154.5 234t-57 288t57 288t154.5 233.5t233.5 154.5t288 57t288 -57
t233.5 -154.5t154.5 -233.5t57 -288z" />
    <glyph glyph-name="uni25D4" unicode="&#x25d4;" 
d="M1577 711q0 -152 -57 -288t-154.5 -234t-233.5 -155t-288 -57t-288 57t-233.5 155t-154.5 234t-57 288t57 288t154.5 233.5t233.5 154.5t288 57t288 -57t233.5 -154.5t154.5 -233.5t57 -288zM1432 711h-588v587q-123 0 -232 -45.5t-187 -123.5t-123.5 -187t-45.5 -231
q0 -123 45.5 -232t123.5 -187t187 -123.5t232 -45.5t232 45.5t187 123.5t123.5 187t45.5 232z" />
    <glyph glyph-name="uni25D5" unicode="&#x25d5;" 
d="M844 711v587q-123 0 -232 -45.5t-187 -123.5t-123.5 -187t-45.5 -231h588zM844 -23q-152 0 -288 57t-233.5 155t-154.5 234t-57 288t57 288t154.5 233.5t233.5 154.5t288 57t288 -57t233.5 -154.5t154.5 -233.5t57 -288t-57 -288t-154.5 -234t-233.5 -155t-288 -57z" />
    <glyph glyph-name="uni25E7" unicode="&#x25e7;" 
d="M133 1421h1421v-1421h-1421v1421zM1409 145v1131h-565v-1131h565z" />
    <glyph glyph-name="uni25E8" unicode="&#x25e8;" 
d="M133 1421h1421v-1421h-1421v1421zM279 1276v-1131h565v1131h-565z" />
    <glyph glyph-name="uni25E9" unicode="&#x25e9;" 
d="M133 0v1421h1421v-1421h-1421zM1409 145v1131l-1130 -1131h1130z" />
    <glyph glyph-name="uni25EA" unicode="&#x25ea;" 
d="M1554 1421v-1421h-1421v1421h1421zM279 1276v-1131l1130 1131h-1130z" />
    <glyph glyph-name="uni2690" unicode="&#x2690;" 
d="M279 600v-600h-146v1421h1421v-821h-1275zM279 1276v-528h1130v528h-1130z" />
    <glyph glyph-name="uni2691" unicode="&#x2691;" 
d="M279 600v-600h-146v1421h1421v-821h-1275z" />
    <glyph glyph-name="uni278A" unicode="&#x278a;" horiz-adv-x="1945" 
d="M973 1571q178 0 337.5 -67t274 -181.5t181.5 -274t67 -337.5t-67 -337.5t-181.5 -274.5t-274 -182t-337.5 -67t-337.5 67t-274 182t-181.5 274.5t-67 337.5t67 337.5t181.5 274t274 181.5t337.5 67zM1073 195v1034h-151l-228 -172v-191l207 156v-827h172z" />
    <glyph glyph-name="uni278B" unicode="&#x278b;" horiz-adv-x="1945" 
d="M666 195h616v157h-397l243 285q46 52 75 91.5t56 102.5t27 123q0 127 -84.5 209t-222.5 82q-149 0 -235.5 -91t-86.5 -243h181q-1 90 35.5 138.5t103.5 48.5q59 0 95 -40t36 -104q0 -101 -94 -206l-348 -396v-157zM973 1571q178 0 337.5 -67t274 -181.5t181.5 -274
t67 -337.5t-67 -337.5t-181.5 -274.5t-274 -182t-337.5 -67t-337.5 67t-274 182t-181.5 274.5t-67 337.5t67 337.5t181.5 274t274 181.5t337.5 67z" />
    <glyph glyph-name="uni278C" unicode="&#x278c;" horiz-adv-x="1945" 
d="M973 1571q178 0 337.5 -67t274 -181.5t181.5 -274t67 -337.5t-67 -337.5t-181.5 -274.5t-274 -182t-337.5 -67t-337.5 67t-274 182t-181.5 274.5t-67 337.5t67 337.5t181.5 274t274 181.5t337.5 67zM971 176q155 0 245.5 86t90.5 219q0 91 -50.5 160t-123.5 94
q64 27 103.5 88t39.5 140q0 119 -81 200.5t-220 81.5q-145 0 -229.5 -85.5t-86.5 -227.5h177q1 81 38 125.5t99 44.5q60 0 95.5 -41t35.5 -109q0 -73 -44 -116t-130 -43h-25v-146h33q186 0 186 -153q0 -80 -42 -128.5t-111 -48.5q-71 0 -111.5 46t-42.5 124h-182
q0 -142 91.5 -226.5t244.5 -84.5z" />
    <glyph glyph-name="uni278D" unicode="&#x278d;" horiz-adv-x="1945" 
d="M973 1571q178 0 337.5 -67t274 -181.5t181.5 -274t67 -337.5t-67 -337.5t-181.5 -274.5t-274 -182t-337.5 -67t-337.5 67t-274 182t-181.5 274.5t-67 337.5t67 337.5t181.5 274t274 181.5t337.5 67zM989 195h170v221h113v147h-113v666h-205l-415 -660v-153h450v-221z
M989 1016v-453h-282z" />
    <glyph glyph-name="uni278E" unicode="&#x278e;" horiz-adv-x="1945" 
d="M973 1571q178 0 337.5 -67t274 -181.5t181.5 -274t67 -337.5t-67 -337.5t-181.5 -274.5t-274 -182t-337.5 -67t-337.5 67t-274 182t-181.5 274.5t-67 337.5t67 337.5t181.5 274t274 181.5t337.5 67zM971 176q153 0 242.5 100t89.5 254q0 156 -81.5 250t-203.5 94
q-111 0 -172 -77l24 272h367v160h-518l-49 -611h164q16 54 51.5 86.5t85.5 32.5q70 0 110.5 -57t40.5 -152q0 -97 -42 -154t-115 -57q-64 0 -105 45t-41 127h-182q0 -150 91 -231.5t243 -81.5z" />
    <glyph glyph-name="uni278F" unicode="&#x278f;" horiz-adv-x="1945" 
d="M971 176q135 0 227 93t92 259q0 162 -81.5 253t-200.5 91q-68 0 -126 -36.5t-87 -106.5q1 197 50.5 285t127.5 88q57 0 89.5 -35t35.5 -100h180q-3 121 -88 199.5t-219 78.5q-162 0 -256 -137t-94 -403q0 -261 92.5 -395t257.5 -134zM965 319q-67 0 -107.5 59t-40.5 144
q0 87 40 149t106 62q69 0 109 -59.5t40 -151.5q0 -90 -39 -146.5t-108 -56.5zM973 1571q178 0 337.5 -67t274 -181.5t181.5 -274t67 -337.5t-67 -337.5t-181.5 -274.5t-274 -182t-337.5 -67t-337.5 67t-274 182t-181.5 274.5t-67 337.5t67 337.5t181.5 274t274 181.5
t337.5 67z" />
    <glyph glyph-name="uni2790" unicode="&#x2790;" horiz-adv-x="1945" 
d="M973 1571q178 0 337.5 -67t274 -181.5t181.5 -274t67 -337.5t-67 -337.5t-181.5 -274.5t-274 -182t-337.5 -67t-337.5 67t-274 182t-181.5 274.5t-67 337.5t67 337.5t181.5 274t274 181.5t337.5 67zM672 1229v-166h411l-317 -868h184l320 874v160h-598z" />
    <glyph glyph-name="uni2791" unicode="&#x2791;" horiz-adv-x="1945" 
d="M973 1571q178 0 337.5 -67t274 -181.5t181.5 -274t67 -337.5t-67 -337.5t-181.5 -274.5t-274 -182t-337.5 -67t-337.5 67t-274 182t-181.5 274.5t-67 337.5t67 337.5t181.5 274t274 181.5t337.5 67zM981 319q-74 0 -117 47t-43 123q0 74 43.5 122t116.5 48
q75 0 118.5 -48t43.5 -122q0 -76 -43.5 -123t-118.5 -47zM981 797q-63 0 -101 42.5t-38 110.5q0 70 38 112t101 42q65 0 103 -42t38 -112q0 -68 -38.5 -110.5t-102.5 -42.5zM981 176q159 0 250.5 85t91.5 216q0 89 -47.5 160.5t-122.5 97.5q65 30 101 91.5t36 136.5
q0 122 -84 202t-225 80q-140 0 -224.5 -80.5t-84.5 -201.5q0 -74 37.5 -135.5t101.5 -92.5q-74 -27 -122 -98.5t-48 -159.5q0 -131 90.5 -216t249.5 -85z" />
    <glyph glyph-name="uni2792" unicode="&#x2792;" horiz-adv-x="1945" 
d="M975 1245q-135 0 -227.5 -93t-92.5 -259q0 -161 82 -252.5t201 -91.5q68 0 126 36.5t87 106.5q-1 -197 -50.5 -285t-127.5 -88q-57 0 -89.5 35.5t-35.5 100.5h-180q3 -121 88 -200t219 -79q162 0 256 137.5t94 403.5q0 261 -92.5 394.5t-257.5 133.5zM981 1102
q67 0 107 -59t40 -144q0 -87 -39.5 -149t-105.5 -62q-69 0 -109 59.5t-40 151.5q0 90 39 146.5t108 56.5zM973 1571q178 0 337.5 -67t274 -181.5t181.5 -274t67 -337.5t-67 -337.5t-181.5 -274.5t-274 -182t-337.5 -67t-337.5 67t-274 182t-181.5 274.5t-67 337.5t67 337.5
t181.5 274t274 181.5t337.5 67z" />
    <glyph glyph-name="uni2793" unicode="&#x2793;" horiz-adv-x="1945" 
d="M973 1571q178 0 337.5 -67t274 -181.5t181.5 -274t67 -337.5t-67 -337.5t-181.5 -274.5t-274 -182t-337.5 -67t-337.5 67t-274 182t-181.5 274.5t-67 337.5t67 337.5t181.5 274t274 181.5t337.5 67zM1145 176q309 0 309 535q0 534 -309 534t-309 -534q0 -535 309 -535z
M1145 328q-74 0 -104.5 87t-30.5 296t30.5 296t104.5 87q73 0 104 -88t31 -295t-31 -295t-104 -88zM575 1225v-1030h168v1030h-168z" />
    <glyph glyph-name="uni29B6" unicode="&#x29b6;" 
d="M1577 711q0 -152 -57 -288t-154.5 -234t-233.5 -155t-288 -57t-288 57t-233.5 155t-154.5 234t-57 288t57 288t154.5 233.5t233.5 154.5t288 57t288 -57t233.5 -154.5t154.5 -233.5t57 -288zM1432 711q0 228 -146 392t-368 189v-1165q222 26 368 190.5t146 393.5z
M256 711q0 -229 146 -393.5t368 -190.5v1165q-146 -17 -263.5 -96.5t-184 -206.5t-66.5 -278z" />
    <glyph glyph-name="uni2B12" unicode="&#x2b12;" 
d="M1554 1421v-1421h-1421v1421h1421zM279 145h1130v566h-1130v-566z" />
    <glyph glyph-name="uni2B13" unicode="&#x2b13;" 
d="M1554 1421v-1421h-1421v1421h1421zM1409 1276h-1130v-565h1130v565z" />
    <glyph glyph-name="uni2B14" unicode="&#x2b14;" 
d="M1554 1421v-1421h-1421v1421h1421zM279 1276v-1131h1130z" />
    <glyph glyph-name="uni2B15" unicode="&#x2b15;" 
d="M133 0v1421h1421v-1421h-1421zM1409 145v1131h-1130z" />
    <glyph glyph-name="uni2B16" unicode="&#x2b16;" 
d="M846 -29l-740 740l740 739l739 -739zM1376 711l-530 534v-1069z" />
    <glyph glyph-name="uni2B17" unicode="&#x2b17;" 
d="M1585 711l-739 -740l-740 740l740 739zM846 1245l-533 -534l533 -535v1069z" />
    <glyph glyph-name="uni2B18" unicode="&#x2b18;" 
d="M1585 711l-739 -740l-740 740l740 739zM846 1243l-535 -532h1069z" />
    <glyph glyph-name="uni2B19" unicode="&#x2b19;" 
d="M846 1450l739 -739l-739 -740l-740 740zM311 711l535 -533l534 533h-1069z" />
    <glyph glyph-name="uni2B2C" unicode="&#x2b2c;" 
d="M844 258q-203 0 -371.5 60t-265 164.5t-96.5 230.5t96.5 230.5t265 164t371.5 59.5t371.5 -59.5t265 -164t96.5 -230.5t-96.5 -230.5t-265 -164.5t-371.5 -60z" />
    <glyph glyph-name="uni2B2D" unicode="&#x2b2d;" 
d="M258 713q0 -88 76.5 -161.5t211.5 -116t298 -42.5t298 42.5t211.5 116t76.5 161.5t-76.5 161t-211.5 115.5t-298 42.5t-298 -42.5t-211.5 -115.5t-76.5 -161zM1577 713q0 -126 -96.5 -230.5t-265 -164.5t-371.5 -60t-371.5 60t-265 164.5t-96.5 230.5t96.5 230.5t265 164
t371.5 59.5t371.5 -59.5t265 -164t96.5 -230.5z" />
    <glyph glyph-name="uni2B2E" unicode="&#x2b2e;" 
d="M1298 713q0 -203 -59.5 -371.5t-164 -265t-230.5 -96.5t-230.5 96.5t-164.5 265t-60 371.5t60 371.5t164.5 265t230.5 96.5t230.5 -96.5t164 -265t59.5 -371.5z" />
    <glyph glyph-name="uni2B2F" unicode="&#x2b2f;" 
d="M844 127q133 0 223 168.5t90 417.5t-90 417t-223 168q-88 0 -160 -76.5t-113 -210.5t-41 -298q0 -249 90.5 -417.5t223.5 -168.5zM844 1446q126 0 230.5 -96.5t164 -265t59.5 -371.5t-59.5 -371.5t-164 -265t-230.5 -96.5t-230.5 96.5t-164.5 265t-60 371.5t60 371.5
t164.5 265t230.5 96.5z" />
    <glyph glyph-name="commaaccent" unicode="&#xf6c3;" horiz-adv-x="417" 
d="M215 -92l-33 -195q-19 -98 -83 -145t-177 -47l17 92q57 0 88 22t41 74l2 8h-95l33 191h207z" />
    <glyph glyph-name="Jacute" horiz-adv-x="1071" 
d="M1096 1815h219l-252 -291h-152zM63 551h197q-22 -107 -22 -166q0 -108 51 -167.5t147 -59.5q114 0 189 85t104 251l164 927h201l-164 -925q-91 -519 -502 -519q-98 0 -173.5 31t-122 85.5t-70 125.5t-23.5 156q0 81 24 176z" />
    <glyph glyph-name="i.trk" horiz-adv-x="466" 
d="M459 1188h-219l34 203h222zM238 0h-191l178 1010h189z" />
    <glyph glyph-name="jacute" horiz-adv-x="466" 
d="M-111 -371q-67 0 -112 11l28 163q38 -6 70 -6q134 0 164 176l184 1037h189l-189 -1076q-54 -305 -334 -305zM436 1421h219l-252 -291h-151z" />
    <glyph glyph-name="ringacute" horiz-adv-x="557" 
d="M418 1106q-92 0 -155.5 62t-63.5 153q0 79 69 172l172 227h213l-219 -188q88 -4 146.5 -65.5t58.5 -145.5q0 -90 -65 -152.5t-156 -62.5zM311 1321q0 -49 30.5 -81t76.5 -32t77 32t31 81t-31 82t-77 33t-76.5 -33t-30.5 -82z" />
    <glyph glyph-name="commatop" horiz-adv-x="417" 
d="M199 1133l34 192q19 100 83 147.5t178 47.5l-19 -95q-56 0 -86.5 -22t-42.5 -72l-2 -10h96l-34 -188h-207z" />
    <glyph glyph-name="caron.slovak" horiz-adv-x="423" 
d="M338 1421h203l-213 -362h-131z" />
    <glyph glyph-name="parenleft.subs" horiz-adv-x="436" 
d="M170 51q0 -189 76 -338h-133q-41 69 -65.5 160.5t-24.5 177.5q0 323 229 555h151q-233 -251 -233 -555z" />
    <glyph glyph-name="parenright.subs" horiz-adv-x="436" 
d="M152 268q0 195 -76 338h133q41 -69 65.5 -160.5t24.5 -177.5q0 -323 -229 -555h-152q234 248 234 555z" />
    <glyph glyph-name="zero.dnom" horiz-adv-x="661" 
d="M262 109q52 0 93 64.5t61 155.5t20 183q0 76 -21 110.5t-63 34.5q-52 0 -93.5 -64.5t-62 -155t-20.5 -181.5q0 -147 86 -147zM258 -12q-105 0 -166 71t-61 199q0 68 11 138t36 139.5t61.5 123.5t92 87.5t122.5 33.5q106 0 168 -71.5t62 -198.5q0 -87 -18.5 -174
t-55.5 -167.5t-102.5 -130.5t-149.5 -50z" />
    <glyph glyph-name="one.dnom" horiz-adv-x="503" 
d="M299 0h-147l104 596l-172 -117l29 162l190 127h131z" />
    <glyph glyph-name="two.dnom" horiz-adv-x="604" 
d="M451 0h-463l20 127l303 289q49 49 74 86.5t25 77.5q0 36 -21.5 56.5t-58.5 20.5q-45 0 -75.5 -34t-39.5 -97h-143q12 119 85.5 186.5t182.5 67.5q96 0 153.5 -51.5t57.5 -142.5q0 -125 -137 -252l-219 -205h278z" />
    <glyph glyph-name="three.dnom" horiz-adv-x="630" 
d="M248 -12q-119 0 -181 64.5t-59 168.5h148q-5 -57 20 -88t76 -31q50 0 82.5 36t32.5 93q0 50 -28 76.5t-75 26.5h-35l23 119h33q55 0 92 34t37 88q0 42 -22.5 65.5t-59.5 23.5q-44 0 -76 -31.5t-39 -85.5h-137q12 106 82.5 169.5t171.5 63.5q99 0 158 -52.5t59 -143.5
q0 -63 -36 -113.5t-101 -73.5q43 -16 71.5 -61t28.5 -103q0 -105 -73.5 -175t-192.5 -70z" />
    <glyph glyph-name="four.dnom" horiz-adv-x="645" 
d="M424 0h-141l30 160h-323l22 125l379 483h168l-84 -489h76l-23 -119h-75zM334 279l53 309l-242 -309h189z" />
    <glyph glyph-name="five.dnom" horiz-adv-x="626" 
d="M244 -12q-118 0 -178 63t-54 170h144q-3 -119 90 -119q56 0 92.5 54.5t36.5 128.5q0 51 -22.5 78.5t-59.5 27.5q-34 0 -62.5 -22t-46.5 -60h-133l115 459h395l-24 -127h-269l-49 -182q50 47 123 47q76 0 128 -56t52 -159q0 -131 -77.5 -217t-200.5 -86z" />
    <glyph glyph-name="six.dnom" horiz-adv-x="636" 
d="M264 -12q-229 0 -229 272q0 133 38 250t114.5 193.5t174.5 76.5q107 0 161.5 -55t54.5 -156h-144q0 44 -19.5 70.5t-54.5 26.5q-50 0 -94 -59.5t-69 -178.5q60 78 155 78q74 0 128.5 -54.5t54.5 -156.5q0 -124 -77.5 -215.5t-193.5 -91.5zM258 102q57 0 93 59.5t36 129.5
q0 44 -21.5 74t-60.5 30q-55 0 -92 -60t-37 -128q0 -45 22 -75t60 -30z" />
    <glyph glyph-name="seven.dnom" horiz-adv-x="538" 
d="M180 0h-151l331 633h-294l24 135h451l-25 -129z" />
    <glyph glyph-name="eight.dnom" horiz-adv-x="653" 
d="M256 -12q-110 0 -175 59t-65 150q0 69 42 129t114 84q-34 22 -52 61t-18 82q0 96 68.5 161.5t179.5 65.5q95 0 156 -53t61 -143q0 -61 -34 -112t-95 -77q42 -19 68 -63.5t26 -100.5q0 -101 -75 -172t-201 -71zM260 100q51 0 87 42t36 102q0 44 -24.5 71t-69.5 27
q-53 0 -89 -40.5t-36 -100.5q0 -44 25.5 -72.5t70.5 -28.5zM322 449q46 0 77 37t31 89q0 40 -23.5 65.5t-60.5 25.5q-45 0 -75.5 -38.5t-30.5 -90.5q0 -40 22 -64t60 -24z" />
    <glyph glyph-name="nine.dnom" horiz-adv-x="636" 
d="M229 -12q-108 0 -162.5 54.5t-52.5 154.5h144q-2 -43 17.5 -69t55.5 -26q50 0 94.5 59t67.5 177q-51 -76 -151 -76q-77 0 -130 53.5t-53 155.5q0 126 76.5 217.5t192.5 91.5q108 0 168.5 -67.5t60.5 -204.5q0 -133 -38.5 -250t-115 -193.5t-174.5 -76.5zM285 373
q56 0 92.5 58.5t36.5 127.5q0 46 -21.5 76.5t-60.5 30.5q-56 0 -91.5 -60.5t-35.5 -128.5q0 -44 21 -74t59 -30z" />
    <glyph glyph-name="parenleft.dnum" horiz-adv-x="442" 
d="M211 276q0 -188 76 -337h-133q-42 69 -66.5 160t-24.5 177q0 322 230 555h151q-233 -251 -233 -555z" />
    <glyph glyph-name="parenright.dnum" horiz-adv-x="442" 
d="M190 494q0 196 -75 337h133q41 -69 65.5 -160t24.5 -177q0 -323 -229 -555h-152q233 247 233 555z" />
    <glyph glyph-name="backslash.case" horiz-adv-x="854" 
d="M539 -127l-322 1667h166l319 -1667h-163z" />
    <glyph glyph-name="bar.case" horiz-adv-x="565" 
d="M84 -127l293 1667h166l-293 -1667h-166z" />
    <glyph glyph-name="braceleft.case" horiz-adv-x="743" 
d="M559 -127h-119q-125 0 -185 59t-60 158q0 34 31.5 205t31.5 211q0 114 -158 123l29 155q102 8 152 56.5t73 171.5l41 237q29 156 105 223.5t219 67.5h137l-27 -149h-102q-74 0 -111.5 -38.5t-54.5 -138.5l-37 -219q-26 -139 -79 -203.5t-156 -86.5q143 -43 143 -185
q0 -39 -30.5 -205t-30.5 -202q0 -49 29.5 -69.5t93.5 -20.5h92z" />
    <glyph glyph-name="braceright.case" horiz-adv-x="743" 
d="M676 629q-102 -8 -152 -56.5t-73 -171.5l-43 -237q-28 -156 -103.5 -223.5t-218.5 -67.5h-137l26 150h103q74 0 111 37.5t55 138.5l37 219q26 139 78.5 204t154.5 87q-141 43 -141 184q0 39 30.5 205t30.5 202q0 49 -29.5 70t-93.5 21h-94l29 149h119q125 0 185 -59
t60 -158q0 -34 -31.5 -205t-31.5 -211q0 -114 158 -123z" />
    <glyph glyph-name="bracketleft.case" horiz-adv-x="657" 
d="M739 1389h-239l-240 -1364h240l-27 -152h-416l295 1667h416z" />
    <glyph glyph-name="bracketright.case" horiz-adv-x="657" 
d="M248 1540h416l-295 -1667h-414l27 152h239l240 1366h-240z" />
    <glyph glyph-name="emdash.case" horiz-adv-x="1933" 
d="M94 618l27 150h1773l-26 -150h-1774z" />
    <glyph glyph-name="endash.case" horiz-adv-x="970" 
d="M94 618l27 150h811l-27 -150h-811z" />
    <glyph glyph-name="guillemotleft.case" horiz-adv-x="985" 
d="M604 1087l-278 -421l129 -398h-158l-164 410l299 409h172zM975 1087l-279 -421l131 -398h-157l-166 410l303 409h168z" />
    <glyph glyph-name="guillemotright.case" horiz-adv-x="985" 
d="M621 268h-170l276 422l-127 397h156l166 -409zM248 268h-170l276 422l-127 397h156l166 -409z" />
    <glyph glyph-name="guilsinglleft.case" horiz-adv-x="614" 
d="M604 1087l-278 -421l129 -398h-158l-164 410l299 409h172z" />
    <glyph glyph-name="guilsinglright.case" horiz-adv-x="612" 
d="M248 268h-170l276 422l-127 397h156l166 -409z" />
    <glyph glyph-name="hyphen.case" horiz-adv-x="729" 
d="M127 610l31 174h504l-31 -174h-504z" />
    <glyph glyph-name="parenleft.case" horiz-adv-x="620" 
d="M315 502q0 -326 148 -629h-166q-164 299 -164 629q0 583 432 1038h191q-441 -489 -441 -1038z" />
    <glyph glyph-name="parenright.case" horiz-adv-x="620" 
d="M369 911q0 326 -148 629h166q164 -299 164 -629q0 -584 -434 -1038h-191q443 488 443 1038z" />
    <glyph glyph-name="slash.case" horiz-adv-x="854" 
d="M979 1540l-852 -1667h-184l852 1667h184z" />
    <glyph glyph-name="questiondown.case" horiz-adv-x="876" 
d="M446 879l9 43h159l-4 -48q-9 -66 -36.5 -121t-64 -92t-79 -69.5t-83 -62t-73.5 -60t-53 -72t-20 -90.5q0 -72 48 -117t132 -45q109 0 168.5 69.5t73.5 191.5h192q-22 -202 -138.5 -315.5t-299.5 -113.5q-169 0 -271 87t-102 235q0 67 22.5 124.5t59 98.5t81 77.5t90.5 68
t85 62.5t68 69t36 80zM741 1421l-43 -243h-237l43 243h237z" />
    <glyph glyph-name="exclamdown.case" horiz-adv-x="501" 
d="M254 922h125l-78 -654l-47 -268h-201l47 268zM522 1421l-43 -243h-239l43 243h239z" />
    <glyph glyph-name="zero.tf" horiz-adv-x="1228" 
d="M348 422l570 760q-51 108 -170 108q-75 0 -141 -54t-112 -141t-80 -195t-51 -216.5t-18 -206.5q0 -39 2 -55zM545 -23q-167 0 -271 121t-104 353q0 125 20 256t66 264.5t112.5 237.5t168 169.5t223.5 65.5q167 0 271 -120t104 -353q0 -87 -10 -180t-33 -190.5
t-55.5 -187.5t-81.5 -170t-107.5 -138.5t-136.5 -93t-166 -34.5zM557 131q74 0 139.5 54t111.5 140.5t80 194t50.5 215t17.5 203.5q0 13 -1 35t-1 33l-569 -764q50 -111 172 -111z" />
    <glyph glyph-name="one.tf" horiz-adv-x="1228" 
d="M121 0l31 182h346l178 1004l-352 -225l43 227l362 233h180l-219 -1239h264l-30 -182h-803z" />
    <glyph glyph-name="two.tf" horiz-adv-x="1228" 
d="M913 0h-778l33 180l549 565q44 46 73.5 81t60.5 81t46.5 94.5t15.5 98.5q0 80 -46 127t-124 47q-103 0 -172 -75t-82 -206h-192q13 206 139.5 328.5t319.5 122.5q162 0 257 -91.5t95 -238.5q0 -233 -264 -493l-426 -443h528z" />
    <glyph glyph-name="three.tf" horiz-adv-x="1228" 
d="M547 -23q-196 0 -300.5 118t-90.5 308h194q-11 -120 43 -191t168 -71q112 0 187 80.5t75 210.5q0 99 -55 158t-162 59h-55l31 168h51q118 0 195 76.5t77 193.5q0 91 -46.5 141t-125.5 50q-99 0 -165 -69t-83 -191h-194q19 191 142 308.5t312 117.5q163 0 258 -93t95 -249
q0 -119 -64.5 -218.5t-177.5 -148.5q66 -30 117 -113t51 -186q0 -198 -134 -328.5t-343 -130.5z" />
    <glyph glyph-name="four.tf" horiz-adv-x="1228" 
d="M842 0h-191l54 317h-599l31 172l721 932h234l-164 -936h149l-30 -168h-150zM735 485l119 680l-522 -680h403z" />
    <glyph glyph-name="five.tf" horiz-adv-x="1228" 
d="M547 -23q-188 0 -299 116.5t-94 309.5h194q-12 -124 42 -193t159 -69q65 0 120.5 36t91.5 94.5t56.5 129.5t20.5 142q0 106 -46 169.5t-130 63.5q-73 0 -137 -50.5t-103 -129.5h-186l213 825h665l-33 -178h-497l-109 -409q41 45 107 74.5t135 29.5q142 0 231.5 -101
t89.5 -278q0 -107 -33.5 -210.5t-94.5 -186.5t-156 -134t-207 -51z" />
    <glyph glyph-name="six.tf" horiz-adv-x="1228" 
d="M565 -23q-174 0 -274.5 120t-100.5 358q0 177 38.5 350.5t109 317t184 232.5t250.5 89q168 0 265 -101t93 -272h-192q2 93 -44 151t-126 58q-110 0 -208 -132t-152 -400q55 96 136.5 143t174.5 47q137 0 229 -98.5t92 -274.5q0 -107 -32 -209t-90.5 -185.5t-150.5 -136.5
t-202 -57zM563 141q83 0 149 66.5t98 157t32 178.5q0 102 -46 167.5t-130 65.5q-83 0 -149 -66t-98 -156.5t-32 -180.5q0 -100 46 -166t130 -66z" />
    <glyph glyph-name="seven.tf" horiz-adv-x="1228" 
d="M326 1235l32 186h818l-33 -176l-674 -1245h-205l668 1235h-606z" />
    <glyph glyph-name="eight.tf" horiz-adv-x="1228" 
d="M543 -23q-185 0 -295.5 104t-110.5 263q0 135 81 250t218 160q-61 43 -96 117t-35 153q0 182 123.5 301t314.5 119q155 0 257 -92t102 -248q0 -120 -63 -219.5t-177 -149.5q73 -36 119.5 -119t46.5 -186q0 -92 -35.5 -175t-98 -144.5t-154 -97.5t-197.5 -36zM555 137
q111 0 192.5 84.5t81.5 218.5q0 96 -56.5 156.5t-160.5 60.5q-111 0 -192.5 -84.5t-81.5 -220.5q0 -96 56.5 -155.5t160.5 -59.5zM678 815q98 0 164.5 80t66.5 192q0 90 -49 143.5t-129 53.5q-99 -1 -166 -81.5t-67 -192.5q0 -90 49 -142.5t131 -52.5z" />
    <glyph glyph-name="nine.tf" horiz-adv-x="1228" 
d="M725 1444q175 0 275 -119t100 -358q0 -177 -38.5 -350.5t-109 -317.5t-184 -233t-250.5 -89q-169 0 -265 100.5t-93 272.5h192q0 -93 45 -151t125 -58q111 0 209 132t152 401q-55 -96 -137.5 -143.5t-176.5 -47.5q-136 0 -227.5 98.5t-91.5 274.5q0 107 31.5 209
t90 185.5t150.5 136.5t203 57zM727 1280q-84 0 -150.5 -66.5t-98.5 -156.5t-32 -178q0 -101 47 -167.5t132 -66.5q63 0 117 38.5t88.5 99t53.5 130.5t19 136q0 101 -45.5 166t-130.5 65z" />
    <glyph glyph-name="cent.tf" horiz-adv-x="1228" 
d="M604 0h-143l35 197q-118 32 -191.5 133t-73.5 252q0 116 30 225.5t85 199t141.5 149.5t192.5 73l37 192h141l-35 -198q125 -29 202 -128.5t65 -234.5h-195q9 69 -16.5 126t-83.5 79l-129 -717q61 17 108 72t70 137h192q-37 -162 -144 -261.5t-255 -111.5zM424 584
q0 -174 100 -224l127 701q-72 -27 -125.5 -105.5t-77.5 -175t-24 -196.5z" />
    <glyph glyph-name="dollar.tf" horiz-adv-x="1228" 
d="M567 -217h-139l39 223q-88 20 -154 65t-102.5 105t-54 124.5t-17.5 133.5h191q0 -96 41.5 -166t124.5 -100l88 494l-49 22q-124 59 -187 144t-63 206q0 167 113 280t307 116h12l39 208h139l-41 -227q100 -28 169 -94t98.5 -144t29.5 -165h-190q0 80 -36 143t-100 94
l-80 -461l60 -26q136 -63 198 -144.5t62 -220.5q0 -76 -28.5 -147t-81.5 -128.5t-140 -92t-194 -35.5h-17zM887 379q0 70 -34.5 117t-104.5 84l-37 18l-80 -453q130 4 193 70t63 164zM463 1044q0 -54 35.5 -105.5t95.5 -82.5l20 -10l76 426q-116 -7 -171.5 -70.5
t-55.5 -157.5z" />
    <glyph glyph-name="yen.tf" horiz-adv-x="1228" 
d="M227 535l25 147h231l-241 739h202l213 -682l451 682h221l-504 -739h232l-25 -147h-305l-27 -152h306l-27 -147h-305l-41 -236h-197l41 236h-301l25 147h301l26 152h-301z" />
    <glyph glyph-name="sterling.tf" horiz-adv-x="1228" 
d="M188 551l25 147h139q-2 19 -12 89.5t-14 114t-4 85.5q0 129 46 231t140 164t223 62q198 0 293.5 -120t95.5 -335h-192q0 287 -197 287q-99 0 -157 -78t-58 -211q0 -42 4.5 -90.5t11 -107t9.5 -91.5h333l-24 -147h-299v-8q0 -227 -172 -363h582l-33 -180h-838l33 180
q111 58 176 152.5t66 208.5v10h-177z" />
    <glyph glyph-name="Euro.tf" horiz-adv-x="1228" 
d="M76 489l24 142h115q5 60 23 157h-111l25 140h124q35 109 86 200.5t116.5 163t150 112t178.5 40.5q196 0 289.5 -120.5t93.5 -342.5h-195q0 295 -192 295q-108 0 -191 -95.5t-137 -252.5h334l-25 -140h-348q-16 -69 -26 -157h350l-27 -142h-330q1 -170 55.5 -257
t153.5 -87q101 0 175.5 73t113.5 222h195q-52 -226 -180 -344.5t-308 -118.5q-192 0 -294 133.5t-105 378.5h-133z" />
    <glyph glyph-name="a.ord" horiz-adv-x="677" 
d="M643 655h-137l16 101q-39 -58 -94.5 -85.5t-112.5 -27.5q-84 0 -135 46t-51 124q0 93 63.5 151.5t169.5 79.5l211 37l5 29q4 24 4 39q0 43 -27 66.5t-72 23.5q-110 0 -133 -111h-147q10 108 87.5 163t194.5 55q108 0 173 -47.5t65 -143.5q0 -53 -8 -92zM365 752
q61 0 114.5 48.5t69.5 139.5l6 43l-158 -31q-52 -9 -86.5 -42t-34.5 -81q0 -36 23.5 -56.5t65.5 -20.5z" />
    <glyph glyph-name="b.ord" horiz-adv-x="727" 
d="M444 758q61 0 106 52.5t65 123t20 143.5t-29.5 114.5t-83.5 41.5q-47 0 -84.5 -30.5t-60 -78.5t-34 -102.5t-11.5 -108.5q0 -73 28.5 -114t83.5 -41zM463 643q-60 0 -104.5 30t-65.5 81l-19 -99h-139l168 953h148l-62 -357q62 95 176 95q95 0 158 -74.5t63 -194.5
q0 -79 -21 -154.5t-59.5 -139t-102 -102t-140.5 -38.5z" />
    <glyph glyph-name="c.ord" horiz-adv-x="681" 
d="M406 643q-107 0 -180.5 74t-73.5 194q0 115 39.5 212.5t121.5 160t191 62.5q112 0 182.5 -72.5t61.5 -183.5h-150q6 62 -21.5 102.5t-82.5 40.5q-62 0 -107 -52.5t-64.5 -123.5t-19.5 -144t29.5 -114t83.5 -41q50 0 90 37.5t57 103.5h152q-26 -120 -109 -188t-200 -68z
" />
    <glyph glyph-name="d.ord" horiz-adv-x="727" 
d="M416 758q62 0 107.5 52.5t65 123t19.5 143.5t-29.5 114.5t-84.5 41.5q-61 0 -106 -52.5t-65 -123.5t-20 -144q0 -72 30.5 -113.5t82.5 -41.5zM375 643q-94 0 -157.5 71.5t-63.5 196.5q0 78 20.5 154t59.5 139.5t101.5 102.5t139.5 39q56 0 99.5 -27.5t64.5 -73.5l63 363
h150l-168 -953h-139l16 93q-74 -105 -186 -105z" />
    <glyph glyph-name="e.ord" horiz-adv-x="694" 
d="M610 1100q0 66 -31.5 101.5t-82.5 35.5q-56 0 -101.5 -47.5t-70.5 -130.5h282q4 24 4 41zM410 643q-109 0 -181.5 74.5t-72.5 200.5q0 113 40.5 209t123 157.5t190.5 61.5q109 0 177.5 -68.5t68.5 -183.5q0 -48 -19 -140h-434q-2 -16 -2 -49q0 -67 31 -108t86 -41
q48 0 85 30.5t56 85.5h154q-31 -112 -111.5 -170.5t-191.5 -58.5z" />
    <glyph glyph-name="f.ord" horiz-adv-x="452" 
d="M561 1212h-147l-97 -557h-151l98 557h-76l23 121h76l12 68q38 219 236 219q59 0 100 -10l-25 -121q-30 6 -57 6q-47 0 -73.5 -26t-35.5 -85l-8 -51h148z" />
    <glyph glyph-name="g.ord" horiz-adv-x="727" 
d="M426 791q46 0 83 29t58 74.5t32 94t11 94.5q0 68 -29 110t-83 42q-45 0 -81.5 -29.5t-58 -75t-32.5 -94.5t-11 -94q0 -70 28.5 -110.5t82.5 -40.5zM377 397q-132 0 -199.5 63t-64.5 163h155q-1 -57 28 -87t83 -30q67 0 109.5 40t58.5 138l12 86q-80 -96 -178 -96
q-94 0 -157.5 73.5t-63.5 190.5q0 75 21 147t59.5 130.5t99 94.5t133.5 36q59 0 107 -30.5t69 -78.5l17 96h139l-111 -633q-57 -303 -317 -303z" />
    <glyph glyph-name="h.ord" horiz-adv-x="702" 
d="M666 655h-150l72 404q8 50 8 69q0 97 -86 97q-60 0 -102.5 -52.5t-55.5 -130.5l-69 -387h-148l168 953h148l-64 -365q64 103 184 103q83 0 128.5 -48t45.5 -135q0 -50 -8 -104z" />
    <glyph glyph-name="i.ord" horiz-adv-x="325" 
d="M430 1446h-170l27 145h170zM281 655h-146l117 678h149z" />
    <glyph glyph-name="j.ord" horiz-adv-x="325" 
d="M432 1446h-170l27 145h170zM41 406q-57 0 -82 6l23 125q18 -5 49 -5q83 0 104 117l119 684h149l-129 -719q-20 -109 -78 -158.5t-155 -49.5z" />
    <glyph glyph-name="k.ord" horiz-adv-x="669" 
d="M285 655h-150l168 953h148l-95 -535l283 260h180l-278 -258l159 -420h-157l-123 316l-94 -90z" />
    <glyph glyph-name="l.ord" horiz-adv-x="325" 
d="M283 655h-148l168 953h146z" />
    <glyph glyph-name="m.ord" horiz-adv-x="1052" 
d="M1014 655h-148l72 416q8 40 8 64q0 90 -80 90q-49 0 -91.5 -46t-55.5 -122l-70 -402h-149l71 410q9 56 9 70q0 90 -78 90q-53 0 -95 -50.5t-57 -132.5l-67 -387h-148l117 678h141l-18 -96q73 109 186 109q61 0 102.5 -29t53.5 -86q87 115 205 115q78 0 126 -45t48 -138
q0 -43 -11 -100z" />
    <glyph glyph-name="n.ord" horiz-adv-x="702" 
d="M666 655h-150l70 404q8 50 8 69q0 97 -86 97q-60 0 -102.5 -52.5t-55.5 -130.5l-67 -387h-148l117 678h141l-18 -96q73 109 194 109q83 0 128.5 -48t45.5 -135q0 -50 -8 -104z" />
    <glyph glyph-name="o.ord" horiz-adv-x="700" 
d="M406 643q-107 0 -179.5 74t-72.5 194q0 85 23.5 163t66.5 139t111 97t151 36q108 0 180 -73t72 -196q0 -115 -39 -212t-121 -159.5t-192 -62.5zM416 758q62 0 107.5 52.5t65 123t19.5 143.5t-29.5 114.5t-84.5 41.5q-61 0 -106 -52.5t-65 -123.5t-20 -144
q0 -72 30.5 -113.5t82.5 -41.5z" />
    <glyph glyph-name="p.ord" horiz-adv-x="727" 
d="M446 758q61 0 106 52.5t65 123t20 143.5t-29.5 114.5t-83.5 41.5q-62 0 -107.5 -52.5t-65 -123.5t-19.5 -144t29.5 -114t84.5 -41zM461 643q-51 0 -96 28t-64 72l-57 -327h-150l162 917h139l-16 -90q75 103 188 103q93 0 157 -72t64 -197q0 -78 -20.5 -153.5t-59.5 -139
t-103.5 -102.5t-143.5 -39z" />
    <glyph glyph-name="q.ord" horiz-adv-x="727" 
d="M416 758q62 0 107.5 52.5t65 123t19.5 143.5t-29.5 114.5t-84.5 41.5q-61 0 -106 -52.5t-65 -123.5t-20 -144q0 -72 30.5 -113.5t82.5 -41.5zM375 643q-97 0 -159 74.5t-62 195.5q0 79 20.5 154.5t59.5 138.5t101.5 101.5t139.5 38.5q59 0 103.5 -29t66.5 -80l19 96h139
l-160 -917h-149l57 323q-28 -45 -74 -70.5t-102 -25.5z" />
    <glyph glyph-name="r.ord" horiz-adv-x="473" 
d="M285 655h-150l119 678h141l-24 -137q73 150 211 150h26l-28 -156q-18 2 -52 2q-68 0 -117.5 -51.5t-66.5 -141.5z" />
    <glyph glyph-name="s.ord" horiz-adv-x="645" 
d="M393 643q-124 0 -195.5 58t-70.5 169h152q-3 -122 116 -122q54 0 88.5 25t34.5 67q0 61 -74 86l-84 24q-72 22 -112.5 70t-40.5 115q0 96 73.5 153.5t180.5 57.5q116 0 185.5 -56t68.5 -157h-146q0 55 -30 81.5t-80 26.5q-43 0 -75 -23t-32 -63q0 -66 74 -86l84 -29
q152 -48 152 -180q0 -95 -74.5 -156t-194.5 -61z" />
    <glyph glyph-name="t.ord" horiz-adv-x="466" 
d="M367 645q-77 0 -124.5 40t-47.5 110q0 36 12 102l55 313h-80l23 123h80l32 174h146l-31 -174h154l-25 -123h-149l-58 -313q-6 -30 -6 -57q0 -64 70 -64q30 0 65 6l-20 -125q-49 -12 -96 -12z" />
    <glyph glyph-name="u.ord" horiz-adv-x="694" 
d="M649 655h-139l16 97q-75 -109 -190 -109q-82 0 -126 48t-44 136q0 57 10 105l70 401h149l-69 -403q-11 -63 -11 -70q0 -96 82 -96q58 0 99.5 52.5t54.5 129.5l70 387h147z" />
    <glyph glyph-name="v.ord" horiz-adv-x="647" 
d="M463 655h-182l-91 678h150l53 -528l244 528h154z" />
    <glyph glyph-name="w.ord" horiz-adv-x="956" 
d="M807 655h-170l-23 504l-200 -504h-168l-51 678h145l25 -514l202 514h148l20 -514l209 514h152z" />
    <glyph glyph-name="x.ord" horiz-adv-x="645" 
d="M666 655h-156l-98 234l-174 -234h-166l268 346l-150 332h162l92 -221l164 221h172l-266 -342z" />
    <glyph glyph-name="y.ord" horiz-adv-x="643" 
d="M170 406q-53 0 -92 8l22 125q35 -7 60 -7q42 0 70 18t49 60l8 21l-99 702h150l53 -530l244 530h153l-364 -739q-53 -105 -112.5 -146.5t-141.5 -41.5z" />
    <glyph glyph-name="z.ord" horiz-adv-x="604" 
d="M594 655h-496l21 109l379 446h-287l25 123h473l-17 -98l-387 -457h309z" />
    </font>
</defs>
</svg>
