<svg xmlns="http://www.w3.org/2000/svg" xmlns:xlink="http://www.w3.org/1999/xlink" width="581" height="640" viewBox="0 0 581 640"><defs><rect id="usecase-start-a" width="581" height="640" x="0" y="0"/></defs><g fill="none" fill-rule="evenodd"><mask id="usecase-start-b" fill="#fff"><use xlink:href="#usecase-start-a"/></mask><g mask="url(#usecase-start-b)"><g transform="translate(104 173.846)"><path fill="#1b2230" d="M464.039 499.031l-177.935-302.19s-5.34-9.589 5.854-18.881L144.316 91.05l-119.36 59.613L228.213 497.93l235.826 1.101z"/><path fill="#1b2230" d="M5.243 98.57c-3.756 2.893-8.547 7.915.06 21.76 4.155 6.682 10.232 16.688 13.83 22.63a46.707 46.707 0 0 0 8.38 10.245c4.394 4.031 10.89 9.353 17.253 12.208 2.336 1.048 11.092 4.674 15.253 3.011 2.036-.814 2.307-4.222 1.474-7.244-2.537-9.199-8.44-25.082-8.44-25.082S25.36 109.393 26.196 109.39c.837-.003-10.927-16.708-20.953-10.821m210.974 58.851l.18.156a6.22 6.22 0 0 0 1.093.72l40.684 21.82a6.97 6.97 0 0 0 1.482.592c2.225.605 8.679 2.077 16.746 1.382 0 0 15.9-.881 15.887-5.066-.011-4.186-6.727-10.86-6.727-10.86l-9.455-9.406a21.348 21.348 0 0 0-8.716-5.264c-3.551-1.101-8.985-2.452-16.822-3.615a7.301 7.301 0 0 0-.414-.048l-28.44-2.63c-6.716-.62-10.53 7.73-5.498 12.219"/><path fill="#704750" d="M60.52 112.643s-5.698-.835-37.678-5.753c0 0-8.253-7.433-13.403-5.12-7.038 3.164-4.161 9.354-4.161 9.354s6.5 17.557 19.095 31.75c0 0 6.234 7.12 16.253-2.111 0 0 11.947 3.181 22.575 7.417l-2.68-35.537z"/><path fill="#A4ABAA" d="M84.978 31.882c8.79-14.61 23.114-26.04 40.1-27.521 19.444-1.696 46.46 4.19 46.46 4.19l1.736 22.338-21.177 3.657s17.84-.045 29.598 14.15c11.756 14.195 36.165 62.669 36.165 62.669s1.69 5.853-3.314 12.563c-3.335 4.472-9.839 9.73-18.633 11.144-3.303.532-22.575 6.751-25.646 10.803l-18.18 32.915s-24.91 39.579-72.072.018c-4.171-3.5-11.662-9.955-17.713-27.67-11.896-34.831-5.434-55.13-.095-70.705 5.697-16.62 13.857-33.736 22.77-48.55"/><path fill="#FF6532" d="M122.63 119.162l42.123-4.132 11.812-17.68-15.523-9.262s-35.181 6.651-38.412 31.074"/><path fill="#704750" d="M195.913 135.072l26.234 13.104s-2.486 8.375 6.731 12.535l31.009 14.977s5.848-4.2 6.666-10.062c.821-5.862.816-7.533-5.89-11.7-6.707-4.167-11.901-7.787-11.901-7.787s-8.54-3.887-11.902-8.9c-3.363-5.011-17.322-24.206-19-25.039l-21.947 22.872zM243.505 5.003s-4.18.847-10.04.865c-5.859.015-11.713 1.706-11.713 1.706l-6.44 2.596s-5.74-.165-10.393-.181c-7.125-.025-33.378-.601-33.378-.601h.002-.003l1.734 20.92c.366-.318 22.003-1.442 27.614-1.751 1.253-.07 3.673-.264 6.184.567 2.515.828 8.892 3.574 8.892 3.574l18.613-20.39a28.032 28.032 0 0 0 8.938-3.96c2.507-1.679-.01-3.345-.01-3.345"/><path fill="#1b2230" d="M214.472 22.825l39.49-21.605s6.011-2.597 9.469 4.271c3.46 6.87 10.377 21.466 10.377 21.466s2.495 3.968-3.46 6.974c-9.275 4.68-43.743 23.252-43.743 23.252L211.917 31.43s-3.455-6.008 2.555-8.605"/><path fill="#704750" d="M167.738 110.862l21.572-32.894 9.161-15.929s5.002-6.708 11.681-12.587l10.85-10.91s3.144-3.238 4.757-3.98c1.645-.756 3.598 1.444 2.979 2.896-1.37 3.214-3.904 6.714-5.023 8.154a4.817 4.817 0 0 0-1.01 2.968l2.525 5.015 14.05-3.472 16.167-8.298s1.585 3.148-.922 4.83c-2.506 1.682-11.718 7.727-11.718 7.727l-10.022 7.561s.154 3.365-5.09 5.872c-4.773 2.286-17.464 9.257-22.474 13.456-5.01 4.197-14.17 20.125-14.17 20.125l-9.99 19.277s-4.202-5.846-13.42-10.005m-18.61-70.248s15.916 4.977 16.805 23.385c0 0 5.704 2.195 5.872 5.005-.168 4.318-4.997 8.384-4.992 10.057.004 1.674-2.984 12.184-10.452 16.877 0 0-2.347 3.413-22.96 6.653l15.727-61.977z"/><path fill="#1b2230" d="M135.519 104.211c9.218-4.506 19.497-13.947 23.64-33.692 0 0 2.473-13.398-6.021-20.662 0 0-.284-13.983-17.034-18.12 0 0-18.804-6.586-37.278.495-11.42 4.376-20.74 14.81-22.546 30.152-1.326 17.747 3.162 54.168 61.358 92.724l27.183-40.228-29.302-10.669z"/><path fill="#FF6532" d="M247.083 27.7l-2.08-3.642 5.666-3.234 2.079 3.642a3.262 3.262 0 0 1-5.665 3.235m-2.024 4.91a3.266 3.266 0 0 1-4.45-1.214l-2.08-3.641 5.666-3.234 2.08 3.641a3.265 3.265 0 0 1-1.216 4.449m6.936-2.887a4.2 4.2 0 0 0 1.563-5.72l-.233-.405 1.215-.694a.466.466 0 1 0-.462-.809l-1.214.693-.923-1.618 1.213-.693a.466.466 0 0 0-.462-.81l-1.214.694-1.154-2.024a.467.467 0 0 0-.81.462l.693 1.214-12.14 6.93-.693-1.212a.464.464 0 1 0-.808.461l1.155 2.023-1.214.693a.467.467 0 0 0 .462.81l1.213-.694.925 1.62-1.214.692a.467.467 0 0 0 .462.81l1.214-.693.23.404a4.192 4.192 0 0 0 7.827-2.269 4.193 4.193 0 0 0 4.37.135"/></g></g></g></svg>
