<svg xmlns="http://www.w3.org/2000/svg" xmlns:xlink="http://www.w3.org/1999/xlink" width="581" height="597" viewBox="0 0 581 597"><defs><rect id="usecase-existing-a" width="581" height="597" x="0" y="0"/></defs><g fill="none" fill-rule="evenodd"><mask id="usecase-existing-b" fill="#fff"><use xlink:href="#usecase-existing-a"/></mask><g mask="url(#usecase-existing-b)"><g transform="translate(-61 49)"><path fill="#1B212F" d="M795.935 546.3l-2.722-4.412c-9.89-16.024-19.67-32.376-29.13-48.19-20.457-34.197-41.61-69.56-64.574-102.76-52.492-75.891-112.66-141.979-179.353-196.611l45.253-4.96c4.528 3.767 8.17 6.795 10.246 8.52.22.182 1.69 1.8 3.06-.127 1.187-1.667 17.02-25.043 21.247-31.285.655-.968.282-1.71-1.078-2.048-13.297-3.3-85.04-21.11-86.854-21.618-.752-.21-1.93.277-.746 1.418.33.32 5.646 4.769 13.134 11.016l-48.382 5.312C393.096 101.32 299.283 57.398 197.072 29.986 130.412 12.109 69.457 2.525 10.724.687L5.388.52l3.265 26.668 3.783.25c2.112.14 4.358.246 6.53.35 3.443.165 7.004.335 10.208.638 84.408 7.969 164.993 26.746 239.519 55.808 66.092 25.776 129.07 60.288 187.617 102.779l-9.89 1.212-33.6 3.688c-71.752-49.03-152.14-85.689-239.286-109.06C113.31 66.7 58.24 58.042 5.178 56.381l-4.82-.151 2.949 24.093 3.417.226c1.909.125 3.937.223 5.9.316 3.111.15 6.328.303 9.223.576 76.258 7.2 149.063 24.164 216.392 50.42 64.584 25.187 125.875 59.609 182.37 102.397l-42.514 6.127a715.94 715.94 0 0 0-67.487-41.572c-90.34-48.949-190.74-78.14-298.413-86.763l-5.052-.405 2.933 23.959 2.996.545c13.789 2.51 27.948 4.732 41.64 6.88 28.86 4.53 58.7 9.212 86.871 16.87 81.05 22.032 155.657 57.405 221.75 105.135a672.121 672.121 0 0 1 19.66 14.764l.022.186-43.491 6.407c-42.164-29.322-87.75-53.629-136.17-72.55C143.006 190.256 81.1 175.627 19.357 170.36l-5.076-.433 2.966 24.225 3.268.35c1.591.168 3.294.307 4.94.44 2.53.206 5.146.418 7.429.748 84.21 12.157 161.911 37.815 230.945 76.263 27.94 15.561 54.778 33.4 80.408 53.413l-42.927 7.667a629.757 629.757 0 0 0-8.244-5.644c-39.143-26.331-82.069-48.067-127.585-64.603-43.028-15.634-89.711-27.103-138.752-34.091l-5.345-.763 2.983 24.361 3.08.489c40.926 6.478 79.92 16.12 115.9 28.658 38.363 13.367 74.606 30.478 107.722 50.858 18.468 11.365 36.3 23.758 53.446 37.083l-48.41 5.934c-65.198-43.993-139.785-73.423-222.027-87.541l-5.482-.94 2.833 23.132a4.23 4.23 0 0 0 .131 2.876c.568 1.412 1.807 2.406 3.4 2.73 79.633 16.243 151.44 46.53 213.426 90.018a524.542 524.542 0 0 1 11.63 8.401c-4.406.629-36.947 5.373-71.172 13.178-2.617.597-5.168 14.359-6.64 16.177-1.987 2.456-4.573-5.749-8.292-4.586-.532.166-1.274 21.59-1.458 21.861l2.03-2.873c1.988 1.285 14.321 33.276 16.527 34.135 3.965 1.543 6.964-5.695 9.006-13.59 2.798-10.82 11.729-18.958 22.77-20.668l76.087-11.783c40.435 36.441 76.122 79.648 106.517 129.049 7.798 12.676 16.317 15.88 26.17 14.673 3.012-.37 6.15-1.15 9.427-2.2l4.907-1.57-2.593-4.454c-40.86-70.203-89.781-128.943-145.7-175.03l-.073-.597 43.723-5.36a607.342 607.342 0 0 1 34.459 34.1c35.337 37.898 67.244 81.824 94.837 130.557l.715 1.264c4.775 8.448 7.657 13.546 12.746 15.727 2.43 1.041 4.998 1.307 8.204.914 3.489-.427 7.73-1.635 13.365-3.472l3.239-1.055-.415-3.382c-.02-.175-.042-.474-.069-.832-.218-2.857-.407-4.232-1.01-5.353-26.71-49.589-57.715-94.637-92.157-133.895a634.91 634.91 0 0 0-75.538-72.942l41.943-5.14c24.046 21.84 46.865 45.742 68.338 71.631 34.047 41.05 65.751 89.372 94.228 143.626l1.33 2.532 30.795-3.775-1.386-4.687c-.213-.724-.406-1.62-.592-2.488-.411-1.92-.8-3.731-1.648-5.203-3.48-6.034-6.97-12.211-10.345-18.184-8.254-14.61-16.79-29.716-25.96-44.146-41.724-65.653-89.953-122.28-143.345-168.309a654.368 654.368 0 0 0-14.908-12.461l40.598-5.786c42.298 37.766 81.277 81.632 116.37 131.046 18.038 25.399 34.892 53.153 51.191 79.994 8.673 14.282 17.64 29.049 26.715 43.35l1.401 2.206 30.33-3.717-2.555-5.22c-1.222-2.497-2.34-5.138-3.421-7.692-1.673-3.953-3.253-7.685-5.16-10.825-5.86-9.658-11.725-19.555-17.397-29.126-13.96-23.555-28.396-47.912-44.073-70.94-34.562-50.768-73.633-96.436-116.127-135.737a718.507 718.507 0 0 0-40.714-34.909l40.676-5.35c82.43 70.528 151.383 160.385 210.157 273.72l.285.55c5.225 10.08 8.104 15.63 13.268 18.348 3.803 2.001 8.106 2.114 14.536 1.327 2.438-.299 5.183-.727 8.32-1.232 1.408-.226 2.398-.91 3.356-1.57.9-.622 2.134-1.473 4.487-2.551l4.256-1.95-2.46-3.986c-8.934-14.479-17.771-29.25-26.317-43.538-18.481-30.896-37.591-62.844-58.34-92.84-49.292-71.264-106.074-132.964-169.185-183.416l41.776-4.577C595.543 300.204 674.925 402.187 742.243 532l.316.608c5.783 11.156 8.969 17.3 14.685 20.309 4.21 2.214 8.973 2.34 16.09 1.468 2.698-.33 5.736-.805 9.209-1.363 1.56-.25 2.655-1.007 3.714-1.738.997-.688 2.363-1.63 4.967-2.824l4.71-2.158z"/><polygon fill="#1B212F" points="165.55 204.938 182.674 191.903 199.278 196.596 210.694 211.716 216.401 311.303 195.646 336.851 154.135 305.046"/><g transform="translate(128.616 150.052)"><path fill="#70464F" d="M46.314 261.57c-2.842.442-10.85 2.61-13.307 4.1-3.197 1.938-3.38 5.335-3.357 7.573.059 5.791 11.339 25.73 16.367 35.14 2.432 4.555 3.57-5.102 3.596-10.263.03-6.308-2.443-14.76.049-23.044"/><path fill="#70464F" d="M61.252 308.167c-.737 2.354-1.983 2.458-4.448 2.268-4.255-.328-11.177-8.543-11.309-8.287-1.462 2.853-4.687 8.314-3.645 14.03.708 4.292 9.852 19.817 15.977 24.746 3.133 2.52 4.855 2.277 7.98.198 3.124-3.118 1.506-6.703.52-10.913-1.037-4.433-5.368-20.537-3.355-24.176"/><path fill="#A3ABA9" d="M92.049 227.45c-.308-6.727-1.038-53.535-1.503-59.657-.44-5.767-6.334-11.77-7.032-11.671-6.04.861-45.1 6.175-48.746 8.226l10.25 14.034c-13.356-1.316-25-2.53-24.716-1.685.803 2.394 21.546 67.36 23.412 74.458.518 1.969 1.068 3.774 1.516 5.433-2.507 2.18-5.15 4.297-6.92 5.684-1.203.943-1.121 2.455-.855 3.96.65 3.684 2.68 8.459 5.063 10.58.806.718 1.802 1.353 3.2 1.533-.312 7.39-.681 14.986-.756 20.128-.205 1.65-.69 4.736-.088 6.287.318.821.1 7.78 8.434 9.34 7.811 1.04 8.738-3.422 9.913-7.167.992-3.162 6.789-27.14 9.135-38.149 2.83-1.169 5.323-2.238 7.03-3.044 11.138-5.267 13.804-13.37 12.663-38.29"/><path fill="#E7BAA9" d="M31.392 230.977c4.839 1.348 4.518-4.975 1.084-5.739-1.338-.297.6 2.487 1.25 2.19a3.15 3.15 0 0 0 1.842-2.99l-1.53-6.995-2.308-12.15-15.339-3.645-.268 12.297c-.144 6.537 3.85 13.853 15.27 17.032"/><path fill="#3A4665" d="M78.691 45.56c2.667 1.024 9.785 3.108 12.58 4.247 2.872 1.17 4.898 3.78 5.277 6.853 0 0 2.201 30.867 3.912 33.033l12.008 23.265s2.521 7.244-1.11 10.48c-3.63 3.237-4.277 5.348-10.023 5.192l-11.097-13.388 2.62 23.523 2.21 17.394c.817 5.227-1.34 13.865-2.668 19.951-.444 2.035-2.066 2.45-2.761.486-2.398-6.768-7.99-20.515-8.795-25.352-1.213-7.28-4.133-43.628-4.133-43.628L72.445 57.25M11.858 205.955a4.58 4.58 0 0 0 4.718 4.032c5.878-.214 15.918-1.618 15.9-1.378.053.382-2.604-13.796-2.54-13.808 2.9-.5 9.7-1.44 14.26-2.634 4.023-1.054 7.23-4.088 8.446-8.059l7.094-27.022c.392-1.276.581-2.606.564-3.941l-.905-33.85a39.798 39.798 0 0 0-2.272-12.734c-4.101-11.609-13.306-37.667-17.32-53.854-.036-1.555-8.438 2.235-12.715 4.65-5.361 3.407-11.18 6.328-15.844 9.637a12.42 12.42 0 0 0-5.226 9.629L.374 133.759a32.967 32.967 0 0 0 .293 9.628l11.19 62.568z"/><path fill="#FF6432" d="M109.033 127.022l-12.122-2.534c-1.163-.272-1.539-1.736-.651-2.532l15.225-13.67a6.49 6.49 0 0 1 5.693-1.517l8.423 1.8c2.701.785.732 2.81.732 2.81l-17.3 15.643z"/><path fill="#E7BAA9" d="M100.7 130.226l4.168 3.358c2.22.941 5.206.194 6.703-.82 0 0 7.878-4.702 6.93-9.907l-.87-3.579-7.036 2.028c-1.693.015-4.166 1.04-3.645 2.598.33.99 3.124 2.079 3.124 2.079l-6.072-1a3.89 3.89 0 0 0-4.334 2.553s-.53 1.045 1.032 2.69M85.26 17.313C80.984 7.556 73.297.61 64.453.661c-11.51.067-17.011 7.866-17.722 9.468-1.101 2.48-1.891 6.048-1.44 9.116.615 4.181 1.942 6.197 1.882 8.906-.102 4.518-1.768 10.724-2.808 14.407l-4.736 9.91s4.818 7.219 13.527 10.719c8.708 3.5 9.41.462 9.715-.175 0 0 .877-2.363 1.761-4.242 2.668 1.277 5.422 2.259 7.292 1.302 3.209-1.512 6.23-7.182 6.23-7.182l2.322-4.553 1.847.19a1.574 1.574 0 0 0 1.344-1.697l-.426-8.396c.104-.768 3.124-5.18 3.34-6.141 2.662-6.488.626-10.534-1.321-14.98"/><path fill="#70464F" d="M58.516 32.163c3.538.128 3.152-9.19 13.47-7.322 2.102.233 15.027 1.835 17.145 1.929 1.56.068 1.258-.455 1.607-1.286 1.078-3.854.477-10.587-1.984-14.049C82.841 2.39 74.781.258 65.654.311c-11.875.07-21.18 7.333-20.82 17.88.158 4.605 1.23 15.96 1.384 16.258 1.865 3.6 3.009-13.058 9.336-10.323 4.417 1.894 1.012 7.037 2.836 8.131"/></g></g></g></g></svg>